<svg xmlns="http://www.w3.org/2000/svg" viewBox="0 0 119.82 119.67"><defs><style>.a{fill:#fff}</style></defs><title>p1_s23</title><path class="a" d="M59.95.01A59.93 59.93 0 0 0 .04 59.84a59.94 59.94 0 0 0 59.91 59.82 60 60 0 0 0 59.91-59.84A59.93 59.93 0 0 0 59.95.01zm0 114.18A54.46 54.46 0 0 1 5.52 59.84 54.45 54.45 0 0 1 59.95 5.48a54.45 54.45 0 0 1 54.43 54.35 54.45 54.45 0 0 1-54.43 54.35z"/><path class="a" d="M60.05 17.35a42.55 42.55 0 0 0-42.53 42.48 42.56 42.56 0 0 0 42.53 42.48 42.55 42.55 0 0 0 42.53-42.48 42.55 42.55 0 0 0-42.53-42.48zm0 79.48a37.07 37.07 0 0 1-37.05-37 37.06 37.06 0 0 1 37-37 37.06 37.06 0 0 1 37.05 37 37.06 37.06 0 0 1-37 37z"/><path class="a" d="M79.04 39.08L61.4 55.4a6.15 6.15 0 0 0-4.68.28l-11.7-10.25a2.74 2.74 0 0 0-3.87.25 2.74 2.74 0 0 0 .25 3.87l12 10.49a6.15 6.15 0 0 0-.11 1.13 6.11 6.11 0 0 0 6.08 6.14 6.11 6.11 0 0 0 6.14-6.08 6.11 6.11 0 0 0-.29-1.89L82.77 43.1a2.74 2.74 0 0 0 .15-3.87 2.74 2.74 0 0 0-3.87-.15zM59.83 61.62a.55.55 0 0 1-.89 0 .63.63 0 0 1 0-.89.63.63 0 0 1 .89 0 .63.63 0 0 1 0 .89z"/></svg>