<svg xmlns="http://www.w3.org/2000/svg" viewBox="0 0 46.81 126.17"><defs><style>.a{fill:#3a1a0d}</style></defs><title>p1_s8</title><path class="a" d="M46.3 114.5a40.23 40.23 0 0 1-7.47 3.2l-7.63 2.77c-5.1 1.8-10.21 3.6-15.36 5.28h-.05a1 1 0 0 1-1.26-1.4l2.77-7.49c.82-2.53 1.74-5 2.47-7.59s1.52-5.09 2.11-7.69l1-3.86.81-3.9a147.82 147.82 0 0 0 3-31.56 128.89 128.89 0 0 0-4.28-31.3 149.9 149.9 0 0 0-4.96-15.05c-1-2.46-2-4.9-3.05-7.3s-2.27-4.79-3.52-7v-.07A1.036 1.036 0 0 1 12.61.4a68.47 68.47 0 0 1 8.25 14.14 100.93 100.93 0 0 1 5.36 15.37 132.76 132.76 0 0 1 4.23 32.33 129.29 129.29 0 0 1-.89 16.25c-.12 1.35-.33 2.69-.53 4s-.37 2.69-.61 4c-.52 2.66-.94 5.34-1.6 8l-.92 4-1.08 3.91c-.69 2.62-1.59 5.17-2.42 7.74s-1.86 5.07-2.77 7.61-2.1 5-3.14 7.45l-1.31-1.38c5-2.07 10.06-4 15.11-6l7.6-2.85a40.27 40.27 0 0 1 7.76-2.43 1.06 1.06 0 0 1 .72 1.95z"/><path class="a" d="M2.65 97.23a32.62 32.62 0 0 1 4 6.47l3.48 6.74c1.16 2.25 2.26 4.53 3.39 6.79s2.21 4.55 3.27 6.85a1.47 1.47 0 0 1-2.6 1.37q-1.94-3.27-3.79-6.58c-1.22-2.21-2.48-4.41-3.68-6.64l-3.58-6.69a32.64 32.64 0 0 1-3.07-7 1.5 1.5 0 0 1 2.6-1.37z"/></svg>