<svg xmlns="http://www.w3.org/2000/svg" viewBox="0 0 50.37 50.37"><defs><style>.a{fill:#3a1a0d}.b{fill:#fff}</style></defs><title>p1_s4</title><path class="a" d="M0 0h50.37v50.37H0z"/><path class="b" d="M25.59 19.78a5.81 5.81 0 1 0 5.82 5.81 5.81 5.81 0 0 0-5.82-5.81zm0 10.23a4.42 4.42 0 1 1 4.42-4.42A4.42 4.42 0 0 1 25.59 30z"/><path class="b" d="M41.62 24.89h-4.31a11.75 11.75 0 0 0-11-11v-5.1a.7.7 0 0 0-1.39 0v5.1a11.75 11.75 0 0 0-11 11H8.81a.7.7 0 0 0 0 1.39h5.05a11.75 11.75 0 0 0 11 11v4.3a.7.7 0 0 0 1.39 0v-4.3a11.74 11.74 0 0 0 11-11h4.31a.7.7 0 1 0 0-1.39zm-16 11a10.37 10.37 0 0 1-10.36-10.35 10.36 10.36 0 1 1 10.36 10.35z"/></svg>