<svg xmlns="http://www.w3.org/2000/svg" viewBox="0 0 362.92 85.34"><defs><style>.a{fill:#3a1a0d}</style></defs><title>p1_s3</title><path class="a" d="M11.62 26.02c-4.27 0-8.88-.82-8.88-4.46 0-3.36 3.89-6.29 6.43-7.78-1.68-.24-3.65-1.1-3.65-2.78a4.65 4.65 0 0 1 1.2-2.78c2.45-3 10-8.21 11.86-8.21.38 0 .91 0 .91.62 0 .14-.14.58-1 .91-4.08 1.73-11.18 6.24-11.18 9.12 0 1.1.91 1.92 2.4 1.92a9.25 9.25 0 0 0 4.08-1.3 7.54 7.54 0 0 1 1.34-.58.61.61 0 0 1 .58.67c0 1-2 1.68-3.7 2.21l-.43.14c-2.64 1.34-7.06 4.61-7.06 7.49 0 2.4 2.35 3.7 7.73 3.7h2.35a.58.58 0 0 1 .58.53c.04.67-.87.58-3.56.58z"/><path class="a" d="M44.45 26.55a3.39 3.39 0 0 1 1.39-2.45c1.82-1.58 5.33-2 7.68-2.35-1.1-2.4-4.66-4.22-6.38-6.19a33 33 0 0 1-8.11 5.57 4 4 0 0 1 .38 1.39c.24 3.74-4.56 6.14-7.78 6.14-1.34 0-3-.53-3-2.16 0-3.22 5.52-4.71 8.21-5.76-1.63-1.82-4.61-3.7-5.71-5.18a74.24 74.24 0 0 1-8.93 7.54c-2.64 1.87-4.22 2.78-7.58 2.78a.51.51 0 1 1 0-1 10.8 10.8 0 0 0 5.23-1.63c3.94-2.26 7.34-5.57 10.66-8.64a2.62 2.62 0 0 1-.43-1.34c0-1.87 1.68-4.46 3.7-4.46a1.45 1.45 0 0 1 1.49 1.54c0 1.58-1.87 3.41-3 4.32a52.7 52.7 0 0 0 5.52 4.8l.62.62a28.15 28.15 0 0 0 8.06-5.42 3.47 3.47 0 0 1-.38-1.54c0-1.78 1.78-4.32 3.7-4.32a1.45 1.45 0 0 1 1.49 1.54c0 1.58-1.87 3.41-3.07 4.32h-.1c1.68 1.63 3.6 3.07 5.38 4.61a5.26 5.26 0 0 1 1.54 2.16c.48 0 1.54-.1 1.82-.1a.53.53 0 1 1 0 1.06h-1.63c.53 3.79-4.51 6.19-7.63 6.19-1.46.07-3.14-.41-3.14-2.04zm-6.9-4.8c-2.4.91-7.63 2.59-7.63 4.56 0 1 .91 1.34 1.78 1.34 2.45 0 6.19-1.92 6.19-4.75a2.65 2.65 0 0 0-.34-1.15zm-6-8.64a1.81 1.81 0 0 0 0 .53c.58-.53 2.3-2.16 2.3-3a.4.4 0 0 0-.43-.43c-.97.02-1.87 2.08-1.87 2.89zM53.78 23v-.29c-2 .19-8 1-8 3.7 0 1 1 1.25 1.78 1.25 2.41-.01 6.21-1.88 6.21-4.67zm-6.29-9.84v.48c.58-.53 2.3-2.16 2.3-3a.38.38 0 0 0-.43-.43c-.92.02-1.88 2.14-1.88 2.94z"/><path class="a" d="M71.38 23.14c0 1.06-1.68 1.87-2.54 2.21a13.78 13.78 0 0 1-1.34.34 9.16 9.16 0 0 1-2 .19c-2.16 0-4.61-1.54-4.61-3.89a23.59 23.59 0 0 1-4.13.43.53.53 0 1 1 0-1.06 17.83 17.83 0 0 0 4.22-.48c.48-2.59 2.64-5.76 5.57-5.76 1.25 0 2.64.72 2.64 2.11 0 2.21-5 3.94-6.67 4.42h-.14a3 3 0 0 0 3.17 3.17 7.52 7.52 0 0 0 4.51-1.3 11.46 11.46 0 0 1 1-.77c.27.05.32.15.32.39zm-8.83-2.59c1.15-.29 4.7-2 4.7-3.36 0-.48-.58-.58-1-.58-1.88 0-3.27 2.26-3.7 3.94zm33.12-3.7c0 .19-.14.24-.29.24-.53 0-.77-.72-1.82-.72-2.11 0-3.89 3.65-3.89 5.47s1.3 2.83 3 3c.29 0 .48.14.48.48a.49.49 0 0 1-.48.53c-2.26 0-4.61-1.58-4.61-4s2.26-6.58 5-6.58c.83 0 2.61.62 2.61 1.58z"/><path class="a" d="M114.77 25.2c2.3-1.49 3.26-4.08 4.42-6.43.34-.62 1-1.54 1.73-1.54 1.49 0 1.1 2.74 1.25 3.7a4.53 4.53 0 0 0 3.79 3.84c.38.1 1.34 0 1.34.58a.53.53 0 0 1-.53.53 6.53 6.53 0 0 1-6.58-5.57c-1.2 2.88-3.79 6.77-7.3 6.77-2.4 0-3.74-1.92-3.74-4.18a17.57 17.57 0 0 1 .58-3.17c-.86.43-1.63 1-2.5 1.44-4.27 2.21-9.84 4.71-14.64 4.71a.52.52 0 0 1-.48-.53c0-.38.38-.48.67-.48 3 0 7-1.54 9.75-2.74a27.69 27.69 0 0 0 3.74-2 20.27 20.27 0 0 0 2-1.39c.67-.48 2.4-2.16 3.17-2.16a1 1 0 0 1 1 1.06c0 1.3-1.78 3.12-1.78 5.47a2.36 2.36 0 0 0 2.5 2.54 3 3 0 0 0 1.61-.45z"/><path class="a" d="M147.55 24.87a.52.52 0 0 1 .53.48.53.53 0 0 1-.53.53c-2.45 0-5.14-1.2-5.14-4 0-2.06 1.3-4 1.3-6 0-1.3-1.44-1.92-2.45-2.35h-.14a29.76 29.76 0 0 1-5.09 6.43c-2.11 2-4 4.18-6.62 5.47a5.41 5.41 0 0 1-2.45.58c-.34 0-.77 0-.77-.53a.52.52 0 0 1 .48-.48 5.32 5.32 0 0 0 1.92-.43c2.93-1.3 10-8.4 11.52-11.62-1.1-.58-2.35-1.39-2.35-2.78a2.08 2.08 0 0 1 2.11-2 2.35 2.35 0 0 1 2.35 2.3 4.6 4.6 0 0 1-.43 1.78h.14c1.63.72 3.26 1.58 3.26 3.65s-1 3.79-1.34 5.71a1.61 1.61 0 0 0 0 .48c-.09 1.72 2.07 2.78 3.7 2.78zm-7-13.39a3.68 3.68 0 0 0 .14-1c0-.38-.19-1-.72-1a.78.78 0 0 0-.77.72c.05.55.91.98 1.35 1.27z"/><path class="a" d="M164.35 28.66c-1.39 0-3-.48-3-2.11a3.34 3.34 0 0 1 1.34-2.45c1.82-1.58 5.28-2.06 7.63-2.4-1.15-2.45-4.61-4.13-6.34-6.14a74.24 74.24 0 0 1-8.93 7.54c-2.64 1.87-4.22 2.78-7.58 2.78a.51.51 0 1 1 0-1 10.8 10.8 0 0 0 5.23-1.63c3.94-2.26 7.34-5.57 10.66-8.64a2.62 2.62 0 0 1-.43-1.34c0-1.87 1.68-4.46 3.7-4.46a1.45 1.45 0 0 1 1.42 1.54c0 1.58-1.87 3.41-3 4.32h-.1c1.73 1.63 3.55 3 5.33 4.61a5.59 5.59 0 0 1 1.54 2.16c.48 0 1.54-.1 1.82-.1a.53.53 0 1 1 0 1.06h-1.54c.32 3.67-4.63 6.26-7.75 6.26zm6.2-5.71v-.29c-2 .19-8 1-8 3.74 0 1 1 1.25 1.78 1.25 2.47 0 6.22-1.87 6.22-4.7zm-6.19-9.84a1.81 1.81 0 0 0 0 .53c.58-.53 2.3-2.16 2.3-3a.4.4 0 0 0-.43-.43c-.96.02-1.88 2.08-1.88 2.89z"/><path class="a" d="M193.97 22.13c0 .82-1.34.86-1.92.86a7 7 0 0 1-2.45-.24 7.08 7.08 0 0 1-6.29 4.37c-2.11 0-3.07-1.82-3.07-3.7a7.43 7.43 0 0 1 .67-2.88 15.06 15.06 0 0 1-7.34 1.87.49.49 0 0 1-.48-.53.48.48 0 0 1 .53-.53c3 0 5.86-1.3 8.45-2.78.91-1.34 2.83-3.31 4.56-3.31 1.39 0 2 1.34 2 2.54a3.62 3.62 0 0 1 1.39 3 5.9 5.9 0 0 1-.1.91 6.52 6.52 0 0 0 2.16.29c.38 0 .77-.1 1.15-.1.11-.01.74.04.74.23zm-5.57 0c-.91-.29-2.88-2.11-2.88-3.17a1.64 1.64 0 0 1 1.82-1.49c-.14-.29-.34-.58-.72-.58a3 3 0 0 0-1.1.38 8.4 8.4 0 0 0-3.75 6.48 1.77 1.77 0 0 0 1.87 2 5.26 5.26 0 0 0 4.76-3.62zm.19-1.3c0-.67-.58-2.16-1.39-2.16-.24 0-.34.24-.34.43 0 .86 1.25 1.39 1.73 1.87zm36.1 2.31c0 1.44-2.78 2.3-3.89 2.54a9.16 9.16 0 0 1-2 .19 4.31 4.31 0 0 1-4.61-4.18 18.25 18.25 0 0 1-3.22.34c-.43 0-1.39-.29-1.39-.86 0-.34.53-.34.77-.34a19.27 19.27 0 0 0 4-.48v-.19c.53-2.35 2.88-5 5.42-5 1.25 0 2.64.72 2.64 2.11a2.65 2.65 0 0 1-.29 1.06c-.72 1.44-4.66 2.45-6.14 2.93a1.11 1.11 0 0 1-.38.1v.43c0 2 1.25 3 3.12 3.12a7.52 7.52 0 0 0 4.51-1.3 11.32 11.32 0 0 1 1-.77c.41-.04.46.06.46.3zm-8.64-3.17c1.1-.24 4.51-1.44 4.51-2.74 0-.53-.53-.62-1-.62-1.64 0-3.08 1.87-3.51 3.36zm1.58-7.1c-.19 0-.29 0-.29-.19 0-.34 3.22-3.12 4-3.12.38 0 .72.19.72.48 0 .62-2.93 2.5-4 2.78a1.34 1.34 0 0 1-.43.04zM14.55 61.77c.62 2 1 4.46 3.6 4.46a.49.49 0 0 1 .53.48.53.53 0 0 1-.53.53c-5.18 0-4.51-6.34-6-6.34-1.25 0-4.13 6.48-6.29 6.48-1 0-1.39-.91-1.39-1.73 0-1.63.77-3.22.77-4.8 0-.62 0-1.34-.82-1.34-1.3 0-3.12 1.73-3.94 1.73a.44.44 0 0 1-.48-.38c0-1.06 3.41-2.74 4.46-2.74a2.21 2.21 0 0 1 2.21 2.45c0 1.68-1 3.46-1 4.94a.37.37 0 0 0 .34.38h.19c1.78-1.78 2.88-4.08 4.66-5.86a2.61 2.61 0 0 1 1.68-.86c1.34-.04 1.77 1.59 2.01 2.6z"/><path class="a" d="M34.55 62.58a5.77 5.77 0 0 0 .62 1.49 3.69 3.69 0 0 0 3.22 2.16.52.52 0 0 1 .53.48.53.53 0 0 1-.53.53c-4.27 0-4.9-4.22-6-4.22s-2.54 5.18-6.77 5.18a2.38 2.38 0 0 1-2.59-2.54v-.31a7.1 7.1 0 0 1-4.9 1.87.48.48 0 0 1-.53-.53.52.52 0 0 1 .48-.48c2.16 0 4-1.54 5.57-2.88 1.15-2.06 3.65-4.56 6.19-4.56a3.44 3.44 0 0 1 3 1.54c1.34-.13 1.39 1.31 1.71 2.27zm-3.41-1.1c-.38-.62-.82-1.2-1.58-1.2-2 0-4.9 3.22-4.9 5.14a1.31 1.31 0 0 0 1.39 1.39c2.13 0 3.91-3.84 5.06-5.33z"/><path class="a" d="M59.09 66.23a.52.52 0 0 1 .53.48.53.53 0 0 1-.53.53c-2.45 0-5.14-1.2-5.14-4 0-2.06 1.3-4 1.3-6 0-1.3-1.44-1.92-2.45-2.35h-.14a29.76 29.76 0 0 1-5.09 6.43c-2.11 2-4 4.18-6.62 5.47a5.41 5.41 0 0 1-2.45.58c-.34 0-.77 0-.77-.53a.52.52 0 0 1 .48-.48 5.32 5.32 0 0 0 1.92-.43c2.93-1.3 10-8.4 11.52-11.62-1.1-.58-2.35-1.39-2.35-2.78a2.08 2.08 0 0 1 2.11-2 2.35 2.35 0 0 1 2.35 2.3 4.6 4.6 0 0 1-.43 1.78h.14c1.63.72 3.26 1.58 3.26 3.65s-1 3.79-1.34 5.71a1.61 1.61 0 0 0 0 .48c-.04 1.73 2.16 2.78 3.7 2.78zm-7-13.39a3.68 3.68 0 0 0 .14-1c0-.38-.19-1-.72-1a.78.78 0 0 0-.77.72c.1.56.96.99 1.39 1.28z"/><path class="a" d="M79.83 66.23a.52.52 0 0 1 .53.48.53.53 0 0 1-.53.53c-2.45 0-5.14-1.2-5.14-4 0-2.06 1.3-4 1.3-6 0-1.3-1.44-1.92-2.45-2.35h-.14a29.76 29.76 0 0 1-5.09 6.43c-2.11 2-4 4.18-6.62 5.47a5.41 5.41 0 0 1-2.45.58c-.34 0-.77 0-.77-.53a.52.52 0 0 1 .48-.48 5.32 5.32 0 0 0 1.92-.43c2.93-1.3 10-8.4 11.52-11.62-1.1-.58-2.35-1.39-2.35-2.78a2.08 2.08 0 0 1 2.11-2 2.35 2.35 0 0 1 2.35 2.3 4.6 4.6 0 0 1-.43 1.78h.14c1.63.72 3.26 1.58 3.26 3.65s-1 3.79-1.34 5.71a1.61 1.61 0 0 0 0 .48c-.05 1.73 2.12 2.78 3.7 2.78zm-7-13.39a3.68 3.68 0 0 0 .14-1c0-.38-.19-1-.72-1a.78.78 0 0 0-.77.72c.07.56.96.99 1.39 1.28z"/><path class="a" d="M96.15 62.58a5.77 5.77 0 0 0 .62 1.49 3.69 3.69 0 0 0 3.22 2.16.52.52 0 0 1 .53.48.53.53 0 0 1-.53.53c-4.27 0-4.9-4.22-6-4.22s-2.54 5.18-6.77 5.18a2.38 2.38 0 0 1-2.59-2.54v-.31a7.1 7.1 0 0 1-4.9 1.87.48.48 0 0 1-.53-.53.52.52 0 0 1 .48-.48c2.16 0 4-1.54 5.57-2.88 1.15-2.06 3.65-4.56 6.19-4.56a3.44 3.44 0 0 1 3 1.54c1.37-.13 1.42 1.31 1.71 2.27zm-3.41-1.1c-.38-.62-.82-1.2-1.58-1.2-2 0-4.9 3.22-4.9 5.14a1.31 1.31 0 0 0 1.39 1.39c2.16 0 3.9-3.84 5.09-5.33z"/><path class="a" d="M117.46 52.35c.82-3.26 3.6-13.1 7.68-13.1a1.57 1.57 0 0 1 1.58 1.78c0 3.17-2.78 7.34-4.27 10.13a75.51 75.51 0 0 1-4.66 8.11c0 .58.1 1.25.19 1.82a6 6 0 0 0 4 4.75 8.66 8.66 0 0 0 2.45.38.52.52 0 0 1 .53.48.53.53 0 0 1-.53.53 7.49 7.49 0 0 1-6.82-3.75 10.65 10.65 0 0 1-.86-2.74c-1.87 2.59-5 7.1-8.54 7.1a2.91 2.91 0 0 1-3-2.83c-1.82 1.39-3 2.21-5.33 2.21a.48.48 0 0 1-.53-.53.45.45 0 0 1 .48-.48c2.3 0 4.18-1.73 5.86-3.12a7.11 7.11 0 0 1 6-4.08 3.59 3.59 0 0 1 3.22 2.3c.62-.82 1.15-1.63 1.73-2.45a27.05 27.05 0 0 1 .82-6.51zm-3.74 10.42a2.3 2.3 0 0 0-2.3-2.11c-2 0-4.61 2.06-4.61 4.18a1.45 1.45 0 0 0 1.58 1.54c2.25-.03 3.98-2.12 5.33-3.6zm6.58-10c.91-1.54 1.68-3.12 2.5-4.7s2.4-4.13 2.4-5.76c0-.53-.19-1-.77-1-2.21 0-4.66 7.73-5.18 9.55a30.11 30.11 0 0 0-1.44 6.14z"/><path class="a" d="M148.28 63.5c0 1-1.82.86-2.45.86a5.18 5.18 0 0 1-1.92-.29 7.2 7.2 0 0 1-6.34 4.42c-2 0-3-1.87-3-3.7a5.54 5.54 0 0 1 .14-1.25c-3.07 2.11-5.9 3.7-9.7 3.7-.43 0-1.1.1-1.1-.53a.52.52 0 0 1 .53-.48 15.32 15.32 0 0 0 10-3.84l1-.91c.91-1.82 3.31-4.9 5.52-4.9 1.34 0 1.92 1.39 1.92 2.59a3.56 3.56 0 0 1 1.39 3 5.9 5.9 0 0 1-.1.91 6.78 6.78 0 0 0 2.21.24c.26.03 1.9-.21 1.9.18zm-5.57 0c-1-.53-2.88-1.92-2.88-3.17 0-1 1-1.49 1.82-1.54a.78.78 0 0 0-.72-.53 2.54 2.54 0 0 0-1.1.38 8.44 8.44 0 0 0-3.74 6.43 1.8 1.8 0 0 0 1.92 2 5.16 5.16 0 0 0 4.7-3.57zm.19-1.3c0-.67-.58-2.16-1.39-2.16-.19 0-.34.24-.34.43 0 .82 1.25 1.39 1.73 1.87zm38.3 4.56a.49.49 0 0 1-.53.48 33.52 33.52 0 0 1-6-.34 9.4 9.4 0 0 1-3.46-1c-1.49 5.14-2.3 6.91-3.74 11-1.39 3.94-2.5 8.35-5.42 8.35-1.39 0-2.4-1.63-2.4-3.5 0-7 8.4-18 12.15-23.43a11.82 11.82 0 0 0 .1-1.3c0-.72-.24-1.73-.24-2.16s.38-1.06 1-1.06c1 0 1 1.2 1 2a3.3 3.3 0 0 1-.14 1.1c1.25-.62 2.16-1.39 3.7-1.39 1.92 0 4.18 1.1 4.18 3.41 0 2.88-3.89 6.48-6.86 6.48 1.1.62 4.75.72 6.14.72a.57.57 0 0 1 .52.64zm-9.94-5.57c-3.55 5.47-4.7 7-6.58 10.13a69.86 69.86 0 0 0-3.07 6.86 11.6 11.6 0 0 0-.58 3.5c0 1.39.34 2.21 1.15 2.21 1.25 0 2-1.82 2.93-4.42 1.25-3.41 2-5.28 3.17-8.88 1.07-3.3 2.22-6.24 2.99-9.4zm1.87 3.65c2.21 0 6.43-2.45 6.43-5.57a2 2 0 0 0-2.26-2 7.26 7.26 0 0 0-4 1.49c-.53 2.21-.86 4-1.49 5.86a4.75 4.75 0 0 0 1.33.22z"/><path class="a" d="M204.55 62.58a18.6 18.6 0 0 0 2.83.14.53.53 0 1 1 0 1.06 18.53 18.53 0 0 1-3.12-.19c-1 2.54-3.79 4.85-6.38 4.85-2 0-3.07-1.73-3.07-3.55a6.52 6.52 0 0 1 .43-2.3c-4.27 1.87-10 4.66-14.59 4.66a.49.49 0 0 1-.48-.53.52.52 0 0 1 .48-.48 15.22 15.22 0 0 0 4.13-.72 55.89 55.89 0 0 0 11.23-4.61 18.86 18.86 0 0 1 1.39-1.87c.86-1.06 2.45-2.59 3.89-2.59s1.92 1.2 1.92 2.4a3.55 3.55 0 0 1 1.39 3 4.13 4.13 0 0 1-.05.73zm-1.73.62c-1.44-.48-2.69-1.39-2.69-3.12 0-1 .77-1.54 1.87-1.63a1 1 0 0 0-.82-.53 1.91 1.91 0 0 0-1.2.43 9.74 9.74 0 0 0-3.65 6.67 2 2 0 0 0 2 2.11c1.4.01 3.71-1.62 4.52-3.92zm.29-1v-.67c0-1-.53-1.82-1.34-1.82-.19 0-.29.19-.29.38a2.16 2.16 0 0 0 1.66 2.11z"/><path class="a" d="M233.09 59.66c0 .19-.19.24-.34.24a8.43 8.43 0 0 1-1.58-.24 11.36 11.36 0 0 0-1.82-.1c-5.14 0-8.54 2.93-11.42 6.91-.38.48-1.1 1.49-1.78 1.49-1.78 0-1.2-5.47-1.39-6.62 0-.24-.14-.53-.43-.53a1.07 1.07 0 0 0-.72.38 11 11 0 0 1-3.07 2 9 9 0 0 1-3.17.58.53.53 0 1 1 0-1.06 8.12 8.12 0 0 0 2.4-.38 9.07 9.07 0 0 0 3.26-2.26 2.71 2.71 0 0 1 1.73-1c1.44 0 1.39 2.26 1.39 3.22v3.12c0 .19 0 .67.34.67s1.25-1.34 1.39-1.49a23.78 23.78 0 0 1 2.64-2.74 14.73 14.73 0 0 1 9.31-3.41c.81.02 3.26.06 3.26 1.22zm31.63 7.58c-4.27 0-4.94-4.22-6-4.22s-2.59 5.18-6.72 5.18a2.46 2.46 0 0 1-2.69-2.64c0-2.88 3.94-6.77 6.86-6.77a3.16 3.16 0 0 1 2.93 1.54c1.39-.14 1.49 1.3 1.78 2.26a7.9 7.9 0 0 0 .58 1.49 3.76 3.76 0 0 0 3.26 2.16.52.52 0 0 1 .53.48.53.53 0 0 1-.53.52zm-12.38-.43c1.34 0 2.83-1.87 3.55-2.88.53-.77 1-1.68 1.54-2.45-.38-.62-.77-1.2-1.58-1.2-2 0-4.85 3.22-4.85 5.14a1.27 1.27 0 0 0 1.34 1.39zm1.68-12.24c-.19 0-.29 0-.29-.19 0-.34 3.22-3.12 4-3.12.38 0 .72.19.72.48 0 .62-2.93 2.5-4 2.78a1.34 1.34 0 0 1-.43.05z"/><path class="a" d="M280.55 66.57c2.35-1.58 3.22-3.94 4.42-6.38.34-.67 1-1.58 1.78-1.58 1.49 0 1.06 2.69 1.2 3.7a4.64 4.64 0 0 0 3.84 3.84c.38.1 1.3 0 1.3.58a.53.53 0 0 1-.53.53 6.53 6.53 0 0 1-6.58-5.57 7.54 7.54 0 0 1-.86 1.78c-1.39 2.35-3.41 5-6.43 5-2.5 0-3.7-2.11-3.7-4.37a8.12 8.12 0 0 1 .29-2.16 17.51 17.51 0 0 1-5.28 4.08 11.59 11.59 0 0 1-5.38 1.2.49.49 0 0 1-.48-.53.52.52 0 0 1 .48-.48 9.85 9.85 0 0 0 4.8-1.15 17.71 17.71 0 0 0 5.33-4.66c.43-.67 1.49-2.45 2.45-2.45a1 1 0 0 1 1 1.06c0 1.3-1.78 3.12-1.78 5.47a2.37 2.37 0 0 0 2.5 2.59 2.91 2.91 0 0 0 1.63-.5z"/><path class="a" d="M309.98 52.35c.82-3.26 3.6-13.1 7.68-13.1a1.57 1.57 0 0 1 1.58 1.78c0 3.17-2.78 7.34-4.27 10.13a75.51 75.51 0 0 1-4.66 8.11c0 .58.1 1.25.19 1.82a6 6 0 0 0 4 4.75 8.66 8.66 0 0 0 2.45.38.52.52 0 0 1 .53.48.53.53 0 0 1-.53.53 7.49 7.49 0 0 1-6.82-3.75 10.65 10.65 0 0 1-.86-2.74c-1.87 2.59-5 7.1-8.54 7.1a2.91 2.91 0 0 1-3-2.83c-1.82 1.39-3 2.21-5.33 2.21a.48.48 0 0 1-.53-.53.45.45 0 0 1 .48-.48c2.3 0 4.18-1.73 5.86-3.12a7.11 7.11 0 0 1 6-4.08 3.59 3.59 0 0 1 3.22 2.3c.62-.82 1.15-1.63 1.73-2.45a27.05 27.05 0 0 1 .82-6.51zm-3.74 10.42a2.3 2.3 0 0 0-2.3-2.11c-2 0-4.61 2.06-4.61 4.18a1.45 1.45 0 0 0 1.58 1.54c2.26-.03 3.99-2.12 5.33-3.6zm6.58-10c.91-1.54 1.68-3.12 2.5-4.7s2.4-4.13 2.4-5.76c0-.53-.19-1-.77-1-2.21 0-4.66 7.73-5.18 9.55a30.11 30.11 0 0 0-1.44 6.14z"/><path class="a" d="M329.62 58.35a1.66 1.66 0 0 1 .34 1.25 8.79 8.79 0 0 0 1.68 5.57 2.89 2.89 0 0 0 2.4 1.06c.24 0 .53.19.53.48a.53.53 0 0 1-.53.53c-3.46 0-5.18-3.55-5.38-6.58a17.12 17.12 0 0 1-6.34 5.38 11.59 11.59 0 0 1-5.38 1.2.53.53 0 0 1-.53-.53.52.52 0 0 1 .53-.48 9.67 9.67 0 0 0 4.75-1.15 14.78 14.78 0 0 0 5.09-4.66c.43-.62 1.3-2.35 2.16-2.35a.87.87 0 0 1 .68.28zm-.91-7.49c0-.48.43-.67.86-.67.77 0 1.15 1 1.15 1.68 0 .38-.19.72-.58.72-.67.01-1.44-1.1-1.44-1.72z"/><path class="a" d="M357.79 63.5c0 1-1.82.86-2.45.86a5.18 5.18 0 0 1-1.92-.29 7.2 7.2 0 0 1-6.34 4.42c-2 0-3-1.87-3-3.7a5.54 5.54 0 0 1 .14-1.25c-3.07 2.11-5.9 3.7-9.7 3.7-.43 0-1.1.1-1.1-.53a.52.52 0 0 1 .53-.48 15.32 15.32 0 0 0 10-3.84l1-.91c.91-1.82 3.31-4.9 5.52-4.9 1.34 0 1.92 1.39 1.92 2.59a3.56 3.56 0 0 1 1.39 3 5.9 5.9 0 0 1-.1.91 6.78 6.78 0 0 0 2.21.24c.27.03 1.9-.21 1.9.18zm-5.57 0c-1-.53-2.88-1.92-2.88-3.17 0-1 1-1.49 1.82-1.54a.78.78 0 0 0-.72-.53 2.54 2.54 0 0 0-1.1.38 8.44 8.44 0 0 0-3.74 6.43 1.8 1.8 0 0 0 1.92 2 5.16 5.16 0 0 0 4.7-3.57zm.19-1.3c0-.67-.58-2.16-1.39-2.16-.19 0-.34.24-.34.43 0 .82 1.25 1.39 1.73 1.87zm7.97 8.35a.36.36 0 0 1-.29-.34c0-.58.62-1.3.82-2 .29-1.06-.1-2.93 1.15-2.93.62 0 .86.34.86.91a6.31 6.31 0 0 1-1.82 3.89 1.32 1.32 0 0 1-.72.47z"/></svg>