<svg xmlns="http://www.w3.org/2000/svg" viewBox="0 0 463.89 48"><title>p0_s17</title><path d="M12.75 13.66c.85-3.4 3.8-13.65 8-13.65a1.63 1.63 0 0 1 1.65 1.85 13.93 13.93 0 0 1-1.45 5.05c-.85 1.9-2 3.65-3 5.5-1.35 2.45-2.55 4.9-4.05 7.25-.25.4-.5.8-.8 1.2.3 2 .45 3.85 1.95 5.35a7.11 7.11 0 0 0 5 1.9.51.51 0 0 1 .55.5.56.56 0 0 1-.55.55c-4.45 0-7.15-2.5-8-6.75-2 2.7-5.15 7.4-8.85 7.4a3 3 0 0 1-3.2-3.1c0-3 3.75-6.1 6.7-6.1a3.61 3.61 0 0 1 3.35 2.4c.65-.85 1.2-1.7 1.8-2.55a28.18 28.18 0 0 1 .9-6.8zm-3.9 10.85v-.05a2.33 2.33 0 0 0-2.4-2.2c-2.05 0-4.8 2.1-4.8 4.3a1.55 1.55 0 0 0 1.65 1.65c2.35 0 4.2-2.1 5.55-3.7zm6.85-10.45c.9-1.6 1.75-3.25 2.6-4.9s2.5-4.25 2.5-6c0-.5-.2-1-.8-1-2.25 0-4.8 8.1-5.4 10a35 35 0 0 0-1.5 6.4z" fill="#fff"/><path d="M38.5 20.16a2.55 2.55 0 0 1-.3 1.05 3.82 3.82 0 0 1-1.25 1.1c-.65.4-1.35.7-2 1-1.2.65-2.3 1.35-3.5 2 .2 1.9 1.45 2.55 3.2 2.8.25 0 .55.2.55.5a.56.56 0 0 1-.55.55 4.84 4.84 0 0 1-4.65-3.1c-3.15 1.55-6.3 3.1-9.9 3.1a.57.57 0 0 1-.6-.55.55.55 0 0 1 .55-.5 14.5 14.5 0 0 0 4.4-.75 45 45 0 0 0 5.45-2.55c0-3 2.7-6.85 5.9-6.85 1.2 0 2.7.75 2.7 2.2zm-2.15.75a.83.83 0 0 0 .25-.6c0-.6-.6-.8-1.1-.8-2.15 0-3.55 2.6-4 4.4a32.59 32.59 0 0 0 4.8-3z" fill="#fff"/><path d="M56.1 19.96a9.8 9.8 0 0 1 .25 1.8c.2 1.85.45 3.8 1.75 5.25a3.1 3.1 0 0 0 1.1.85c.5.2 2 .1 2 .75a.56.56 0 0 1-.55.55 5.17 5.17 0 0 1-4-2.05 11.88 11.88 0 0 1-2.15-5.7c-5.1 3.5-13.8 7.75-20 7.75a.56.56 0 0 1-.55-.55c0-.45.45-.5.75-.5 3.3-.1 7.05-1.6 10.1-2.85a34.77 34.77 0 0 0 5.1-2.67c.7-.45 1.35-.9 2-1.4s2-1.9 3-1.9a1.32 1.32 0 0 1 1.2.67zm-1.05-7.85c0-.5.45-.7.9-.7.8 0 1.2 1.05 1.2 1.75 0 .4-.15.75-.6.75-.7 0-1.5-1.15-1.5-1.8z" fill="#fff"/><path d="M84.35 27.21a6.06 6.06 0 0 0 3.1.9.55.55 0 0 1 .55.5.55.55 0 0 1-.55.55 6.24 6.24 0 0 1-3.15-.6 15.64 15.64 0 0 1-3.45-2.6c-.5.5-4.55 4.85-5.3 4.85a.35.35 0 0 1-.35-.4c0-1.25 3.55-4.75 4.4-5.65-.4-.55-2.55-2.75-3.15-2.75a2.53 2.53 0 0 0-1.15.45c-.9.55-1.7 1.2-2.55 1.8a39.51 39.51 0 0 1-5.05 3 14.16 14.16 0 0 1-7.25 1.9.51.51 0 0 1-.5-.55c0-.45.35-.5.7-.5a18.29 18.29 0 0 0 6.85-2.15 44.51 44.51 0 0 0 7.4-5.15 5.84 5.84 0 0 1 1.1-.85 1.27 1.27 0 0 1 .6-.1 1.1 1.1 0 0 1 .85.35c1.1 1.1 2.2 2.3 3.2 3.5l3.3-3.35a19.92 19.92 0 0 1 1.45-1.45 2.44 2.44 0 0 1 1.35-.75c.45 0 .7.45.7.9a1 1 0 0 1-.25.7 18.41 18.41 0 0 1-1.75 1.65c-1.25 1.15-2.45 2.35-3.65 3.55a27.31 27.31 0 0 0 2.55 2.25z" fill="#fff"/><path d="M104 28.96a9.51 9.51 0 0 1-2.05.2c-1.9 0-4.15-1.15-4.65-3.1-3.2 1.6-6.3 3.1-10 3.1a.56.56 0 0 1-.55-.55.55.55 0 0 1 .55-.5 14.77 14.77 0 0 0 4.4-.75 41 41 0 0 0 5.4-2.55 7.94 7.94 0 0 1 4.15-6.45 3.47 3.47 0 0 1 1.75-.4c1.3 0 2.75.75 2.75 2.2a2.55 2.55 0 0 1-.3 1.05 3.48 3.48 0 0 1-1.3 1.1c-.65.4-1.3.7-1.95 1-1.15.65-2.3 1.35-3.5 2 0 1.65 1.7 2.8 3.25 2.8a7.5 7.5 0 0 0 4.7-1.35 11.91 11.91 0 0 1 1.1-.8c.2 0 .25.1.25.3.05 1.6-2.8 2.45-4 2.7zm-5.15-5.05a32.59 32.59 0 0 0 4.8-3 .92.92 0 0 0 .25-.6c0-.6-.65-.8-1.15-.8-2.05 0-3.6 2.6-3.9 4.4zM142.35 28.66a.51.51 0 0 1-.55.5 34.86 34.86 0 0 1-6.2-.35 9.8 9.8 0 0 1-3.6-1c-1.55 5.35-2.4 7.2-3.9 11.5-1.45 4.1-2.6 8.7-5.65 8.7-1.45 0-2.5-1.7-2.5-3.65 0-7.25 8.75-18.75 12.65-24.4a12.19 12.19 0 0 0 .1-1.35c0-.75-.25-1.8-.25-2.25s.4-1.1 1-1.1c1 0 1.05 1.25 1.05 2.1a3.44 3.44 0 0 1-.15 1.15c1.3-.65 2.25-1.45 3.85-1.45 2 0 4.35 1.15 4.35 3.55 0 3-4.05 6.75-7.15 6.75 1.15.65 5 .75 6.4.75a.59.59 0 0 1 .55.55zM132 22.86c-3.7 5.7-4.9 7.25-6.85 10.55a73.13 73.13 0 0 0-3.2 7.15 12.1 12.1 0 0 0-.6 3.65c0 1.45.35 2.3 1.2 2.3 1.3 0 2.05-1.9 3.05-4.6 1.3-3.55 2.05-5.5 3.3-9.25 1.1-3.45 2.3-6.55 3.1-9.8zm2 3.8c2.3 0 6.7-2.55 6.7-5.8a2.1 2.1 0 0 0-2.35-2.05 7.57 7.57 0 0 0-4.2 1.55c-.55 2.3-.9 4.15-1.55 6.1a5 5 0 0 0 1.35.2z" fill="#fff"/><path d="M165.9 20.16c0 2.2-5 4.45-6.75 5.2l-.3.1c.2 1.75 1.6 2.45 3.2 2.65.25 0 .55.2.55.5a.55.55 0 0 1-.55.55c-2 0-4.15-1.15-4.65-3.15a49.83 49.83 0 0 1-15.65 3.15.56.56 0 0 1-.55-.55.55.55 0 0 1 .55-.5 33.8 33.8 0 0 0 6.35-.7c1.9-.35 3.75-.9 5.6-1.4.9-.3 2-.5 2.9-.9l.65-.3c.25-3 2.55-6.85 5.9-6.85 1.3 0 2.75.75 2.75 2.2zm-2 .25a.94.94 0 0 0-1.05-.9c-2.15 0-3.7 2.7-4 4.6 1.2-.52 5.1-2.2 5.1-3.7z" fill="#fff"/><path d="M189.1 28.11a.55.55 0 0 1 .55.55.55.55 0 0 1-.55.5c-2.6 0-5.4-1.3-5.4-4.25 0-2.05 1.4-4.15 1.4-6.25 0-1.4-1.5-1.85-2.5-2.4l-.15.35c-2.4 4.4-7.8 8.15-12.25 10.45a15.85 15.85 0 0 1-8.25 2.1.55.55 0 0 1-.5-.55.54.54 0 0 1 .5-.5 13.87 13.87 0 0 0 4.3-.75c5.15-1.65 12.65-6.7 15.1-11.8-1.15-.6-2.45-1.45-2.45-2.9a2.17 2.17 0 0 1 2.2-2.1 2.48 2.48 0 0 1 2.4 2.55 5.14 5.14 0 0 1-.3 1.75c1.7.75 3.4 1.65 3.4 3.8s-1.45 4.75-1.45 6.45c.05 1.9 2.3 3 3.95 3zm-7.25-14v-.05a3.8 3.8 0 0 0 .15-1c0-.4-.2-1-.75-1a.81.81 0 0 0-.8.75c.05.6.95 1.05 1.4 1.35z" fill="#fff"/><path d="M206.95 15.59c0 1.25-3.5 1.3-4.35 1.35v.05a2.08 2.08 0 0 1-.2.5 18.35 18.35 0 0 0-1.65 6.45 3.83 3.83 0 0 0 1.2 3.1 4.9 4.9 0 0 0 2.75 1c.25 0 .55.2.55.5a.56.56 0 0 1-.55.55 4.87 4.87 0 0 1-5.1-5.05 16.44 16.44 0 0 1 .4-3.15c-1.8 3.15-7.15 8.2-11 8.2a.56.56 0 0 1-.55-.55c0-.3.3-.45.55-.5a10.94 10.94 0 0 0 5.05-2.5 22.18 22.18 0 0 0 6.45-8.48c-.8.05-1.55.1-2.35.1-.45 0-1.55-.15-1.55-.8 0-1 3.7-.9 4.55-.9.25-.65 1.1-3.25 2-3.25.65 0 .75 1.1.75 1.55a7.12 7.12 0 0 1-.55 1.65 18.09 18.09 0 0 1 2.85 0c.15 0 .75-.15.75.18z" fill="#fff"/><path d="M217.9 19.91a1.73 1.73 0 0 1 .35 1.3c0 1.9.45 4.35 1.75 5.8a3 3 0 0 0 2.5 1.1c.25 0 .55.2.55.5a.56.56 0 0 1-.55.55c-3.6 0-5.4-3.7-5.6-6.85a17.84 17.84 0 0 1-6.6 5.6 12.07 12.07 0 0 1-5.6 1.25.56.56 0 0 1-.55-.55.55.55 0 0 1 .55-.5 10.07 10.07 0 0 0 5-1.2 15.39 15.39 0 0 0 5.3-4.85c.45-.65 1.35-2.45 2.25-2.45a.91.91 0 0 1 .65.3zm-1-7.8c0-.5.45-.7.9-.7.8 0 1.2 1.05 1.2 1.75 0 .4-.2.75-.6.75-.65 0-1.45-1.15-1.45-1.8z" fill="#fff"/><path d="M249 23.46c.6 2.1 1 4.65 3.75 4.65a.55.55 0 0 1 .55.5.56.56 0 0 1-.55.55c-5.45 0-4.7-6.6-6.3-6.6-1.4 0-4.3 6.75-6.6 6.75-1 0-1.45-1-1.45-1.85 0-1.65.85-3.45.85-5 0-.65-.1-1.4-.9-1.4-3.05 0-9 8.05-14.6 8.05-.5 0-1.9.25-1.9-.55a.55.55 0 0 1 .55-.5 12.82 12.82 0 0 0 7.8-3c1.75-1.3 4.9-4.35 6.7-5.1a4.1 4.1 0 0 1 1.5-.35 2.35 2.35 0 0 1 2.35 2.6c0 1.6-1 3.4-1 4.9 0 .25 0 .6.35.6 1.1 0 4.4-7.05 6.8-7.05 1.25.05 1.8 1.8 2.1 2.8z" fill="#fff"/><path d="M275.3 23.59a21.71 21.71 0 0 0 2.8 3.6 2.78 2.78 0 0 0 1.8 1c.25 0 .55.2.55.5a.55.55 0 0 1-.55.55c-2.5 0-3.8-2.4-5.15-4.15-.7-.9-1.15-2.05-2.5-2.05-2.4 0-4.75 6.65-8 6.65-2.15 0-2.9-3-3.15-4.65-2 1.8-5.7 4.25-8.45 4.25a.55.55 0 0 1-.55-.55.56.56 0 0 1 .55-.55 5.29 5.29 0 0 0 1.95-.45 24 24 0 0 0 6.4-4.3v-.4a31.27 31.27 0 0 1 3.35-13.45c.7-1.3 2.35-3.6 4.05-3.6 1.5 0 1.7 2 1.7 3.15 0 4.1-1.95 8-4.35 11.2a25.65 25.65 0 0 1-2.7 3 4.69 4.69 0 0 0-.5.5c0 1 .35 4.2 1.75 4.2 2.2 0 4.75-6.5 8.1-6.5 1.3-.08 2.25 1.05 2.9 2.05zm-9.85-13a26 26 0 0 0-3 11.25c2.5-2.8 6.3-8.35 6.3-12.3 0-.5-.1-1.65-.85-1.65-.95.01-2.05 1.97-2.45 2.7z" fill="#fff"/><path d="M304.65 25.26c0 1-1.9.9-2.55.9a5.4 5.4 0 0 1-2-.3 7.5 7.5 0 0 1-6.6 4.6c-2.1 0-3.15-2-3.15-3.85a5.76 5.76 0 0 1 .15-1.3c-3.2 2.2-6.15 3.85-10.1 3.85-.45 0-1.15.1-1.15-.55a.55.55 0 0 1 .55-.5 19.4 19.4 0 0 0 2.4-.2 19.31 19.31 0 0 0 8.05-3.8l1-1c1-1.9 3.45-5.1 5.75-5.1 1.4 0 2 1.45 2 2.7a3.7 3.7 0 0 1 1.45 3.1 6.15 6.15 0 0 1-.1.95 7.07 7.07 0 0 0 2.3.25c.3.05 2-.15 2 .25zm-5.8 0c-1.05-.55-3-2-3-3.3 0-1 1-1.55 1.9-1.6a.81.81 0 0 0-.75-.55 2.65 2.65 0 0 0-1.15.4 8.8 8.8 0 0 0-3.9 6.7 1.88 1.88 0 0 0 2 2.05 5.37 5.37 0 0 0 4.9-3.7zm.2-1.35c0-.7-.6-2.25-1.45-2.25-.2 0-.35.25-.35.45 0 .85 1.3 1.45 1.8 2zM335.29 13.66c.85-3.4 3.8-13.65 8-13.65a1.63 1.63 0 0 1 1.65 1.85 13.93 13.93 0 0 1-1.44 5.04c-.85 1.9-2 3.65-3 5.5-1.35 2.45-2.55 4.9-4 7.25-.25.4-.5.8-.8 1.2.3 2 .45 3.85 1.95 5.35a7.11 7.11 0 0 0 5 1.9.51.51 0 0 1 .55.5.55.55 0 0 1-.55.55c-4.45 0-7.15-2.5-8-6.75-1.95 2.7-5.15 7.4-8.85 7.4a3 3 0 0 1-3.2-3.1c0-3 3.75-6.1 6.7-6.1a3.61 3.61 0 0 1 3.35 2.4c.65-.85 1.2-1.7 1.8-2.55a28.16 28.16 0 0 1 .84-6.79zm-3.9 10.85v-.05a2.33 2.33 0 0 0-2.4-2.2c-2 0-4.8 2.1-4.8 4.3a1.55 1.55 0 0 0 1.65 1.65c2.35 0 4.15-2.1 5.55-3.7zm6.85-10.45c.9-1.6 1.75-3.25 2.6-4.9s2.5-4.25 2.5-6c0-.5-.2-1-.8-1-2.25 0-4.8 8.1-5.4 10a35 35 0 0 0-1.5 6.4z" fill="#fff"/><path d="M359.19 28.96a9.5 9.5 0 0 1-2 .2c-1.9 0-4.15-1.15-4.65-3.1-3.2 1.6-6.3 3.1-10 3.1a.56.56 0 0 1-.55-.55.55.55 0 0 1 .55-.5 14.77 14.77 0 0 0 4.4-.75 41 41 0 0 0 5.4-2.55 7.93 7.93 0 0 1 4.16-6.45 3.46 3.46 0 0 1 1.75-.4c1.3 0 2.75.75 2.75 2.2a2.54 2.54 0 0 1-.3 1.05 3.48 3.48 0 0 1-1.3 1.1c-.65.4-1.3.7-2 1-1.15.65-2.3 1.35-3.5 2 0 1.65 1.7 2.8 3.25 2.8a7.5 7.5 0 0 0 4.7-1.35 11.9 11.9 0 0 1 1.1-.8c.2 0 .25.1.25.3.04 1.6-2.81 2.45-4.01 2.7zm-5.15-5.05a32.59 32.59 0 0 0 4.8-3 .92.92 0 0 0 .25-.6c0-.6-.65-.8-1.15-.8-2.05 0-3.6 2.6-3.9 4.4zM399.84 22.16a.5.5 0 0 1-.5.5 3.08 3.08 0 0 1-.55-.15 13 13 0 0 0-4.1-1 4.27 4.27 0 0 0-.8.05c-2.75.5-5.4 8.75-8.25 8.75-1.05 0-1.7-1.15-2.15-2-.65-1.2-3.35-6-3.35-7.1a.75.75 0 0 1 .75-.8c1.2 0 1.75 2.25 2.1 3.1s.85 2 1.3 3c.2.5.8 2 1.45 2 1.3 0 4.55-6.65 6.55-8a3.38 3.38 0 0 1 1.8-.5 12.48 12.48 0 0 1 4.25 1.15 10.23 10.23 0 0 0 1.1.45h.1a.76.76 0 0 1 .3.55z" fill="#fff"/><path d="M413.89 24.31a19.44 19.44 0 0 0 2.95.15.56.56 0 0 1 .55.55.56.56 0 0 1-.55.55 19.35 19.35 0 0 1-3.25-.2c-1 2.65-4 5.05-6.65 5.05-2.1 0-3.2-1.8-3.2-3.7a7.81 7.81 0 0 1 .8-3.3 11.24 11.24 0 0 1-1.3-.05 14.93 14.93 0 0 1-3-.4l-1.2-.37h-.1c-.15-.15-.3-.2-.3-.5a.55.55 0 0 1 .55-.5.63.63 0 0 1 .3.05 14.76 14.76 0 0 0 3.9.6 12.15 12.15 0 0 0 1.9-.15 17.07 17.07 0 0 1 1.15-1.5c.9-1.1 2.55-2.7 4.05-2.7s2 1.25 2 2.5a3.7 3.7 0 0 1 1.45 3.1 4.4 4.4 0 0 1-.05.82zm-1.8.65c-1.5-.5-2.8-1.45-2.8-3.25 0-1 .8-1.6 2-1.7a1 1 0 0 0-.85-.55 2 2 0 0 0-1.25.45 10.15 10.15 0 0 0-3.8 7 2 2 0 0 0 2.1 2.2c1.35-.05 3.75-1.75 4.6-4.15zm.3-1v-.7c0-1-.55-1.9-1.4-1.9-.2 0-.3.2-.3.4a2.25 2.25 0 0 0 1.7 2.15z" fill="#fff"/><path d="M429.94 18.11c.75 0 2.7.7 2.7 1.6 0 .2-.1.3-.35.3-.6 0-.85-.75-1.85-.75-2.2 0-4 3.8-4 5.7a3 3 0 0 0 3.1 3.15.59.59 0 0 1 .55.55.51.51 0 0 1-.55.5c-2.1 0-4.3-1.25-4.7-3.4a1.78 1.78 0 0 1-.1-.5 6.59 6.59 0 0 1 .3-2 16.17 16.17 0 0 1-8.2 2.25.56.56 0 0 1-.55-.55.56.56 0 0 1 .55-.55c3.2 0 6.2-1.4 8.9-3 .76-1.45 2.3-3.3 4.2-3.3z" fill="#fff"/><path d="M455.89 26.31c0 1.5-2.9 2.4-4.05 2.65a9.5 9.5 0 0 1-2 .2c-1.9 0-4.2-1.15-4.7-3.15a49.55 49.55 0 0 1-15.65 3.15.51.51 0 0 1-.5-.55.54.54 0 0 1 .5-.5 33.8 33.8 0 0 0 6.35-.7c1.9-.35 3.75-.9 5.6-1.4a27.73 27.73 0 0 0 2.9-.9l.7-.3c0-3 2.7-6.85 5.9-6.85 1.35 0 2.75.75 2.75 2.25 0 2.1-5.1 4.45-6.8 5.15l-.3.1a3.25 3.25 0 0 0 3.3 2.65 7.83 7.83 0 0 0 4.7-1.35 11.71 11.71 0 0 1 1-.8c.25 0 .3.1.3.35zm-.55-12.05c0 .2-.1.25-.3.25a11.12 11.12 0 0 1-3.15-1.55 8.65 8.65 0 0 0-1.05-.6 5 5 0 0 0-1.4.7 10 10 0 0 1-2.8 1.4c-.35 0-.35-.2-.35-.2 0-.5 2.6-2.25 3.9-3.05a1.06 1.06 0 0 1 .55-.2h.1a28.34 28.34 0 0 1 4.2 2.75c.25.2.3.35.3.5zm-8.75 9.85c1.15-.55 5.1-2.25 5.1-3.7 0-.6-.5-.9-1.1-.9-2.2 0-3.6 2.7-4 4.6zM461.59 26.86a1.23 1.23 0 0 1 1.35 1.2 1.21 1.21 0 0 1-1.05 1.1 1.45 1.45 0 0 1-1.6-1.35 1.1 1.1 0 0 1 .3-.75 2.38 2.38 0 0 1 1-.2zm1-10.65a1.28 1.28 0 0 1 1.35 1.1 1.2 1.2 0 0 1-1.15 1.2 1.45 1.45 0 0 1-1.5-1.35 1.1 1.1 0 0 1 .3-.75 2.38 2.38 0 0 1 .91-.2z" fill="#fff"/></svg>