<svg xmlns="http://www.w3.org/2000/svg" viewBox="0 0 68.1 85.84"><title>p0_s22</title><path d="M29.7 48.51c.05-.15.1-.26.13-.38a12.84 12.84 0 0 1 3.54-5.83 7.88 7.88 0 0 1 1-1 29.65 29.65 0 0 1 3.54-2.53 24.82 24.82 0 0 0 10.19-11.7c1.12-2.45.94-4 1.5-6.64 0-.2.08-.4.13-.7h-.93c-1.22 0-1.76-.52-1.77-1.75v-4.71-1.89h-1.57l-.09-.6h-1.44v1.28c-1.42 0-2.78.06-4.13 0a2 2 0 0 1-1.63-1.2 3.86 3.86 0 0 1-.52-1.48 33.86 33.86 0 0 1 0-4.64 2.81 2.81 0 0 1 3.13-2.76h2.67c.37 0 .49.12.49.49 0 .93.34 1.19 1.25.92.17 0 .25-.38.39-.61 1.55 0 3.18-.07 4.79 0a2.77 2.77 0 0 1 2.2 1.61 6.39 6.39 0 0 1 .79 3.11V18c0 1.19-.52 1.71-1.67 1.73-.4 0-.45.21-.51.51-.71 3.68-.91 6.2-2.69 9.51a25.45 25.45 0 0 1-9.6 10.2A26.55 26.55 0 0 0 35 42.69a10.28 10.28 0 0 0-2.77 3.41 8.51 8.51 0 0 0-1.08 2.85 3.77 3.77 0 0 0 .42 2.57 26.2 26.2 0 0 1 3.45 13.25 39.55 39.55 0 0 1-.47 4.56c-.05.41 0 .64.38.85a54.58 54.58 0 0 0 10 4.5 13.61 13.61 0 0 0 6.88.5 10.1 10.1 0 0 0 5.36-3.19c-.65-.82-.65-.87-.08-1.74 1.6-2.48 3.2-5 4.81-7.43.16-.24.21-.71.72-.47.07 0 .24-.19.39-.31l1.8 1.16a7.37 7.37 0 0 1 .16.75.59.59 0 0 1-.09.35c-1.74 2.7-3.48 5.41-5.24 8.1-.14.21-.48.47-.66.42-.49-.12-.68.19-.94.46-3.18 3.33-7.08 4.21-11.48 3.32A37.38 37.38 0 0 1 37 72.95c-1-.49-1.93-1-2.92-1.53-.37.9-.67 1.78-1.08 2.6a20.44 20.44 0 0 1-14.87 11.55c-6.28 1.27-11.77-2.12-13.79-8.23a13 13 0 0 1-.28-7.66 9.9 9.9 0 0 1 8.71-7.28 19.79 19.79 0 0 1 9.32 1.43 77.09 77.09 0 0 1 10.19 5l.79.43c.11-.65.23-1.21.29-1.78a24.66 24.66 0 0 0-3.93-16.53 31 31 0 0 0-3.52-4.58 32 32 0 0 0-4-3.33 18.09 18.09 0 0 0-2.67-1.67 39.61 39.61 0 0 1-6.36-4.23 28.25 28.25 0 0 1-10.42-17c-.13-.63-.21-1.27-.27-1.91 0-.31-.11-.46-.47-.47-1.25 0-1.72-.51-1.72-1.78V5.65a6.43 6.43 0 0 1 .84-3.32A3 3 0 0 1 3.43.74h4.44l.11.68a9.45 9.45 0 0 0 1.13 0 .49.49 0 0 0 .3-.35 6.8 6.8 0 0 0 0-1c.08 0 .12-.09.17-.09h3.51a2.52 2.52 0 0 1 2.39 1.87 5.16 5.16 0 0 1 .3 1.61 28.28 28.28 0 0 1-.17 4.13 2.78 2.78 0 0 1-3.13 2.55H9.43V8.77H7.95l-.09.57H6.29v6.13a5.85 5.85 0 0 1-.06 1 1.36 1.36 0 0 1-1.52 1.27H3.59c.11.77.18 1.48.32 2.17a27.46 27.46 0 0 0 9.93 16.21 46.26 46.26 0 0 0 6.1 4 38.54 38.54 0 0 1 4.71 3.19 40.32 40.32 0 0 1 3.47 3.46c.55.55 1.04 1.18 1.58 1.74zM15.64 84.37c.47 0 .95 0 1.41-.1a18.89 18.89 0 0 0 10-4.69 18.42 18.42 0 0 0 5.53-8.37c.09-.26.22-.5-.16-.71a87.59 87.59 0 0 0-10.41-5.14 18.91 18.91 0 0 0-9-1.5 8.43 8.43 0 0 0-7.58 6.58 11.51 11.51 0 0 0 .32 6.27 10.4 10.4 0 0 0 9.89 7.66zM66.43 57.14a4.69 4.69 0 0 1 1.12-.4.51.51 0 0 1 .55.55v1.05l-1.67-1.06zM64.9 59.6l.33-.53 1.58 1-.33.53zM67.83 58.54l-.34.52-1.57-1 .32-.53zM65.43 58.82l.34-.52 1.58 1-.33.52z" fill="#fff"/><path d="M63.43 61.95l.34-.52 1.58 1-.33.52zM64.43 60.38l.33-.52 1.59 1-.34.52zM65.43 62.18l-1.58-1 .33-.52 1.58 1z" fill="#fff"/></svg>