<svg xmlns="http://www.w3.org/2000/svg" viewBox="0 0 59.85 53.1"><defs><style>.a{fill:#fff}</style></defs><title>p0_s24</title><path class="a" d="M44.23.05a13.1 13.1 0 0 1 3.9 2.35l3.68 2.77c2.42 1.88 4.85 3.77 7.19 5.75l.07.06a1 1 0 0 1 .12 1.44 1 1 0 0 1-.62.35l-4.36 1.17-2.18.56a19.44 19.44 0 0 0-2.16.63l-4.24 1.48-2.12.72-2.06.88-4.11 1.76c-1.34.65-2.64 1.38-4 2.06l-2 1c-.64.38-1.26.79-1.88 1.19-1.25.8-2.54 1.54-3.76 2.38a76.06 76.06 0 0 0-13.15 11.8c-.48.56-1 1.08-1.47 1.65l-1.4 1.71c-1 1.11-1.81 2.32-2.73 3.48-1.73 2.37-3.46 4.83-5 7.3l-.06.09a1 1 0 0 1-1.43.34 1 1 0 0 1-.45-1.18c1.81-6.15 5.38-11.4 9.54-16.06a74.34 74.34 0 0 1 14.14-12.17c1.3-.86 2.66-1.61 4-2.42.67-.39 1.34-.79 2-1.16l2.1-1c1.4-.66 2.78-1.37 4.2-2l4.33-1.67 2.16-.83 2.23-.64 4.46-1.25c3-.73 6-1.22 9-1.79l-.43 1.85c-2.59-1.65-5.11-3.41-7.63-5.16L46.38 4.8a13.08 13.08 0 0 1-3.46-3.06 1.1 1.1 0 0 1 .3-1.53 1.11 1.11 0 0 1 1.01-.16z"/><path class="a" d="M48.84 26.15a10.92 10.92 0 0 1 1.62-4q1-1.88 2.13-3.74c1.47-2.46 2.95-4.92 4.56-7.31a1.47 1.47 0 0 1 2-.39 1.47 1.47 0 0 1 .52 1.81c-1.16 2.64-2.45 5.2-3.75 7.75q-1 1.91-2 3.8a10.92 10.92 0 0 1-2.54 3.51 1.57 1.57 0 0 1-2.22-.2 1.58 1.58 0 0 1-.32-1.23z"/></svg>