<svg xmlns="http://www.w3.org/2000/svg" viewBox="0 0 101.5 127.02"><defs><style>.a{fill:#fff}</style></defs><title>p1_s21</title><path class="a" d="M101.49 39.58a2.57 2.57 0 0 0-2.57-2.57h-8.7a39.62 39.62 0 0 0-39.49-37 39.62 39.62 0 0 0-39.49 37h-8.7A2.57 2.57 0 0 0 0 39.58a50.81 50.81 0 0 0 48.18 50.69v22.24H26.83a7.27 7.27 0 0 0-7.26 7.26 7.27 7.27 0 0 0 7.26 7.26H74.7a7.27 7.27 0 0 0 7.26-7.26 7.27 7.27 0 0 0-7.26-7.26H53.35V90.26a50.81 50.81 0 0 0 48.14-50.68zm-24.7 80.18a2.13 2.13 0 0 1-2.13 2.13H26.82a2.13 2.13 0 0 1-2.13-2.13 2.13 2.13 0 0 1 2.13-2.13H74.7a2.13 2.13 0 0 1 2.09 2.13zm-26-114.63a34.49 34.49 0 0 1 34.4 34.45A34.49 34.49 0 0 1 50.7 74.03a34.49 34.49 0 0 1-34.4-34.45A34.49 34.49 0 0 1 50.7 5.13zm-45.55 37h6.06a39.62 39.62 0 0 0 39.49 37 39.62 39.62 0 0 0 39.49-37h6.06A45.68 45.68 0 0 1 50.7 85.2 45.68 45.68 0 0 1 5.2 42.14z"/><path class="a" d="M32.83 45.63a2.56 2.56 0 0 0 1.81-.75l20.12-20.12a2.56 2.56 0 0 0 0-3.63 2.56 2.56 0 0 0-3.63 0L31.01 41.25a2.56 2.56 0 0 0 0 3.63 2.56 2.56 0 0 0 1.82.75zm30.41-14.69a2.56 2.56 0 0 0 1.81-.75l3.37-3.37a2.56 2.56 0 0 0 0-3.63 2.57 2.57 0 0 0-3.63 0l-3.37 3.37a2.56 2.56 0 0 0 0 3.63 2.56 2.56 0 0 0 1.82.75zM33.07 58.58a2.56 2.56 0 0 0 1.81.75 2.56 2.56 0 0 0 1.82-.75l21.06-21.06a2.56 2.56 0 0 0 0-3.63 2.56 2.56 0 0 0-3.63 0L33.07 54.95a2.56 2.56 0 0 0 0 3.63z"/></svg>