<svg xmlns="http://www.w3.org/2000/svg" viewBox="0 0 67.79 34.02"><defs><style>.a{fill:#fff}</style></defs><title>p0_s25</title><path class="a" d="M67.63 13.66a13.1 13.1 0 0 1-.13 4.62l-.58 4.57c-.43 3-.87 6.08-1.43 9.1v.1a1 1 0 0 1-1.19.82 1 1 0 0 1-.61-.37l-3.17-3.21-1.57-1.61a19.35 19.35 0 0 0-1.61-1.56l-3.38-3-1.67-1.49-1.79-1.35-3.56-2.7c-1.23-.84-2.51-1.61-3.75-2.41l-1.88-1.2c-.65-.37-1.31-.7-2-1-1.31-.69-2.59-1.44-3.93-2.08a76.05 76.05 0 0 0-16.73-5.75c-.72-.14-1.44-.34-2.16-.46l-2.18-.37c-1.45-.3-2.92-.42-4.38-.65-2.92-.33-5.91-.61-8.81-.71h-.11a1 1 0 0 1-1-1.07 1 1 0 0 1 .8-1c6.24-1.47 12.57-1 18.67.33a74.36 74.36 0 0 1 17.58 6.26c1.39.7 2.72 1.51 4.08 2.26.67.39 1.35.77 2 1.18l1.92 1.32c1.27.89 2.57 1.74 3.81 2.66l3.59 2.94 1.79 1.47 1.66 1.61 3.29 3.25c2.11 2.24 4 4.64 6 7l-1.82.55c.15-3.07.43-6.13.71-9.18l.49-4.58a13.1 13.1 0 0 1 .94-4.52 1.1 1.1 0 0 1 1.48-.5 1.11 1.11 0 0 1 .63.73z"/><path class="a" d="M47.23 30.6a10.92 10.92 0 0 1 4.29-.58h4.3c2.87.06 5.74.12 8.61.34a1.47 1.47 0 0 1 1.36 1.58 1.47 1.47 0 0 1-1.31 1.35c-2.86.3-5.73.45-8.59.58q-2.15.09-4.3.12a10.92 10.92 0 0 1-4.31-.46 1.57 1.57 0 0 1-.92-2 1.58 1.58 0 0 1 .87-.93z"/></svg>