<svg id="Layer_1" xmlns="http://www.w3.org/2000/svg" viewBox="0 0 59.8 53.1"><style>.st0{fill:#fff}</style><title>p0_s24</title><path class="st0" d="M17.8 9.4c.7-.7 1.5-1.3 2.4-1.7l2.6-1.5c1.7-1 3.4-1.9 5.2-2.8h.1c.3-.2.7 0 .9.3.1.1.1.3.1.5L28.5 7l-.2 1.4c-.1.5-.1 1-.2 1.4l-.2 2.9-.1 1.4v4.3c0 1 .2 1.9.2 2.9l.1 1.4c.1.5.2.9.2 1.4.2.9.3 1.9.5 2.8.8 3.7 2.1 7.3 3.7 10.7.2.4.4.9.6 1.3l.7 1.3c.4.9.9 1.7 1.4 2.5 1 1.6 2 3.3 3.1 4.8v.1c.2.3.2.7-.1.9-.2.2-.6.2-.8 0-3.2-2.6-5.4-6-7.1-9.7-1.7-3.6-2.9-7.5-3.7-11.4-.2-1-.3-2-.4-3-.1-.5-.1-1-.2-1.5l-.1-1.5c0-1-.1-2-.1-3l.1-3v-1.5l.2-1.5.4-3c.3-2 .8-3.9 1.2-5.8l1 .7c-1.6 1.1-3.3 2.2-5 3.2L21.2 9c-.8.6-1.7 1-2.7 1.3-.4.1-.8-.2-.8-.6-.1.1-.1-.1.1-.3z"/><path class="st0" d="M34.4 13.2c-.8-.5-1.4-1.2-2-2-.6-.7-1.1-1.4-1.7-2.2-1.1-1.5-2.2-3-3.2-4.5-.3-.4-.1-1 .3-1.3.4-.2.9-.1 1.2.2 1.3 1.3 2.5 2.8 3.7 4.2l1.8 2.1c.6.7 1.1 1.5 1.4 2.4.2.5-.1 1.1-.7 1.3-.3 0-.6 0-.8-.2z"/></svg>