<svg xmlns="http://www.w3.org/2000/svg" viewBox="0 0 181.03 36.07"><defs><style>.a{fill:#fff}</style></defs><title>p1_s16</title><path class="a" d="M10.6 0c2.56 0 4.56 1.2 4.56 3.28 0 5-7.48 6.88-10.16 8.28L1.4 22.24c-.28.8-.64 1.24-.92 1.24S0 23.24 0 22.72a11.41 11.41 0 0 1 .72-2.4c.8-2.48 1.8-5.36 2.68-8a1.5 1.5 0 0 1-.4 0c-.44 0-1.2-.32-1.2-.64s.52-.56 2.16-1C5.12 7.12 6.2 4.16 6.44 3.36l.36-1.2a11.25 11.25 0 0 0-1.84 1.16c-.8.64-1.44 1.72-2 1.72a.82.82 0 0 1-.84-.8c0-.44.52-.92 1.48-1.52A23.6 23.6 0 0 1 6.36.92 9.69 9.69 0 0 1 10.6 0zm2.88 3.44c0-1.36-1-2.36-2.8-2.36a7.16 7.16 0 0 0-2.24.4c-.48 1.56-1.64 4.92-3 8.68 2.6-.92 5.36-2.2 7-4.28a4 4 0 0 0 1.03-2.44zm16.19 16.64a.44.44 0 0 1 .4.44.43.43 0 0 1-.4.4c-2 0-4.32-1-4.32-3.36 0-1.64 1.12-3.4 1.12-5 0-1.16-1.2-1.52-2-2a1.74 1.74 0 0 1-.16.28 27.83 27.83 0 0 1-7 7.52 12.43 12.43 0 0 1-3.92 2.12 7.9 7.9 0 0 1-2.36.4c-.44 0-1.48-.08-1.48-.72 0-.36 1.08-.28 1.32-.28a10.15 10.15 0 0 0 4.4-1.52c2.4-1.36 6.88-5.72 8.16-8.36-.92-.48-2-1.16-2-2.36A1.76 1.76 0 0 1 23.23 6a2 2 0 0 1 1.92 2 4.12 4.12 0 0 1-.24 1.4c1.36.6 2.72 1.32 2.72 3s-.8 3.16-1.12 4.8a1.36 1.36 0 0 0 0 .4c0 1.64 1.8 2.48 3.16 2.48zm-5.8-11.16c0-.12.12-.64.12-.88s-.16-.8-.6-.8a.65.65 0 0 0-.64.6c.01.44.77.88 1.13 1.08z"/><path class="a" d="M44.31 13.72a2 2 0 0 1-.24.84 3.06 3.06 0 0 1-1 .88c-.52.32-1.08.56-1.6.84-1 .52-1.84 1.08-2.8 1.56.16 1.52 1.16 2 2.56 2.24.2 0 .44.16.44.4a.44.44 0 0 1-.44.44 3.87 3.87 0 0 1-3.72-2.48c-2.52 1.24-5 2.48-7.92 2.48a.45.45 0 0 1-.48-.44.44.44 0 0 1 .44-.4 11.59 11.59 0 0 0 3.52-.6 35.91 35.91 0 0 0 4.36-2c0-2.36 2.16-5.48 4.72-5.48a2 2 0 0 1 2.16 1.72zm-1.72.6a.66.66 0 0 0 .2-.48c0-.48-.48-.64-.88-.64-1.72 0-2.84 2.08-3.16 3.52a26 26 0 0 0 3.84-2.4z"/><path class="a" d="M67.63 20.52a.47.47 0 0 1-.44.44 27.22 27.22 0 0 1-3.44-.24 7.62 7.62 0 0 1-2.84-.8c-1.24 4.28-1.92 5.76-3.12 9.2-1.16 3.28-2.08 7-4.52 7-1.16 0-2-1.36-2-3 0-5.68 7.16-15.2 10.28-19.72 0-.56 0-1.16-.52-1.16a12.31 12.31 0 0 0-1.92 1.2 50.41 50.41 0 0 1-5.92 3.72c-2.4 1.24-7.4 3.76-12 3.76a.41.41 0 0 1-.44-.36.45.45 0 0 1 .44-.48c4.52 0 11.32-3 16-6.68 1.36-1 3-3 4.36-3 .84 0 1.2.84 1.2 1.8v.32c.16-.08.44-.32.8-.56a4.25 4.25 0 0 1 2.32-.68c1.6 0 3.48.92 3.48 2.84 0 2.48-3.32 5.4-5.72 5.4a8 8 0 0 0 3.56.52.51.51 0 0 1 .44.48zm-6.72-4.56c-3 4.64-3.92 5.76-5.48 8.44a58.74 58.74 0 0 0-2.56 5.72 9.7 9.7 0 0 0-.48 2.92c0 1.16.28 1.84 1 1.84 1 0 1.6-1.52 2.4-3.68 1-2.84 1.68-4.4 2.68-7.4.84-2.76 1.76-5.24 2.44-7.84zm1.56 3c1.84 0 5.36-2 5.36-4.64a1.68 1.68 0 0 0-1.88-1.64 6.05 6.05 0 0 0-3.36 1.24c-.44 1.84-.72 3.32-1.24 4.88a4 4 0 0 0 1.12.2z"/><path class="a" d="M87.35 17.04a6.63 6.63 0 0 0 .48 1.24 3.09 3.09 0 0 0 2.72 1.8.44.44 0 0 1 .44.4.44.44 0 0 1-.44.44c-3.56 0-4.12-3.52-5-3.52s-2.12 4.32-5.6 4.32a2 2 0 0 1-2.2-2.12 4.53 4.53 0 0 1 .64-2.16c-3.08 1.44-7.92 3.48-11.24 3.48a.44.44 0 0 1-.44-.44c0-.32.32-.4.56-.4 2.2-.08 6-1.4 8.08-2.28a31.47 31.47 0 0 0 4.4-2 5.21 5.21 0 0 1 3.64-1.84 2.82 2.82 0 0 1 2.48 1.28c1.16-.2 1.28 1.04 1.48 1.8zm-2.88-.92c-.28-.52-.64-1-1.28-1-1.68 0-4.08 2.68-4.08 4.28a1.06 1.06 0 0 0 1.12 1.16c1.8 0 3.36-3.16 4.24-4.44z"/><path class="a" d="M107.83 20.08a.44.44 0 0 1 .44.4.44.44 0 0 1-.44.44c-2 0-4.28-1-4.28-3.36 0-1.72 1.08-3.32 1.08-5 0-1.08-1.2-1.6-2-2h-.12a24.78 24.78 0 0 1-4.24 5.36c-1.76 1.68-3.32 3.48-5.52 4.56a4.5 4.5 0 0 1-2 .48c-.28 0-.64 0-.64-.44a.43.43 0 0 1 .4-.4 4.43 4.43 0 0 0 1.6-.36c2.44-1.08 8.32-7 9.6-9.68-.92-.48-2-1.16-2-2.32a1.73 1.73 0 0 1 1.76-1.68 2 2 0 0 1 2 1.92 3.83 3.83 0 0 1-.36 1.48h.12c1.36.6 2.72 1.32 2.72 3s-.8 3.16-1.12 4.76a1.36 1.36 0 0 0 0 .4c-.12 1.56 1.68 2.44 3 2.44zm-5.8-11.16a3 3 0 0 0 .12-.84c0-.32-.16-.8-.6-.8a.65.65 0 0 0-.64.6c.04.44.76.8 1.12 1.04z"/><path class="a" d="M121.43 17.04a4.83 4.83 0 0 0 .52 1.24 3.08 3.08 0 0 0 2.68 1.8.44.44 0 0 1 .44.4.44.44 0 0 1-.44.44c-3.56 0-4.08-3.52-5-3.52s-2.12 4.32-5.64 4.32a2 2 0 0 1-2.16-2.12v-.24a5.92 5.92 0 0 1-4.08 1.56.4.4 0 0 1-.44-.44.43.43 0 0 1 .4-.4c1.8 0 3.32-1.28 4.64-2.4 1-1.72 3-3.8 5.16-3.8a2.87 2.87 0 0 1 2.48 1.28c1.16-.12 1.24 1.08 1.44 1.88zm-2.84-.92c-.32-.52-.68-1-1.32-1-1.68 0-4.08 2.68-4.08 4.28a1.09 1.09 0 0 0 1.16 1.16c1.8 0 3.28-3.2 4.24-4.44z"/><path class="a" d="M124.55 20.08a11.59 11.59 0 0 0 3.52-.6 23.16 23.16 0 0 0 5.8-3.52 3.31 3.31 0 0 0 .68-.6c.12-.16.2-.44.32-.64a6.58 6.58 0 0 1 1.56-1.95 3.09 3.09 0 0 1 1.8-.72c.64 0 2.12.56 2.12 1.28a.21.21 0 0 1-.24.24c-.48 0-.68-.6-1.48-.6-1.8 0-3.24 3-3.24 4.6s1 2.32 2.48 2.48c.24 0 .44.16.44.44a.41.41 0 0 1-.44.4 3.69 3.69 0 0 1-3.76-2.72c0-.12-.08-.28-.08-.4a5.36 5.36 0 0 1 0-.8c-2.8 2.2-5.88 3.92-9.52 3.92a.41.41 0 0 1-.44-.4.44.44 0 0 1 .48-.41zm10.56 5.2c0-.36.76-.36 1.28-.88 1.28-1.36.32-3 1.28-3 .28 0 .52.12.52.4 0 1.12-.32 3.44-2.56 3.68-.24-.04-.52-.04-.52-.2z"/><path class="a" d="M158.03 17.04a6.63 6.63 0 0 0 .48 1.24 3.09 3.09 0 0 0 2.72 1.8.44.44 0 0 1 .44.4.44.44 0 0 1-.44.44c-3.56 0-4.12-3.52-5-3.52s-2.12 4.32-5.6 4.32a2 2 0 0 1-2.2-2.12 4.53 4.53 0 0 1 .64-2.16c-3.08 1.44-7.92 3.48-11.24 3.48a.44.44 0 0 1-.44-.44c0-.32.32-.4.56-.4 2.2-.08 6-1.4 8.08-2.28a31.47 31.47 0 0 0 4.4-2 5.21 5.21 0 0 1 3.64-1.84 2.82 2.82 0 0 1 2.48 1.28c1.16-.2 1.28 1.04 1.48 1.8zm-2.88-.92c-.28-.52-.64-1-1.28-1-1.68 0-4.08 2.68-4.08 4.28a1.06 1.06 0 0 0 1.12 1.16c1.8 0 3.32-3.16 4.24-4.44zm2.16-6.84c.16 0 .24.12.24.32 0 .84-1.48 1.6-2.36 1.6-1.2 0-1.56-1.12-2.32-1.12-1 0-2 1.16-2.4 1.16-.12 0-.2-.08-.2-.28 0-.88 1.68-1.76 2.6-1.76 1.4 0 1.68 1.16 2.4 1.16s1.64-1 2-1.08z"/><path class="a" d="M181.03 17.77c0 .8-1.52.72-2 .72a4.32 4.32 0 0 1-1.6-.24 6 6 0 0 1-5.28 3.68c-1.68 0-2.52-1.56-2.52-3.08a4.61 4.61 0 0 1 .12-1c-2.56 1.76-4.92 3.08-8.08 3.08-.36 0-.92.08-.92-.44a.44.44 0 0 1 .44-.4 15.52 15.52 0 0 0 1.92-.16 15.44 15.44 0 0 0 6.44-3l.84-.76c.76-1.52 2.76-4.08 4.6-4.08 1.12 0 1.6 1.16 1.6 2.16a3 3 0 0 1 1.16 2.48 4.89 4.89 0 0 1-.08.76 5.65 5.65 0 0 0 1.84.2c.16-.05 1.52-.21 1.52.08zm-4.64 0c-.84-.44-2.4-1.6-2.4-2.64 0-.84.8-1.24 1.52-1.28a.65.65 0 0 0-.6-.44 2.12 2.12 0 0 0-.92.32 7 7 0 0 0-3.12 5.36 1.5 1.5 0 0 0 1.6 1.64 4.3 4.3 0 0 0 3.92-2.96zm.16-1.08c0-.56-.48-1.8-1.16-1.8-.16 0-.28.2-.28.36 0 .68 1 1.16 1.44 1.56z"/></svg>