<svg xmlns="http://www.w3.org/2000/svg" viewBox="0 0 129.2 94.08"><defs><style>.a{fill:#fff}</style></defs><title>p1_s19</title><path class="a" d="M124.08 78.88a141.9 141.9 0 0 0-18.42-1.22c-11.56 0-27.12 1.68-38.5 8.91V15.15c10.31-8.22 26.52-10 38.5-10a136.77 136.77 0 0 1 18.42 1.27zm-62 7.69c-11.38-7.23-26.94-8.91-38.5-8.91a142 142 0 0 0-18.42 1.22V6.4a136.56 136.56 0 0 1 18.42-1.27c12 0 28.19 1.81 38.5 10zm65-84.89A133.4 133.4 0 0 0 105.66.05C93.23.05 76.11 1.9 64.6 10.63 53.09 1.85 35.97.05 23.54.05A133.47 133.47 0 0 0 2.1 1.73 2.55 2.55 0 0 0-.01 4.25v77.66a2.57 2.57 0 0 0 .92 2 2.45 2.45 0 0 0 2.1.55 131.89 131.89 0 0 1 20.53-1.6c12.31 0 29.14 1.85 39.39 10.68a2.63 2.63 0 0 0 .45.27 2.32 2.32 0 0 0 .27.16 2.52 2.52 0 0 0 .94.19 2.53 2.53 0 0 0 .94-.19 2.7 2.7 0 0 0 .31-.19 2.53 2.53 0 0 0 .41-.25c10.25-8.83 27.08-10.68 39.39-10.68a130.3 130.3 0 0 1 20.54 1.6 2.6 2.6 0 0 0 2.09-.57 2.55 2.55 0 0 0 .91-2V4.2a2.55 2.55 0 0 0-2.11-2.52"/></svg>