<svg xmlns="http://www.w3.org/2000/svg" viewBox="0 0 85.58 93.04"><defs><style>.a{fill:#fff}</style></defs><title>p1_s20</title><path class="a" d="M30.57.01a2.45 2.45 0 0 0-2.14 1.72l-6.57 20.8L2.41 37.24a2.45 2.45 0 0 0-1 1.87L0 90.53a2.45 2.45 0 0 0 2.38 2.51 2.45 2.45 0 0 0 1.37-.37l43.78-26.93a2.45 2.45 0 0 0 1.15-1.8l3-24.22 14.75-16a2.45 2.45 0 0 0-.16-3.45 2.45 2.45 0 0 0-.45-.33L31.97.38a2.45 2.45 0 0 0-1.4-.37zm1.6 6.07l28.58 16.5-11.84 12.95-22-12.72zm-8 20.78l22.58 13.07-2.79 22.24L9.38 83.41l11.23-19.45a8.59 8.59 0 0 0 9.4-4 8.6 8.6 0 0 0-3.13-11.69 8.43 8.43 0 0 0-3.21-1.07 8.61 8.61 0 0 0-8.48 4.2 8.6 8.6 0 0 0 1.24 10.13L5.16 81.05 6.31 40.4zm-1.83 25.1a3.71 3.71 0 0 1 2.1.5 3.62 3.62 0 0 1 1.34 5 3.62 3.62 0 0 1-5 1.34 3.62 3.62 0 0 1-1.34-5 3.64 3.64 0 0 1 2.22-1.72 3.62 3.62 0 0 1 .69-.11zM22 88.14a2.45 2.45 0 0 0-2.45 2.45A2.45 2.45 0 0 0 22 93.04h61.13a2.45 2.45 0 0 0 2.45-2.45 2.45 2.45 0 0 0-2.45-2.45z"/></svg>