<svg xmlns="http://www.w3.org/2000/svg" viewBox="0 0 354.73 68.12"><defs><style>.a{fill:#3a1a0d}</style></defs><title>p1_s12</title><path class="a" d="M6.99 20.08c-1.12-.54-3.19-1.66-3.19-2.53 0-.21.21-.37.58-.37.71 0 1.54.71 2 1a15.52 15.52 0 0 0 8.21 2.49c3.19 0 6.47-1.49 6.47-4.31s-3-3.57-6.51-4.19c-5.31-.91-7.68-1.66-7.68-4.4 0-4.4 6.89-7.72 11.62-7.72a8.21 8.21 0 0 1 2.49.37s1.2.37 1.2 1c0 .25-.12.37-.33.37a10.35 10.35 0 0 1-1.37-.33 12.82 12.82 0 0 0-2.12-.17 12.39 12.39 0 0 0-4.85 1c-2 .87-5.14 2.61-5.14 5.19 0 1.66 1.41 2.32 3.86 2.82 3.78.75 10.33 1.83 10.33 6 0 2.86-2.9 5.64-8.21 5.64a17.93 17.93 0 0 1-2.07-.12 20.55 20.55 0 0 1-5.29-1.74zm27.92-6.23c0 2.12-4.07 2.86-5.6 3.4a.59.59 0 0 1-.29.08v.46a2.6 2.6 0 0 0 2.7 2.61c.25 0 .46.12.46.42a.46.46 0 0 1-.46.46c-2 0-4.11-1.45-4-3.61a15.35 15.35 0 0 1-2.74.29c-.37 0-1.25-.25-1.25-.75 0-.29.46-.29.66-.29a16.71 16.71 0 0 0 3.53-.42v-.17a6.36 6.36 0 0 1 3.19-4 2.88 2.88 0 0 1 1.45-.33 2.08 2.08 0 0 1 2.35 1.85zm-1.7 0c0-.42-.46-.54-.83-.54-1.49 0-2.66 1.62-3.11 2.9.95-.2 3.95-1.28 3.95-2.4z"/><path class="a" d="M65.37 15.47c.87 1.37.83 4.11 2.41 4.77a3.23 3.23 0 0 0 .87.17c.21 0 .46.17.46.42a.46.46 0 0 1-.46.46c-4.11 0-3.36-4.94-4.73-4.94-1.12 0-3.07 4.94-5 4.94a1.42 1.42 0 0 1-1.33-1c-.5-1.2-.75-2.53-1.29-3.73-.12-.29-.33-.75-.71-.75-1.12 0-3.53 5.6-5.44 5.6-.83 0-1.2-.79-1.2-1.49 0-1.41.66-2.78.66-4.15 0-.58-.21-1-.83-1a2 2 0 0 0-1 .33c-.87.54-1.74 1.12-2.66 1.62-3.82 2.12-9.13 4.56-13.53 4.56a.46.46 0 0 1-.46-.46c0-.37.33-.42.62-.42 2.66 0 6-1.37 8.42-2.36a30.51 30.51 0 0 0 4.15-2.2c1-.62 3.4-2.57 4.52-2.66h.38c1.16 0 1.7.91 1.7 2 0 1.62-.87 3.32-.87 4.61a.32.32 0 0 0 .29.33c.87 0 3.65-5.81 5.64-5.81s1.87 5.35 3.15 5.35c.66 0 2.74-3.28 3.19-3.86a2.33 2.33 0 0 1 1.74-1.08 1.58 1.58 0 0 1 1.31.75z"/><path class="a" d="M88.64 20.82a.45.45 0 0 1-.42.46 24.47 24.47 0 0 1-3.73-.25 7.46 7.46 0 0 1-2.9-.83c-1.29 4.44-2 6-3.28 9.54s-2.12 7.22-4.69 7.22c-1.2 0-2.07-1.45-2.07-3.11 0-5.89 7.34-15.56 10.54-20.16 0-.25.08-.5.08-.79s-.21-1.12-.66-1.12a2.13 2.13 0 0 0-1.29.91c-3.65 4.85-7.43 8.59-11.62 8.59a.43.43 0 0 1-.46-.46.46.46 0 0 1 .46-.46h.33c2 0 4.73-1.66 6.51-3.44 2.24-2.2 5-6.89 6.72-6.89 1.33 0 1.29 1.74 1.29 2.49a6.43 6.43 0 0 1 3.24-1.24c1.66 0 3.61 1 3.61 3 0 2.45-3.19 5.35-6.26 5.56a12 12 0 0 0 4.18.54.45.45 0 0 1 .42.44zm-9.67 3.4c.91-2.86 2-5.44 2.61-8.13-3.07 4.69-4.11 6-5.73 8.75a38.74 38.74 0 0 0-2.63 5.94 10.15 10.15 0 0 0-.54 3c0 1.24.29 1.91 1 1.91 1.08 0 1.7-1.58 2.53-3.82 1.1-2.92 1.73-4.49 2.76-7.65zm4.19-5c1.91 0 5.6-2.07 5.6-4.81a1.76 1.76 0 0 0-2-1.7A6.42 6.42 0 0 0 83.23 14a33.28 33.28 0 0 1-1.29 5.06 4.4 4.4 0 0 0 1.22.19z"/><path class="a" d="M110.67 20.38a.46.46 0 0 1 .46.46.45.45 0 0 1-.46.41c-2.16 0-4.48-1.08-4.48-3.53 0-1.7 1.16-3.44 1.16-5.19 0-1.16-1.24-1.54-2.07-2l-.12.29c-2 3.65-6.47 6.76-10.16 8.67a13.16 13.16 0 0 1-6.85 1.74.45.45 0 0 1-.42-.46.45.45 0 0 1 .42-.42 11.53 11.53 0 0 0 3.57-.62c4.27-1.37 10.5-5.56 12.53-9.79-1-.5-2-1.2-2-2.41a1.8 1.8 0 0 1 1.83-1.74 2.05 2.05 0 0 1 2 2.12 4.27 4.27 0 0 1-.25 1.45c1.41.62 2.82 1.37 2.82 3.15s-1.2 3.94-1.2 5.35c-.02 1.63 1.85 2.52 3.22 2.52zm-6-11.58a3.16 3.16 0 0 0 .12-.87c0-.33-.17-.83-.62-.83a.67.67 0 0 0-.66.62c.02.49.77.86 1.15 1.11z"/><path class="a" d="M124.4 21.11a7.88 7.88 0 0 1-1.7.17c-1.58 0-3.44-1-3.86-2.57-2.66 1.33-5.23 2.57-8.26 2.57a.46.46 0 0 1-.46-.46.45.45 0 0 1 .46-.42 12.27 12.27 0 0 0 3.65-.62 34.06 34.06 0 0 0 4.48-2.12 6.59 6.59 0 0 1 3.44-5.35 2.88 2.88 0 0 1 1.45-.33c1.08 0 2.28.62 2.28 1.83a2.11 2.11 0 0 1-.25.87 2.89 2.89 0 0 1-1.08.91c-.54.33-1.08.58-1.62.87-1 .54-1.91 1.12-2.9 1.62a2.6 2.6 0 0 0 2.7 2.32 6.23 6.23 0 0 0 3.9-1.12 9.86 9.86 0 0 1 .91-.66c.17 0 .21.08.21.25.01 1.33-2.35 2.04-3.35 2.24zm-4.27-4.19a27 27 0 0 0 4-2.49.77.77 0 0 0 .21-.5c0-.5-.54-.66-1-.66-1.68 0-2.96 2.11-3.21 3.65zm36.3 6.46a.38.38 0 0 1-.17.33c-2.74 2.24-7 6-8.92 8.92a45.84 45.84 0 0 1-1.37 6.64 2.2 2.2 0 0 1-1.58 1.2c-.87 0-1.29-.87-1.29-1.62 0-2 2-4.77 3.11-6.39a115 115 0 0 1 3.9-12.86 10.9 10.9 0 0 1-5.27 1.74 2.56 2.56 0 0 1-2.66-2.49 2.47 2.47 0 0 1 .25-1.12c1-2.49 4.23-5.31 7.05-5.31a3 3 0 0 1 2.7 2c.21-.58.71-1.54 1.41-1.54s1 1 1 1.62c0 1.2-.91 2.07-1.7 2.86 0 .25.08.54.08.79s0 .71-.41.71-.54-.37-.66-.62l-.08.08a82.17 82.17 0 0 0-4 12.07 36.26 36.26 0 0 1 7.8-7.3.47.47 0 0 1 .33-.12.4.4 0 0 1 .48.41zm-5.73-5.39l.75-1.91c-.25-1.16-.71-2.45-2.12-2.45-1.95 0-5.64 3.07-5.64 5.1a1.43 1.43 0 0 0 1.41 1.54 13 13 0 0 0 5.61-2.31zm-5.19 17.8c-.33.71-1.29 2-1.29 2.66 0 .21.08.33.29.33.71-.03.93-2.48 1.01-3.02zm7.18-20a1.48 1.48 0 0 0 .08.41c.29-.29.79-.71.79-1.16 0-.17-.08-.41-.29-.41s-.57.96-.57 1.17z"/><path class="a" d="M179.58 17.01a4.05 4.05 0 0 0 3.32 3.32c.33.08 1.16 0 1.16.5a.46.46 0 0 1-.46.46 5.65 5.65 0 0 1-5.68-4.81c-1 2.45-3.28 5.85-6.31 5.85-2.07 0-3.24-1.62-3.24-3.57a8.64 8.64 0 0 1 .71-3.11 39.74 39.74 0 0 0-6.56 3.61c-3.61 2.32-6.18 4.52-6.55 4.52a.42.42 0 0 1-.42-.42.62.62 0 0 1 .17-.37 81.16 81.16 0 0 1 11.87-8 8.28 8.28 0 0 1 2.61-1.2c.5 0 .83.17.83.62 0 1-1.41 2.53-1.41 4.52a2 2 0 0 0 2.16 2.2 2.44 2.44 0 0 0 1.41-.42c2-1.33 2.86-3.4 3.86-5.52.29-.58.79-1.37 1.54-1.37 1.24-.01.87 2.36.99 3.19z"/><path class="a" d="M197.34 21.11a7.89 7.89 0 0 1-1.7.17c-1.58 0-3.44-1-3.86-2.57-2.66 1.33-5.23 2.57-8.26 2.57a.46.46 0 0 1-.46-.46.45.45 0 0 1 .46-.42 12.27 12.27 0 0 0 3.65-.62 34.06 34.06 0 0 0 4.48-2.12 6.59 6.59 0 0 1 3.44-5.35 2.88 2.88 0 0 1 1.45-.33c1.08 0 2.28.62 2.28 1.83a2.1 2.1 0 0 1-.25.87 2.89 2.89 0 0 1-1.08.91c-.54.33-1.08.58-1.62.87-1 .54-1.91 1.12-2.9 1.62a2.6 2.6 0 0 0 2.7 2.32 6.23 6.23 0 0 0 3.9-1.12 10 10 0 0 1 .91-.66c.17 0 .21.08.21.25.01 1.33-2.36 2.04-3.35 2.24zm-4.27-4.19a27 27 0 0 0 4-2.49.76.76 0 0 0 .21-.5c0-.5-.54-.66-1-.66-1.68 0-2.97 2.11-3.22 3.65zm40.61-13.03a5.75 5.75 0 0 1-1.16 3.32c-1.49 2.36-4.61 5-6.76 6.76-.66.54-1.41 1.08-2 1.66l-.5.46-.33 1.16a11.54 11.54 0 0 0 3.2 2.28 9.15 9.15 0 0 0 3.78.87.45.45 0 0 1 .46.42.46.46 0 0 1-.46.46A10.54 10.54 0 0 1 223.4 19c-.25-.21-.58-.37-.79-.58l-.25 1c2.16 2.82 5.43 7.26 5.43 10.91 0 2.2-1.33 4.48-3.73 4.48-3.15 0-4.11-3.53-4.11-6.1a40.75 40.75 0 0 1 1.16-8.92l-1-1.12c-1.54 1-4.23 2.61-6.1 2.61-.42 0-1.37-.17-1.37-.75 0-.37 1.12-.25 1.37-.29a13.1 13.1 0 0 0 5.56-2.57 1.79 1.79 0 0 1-.17-.79.92.92 0 0 1 1-1 2.52 2.52 0 0 1 1 .25l.75-.66c1.33-4.27 3.44-9.67 7-12.7a3.94 3.94 0 0 1 2.45-1 2 2 0 0 1 2.08 2.12zm-7.22 26.26c0-3.24-2.53-6.85-4.48-9.25l-.08.37a37.19 37.19 0 0 0-.83 6.76c0 1.87.62 5.48 3.11 5.48 1.7.01 2.28-1.94 2.28-3.35zm-5-11.87a3.75 3.75 0 0 1 .17-.66 1.63 1.63 0 0 0-.42.33 2.26 2.26 0 0 0 .23.34zm5.93-7.34c1.2-1.12 4.73-4.94 4.73-6.51 0-.46-.17-.91-.71-.91-3 0-6.85 8-7.59 10.58 1.19-1.04 2.4-2.07 3.55-3.15z"/><path class="a" d="M247 17.25a16.06 16.06 0 0 0 2.45.13.46.46 0 0 1 0 .91 16.07 16.07 0 0 1-2.7-.17c-.83 2.2-3.28 4.19-5.52 4.19-1.74 0-2.66-1.49-2.66-3.07a5.53 5.53 0 0 1 .12-1.16c-2.61 1.78-5.1 3.19-8.34 3.19-.37 0-1 .08-1-.46a.45.45 0 0 1 .46-.42 16.12 16.12 0 0 0 2-.17 13.11 13.11 0 0 0 3.53-1.2 12.92 12.92 0 0 0 3.15-1.95 7.5 7.5 0 0 0 .83-.79l.37-.58a10.4 10.4 0 0 1 1.12-1.54c.75-.91 2.12-2.24 3.36-2.24s1.66 1 1.66 2.07a3.07 3.07 0 0 1 1.2 2.57 3.52 3.52 0 0 1-.03.69zm-1.49.54a2.87 2.87 0 0 1-2.32-2.7c0-.87.66-1.33 1.62-1.41a.85.85 0 0 0-.71-.46 1.65 1.65 0 0 0-1 .37 8.42 8.42 0 0 0-3.15 5.77 1.7 1.7 0 0 0 1.74 1.83c1.12.01 3.11-1.4 3.81-3.4zm.25-.87a2.71 2.71 0 0 0 0-.58c0-.87-.46-1.58-1.16-1.58-.17 0-.25.17-.25.33a1.87 1.87 0 0 0 1.4 1.83z"/><path class="a" d="M271.64 14.72c0 .17-.17.21-.29.21a7.26 7.26 0 0 1-1.37-.21 9.77 9.77 0 0 0-1.58-.08c-4.44 0-7.38 2.53-9.87 6-.33.42-1 1.29-1.54 1.29-1.54 0-1-4.73-1.2-5.73 0-.21-.12-.46-.37-.46a.93.93 0 0 0-.62.33 9.48 9.48 0 0 1-2.66 1.74 7.78 7.78 0 0 1-2.74.5.46.46 0 0 1 0-.91 7 7 0 0 0 2.07-.33 7.84 7.84 0 0 0 2.82-2 2.33 2.33 0 0 1 1.49-.87c1.25 0 1.2 2 1.2 2.78v2.7c0 .17 0 .58.29.58s1.08-1.16 1.2-1.29a20.44 20.44 0 0 1 2.28-2.36 12.73 12.73 0 0 1 8-2.95c.77.03 2.89.07 2.89 1.06zM14.72 55.08a1.89 1.89 0 0 1 .36 1.38c0 1.84.51 4.5 1.74 5.93a3.22 3.22 0 0 0 1.18.87c.51.2 2 .1 2 .77a.57.57 0 0 1-.56.56c-3.68 0-5.52-3.78-5.72-7a18.18 18.18 0 0 1-5.26 6.23 10.53 10.53 0 0 1-6.49 2.45c-.46 0-1.94-.15-1.94-.82 0-.36.77-.36 1-.36a9.13 9.13 0 0 0 3.53-.56 13.43 13.43 0 0 0 3.83-2.5 14.18 14.18 0 0 0 3.88-5.11 5.68 5.68 0 0 1 .92-1.74 1.17 1.17 0 0 1 .87-.41.82.82 0 0 1 .66.31zm-1-7.92c0-.51.46-.72.92-.72.82 0 1.23 1.07 1.23 1.79 0 .41-.21.77-.61.77-.65 0-1.51-1.22-1.51-1.84z"/><path class="a" d="M46.5 58.76c.61 2.15 1.07 4.75 3.83 4.75a.56.56 0 0 1 .56.51.57.57 0 0 1-.56.56c-5.57 0-4.8-6.75-6.44-6.75-1.43 0-4.4 6.9-6.75 6.9-1.07 0-1.48-1-1.48-1.89 0-1.69.87-3.53.87-5.06 0-.66-.1-1.43-.92-1.43-3.12 0-9.2 8.23-14.92 8.23-.51 0-1.94.26-1.94-.56a.56.56 0 0 1 .56-.51 13.11 13.11 0 0 0 8-3.07c1.79-1.33 5-4.45 6.85-5.21a4.19 4.19 0 0 1 1.53-.36 2.4 2.4 0 0 1 2.4 2.66c0 1.63-1 3.47-1 5 0 .25 0 .61.36.61 1.12 0 4.5-7.21 6.95-7.21 1.23.02 1.82 1.81 2.1 2.83z"/><path class="a" d="M63.72 55.13a1.77 1.77 0 0 1 .36 1.33c0 1.94.46 4.45 1.79 5.93a3.08 3.08 0 0 0 2.56 1.12c.26.05.56.2.56.51a.57.57 0 0 1-.56.56c-3.68 0-5.52-3.78-5.72-7a18.24 18.24 0 0 1-6.75 5.72 12.34 12.34 0 0 1-5.72 1.28.57.57 0 0 1-.56-.56.56.56 0 0 1 .56-.51 10.28 10.28 0 0 0 5.06-1.23 15.73 15.73 0 0 0 5.42-5c.46-.67 1.38-2.5 2.3-2.5a.93.93 0 0 1 .7.35zm-1-8c0-.51.46-.72.92-.72.82 0 1.23 1.07 1.23 1.79 0 .41-.2.77-.61.77-.69.03-1.51-1.14-1.51-1.81z"/><path class="a" d="M68.32 63.52a14.83 14.83 0 0 0 4.5-.77 29.58 29.58 0 0 0 7.41-4.5 4.22 4.22 0 0 0 .87-.77c.15-.2.26-.56.41-.82a8.41 8.41 0 0 1 2-2.45 3.94 3.94 0 0 1 2.3-.92c.82 0 2.71.71 2.71 1.63a.27.27 0 0 1-.31.31c-.61 0-.87-.77-1.89-.77-2.3 0-4.14 3.88-4.14 5.88s1.28 3 3.17 3.17c.31.05.56.2.56.56a.53.53 0 0 1-.56.51c-2.15 0-4.39-1.28-4.8-3.47 0-.15-.1-.36-.1-.51a6.88 6.88 0 0 1 .05-1c-3.58 2.81-7.51 5-12.16 5a.53.53 0 0 1-.56-.51.57.57 0 0 1 .54-.57z"/><path class="a" d="M111.09 59.63a8.47 8.47 0 0 0 .61 1.58 3.94 3.94 0 0 0 3.48 2.3.56.56 0 0 1 .56.51.57.57 0 0 1-.56.56c-4.55 0-5.26-4.5-6.39-4.5s-2.71 5.52-7.15 5.52a2.53 2.53 0 0 1-2.81-2.71 5.79 5.79 0 0 1 .82-2.76c-3.94 1.84-10.12 4.45-14.36 4.45a.57.57 0 0 1-.56-.56c0-.41.41-.51.72-.51 2.81-.1 7.67-1.79 10.32-2.91a40.32 40.32 0 0 0 5.62-2.61l.05-.05a6.65 6.65 0 0 1 4.65-2.35 3.61 3.61 0 0 1 3.17 1.64c1.42-.15 1.57 1.43 1.83 2.4zm-3.68-1.17c-.36-.67-.82-1.28-1.64-1.28-2.15 0-5.21 3.42-5.21 5.47a1.36 1.36 0 0 0 1.43 1.48c2.3 0 4.3-4.04 5.42-5.67z"/><path class="a" d="M145.73 56.51c0 .21-.2.26-.36.26a8.92 8.92 0 0 1-1.69-.26 12.12 12.12 0 0 0-1.94-.1c-5.47 0-9.1 3.12-12.16 7.36-.36.51-1.18 1.58-1.89 1.58-1.79 0-1.28-5.88-1.48-7.05-.05-.26-.15-.56-.46-.56-1.07 0-5.83 6.85-10.42 6.85-.36 0-.82-.05-.82-.56 0-.31.31-.46.56-.51a7 7 0 0 0 2-.46c2.61-1.17 5.21-4 7.26-6.08a2.88 2.88 0 0 1 1.84-1.07c1.53 0 1.48 2.4 1.48 3.42s.05 2.2.05 3.32c0 .25 0 .71.36.71.2 0 1.33-1.43 1.48-1.58a25.28 25.28 0 0 1 2.81-2.91 15.68 15.68 0 0 1 9.91-3.63c.87 0 3.47.05 3.47 1.27zm31.58 2.82a4.88 4.88 0 0 0 4 4.09c.41.1 1.43 0 1.43.61a.57.57 0 0 1-.56.56 7 7 0 0 1-7-5.93 9.26 9.26 0 0 1-.92 1.89c-1.43 2.5-3.63 5.37-6.8 5.37-2.76 0-4-2.2-4-4.65 0-1.33.77-6.54 2.45-6.54a.85.85 0 0 1 .92.87c0 1.18-1.69 3.27-1.69 5.62 0 1.74.61 3.17 2.56 3.17a3 3 0 0 0 1.74-.51c2.5-1.69 3.37-4.24 4.65-6.8.31-.66 1-1.69 1.89-1.69 1.59-.01 1.18 2.91 1.33 3.94z"/><path class="a" d="M224.99 63.26c0 .92-1.94 1.33-2.66 1.33a3.13 3.13 0 0 1-2.81-1.21 10.2 10.2 0 0 1-1.48-3.32c-.15-.51-.25-1.12-.71-1.43a.58.58 0 0 0-.41-.15c-.46 0-.77.51-1 .82l-1.28 1.64a18.58 18.58 0 0 1-2.5 3.12 2 2 0 0 1-1.33.51 1.81 1.81 0 0 1-1.69-1.23c-.61-1.48-.92-3.12-1.58-4.6-.15-.36-.36-.92-.82-.92-1.38 0-4.4 6.9-6.7 6.9a1.63 1.63 0 0 1-1.53-1.79c0-1.79.92-3.68.92-5.42a1.06 1.06 0 0 0-1.09-1.13c-3.12 0-9.1 8.18-14.77 8.18-.51 0-2 .26-2-.56a.56.56 0 0 1 .56-.51 13.11 13.11 0 0 0 8-3.07c2-1.48 6-5.57 8.38-5.57a2.4 2.4 0 0 1 2.4 2.66c0 1.79-1 3.47-1 5.26a.32.32 0 0 0 .36.36c1.12 0 4.5-7.15 6.9-7.15 2.61 0 2.4 6.59 3.94 6.59.77 0 3.37-4 3.93-4.75a2.87 2.87 0 0 1 2.15-1.33 2 2 0 0 1 1.64.92c1.33 2.1.41 5.72 3.68 6h.31c.67 0 1.28-.41 1.94-.41.1.01.25.06.25.26zm37.56-3.47a.56.56 0 0 1 0 1.12c-3.93 0-6.13-3.58-7.1-3.58-1.33 0-5 8.43-7.51 8.43-1.07 0-1.79-1.18-2.25-2-.72-1.23-3.42-6.13-3.42-7.31a.77.77 0 0 1 .82-.77 1.18 1.18 0 0 1 .41.1c.92.46 1.38 2.2 1.74 3.12s1.94 5.06 2.86 5.06c1.58 0 5.11-8.48 7.26-8.48 1.67.01 3.2 4.31 7.19 4.31z"/><path class="a" d="M274.04 55.19a5.33 5.33 0 0 1 .31 1.84c.2 1.84.46 3.88 1.74 5.37.82 1 1.48 1 2.61 1.12.26.05.56.2.56.51a.57.57 0 0 1-.56.56 5.39 5.39 0 0 1-4.09-2.09 14.4 14.4 0 0 1-1.94-6.18 27.85 27.85 0 0 1-6.64 4 14.11 14.11 0 0 1-3.58.56.57.57 0 0 1-.56-.56.56.56 0 0 1 .51-.56 8.65 8.65 0 0 0 2.56-.41 16.36 16.36 0 0 0 3-1.43c.92-.56 4.39-3.22 5.26-3.22a.79.79 0 0 1 .82.49zm-2.5-4.45c-.21 0-.31-.05-.31-.2 0-.36 3.42-3.32 4.24-3.32.41 0 .77.2.77.51 0 .66-3.12 2.66-4.24 3a1.42 1.42 0 0 1-.46.01z"/><path class="a" d="M297.29 48.75c.87-3.48 3.83-14 8.18-14a1.67 1.67 0 0 1 1.69 1.89c0 3.37-3 7.82-4.55 10.78a80.22 80.22 0 0 1-5 8.64c.05.61.1 1.33.21 1.94a6.34 6.34 0 0 0 4.29 5.06 9.22 9.22 0 0 0 2.61.41.56.56 0 0 1 .56.51.57.57 0 0 1-.56.56 8 8 0 0 1-7.26-4 11.32 11.32 0 0 1-.92-2.91c-2 2.76-5.31 7.56-9.1 7.56a3.1 3.1 0 0 1-3.22-3c-1.94 1.48-3.17 2.35-5.67 2.35a.51.51 0 0 1-.56-.56.48.48 0 0 1 .51-.51c2.45 0 4.45-1.84 6.23-3.32a7.57 7.57 0 0 1 6.34-4.34 3.82 3.82 0 0 1 3.42 2.45c.67-.87 1.23-1.74 1.84-2.61a28.84 28.84 0 0 1 .96-6.9zm-4 11.09l.05-.05a2.45 2.45 0 0 0-2.45-2.25c-2.15 0-4.91 2.2-4.91 4.45a1.54 1.54 0 0 0 1.69 1.64c2.37-.01 4.21-2.25 5.64-3.79zm7-10.68c1-1.64 1.79-3.32 2.66-5s2.55-4.4 2.55-6.13c0-.56-.2-1-.82-1-2.35 0-5 8.23-5.52 10.17a32.1 32.1 0 0 0-1.53 6.54z"/><path class="a" d="M323.56 55.38a2.6 2.6 0 0 1-.31 1.07 3.9 3.9 0 0 1-1.28 1.12c-.66.41-1.38.72-2 1.07-1.23.66-2.35 1.38-3.58 2 .2 1.94 1.48 2.61 3.27 2.86.26.05.56.2.56.51a.57.57 0 0 1-.56.56 4.94 4.94 0 0 1-4.75-3.17c-3.22 1.58-6.44 3.17-10.12 3.17a.58.58 0 0 1-.61-.56.56.56 0 0 1 .56-.51 14.83 14.83 0 0 0 4.5-.77 45.86 45.86 0 0 0 5.57-2.61c0-3 2.76-7 6-7 1.27.02 2.75.79 2.75 2.26zm-2.2.77a.85.85 0 0 0 .26-.61c0-.61-.61-.82-1.12-.82-2.2 0-3.63 2.66-4 4.5a33.34 33.34 0 0 0 4.86-3.06z"/><path class="a" d="M349.22 60.6c0 1-2 .92-2.61.92a5.52 5.52 0 0 1-2-.31 7.58 7.58 0 0 1-6.75 4.7c-2.2 0-3.22-2-3.22-3.94a7.33 7.33 0 0 1 .41-2.35l-.15.1c-4.55 1.94-10.53 4.85-15.38 4.85a.53.53 0 0 1-.51-.56.55.55 0 0 1 .51-.51 16.18 16.18 0 0 0 4.39-.77 59.87 59.87 0 0 0 12-4.91c1-1.74 3.37-4.6 5.52-4.6 1.38 0 2 1.33 2 2.56v.2a3.9 3.9 0 0 1 1.53 3.17 5.6 5.6 0 0 1-.1 1 6.94 6.94 0 0 0 2.3.25c.36-.02 2.06-.21 2.06.2zm-6 0c-1.07-.61-3.07-2-3.07-3.42 0-1.07 1.07-1.53 2-1.58a.89.89 0 0 0-.77-.56 2.5 2.5 0 0 0-1.18.41 8.85 8.85 0 0 0-4 6.85 1.89 1.89 0 0 0 2 2.1 5.37 5.37 0 0 0 5.08-3.8zm.25-1.33c0-.72-.66-2.35-1.53-2.35-.2 0-.36.25-.36.46 0 .82 1.33 1.58 1.89 2zm8.55 8.85a.38.38 0 0 1-.31-.36c.05-.61.66-1.38.87-2.09.31-1.12-.1-3.12 1.23-3.12.67 0 .92.36.92 1a6.72 6.72 0 0 1-1.94 4.14 1.4 1.4 0 0 1-.77.43z"/></svg>