<svg xmlns="http://www.w3.org/2000/svg" viewBox="0 0 394.39 125.2"><defs><style>.a{fill:#3a1a0d}</style></defs><title>p1_f1</title><path class="a" d="M31.15 10.11a20.79 20.79 0 0 1-3.65 10.56c-3.19 4.64-9.11 10.27-15.95 10.27-4.12 0-9.22-2.15-9.22-10.21 0-3 1-6.5 3.83-10.61C11.84 1.65 15.44.03 16.89.03a3.66 3.66 0 0 1 3.31 3.19 8.21 8.21 0 0 1 3.19-.58 7.36 7.36 0 0 1 7.48 5.22 8 8 0 0 1 .28 2.25zm-1.91.35c0-3.6-2.32-6-5.39-6a10.76 10.76 0 0 0-2.73.46c-2.44.81-2.84 1.16-3.83 2.15a1.06 1.06 0 0 1-.75.41c-.64 0-.7-.52-.7-.81 0-.93 1.28-1.86 1.28-1.86a13.7 13.7 0 0 1 2-1.1c-.52-.52-1-1.39-1.8-1.39-1.51 0-3.89 1.62-5 2.73a36 36 0 0 0-4.7 6.32c-2 3.31-3.31 7-3.31 9.74 0 6.26 3.94 7.89 7.95 7.89a8.23 8.23 0 0 0 2.32-.29c4.7-1.28 12.88-7.37 14.56-16.88a10.42 10.42 0 0 0 .09-1.39zM46.4 3.02c1-1.22 2.84-3 4.52-3 1.86 0 2.55 2.2 2.55 3.71 0 4.18-4 11.37-6.44 14.67a16.09 16.09 0 0 0-1.22 1.57c-.58.87-1.1 1.68-1.74 2.49 1.33 3.13 3.71 6.44 7.48 6.44a.63.63 0 0 1 .64.58.64.64 0 0 1-.64.64c-4.06 0-7.08-2.55-8.7-6.15-3 3.36-6.44 6.61-11.25 6.61-.58 0-2.2-.17-2.2-1 0-.29.41-.35.64-.35a11.6 11.6 0 0 0 4.47-.64c3-1.22 5.63-3.83 7.66-6.32a18.37 18.37 0 0 1-.87-5.34 24.77 24.77 0 0 1 5.1-13.91zm2.84 9c1.1-2 2.67-5.57 2.67-7.77 0-1-.41-2-1.57-2a2.25 2.25 0 0 0-1.33.52c-3.54 2.55-5.92 10-5.92 14.21a14.87 14.87 0 0 0 .41 3.6 75.54 75.54 0 0 0 5.74-8.47z"/><path class="a" d="M80.21 27.96c0 1.45-3 2.15-4.18 2.15-5.22 0-6-5.1-7.25-5.1-1.45 0-3.13 6.26-8.18 6.26a2.91 2.91 0 0 1-3.19-3.13v-.29c-1.86 1.33-3.25 2.26-5.62 2.26-.46 0-.93-.06-.93-.64a.63.63 0 0 1 .64-.58c2.61 0 4.76-1.86 6.67-3.48 1.39-2.55 4.47-5.51 7.54-5.51a3.93 3.93 0 0 1 3.54 1.86 1.6 1.6 0 0 1 1.62 1 10 10 0 0 1 .52 1.74c.64 2.26 2 4.41 4.64 4.41 1.8 0 3.6-1.33 3.83-1.33s.35.14.35.38zm-13-4.81c-.46-.75-.93-1.45-1.91-1.45-2.38 0-5.86 3.89-5.86 6.21a1.54 1.54 0 0 0 1.62 1.68c2.62-.01 4.77-4.65 6.16-6.48zm-4.12-7.77c-.23 0-.35-.06-.35-.23 0-.41 3.89-3.77 4.81-3.77.46 0 .87.23.87.58 0 .75-3.54 3-4.81 3.36a1.61 1.61 0 0 1-.51.05zM85.99 27.61A1.49 1.49 0 0 1 87.56 29a1.42 1.42 0 0 1-1.22 1.33 1.8 1.8 0 0 1-1.68-1.57c0-.52.17-.87.58-1a1.6 1.6 0 0 1 .75-.15zm1.45-5.86c-.29 0-.41-.23-.41-.52a24.11 24.11 0 0 1 .81-4.47c.46-2.09.64-3.71 1-5.74.46-2.55 1.22-9.28 3-9.28a1.11 1.11 0 0 1 1 1.22 3.51 3.51 0 0 1-.17 1.16 148.53 148.53 0 0 1-4.41 16.36c-.39.92-.51 1.27-.85 1.27zM23.61 64.11a.72.72 0 0 1 .75.7c0 .75-.7 1.1-2.09 1.33.52 8.87 1.33 13.4 1.33 13.86s-.41.64-.87.64c-1.39 0-1.45-3.31-1.62-5l-.87-9c-3 .58-11.95 1.91-11.95 2.15C5.91 74.13 4.87 76.16 3.77 79c-.35.81-.7 1.91-1.91 1.91-.46 0-.7-.29-.7-.75s3.07-7.31 4.93-11.19a12.72 12.72 0 0 1-1.28.12c-1.22 0-1.68-.46-1.68-.93 0-1.1 1.74-.81 3.89-1.28 3.71-8.24 7.25-17 8.87-18.91a2.87 2.87 0 0 1 2.26-1.28c2.61 0 2.49 4.81 2.73 7 .35 3.54.7 5.86 1.22 10.73l.87-.12a2.57 2.57 0 0 1 .64-.19zm-3.54.52c-.46-6.32-1-10.27-1.45-14-.12-.93-.41-1.45-.87-1.45-1 0-4.58 8.41-8.47 17.28 4.18-.64 6.44-1 9.63-1.57zM45.36 72.59c.75 2.38 1.22 5.39 4.35 5.39a.6.6 0 0 1 .64.58.64.64 0 0 1-.64.64c-6.26 0-5.45-7.66-7.31-7.66-1.51 0-5 7.83-7.6 7.83-1.16 0-1.68-1.1-1.68-2.09 0-2 .93-3.89.93-5.8 0-.75-.06-1.62-1-1.62-1.57 0-3.77 2.09-4.76 2.09a.53.53 0 0 1-.58-.46c0-1.28 4.12-3.31 5.39-3.31a2.67 2.67 0 0 1 2.67 3c0 2-1.16 4.18-1.16 6a.45.45 0 0 0 .41.46c.12 0 .17-.06.23-.06 2.15-2.15 3.48-4.93 5.63-7.08a3.15 3.15 0 0 1 2-1c1.61-.1 2.11 1.87 2.48 3.09z"/><path class="a" d="M70.41 63.48c0 1.45-4.06 1.51-5 1.57v.06a2.44 2.44 0 0 1-.23.58 21.28 21.28 0 0 0-1.91 7.48 4.44 4.44 0 0 0 1.39 3.6 5.69 5.69 0 0 0 3.19 1.22c.29.06.64.23.64.58a.64.64 0 0 1-.64.64 5.65 5.65 0 0 1-5.92-5.86 19.05 19.05 0 0 1 .46-3.65c-2.09 3.65-8.29 9.51-12.76 9.51a.64.64 0 0 1-.64-.64c0-.35.35-.52.64-.58a12.69 12.69 0 0 0 5.86-2.9 25.72 25.72 0 0 0 7.48-9.92c-.93.06-1.8.12-2.73.12-.52 0-1.8-.17-1.8-.93 0-1.16 4.29-1 5.28-1 .29-.75 1.28-3.77 2.26-3.77.75 0 .87 1.28.87 1.8a8.21 8.21 0 0 1-.64 1.91 21 21 0 0 1 3.31 0c.2-.05.89-.19.89.18z"/><path class="a" d="M89.21 68.76a3 3 0 0 1-.35 1.22 4.42 4.42 0 0 1-1.45 1.28c-.75.46-1.57.81-2.32 1.22-1.39.75-2.67 1.57-4.06 2.26.23 2.2 1.68 3 3.71 3.25.29.06.64.23.64.58a.64.64 0 0 1-.64.64 5.61 5.61 0 0 1-5.39-3.6c-3.65 1.8-7.31 3.6-11.48 3.6a.66.66 0 0 1-.7-.64.63.63 0 0 1 .64-.58 16.85 16.85 0 0 0 5.1-.87 52.34 52.34 0 0 0 6.32-3c0-3.42 3.13-7.95 6.84-7.95 1.45.04 3.14.94 3.14 2.59zm-2.49.87a1 1 0 0 0 .29-.7c0-.7-.7-.93-1.28-.93-2.49 0-4.12 3-4.58 5.1a37.75 37.75 0 0 0 5.56-3.47z"/><path class="a" d="M117.99 71.25a5 5 0 0 1 2.15 4.06c0 3.89-3.94 6.21-7.37 7a22.49 22.49 0 0 1-5.22.58c-.46 0-1.62-.23-1.62-.87s.93-.75 1.39-.75a20.29 20.29 0 0 0 4.93-.46c2.32-.58 3.77-1.16 5.16-3.07a4.21 4.21 0 0 0 .75-2.49c0-3.13-5.8-6.26-7.77-8.53l-.06.06c-3.13 2.78-6.32 5.74-10 7.77-4.81 2.67-10.09 4.64-15.66 4.64a.63.63 0 0 1-.64-.58.64.64 0 0 1 .64-.64 19.37 19.37 0 0 0 5.16-.64 59 59 0 0 0 7-2.61 47.3 47.3 0 0 0 10.38-6.84l2.44-2.32a4 4 0 0 1-.46-1.8c0-2.15 2.15-5.22 4.47-5.22a1.75 1.75 0 0 1 1.8 1.86c0 2-2.26 4.12-3.71 5.22-.06 0-.06.06-.12.06 1.99 1.98 4.25 3.72 6.36 5.57zm-7.13-7.48c0 .23.06.41.06.64.7-.64 2.78-2.61 2.78-3.65a.47.47 0 0 0-.52-.46c-1.19-.01-2.28 2.48-2.28 3.47zM155.73 61.22c1-3.94 4.41-15.83 9.28-15.83a1.89 1.89 0 0 1 1.91 2.15 16.15 16.15 0 0 1-1.68 5.86c-1 2.2-2.32 4.23-3.48 6.38-1.57 2.84-3 5.68-4.7 8.41-.29.46-.58.93-.93 1.39.35 2.26.52 4.47 2.26 6.21a8.25 8.25 0 0 0 5.8 2.2.6.6 0 0 1 .64.58.64.64 0 0 1-.64.64c-5.16 0-8.29-2.9-9.28-7.83-2.26 3.13-6 8.58-10.27 8.58a3.54 3.54 0 0 1-3.71-3.6c0-3.48 4.35-7.08 7.77-7.08a4.19 4.19 0 0 1 3.89 2.78c.75-1 1.39-2 2.09-3a32.71 32.71 0 0 1 1.05-7.84zm-4.52 12.59l.06-.06a2.7 2.7 0 0 0-2.78-2.55c-2.38 0-5.57 2.44-5.57 5a1.8 1.8 0 0 0 1.91 1.91c2.66 0 4.75-2.45 6.38-4.3zm7.95-12.12c1-1.86 2-3.77 3-5.68s2.9-4.93 2.9-7c0-.58-.23-1.16-.93-1.16-2.61 0-5.57 9.4-6.26 11.54a40.6 40.6 0 0 0-1.74 7.42z"/><path class="a" d="M183.45 78.97a11 11 0 0 1-2.38.23c-2.2 0-4.81-1.33-5.39-3.6-3.71 1.86-7.31 3.6-11.54 3.6a.64.64 0 0 1-.64-.64.63.63 0 0 1 .64-.58 17.16 17.16 0 0 0 5.1-.87 47.72 47.72 0 0 0 6.26-3 9.21 9.21 0 0 1 4.81-7.48 4 4 0 0 1 2-.46c1.51 0 3.19.87 3.19 2.55a3 3 0 0 1-.35 1.22 4 4 0 0 1-1.51 1.28c-.75.46-1.51.81-2.26 1.22-1.33.75-2.67 1.57-4.06 2.26 0 1.91 2 3.25 3.77 3.25a8.71 8.71 0 0 0 5.45-1.57 13.9 13.9 0 0 1 1.28-.93c.23 0 .29.12.29.35.04 1.89-3.27 2.88-4.66 3.17zm-6-5.86a37.75 37.75 0 0 0 5.57-3.48 1.07 1.07 0 0 0 .29-.7c0-.7-.75-.93-1.33-.93-2.35 0-4.15 3.02-4.5 5.11zM217.5 68.29c0 .23-.17.29-.35.29-.64 0-.93-.87-2.2-.87-2.55 0-4.7 4.41-4.7 6.61s1.57 3.42 3.65 3.65c.35.06.58.17.58.58a.6.6 0 0 1-.58.64c-2.73 0-5.57-1.91-5.57-4.87s2.73-7.95 6-7.95c1.02.01 3.17.74 3.17 1.92z"/><path class="a" d="M242.78 73.57a22.57 22.57 0 0 0 3.42.17.64.64 0 0 1 0 1.28 22.48 22.48 0 0 1-3.77-.23c-1.16 3.07-4.58 5.86-7.71 5.86-2.44 0-3.71-2.09-3.71-4.29a7.86 7.86 0 0 1 .52-2.78c-5.16 2.26-12.12 5.63-17.63 5.63a.6.6 0 0 1-.58-.64.62.62 0 0 1 .58-.58 18.39 18.39 0 0 0 5-.87 67.47 67.47 0 0 0 13.57-5.57 23 23 0 0 1 1.68-2.26c1-1.28 3-3.13 4.7-3.13s2.32 1.45 2.32 2.9a4.3 4.3 0 0 1 1.68 3.6 5 5 0 0 1-.07.91zm-2.09.75c-1.74-.58-3.25-1.68-3.25-3.77 0-1.22.93-1.86 2.26-2a1.18 1.18 0 0 0-1-.64 2.31 2.31 0 0 0-1.45.52c-2.2 1.57-4.41 5.34-4.41 8.06a2.37 2.37 0 0 0 2.44 2.55c1.65.07 4.43-1.93 5.42-4.71zm.35-1.22c0-.23.06-.52.06-.81 0-1.22-.64-2.2-1.62-2.2-.23 0-.35.23-.35.46a2.61 2.61 0 0 0 1.91 2.56z"/><path class="a" d="M281.93 71.11c1.57 2.49.75 6.5 4.58 6.9.29.06.64.23.64.58a.64.64 0 0 1-.64.64c-5.86 0-4.64-6.9-6.61-6.9-.52 0-.93.52-1.22.93a44.65 44.65 0 0 1-4.23 5.39 2.47 2.47 0 0 1-1.57.58 1.91 1.91 0 0 1-1.89-1.42c-.64-1.68-1-3.54-1.8-5.22-.17-.41-.46-1-1-1-1.57 0-4.93 7.83-7.6 7.83-1.22 0-1.68-1.1-1.68-2.15 0-1.86 1-3.94 1-5.51 0-.93-.06-1.86-1.28-1.86-.7 0-2.78 1.39-3.48 1.86a26.77 26.77 0 0 1-4.93 2.61 12 12 0 0 1-4.06.7.66.66 0 0 1-.7-.64.64.64 0 0 1 .64-.64 11.62 11.62 0 0 0 4.58-1.16c2.38-1.1 5.74-4.41 8.24-4.41a2.67 2.67 0 0 1 2.67 3c0 2-1.16 4.18-1.16 6a.45.45 0 0 0 .41.46c1.22 0 5.1-8.12 7.89-8.12 3 0 2.55 7.48 4.41 7.48.93 0 3.83-4.58 4.47-5.39a3.26 3.26 0 0 1 2.44-1.51 2.22 2.22 0 0 1 1.88.97z"/><path class="a" d="M307.8 68.76a3 3 0 0 1-.35 1.22 4.42 4.42 0 0 1-1.45 1.28c-.75.46-1.57.81-2.32 1.22-1.39.75-2.67 1.57-4.06 2.26.23 2.2 1.68 3 3.71 3.25.29.06.64.23.64.58a.64.64 0 0 1-.64.64 5.61 5.61 0 0 1-5.39-3.6c-3.65 1.8-7.31 3.6-11.48 3.6a.66.66 0 0 1-.7-.64.63.63 0 0 1 .64-.58 16.85 16.85 0 0 0 5.1-.87 52.27 52.27 0 0 0 6.32-3c0-3.42 3.13-7.95 6.84-7.95 1.46.04 3.14.94 3.14 2.59zm-2.49.87a1 1 0 0 0 .29-.7c0-.7-.7-.93-1.28-.93-2.49 0-4.12 3-4.58 5.1a37.75 37.75 0 0 0 5.57-3.47z"/><path class="a" d="M325.84 77.98c.35.06.58.17.58.58a.6.6 0 0 1-.58.64c-2.84 0-5.57-1.91-5.57-4.93a6.31 6.31 0 0 1 .12-1l-.81.35c-2.26 1.1-4.35 2.32-6.67 3.31-3.48 1.51-5.8 2.32-9.69 2.32a.6.6 0 0 1-.58-.64.55.55 0 0 1 .58-.58 18.28 18.28 0 0 0 6.38-1.16 72.8 72.8 0 0 0 11.31-5.51c.87-2 3-4.93 5.39-4.93.87 0 3.13.75 3.13 1.86a.33.33 0 0 1-.35.35c-.64 0-1-.87-2.2-.87-2.55 0-4.7 4.41-4.7 6.61s1.57 3.37 3.66 3.6zm-3.77 7.54c0-.52 1.1-.52 1.86-1.28 1.86-2 .46-4.41 1.86-4.41.41 0 .75.17.75.58 0 1.62-.46 5-3.71 5.34-.36 0-.76 0-.76-.23z"/><path class="a" d="M355.07 73.57a9.62 9.62 0 0 0 .7 1.8 4.48 4.48 0 0 0 3.94 2.61.63.63 0 0 1 .64.58.64.64 0 0 1-.64.64c-5.16 0-6-5.1-7.25-5.1s-3.07 6.26-8.12 6.26a2.87 2.87 0 0 1-3.19-3.07 6.58 6.58 0 0 1 .93-3.13c-4.47 2.09-11.48 5-16.3 5a.64.64 0 0 1-.64-.64c0-.46.46-.58.81-.58 3.19-.12 8.7-2 11.72-3.31a45.68 45.68 0 0 0 6.38-3l.06-.06c1.45-1.45 3.13-2.67 5.28-2.67a4.09 4.09 0 0 1 3.6 1.86c1.62-.09 1.79 1.71 2.08 2.81zm-4.18-1.33c-.41-.75-.93-1.45-1.86-1.45-2.44 0-5.92 3.89-5.92 6.21a1.54 1.54 0 0 0 1.62 1.68c2.63 0 4.89-4.57 6.16-6.44z"/><path class="a" d="M394.39 70.03c0 .23-.23.29-.41.29a10.13 10.13 0 0 1-1.91-.29 13.64 13.64 0 0 0-2.2-.12c-6.21 0-10.32 3.54-13.8 8.35-.41.58-1.33 1.8-2.15 1.8-2 0-1.45-6.67-1.68-8-.06-.29-.17-.64-.52-.64-1.22 0-6.61 7.77-11.83 7.77-.41 0-.93-.06-.93-.64 0-.35.35-.52.64-.58a8 8 0 0 0 2.32-.52c3-1.33 5.92-4.58 8.24-6.9a3.27 3.27 0 0 1 2.09-1.22c1.74 0 1.68 2.73 1.68 3.89s.06 2.49.06 3.77c0 .29 0 .81.41.81.23 0 1.51-1.62 1.68-1.8a28.66 28.66 0 0 1 3.19-3.31 17.8 17.8 0 0 1 11.25-4.12c.91.01 3.87.07 3.87 1.46zM15.78 117.02h-1.51a13.32 13.32 0 0 1-3-.29c-1.1 3-4 6-7.6 6-2.49 0-3.65-2.26-3.65-4.47a11.33 11.33 0 0 1 3-7c1-1.28 3-3.07 4.7-3.07s2.38 1.62 2.38 3.07a3 3 0 0 1 1.68 2.9 8.58 8.58 0 0 1-.12 1.22 7.85 7.85 0 0 0 2 .29c.81.06 1.39.06 2.09.06.29 0 .81.17.81.52a.87.87 0 0 1-.78.77zm-6-.75c-1.91-.58-3.31-2.09-3.31-3.6 0-1.22 1-1.8 2.15-1.8a.94.94 0 0 0-.87-.64 2.84 2.84 0 0 0-1.33.46c-2.49 1.33-4.52 5.1-4.52 7.89a2.15 2.15 0 0 0 2.32 2.38c2.68.01 4.83-2.26 5.53-4.69zm.35-2.2a1.76 1.76 0 0 0-1.68-1.68c-.29 0-.41.35-.41.58a2.34 2.34 0 0 0 2 1.91 4.69 4.69 0 0 0 .05-.77zM53.13 114.59c.75 2.38 1.22 5.39 4.35 5.39a.6.6 0 0 1 .64.58.64.64 0 0 1-.64.64c-6.26 0-5.45-7.66-7.31-7.66-1.51 0-5 7.83-7.6 7.83-1.16 0-1.68-1.1-1.68-2.09 0-2 .93-3.89.93-5.8 0-.75-.06-1.62-1-1.62-1.57 0-3.77 2.09-4.76 2.09a.53.53 0 0 1-.58-.46c0-1.28 4.12-3.31 5.39-3.31a2.67 2.67 0 0 1 2.67 3c0 2-1.16 4.18-1.16 6a.45.45 0 0 0 .41.46c.12 0 .17-.06.23-.06 2.15-2.15 3.48-4.93 5.63-7.08a3.15 3.15 0 0 1 2-1c1.61-.1 2.13 1.87 2.48 3.09z"/><path class="a" d="M81.37 115.57a22.58 22.58 0 0 0 3.42.17.64.64 0 1 1 0 1.28 22.47 22.47 0 0 1-3.77-.23c-1.16 3.07-4.58 5.86-7.71 5.86-2.44 0-3.71-2.09-3.71-4.29a7.71 7.71 0 0 1 .17-1.62c-3.65 2.49-7.13 4.47-11.66 4.47-.52 0-1.39.12-1.39-.64a.63.63 0 0 1 .64-.58 22.47 22.47 0 0 0 2.78-.23 18.36 18.36 0 0 0 4.93-1.68 18.07 18.07 0 0 0 4.41-2.73 10.31 10.31 0 0 0 1.16-1.1l.52-.81a14.47 14.47 0 0 1 1.57-2.15c1-1.28 3-3.13 4.7-3.13s2.32 1.45 2.32 2.9a4.3 4.3 0 0 1 1.68 3.6 4.94 4.94 0 0 1-.06.91zm-2.09.75c-1.74-.58-3.25-1.68-3.25-3.77 0-1.22.93-1.86 2.26-2a1.18 1.18 0 0 0-1-.64 2.31 2.31 0 0 0-1.45.52c-2.2 1.57-4.41 5.34-4.41 8.06a2.37 2.37 0 0 0 2.46 2.62c1.63 0 4.41-2 5.4-4.78zm.35-1.22a3.86 3.86 0 0 0 .06-.81c0-1.22-.64-2.2-1.62-2.2-.23 0-.35.23-.35.46a2.61 2.61 0 0 0 1.92 2.56z"/><path class="a" d="M114.78 122.01a4.1 4.1 0 0 1 1.68-3c2.2-1.91 6.44-2.44 9.28-2.84-1.33-2.9-5.63-5.1-7.71-7.48a39.86 39.86 0 0 1-9.8 6.73 4.77 4.77 0 0 1 .46 1.68c.29 4.52-5.51 7.42-9.4 7.42-1.62 0-3.6-.64-3.6-2.61 0-3.89 6.67-5.68 9.92-7-1.91-2.2-5.45-4.47-6.79-6.26-3.89 3.77-8.24 8.29-14 8.29a.64.64 0 0 1 0-1.28 8.62 8.62 0 0 0 2.73-.41c3.77-1.33 7.6-5 10.44-7.71a4.18 4.18 0 0 1-.46-1.86c0-2.15 2.15-5.22 4.47-5.22a1.75 1.75 0 0 1 1.8 1.86c0 1.91-2.2 4.06-3.65 5.16-.06 0-.06.06-.12.06a63.83 63.83 0 0 0 6.67 5.8l.75.75a34 34 0 0 0 9.74-6.55 4.18 4.18 0 0 1-.46-1.86c0-2.15 2.15-5.22 4.47-5.22a1.75 1.75 0 0 1 1.8 1.86c0 1.91-2.26 4.12-3.71 5.22-.06 0-.06.06-.12.06 2 2 4.35 3.71 6.5 5.57a6.35 6.35 0 0 1 1.86 2.61c.58-.06 1.86-.12 2.2-.12a.64.64 0 1 1 0 1.28c-.23 0-1.16 0-2 .06.64 4.58-5.45 7.48-9.22 7.48-1.7.08-3.73-.5-3.73-2.47zm-8.29-5.8c-2.9 1.1-9.22 3.13-9.22 5.51 0 1.22 1.1 1.62 2.15 1.62 3 0 7.48-2.32 7.48-5.74a3.18 3.18 0 0 0-.41-1.39zm-7.25-10.38v.17l.06.41c.7-.64 2.78-2.61 2.78-3.6a.46.46 0 0 0-.52-.52c-1.16 0-2.32 2.55-2.32 3.54zm26.75 11.89v-.35c-2.44.23-9.69 1.16-9.69 4.47 0 1.16 1.16 1.51 2.15 1.51 3-.01 7.54-2.24 7.54-5.63zm-7.6-11.89v.17l.06.41c.7-.64 2.78-2.61 2.78-3.6a.46.46 0 0 0-.52-.52c-1.12 0-2.27 2.55-2.27 3.54z"/><path class="a" d="M154.22 116.67c0 1-1.62 1-2.32 1a8.41 8.41 0 0 1-3-.29 8.56 8.56 0 0 1-7.6 5.28c-2.55 0-3.71-2.2-3.71-4.47a9 9 0 0 1 .81-3.48 18.19 18.19 0 0 1-8.87 2.26.6.6 0 0 1-.58-.64.58.58 0 0 1 .64-.64c3.65 0 7.08-1.57 10.21-3.36 1.1-1.62 3.42-4 5.51-4 1.68 0 2.38 1.62 2.38 3.07a4.37 4.37 0 0 1 1.68 3.6 7.15 7.15 0 0 1-.12 1.1 7.89 7.89 0 0 0 2.61.35c.46 0 .93-.12 1.39-.12.22.05.97.11.97.34zm-6.73 0c-1.1-.35-3.48-2.55-3.48-3.83a2 2 0 0 1 2.2-1.8c-.17-.35-.41-.7-.87-.7a3.67 3.67 0 0 0-1.33.46 10.15 10.15 0 0 0-4.52 7.83 2.14 2.14 0 0 0 2.26 2.38 6.36 6.36 0 0 0 5.74-4.34zm.23-1.57c0-.81-.7-2.61-1.68-2.61-.29 0-.41.29-.41.52 0 1 1.51 1.68 2.09 2.26zM183.57 110.29c0 .23-.17.29-.35.29-.64 0-.93-.87-2.2-.87-2.55 0-4.7 4.41-4.7 6.61s1.57 3.42 3.65 3.65c.35.06.58.17.58.58a.6.6 0 0 1-.58.64c-2.73 0-5.57-1.91-5.57-4.87s2.73-7.95 6-7.95c1.02.01 3.17.74 3.17 1.92z"/><path class="a" d="M206.65 120.39c2.78-1.8 3.94-4.93 5.34-7.77.41-.75 1.16-1.86 2.09-1.86 1.8 0 1.33 3.31 1.51 4.47a5.48 5.48 0 0 0 4.58 4.64c.46.12 1.62 0 1.62.7a.64.64 0 0 1-.64.64 7.89 7.89 0 0 1-7.95-6.73c-1.45 3.48-4.58 8.18-8.82 8.18-2.9 0-4.52-2.32-4.52-5a21.15 21.15 0 0 1 .7-3.83c-1 .52-2 1.22-3 1.74-5.16 2.67-11.89 5.68-17.69 5.68a.63.63 0 0 1-.58-.64c0-.46.46-.58.81-.58 3.65-.06 8.41-1.86 11.77-3.31a33.46 33.46 0 0 0 4.52-2.38 24.86 24.86 0 0 0 2.38-1.68c.81-.58 2.9-2.61 3.83-2.61a1.23 1.23 0 0 1 1.16 1.28c0 1.57-2.15 3.77-2.15 6.61a2.85 2.85 0 0 0 3 3.07 3.6 3.6 0 0 0 2.04-.62z"/><path class="a" d="M246.21 119.98a.63.63 0 0 1 .64.58.64.64 0 0 1-.64.64c-3 0-6.21-1.45-6.21-4.87 0-2.49 1.57-4.81 1.57-7.31 0-1.57-1.74-2.32-3-2.84l-.17-.06a36 36 0 0 1-6.15 7.77c-2.55 2.44-4.81 5-8 6.61a6.52 6.52 0 0 1-3 .7c-.41 0-.93-.06-.93-.64a.62.62 0 0 1 .58-.58 6.43 6.43 0 0 0 2.32-.52c3.54-1.57 12.06-10.15 13.92-14-1.33-.7-2.84-1.68-2.84-3.36a2.51 2.51 0 0 1 2.55-2.44 2.83 2.83 0 0 1 2.84 2.78 5.56 5.56 0 0 1-.52 2.15l.17.06c2 .87 3.94 1.91 3.94 4.41s-1.16 4.58-1.62 6.9a2 2 0 0 0-.06.58c.08 2.16 2.69 3.44 4.61 3.44zm-8.41-16.18l.06-.06a4.4 4.4 0 0 0 .17-1.22c0-.46-.23-1.16-.87-1.16a.94.94 0 0 0-.93.87c0 .7 1.05 1.22 1.57 1.57z"/><path class="a" d="M266.57 124.56c-1.68 0-3.65-.58-3.65-2.55a4 4 0 0 1 1.62-3c2.2-1.91 6.38-2.49 9.22-2.9-1.39-3-5.57-5-7.66-7.42a89.53 89.53 0 0 1-10.79 9.11c-3.19 2.26-5.1 3.36-9.16 3.36a.65.65 0 0 1-.7-.58.64.64 0 0 1 .64-.64 13.05 13.05 0 0 0 6.32-2c4.76-2.73 8.87-6.73 12.88-10.44a3.17 3.17 0 0 1-.52-1.62c0-2.26 2-5.39 4.47-5.39a1.75 1.75 0 0 1 1.8 1.86c0 1.91-2.26 4.12-3.65 5.22-.06 0-.06.06-.12.06 2.09 2 4.29 3.65 6.44 5.57a6.77 6.77 0 0 1 1.86 2.61c.58-.06 1.86-.12 2.2-.12a.64.64 0 0 1 0 1.28c-.23 0-1 0-1.86.06.4 4.4-5.57 7.53-9.34 7.53zm7.48-6.9v-.35c-2.44.23-9.63 1.22-9.63 4.52 0 1.16 1.16 1.51 2.15 1.51 2.95 0 7.48-2.23 7.48-5.68zm-7.48-11.89a2.18 2.18 0 0 0 .06.64c.7-.64 2.78-2.61 2.78-3.6a.49.49 0 0 0-.52-.52c-1.22 0-2.32 2.49-2.32 3.48z"/><path class="a" d="M302.35 116.67c0 1-1.62 1-2.32 1a8.41 8.41 0 0 1-3-.29 8.56 8.56 0 0 1-7.6 5.28c-2.55 0-3.71-2.2-3.71-4.47a9 9 0 0 1 .81-3.48 18.19 18.19 0 0 1-8.87 2.26.6.6 0 0 1-.58-.64.58.58 0 0 1 .64-.64c3.65 0 7.08-1.57 10.21-3.36 1.1-1.62 3.42-4 5.51-4 1.68 0 2.38 1.62 2.38 3.07a4.37 4.37 0 0 1 1.68 3.6 7.15 7.15 0 0 1-.12 1.1 7.88 7.88 0 0 0 2.61.35c.46 0 .93-.12 1.39-.12.22.05.97.11.97.34zm-6.73 0c-1.1-.35-3.48-2.55-3.48-3.83a2 2 0 0 1 2.2-1.8c-.17-.35-.41-.7-.87-.7a3.67 3.67 0 0 0-1.33.46 10.15 10.15 0 0 0-4.52 7.83 2.14 2.14 0 0 0 2.26 2.38 6.36 6.36 0 0 0 5.74-4.34zm.23-1.57c0-.81-.7-2.61-1.68-2.61-.29 0-.41.29-.41.52 0 1 1.51 1.68 2.09 2.26zM305.48 125.2a.43.43 0 0 1-.35-.41c.06-.7.75-1.57 1-2.38.35-1.28-.12-3.54 1.39-3.54.75 0 1 .41 1 1.1a7.62 7.62 0 0 1-2.2 4.7 1.58 1.58 0 0 1-.84.53z"/></svg>