<svg xmlns="http://www.w3.org/2000/svg" viewBox="0 0 77.99 96.82"><defs><style>.a{fill:#fff}</style></defs><title>p1_s18</title><path class="a" d="M75.43 96.82H7.88a2.56 2.56 0 0 1-2.56-2.56V2.56A2.56 2.56 0 0 1 7.88 0h67.55a2.56 2.56 0 0 1 2.56 2.56v91.71a2.56 2.56 0 0 1-2.56 2.55zm-65-5.11h62.44V5.11H10.43z"/><path class="a" d="M24.28 30.7a7.61 7.61 0 0 1-7.6-7.6 7.61 7.61 0 0 1 7.6-7.6 7.61 7.61 0 0 1 7.6 7.6 7.61 7.61 0 0 1-7.6 7.6zm0-10.09a2.49 2.49 0 0 0-2.49 2.49 2.49 2.49 0 0 0 2.49 2.49 2.49 2.49 0 0 0 2.49-2.49 2.49 2.49 0 0 0-2.49-2.49z"/><path class="a" d="M19.24 25.66H2.56A2.56 2.56 0 0 1 0 23.1a2.56 2.56 0 0 1 2.56-2.56h16.68a2.56 2.56 0 0 1 2.56 2.56 2.56 2.56 0 0 1-2.56 2.56zm5.04 30.36a7.61 7.61 0 0 1-7.6-7.6 7.61 7.61 0 0 1 7.6-7.6 7.61 7.61 0 0 1 7.6 7.6 7.61 7.61 0 0 1-7.6 7.6zm0-10.09a2.49 2.49 0 0 0-2.49 2.49 2.49 2.49 0 0 0 2.49 2.49 2.49 2.49 0 0 0 2.49-2.49 2.49 2.49 0 0 0-2.49-2.5z"/><path class="a" d="M19.24 50.97H2.56A2.56 2.56 0 0 1 0 48.41a2.56 2.56 0 0 1 2.56-2.56h16.68a2.56 2.56 0 0 1 2.56 2.56 2.56 2.56 0 0 1-2.56 2.56zm5.04 30.35a7.61 7.61 0 0 1-7.6-7.6 7.61 7.61 0 0 1 7.6-7.6 7.61 7.61 0 0 1 7.6 7.6 7.61 7.61 0 0 1-7.6 7.6zm0-10.09a2.49 2.49 0 0 0-2.49 2.49 2.49 2.49 0 0 0 2.49 2.49 2.49 2.49 0 0 0 2.49-2.49 2.49 2.49 0 0 0-2.49-2.49z"/><path class="a" d="M19.24 76.28H2.56A2.56 2.56 0 0 1 0 73.72a2.56 2.56 0 0 1 2.56-2.56h16.68a2.56 2.56 0 0 1 2.56 2.56 2.56 2.56 0 0 1-2.56 2.56z"/></svg>