<svg xmlns="http://www.w3.org/2000/svg" viewBox="0 0 50.37 50.37"><defs><style>.a{fill:#3a1a0d}.b{fill:#fff}</style></defs><title>p1_s2</title><path class="a" d="M0 0h50.37v50.37H0z"/><path class="b" d="M36.93 35.78H13.44l.63-1c2.48-4 2.51-14 2.51-14.15a8.49 8.49 0 0 1 8.06-8.47V9.89a.67.67 0 0 1 1.34 0v2.29a8.49 8.49 0 0 1 7.82 8.45c0 .1 0 10.12 2.51 14.15zm-21.19-1.34h18.88c-2.15-4.73-2.17-13.44-2.17-13.83a7.15 7.15 0 0 0-7.15-7.14h-.24a7.15 7.15 0 0 0-7.15 7.14c0 .4 0 9.1-2.17 13.83m9.45 6.74a3.63 3.63 0 0 1-3.63-3.62.67.67 0 1 1 1.34 0 2.29 2.29 0 0 0 4.58 0 .67.67 0 0 1 1.34 0 3.63 3.63 0 0 1-3.63 3.62"/></svg>