<svg xmlns="http://www.w3.org/2000/svg" viewBox="0 0 710.97 50.9"><title>p10_s17</title><path d="M13.5 22.57c3.7-6.5 7.06-12.54 8.68-16 .22-.39.67-1.74 1.9-1.74a.86.86 0 0 1 .84.67 2.66 2.66 0 0 1-.28.78c-.45 1.12-4.76 9.3-5.43 10.42-3.14 5.43-5.77 10.14-7.84 13.38-.9 1.34-2.46 3.86-4.14 3.86-3 0-3.53-7-6.1-20.33A65 65 0 0 1 .01 6.72c0-1-.11-2.3 1.12-2.3.78 0 1 1.9 1.23 3.08.28 1.9 3.53 23.86 5.32 23.86.17 0 .34-.11.56-.34 2.01-2.29 3.02-4.58 5.26-8.45zM38.95 32.65c-5 0-5.77-4.93-7-4.93-1.4 0-3 6-7.84 6a2.87 2.87 0 0 1-3.14-3.08c0-3.36 4.59-7.9 8-7.9a3.69 3.69 0 0 1 3.42 1.79c1.62-.17 1.74 1.51 2.07 2.63a9.31 9.31 0 0 0 .67 1.74 4.39 4.39 0 0 0 3.82 2.58.61.61 0 0 1 .62.56.62.62 0 0 1-.62.61zm-14.45-.5c1.57 0 3.3-2.18 4.14-3.36.62-.9 1.12-2 1.79-2.86-.45-.73-.9-1.4-1.85-1.4-2.3 0-5.66 3.75-5.66 6a1.49 1.49 0 0 0 1.61 1.62z" fill="#fff"/><path d="M78.95 24.81c1.18 1.85 1.18 5.54 3.3 6.44a4.37 4.37 0 0 0 1.18.22c.28.06.56.22.56.56a.61.61 0 0 1-.56.62c-5.66 0-4.54-6.66-6.44-6.66-.5 0-.9.5-1.18.9a43.08 43.08 0 0 1-4.09 5.21 2.39 2.39 0 0 1-1.51.56 1.85 1.85 0 0 1-1.78-1.35c-.67-1.68-1.06-3.42-1.74-5-.17-.39-.39-1-.9-1-1.57 0-4.76 7.56-7.39 7.56a1.84 1.84 0 0 1-1.68-2c0-1.9 1-4 1-5.88a1.12 1.12 0 0 0-1.12-1.23c-3.42 0-10 9-16.24 9-.56 0-2.13.34-2.13-.62a.61.61 0 0 1 .62-.56 14.36 14.36 0 0 0 8.74-3.36c2-1.46 5.49-4.87 7.5-5.71a4.59 4.59 0 0 1 1.68-.39 2.63 2.63 0 0 1 2.63 2.91c0 1.74-1.12 3.81-1.12 5.49 0 .28 0 .67.34.67 1.29 0 4.93-7.84 7.62-7.84 3 0 2.52 7.22 4.26 7.22.9 0 3.7-4.42 4.31-5.21a3.25 3.25 0 0 1 2.41-1.46 2 2 0 0 1 1.73.91z" fill="#fff"/><path d="M106.46 27.22a21.78 21.78 0 0 0 3.3.17.62.62 0 0 1 .62.62.62.62 0 0 1-.62.62 21.66 21.66 0 0 1-3.64-.22c-1.12 3-4.42 5.66-7.45 5.66-2.35 0-3.58-2-3.58-4.14a7.48 7.48 0 0 1 .17-1.62c-3.53 2.41-6.89 4.31-11.26 4.31-.5 0-1.34.11-1.34-.62a.61.61 0 0 1 .62-.56 21.78 21.78 0 0 0 2.67-.19 17.71 17.71 0 0 0 4.76-1.62A17.45 17.45 0 0 0 94.95 27a10.08 10.08 0 0 0 1.12-1.06l.5-.78a14 14 0 0 1 1.51-2.07c1-1.23 2.86-3 4.54-3s2.24 1.4 2.24 2.8a4.15 4.15 0 0 1 1.66 3.42 4.81 4.81 0 0 1-.06.91zm-2 .73c-1.68-.56-3.14-1.62-3.14-3.64 0-1.18.9-1.79 2.18-1.9a1.14 1.14 0 0 0-1-.62 2.23 2.23 0 0 0-1.4.5c-2.13 1.51-4.26 5.15-4.26 7.78a2.29 2.29 0 0 0 2.35 2.46c1.61.01 4.3-1.89 5.25-4.58zm.34-1.18a3.69 3.69 0 0 0 .06-.78c0-1.18-.62-2.13-1.57-2.13-.22 0-.34.22-.34.45a2.52 2.52 0 0 0 1.83 2.46z" fill="#fff"/><path d="M130.54 24.98a5 5 0 0 1 2 3.81c0 5.82-7.62 7.45-12.15 7.45-.45 0-1.57-.22-1.57-.84s.9-.73 1.34-.73a19.35 19.35 0 0 0 4.76-.45c2.24-.56 3.64-1.12 5-3a4.07 4.07 0 0 0 .73-2.41c0-3-5.49-6.1-7.45-8.18-3.81 3.53-7.9 8-13.5 8a.62.62 0 0 1-.62-.62.62.62 0 0 1 .62-.62 8 8 0 0 0 2.58-.39c3.7-1.29 7.28-4.76 10.08-7.45a4 4 0 0 1-.45-1.79c0-2.07 2.07-5 4.31-5a1.69 1.69 0 0 1 1.73 1.75c0 1.85-2.18 4-3.58 5-.06 0-.06.06-.11.06 1.97 1.94 4.21 3.62 6.28 5.41zm-6.94-7.17v.17l.06.39c.67-.62 2.69-2.52 2.69-3.47a.45.45 0 0 0-.5-.5c-1.14 0-2.26 2.46-2.26 3.41zM160.89 22.12c0 .22-.17.28-.34.28-.62 0-.9-.84-2.13-.84-2.46 0-4.54 4.26-4.54 6.38s1.51 3.3 3.53 3.53c.34.06.56.17.56.56a.58.58 0 0 1-.56.62c-2.63 0-5.38-1.85-5.38-4.7s2.64-7.64 5.84-7.64c.95 0 3.02.69 3.02 1.81z" fill="#fff"/><path d="M185.3 27.22a21.78 21.78 0 0 0 3.3.17.62.62 0 0 1 .62.62.62.62 0 0 1-.62.62 21.66 21.66 0 0 1-3.64-.22c-1.12 3-4.42 5.66-7.45 5.66-2.35 0-3.58-2-3.58-4.14a7.61 7.61 0 0 1 .5-2.69c-5 2.18-11.7 5.43-17 5.43a.58.58 0 0 1-.56-.62.6.6 0 0 1 .56-.56 17.76 17.76 0 0 0 4.82-.84 65.16 65.16 0 0 0 13.09-5.34 22 22 0 0 1 1.61-2.23c1-1.23 2.86-3 4.54-3s2.24 1.4 2.24 2.8a4.15 4.15 0 0 1 1.63 3.43 4.81 4.81 0 0 1-.06.91zm-2 .73c-1.68-.56-3.14-1.62-3.14-3.64 0-1.18.9-1.79 2.18-1.9a1.14 1.14 0 0 0-1-.62 2.23 2.23 0 0 0-1.4.5c-2.13 1.51-4.26 5.15-4.26 7.78a2.29 2.29 0 0 0 2.35 2.46c1.62.01 4.31-1.89 5.26-4.58zm.34-1.18c0-.22.06-.5.06-.78 0-1.18-.62-2.13-1.57-2.13-.22 0-.34.22-.34.45a2.52 2.52 0 0 0 1.84 2.46z" fill="#fff"/><path d="M212.69 26.31c.73 2.35 1.06 5.21 4.2 5.21a.61.61 0 0 1 .62.56.62.62 0 0 1-.62.62c-6.16 0-5.21-7.39-7.06-7.39-1.57 0-4.76 7.56-7.39 7.56-1.18 0-1.62-1.06-1.62-2.07 0-1.85 1-3.86 1-5.54 0-.73-.17-1.46-1-1.46-2.18 0-6.33 4.87-12.21 4.87a.62.62 0 0 1-.62-.62.62.62 0 0 1 .62-.62 12 12 0 0 0 4.34-1.12c2.18-1.06 5.71-4.26 7.9-4.26a2.63 2.63 0 0 1 2.63 2.91c0 1.74-1.12 3.81-1.12 5.49 0 .28 0 .67.34.67 1.23 0 5-7.9 7.62-7.9 1.47-.03 2.03 1.93 2.37 3.09z" fill="#fff"/><path d="M236.88 17.48c0 1.4-3.92 1.46-4.87 1.51v.06a2.33 2.33 0 0 1-.22.56 20.54 20.54 0 0 0-1.84 7.22 4.29 4.29 0 0 0 1.33 3.48 5.49 5.49 0 0 0 3.08 1.18c.28.06.62.22.62.56a.62.62 0 0 1-.62.62 5.45 5.45 0 0 1-5.71-5.66 18.41 18.41 0 0 1 .45-3.53c-2 3.53-8 9.18-12.32 9.18a.62.62 0 0 1-.62-.62c0-.34.34-.5.62-.56a12.26 12.26 0 0 0 5.66-2.8 24.84 24.84 0 0 0 7.22-9.58c-.9.06-1.74.11-2.63.11-.5 0-1.74-.17-1.74-.9 0-1.12 4.14-1 5.1-1 .28-.73 1.23-3.64 2.18-3.64.73 0 .84 1.23.84 1.74a8 8 0 0 1-.62 1.85 20.25 20.25 0 0 1 3.19 0c.23-.01.9-.18.9.22z" fill="#fff"/><path d="M249.14 22.31a1.94 1.94 0 0 1 .39 1.46c0 2.13.5 4.87 2 6.5 1 1.06 1.46 1.06 2.8 1.23.28.06.62.22.62.56a.62.62 0 0 1-.62.62c-4 0-6-4.14-6.27-7.67a20 20 0 0 1-7.39 6.27 13.52 13.52 0 0 1-6.27 1.4.62.62 0 0 1-.62-.62.61.61 0 0 1 .62-.56 11.27 11.27 0 0 0 5.55-1.37 17.23 17.23 0 0 0 5.94-5.43c.5-.73 1.51-2.74 2.52-2.74a1 1 0 0 1 .73.35zm-1.06-8.74c0-.56.5-.78 1-.78.9 0 1.34 1.18 1.34 2 0 .45-.22.84-.67.84-.8-.06-1.67-1.32-1.67-2.07z" fill="#fff"/><path d="M283.95 26.31c.67 2.35 1.18 5.21 4.2 5.21a.61.61 0 0 1 .62.56.62.62 0 0 1-.62.62c-6.1 0-5.26-7.39-7.06-7.39-1.57 0-4.82 7.56-7.39 7.56-1.18 0-1.62-1.06-1.62-2.07 0-1.85 1-3.86 1-5.54 0-.73-.11-1.57-1-1.57-3.42 0-10.08 9-16.35 9-.56 0-2.13.28-2.13-.62a.61.61 0 0 1 .62-.56 14.36 14.36 0 0 0 8.73-3.39c2-1.46 5.49-4.87 7.5-5.71a4.59 4.59 0 0 1 1.68-.39 2.63 2.63 0 0 1 2.63 2.91c0 1.79-1.12 3.81-1.12 5.49 0 .28 0 .67.39.67 1.23 0 4.93-7.9 7.62-7.9 1.37 0 1.99 1.96 2.3 3.12z" fill="#fff"/><path d="M306.6 31.87c2.74-1.85 3.75-4.59 5.15-7.45.39-.78 1.12-1.85 2.07-1.85 1.74 0 1.23 3.14 1.4 4.31a5.41 5.41 0 0 0 4.48 4.48c.45.11 1.51 0 1.51.67a.62.62 0 0 1-.62.62 7.62 7.62 0 0 1-7.67-6.5 8.89 8.89 0 0 1-1 2.07c-1.62 2.74-4 5.88-7.5 5.88-2.91 0-4.31-2.46-4.31-5.1a9.43 9.43 0 0 1 .34-2.52 20.45 20.45 0 0 1-6.16 4.76 13.52 13.52 0 0 1-6.27 1.4.58.58 0 0 1-.56-.62.6.6 0 0 1 .56-.56 11.49 11.49 0 0 0 5.6-1.34 20.65 20.65 0 0 0 6.22-5.43c.5-.78 1.74-2.86 2.86-2.86a1.18 1.18 0 0 1 1.12 1.23c0 1.51-2.07 3.64-2.07 6.38a2.76 2.76 0 0 0 2.91 3 3.39 3.39 0 0 0 1.94-.57z" fill="#fff"/><path d="M339.64 27.22a6.73 6.73 0 0 0 .73 1.74 4.31 4.31 0 0 0 3.75 2.52.61.61 0 0 1 .62.56.62.62 0 0 1-.62.62c-5 0-5.71-4.93-7-4.93s-3 6-7.9 6a2.78 2.78 0 0 1-3-3v-.34c-2 1.46-3.19 2.18-5.71 2.18a.56.56 0 0 1-.62-.62.6.6 0 0 1 .56-.56c2.52 0 4.65-1.79 6.5-3.36 1.34-2.41 4.26-5.32 7.22-5.32a4 4 0 0 1 3.47 1.79c1.61-.08 1.66 1.6 2 2.72zm-4-1.29c-.45-.73-1-1.4-1.85-1.4-2.35 0-5.71 3.75-5.71 6a1.53 1.53 0 0 0 1.62 1.62c2.55 0 4.62-4.48 5.96-6.22z" fill="#fff"/><path d="M377.61 23.8c0 .22-.22.28-.39.28a9.81 9.81 0 0 1-1.85-.28 13.17 13.17 0 0 0-2.13-.11c-6 0-10 3.42-13.33 8.06-.39.56-1.29 1.74-2.07 1.74-2 0-1.4-6.44-1.62-7.73-.06-.28-.17-.62-.5-.62-1.18 0-6.38 7.5-11.42 7.5-.39 0-.9-.06-.9-.62 0-.34.34-.5.62-.56a7.67 7.67 0 0 0 2.24-.5c2.86-1.29 5.71-4.42 8-6.66a3.15 3.15 0 0 1 2-1.18c1.68 0 1.62 2.63 1.62 3.75s.06 2.41.06 3.64c0 .28 0 .78.39.78.22 0 1.46-1.57 1.62-1.74a27.69 27.69 0 0 1 3-3.17 17.18 17.18 0 0 1 10.86-4c.94.02 3.8.08 3.8 1.42zM405.95 22.12c0 .22-.17.28-.34.28-.62 0-.9-.84-2.13-.84-2.46 0-4.54 4.26-4.54 6.38s1.51 3.3 3.53 3.53c.34.06.56.17.56.56a.58.58 0 0 1-.56.62c-2.63 0-5.38-1.85-5.38-4.7s2.64-7.64 5.86-7.64c.92 0 3 .69 3 1.81z" fill="#fff"/><path d="M430.36 27.22a21.78 21.78 0 0 0 3.3.17.62.62 0 0 1 .62.62.62.62 0 0 1-.62.62 21.65 21.65 0 0 1-3.64-.22c-1.12 3-4.42 5.66-7.45 5.66-2.35 0-3.58-2-3.58-4.14a7.61 7.61 0 0 1 .5-2.69c-5 2.18-11.7 5.43-17 5.43a.58.58 0 0 1-.56-.62.6.6 0 0 1 .56-.56 17.76 17.76 0 0 0 4.82-.84 65.15 65.15 0 0 0 13.08-5.34 22 22 0 0 1 1.63-2.18c1-1.23 2.86-3 4.54-3s2.24 1.4 2.24 2.8a4.15 4.15 0 0 1 1.61 3.38 4.85 4.85 0 0 1-.05.91zm-2 .73c-1.68-.56-3.14-1.62-3.14-3.64 0-1.18.9-1.79 2.18-1.9a1.14 1.14 0 0 0-1-.62 2.23 2.23 0 0 0-1.4.5c-2.13 1.51-4.26 5.15-4.26 7.78a2.29 2.29 0 0 0 2.35 2.46c1.61.01 4.3-1.89 5.25-4.58zm.34-1.18c0-.22.05-.5.05-.78 0-1.18-.62-2.13-1.57-2.13-.22 0-.34.22-.34.45a2.52 2.52 0 0 0 1.84 2.46z" fill="#fff"/><path d="M475.05 31.2c0 1-2.13 1.46-2.91 1.46a3.38 3.38 0 0 1-3.08-1.29 11.31 11.31 0 0 1-1.68-3.64c-.17-.5-.28-1.29-.73-1.57a.63.63 0 0 0-.45-.17c-.5 0-.9.5-1.18.9a43.08 43.08 0 0 1-4.07 5.2 2.39 2.39 0 0 1-1.51.56 1.85 1.85 0 0 1-1.81-1.34c-.62-1.62-1-3.42-1.74-5-.17-.39-.45-1-1-1-1.46 0-4.7 7.56-7.34 7.56-1.18 0-1.62-1.06-1.62-2.07 0-1.79 1-3.81 1-5.32 0-.9-.06-1.79-1.23-1.79-.67 0-2.74 1.34-3.36 1.79a25.86 25.86 0 0 1-4.76 2.52 11.54 11.54 0 0 1-3.92.67.63.63 0 0 1-.67-.62.62.62 0 0 1 .62-.62 11.24 11.24 0 0 0 4.42-1.12c2.29-1.06 5.54-4.26 8-4.26a2.58 2.58 0 0 1 2.58 2.86c0 2-1.06 3.86-1.06 5.82 0 .22.11.39.34.39 1.23 0 4.93-7.84 7.62-7.84 2.91 0 2.46 7.22 4.26 7.22.9 0 3.7-4.42 4.31-5.21a3.08 3.08 0 0 1 2.35-1.46 2.14 2.14 0 0 1 1.79 1c1.46 2.3.56 6.27 4 6.55h.34c.78 0 1.46-.45 2.18-.45.14-.01.31.04.31.27zM509.76 28.62h-1.46a12.84 12.84 0 0 1-2.91-.28c-1.06 2.91-3.86 5.77-7.34 5.77-2.41 0-3.53-2.18-3.53-4.31a10.93 10.93 0 0 1 2.91-6.72c1-1.23 2.86-3 4.54-3s2.3 1.57 2.3 3a2.85 2.85 0 0 1 1.62 2.8 8.27 8.27 0 0 1-.11 1.18 7.57 7.57 0 0 0 2 .28c.78.06 1.34.06 2 .06.28 0 .78.17.78.5a.84.84 0 0 1-.8.72zm-5.81-.73c-1.85-.56-3.19-2-3.19-3.47 0-1.18 1-1.74 2.07-1.74a.91.91 0 0 0-.84-.62 2.74 2.74 0 0 0-1.29.45c-2.41 1.29-4.37 4.93-4.37 7.62a2.08 2.08 0 0 0 2.24 2.3c2.63 0 4.7-2.19 5.38-4.54zm.34-2.13a1.7 1.7 0 0 0-1.62-1.62c-.28 0-.39.34-.39.56a2.26 2.26 0 0 0 2 1.85 4.6 4.6 0 0 0 0-.79zM544.88 15.31c1-3.81 4.26-15.29 9-15.29a1.83 1.83 0 0 1 1.85 2.07 15.6 15.6 0 0 1-1.62 5.66c-1 2.13-2.24 4.09-3.36 6.16-1.51 2.74-2.86 5.49-4.54 8.12-.28.45-.56.9-.9 1.34.34 2.18.5 4.31 2.18 6a8 8 0 0 0 5.6 2.13.58.58 0 0 1 .62.56.62.62 0 0 1-.62.62c-5 0-8-2.8-9-7.56-2.18 3-5.77 8.29-9.91 8.29a3.41 3.41 0 0 1-3.58-3.47c0-3.36 4.2-6.83 7.5-6.83a4 4 0 0 1 3.75 2.69c.73-1 1.34-1.9 2-2.86a31.61 31.61 0 0 1 1.03-7.63zm-4.37 12.15l.06-.06a2.61 2.61 0 0 0-2.69-2.46c-2.3 0-5.38 2.35-5.38 4.82a1.73 1.73 0 0 0 1.85 1.85c2.6-.02 4.6-2.37 6.16-4.17zm7.67-11.7c1-1.79 2-3.64 2.91-5.49s2.8-4.76 2.8-6.72c0-.56-.22-1.12-.9-1.12-2.52 0-5.38 9.07-6 11.14a39.12 39.12 0 0 0-1.68 7.17z" fill="#fff"/><path d="M573.66 22.57a2.85 2.85 0 0 1-.34 1.18 4.28 4.28 0 0 1-1.4 1.23c-.73.45-1.51.78-2.24 1.18-1.34.73-2.58 1.51-3.92 2.18.22 2.13 1.63 2.86 3.58 3.14.28.06.62.22.62.56a.62.62 0 0 1-.62.62 5.41 5.41 0 0 1-5.21-3.47c-3.53 1.74-7.06 3.47-11.09 3.47a.63.63 0 0 1-.67-.62.61.61 0 0 1 .62-.56 16.25 16.25 0 0 0 4.93-.84 50.28 50.28 0 0 0 6.1-2.86c0-3.3 3-7.67 6.61-7.67 1.4 0 3.03.84 3.03 2.46zm-2.41.84a.93.93 0 0 0 .28-.67c0-.67-.67-.9-1.23-.9-2.41 0-4 2.91-4.42 4.93a36.44 36.44 0 0 0 5.37-3.36z" fill="#fff"/><path d="M594.6 35.9c-1.62 0-3.58-.56-3.58-2.46a4 4 0 0 1 1.62-2.86c2.13-1.85 6.16-2.46 8.9-2.86-1.34-2.86-5.38-4.76-7.39-7.11l-.06.06c-3 2.69-6.16 5.54-9.69 7.5-4.65 2.58-9.8 4.48-15.18 4.48a.57.57 0 0 1-.56-.62.6.6 0 0 1 .56-.56 19.11 19.11 0 0 0 5-.62 57 57 0 0 0 6.73-2.54 43.44 43.44 0 0 0 10-6.61l2.35-2.24a3.82 3.82 0 0 1-.45-1.74c0-2.07 2.07-5 4.31-5a1.69 1.69 0 0 1 1.79 1.79c0 2.35-2.3 3.64-3.64 5.1 2 1.9 4.14 3.58 6.22 5.38a6.15 6.15 0 0 1 1.79 2.52c.56-.06 1.79-.11 2.13-.11a.62.62 0 0 1 .62.62.62.62 0 0 1-.62.62c-.22 0-1.12 0-1.9.06.57 4.4-5.31 7.2-8.95 7.2zm7.22-6.72v-.34c-2.35.22-9.3 1.23-9.3 4.42 0 1.12 1.12 1.46 2.07 1.46 2.87 0 7.29-2.07 7.24-5.54zm-7.22-11.42a2.11 2.11 0 0 0 .06.62c.67-.62 2.69-2.52 2.69-3.47a.47.47 0 0 0-.5-.5c-1.18-.01-2.25 2.39-2.25 3.35z" fill="#fff"/><path d="M624.23 27.22a6.73 6.73 0 0 0 .73 1.74 4.31 4.31 0 0 0 3.75 2.52.61.61 0 0 1 .62.56.62.62 0 0 1-.62.62c-5 0-5.71-4.93-7-4.93s-3 6-7.84 6a2.77 2.77 0 0 1-3.08-3 6.35 6.35 0 0 1 1.29-3.58 14.73 14.73 0 0 1-6.78 1.4.58.58 0 0 1-.56-.62.58.58 0 0 1 .56-.62 17.89 17.89 0 0 0 7.73-2l1.62-.84a5.18 5.18 0 0 0 .67-.5 5.89 5.89 0 0 1 3.47-1.18 3.86 3.86 0 0 1 3.42 1.79c1.57-.16 1.74 1.52 2.02 2.64zm-4-1.29c-.45-.73-1-1.4-1.85-1.4-2.35 0-5.66 3.75-5.66 6a1.48 1.48 0 0 0 1.57 1.62c2.54 0 4.66-4.48 5.96-6.22z" fill="#fff"/><path d="M656.43 9.31c0 5.38-9.63 12.43-13.44 15.68l-.73.62a12.9 12.9 0 0 1-.45 1.57 15.33 15.33 0 0 0 4.26 3.13 13.29 13.29 0 0 0 5.1 1.18.61.61 0 0 1 .62.56.62.62 0 0 1-.62.62c-4.14 0-6.55-1.29-9.8-3.75l-.34 1.23c2.91 3.81 7.39 9.8 7.39 14.73 0 3-1.85 6-5 6-4.26 0-5.6-4.76-5.6-8.23a55.05 55.05 0 0 1 1.57-12 10.39 10.39 0 0 1-1.23-1.51c-3.14 1.79-5.71 3.53-9.52 3.53a.62.62 0 0 1-.62-.62.61.61 0 0 1 .62-.56c3 0 6.33-2 8.74-3.64a2.54 2.54 0 0 1-.28-1.12 1.28 1.28 0 0 1 1.4-1.34 3.66 3.66 0 0 1 1.34.34l.11.06 1-.84c1.74-5.71 4.7-13.1 9.41-17.19a5.32 5.32 0 0 1 3.3-1.4 2.72 2.72 0 0 1 2.77 2.95zm-9.74 35.34c0-4.37-3.47-9.24-6.1-12.54a1.61 1.61 0 0 1-.11.5 45.77 45.77 0 0 0-1.12 9.13c0 2.52.84 7.39 4.2 7.39 2.28.04 3.12-2.53 3.12-4.44zm-7.22-16.58a3 3 0 0 0 .39.5l.17-.73-.17-.11zm12.88-14.5c.78-1 1.9-2.35 1.9-3.7 0-.62-.22-1.23-.9-1.23-4.09 0-9.18 10.86-10.3 14.28a58.78 58.78 0 0 0 9.29-9.31z" fill="#fff"/><path d="M665.89 22.31a1.93 1.93 0 0 1 .39 1.46c0 2.13.5 4.87 2 6.5 1 1.06 1.46 1.06 2.8 1.23.28.06.62.22.62.56a.62.62 0 0 1-.62.62c-4 0-6-4.14-6.27-7.67a20 20 0 0 1-7.39 6.27 13.52 13.52 0 0 1-6.27 1.4.62.62 0 0 1-.62-.62.61.61 0 0 1 .62-.56 11.27 11.27 0 0 0 5.54-1.34 17.23 17.23 0 0 0 5.94-5.43c.5-.73 1.51-2.74 2.52-2.74a1 1 0 0 1 .74.32zm-1.06-8.74c0-.56.5-.78 1-.78.9 0 1.34 1.18 1.34 2 0 .45-.22.84-.67.84-.78-.06-1.67-1.32-1.67-2.07z" fill="#fff"/><path d="M698.76 28.31c0 1.12-2.13 1-2.86 1a6.05 6.05 0 0 1-2.24-.34 8.4 8.4 0 0 1-7.39 5.15c-2.35 0-3.53-2.18-3.53-4.31a6.44 6.44 0 0 1 .21-1.5c-3.58 2.46-6.89 4.31-11.31 4.31-.5 0-1.29.11-1.29-.62a.61.61 0 0 1 .62-.56 21.76 21.76 0 0 0 2.69-.22 21.63 21.63 0 0 0 9-4.26l1.18-1.06c1.06-2.13 3.86-5.71 6.44-5.71 1.57 0 2.24 1.62 2.24 3a4.15 4.15 0 0 1 1.62 3.47 6.89 6.89 0 0 1-.11 1.06 7.91 7.91 0 0 0 2.58.28c.25.06 2.15-.16 2.15.31zm-6.5 0c-1.18-.62-3.36-2.24-3.36-3.7 0-1.18 1.12-1.74 2.13-1.79a.91.91 0 0 0-.84-.62 3 3 0 0 0-1.29.45 9.85 9.85 0 0 0-4.37 7.5 2.1 2.1 0 0 0 2.24 2.3 6 6 0 0 0 5.49-4.14zm.22-1.51c0-.78-.67-2.52-1.62-2.52-.22 0-.39.28-.39.5 0 1 1.46 1.62 2 2.18zM704.3 30.24a1.44 1.44 0 0 1 1.51 1.34 1.37 1.37 0 0 1-1.18 1.29 1.73 1.73 0 0 1-1.62-1.51c0-.5.17-.84.56-1a1.55 1.55 0 0 1 .73-.12zm1.4-5.66c-.28 0-.39-.22-.39-.5a23.27 23.27 0 0 1 .78-4.31c.45-2 .62-3.58 1-5.54.45-2.46 1.18-9 2.86-9a1.07 1.07 0 0 1 1 1.18 3.36 3.36 0 0 1-.17 1.12 143.1 143.1 0 0 1-4.24 15.78c-.39.94-.5 1.28-.84 1.28z" fill="#fff"/></svg>