<svg xmlns="http://www.w3.org/2000/svg" viewBox="0 0 35.51 48.59"><defs><style>.a{fill:#fff}</style></defs><title>p10_s8</title><path class="a" d="M28.53 32.17a6.12 6.12 0 0 1-6.14-5.52 12.17 12.17 0 0 0 4.37-6.26c0 .26.06.52.08.79a1.1 1.1 0 0 0 .77 1 1.09 1.09 0 0 0 .32 0 1.1 1.1 0 0 0 .87-.42 13.58 13.58 0 0 0 2.73-8.77 13.65 13.65 0 0 0-3.17-8.48A9.8 9.8 0 0 0 21 .9h-.63a10 10 0 0 0-4.53-.91 10.86 10.86 0 0 0-8.29 4.5 15.67 15.67 0 0 0-3.07 10 16.09 16.09 0 0 0 .15 1.78 16.23 16.23 0 0 0 1.31 4.54 1.1 1.1 0 0 0 .93.64 1.1 1.1 0 0 0 1-.52c.13-.22.31-.51.51-.77l.22-.29a13.45 13.45 0 0 0 2.82 5.22 10 10 0 0 0 1.7 1.51 6.11 6.11 0 0 1-6.14 5.51 7.25 7.25 0 0 0-7 7.23v8.08a1.1 1.1 0 0 0 1.1 1.1H34.4a1.1 1.1 0 0 0 1.1-1.1v-8.08a7.25 7.25 0 0 0-7-7.23m-21.27-14a14.4 14.4 0 0 1-.39-2.12 13.45 13.45 0 0 1-.13-1.54 13.46 13.46 0 0 1 2.61-8.64 8.71 8.71 0 0 1 6.62-3.64A8.07 8.07 0 0 1 19.7 3a1.12 1.12 0 0 0 .53.11h.76a7.64 7.64 0 0 1 5.7 2.88 11.46 11.46 0 0 1 2.64 7.12 12 12 0 0 1-.86 4.93 12.63 12.63 0 0 0-.66-1.7 11.91 11.91 0 0 0-6.11-6 1.1 1.1 0 0 0-.86 0 1.09 1.09 0 0 0-.59.63 10.37 10.37 0 0 1-.67 1.46 4.34 4.34 0 0 1-4 2.12h-.74a10.51 10.51 0 0 0-3.34.65 10.66 10.66 0 0 0-2.93 1.68s-1 .88-1.34 1.26m3.19.09a8.4 8.4 0 0 1 1.85-1 8.33 8.33 0 0 1 2.64-.51h.81a6.5 6.5 0 0 0 5.74-3.25q.18-.32.34-.65a9.74 9.74 0 0 1 3.5 3.49 1.16 1.16 0 0 0 0 .19 12.44 12.44 0 0 1-2.58 6.84 6.5 6.5 0 0 1-5 2.63c-3.38 0-6.38-3.23-7.31-7.76m4.75 9.51a7.67 7.67 0 0 0 2.56.44 7.68 7.68 0 0 0 2.57-.45 8.27 8.27 0 0 0 4.18 5.65 7 7 0 0 1-6.75 5.3 7 7 0 0 1-6.75-5.3 8.27 8.27 0 0 0 4.18-5.65m18.13 18.66H2.2v-7a5.05 5.05 0 0 1 5-5 8.35 8.35 0 0 0 1.7-.21 9.16 9.16 0 0 0 8.82 6.71 9.17 9.17 0 0 0 8.82-6.71 9.42 9.42 0 0 0 1.7.21 5.05 5.05 0 0 1 5 5z"/></svg>