<svg xmlns="http://www.w3.org/2000/svg" viewBox="0 0 120.61 33.57"><defs><style>.a{fill:#3a1a0d}</style></defs><title>p10_s16</title><path class="a" d="M12.6 17.83a.42.42 0 0 1-.34.44c-.24 0-.44-.24-.61-.37a6.8 6.8 0 0 0-1.36-1.12 12 12 0 0 0-4.37-1.22 4.1 4.1 0 0 0-.64.68c-.07.07-2.64 2.61-4.31 2.61a.91.91 0 0 1-1-.95c.2-2 2.78-3.29 4.81-3.29a3.39 3.39 0 0 1 .51 0s.61-.78 1.93-2.78a13.72 13.72 0 0 0 2.27-4.92 1.84 1.84 0 0 0-2-1.9 4.93 4.93 0 0 0-3.05 1.56 1.3 1.3 0 0 1-.78.37.44.44 0 0 1-.41-.44 1.42 1.42 0 0 1 .34-.68 5.31 5.31 0 0 1 3.73-1.87 3.09 3.09 0 0 1 3.32 3c0 2.47-3.53 6.92-4.2 7.8a12.26 12.26 0 0 1 3.73.88 5.21 5.21 0 0 1 2.41 1.9c.02.07.02.2.02.3zm-8-2.27h-.2c-1.32 0-3.36 1.29-3.36 2a.24.24 0 0 0 .27.24.82.82 0 0 0 .44-.14 17.64 17.64 0 0 0 2.85-2.1zm9.94.89a1 1 0 0 1 .92.88.72.72 0 0 1-.71.75.82.82 0 0 1-.92-.92.55.55 0 0 1 .2-.51.75.75 0 0 1 .51-.2zM49.26 6.2a12.16 12.16 0 0 1-2.14 6.17c-1.87 2.71-5.32 6-9.32 6-2.41 0-5.39-1.25-5.39-6a11.2 11.2 0 0 1 2.24-6.2c3.32-5 5.42-5.9 6.27-5.9a2.14 2.14 0 0 1 1.93 1.86 4.8 4.8 0 0 1 1.87-.34 4.3 4.3 0 0 1 4.37 3.05 4.65 4.65 0 0 1 .17 1.36zm-1.12.2a3.23 3.23 0 0 0-3.15-3.53 6.26 6.26 0 0 0-1.59.27 4.28 4.28 0 0 0-2.24 1.25.62.62 0 0 1-.44.24c-.37 0-.41-.31-.41-.47 0-.54.75-1.08.75-1.08a8.11 8.11 0 0 1 1.19-.64c-.3-.3-.58-.81-1.05-.81a5.77 5.77 0 0 0-3 1.59 21.13 21.13 0 0 0-2.75 3.7 11.87 11.87 0 0 0-1.93 5.7c0 3.66 2.31 4.61 4.65 4.61a4.79 4.79 0 0 0 1.36-.17 13.24 13.24 0 0 0 8.51-9.87 6.18 6.18 0 0 0 .1-.74zm25.64 13.2a.31.31 0 0 1-.13.27c-2.24 1.83-5.7 4.92-7.29 7.29a37.28 37.28 0 0 1-1.12 5.42 1.79 1.79 0 0 1-1.29 1c-.71 0-1.05-.71-1.05-1.32 0-1.63 1.63-3.9 2.54-5.22a94 94 0 0 1 3.16-10.53 8.9 8.9 0 0 1-4.31 1.42 2.09 2.09 0 0 1-2.17-2 2 2 0 0 1 .2-.92c.85-2 3.46-4.34 5.76-4.34a2.41 2.41 0 0 1 2.2 1.59c.17-.47.58-1.25 1.15-1.25s.85.78.85 1.32a3.53 3.53 0 0 1-1.39 2.34c0 .2.07.44.07.64s0 .58-.34.58-.44-.31-.54-.51l-.07.07a67.3 67.3 0 0 0-3.25 9.87 29.63 29.63 0 0 1 6.38-6 .38.38 0 0 1 .27-.1.33.33 0 0 1 .37.38zm-4.68-4.41l.61-1.56c-.2-.95-.58-2-1.73-2-1.59 0-4.61 2.51-4.61 4.17a1.17 1.17 0 0 0 1.15 1.25 10.58 10.58 0 0 0 4.58-1.86zm-4.24 14.55c-.27.58-1.05 1.63-1.05 2.17 0 .17.07.27.24.27.55 0 .74-2.01.81-2.45zm5.87-16.31a1.23 1.23 0 0 0 .07.34c.24-.24.64-.58.64-.95 0-.14-.07-.34-.24-.34s-.47.78-.47.97z"/><path class="a" d="M92.7 14.45a3.31 3.31 0 0 0 2.71 2.71c.27.07.95 0 .95.41a.38.38 0 0 1-.37.37 4.61 4.61 0 0 1-4.65-3.93c-.85 2-2.68 4.78-5.15 4.78a2.66 2.66 0 0 1-2.64-2.92 7.07 7.07 0 0 1 .58-2.54 32.47 32.47 0 0 0-5.36 3c-3 1.9-5.05 3.7-5.36 3.7a.34.34 0 0 1-.34-.34.5.5 0 0 1 .14-.31 66.36 66.36 0 0 1 9.7-6.54 6.75 6.75 0 0 1 2.14-1c.41 0 .68.14.68.51 0 .85-1.15 2.07-1.15 3.7a1.65 1.65 0 0 0 1.76 1.8 2 2 0 0 0 1.15-.34c1.66-1.08 2.34-2.78 3.15-4.51.24-.48.64-1.12 1.25-1.12 1.01-.08.71 1.85.81 2.57z"/><path class="a" d="M107.21 17.77a6.45 6.45 0 0 1-1.39.14 3.25 3.25 0 0 1-3.15-2.1c-2.17 1.08-4.27 2.1-6.75 2.1a.38.38 0 0 1-.37-.37.37.37 0 0 1 .37-.34 10 10 0 0 0 3-.51 27.79 27.79 0 0 0 3.68-1.74 5.38 5.38 0 0 1 2.81-4.37 2.35 2.35 0 0 1 1.19-.27 1.69 1.69 0 0 1 1.86 1.49 1.73 1.73 0 0 1-.2.71 2.36 2.36 0 0 1-.88.75c-.44.27-.88.47-1.32.71-.78.44-1.56.92-2.37 1.32a2.13 2.13 0 0 0 2.2 1.9 5.09 5.09 0 0 0 3.19-.92 8.13 8.13 0 0 1 .75-.54c.14 0 .17.07.17.2-.04 1.09-1.98 1.67-2.79 1.84zm-3.49-3.42a22.07 22.07 0 0 0 3.25-2 .62.62 0 0 0 .17-.41c0-.41-.44-.54-.78-.54-1.39-.04-2.44 1.72-2.64 2.94zm9.88 2.26a1 1 0 0 1 1 .84.9.9 0 0 1-.78.85 1.27 1.27 0 0 1-1.19-1.05.53.53 0 0 1 .41-.51.63.63 0 0 1 .56-.13zm6.44-10.92c-.81 1.39-2.68 1.7-3.8 2.81s-1.25 2.85-1.59 4.14c-.14.27-.31.48-.47.48s-.27-.24-.27-.48a6.41 6.41 0 0 1 .2-1.59A4.23 4.23 0 0 1 115.36 8c1.46-1.42 4.14-1.9 4.14-4.54a2.39 2.39 0 0 0-2.61-2.41 4.2 4.2 0 0 0-2.61 1 .62.62 0 0 1-.47.2.49.49 0 0 1-.47-.51.67.67 0 0 1 .17-.47 4.61 4.61 0 0 1 3.29-1.29 5 5 0 0 1 .75.07c2.37.51 3.12 1.7 3.12 3.63a4.15 4.15 0 0 1-.68 2.02z"/></svg>