<svg xmlns="http://www.w3.org/2000/svg" viewBox="0 0 90.67 21.09"><defs><style>.a{fill:#3a1a0d}</style></defs><title>p10_s20</title><path class="a" d="M10 15.02c0 3.7-3.49 6.07-7 6.07-.24 0-2.95 0-3.05-.92 0-.34.27-.41.51-.41.64 0 1.66.34 2.48.34 2.64 0 5.9-1.76 5.9-5a2 2 0 0 0-1.9-2.2c-1.05 0-1.83.54-2.68.54-.37 0-.61-.07-.61-.34 0-.47.58-.51.88-.64a12.74 12.74 0 0 0 1.53-.81 4.88 4.88 0 0 0 2.75-4.24 1.64 1.64 0 0 0-1.76-1.66A3.84 3.84 0 0 0 4.44 6.8a2.36 2.36 0 0 1-1.46.88.52.52 0 0 1-.48-.51 1.33 1.33 0 0 1 .78-1h.07a5.83 5.83 0 0 1 3.7-1.42c1.66 0 2.92.88 2.92 2.54 0 2-1.08 3.39-3.32 4.85a1.94 1.94 0 0 1 .44 0 3.36 3.36 0 0 1 1.42.3A2.91 2.91 0 0 1 10 15.02zm2.75 3.32a1 1 0 0 1 .92.88.72.72 0 0 1-.71.75.82.82 0 0 1-.92-.92.55.55 0 0 1 .2-.51.75.75 0 0 1 .51-.2zM35.6 8.07a12.15 12.15 0 0 1-2.14 6.17c-1.86 2.71-5.32 6-9.32 6-2.41 0-5.39-1.25-5.39-6a11.2 11.2 0 0 1 2.24-6.2c3.32-5 5.42-5.9 6.27-5.9A2.14 2.14 0 0 1 29.19 4a4.8 4.8 0 0 1 1.86-.34 4.3 4.3 0 0 1 4.36 3.09 4.65 4.65 0 0 1 .19 1.32zm-1.12.2a3.23 3.23 0 0 0-3.15-3.53 6.27 6.27 0 0 0-1.59.27 4.28 4.28 0 0 0-2.24 1.25.62.62 0 0 1-.44.24c-.37 0-.41-.31-.41-.47 0-.54.75-1.08.75-1.08a8 8 0 0 1 1.19-.64c-.31-.31-.58-.81-1.05-.81a5.77 5.77 0 0 0-2.95 1.59 21.13 21.13 0 0 0-2.75 3.7 11.86 11.86 0 0 0-1.93 5.7c0 3.66 2.31 4.61 4.65 4.61a4.79 4.79 0 0 0 1.36-.17 13.24 13.24 0 0 0 8.49-9.88 6.1 6.1 0 0 0 .07-.78zm11.7 7.63c.44 1.39.71 3.15 2.54 3.15a.35.35 0 0 1 .37.34.38.38 0 0 1-.37.37c-3.66 0-3.19-4.48-4.27-4.48-.88 0-2.92 4.58-4.44 4.58-.68 0-1-.64-1-1.22 0-1.15.54-2.27.54-3.39 0-.44 0-.95-.58-.95-.92 0-2.2 1.22-2.78 1.22a.31.31 0 0 1-.34-.27c0-.75 2.41-1.93 3.15-1.93a1.56 1.56 0 0 1 1.56 1.73c0 1.19-.68 2.44-.68 3.49a.26.26 0 0 0 .24.27h.14c1.25-1.25 2-2.88 3.29-4.14a1.84 1.84 0 0 1 1.19-.61c.93-.02 1.24 1.13 1.44 1.84z"/><path class="a" d="M61.07 9.26C61.65 6.95 63.61 0 66.49 0a1.11 1.11 0 0 1 1.12 1.25c0 2.24-2 5.19-3 7.15a53.26 53.26 0 0 1-3.29 5.73c0 .41.07.88.14 1.29a4.21 4.21 0 0 0 2.85 3.36 6.15 6.15 0 0 0 1.73.27.37.37 0 0 1 .37.34.38.38 0 0 1-.37.37 5.3 5.3 0 0 1-4.81-2.64 7.54 7.54 0 0 1-.61-1.93c-1.32 1.83-3.53 5-6 5a2.06 2.06 0 0 1-2.14-2 5.46 5.46 0 0 1-3.76 1.56.34.34 0 0 1-.37-.37.32.32 0 0 1 .34-.34c1.63 0 2.95-1.22 4.14-2.2a5 5 0 0 1 4.2-2.88 2.54 2.54 0 0 1 2.27 1.63c.44-.58.81-1.15 1.22-1.73a19.11 19.11 0 0 1 .55-4.6zm-2.64 7.36a1.63 1.63 0 0 0-1.63-1.49c-1.42 0-3.25 1.46-3.25 3a1 1 0 0 0 1.12 1.08c1.58-.09 2.8-1.54 3.74-2.6zm4.64-7.09c.64-1.08 1.19-2.2 1.76-3.32s1.7-2.92 1.7-4.07c0-.37-.14-.68-.54-.68-1.56 0-3.29 5.46-3.66 6.75a21.24 21.24 0 0 0-1 4.34z"/><path class="a" d="M77.27 19.63a6.45 6.45 0 0 1-1.39.14 3.25 3.25 0 0 1-3.15-2.1c-2.17 1.08-4.27 2.1-6.75 2.1a.38.38 0 0 1-.37-.37.37.37 0 0 1 .37-.34 10 10 0 0 0 3-.51 27.81 27.81 0 0 0 3.66-1.73 5.38 5.38 0 0 1 2.81-4.37 2.36 2.36 0 0 1 1.19-.27c.88 0 1.86.51 1.86 1.49a1.72 1.72 0 0 1-.2.71 2.35 2.35 0 0 1-.88.75c-.44.27-.88.47-1.32.71-.78.44-1.56.92-2.37 1.32a2.13 2.13 0 0 0 2.2 1.9 5.09 5.09 0 0 0 3.19-.92 8.13 8.13 0 0 1 .75-.54c.14 0 .17.07.17.2-.02 1.09-1.95 1.66-2.77 1.83zm-3.49-3.42a22.05 22.05 0 0 0 3.25-2 .62.62 0 0 0 .17-.41c0-.41-.44-.54-.78-.54-1.38-.04-2.43 1.73-2.64 2.95zm9.84 2.27a1 1 0 0 1 1.08.88.9.9 0 0 1-.78.85 1.27 1.27 0 0 1-1.19-1.05.53.53 0 0 1 .41-.51.64.64 0 0 1 .48-.17zm6.44-10.92c-.81 1.39-2.68 1.7-3.8 2.81s-1.25 2.85-1.59 4.14c-.14.27-.31.47-.47.47s-.27-.24-.27-.47a6.42 6.42 0 0 1 .2-1.59 4.22 4.22 0 0 1 1.25-3.05c1.46-1.42 4.14-1.9 4.14-4.54a2.39 2.39 0 0 0-2.61-2.41 4.2 4.2 0 0 0-2.61 1 .61.61 0 0 1-.47.2.49.49 0 0 1-.47-.51.67.67 0 0 1 .17-.48 4.61 4.61 0 0 1 3.29-1.29 5.11 5.11 0 0 1 .75.07c2.37.51 3.12 1.7 3.12 3.63a4.15 4.15 0 0 1-.63 2.02z"/></svg>