<svg xmlns="http://www.w3.org/2000/svg" viewBox="0 0 98.36 19.39"><defs><style>.a{fill:#3a1a0d}</style></defs><title>p10_s11</title><path class="a" d="M6.44 3.12a1.67 1.67 0 0 1-.17.58C5.9 4.89 4.95 8.24 4.74 9.09a43.54 43.54 0 0 0-1.25 4.41c-.41 1.46-1.25 5.9-2 5.9a.49.49 0 0 1-.51-.47 10 10 0 0 1 .64-2.37c1.15-4.1 2.34-8.68 3.39-12.27a17.75 17.75 0 0 1-2.64 2.65c-.51.54-1.39 1.73-2 1.73-.24-.07-.31-.1-.31-.37 0-.47 1.12-1.46 2.1-2.37.81-.78 2.81-3.19 3.8-3.22a.36.36 0 0 1 .34.14.28.28 0 0 1 .14.27zm3.19 13.36a1 1 0 0 1 .92.88.72.72 0 0 1-.71.75.82.82 0 0 1-.92-.92.55.55 0 0 1 .2-.51.75.75 0 0 1 .51-.2zM31.94 6.17a11.19 11.19 0 0 1-2.07 6.44 20.16 20.16 0 0 1-1.36 1.73c1 1.19 1.59 1.8 2.37 2.75a3.85 3.85 0 0 1 .51.88c0 .17-.17.24-.34.24-.51 0-.95-.37-3.32-3.05a10 10 0 0 1-6.78 3.25c-2.24 0-5.39-1.25-5.39-5.76a10.85 10.85 0 0 1 2.2-6.07 18.77 18.77 0 0 1 3.56-4.27C22.47 1.23 23.22.92 23.8.92a2.51 2.51 0 0 1 1 .27 4.78 4.78 0 0 1 2.78-.92c2 0 3.7 1.19 4.31 4.75.01.34.05.75.05 1.15zm-1.08.1c0-2.34-.92-5.09-3.46-5.09a7.32 7.32 0 0 0-2 .54 2.19 2.19 0 0 1 .37 1.05c0 .24-.14.27-.24.27-.58 0-.68-.85-1.39-.85a5 5 0 0 0-2.64 1.42 18.54 18.54 0 0 0-2.92 3.63 10.37 10.37 0 0 0-1.69 5.42 4.23 4.23 0 0 0 4.41 4.61 4.52 4.52 0 0 0 1.36-.17A12.67 12.67 0 0 0 27 14.32a22.24 22.24 0 0 1-2-2.1 1.66 1.66 0 0 1-.24-.78c0-.14 0-.64.51-.64.17 0 .41.1.71.47l1.83 2.2a11.31 11.31 0 0 0 3-6.17c.04-.36.04-.68.04-1.02zm12.1 8.14a3.24 3.24 0 0 0 2.68 2.71c.27.07.95 0 .95.41a.38.38 0 0 1-.37.37 4.61 4.61 0 0 1-4.65-3.93 6.14 6.14 0 0 1-.61 1.25c-.95 1.66-2.41 3.56-4.51 3.56-1.83 0-2.65-1.46-2.65-3.09 0-.88.51-4.34 1.63-4.34a.56.56 0 0 1 .61.58c0 .78-1.12 2.17-1.12 3.73 0 1.15.41 2.1 1.7 2.1a2 2 0 0 0 1.15-.34c1.66-1.12 2.24-2.81 3.08-4.51.2-.44.68-1.12 1.25-1.12 1.03.01.76 1.95.86 2.62z"/><path class="a" d="M58.66 11.8a1.72 1.72 0 0 1-.2.71 2.59 2.59 0 0 1-.85.75c-.44.27-.92.47-1.36.71-.81.44-1.56.92-2.37 1.32.14 1.29 1 1.73 2.17 1.9.17 0 .37.14.37.34a.38.38 0 0 1-.37.37 3.28 3.28 0 0 1-3.15-2.1c-2.14 1.05-4.27 2.1-6.71 2.1a.38.38 0 0 1-.41-.37.37.37 0 0 1 .37-.34 9.84 9.84 0 0 0 3-.51 30.56 30.56 0 0 0 3.7-1.73c0-2 1.83-4.65 4-4.65a1.68 1.68 0 0 1 1.81 1.5zm-1.46.51a.56.56 0 0 0 .17-.41c0-.41-.41-.54-.75-.54-1.46 0-2.41 1.76-2.68 3a22.09 22.09 0 0 0 3.26-2.05z"/><path class="a" d="M87.71 17.02c0 .61-1.29.88-1.76.88-3.12 0-2.41-4-3.56-4-.31 0-.54.3-.71.54a23.24 23.24 0 0 1-2.51 3.15 1.35 1.35 0 0 1-.88.34 1.2 1.2 0 0 1-1.12-.81c-.41-1-.58-2.07-1-3.05-.1-.24-.27-.61-.58-.61-.92 0-2.92 4.58-4.44 4.58a1.06 1.06 0 0 1-1-1.19c0-1.15.58-2.27.58-3.42 0-.48-.17-.81-.68-.81a1.54 1.54 0 0 0-.78.27c-3.66 2.31-8.88 5.05-13.22 5.05a.38.38 0 0 1-.37-.37c0-.31.31-.34.51-.34 2.24 0 4.81-1.08 6.85-1.93a23.52 23.52 0 0 0 3.42-1.8c.81-.51 2.78-2.1 3.7-2.17h.24c.95 0 1.39.75 1.39 1.63a8.81 8.81 0 0 1-.41 2.14 10.61 10.61 0 0 0-.27 1.49v.14a.26.26 0 0 0 .24.27c.71 0 3-4.75 4.61-4.75s1.53 4.37 2.58 4.37c.51 0 2.27-2.68 2.61-3.15a1.9 1.9 0 0 1 1.42-.88 1.3 1.3 0 0 1 1.08.61c.92 1.46.24 4 2.64 4 .44 0 .85-.27 1.29-.27.03-.07.13-.04.13.09zm3.6-.4a1 1 0 0 1 1.08.88.9.9 0 0 1-.78.85 1.27 1.27 0 0 1-1.19-1.05.53.53 0 0 1 .41-.51.63.63 0 0 1 .48-.17zM97.75 5.7c-.81 1.39-2.68 1.7-3.8 2.81s-1.25 2.85-1.59 4.14c-.14.27-.31.47-.47.47s-.27-.24-.27-.47a6.41 6.41 0 0 1 .2-1.59 4.22 4.22 0 0 1 1.25-3.05c1.46-1.42 4.14-1.9 4.14-4.54a2.39 2.39 0 0 0-2.61-2.41 4.2 4.2 0 0 0-2.61 1 .62.62 0 0 1-.47.2.49.49 0 0 1-.47-.51.67.67 0 0 1 .17-.47 4.61 4.61 0 0 1 3.29-1.29 5.11 5.11 0 0 1 .75.07c2.37.51 3.12 1.7 3.12 3.63a4.15 4.15 0 0 1-.63 2.01z"/></svg>