<svg xmlns="http://www.w3.org/2000/svg" viewBox="0 0 256.59 78.35"><defs><style>.a{fill:#fff}</style></defs><title>p10_s5</title><path class="a" d="M10.36 23.76A5.37 5.37 0 0 1 5.6 21.2a8.3 8.3 0 0 1-1.2-4.64 39 39 0 0 1 1.2-7.2c.2-1 1.2-4.68 1.52-5.48.2-.48.28-1.2 1.08-1.2.32 0 .48.24.48.68a4 4 0 0 1-.2 1c-1.76 6-2.72 9.64-2.72 12.32 0 3 1.88 5.52 4.68 5.52 4.08 0 6.48-3 7.92-6.8s2.32-6.92 2.8-8.72c.32-1.16.56-3.64 1.52-3.64.68 0 .72.56.72 1 0 .16-.92 3.68-1.4 5.24-2.72 8.8-5.36 14.48-11.64 14.48zm31.12-6.04c1 1.64.4 4.48 2.88 4.68h.24c.56 0 1-.32 1.56-.32.12 0 .24 0 .24.2 0 .72-1.52 1-2.08 1a2.41 2.41 0 0 1-2.2-.92 8 8 0 0 1-1.16-2.6c-.12-.32-.28-.92-.56-1.12a.45.45 0 0 0-.32-.12c-.36 0-.64.36-.84.64a30.78 30.78 0 0 1-2.92 3.72 1.7 1.7 0 0 1-1.08.4 1.32 1.32 0 0 1-1.28-1c-.44-1.2-.76-2.44-1.24-3.6-.12-.28-.28-.72-.64-.72-1.12 0-3.4 5.4-5.28 5.4-.8 0-1.16-.72-1.16-1.44 0-1.36.64-2.68.64-4 0-.52 0-1.12-.68-1.12-1.08 0-2.56 1.44-3.28 1.44a.36.36 0 0 1-.4-.32c0-.68 1.92-1.76 2.52-2a3.28 3.28 0 0 1 1.2-.28c1.28 0 1.84 1 1.84 2.16 0 1.36-.76 2.68-.76 4 0 .16.08.28.24.28.88 0 3.52-5.6 5.44-5.6 2.12 0 1.8 5.16 3 5.16.64 0 2.64-3.16 3.08-3.72a2.2 2.2 0 0 1 1.68-1 1.53 1.53 0 0 1 1.32.8zm25.16-1.92c0 .16-.12.2-.24.2-.44 0-.64-.6-1.52-.6-1.76 0-3.24 3-3.24 4.56a2.51 2.51 0 0 0 2.52 2.52c.24 0 .4.12.4.4a.41.41 0 0 1-.4.44c-1.88 0-3.84-1.32-3.84-3.36s1.88-5.48 4.16-5.48c.68 0 2.16.52 2.16 1.32z"/><path class="a" d="M84.31 19.44a6.66 6.66 0 0 0 .48 1.24 3.09 3.09 0 0 0 2.72 1.8.44.44 0 0 1 .44.4.44.44 0 0 1-.44.44c-3.56 0-4.12-3.52-5-3.52s-2.12 4.32-5.6 4.32a2 2 0 0 1-2.2-2.12 4.53 4.53 0 0 1 .64-2.16c-3.08 1.44-7.92 3.48-11.24 3.48a.44.44 0 0 1-.44-.44c0-.32.32-.4.56-.4 2.2-.08 6-1.4 8.08-2.28a31.55 31.55 0 0 0 4.4-2 5.21 5.21 0 0 1 3.64-1.84 2.82 2.82 0 0 1 2.48 1.28c1.16-.2 1.33 1.04 1.48 1.8zm-2.88-.92c-.28-.52-.64-1-1.28-1-1.68 0-4.08 2.68-4.08 4.28a1.06 1.06 0 0 0 1.09 1.13c1.83 0 3.4-3.13 4.27-4.41z"/><path class="a" d="M102.08 10.93c.68-2.72 3-10.92 6.4-10.92a1.31 1.31 0 0 1 1.32 1.48c0 2.64-2.32 6.12-3.56 8.44a62.77 62.77 0 0 1-3.88 6.76c0 .48.08 1 .16 1.52a5 5 0 0 0 3.36 4 7.22 7.22 0 0 0 2 .32.44.44 0 0 1 .44.4.44.44 0 0 1-.44.44 6.24 6.24 0 0 1-5.68-3.12 8.89 8.89 0 0 1-.72-2.28c-1.56 2.16-4.16 5.92-7.12 5.92a2.43 2.43 0 0 1-2.52-2.36c-1.52 1.16-2.48 1.84-4.44 1.84a.4.4 0 0 1-.44-.44.38.38 0 0 1 .4-.4c1.92 0 3.48-1.44 4.88-2.6a5.92 5.92 0 0 1 5-3.4 3 3 0 0 1 2.68 1.92c.52-.68 1-1.36 1.44-2a22.55 22.55 0 0 1 .72-5.52zm-3.12 8.68a1.92 1.92 0 0 0-1.92-1.76c-1.68 0-3.84 1.72-3.84 3.48a1.21 1.21 0 0 0 1.32 1.28c1.88-.05 3.32-1.77 4.44-3.01zm5.48-8.36c.76-1.28 1.4-2.6 2.08-3.92s2-3.44 2-4.8c0-.44-.16-.8-.64-.8-1.84 0-3.88 6.44-4.32 8a25.11 25.11 0 0 0-1.2 5.12z"/><path class="a" d="M122.63 16.12a2 2 0 0 1-.24.84 3 3 0 0 1-1 .88c-.52.32-1.08.56-1.6.84-1 .52-1.84 1.08-2.8 1.56.16 1.52 1.16 2 2.56 2.24.2 0 .44.16.44.4a.44.44 0 0 1-.44.44 3.87 3.87 0 0 1-3.72-2.48c-2.52 1.24-5 2.48-7.92 2.48a.45.45 0 0 1-.48-.44.44.44 0 0 1 .44-.4 11.61 11.61 0 0 0 3.52-.6 36 36 0 0 0 4.36-2c0-2.36 2.16-5.48 4.72-5.48a2 2 0 0 1 2.16 1.72zm-1.72.6a.66.66 0 0 0 .2-.48c0-.48-.48-.64-.88-.64-1.72 0-2.84 2.08-3.16 3.52a26 26 0 0 0 3.84-2.4z"/><path class="a" d="M141.16 22.48a.44.44 0 0 1 .44.44.44.44 0 0 1-.44.4c-2.08 0-4.32-1-4.32-3.4 0-1.64 1.12-3.32 1.12-5 0-1.12-1.2-1.48-2-1.92l-.12.28c-1.92 3.52-6.24 6.52-9.8 8.36a12.68 12.68 0 0 1-6.6 1.68.44.44 0 0 1-.4-.44.43.43 0 0 1 .4-.4 11.1 11.1 0 0 0 3.44-.6c4.12-1.32 10.12-5.36 12.08-9.44-.92-.48-2-1.16-2-2.32a1.73 1.73 0 0 1 1.76-1.68 2 2 0 0 1 2 2 4.11 4.11 0 0 1-.24 1.4c1.36.6 2.72 1.32 2.72 3s-1.16 3.8-1.16 5.16c.03 1.6 1.83 2.48 3.12 2.48zm-5.8-11.16a3 3 0 0 0 .12-.84c0-.32-.16-.8-.6-.8a.65.65 0 0 0-.64.6c.07.44.79.8 1.15 1.04z"/><path class="a" d="M162.39 18.76c.48 1.68.84 3.72 3 3.72a.44.44 0 0 1 .44.4.44.44 0 0 1-.44.44c-4.36 0-3.76-5.28-5-5.28-1.12 0-3.44 5.4-5.28 5.4-.84 0-1.16-.76-1.16-1.48 0-1.32.68-2.76.68-4 0-.52-.08-1.12-.72-1.12-2.44 0-7.2 6.44-11.68 6.44-.4 0-1.52.2-1.52-.44a.44.44 0 0 1 .44-.4 10.26 10.26 0 0 0 6.24-2.4c1.4-1 3.92-3.48 5.36-4.08a3.28 3.28 0 0 1 1.2-.28 1.88 1.88 0 0 1 1.88 2.08c0 1.28-.8 2.72-.8 3.92 0 .2 0 .48.28.48.88 0 3.52-5.64 5.44-5.64.96.04 1.41 1.41 1.64 2.24z"/><path class="a" d="M185.16 20.2c0 .8-1.52.72-2 .72a4.33 4.33 0 0 1-1.6-.24 6 6 0 0 1-5.28 3.68c-1.68 0-2.52-1.56-2.52-3.08a4.61 4.61 0 0 1 .12-1c-2.56 1.76-4.92 3.08-8.08 3.08-.36 0-.92.08-.92-.44a.44.44 0 0 1 .44-.4 15.5 15.5 0 0 0 1.92-.16 15.45 15.45 0 0 0 6.44-3l.84-.76c.76-1.52 2.76-4.08 4.6-4.08 1.12 0 1.6 1.16 1.6 2.16a3 3 0 0 1 1.16 2.48 4.9 4.9 0 0 1-.08.76 5.67 5.67 0 0 0 1.84.2c.19-.08 1.52-.24 1.52.08zm-4.64 0c-.84-.44-2.4-1.6-2.4-2.64 0-.84.8-1.24 1.52-1.28a.65.65 0 0 0-.6-.44 2.12 2.12 0 0 0-.92.32 7 7 0 0 0-3.12 5.36 1.5 1.5 0 0 0 1.6 1.64 4.3 4.3 0 0 0 3.95-2.96zm.16-1.08c0-.56-.48-1.8-1.16-1.8-.16 0-.28.2-.28.36 0 .68 1 1.16 1.44 1.56zm26.55.32a15.54 15.54 0 0 0 2.36.12.44.44 0 0 1 .44.44.44.44 0 0 1-.44.44 15.47 15.47 0 0 1-2.6-.16c-.8 2.12-3.16 4-5.32 4a2.68 2.68 0 0 1-2.56-3 8 8 0 0 1 2.16-4.88c.72-.88 2-2.16 3.24-2.16s1.6 1 1.6 2a3 3 0 0 1 1.16 2.48 3.43 3.43 0 0 1-.04.72zm-1.44.52a2.77 2.77 0 0 1-2.24-2.6c0-.84.64-1.28 1.56-1.36a.81.81 0 0 0-.68-.44 1.59 1.59 0 0 0-1 .36 8.11 8.11 0 0 0-3 5.56 1.64 1.64 0 0 0 1.68 1.76c1.05 0 3.05-1.36 3.68-3.31zm.24-.84v-.56c0-.84-.44-1.52-1.12-1.52-.16 0-.24.16-.24.32a1.8 1.8 0 0 0 1.36 1.76z"/><path class="a" d="M230.83 22.52c0 .64-1.28 1-1.8 1-2.44 0-3.48-2.76-3.68-4.8-1 2.36-3.24 5.68-6.12 5.68-2 0-3.08-1.64-3.08-3.48a12.44 12.44 0 0 1 .84-3.6c-2 1.68-4.76 3.16-7.44 3.16a.44.44 0 0 1-.44-.44.44.44 0 0 1 .44-.44 6.8 6.8 0 0 0 2-.36 10.63 10.63 0 0 0 2.36-1.12c.68-.4 3.48-2.48 4.08-2.48a.82.82 0 0 1 .84.84c0 1-1.48 2.64-1.48 4.6a2 2 0 0 0 2.08 2.16 2.4 2.4 0 0 0 1.36-.44c2-1.4 2.64-3.2 3.68-5.32.28-.56.84-1.32 1.48-1.32.8 0 1 1 1 1.64 0 .48-.12 1-.12 1.52 0 1.48.48 3.32 2.28 3.32.52 0 1-.24 1.56-.24a.17.17 0 0 1 .16.12zM20.28 48.56a5.54 5.54 0 0 1-1.12 3.2c-1.44 2.28-4.44 4.8-6.52 6.52-.64.52-1.36 1-2 1.6l-.48.44-.32 1.12a11.13 11.13 0 0 0 3.08 2.2 8.81 8.81 0 0 0 3.64.84.44.44 0 0 1 .44.4.44.44 0 0 1-.44.44 10.16 10.16 0 0 1-6.28-2.2c-.24-.2-.56-.36-.76-.56l-.24 1c2.08 2.72 5.24 7 5.24 10.52 0 2.12-1.28 4.32-3.6 4.32-3 0-4-3.4-4-5.88a39.28 39.28 0 0 1 1.12-8.6l-.92-1.08c-1.48 1-4.08 2.52-5.88 2.52-.4 0-1.32-.16-1.32-.72 0-.36 1.08-.24 1.32-.28a12.64 12.64 0 0 0 5.36-2.48 1.74 1.74 0 0 1-.16-.76.88.88 0 0 1 1-1 2.42 2.42 0 0 1 1 .24l.72-.64c1.28-4.12 3.32-9.32 6.72-12.24a3.8 3.8 0 0 1 2.36-1 1.92 1.92 0 0 1 2.04 2.08zm-7 25.32c0-3.12-2.44-6.6-4.32-8.92l-.08.36a35.82 35.82 0 0 0-.8 6.52c0 1.8.6 5.28 3 5.28 1.68-.01 2.24-1.89 2.24-3.25zM8.44 62.44a3.68 3.68 0 0 1 .16-.64 1.56 1.56 0 0 0-.4.32 2.19 2.19 0 0 0 .28.32zm5.72-7.08c1.16-1.08 4.56-4.76 4.56-6.28 0-.44-.16-.88-.68-.88-2.88 0-6.6 7.76-7.32 10.2 1.2-1 2.36-2 3.44-3.04z"/><path class="a" d="M33.16 61.44a15.53 15.53 0 0 0 2.36.12.44.44 0 0 1 .44.44.44.44 0 0 1-.44.44 15.47 15.47 0 0 1-2.6-.16c-.8 2.12-3.16 4-5.32 4a2.68 2.68 0 0 1-2.56-3 5.33 5.33 0 0 1 .12-1.12c-2.52 1.72-4.92 3.08-8 3.08-.36 0-1 .08-1-.44a.44.44 0 0 1 .44-.4 15.53 15.53 0 0 0 1.92-.16 12.66 12.66 0 0 0 3.4-1.16 12.46 12.46 0 0 0 3-1.88 7.09 7.09 0 0 0 .8-.76l.36-.56a10 10 0 0 1 1.08-1.48c.72-.88 2-2.16 3.24-2.16s1.6 1 1.6 2a3 3 0 0 1 1.16 2.48 3.47 3.47 0 0 1 0 .72zm-1.44.52a2.77 2.77 0 0 1-2.24-2.6c0-.84.64-1.28 1.56-1.36a.81.81 0 0 0-.68-.44 1.59 1.59 0 0 0-1 .36 8.11 8.11 0 0 0-3 5.56 1.64 1.64 0 0 0 1.68 1.76c1.04 0 2.96-1.36 3.64-3.31zm.24-.84a2.64 2.64 0 0 0 0-.56c0-.84-.44-1.52-1.12-1.52-.16 0-.24.16-.24.32a1.8 1.8 0 0 0 1.32 1.76z"/><path class="a" d="M46.36 46.64c.68-.84 2-2.08 3.12-2.08S51.24 46 51.24 47c0 1.92-1.16 4.12-2.12 5.72a23.12 23.12 0 0 1-4.88 5.56c.68 2.72 2.44 6.2 5.72 6.2a.43.43 0 0 1 .4.4.41.41 0 0 1-.4.44c-3.6 0-5.92-2.92-6.72-6.16-2.36 1.84-4.68 3.28-7.8 3.28A.44.44 0 0 1 35 62a.44.44 0 0 1 .44-.44 8.22 8.22 0 0 0 3.24-.64 14.1 14.1 0 0 0 4.32-2.8c0-.6-.16-1.2-.16-1.84a16.91 16.91 0 0 1 3.52-9.64zM48 52.72c.84-1.32 2.16-3.76 2.16-5.32 0-.68-.32-1.28-1.08-1.28a1.85 1.85 0 0 0-.92.36c-2.44 1.68-4.12 6.92-4.12 9.8a7.07 7.07 0 0 0 0 .92A23.16 23.16 0 0 0 48 52.72z"/><path class="a" d="M68.04 60.84a17.35 17.35 0 0 0 2.24 2.88 2.22 2.22 0 0 0 1.44.76c.2 0 .44.16.44.4a.44.44 0 0 1-.44.44c-2 0-3-1.92-4.12-3.32-.56-.72-.92-1.64-2-1.64-1.92 0-3.8 5.32-6.4 5.32-1.72 0-2.32-2.4-2.52-3.72-1.6 1.44-4.56 3.4-6.76 3.4a.44.44 0 0 1-.44-.44.44.44 0 0 1 .44-.44 4.22 4.22 0 0 0 1.56-.36 19.17 19.17 0 0 0 5.12-3.44v-.32a25 25 0 0 1 2.68-10.76c.56-1 1.88-2.88 3.24-2.88 1.2 0 1.36 1.64 1.36 2.52a15.4 15.4 0 0 1-3.48 9 20.51 20.51 0 0 1-2.16 2.4 3.77 3.77 0 0 0-.4.4c0 .8.28 3.36 1.4 3.36 1.76 0 3.8-5.2 6.48-5.2 1.03-.04 1.79.88 2.32 1.64zm-7.88-10.36a20.78 20.78 0 0 0-2.36 9c2-2.24 5-6.68 5-9.84 0-.4-.08-1.32-.68-1.32-.76 0-1.64 1.56-1.96 2.16z"/><path class="a" d="M85.32 61.44a4.8 4.8 0 0 0 .52 1.24 3.07 3.07 0 0 0 2.68 1.8.44.44 0 0 1 .44.4.44.44 0 0 1-.44.44c-3.56 0-4.08-3.52-5-3.52s-2.12 4.32-5.64 4.32A2 2 0 0 1 75.72 64v-.24a5.92 5.92 0 0 1-4.08 1.56.4.4 0 0 1-.44-.44.43.43 0 0 1 .4-.4c1.8 0 3.32-1.28 4.64-2.4 1-1.72 3-3.8 5.16-3.8a2.87 2.87 0 0 1 2.48 1.28c1.16-.12 1.2 1.08 1.44 1.88zm-2.84-.92c-.32-.52-.68-1-1.32-1-1.68 0-4.08 2.68-4.08 4.28a1.09 1.09 0 0 0 1.16 1.16c1.8-.03 3.28-3.2 4.24-4.44z"/><path class="a" d="M107.47 59.84a3.57 3.57 0 0 1 1.44 2.72c0 4.16-5.44 5.32-8.68 5.32-.32 0-1.12-.16-1.12-.6s.64-.52 1-.52a13.82 13.82 0 0 0 3.4-.32 5.33 5.33 0 0 0 3.56-2.12 2.91 2.91 0 0 0 .52-1.72c0-2.16-3.92-4.32-5.32-5.84A69.12 69.12 0 0 1 94.83 63c-2.24 1.56-3.56 2.32-6.36 2.32a.44.44 0 0 1-.44-.4.44.44 0 0 1 .44-.44 9 9 0 0 0 4.36-1.36 11.6 11.6 0 0 0 1.28-.84 61.18 61.18 0 0 0 5.88-4.76l1.68-1.6a2.72 2.72 0 0 1-.32-1.24c0-1.48 1.48-3.6 3.08-3.6a1.21 1.21 0 0 1 1.24 1.28c0 1.32-1.56 2.84-2.56 3.6h-.08c1.37 1.4 2.96 2.6 4.44 3.88zm-5-5.12v.4c.48-.44 2-1.8 2-2.48a.34.34 0 0 0-.36-.36c-.79 0-1.59 1.76-1.59 2.44zm41.2 7.72a6.56 6.56 0 0 1-4.32-1.88 9.82 9.82 0 0 1-1.84-2.24c-1.16 2.84-3.4 7.76-7.08 7.76-2 0-2.88-1.52-2.88-3.32a11.81 11.81 0 0 1 .56-3.32c-1.36.8-3.36 1.88-5 1.88-.36 0-1.2-.24-1.2-.72s1-.24 1.28-.28c1.68-.16 4-1.48 5.36-2.44 1-3 4.52-13.64 8.44-13.64a1.89 1.89 0 0 1 1.84 2.12c0 3.56-6.8 10.08-9.36 12.12a13.89 13.89 0 0 0-.76 4.24c0 1 .44 2.12 1.6 2.12 1.52 0 2.88-1.4 3.76-2.52 1.24-1.6 1.68-3.56 2.4-5.44a1 1 0 0 1 1-.8c.88 0 1.16.84 1.4 1.52a7.63 7.63 0 0 0 1.2 2.16 4.58 4.58 0 0 0 2.92 1.76c.36 0 1.12-.08 1.12.48a.44.44 0 0 1-.44.44zm-8.68-15.4a26.73 26.73 0 0 0-2.56 4.56c-.76 1.68-1.56 3.32-2.24 5 1.56-1.44 5.76-6.08 6.6-7.84a5 5 0 0 0 .6-2c0-.48-.2-1-.72-1-.68.08-1.31.8-1.68 1.28z"/><path class="a" d="M158.63 64.48a.44.44 0 0 1 .4.44.43.43 0 0 1-.4.4c-2 0-4.32-1-4.32-3.36 0-1.64 1.12-3.4 1.12-5 0-1.16-1.2-1.48-2-2a1.76 1.76 0 0 1-.16.28c-1.36 2.28-4.28 5.64-6.8 6.68a8.34 8.34 0 0 1-2.64.48.45.45 0 0 1-.48-.44.44.44 0 0 1 .44-.44 6.76 6.76 0 0 0 2-.32 6.54 6.54 0 0 0 2.72-1.76 18.87 18.87 0 0 0 3.88-5c-.92-.48-2-1.16-2-2.36a1.76 1.76 0 0 1 1.8-1.64 2 2 0 0 1 1.92 2 4.11 4.11 0 0 1-.24 1.4c1.36.6 2.72 1.32 2.72 3s-.8 3.16-1.12 4.8a1.36 1.36 0 0 0 0 .4c0 1.6 1.8 2.44 3.16 2.44zm-5.8-11.16c0-.12.12-.64.12-.88s-.16-.8-.6-.8a.65.65 0 0 0-.64.6c.01.44.77.88 1.13 1.08z"/><path class="a" d="M172.16 61.44a4.82 4.82 0 0 0 .52 1.24 3.08 3.08 0 0 0 2.68 1.8.44.44 0 0 1 .44.4.44.44 0 0 1-.44.44c-3.56 0-4.08-3.52-5-3.52s-2.12 4.32-5.64 4.32a2 2 0 0 1-2.16-2.12v-.24a5.92 5.92 0 0 1-4.08 1.56.4.4 0 0 1-.44-.44.43.43 0 0 1 .4-.4c1.8 0 3.32-1.28 4.64-2.4 1-1.72 3-3.8 5.16-3.8a2.87 2.87 0 0 1 2.48 1.28c1.19-.12 1.23 1.08 1.44 1.88zm-2.84-.92c-.32-.52-.68-1-1.32-1-1.68 0-4.08 2.68-4.08 4.28a1.09 1.09 0 0 0 1.24 1.13c1.75 0 3.23-3.17 4.19-4.41z"/><path class="a" d="M196.59 60.76c.48 1.68.84 3.72 3 3.72a.44.44 0 0 1 .44.4.44.44 0 0 1-.44.44c-4.36 0-3.76-5.28-5-5.28-1.12 0-3.44 5.4-5.28 5.4-.84 0-1.16-.76-1.16-1.48 0-1.32.68-2.76.68-4 0-.52-.08-1.12-.72-1.12-2.44 0-7.2 6.44-11.68 6.44-.4 0-1.52.2-1.52-.44a.44.44 0 0 1 .44-.4 10.26 10.26 0 0 0 6.24-2.4c1.4-1 3.92-3.48 5.36-4.08a3.28 3.28 0 0 1 1.2-.28 1.88 1.88 0 0 1 1.88 2.08c0 1.28-.8 2.72-.8 3.92 0 .2 0 .48.28.48.88 0 3.52-5.64 5.44-5.64.96.04 1.4 1.41 1.64 2.24z"/><path class="a" d="M199.52 64.48a11.61 11.61 0 0 0 3.52-.6 23.2 23.2 0 0 0 5.8-3.52 3.32 3.32 0 0 0 .68-.6c.12-.16.2-.44.32-.64a6.6 6.6 0 0 1 1.56-1.92 3.09 3.09 0 0 1 1.8-.72c.64 0 2.12.56 2.12 1.28a.21.21 0 0 1-.24.24c-.48 0-.68-.6-1.48-.6-1.8 0-3.24 3-3.24 4.6s1 2.32 2.48 2.48c.24 0 .44.16.44.44a.41.41 0 0 1-.44.4 3.69 3.69 0 0 1-3.76-2.72c0-.12-.08-.28-.08-.4a5.36 5.36 0 0 1 0-.8c-2.8 2.2-5.88 3.92-9.52 3.92a.41.41 0 0 1-.44-.4.44.44 0 0 1 .48-.44z"/><path class="a" d="M232.99 61.44a6.66 6.66 0 0 0 .48 1.24 3.09 3.09 0 0 0 2.72 1.8.44.44 0 0 1 .44.4.44.44 0 0 1-.44.44c-3.56 0-4.12-3.52-5-3.52s-2.12 4.32-5.6 4.32a2 2 0 0 1-2.2-2.12 4.53 4.53 0 0 1 .64-2.16c-3.08 1.44-7.92 3.48-11.24 3.48a.44.44 0 0 1-.44-.44c0-.32.32-.4.56-.4 2.2-.08 6-1.4 8.08-2.28a31.61 31.61 0 0 0 4.4-2 5.2 5.2 0 0 1 3.64-1.84 2.82 2.82 0 0 1 2.48 1.28c1.16-.2 1.28 1.04 1.48 1.8zm-2.88-.92c-.28-.52-.64-1-1.28-1-1.68 0-4.08 2.68-4.08 4.28a1.06 1.06 0 0 0 1.12 1.16c1.8-.03 3.36-3.16 4.29-4.44z"/><path class="a" d="M255.16 59.84a3.57 3.57 0 0 1 1.44 2.72c0 4.16-5.44 5.32-8.68 5.32-.32 0-1.12-.16-1.12-.6s.64-.52 1-.52a13.82 13.82 0 0 0 3.4-.32 5.33 5.33 0 0 0 3.56-2.12 2.91 2.91 0 0 0 .52-1.72c0-2.16-3.92-4.32-5.32-5.84a69.07 69.07 0 0 1-7.44 6.24c-2.24 1.56-3.56 2.32-6.36 2.32a.44.44 0 0 1-.44-.4.44.44 0 0 1 .44-.44 9 9 0 0 0 4.36-1.36 11.6 11.6 0 0 0 1.28-.84 61.12 61.12 0 0 0 5.88-4.76l1.68-1.6a2.73 2.73 0 0 1-.32-1.24c0-1.48 1.48-3.6 3.08-3.6a1.21 1.21 0 0 1 1.24 1.28c0 1.32-1.56 2.84-2.56 3.6h-.08c1.35 1.4 2.95 2.6 4.44 3.88zm-5-5.12v.4c.48-.44 2-1.8 2-2.48a.34.34 0 0 0-.36-.36c-.81 0-1.64 1.76-1.64 2.44z"/></svg>