<svg xmlns="http://www.w3.org/2000/svg" viewBox="0 0 39.93 39.88"><title>p10_s25</title><path d="M19.96 0a20 20 0 0 0-20 19.94 20 20 0 0 0 20 19.94 20 20 0 0 0 20-19.94A20 20 0 0 0 19.96 0zm0 38A18.14 18.14 0 0 1 1.83 19.89 18.14 18.14 0 0 1 19.96 1.81a18.14 18.14 0 0 1 18.18 18.13 18.14 18.14 0 0 1-18.18 18.11z" fill="#3C1604"/><path d="M20.01 5.81A14.18 14.18 0 0 0 5.84 19.94a14.18 14.18 0 0 0 14.17 14.15 14.18 14.18 0 0 0 14.13-14.15A14.18 14.18 0 0 0 20.01 5.81zm0 26.48A12.35 12.35 0 0 1 7.66 19.96 12.35 12.35 0 0 1 20.01 7.61a12.35 12.35 0 0 1 12.35 12.33 12.35 12.35 0 0 1-12.34 12.33z" fill="#3C1604"/><path d="M26.34 13.03l-5.88 5.44a2 2 0 0 0-1.56.09L15 15.15a.91.91 0 0 0-1.29.08.91.91 0 0 0 .08 1.29l4 3.5a2 2 0 0 0 0 .38 2 2 0 0 0 2 2 2 2 0 0 0 2-2 2 2 0 0 0-.1-.63l5.85-5.41a.91.91 0 0 0 0-1.29.91.91 0 0 0-1.29 0zm-6.4 7.51a.18.18 0 0 1-.3 0 .21.21 0 0 1 0-.3.21.21 0 0 1 .3 0 .21.21 0 0 1 0 .3z" fill="#3C1604"/></svg>