<svg xmlns="http://www.w3.org/2000/svg" viewBox="0 0 196.34 79.9"><title>p10_s4_2</title><circle cx="39.95" cy="39.95" r="37.95" fill="none" stroke="#3c1604" stroke-linecap="round" stroke-linejoin="round" stroke-width="4" stroke-dasharray=".9851173758506775,9.851173400878906"/><g opacity=".9" fill="#3c1604"><path d="M24.55 35.72a.33.33 0 0 1 .34.32.51.51 0 0 1-.15.32 3.92 3.92 0 0 1-3.15 1.28c-2.61 0-4.2-1.72-4.2-4.42a4.22 4.22 0 0 1 4.3-4.48 3.81 3.81 0 0 1 3 1.18.56.56 0 0 1 .17.37.43.43 0 0 1-.46.42c-.25 0-.42-.15-.61-.4a2.32 2.32 0 0 0-2.14-1c-1.79 0-2.9 1.67-2.9 3.88s1 3.86 2.9 3.86a3 3 0 0 0 2.36-1c.25-.2.35-.33.54-.33zM26.76 25.3c0-.35.3-.54.67-.54s.67.19.67.54v11.63c0 .35-.3.54-.67.54s-.67-.19-.67-.54zM30.55 25.92c0-.37.32-.67.86-.67s.86.3.86.67-.34.69-.86.69-.86-.3-.86-.69zm.14 3.53c0-.35.3-.54.69-.54s.66.19.66.54v7.49c0 .35-.29.54-.66.54s-.69-.19-.69-.54zM41.24 35.59h-.08a3.26 3.26 0 0 1-3.19 2.06c-2.56 0-4-1.92-4-4.42a4.15 4.15 0 0 1 4.25-4.49 3.05 3.05 0 0 1 3 1.94h.08v-1.25c0-.34.27-.52.64-.52s.66.17.66.51v11.16c0 .35-.3.54-.67.54s-.67-.19-.67-.54zm-5.85-2.39c0 2.34 1.11 3.83 2.82 3.83 2 0 3.08-1.74 3.08-3.83s-1-3.83-3-3.83-2.9 1.54-2.9 3.82zM52.52 36.95c0 .34-.29.52-.66.52s-.62-.19-.62-.52v-1.16h-.08a3 3 0 0 1-2.85 1.85c-2.24 0-3.22-1.26-3.22-3.42v-4.77c0-.35.3-.54.67-.54s.67.19.67.54v4.92c0 1.33.46 2.63 2.18 2.63 1.52 0 2.58-1.32 2.58-3.19v-4.36c0-.35.3-.54.67-.54s.67.19.67.54zM61.22 36.02c.22-.24.32-.29.47-.29a.31.31 0 0 1 .34.32.53.53 0 0 1-.13.32 4.35 4.35 0 0 1-3.36 1.26c-2.46 0-4.13-1.62-4.13-4.37 0-2.58 1.58-4.54 4.21-4.54a3.5 3.5 0 0 1 3.73 3.78v.15c0 .34-.17.59-.64.59h-5.9v.13c0 2.06 1 3.64 2.88 3.64a3.18 3.18 0 0 0 2.53-.99zm-.17-3.39v-.25c0-2.06-1-3.08-2.48-3.08s-2.6 1.15-2.73 3.34zM30.92 49.14c.35 0 .64.19.64.52v7.52c0 .34-.3.52-.66.52s-.62-.19-.64-.52V55.8h-.07a3.22 3.22 0 0 1-3.16 2.05c-2.51 0-3.84-1.84-3.84-4.37 0-2.7 1.72-4.55 4.17-4.55a2.93 2.93 0 0 1 2.82 1.92h.07v-1.2a.57.57 0 0 1 .67-.51zm-6.32 4.37c0 2.38 1 3.71 2.68 3.71 1.89 0 3-1.69 3-3.76s-.88-3.86-2.82-3.86c-1.77 0-2.86 1.6-2.86 3.91zM40.69 55.85h-.08a3.26 3.26 0 0 1-3.16 2c-2.56 0-4-1.92-4-4.42a4.16 4.16 0 0 1 4.24-4.46 3.05 3.05 0 0 1 3 1.94h.08v-1.25c0-.34.27-.52.64-.52s.66.17.66.51v11.2c0 .36-.3.54-.67.54s-.71-.23-.71-.54zm-5.85-2.39c0 2.34 1.11 3.83 2.82 3.83 2 0 3.08-1.74 3.08-3.83s-1-3.83-3-3.83-2.87 1.52-2.87 3.79zM52 57.18c0 .34-.29.52-.66.52s-.62-.19-.62-.52v-1.16h-.08a3 3 0 0 1-2.87 1.83c-2.24 0-3.22-1.26-3.22-3.42v-4.75c0-.35.3-.54.67-.54s.67.19.67.54v4.92c0 1.33.46 2.63 2.18 2.63 1.52 0 2.58-1.31 2.58-3.19v-4.36c0-.35.3-.54.67-.54s.67.19.67.54zM54.44 46.16c0-.37.32-.68.86-.68s.86.3.86.68-.34.69-.86.69-.86-.3-.86-.69zm.19 3.52c0-.35.3-.54.69-.54s.66.19.66.54v7.49c0 .35-.29.54-.66.54s-.69-.19-.69-.54z"/></g><path d="M102.18 42.45a.55.55 0 0 1 .59.53 1 1 0 0 1-.31.66 5.06 5.06 0 0 1-4 1.47c-3.48 0-5.92-2-5.92-5.9a5.65 5.65 0 0 1 5.85-5.94 5.43 5.43 0 0 1 4 1.34.92.92 0 0 1 .31.66.7.7 0 0 1-.77.7 1.65 1.65 0 0 1-1.14-.7 2.71 2.71 0 0 0-2.22-1c-1.87 0-3 2.07-3 4.77 0 2.93 1 5 3.19 5a3.34 3.34 0 0 0 2.63-1.19c.3-.29.53-.4.79-.4zM109.86 33.28c3.67 0 5.79 2.18 5.79 5.83s-2.24 6-5.81 6-5.79-2.16-5.79-5.81 2.29-6.02 5.81-6.02zm0 10.85c1.8 0 2.82-1.8 2.82-5 0-3.52-1-4.86-2.82-4.86s-2.79 1.92-2.79 5c-.03 3.47.94 4.85 2.76 4.85zM117.93 34.49c0-.68.62-1 1.39-1s1.21.35 1.28 1l.07.79h.13a3.53 3.53 0 0 1 3.46-2c2.88 0 4.07 1.78 4.07 4.58v6c0 .73-.66 1.08-1.47 1.08s-1.43-.35-1.43-1.08V37.3c0-1.39-.44-2.82-2.09-2.82s-2.49 1.58-2.49 3.65v5.72c0 .73-.64 1.08-1.45 1.08s-1.45-.35-1.45-1.08zM134.54 34.77v7.24c0 1.67.75 2 1.41 2a2.68 2.68 0 0 0 1.17-.29 2.39 2.39 0 0 1 1-.37c.35 0 .57.2.57.46s-.22.48-.59.7a5.88 5.88 0 0 1-2.68.59c-2.07 0-3.76-.92-3.76-3.7v-6.63l-.9-.07c-.57 0-.81-.15-.81-.53s.26-.51.81-.55h1l.09-2.18c0-.7.48-1.17 1.41-1.17s1.34.35 1.34 1.06v2.24h3.28c.55 0 .81.2.81.62s-.31.62-.81.62zM140.63 30.06c0-.79.7-1.32 1.72-1.32s1.72.53 1.72 1.32-.7 1.34-1.72 1.34-1.72-.55-1.72-1.34zm.26 4.49c0-.73.66-1.1 1.45-1.1s1.45.37 1.45 1.1v9.3c0 .73-.64 1.08-1.45 1.08s-1.45-.35-1.45-1.08zM147.1 34.49c0-.68.62-1 1.39-1s1.21.35 1.28 1l.07.79h.13a3.53 3.53 0 0 1 3.46-2c2.88 0 4.07 1.78 4.07 4.58v6c0 .73-.66 1.08-1.47 1.08s-1.43-.35-1.43-1.08V37.3c0-1.39-.44-2.82-2.09-2.82s-2.49 1.58-2.49 3.65v5.72c0 .73-.64 1.08-1.45 1.08s-1.45-.35-1.45-1.08zM170.8 43.85c0 .68-.64 1-1.41 1s-1.23-.35-1.28-1l-.07-.84h-.13a3.56 3.56 0 0 1-3.46 2.13c-2.88 0-4.07-1.78-4.07-4.58v-6c0-.73.66-1.08 1.47-1.08s1.45.35 1.45 1.08v6.56c0 1.39.42 2.82 2.07 2.82s2.49-1.58 2.49-3.65v-5.76c0-.73.66-1.08 1.47-1.08s1.45.35 1.45 1.08zM183.45 33.45c.75 0 1.32.35 1.32 1v9.42c0 .68-.64 1-1.41 1s-1.23-.35-1.3-1l-.11-1.02h-.13a3.56 3.56 0 0 1-3.59 2.27c-3.52 0-5.15-2.49-5.15-5.76 0-3.59 2.29-6.07 5.57-6.07a3.46 3.46 0 0 1 3.23 1.91h.13l.09-.73c.09-.62.59-1.02 1.35-1.02zm-7.37 5.81c0 3.13 1.12 4.53 2.71 4.53 2.11 0 3.15-2 3.15-4.49 0-2.82-.79-4.82-2.95-4.82-1.81.01-2.91 1.92-2.91 4.78zM190.77 35.61h.13a3.32 3.32 0 0 1 3.19-2.33 3.62 3.62 0 0 1 1.34.2c.51.18.9.44.9 1a.92.92 0 0 1-.95 1 2.59 2.59 0 0 1-1-.29 3.56 3.56 0 0 0-1.19-.22 1.93 1.93 0 0 0-1.85 1.08 5.92 5.92 0 0 0-.44 2.53v5.27c0 .73-.66 1.08-1.47 1.08s-1.45-.35-1.45-1.08v-9.36c0-.68.64-1 1.41-1s1.23.35 1.28 1z" fill="#3c1604"/></svg>