<svg xmlns="http://www.w3.org/2000/svg" viewBox="0 0 36.46 39.29"><defs><style>.a{fill:#fff}</style></defs><title>p10_s14</title><path class="a" d="M24.43.1a15 15 0 0 1-4.63 1c-8.65.43-13.91 6.67-14.15 13.34H4a1.09 1.09 0 0 0-1.09 1.09v5.41H1.08a1.09 1.09 0 0 0-1.09 1.09v12.22a5.09 5.09 0 0 0 5.08 5.08h26.29a5.09 5.09 0 0 0 5.08-5.08V21.98a1.09 1.09 0 0 0-1.09-1.09h-1.83v-5.41a1.09 1.09 0 0 0-1.09-1.09h-1.82a10.74 10.74 0 0 0-3.17-6.68c-3.49-3-3.24-4-1.85-5.75A1.096 1.096 0 0 0 24.43.1zm-4.42 3.12c.84-.09 1.68-.17 2.51-.32-.57 2.06.45 3.91 2.54 5.64a8.65 8.65 0 0 1 3.31 5.85H7.83c.55-6.7 5.33-10.7 12.19-11.17zM5.09 16.57h26.26v4.32H5.09zM34.27 34.2a2.9 2.9 0 0 1-2.9 2.9H5.08a2.9 2.9 0 0 1-2.9-2.9V23.07h32.09V34.2z"/></svg>