<svg xmlns="http://www.w3.org/2000/svg" viewBox="0 0 98.64 46.28"><defs><style>.a{fill:#fff}</style></defs><title>p10_s13</title><path class="a" d="M22.71 8.86a.36.36 0 0 1 .38.35c0 .38-.35.56-1.06.67.26 4.49.67 6.77.67 7s-.21.32-.44.32c-.7 0-.73-1.67-.82-2.55L21 10.08c-1.5.29-6 1-6 1.08-1.2 2.7-1.73 3.72-2.29 5.16-.18.41-.35 1-1 1a.33.33 0 0 1-.35-.38c0-.29 1.55-3.7 2.49-5.66-.26 0-.47.06-.65.06-.62 0-.85-.23-.85-.47 0-.56.88-.41 2-.65 1.88-4.17 3.67-8.59 4.49-9.56a1.45 1.45 0 0 1 1.14-.65c1.32 0 1.26 2.43 1.38 3.52.18 1.79.35 3 .62 5.43l.44-.06a1.3 1.3 0 0 1 .29-.04zm-1.79.26c-.23-3.2-.5-5.19-.73-7.1-.06-.47-.21-.73-.44-.73-.53 0-2.32 4.25-4.28 8.74 2.11-.32 3.26-.5 4.87-.79zm9.15 1.85c0 .12-.09.15-.18.15-.32 0-.47-.44-1.11-.44-1.29 0-2.38 2.23-2.38 3.34a1.84 1.84 0 0 0 1.85 1.85c.18 0 .29.09.29.29a.3.3 0 0 1-.29.32 2.68 2.68 0 0 1-2.82-2.46c0-1.47 1.38-4 3-4 .52-.02 1.64.37 1.64.95z"/><path class="a" d="M43.03 13.64a4.87 4.87 0 0 0 .35.91 2.26 2.26 0 0 0 2 1.32.32.32 0 0 1 .32.29.33.33 0 0 1-.32.32c-2.61 0-3-2.58-3.67-2.58s-1.55 3.17-4.11 3.17a1.45 1.45 0 0 1-1.61-1.55 3.32 3.32 0 0 1 .47-1.58c-2.26 1.06-5.81 2.55-8.24 2.55a.33.33 0 0 1-.32-.32c0-.23.23-.29.41-.29a21.56 21.56 0 0 0 5.92-1.67 23.17 23.17 0 0 0 3.23-1.5 3.82 3.82 0 0 1 2.69-1.4 2.07 2.07 0 0 1 1.8 1c.84-.13.93.77 1.08 1.33zm-2.11-.67c-.21-.38-.47-.73-.94-.73-1.23 0-3 2-3 3.14a.78.78 0 0 0 .82.85c1.33-.01 2.47-2.32 3.15-3.26z"/><path class="a" d="M61.06 10.83a4.6 4.6 0 0 0 .85 1.58 3.42 3.42 0 0 0 2.17 1.29c.26 0 .79-.06.79.35a.3.3 0 0 1-.29.32 5.68 5.68 0 0 1-4.52-3c-.85 2.08-2.49 5.69-5.16 5.69a2.14 2.14 0 0 1-2.14-2.4 7.63 7.63 0 0 1 .21-1.64 10.8 10.8 0 0 1-7.33 3.49c-.23 0-.65.06-.65-.32a.3.3 0 0 1 .32-.29 11.4 11.4 0 0 0 1.41-.12 9.3 9.3 0 0 0 2.49-.85 15.39 15.39 0 0 0 4.11-3.17c0-.12.76-2.32.88-2.61.73-2.08 3-8.09 5.54-8.09a1.41 1.41 0 0 1 1.35 1.52c0 1.58-1.38 3.28-2.38 4.46-.56.65-1.17 1.26-1.76 1.88l-2.87 3a10.58 10.58 0 0 0-.44 2.7c0 .73.32 1.55 1.17 1.55a3.72 3.72 0 0 0 2.73-1.85 15.68 15.68 0 0 0 1.79-4c.12-.29.29-.59.65-.59.67-.02.9.58 1.08 1.1zm-2.85-7.74a40.44 40.44 0 0 0-3.52 7l-.06.21c1.17-1.26 4.28-4.58 4.93-5.92a3.66 3.66 0 0 0 .41-1.44c0-.35-.12-.76-.53-.76s-.96.55-1.22.9z"/><path class="a" d="M74.52 13.64a11.42 11.42 0 0 0 1.73.09.33.33 0 0 1 .32.32.33.33 0 0 1-.32.32 11.37 11.37 0 0 1-1.91-.12 4.69 4.69 0 0 1-3.9 3 2 2 0 0 1-1.88-2.17v-.18a2.4 2.4 0 0 1 0-.41 6.59 6.59 0 0 1 .38-1.23 9.28 9.28 0 0 1-4.49 1.14.33.33 0 0 1-.32-.32.33.33 0 0 1 .32-.32 10.59 10.59 0 0 0 5.19-1.7c.85-1.23 2-2.14 2.84-2.14s1.17.73 1.17 1.47a2.17 2.17 0 0 1 .85 1.82 2.53 2.53 0 0 1 .02.43zm-1.06.38a2 2 0 0 1-1.64-1.91c0-.62.47-.94 1.14-1a.6.6 0 0 0-.5-.32 1.17 1.17 0 0 0-.73.26 6 6 0 0 0-2.23 4.08 1.2 1.2 0 0 0 1.23 1.29 3.65 3.65 0 0 0 2.73-2.4zm.18-.62v-.41c0-.62-.32-1.11-.82-1.11-.12 0-.18.12-.18.23a1.32 1.32 0 0 0 1 1.3z"/><path class="a" d="M91.82 15.9c0 .47-.94.7-1.32.7-1.79 0-2.55-2-2.7-3.52-.73 1.73-2.38 4.16-4.49 4.16a2.33 2.33 0 0 1-2.26-2.55 9.1 9.1 0 0 1 .62-2.64 9.14 9.14 0 0 1-5.46 2.32.33.33 0 0 1-.32-.32.33.33 0 0 1 .32-.32 5 5 0 0 0 1.47-.26 7.77 7.77 0 0 0 1.73-.82 18.55 18.55 0 0 1 3-1.82.6.6 0 0 1 .62.62c0 .76-1.08 1.94-1.08 3.37a1.43 1.43 0 0 0 1.52 1.58 1.76 1.76 0 0 0 1-.32c1.5-1 1.94-2.35 2.7-3.9.21-.41.62-1 1.09-1s.73.73.73 1.2-.09.73-.09 1.11c0 1.09.35 2.43 1.67 2.43.38 0 .76-.18 1.14-.18a.13.13 0 0 1 .11.16zM7.95 33.09h-.76a6.73 6.73 0 0 1-1.52-.15 4.39 4.39 0 0 1-3.84 3c-1.26 0-1.85-1.14-1.85-2.26a5.73 5.73 0 0 1 1.52-3.52 3.8 3.8 0 0 1 2.38-1.55c.85 0 1.2.82 1.2 1.55a1.49 1.49 0 0 1 .85 1.47 4.37 4.37 0 0 1-.06.62 3.93 3.93 0 0 0 1 .15h1.06c.15 0 .41.09.41.26a.44.44 0 0 1-.39.43zm-3.05-.38a2.15 2.15 0 0 1-1.67-1.82c0-.62.53-.91 1.08-.91a.48.48 0 0 0-.44-.32 1.43 1.43 0 0 0-.67.23 5.1 5.1 0 0 0-2.29 4 1.09 1.09 0 0 0 1.17 1.2 3.12 3.12 0 0 0 2.87-2.38zm.18-1.11a.89.89 0 0 0-.85-.85c-.15 0-.21.18-.21.29a1.18 1.18 0 0 0 1 1 2.36 2.36 0 0 0 .08-.45zm23.04-4.35c0 .73-2.05.76-2.55.79a1.22 1.22 0 0 1-.12.29 11.27 11.27 0 0 0-1 3.75 2.39 2.39 0 0 0 .7 1.91 2.62 2.62 0 0 0 1.52.56c.15 0 .32.12.32.29a.33.33 0 0 1-.32.32 2.68 2.68 0 0 1-2.9-2.9 10.67 10.67 0 0 1 .26-1.91 10.21 10.21 0 0 1-1.08 1.44c-1 1-3.34 3.31-4.81 3.31-.23 0-.76-.09-.76-.38s.73-.29.91-.35a6.52 6.52 0 0 0 2.23-1.29 13 13 0 0 0 3.78-5c-.44 0-.91.06-1.35.06s-.94-.09-.94-.47c0-.59 2.2-.53 2.67-.53.18-.38.65-1.91 1.14-1.91s.44.59.44.82a3.38 3.38 0 0 1-.32 1.06 10.62 10.62 0 0 1 1.67 0c.15.03.51-.06.51.14z"/><path class="a" d="M37.53 29.92a1.5 1.5 0 0 1-.18.62 2.24 2.24 0 0 1-.73.65c-.38.23-.79.41-1.17.62-.7.38-1.35.79-2.05 1.14.12 1.11.85 1.5 1.88 1.64.15 0 .32.12.32.29a.33.33 0 0 1-.32.32 2.84 2.84 0 0 1-2.73-1.82 13.22 13.22 0 0 1-5.81 1.82.33.33 0 0 1-.35-.32.32.32 0 0 1 .32-.29 8.5 8.5 0 0 0 2.58-.44 26.35 26.35 0 0 0 3.2-1.5c0-1.73 1.58-4 3.46-4a1.45 1.45 0 0 1 1.58 1.27zm-1.26.44a.48.48 0 0 0 .15-.35c0-.35-.35-.47-.65-.47-1.26 0-2.08 1.52-2.32 2.58a19 19 0 0 0 2.82-1.76z"/><path class="a" d="M59.08 31.1c.62 1 .59 2.9 1.7 3.37a2.29 2.29 0 0 0 .62.12c.15 0 .32.12.32.29a.33.33 0 0 1-.32.32c-2.9 0-2.38-3.49-3.34-3.49-.79 0-2.17 3.49-3.55 3.49a1 1 0 0 1-.94-.7c-.35-.85-.53-1.79-.91-2.64-.09-.21-.23-.53-.5-.53-.79 0-2.49 4-3.84 4-.59 0-.85-.56-.85-1.06 0-1 .47-2 .47-2.93 0-.41-.15-.7-.59-.7a1.44 1.44 0 0 0-.67.23c-.62.38-1.23.79-1.88 1.14-2.7 1.5-6.45 3.23-9.56 3.23a.33.33 0 0 1-.32-.32c0-.26.23-.29.44-.29a18.62 18.62 0 0 0 6-1.67 21.5 21.5 0 0 0 2.93-1.55c.7-.44 2.4-1.82 3.2-1.88h.21c.82 0 1.2.65 1.2 1.41 0 1.14-.62 2.35-.62 3.25a.23.23 0 0 0 .21.23c.62 0 2.58-4.11 4-4.11s1.32 3.78 2.23 3.78c.47 0 1.94-2.32 2.26-2.73a1.65 1.65 0 0 1 1.23-.76 1.12 1.12 0 0 1 .87.5z"/><path class="a" d="M75.53 34.88a.32.32 0 0 1-.29.32 17.21 17.21 0 0 1-2.64-.18 5.28 5.28 0 0 1-2.05-.59c-.91 3.14-1.44 4.25-2.32 6.75s-1.5 5.1-3.31 5.1c-.85 0-1.47-1-1.47-2.2 0-4.16 5.19-11 7.45-14.25 0-.18.06-.35.06-.56s-.15-.79-.47-.79a1.5 1.5 0 0 0-.91.65c-2.58 3.43-5.25 6.07-8.21 6.07a.31.31 0 0 1-.32-.32.32.32 0 0 1 .32-.32h.23c1.38 0 3.34-1.17 4.6-2.43 1.58-1.55 3.55-4.87 4.75-4.87.94 0 .91 1.23.91 1.76a4.55 4.55 0 0 1 2.29-.88 2.32 2.32 0 0 1 2.55 2.11c0 1.73-2.26 3.78-4.43 3.93a8.52 8.52 0 0 0 3 .41.32.32 0 0 1 .26.29zm-6.83 2.41c.65-2 1.38-3.84 1.85-5.75-2.17 3.31-2.9 4.22-4 6.19a27.35 27.35 0 0 0-1.85 4.19 7.18 7.18 0 0 0-.38 2.14c0 .88.21 1.35.67 1.35.76 0 1.2-1.11 1.79-2.7.74-2.08 1.17-3.23 1.92-5.4zm3-3.52c1.35 0 4-1.47 4-3.4a1.24 1.24 0 0 0-1.41-1.2 4.54 4.54 0 0 0-2.49.91 23.61 23.61 0 0 1-.91 3.58 3.11 3.11 0 0 0 .77.11z"/><path class="a" d="M92.24 32.91c0 .56-1.14.53-1.5.53a3.17 3.17 0 0 1-1.17-.18 4.35 4.35 0 0 1-3.87 2.7c-1.26 0-1.85-1.14-1.85-2.26a4.21 4.21 0 0 1 .23-1.35l-.09.06c-2.61 1.11-6 2.79-8.83 2.79a.3.3 0 0 1-.29-.32.32.32 0 0 1 .29-.29 9.28 9.28 0 0 0 2.52-.44 34.35 34.35 0 0 0 6.89-2.82c.59-1 1.94-2.64 3.17-2.64.79 0 1.17.76 1.17 1.47v.15a2.24 2.24 0 0 1 .88 1.82 3.26 3.26 0 0 1-.06.56 4 4 0 0 0 1.32.15c.2-.04 1.19-.16 1.19.07zm-3.43 0c-.62-.35-1.76-1.17-1.76-2 0-.62.62-.88 1.14-.91a.51.51 0 0 0-.44-.32 1.44 1.44 0 0 0-.67.23 5.08 5.08 0 0 0-2.29 3.93 1.09 1.09 0 0 0 1.17 1.2 3.08 3.08 0 0 0 2.85-2.13zm.15-.76c0-.41-.38-1.35-.88-1.35-.12 0-.21.15-.21.26 0 .47.76.91 1.08 1.14zm6.18 1.79a.76.76 0 0 1 .79.7.72.72 0 0 1-.62.67.91.91 0 0 1-.85-.79c0-.26.09-.44.29-.5a.81.81 0 0 1 .39-.08zm.73-3c-.15 0-.21-.12-.21-.26a12.22 12.22 0 0 1 .41-2.26c.23-1.06.32-1.88.53-2.9.23-1.29.62-4.69 1.5-4.69a.56.56 0 0 1 .53.62 1.77 1.77 0 0 1-.09.59 75 75 0 0 1-2.23 8.27c-.2.49-.26.67-.43.67z"/></svg>