<svg xmlns="http://www.w3.org/2000/svg" viewBox="0 0 77.86 96.67"><defs><style>.a{fill:#fff}</style></defs><title>p10_s1</title><path class="a" d="M75.31 96.67H7.86a2.55 2.55 0 0 1-2.55-2.55V2.55A2.55 2.55 0 0 1 7.86 0h67.45a2.55 2.55 0 0 1 2.55 2.55v91.56a2.55 2.55 0 0 1-2.55 2.56zm-64.9-5.1h62.34V5.11H10.41z"/><path class="a" d="M24.24 30.65a7.6 7.6 0 0 1-7.59-7.59 7.6 7.6 0 0 1 7.59-7.59 7.6 7.6 0 0 1 7.59 7.59 7.6 7.6 0 0 1-7.59 7.59zm0-10.08a2.49 2.49 0 0 0-2.49 2.49 2.49 2.49 0 0 0 2.49 2.49 2.49 2.49 0 0 0 2.49-2.49 2.49 2.49 0 0 0-2.49-2.48z"/><path class="a" d="M19.16 25.62H2.51a2.55 2.55 0 0 1-2.55-2.55 2.55 2.55 0 0 1 2.55-2.55h16.65a2.55 2.55 0 0 1 2.55 2.55 2.55 2.55 0 0 1-2.55 2.55zm5.08 30.31a7.6 7.6 0 0 1-7.59-7.59 7.6 7.6 0 0 1 7.59-7.59 7.6 7.6 0 0 1 7.59 7.59 7.6 7.6 0 0 1-7.59 7.59zm0-10.08a2.49 2.49 0 0 0-2.49 2.49 2.49 2.49 0 0 0 2.49 2.49 2.49 2.49 0 0 0 2.49-2.49 2.49 2.49 0 0 0-2.49-2.49z"/><path class="a" d="M19.16 50.89H2.51a2.55 2.55 0 0 1-2.55-2.55 2.55 2.55 0 0 1 2.55-2.55h16.65a2.55 2.55 0 0 1 2.55 2.55 2.55 2.55 0 0 1-2.55 2.55zm5.08 30.34a7.6 7.6 0 0 1-7.59-7.59 7.6 7.6 0 0 1 7.59-7.59 7.6 7.6 0 0 1 7.59 7.59 7.6 7.6 0 0 1-7.59 7.59zm0-10.08a2.49 2.49 0 0 0-2.49 2.49 2.49 2.49 0 0 0 2.49 2.49 2.49 2.49 0 0 0 2.49-2.49 2.49 2.49 0 0 0-2.49-2.52z"/><path class="a" d="M19.16 76.16H2.51a2.55 2.55 0 0 1-2.55-2.55 2.55 2.55 0 0 1 2.55-2.55h16.65a2.55 2.55 0 0 1 2.55 2.55 2.55 2.55 0 0 1-2.55 2.55z"/></svg>