<svg xmlns="http://www.w3.org/2000/svg" viewBox="0 0 341.07 32.07"><defs><style>.a{fill:#fff}</style></defs><title>p10_s9</title><path class="a" d="M7.6 5.87a2 2 0 0 1-.2.68c-.44 1.4-1.56 5.36-1.8 6.36a51.36 51.36 0 0 0-1.48 5.2c-.48 1.72-1.48 7-2.4 7a.58.58 0 0 1-.6-.56 11.77 11.77 0 0 1 .76-2.8c1.36-4.84 2.76-10.24 4-14.48a20.88 20.88 0 0 1-3.12 3.12c-.6.64-1.64 2-2.4 2-.28-.08-.36-.12-.36-.44 0-.56 1.32-1.72 2.48-2.8 1-.92 3.32-3.76 4.48-3.8a.42.42 0 0 1 .4.16.33.33 0 0 1 .24.36zM11.36 21.63a1.12 1.12 0 0 1 1.08 1 .85.85 0 0 1-.84.88 1 1 0 0 1-1.07-1.04.65.65 0 0 1 .24-.6.88.88 0 0 1 .59-.24zM42.64 2.4c2.56 0 4.56 1.2 4.56 3.28 0 5-7.48 6.88-10.16 8.28l-3.6 10.68c-.28.8-.64 1.24-.92 1.24s-.48-.24-.48-.76a11.37 11.37 0 0 1 .72-2.4c.8-2.48 1.8-5.36 2.68-8a1.5 1.5 0 0 1-.4 0c-.44 0-1.2-.32-1.2-.64s.52-.56 2.16-1c1.16-3.56 2.24-6.52 2.48-7.32l.36-1.2A11.2 11.2 0 0 0 37 5.72c-.8.64-1.44 1.72-2 1.72a.82.82 0 0 1-.84-.8c0-.44.52-.92 1.48-1.52a23.63 23.63 0 0 1 2.76-1.8 9.69 9.69 0 0 1 4.24-.92zm2.89 3.47c0-1.36-1-2.36-2.8-2.36a7.17 7.17 0 0 0-2.24.4c-.48 1.56-1.64 4.92-3 8.68 2.6-.92 5.36-2.2 7-4.28a4 4 0 0 0 1.04-2.44zM61.72 22.47a.44.44 0 0 1 .4.44.43.43 0 0 1-.4.4c-2 0-4.32-1-4.32-3.36 0-1.64 1.12-3.4 1.12-5 0-1.16-1.2-1.52-2-2a1.74 1.74 0 0 1-.16.28 27.83 27.83 0 0 1-7 7.52 12.45 12.45 0 0 1-3.92 2.12 7.9 7.9 0 0 1-2.36.4c-.44 0-1.48-.08-1.48-.72 0-.36 1.08-.28 1.32-.28a10.14 10.14 0 0 0 4.4-1.52c2.4-1.36 6.88-5.72 8.16-8.36-.92-.48-2-1.16-2-2.36a1.76 1.76 0 0 1 1.8-1.64 2 2 0 0 1 1.92 2 4.13 4.13 0 0 1-.24 1.4c1.36.6 2.72 1.32 2.72 3s-.8 3.16-1.12 4.8a1.36 1.36 0 0 0 0 .4c-.03 1.64 1.8 2.48 3.16 2.48zm-5.8-11.16c0-.12.12-.64.12-.88s-.16-.8-.6-.8a.65.65 0 0 0-.64.6c0 .45.73.89 1.12 1.09z"/><path class="a" d="M81.39 21.87c0 1-2.08 1.48-2.88 1.48-3.6 0-4.12-3.52-5-3.52s-2.16 4.32-5.64 4.32a2 2 0 0 1-2.2-2.16v-.2a6.08 6.08 0 0 1-3.88 1.56c-.32 0-.64 0-.64-.44a.44.44 0 0 1 .44-.4c1.8 0 3.28-1.28 4.6-2.4 1-1.76 3.08-3.8 5.2-3.8a2.71 2.71 0 0 1 2.44 1.28 1.1 1.1 0 0 1 1.12.68 6.87 6.87 0 0 1 .36 1.2c.44 1.56 1.4 3 3.2 3a6.85 6.85 0 0 0 2.64-.92c.16 0 .24.12.24.32zm-9-3.32c-.32-.52-.64-1-1.32-1-1.64 0-4 2.68-4 4.28a1.06 1.06 0 0 0 1.12 1.16c1.81-.04 3.29-3.24 4.25-4.48zM112.53 19.87h-.24a6.88 6.88 0 0 1-6.56 4c-6.4 0-9.6-4.52-9.6-10.56 0-6.44 4.24-11 10.36-11a6 6 0 0 1 6 3.68h.24l.16-1.48c.12-1.24 1-1.88 2.36-1.88s2.56.6 2.56 1.84v25.6c0 1.32-1.2 2-2.64 2s-2.64-.68-2.64-2zm-11-6.68c0 5.72 2 8.48 5.2 8.48 4 0 5.88-3.92 5.88-8.52 0-4.84-1.56-8.6-5.48-8.6-3.53-.03-5.6 3.45-5.6 8.61zM142.27 21.47c0 1.24-1.16 1.88-2.56 1.88s-2.24-.64-2.32-1.88l-.12-1.52h-.24a6.46 6.46 0 0 1-6.28 3.88c-5.24 0-7.4-3.24-7.4-8.32V4.6c0-1.32 1.2-2 2.68-2s2.64.64 2.64 2v11.92c0 2.52.76 5.12 3.76 5.12 2.8 0 4.52-2.88 4.52-6.64V4.6c0-1.32 1.2-2 2.68-2s2.64.64 2.64 2zM162.83 19.79c.6-.6 1-.8 1.44-.8a1 1 0 0 1 1.08 1 1.74 1.74 0 0 1-.56 1.2c-1.88 2.12-5 2.68-7.8 2.68-6.28 0-10.56-3.76-10.56-10.68 0-6 4-10.84 10.56-10.84 4.8 0 9 2.8 9 9.32v.2c0 1.16-.56 1.8-2.08 1.8h-12.12v.2c0 4.48 2.08 8 6 8a6.36 6.36 0 0 0 5.04-2.08zm-1.88-8.24v-.84c0-3.8-.88-6.64-4.16-6.64-3 0-4.76 2.48-4.92 7.48zM200.47 21.55c0 1.32-1.16 2-2.64 2s-2.64-.64-2.64-2V8.87c0-2.48-.64-4.36-3-4.36s-4.08 2.32-4.08 6v11c0 1.32-1.16 2-2.64 2s-2.64-.64-2.64-2V8.87c0-2.52-.64-4.4-3-4.4-2.24 0-4.08 2.32-4.08 6v11c0 1.32-1.16 2-2.64 2s-2.64-.64-2.64-2v-17c0-1.24 1.16-1.88 2.56-1.88s2.2.64 2.28 1.88l.08 1.32h.16a6.09 6.09 0 0 1 5.88-3.52c2.6 0 5.36 1.12 6.12 3.52h.2a6.3 6.3 0 0 1 5.88-3.52c4.24 0 6.92 2.32 6.92 6.76zM233.07 19.55a.44.44 0 0 1 .44.44.44.44 0 0 1-.44.44c-3.08 0-4.8-2.8-5.56-2.8-1 0-3.88 6.6-5.88 6.6-.84 0-1.4-.92-1.76-1.56-.56-1-2.68-4.8-2.68-5.72a.6.6 0 0 1 .64-.6.94.94 0 0 1 .32.08c.72.36 1.08 1.72 1.36 2.44s1.52 4 2.24 4c1.24 0 4-6.64 5.68-6.64 1.32-.03 2.52 3.32 5.64 3.32z"/><path class="a" d="M243.35 16.16c0 1.88-4.24 3.16-5.6 3.64h-.08v.24c0 1.56 1.16 2.24 2.56 2.4.2 0 .44.16.44.4a.44.44 0 0 1-.44.44 3.75 3.75 0 0 1-3.76-2.76c0-.12 0-.4-.08-.48a19.65 19.65 0 0 1-3.4.36.44.44 0 0 1-.44-.44.44.44 0 0 1 .44-.44 14.53 14.53 0 0 0 3.48-.4c.44-2.16 2.2-4.8 4.68-4.8a2 2 0 0 1 2.2 1.84zm-1.64 0c0-.4-.44-.52-.8-.52-1.6 0-2.8 1.88-3.12 3.28.96-.25 3.92-1.69 3.92-2.8z"/><path class="a" d="M265.27 18.75c.48 1.68.8 3.72 3 3.72a.43.43 0 0 1 .4.4.41.41 0 0 1-.4.44c-4.4 0-3.72-5.28-5-5.28-1.08 0-3.4 5.4-5.28 5.4-.84 0-1.16-.76-1.16-1.48 0-1.32.68-2.76.68-4 0-.6-.16-.88-.8-.88-.84 0-2.68 1.36-3.48 1.8-3.64 2-8.84 4.4-13 4.4a.41.41 0 0 1-.4-.44c0-.36.28-.4.56-.4 2.56 0 5.76-1.28 8.12-2.28a48.35 48.35 0 0 0 6.84-3.88 2.8 2.8 0 0 1 1.56-.52 1.83 1.83 0 0 1 1.84 2c0 1.24-.8 2.76-.8 3.92 0 .2 0 .48.24.48.88 0 3.6-5.64 5.44-5.64.96.05 1.4 1.44 1.64 2.24z"/><path class="a" d="M282.79 10.87c.68-2.72 3-10.92 6.4-10.92a1.31 1.31 0 0 1 1.32 1.48c0 2.64-2.32 6.12-3.56 8.44a62.78 62.78 0 0 1-3.88 6.76c0 .48.08 1 .16 1.52a5 5 0 0 0 3.36 4 7.24 7.24 0 0 0 2 .32.44.44 0 0 1 .44.4.44.44 0 0 1-.44.44 6.25 6.25 0 0 1-5.68-3.12 8.92 8.92 0 0 1-.72-2.28c-1.56 2.16-4.16 5.92-7.12 5.92a2.43 2.43 0 0 1-2.52-2.36c-1.52 1.16-2.48 1.84-4.44 1.84a.4.4 0 0 1-.44-.44.38.38 0 0 1 .4-.4c1.92 0 3.48-1.44 4.88-2.6a5.92 5.92 0 0 1 5-3.4 3 3 0 0 1 2.68 1.92c.52-.68 1-1.36 1.44-2a22.55 22.55 0 0 1 .72-5.52zm-3.12 8.68a1.92 1.92 0 0 0-1.92-1.76c-1.68 0-3.84 1.72-3.84 3.48a1.21 1.21 0 0 0 1.32 1.28c1.88 0 3.3-1.68 4.44-2.96zm5.48-8.36c.76-1.28 1.4-2.6 2.08-3.92s2-3.44 2-4.8c0-.44-.16-.8-.64-.8-1.84 0-3.88 6.44-4.32 8a25.1 25.1 0 0 0-1.2 5.12z"/><path class="a" d="M303.35 16.12a2 2 0 0 1-.24.84 3.06 3.06 0 0 1-1 .88c-.52.32-1.08.56-1.6.84-1 .52-1.84 1.08-2.8 1.56.16 1.52 1.16 2 2.56 2.24.2 0 .44.16.44.4a.44.44 0 0 1-.44.44 3.87 3.87 0 0 1-3.74-2.45c-2.52 1.24-5 2.48-7.92 2.48a.45.45 0 0 1-.48-.44.44.44 0 0 1 .44-.4 11.59 11.59 0 0 0 3.52-.6 35.94 35.94 0 0 0 4.36-2c0-2.36 2.16-5.48 4.72-5.48a2 2 0 0 1 2.18 1.69zm-1.72.6a.66.66 0 0 0 .2-.48c0-.48-.48-.64-.88-.64-1.72 0-2.84 2.08-3.16 3.52a26.06 26.06 0 0 0 3.84-2.4z"/><path class="a" d="M328.53 17c0 .16-.16.2-.28.2a13 13 0 0 1-1.32-.2 9.42 9.42 0 0 0-1.52-.08 10.27 10.27 0 0 0-7.48 3.28 20.1 20.1 0 0 0-2 2.48c-.32.4-.92 1.24-1.52 1.24-1.4 0-1-4.6-1.16-5.52 0-.16-.08-.4-.32-.4a1.18 1.18 0 0 0-.6.28 62.12 62.12 0 0 1-5.64 3.4 12.09 12.09 0 0 1-6.44 1.64.44.44 0 0 1-.44-.44.44.44 0 0 1 .44-.4 11.3 11.3 0 0 0 3.44-.6 31.67 31.67 0 0 0 8.16-4.6 2.77 2.77 0 0 1 1.52-.68c1.12 0 1.08 1.84 1.08 2.6v2.6c0 .2 0 .56.28.56s1-1.12 1.16-1.24a24.17 24.17 0 0 1 2.24-2.28 12 12 0 0 1 7.76-2.84c.58 0 2.64.08 2.64 1zM332.75 21.79a1.18 1.18 0 0 1 1.28 1 1.06 1.06 0 0 1-.92 1 1.5 1.5 0 0 1-1.4-1.24.63.63 0 0 1 .48-.6.75.75 0 0 1 .56-.16zm7.6-12.88c-1 1.64-3.16 2-4.48 3.32s-1.48 3.36-1.88 4.88c-.16.32-.36.56-.56.56s-.32-.28-.32-.56a7.57 7.57 0 0 1 .24-1.88 5 5 0 0 1 1.48-3.6c1.72-1.68 4.88-2.24 4.88-5.36a2.82 2.82 0 0 0-3.08-2.84 5 5 0 0 0-3.08 1.2.73.73 0 0 1-.56.24.58.58 0 0 1-.56-.6.79.79 0 0 1 .2-.56 5.44 5.44 0 0 1 3.88-1.52 6 6 0 0 1 .88.08c2.8.6 3.68 2 3.68 4.28a4.89 4.89 0 0 1-.72 2.32z"/></svg>