<svg xmlns="http://www.w3.org/2000/svg" viewBox="0 0 69.46 67.22"><defs><style>.a{fill:#72809c}.b{fill:#fff}</style></defs><title>p10_s10</title><path class="a" d="M0 0h69.46v67.22H0z"/><path class="b" d="M34.73 13.67a20 20 0 0 0-20 19.94 20 20 0 0 0 20 19.94 20 20 0 0 0 20-19.94 20 20 0 0 0-20-19.94zm0 38A18.14 18.14 0 0 1 16.6 33.56a18.14 18.14 0 0 1 18.13-18.11 18.14 18.14 0 0 1 18.13 18.11 18.14 18.14 0 0 1-18.13 18.16z"/><path class="b" d="M34.77 19.45A14.18 14.18 0 0 0 20.6 33.6a14.18 14.18 0 0 0 14.17 14.15A14.18 14.18 0 0 0 48.94 33.6a14.18 14.18 0 0 0-14.17-14.15zm0 26.48A12.35 12.35 0 0 1 22.42 33.6a12.35 12.35 0 0 1 12.35-12.31 12.35 12.35 0 0 1 12.35 12.33 12.35 12.35 0 0 1-12.34 12.33z"/><path class="b" d="M41.1 26.69l-5.88 5.44a2 2 0 0 0-1.56.09l-3.9-3.41a.91.91 0 0 0-1.29.08.91.91 0 0 0 .08 1.29l4 3.5a2 2 0 0 0 0 .38 2 2 0 0 0 2 2 2 2 0 0 0 2-2 2 2 0 0 0-.1-.63l5.85-5.41a.91.91 0 0 0 0-1.29.91.91 0 0 0-1.29 0zm-6.4 7.51a.18.18 0 0 1-.3 0 .21.21 0 0 1 0-.3.21.21 0 0 1 .3 0 .21.21 0 0 1 0 .3z"/></svg>