<svg xmlns="http://www.w3.org/2000/svg" viewBox="0 0 281.39 31.55"><defs><style>.a{fill:#fff}</style></defs><title>p10_s22</title><path class="a" d="M11.88 23.59c0 .6-.56.48-.68.56-.32 0-2.16.12-4 .28-1.68 6.72-2.44 7.12-2.84 7.12a.45.45 0 0 1-.44-.48 3.79 3.79 0 0 1 .32-1.2c.28-.84 1.56-4.8 1.64-5.36a36.73 36.73 0 0 1-4.12.24c-.72 0-1.8-.2-1.8-1.28a3.48 3.48 0 0 1 .2-.88c.56-1.16.84-2.24 2.48-6.56.28-.72.88-2.56 1.16-3.16.16-.32.4-.76.72-.76s.48.44.48.64a9 9 0 0 1-.68 2.16A31.55 31.55 0 0 1 3 18.59c-.32.92-1.2 3.68-1.64 4.52v.16c0 .08.12.32.48.32a32.56 32.56 0 0 0 4.4-.2c1-3.28 1.36-4.48 1.68-5.52l.08-.2c0-.28.4-.8.72-.8s.4.4.4.68-.12.52-.12.76v.2c-.4 1.32-.84 3-1.36 4.72a28.67 28.67 0 0 1 3.24-.24 1.33 1.33 0 0 1 .6.12c.12.04.4.24.4.48zm2.8 3.48a1.12 1.12 0 0 1 1.08 1 .85.85 0 0 1-.84.88 1 1 0 0 1-1.08-1.08.65.65 0 0 1 .24-.6.88.88 0 0 1 .6-.2zm41.36-2.76c.6-.72 1.16-1.24 1.88-1.24a1.19 1.19 0 0 1 1.27 1.08 2.32 2.32 0 0 1-.64 1.52c-2.4 2.92-6.44 3.6-9.84 3.6-8 0-13.36-5.2-13.36-14.8 0-8.92 6.08-14.48 13.64-14.48 5 0 8.12 1.8 9.44 3.52a2.34 2.34 0 0 1 .52 1.4 1.43 1.43 0 0 1-1.56 1.4 3.09 3.09 0 0 1-2.28-1.48 6.84 6.84 0 0 0-6-2.92c-5 0-8 5-8 12.52 0 7.88 3 12.92 8.2 12.92a8.1 8.1 0 0 0 6.73-3.04zM72.56 7.75c6.68 0 10.52 4 10.52 10.6 0 6.4-4.08 10.92-10.56 10.92S62 25.35 62 18.71c0-6.44 4.16-10.96 10.56-10.96zm0 19.72c3.28 0 5.12-3.28 5.12-9.08 0-6.4-1.84-8.84-5.12-8.84s-5.08 3.48-5.08 9.12c-.04 6.28 1.72 8.8 5.04 8.8zm44.73-.48c0 1.32-1.16 2-2.64 2s-2.64-.64-2.64-2V14.31c0-2.48-.64-4.36-3-4.36s-4.08 2.32-4.08 6v11c0 1.32-1.16 2-2.64 2s-2.64-.64-2.64-2v-12.6c0-2.52-.64-4.4-3-4.4-2.24 0-4.08 2.32-4.08 6v11c0 1.32-1.16 2-2.64 2s-2.64-.64-2.64-2v-17c0-1.24 1.16-1.88 2.56-1.88s2.2.64 2.28 1.88l.08 1.32h.16a6.09 6.09 0 0 1 5.88-3.52c2.6 0 5.36 1.12 6.12 3.52h.2a6.3 6.3 0 0 1 5.88-3.52c4.24 0 6.92 2.32 6.92 6.76zM131.8 7.75c6.68 0 10.52 4 10.52 10.6 0 6.4-4.08 10.92-10.56 10.92s-10.52-3.92-10.52-10.56c0-6.44 4.16-10.96 10.56-10.96zm0 19.72c3.28 0 5.12-3.28 5.12-9.08 0-6.4-1.84-8.84-5.12-8.84s-5.08 3.48-5.08 9.12c-.04 6.28 1.72 8.8 5.04 8.8zm41.59-2.48a.44.44 0 0 1 .44.44.44.44 0 0 1-.44.44c-3.08 0-4.8-2.8-5.56-2.8-1 0-3.88 6.6-5.88 6.6-.84 0-1.4-.92-1.76-1.56-.56-1-2.68-4.8-2.68-5.72a.6.6 0 0 1 .64-.6.94.94 0 0 1 .32.08c.72.36 1.08 1.72 1.36 2.44s1.52 4 2.24 4c1.24 0 4-6.64 5.68-6.64 1.33-.04 2.54 3.32 5.64 3.32z"/><path class="a" d="M183.68 21.59c0 1.88-4.24 3.16-5.6 3.64H178v.24c0 1.56 1.16 2.24 2.56 2.4.2 0 .44.16.44.4a.44.44 0 0 1-.44.44 3.75 3.75 0 0 1-3.76-2.76c0-.12 0-.4-.08-.48a19.6 19.6 0 0 1-3.4.36.44.44 0 0 1-.44-.44.44.44 0 0 1 .44-.44 14.5 14.5 0 0 0 3.48-.4c.44-2.16 2.2-4.8 4.68-4.8a2 2 0 0 1 2.2 1.84zm-1.64 0c0-.4-.44-.52-.8-.52-1.6 0-2.8 1.88-3.12 3.28.96-.2 3.92-1.68 3.92-2.8z"/><path class="a" d="M205.59 24.15c.48 1.68.8 3.72 3 3.72a.43.43 0 0 1 .4.4.41.41 0 0 1-.4.44c-4.4 0-3.72-5.28-5-5.28-1.08 0-3.4 5.4-5.28 5.4-.84 0-1.16-.76-1.16-1.48 0-1.32.68-2.76.68-4 0-.6-.16-.88-.8-.88-.84 0-2.68 1.36-3.48 1.8-3.64 2-8.84 4.4-13 4.4a.41.41 0 0 1-.4-.44c0-.36.28-.4.56-.4 2.56 0 5.76-1.28 8.12-2.28a48.4 48.4 0 0 0 6.84-3.88 2.8 2.8 0 0 1 1.56-.52 1.83 1.83 0 0 1 1.84 2c0 1.24-.8 2.76-.8 3.92 0 .2 0 .48.24.48.88 0 3.6-5.64 5.44-5.64.96.08 1.4 1.48 1.64 2.24z"/><path class="a" d="M223.11 16.35c.68-2.72 3-10.92 6.4-10.92a1.31 1.31 0 0 1 1.32 1.48c0 2.64-2.32 6.12-3.56 8.44a62.77 62.77 0 0 1-3.88 6.8c0 .48.08 1 .16 1.52a5 5 0 0 0 3.36 4 7.25 7.25 0 0 0 2 .32.44.44 0 0 1 .44.4.44.44 0 0 1-.44.44 6.25 6.25 0 0 1-5.68-3.12 8.92 8.92 0 0 1-.72-2.28c-1.56 2.16-4.16 5.92-7.12 5.92a2.43 2.43 0 0 1-2.52-2.36c-1.52 1.16-2.48 1.84-4.44 1.84a.4.4 0 0 1-.44-.44.38.38 0 0 1 .4-.4c1.92 0 3.48-1.44 4.88-2.6a5.92 5.92 0 0 1 5-3.4 3 3 0 0 1 2.68 1.92c.52-.68 1-1.36 1.44-2a22.55 22.55 0 0 1 .72-5.56zm-3.12 8.68a1.92 1.92 0 0 0-1.92-1.76c-1.68 0-3.84 1.72-3.84 3.48a1.21 1.21 0 0 0 1.32 1.28c1.88-.04 3.32-1.76 4.44-3zm5.48-8.36c.76-1.28 1.4-2.6 2.08-3.92s2-3.44 2-4.8c0-.44-.16-.8-.64-.8-1.84 0-3.88 6.44-4.32 8a25.1 25.1 0 0 0-1.2 5.12z"/><path class="a" d="M243.67 21.55a2 2 0 0 1-.24.84 3.06 3.06 0 0 1-1 .88c-.52.32-1.08.56-1.6.84-1 .52-1.84 1.08-2.8 1.56.16 1.52 1.16 2 2.56 2.24.2 0 .44.16.44.4a.44.44 0 0 1-.44.44 3.87 3.87 0 0 1-3.72-2.48c-2.52 1.24-5 2.48-7.92 2.48a.45.45 0 0 1-.48-.44.44.44 0 0 1 .44-.4 11.59 11.59 0 0 0 3.52-.6 36 36 0 0 0 4.36-2c0-2.36 2.16-5.48 4.72-5.48a2 2 0 0 1 2.16 1.72zm-1.72.6a.66.66 0 0 0 .2-.48c0-.48-.48-.64-.88-.64-1.72 0-2.84 2.08-3.16 3.52a26 26 0 0 0 3.84-2.4z"/><path class="a" d="M268.83 22.43c0 .16-.16.2-.28.2a13 13 0 0 1-1.32-.2 9.42 9.42 0 0 0-1.52-.08 10.27 10.27 0 0 0-7.48 3.28 20.06 20.06 0 0 0-2 2.48c-.32.4-.92 1.24-1.52 1.24-1.4 0-1-4.6-1.16-5.52 0-.16-.08-.4-.32-.4a1.18 1.18 0 0 0-.6.28 62 62 0 0 1-5.64 3.4 12.08 12.08 0 0 1-6.44 1.64.44.44 0 0 1-.44-.44.44.44 0 0 1 .44-.4 11.3 11.3 0 0 0 3.44-.6 31.68 31.68 0 0 0 8.16-4.6 2.78 2.78 0 0 1 1.52-.68c1.12 0 1.08 1.84 1.08 2.6v2.6c0 .2 0 .56.28.56s1-1.12 1.16-1.24a24.17 24.17 0 0 1 2.24-2.28 12 12 0 0 1 7.76-2.84c.6 0 2.64.08 2.64 1zm4.24 4.8a1.18 1.18 0 0 1 1.28 1 1.06 1.06 0 0 1-.92 1 1.5 1.5 0 0 1-1.4-1.24.63.63 0 0 1 .48-.6.75.75 0 0 1 .56-.16zm7.6-12.88c-1 1.64-3.16 2-4.48 3.32s-1.48 3.36-1.88 4.88c-.16.32-.36.56-.56.56s-.32-.28-.32-.56a7.56 7.56 0 0 1 .24-1.88 5 5 0 0 1 1.48-3.6c1.72-1.68 4.88-2.24 4.88-5.36a2.82 2.82 0 0 0-3.08-2.84 5 5 0 0 0-3.08 1.2.73.73 0 0 1-.56.24.58.58 0 0 1-.56-.6.79.79 0 0 1 .2-.56 5.44 5.44 0 0 1 3.88-1.52 6 6 0 0 1 .88.08c2.8.6 3.68 2 3.68 4.28a4.89 4.89 0 0 1-.72 2.36z"/></svg>