<svg xmlns="http://www.w3.org/2000/svg" viewBox="0 0 96.74 20.28"><defs><style>.a{fill:#3a1a0d}</style></defs><title>p10_s23</title><path class="a" d="M10.06 13.53c0 .51-.47.41-.58.47-.27 0-1.83.1-3.36.24-1.42 5.7-2.07 6-2.41 6a.38.38 0 0 1-.37-.41 3.21 3.21 0 0 1 .27-1c.24-.71 1.32-4.07 1.39-4.54a31.12 31.12 0 0 1-3.49.2c-.61 0-1.53-.17-1.53-1.08a3 3 0 0 1 .17-.75c.47-1 .71-1.9 2.1-5.56.24-.61.75-2.17 1-2.68.14-.27.34-.64.61-.64s.41.37.41.54a7.65 7.65 0 0 1-.58 1.83 26.87 26.87 0 0 1-1.12 3.12c-.27.78-1 3.12-1.39 3.83v.14c0 .07.1.27.41.27a27.43 27.43 0 0 0 3.73-.17c.81-2.78 1.15-3.8 1.42-4.68l.07-.17c0-.24.34-.68.61-.68s.34.34.34.58-.1.44-.1.64v.17c-.34 1.12-.71 2.51-1.15 4a24.37 24.37 0 0 1 2.75-.2 1.13 1.13 0 0 1 .51.1c.06.06.29.23.29.43zm2.38 2.95a1 1 0 0 1 .92.88.72.72 0 0 1-.71.75.82.82 0 0 1-.92-.92.55.55 0 0 1 .2-.51.75.75 0 0 1 .51-.2zM31.12 2.86a.27.27 0 0 1-.27.27 1.41 1.41 0 0 1-.75-.37 4.29 4.29 0 0 0-2.58-.88 6.15 6.15 0 0 0-4 1.63 15.51 15.51 0 0 0-2.68 3.53 9.42 9.42 0 0 0-1.29 4.54c0 3.25 1.49 5.73 7.26 5.59a.38.38 0 0 1 .34.41c0 .37-.37.37-.64.37-4.95.31-8.1-1.66-8.1-6.1a12 12 0 0 1 1.83-6.07c2.2-3.7 5-5 7.12-5a4 4 0 0 1 3.25 1.25 1.3 1.3 0 0 1 .51.83z"/><path class="a" d="M43.73 14.62a13.21 13.21 0 0 0 2 .1.38.38 0 0 1 .37.37.38.38 0 0 1-.37.37 13.15 13.15 0 0 1-2.2-.14 5.42 5.42 0 0 1-4.51 3.42 2.27 2.27 0 0 1-2.17-2.51 4.59 4.59 0 0 1 .31-1.63c-3 1.32-7.09 3.29-10.31 3.29a.35.35 0 0 1-.34-.37.36.36 0 0 1 .34-.34 10.76 10.76 0 0 0 2.92-.51 39.48 39.48 0 0 0 7.93-3.25 13.44 13.44 0 0 1 1-1.32c.61-.75 1.73-1.83 2.75-1.83s1.36.85 1.36 1.7a2.51 2.51 0 0 1 1 2.1 2.9 2.9 0 0 1-.08.55zm-1.22.44a2.35 2.35 0 0 1-1.9-2.2c0-.71.54-1.08 1.32-1.15a.69.69 0 0 0-.58-.37 1.35 1.35 0 0 0-.85.31 6.88 6.88 0 0 0-2.58 4.71 1.39 1.39 0 0 0 1.42 1.49 4.22 4.22 0 0 0 3.17-2.79zm.2-.71v-.47c0-.71-.37-1.29-.95-1.29-.14 0-.2.14-.2.27a1.53 1.53 0 0 0 1.16 1.48z"/><path class="a" d="M66.62 13.16c.92 1.46.44 3.8 2.68 4 .17 0 .37.14.37.34a.38.38 0 0 1-.37.37c-3.42 0-2.71-4-3.87-4-.31 0-.54.31-.71.54a25.94 25.94 0 0 1-2.48 3.15 1.44 1.44 0 0 1-.92.34 1.12 1.12 0 0 1-1.08-.81c-.37-1-.61-2.07-1.05-3.05-.1-.24-.27-.61-.58-.61-.92 0-2.88 4.58-4.44 4.58-.71 0-1-.64-1-1.25 0-1.08.58-2.31.58-3.22 0-.54 0-1.08-.75-1.08a7.41 7.41 0 0 0-2 1.08 15.65 15.65 0 0 1-2.88 1.53 7 7 0 0 1-2.37.41.38.38 0 0 1-.41-.37.38.38 0 0 1 .37-.37 6.79 6.79 0 0 0 2.68-.68c1.39-.64 3.36-2.58 4.81-2.58a1.56 1.56 0 0 1 1.56 1.73c0 1.19-.68 2.44-.68 3.49a.26.26 0 0 0 .24.27c.71 0 3-4.75 4.61-4.75s1.49 4.37 2.58 4.37c.54 0 2.24-2.68 2.61-3.15a1.9 1.9 0 0 1 1.42-.88 1.3 1.3 0 0 1 1.08.6z"/><path class="a" d="M86.08 15.26c0 .68-1.29.61-1.73.61a3.66 3.66 0 0 1-1.36-.2 5.08 5.08 0 0 1-4.48 3.12c-1.42 0-2.14-1.32-2.14-2.61a3.94 3.94 0 0 1 .1-.88c-2.18 1.49-4.18 2.56-6.83 2.56-.3 0-.78.07-.78-.37a.37.37 0 0 1 .37-.34 13.15 13.15 0 0 0 1.63-.14 13.09 13.09 0 0 0 5.46-2.58l.71-.64c.64-1.29 2.34-3.46 3.9-3.46.95 0 1.36 1 1.36 1.83a2.51 2.51 0 0 1 1 2.1 4.23 4.23 0 0 1-.07.64 4.8 4.8 0 0 0 1.56.17c.15.05 1.3-.08 1.3.19zm-3.93 0c-.71-.37-2-1.36-2-2.24 0-.71.68-1.05 1.29-1.08a.55.55 0 0 0-.51-.37 1.8 1.8 0 0 0-.78.27 6 6 0 0 0-2.64 4.54 1.27 1.27 0 0 0 1.36 1.39 3.64 3.64 0 0 0 3.28-2.51zm.14-.92c0-.47-.41-1.53-1-1.53-.13 0-.24.17-.24.3 0 .58.88 1 1.22 1.32zm7.39 2.28a1 1 0 0 1 1.08.88.9.9 0 0 1-.78.85 1.27 1.27 0 0 1-1.19-1.05.53.53 0 0 1 .41-.51.63.63 0 0 1 .48-.17zM96.12 5.7c-.81 1.39-2.68 1.7-3.8 2.81s-1.25 2.85-1.59 4.14c-.14.27-.31.47-.47.47s-.27-.24-.27-.47a6.42 6.42 0 0 1 .2-1.59 4.22 4.22 0 0 1 1.25-3.05c1.46-1.42 4.14-1.9 4.14-4.54a2.39 2.39 0 0 0-2.61-2.41 4.2 4.2 0 0 0-2.61 1 .62.62 0 0 1-.47.2.49.49 0 0 1-.47-.51.67.67 0 0 1 .17-.48 4.61 4.61 0 0 1 3.29-1.29 5.11 5.11 0 0 1 .75.07c2.37.51 3.12 1.7 3.12 3.63a4.15 4.15 0 0 1-.63 2.02z"/></svg>