<svg xmlns="http://www.w3.org/2000/svg" viewBox="0 0 47.24 50.12"><defs><style>.a{fill:#fff}</style></defs><title>p10_s18</title><path class="a" d="M24.55 6.17a1.15 1.15 0 0 0-.82-.35 1.15 1.15 0 0 0-.83.34L5.7 23.77a1.15 1.15 0 0 0-.33.8v24.39a1.15 1.15 0 0 0 1.15 1.15h11.73a1.15 1.15 0 0 0 1.15-1.15V36.38h8.54v12.58a1.15 1.15 0 0 0 1.15 1.15h11.73a1.15 1.15 0 0 0 1.15-1.15V24.62a1.15 1.15 0 0 0-.32-.8zm15.13 41.64h-9.43V35.24a1.15 1.15 0 0 0-1.15-1.15H18.26a1.15 1.15 0 0 0-1.15 1.15v12.58H7.68V25.04l16-16.43 16 16.42z"/><path class="a" d="M46.9 23.27L24.45.34a1.16 1.16 0 0 0-.82-.35 1.15 1.15 0 0 0-.82.35l-11.55 12V4.62a1.15 1.15 0 0 0-1.15-1.15 1.15 1.15 0 0 0-1.15 1.15v10.12l-8.65 9a1.15 1.15 0 0 0 0 1.63 1.15 1.15 0 0 0 1.63 0L23.61 2.9l21.62 22.08a1.15 1.15 0 0 0 1.63 0 1.15 1.15 0 0 0 .04-1.71z"/></svg>