<svg xmlns="http://www.w3.org/2000/svg" viewBox="0 0 229.23 78.31"><defs><style>.a{fill:#fff}</style></defs><title>p10_s7</title><path class="a" d="M16.83 20.85a.44.44 0 0 1-.44.44c-3.56 0-6.28-1.48-9.44-3.88a16.19 16.19 0 0 1-2.2-2l-.56-.68c-1.24 3.52-2.68 8.84-3.52 8.84a.65.65 0 0 1-.48-.72 17.12 17.12 0 0 1 .76-2.48l2.28-6.88a3.44 3.44 0 0 1-.84-1.72c0-.24.12-.64 1-.92l.88-.28 2.76-8.32a11.19 11.19 0 0 0-1.84 1.16c-.8.64-1.32 1.72-1.92 1.72a.9.9 0 0 1-.84-.8c0-1.08 4.6-4.32 8.24-4.32 2.8 0 4.76 1.24 4.76 3.32 0 4.24-6.88 7-10.16 8.2l-.52 1.64a19.16 19.16 0 0 0 6.72 5.8 15.88 15.88 0 0 0 5 1.44.44.44 0 0 1 .36.44zM5.75 10.09c3.2-1.08 8-3.36 8-6.6 0-1.36-1-2.36-2.84-2.36a6.94 6.94 0 0 0-2.2.4z"/><path class="a" d="M35.67 14.04c0 1.76-4 3.56-5.4 4.16l-.24.08c.16 1.4 1.28 2 2.56 2.12.2 0 .44.16.44.4a.44.44 0 0 1-.44.44 3.78 3.78 0 0 1-3.72-2.52 39.85 39.85 0 0 1-12.52 2.52.44.44 0 0 1-.44-.44.44.44 0 0 1 .44-.4 27 27 0 0 0 5.08-.56c1.52-.28 3-.72 4.48-1.12.72-.24 1.6-.4 2.32-.72l.52-.24c.2-2.4 2-5.48 4.72-5.48 1.04 0 2.2.57 2.2 1.76zm-1.56.2a.75.75 0 0 0-.84-.72c-1.72 0-3 2.16-3.2 3.68.92-.44 4.04-1.76 4.04-2.96z"/><path class="a" d="M54.79 15.64a3.79 3.79 0 0 0-.8 1c-.84 1.24-1.76 2.48-2.68 3.68-.48.6-1.24 1.48-2.08 1.48s-1.4-.92-1.76-1.56c-.56-1-1.08-2-1.6-3.08-.2-.4-.36-.88-.6-1.28-.08-.12-.16-.28-.36-.28s-.6.32-.8.48a33.81 33.81 0 0 1-5.8 3.68 10.81 10.81 0 0 1-5.76 1.52.44.44 0 0 1-.44-.44c0-.36.32-.4.6-.4a14.62 14.62 0 0 0 5.48-1.72 37.79 37.79 0 0 0 5.88-4.12 7.4 7.4 0 0 1 .88-.68 1.24 1.24 0 0 1 .52-.12.81.81 0 0 1 .6.24c.28.24 2.12 4.76 2.36 5.36.16.4.48 1 1 1 1.24 0 3.68-5.32 4.92-6a1.19 1.19 0 0 1 .6-.2c1.36 0 2.44 3.36 5.64 3.36a.41.41 0 0 1 .4.44.41.41 0 0 1-.4.44c-3 0-4.76-2.8-5.52-2.8a.74.74 0 0 0-.28 0z"/><path class="a" d="M69.55 13.85a4.19 4.19 0 0 1 .24 1.44 7.51 7.51 0 0 0 1.36 4.2 2.54 2.54 0 0 0 2 .88c.2 0 .44.16.44.4a.44.44 0 0 1-.44.44 4.22 4.22 0 0 1-3.2-1.64 11.26 11.26 0 0 1-1.52-4.84 21.8 21.8 0 0 1-5.2 3.16 11.06 11.06 0 0 1-2.8.44.44.44 0 0 1-.44-.44.44.44 0 0 1 .4-.44 6.76 6.76 0 0 0 2-.32 12.76 12.76 0 0 0 2.36-1.12c.72-.44 3.44-2.52 4.12-2.52a.62.62 0 0 1 .68.36zm-.84-6.28c0-.4.36-.56.72-.56.64 0 1 .84 1 1.36 0 .28-.16.64-.48.64-.6.03-1.24-.89-1.24-1.41z"/><path class="a" d="M90.83 12.68a40 40 0 0 1-6.84 5.36 22.63 22.63 0 0 1-10.8 3.2.41.41 0 0 1-.4-.44.43.43 0 0 1 .4-.4 13.64 13.64 0 0 0 3.6-.44 40.57 40.57 0 0 0 4.8-1.8 31 31 0 0 0 7.12-4.72l1.68-1.6a2.72 2.72 0 0 1-.32-1.24c0-1.48 1.48-3.6 3.08-3.6a1.21 1.21 0 0 1 1.24 1.28c0 1.68-1.64 2.6-2.6 3.64a43.14 43.14 0 0 0 4.56 4 4.29 4.29 0 0 1 1.24 1.8 13 13 0 0 0 4.92-2 9.44 9.44 0 0 0 3.52-4.12c-.64 0-1.24.08-1.88.08-.4 0-1.24-.12-1.24-.64 0-.8 3-.72 3.64-.72.2-.52.88-2.6 1.56-2.6.48 0 .56.8.56 1.12a3.69 3.69 0 0 1-.4 1.44 20.56 20.56 0 0 1 2.24-.08c.16 0 .68 0 .68.24 0 1-2.8 1-3.48 1.08a15.11 15.11 0 0 0-1.52 5.56 3.16 3.16 0 0 0 .92 2.48 4.51 4.51 0 0 0 2.24.84c.2 0 .44.16.44.4a.44.44 0 0 1-.44.44 3.92 3.92 0 0 1-4.16-4 17.57 17.57 0 0 1 .48-3.24 13.31 13.31 0 0 1-8 4.4c.24 3.12-3.8 5.12-6.48 5.12-1.12 0-2.48-.44-2.48-1.8 0-2.92 5.4-3.76 7.52-4-1-2-4.08-3.4-5.4-5.12zm5.64 6.12v-.24c-1.64.16-6.64.8-6.64 3 0 .84.76 1.12 1.48 1.12 2.04.04 5.16-1.52 5.16-3.88zm-5.2-8.2a1.5 1.5 0 0 0 0 .44c.48-.44 1.92-1.8 1.92-2.48a.34.34 0 0 0-.36-.36c-.8 0-1.56 1.72-1.56 2.4z"/><path class="a" d="M129.11 19.76c0 1-2.08 1.48-2.88 1.48-3.6 0-4.12-3.52-5-3.52s-2.16 4.32-5.64 4.32a2 2 0 0 1-2.2-2.19v-.2a6.08 6.08 0 0 1-3.88 1.56c-.32 0-.64 0-.64-.44a.44.44 0 0 1 .44-.4c1.8 0 3.28-1.28 4.6-2.4 1-1.76 3.08-3.8 5.2-3.8a2.71 2.71 0 0 1 2.44 1.28 1.1 1.1 0 0 1 1.12.68 6.85 6.85 0 0 1 .36 1.2c.44 1.56 1.4 3 3.2 3a6.86 6.86 0 0 0 2.64-.92c.16.07.24.19.24.35zm-9-3.32c-.32-.52-.64-1-1.32-1-1.64 0-4 2.68-4 4.28a1.06 1.06 0 0 0 1.12 1.13c1.8 0 3.28-3.17 4.28-4.41zM7.39 63.36c-3.56 0-7.4-.68-7.4-3.72 0-2.8 3.24-5.24 5.36-6.48-1.4-.2-3-.92-3-2.32a3.87 3.87 0 0 1 1-2.32c2-2.52 8.32-6.84 9.88-6.84.32 0 .76 0 .76.52 0 .12-.12.48-.8.76-3.4 1.44-9.32 5.2-9.32 7.6 0 .92.76 1.6 2 1.6a7.71 7.71 0 0 0 3.4-1.08 6.26 6.26 0 0 1 1.12-.48.51.51 0 0 1 .48.56c0 .84-1.68 1.4-3.08 1.84l-.36.12c-2.2 1.12-5.88 3.84-5.88 6.24 0 2 2 3.08 6.44 3.08h2a.48.48 0 0 1 .48.44c-.08.56-.84.48-3.08.48z"/><path class="a" d="M23.99 65.56c-1.16 0-2.52-.4-2.52-1.76a2.78 2.78 0 0 1 1.12-2c1.52-1.32 4.4-1.72 6.36-2-1-2-3.84-3.44-5.28-5.12a61.81 61.81 0 0 1-7.44 6.28c-2.2 1.56-3.52 2.32-6.32 2.32a.45.45 0 0 1-.48-.4.44.44 0 0 1 .44-.44 9 9 0 0 0 4.36-1.36c3.28-1.88 6.12-4.64 8.88-7.2a2.19 2.19 0 0 1-.36-1.12c0-1.56 1.4-3.72 3.08-3.72a1.21 1.21 0 0 1 1.24 1.28c0 1.32-1.56 2.84-2.52 3.6h-.08c1.44 1.36 3 2.52 4.44 3.84a4.67 4.67 0 0 1 1.28 1.8c.4 0 1.28-.08 1.52-.08a.44.44 0 0 1 .44.44.44.44 0 0 1-.44.44h-1.28c.28 3.04-3.84 5.2-6.44 5.2zm5.16-4.76v-.24c-1.68.16-6.64.84-6.64 3.12 0 .8.8 1 1.48 1 2.04.04 5.2-1.52 5.2-3.88zm-5.16-8.2a1.5 1.5 0 0 0 0 .44c.48-.44 1.92-1.8 1.92-2.48a.34.34 0 0 0-.36-.36c-.8 0-1.56 1.72-1.56 2.4z"/><path class="a" d="M49.95 62.85c0 .24-.2.4-.48.4a18.31 18.31 0 0 1-3.4-.28 7.2 7.2 0 0 1-2.8-.8c-1.24 4.28-2 5.8-3.16 9.2s-2.08 7-4.52 7c-1.16 0-2-1.32-2-3 0-5.72 7-15 10.16-19.48v-.72c0-.44-.2-1-.56-1a.56.56 0 0 0-.36.16c-.48.36-4.88 4.08-6.76 5a9.14 9.14 0 0 1-4.28 1 .43.43 0 0 1-.48-.44.45.45 0 0 1 .48-.44 6.63 6.63 0 0 0 3.76-1 43.5 43.5 0 0 0 6.56-5.24 2.78 2.78 0 0 1 1.64-.88c.72 0 1.28.84 1.28 2.12v.28a6.23 6.23 0 0 1 3.12-1.2c1.6 0 3.48.92 3.48 2.8 0 2.32-3 5.44-5.72 5.44a8.71 8.71 0 0 0 3.52.6.48.48 0 0 1 .52.48zm-6.68-4.64c-3 4.52-4 5.76-5.52 8.44a37.3 37.3 0 0 0-2.56 5.7 9.39 9.39 0 0 0-.56 3c0 1.12.28 1.76 1 1.76 1 0 1.64-1.52 2.44-3.68 1.08-2.84 1.72-4.4 2.68-7.4.88-2.75 1.88-5.23 2.52-7.83zm1.52 3c1.72 0 5.36-1.88 5.36-4.6a1.69 1.69 0 0 0-1.88-1.68 6.19 6.19 0 0 0-3.4 1.24 37.66 37.66 0 0 1-1.24 4.88 4.23 4.23 0 0 0 1.16.19z"/><path class="a" d="M69.67 59.36a6.66 6.66 0 0 0 .48 1.24 3.09 3.09 0 0 0 2.72 1.8.44.44 0 0 1 .44.4.44.44 0 0 1-.44.44c-3.56 0-4.12-3.52-5-3.52s-2.12 4.32-5.6 4.32a2 2 0 0 1-2.2-2.12 4.53 4.53 0 0 1 .64-2.16c-3.08 1.44-7.92 3.48-11.24 3.48a.44.44 0 0 1-.44-.44c0-.32.32-.4.56-.4 2.2-.08 6-1.4 8.08-2.28a31.61 31.61 0 0 0 4.4-2 5.2 5.2 0 0 1 3.64-1.84 2.82 2.82 0 0 1 2.48 1.2c1.16-.12 1.28 1.12 1.48 1.88zm-2.88-.92c-.28-.52-.64-1-1.28-1-1.68 0-4.08 2.68-4.08 4.28a1.06 1.06 0 0 0 1.12 1.13c1.8 0 3.36-3.13 4.24-4.41z"/><path class="a" d="M72.79 62.4a11.61 11.61 0 0 0 3.52-.6 23.18 23.18 0 0 0 5.8-3.52 3.3 3.3 0 0 0 .68-.6c.12-.16.2-.44.32-.64a6.6 6.6 0 0 1 1.56-1.92 3.09 3.09 0 0 1 1.8-.72c.64 0 2.12.56 2.12 1.28a.21.21 0 0 1-.24.24c-.48 0-.68-.6-1.48-.6-1.8 0-3.24 3-3.24 4.6s1 2.32 2.48 2.48c.24 0 .44.16.44.44a.41.41 0 0 1-.44.4 3.69 3.69 0 0 1-3.76-2.72c0-.12-.08-.28-.08-.4a5.36 5.36 0 0 1 0-.8c-2.8 2.2-5.88 3.92-9.52 3.92a.41.41 0 0 1-.44-.4.44.44 0 0 1 .48-.44zm10.56 5.2c0-.36.76-.36 1.28-.88 1.28-1.36.32-3 1.28-3 .28 0 .52.12.52.4 0 1.12-.32 3.44-2.56 3.68-.24-.05-.52-.05-.52-.21z"/><path class="a" d="M109.31 60.12c0 .76-1.56.72-2 .72a4.33 4.33 0 0 1-1.6-.24 5.93 5.93 0 0 1-5.28 3.68c-1.72 0-2.52-1.56-2.52-3.08a5.74 5.74 0 0 1 .32-1.84l-.12.08c-3.56 1.52-8.24 3.8-12 3.8a.41.41 0 0 1-.4-.44.43.43 0 0 1 .4-.4 12.68 12.68 0 0 0 3.44-.6 46.88 46.88 0 0 0 9.4-3.84c.8-1.36 2.64-3.6 4.32-3.6 1.08 0 1.6 1 1.6 2v.16a3 3 0 0 1 1.2 2.48 4.43 4.43 0 0 1-.08.76 5.42 5.42 0 0 0 1.8.2c.16 0 1.52-.16 1.52.16zm-4.68 0c-.84-.48-2.4-1.6-2.4-2.68 0-.84.84-1.2 1.56-1.24a.69.69 0 0 0-.6-.44 2 2 0 0 0-.92.32 6.92 6.92 0 0 0-3.08 5.36 1.48 1.48 0 0 0 1.6 1.64 4.2 4.2 0 0 0 3.84-2.96zm.2-1c0-.56-.52-1.84-1.2-1.84-.16 0-.28.2-.28.36 0 .64 1 1.24 1.48 1.56zm40.08-14.08c-.16.6-.6 1.8-1.08 3.24-.68 1.92-1.44 4.36-2 6.24a70.23 70.23 0 0 1-2.32 6.84c-.28.72-1 1.72-1.72 1.72-1.36 0-1.84-2-2.44-4.2a3.71 3.71 0 0 0-.16-.68l-1.68-6.56c-.44-1.72-.92-3.6-1.6-6.12-.08-.32-.28-.76-.44-.76-.32 0-1.8 5.4-2.76 8.84-.12.36-.2.72-.28 1-.72 2.52-1.2 3.88-1.56 5-.32.88-.52 1.64-.84 2.76-.16.68-.36 1.76-1.08 1.76-.32 0-.56-.36-.56-.8a1.42 1.42 0 0 1 .08-.4l1.72-6c1-3.28 2-6.6 3-10.32 0-.08.08-.2.08-.28.4-1.48 1-3.8 2.28-3.8s1.56 1.72 3.28 9.08l.56 2.36c.72 3.08 2 7.2 2.44 7.2s.88-1.44 1.28-2.68c.52-1.64 1.28-3.84 1.92-5.92 1-3 2-6 2.48-7.88.12-.56.48-1.6 1.16-1.6a.61.61 0 0 1 .6.52 2.83 2.83 0 0 1-.24 1zm11.6 18.2c-3.56 0-4.12-3.52-5-3.52s-2.16 4.32-5.6 4.32a2 2 0 0 1-2.24-2.2c0-2.4 3.28-5.64 5.72-5.64a2.63 2.63 0 0 1 2.44 1.28c1.16-.12 1.24 1.08 1.48 1.88a6.63 6.63 0 0 0 .48 1.24 3.13 3.13 0 0 0 2.72 1.8.44.44 0 0 1 .44.4.44.44 0 0 1-.44.44zm-10.32-.39c1.12 0 2.36-1.56 3-2.4.44-.64.8-1.4 1.28-2-.32-.52-.64-1-1.32-1-1.64 0-4 2.68-4 4.28a1.06 1.06 0 0 0 1.04 1.12z"/><path class="a" d="M170.79 52.4c0 1-2.8 1-3.48 1.08a1.66 1.66 0 0 1-.16.4 14.67 14.67 0 0 0-1.32 5.16 3.06 3.06 0 0 0 1 2.48 3.92 3.92 0 0 0 2.2.84c.2 0 .44.16.44.4a.44.44 0 0 1-.44.44 3.9 3.9 0 0 1-4.08-4 13.15 13.15 0 0 1 .24-2.52c-1.44 2.52-5.72 6.56-8.8 6.56a.44.44 0 0 1-.44-.44c0-.24.24-.36.44-.4a8.75 8.75 0 0 0 4-2 17.74 17.74 0 0 0 5.16-6.84c-.64 0-1.24.08-1.88.08-.36 0-1.24-.12-1.24-.64 0-.8 3-.72 3.64-.72.2-.52.88-2.6 1.56-2.6.52 0 .6.88.6 1.24a5.67 5.67 0 0 1-.44 1.32 14.5 14.5 0 0 1 2.28 0c.24 0 .72-.12.72.16z"/><path class="a" d="M182.19 62.68c2-1.32 2.68-3.28 3.68-5.32.28-.56.8-1.32 1.48-1.32 1.24 0 .88 2.24 1 3.08a3.86 3.86 0 0 0 3.2 3.2c.32.08 1.08 0 1.08.48a.44.44 0 0 1-.44.44 5.44 5.44 0 0 1-5.48-4.64 6.36 6.36 0 0 1-.72 1.48c-1.16 2-2.84 4.2-5.36 4.2-2.08 0-3.08-1.76-3.08-3.64a6.75 6.75 0 0 1 .24-1.8 14.6 14.6 0 0 1-4.4 3.4 9.66 9.66 0 0 1-4.48 1 .41.41 0 0 1-.4-.44.43.43 0 0 1 .4-.4 8.21 8.21 0 0 0 4-1 14.75 14.75 0 0 0 4.44-3.88c.36-.56 1.24-2 2-2a.85.85 0 0 1 .8.88c0 1.08-1.48 2.6-1.48 4.56a2 2 0 0 0 2.08 2.16 2.43 2.43 0 0 0 1.44-.44z"/><path class="a" d="M209.51 62.4a.44.44 0 0 1 .44.4.44.44 0 0 1-.44.44c-2 0-4.28-1-4.28-3.36 0-1.72 1.08-3.32 1.08-5 0-1.08-1.2-1.6-2-2l-.12-.03a24.76 24.76 0 0 1-4.24 5.36c-1.76 1.64-3.36 3.47-5.56 4.55a4.5 4.5 0 0 1-2 .48c-.28 0-.64 0-.64-.44a.43.43 0 0 1 .4-.4 4.43 4.43 0 0 0 1.6-.36c2.44-1.08 8.32-7 9.6-9.68-.92-.48-2-1.16-2-2.32a1.73 1.73 0 0 1 1.76-1.68 2 2 0 0 1 2 1.92 3.84 3.84 0 0 1-.36 1.48h.12c1.36.6 2.72 1.32 2.72 3s-.8 3.16-1.12 4.76a1.36 1.36 0 0 0 0 .4c-.08 1.6 1.72 2.48 3.04 2.48zm-5.8-11.16a3.06 3.06 0 0 0 .12-.84c0-.32-.16-.8-.6-.8a.65.65 0 0 0-.64.6c.04.44.76.8 1.12 1.04z"/><path class="a" d="M229.19 61.76c0 1-2.08 1.48-2.88 1.48-3.6 0-4.12-3.52-5-3.52s-2.16 4.32-5.64 4.32a2 2 0 0 1-2.2-2.16v-.2a6.08 6.08 0 0 1-3.88 1.56c-.32 0-.64 0-.64-.44a.44.44 0 0 1 .44-.4c1.8 0 3.28-1.28 4.6-2.4 1-1.76 3.08-3.8 5.2-3.8a2.71 2.71 0 0 1 2.44 1.28 1.1 1.1 0 0 1 1.12.68 6.85 6.85 0 0 1 .36 1.2c.44 1.56 1.4 3 3.2 3a6.86 6.86 0 0 0 2.64-.92c.24.04.24.16.24.32zm-9-3.32c-.32-.52-.64-1-1.32-1-1.64 0-4 2.68-4 4.28a1.06 1.06 0 0 0 1.16 1.13c1.8 0 3.28-3.17 4.24-4.41z"/></svg>