<svg xmlns="http://www.w3.org/2000/svg" viewBox="0 0 135.43 77.27"><defs><style>.a{fill:#fff}</style></defs><title>p10_s6</title><path class="a" d="M16.56 2.45a.32.32 0 0 1-.32.32 1.66 1.66 0 0 1-.88-.44 5.05 5.05 0 0 0-3-1 7.26 7.26 0 0 0-4.72 1.92 18.33 18.33 0 0 0-3.16 4.16 11.12 11.12 0 0 0-1.52 5.36c0 3.84 1.76 6.76 8.56 6.6a.45.45 0 0 1 .4.48c0 .44-.44.44-.76.44-5.84.36-9.56-2-9.56-7.2a14.19 14.19 0 0 1 2.16-7.16C6.36 1.57 9.64.05 12.16.05A4.73 4.73 0 0 1 16 1.45a1.53 1.53 0 0 1 .56 1z"/><path class="a" d="M31.68 16.28a6.66 6.66 0 0 0 .48 1.24 3.09 3.09 0 0 0 2.72 1.8.44.44 0 0 1 .44.4.44.44 0 0 1-.44.44c-3.56 0-4.12-3.52-5-3.52s-2.12 4.32-5.6 4.32a2 2 0 0 1-2.2-2.12 4.53 4.53 0 0 1 .64-2.16c-3.08 1.44-7.92 3.48-11.24 3.48a.44.44 0 0 1-.44-.44c0-.32.32-.4.56-.4 2.2-.08 6-1.4 8.08-2.28a31.61 31.61 0 0 0 4.4-2 5.2 5.2 0 0 1 3.64-1.84 2.82 2.82 0 0 1 2.48 1.28c1.2-.2 1.28 1.04 1.48 1.8zm-2.88-.92c-.28-.52-.64-1-1.28-1-1.68 0-4.08 2.68-4.08 4.28a1.06 1.06 0 0 0 1.12 1.16c1.84 0 3.36-3.16 4.24-4.44z"/><path class="a" d="M56.08 15.6c.48 1.68.84 3.72 3 3.72a.44.44 0 0 1 .44.4.44.44 0 0 1-.44.44c-4.36 0-3.76-5.28-5-5.28-1.12 0-3.44 5.4-5.28 5.4-.84 0-1.16-.76-1.16-1.48 0-1.32.68-2.76.68-4 0-.52-.08-1.12-.72-1.12-2.44 0-7.2 6.44-11.68 6.44-.4 0-1.52.2-1.52-.44a.44.44 0 0 1 .44-.4 10.26 10.26 0 0 0 6.24-2.4c1.4-1 3.92-3.48 5.36-4.08a3.28 3.28 0 0 1 1.2-.28 1.88 1.88 0 0 1 1.88 2.08c0 1.28-.8 2.72-.8 3.92 0 .2 0 .48.28.48.88 0 3.52-5.64 5.44-5.64.96.04 1.4 1.44 1.64 2.24z"/><path class="a" d="M73.76 12.96a2 2 0 0 1-.24.84 3.05 3.05 0 0 1-1 .88c-.52.32-1.08.56-1.6.84-1 .52-1.84 1.08-2.8 1.56.16 1.52 1.16 2 2.56 2.24.2 0 .44.16.44.4a.44.44 0 0 1-.44.44 3.87 3.87 0 0 1-3.72-2.48c-2.52 1.24-5 2.48-7.92 2.48a.45.45 0 0 1-.48-.44.44.44 0 0 1 .44-.4 11.61 11.61 0 0 0 3.52-.6 35.94 35.94 0 0 0 4.36-2c0-2.36 2.16-5.48 4.72-5.48a2 2 0 0 1 2.16 1.72zm-1.72.6a.66.66 0 0 0 .2-.48c0-.48-.48-.64-.88-.64-1.72 0-2.84 2.08-3.16 3.52a26 26 0 0 0 3.84-2.4z"/><path class="a" d="M92.72 9.32c0 1-2.8 1-3.48 1.08a15.93 15.93 0 0 0-1.48 5.56 3.16 3.16 0 0 0 .92 2.48 4.29 4.29 0 0 0 2.28.84c.24 0 .4.16.4.4a.41.41 0 0 1-.4.44 3.89 3.89 0 0 1-4.16-4 16.73 16.73 0 0 1 .48-3.16c-3.64 3.64-11.48 7.2-16.64 7.2a.44.44 0 0 1-.44-.44c0-.36.32-.4.6-.4A21.22 21.22 0 0 0 76.68 18c3.36-1.12 8.28-3.36 10.32-6.48a3.18 3.18 0 0 0 .52-1c-.6 0-1.24.08-1.84.08-.4 0-1.24-.12-1.24-.64 0-.8 3-.72 3.64-.72.2-.52.88-2.6 1.56-2.6.48 0 .56.8.56 1.12a3.7 3.7 0 0 1-.4 1.44 14.5 14.5 0 0 1 2.28 0c.16-.04.64-.16.64.12z"/><path class="a" d="M110.68 18.68c0 1-2.08 1.48-2.88 1.48-3.6 0-4.12-3.52-5-3.52s-2.16 4.32-5.64 4.32a2 2 0 0 1-2.2-2.16v-.2a6.08 6.08 0 0 1-3.88 1.56c-.32 0-.64 0-.64-.44a.44.44 0 0 1 .44-.4c1.8 0 3.28-1.28 4.6-2.4 1-1.76 3.08-3.8 5.2-3.8a2.71 2.71 0 0 1 2.44 1.28 1.1 1.1 0 0 1 1.12.68 6.89 6.89 0 0 1 .36 1.2c.44 1.56 1.4 3 3.2 3a6.86 6.86 0 0 0 2.64-.92c.16.04.24.16.24.32zm-9-3.32c-.32-.52-.64-1-1.32-1-1.64 0-4 2.68-4 4.28a1.06 1.06 0 0 0 1.12 1.16c1.8 0 3.28-3.2 4.24-4.44zM8.12 58.28a15.53 15.53 0 0 0 2.36.12.44.44 0 0 1 .44.44.44.44 0 0 1-.44.44 15.47 15.47 0 0 1-2.6-.16c-.8 2.12-3.16 4-5.32 4a2.68 2.68 0 0 1-2.56-3 8 8 0 0 1 2.16-4.88c.72-.88 2-2.16 3.24-2.16s1.6 1 1.6 2a3 3 0 0 1 1.16 2.48 3.43 3.43 0 0 1-.04.72zm-1.44.52a2.77 2.77 0 0 1-2.24-2.6c0-.84.64-1.28 1.56-1.36a.81.81 0 0 0-.68-.44 1.59 1.59 0 0 0-1 .36 8.11 8.11 0 0 0-3 5.56A1.64 1.64 0 0 0 3 62.08c1.08 0 3-1.36 3.68-3.28zm.24-.84v-.56c0-.84-.44-1.52-1.12-1.52-.16 0-.24.16-.24.32a1.8 1.8 0 0 0 1.36 1.76z"/><path class="a" d="M31.72 61.36c0 .64-1.28 1-1.8 1-2.44 0-3.48-2.76-3.68-4.8-1 2.36-3.24 5.68-6.12 5.68-2 0-3.08-1.64-3.08-3.48a12.4 12.4 0 0 1 .84-3.6c-2 1.68-4.76 3.16-7.44 3.16a.44.44 0 0 1-.44-.44.44.44 0 0 1 .44-.44 6.79 6.79 0 0 0 2-.36 10.64 10.64 0 0 0 2.36-1.12c.68-.4 3.48-2.48 4.08-2.48a.82.82 0 0 1 .84.84c0 1-1.48 2.64-1.48 4.6a2 2 0 0 0 2.08 2.16 2.4 2.4 0 0 0 1.36-.44c2-1.4 2.64-3.2 3.68-5.32.28-.56.84-1.32 1.48-1.32.8 0 1 1 1 1.64 0 .48-.12 1-.12 1.52 0 1.48.48 3.32 2.28 3.32.52 0 1-.24 1.56-.24a.17.17 0 0 1 .16.12zm23.24-17.91c.68-.84 2-2.08 3.12-2.08s1.76 1.52 1.76 2.56c0 2.88-2.76 7.84-4.44 10.12a11.25 11.25 0 0 0-.84 1.08c-.4.6-.76 1.16-1.2 1.72.92 2.16 2.56 4.44 5.16 4.44a.44.44 0 0 1 .44.4.44.44 0 0 1-.44.44 6.57 6.57 0 0 1-6-4.24c-2.08 2.32-4.44 4.56-7.76 4.56-.4 0-1.52-.12-1.52-.68 0-.2.28-.24.44-.24a8 8 0 0 0 3.08-.44 14.26 14.26 0 0 0 5.28-4.36 12.65 12.65 0 0 1-.6-3.68 17.08 17.08 0 0 1 3.52-9.6zm2 6.24a14 14 0 0 0 1.84-5.36c0-.68-.28-1.4-1.08-1.4a1.55 1.55 0 0 0-.92.36c-2.44 1.76-4.08 6.92-4.08 9.8a10.25 10.25 0 0 0 .28 2.48 52.08 52.08 0 0 0 3.92-5.85z"/><path class="a" d="M72.16 58.28a4.82 4.82 0 0 0 .52 1.24 3.08 3.08 0 0 0 2.68 1.8.44.44 0 0 1 .44.4.44.44 0 0 1-.44.44c-3.56 0-4.08-3.52-5-3.52s-2.12 4.32-5.64 4.32a2 2 0 0 1-2.16-2.12v-.24a5.92 5.92 0 0 1-4.08 1.56.4.4 0 0 1-.44-.44.43.43 0 0 1 .4-.4c1.8 0 3.32-1.28 4.64-2.4 1-1.72 3-3.8 5.16-3.8a2.87 2.87 0 0 1 2.48 1.28c1.16-.12 1.2 1.05 1.44 1.88zm-2.84-.92c-.32-.52-.68-1-1.32-1-1.68 0-4.08 2.68-4.08 4.28a1.09 1.09 0 0 0 1.16 1.16c1.8 0 3.32-3.2 4.24-4.44zM66.6 51.8c-.16 0-.24 0-.24-.16 0-.28 2.68-2.6 3.32-2.6.32 0 .6.16.6.4 0 .52-2.44 2.08-3.32 2.32a1.11 1.11 0 0 1-.36.04z"/><path class="a" d="M94.64 61.72a.44.44 0 0 1-.4.44 23.52 23.52 0 0 1-3.6-.24 7.2 7.2 0 0 1-2.8-.8c-1.24 4.28-2 5.8-3.16 9.2s-2 7-4.52 7c-1.16 0-2-1.4-2-3 0-5.68 7.08-15 10.16-19.44 0-.24.08-.48.08-.76s-.2-1.08-.64-1.08a2 2 0 0 0-1.24.88C83 58.6 79.36 62.2 75.32 62.2a.42.42 0 0 1-.44-.44.44.44 0 0 1 .44-.44h.32c1.88 0 4.56-1.6 6.28-3.32 2.16-2.12 4.84-6.64 6.48-6.64 1.28 0 1.24 1.68 1.24 2.4a6.21 6.21 0 0 1 3.12-1.2c1.6 0 3.48.92 3.48 2.88 0 2.36-3.08 5.16-6 5.36a11.61 11.61 0 0 0 4 .56.43.43 0 0 1 .4.36zM85.32 65c.88-2.76 1.88-5.24 2.52-7.84-3 4.52-4 5.76-5.52 8.44a37.27 37.27 0 0 0-2.52 5.72 9.77 9.77 0 0 0-.52 2.92c0 1.2.28 1.84.92 1.84 1 0 1.64-1.52 2.44-3.68 1.08-2.85 1.68-4.41 2.68-7.41zm4-4.8c1.84 0 5.4-2 5.4-4.64a1.7 1.7 0 0 0-1.92-1.64 6.19 6.19 0 0 0-3.4 1.24 32.18 32.18 0 0 1-1.24 4.88 4.23 4.23 0 0 0 1.24.16z"/><path class="a" d="M111.4 54.8a7.77 7.77 0 0 1 .2 1.44 7.16 7.16 0 0 0 1.4 4.2 2.48 2.48 0 0 0 .88.68c.4.16 1.56.08 1.56.6a.44.44 0 0 1-.44.44 4.14 4.14 0 0 1-3.16-1.64 9.5 9.5 0 0 1-1.72-4.56c-4.08 2.8-11 6.2-16 6.2a.44.44 0 0 1-.44-.44c0-.36.36-.4.6-.4 2.64-.08 5.64-1.28 8.08-2.28a27.82 27.82 0 0 0 4-2.12c.56-.36 1.08-.72 1.6-1.12s1.64-1.52 2.44-1.52a1.06 1.06 0 0 1 1 .52zm-.84-6.28c0-.4.36-.56.72-.56.64 0 1 .84 1 1.4 0 .32-.12.6-.48.6-.56 0-1.2-.92-1.2-1.44z"/><path class="a" d="M134 56.68a3.57 3.57 0 0 1 1.44 2.72c0 4.16-5.44 5.32-8.68 5.32-.32 0-1.12-.16-1.12-.6s.64-.52 1-.52a13.82 13.82 0 0 0 3.4-.32 5.33 5.33 0 0 0 3.56-2.12 2.91 2.91 0 0 0 .52-1.72c0-2.16-3.92-4.32-5.32-5.84a69.07 69.07 0 0 1-7.44 6.24c-2.24 1.56-3.56 2.32-6.36 2.32a.44.44 0 0 1-.44-.4.44.44 0 0 1 .44-.44 9 9 0 0 0 4.36-1.36 11.6 11.6 0 0 0 1.28-.84 61.12 61.12 0 0 0 5.88-4.76l1.68-1.6a2.73 2.73 0 0 1-.32-1.24c0-1.48 1.48-3.6 3.08-3.6a1.21 1.21 0 0 1 1.24 1.28c0 1.32-1.56 2.84-2.56 3.6h-.08c1.36 1.4 2.96 2.6 4.44 3.88zm-5-5.12v.4c.48-.44 2-1.8 2-2.48a.34.34 0 0 0-.36-.36c-.8 0-1.6 1.76-1.6 2.44z"/></svg>