<svg xmlns="http://www.w3.org/2000/svg" viewBox="0 0 129 93.94"><defs><style>.a{fill:#fff}</style></defs><title>p10_s3</title><path class="a" d="M123.88 78.76a141.67 141.67 0 0 0-18.39-1.22c-11.54 0-27.08 1.67-38.44 8.9V15.13c10.29-8.21 26.48-10 38.44-10a136.55 136.55 0 0 1 18.39 1.27zm-61.94 7.68c-11.36-7.22-26.9-8.9-38.44-8.9a141.73 141.73 0 0 0-18.4 1.22V6.39a136.35 136.35 0 0 1 18.4-1.27c12 0 28.15 1.8 38.44 10zm64.95-84.76A133.19 133.19 0 0 0 105.49 0c-12.41 0-29.51 1.85-41 10.56C53 1.84 35.9 0 23.49 0a133.26 133.26 0 0 0-21.4 1.68 2.55 2.55 0 0 0-2.1 2.51v77.54a2.56 2.56 0 0 0 .92 2 2.45 2.45 0 0 0 2.09.55 131.68 131.68 0 0 1 20.49-1.6c12.29 0 29.09 1.85 39.33 10.67a2.63 2.63 0 0 0 .45.27 2.32 2.32 0 0 0 .27.16 2.52 2.52 0 0 0 .94.19 2.52 2.52 0 0 0 .94-.19 2.7 2.7 0 0 0 .31-.19 2.53 2.53 0 0 0 .41-.25c10.24-8.81 27-10.66 39.33-10.66a130.1 130.1 0 0 1 20.51 1.6 2.6 2.6 0 0 0 2.08-.57 2.55 2.55 0 0 0 .91-2V4.2a2.54 2.54 0 0 0-2.1-2.51"/></svg>