<svg xmlns="http://www.w3.org/2000/svg" viewBox="0 0 85.45 92.89"><defs><style>.a{fill:#fff}</style></defs><title>p10_s2</title><path class="a" d="M30.52.01a2.44 2.44 0 0 0-2.14 1.72l-6.56 20.75L2.4 37.17a2.44 2.44 0 0 0-1 1.87L0 90.38a2.44 2.44 0 0 0 2.37 2.51 2.44 2.44 0 0 0 1.37-.37l43.72-26.89a2.44 2.44 0 0 0 1.14-1.79l3-24.18 14.72-16a2.44 2.44 0 0 0-.16-3.45 2.44 2.44 0 0 0-.45-.33L31.91.35a2.44 2.44 0 0 0-1.39-.34zm1.6 6.07l28.53 16.48-11.83 12.89-22-12.7zm-8 20.75l22.54 13-2.78 22.2L9.36 83.24l11.21-19.42a8.58 8.58 0 0 0 9.38-4 8.58 8.58 0 0 0-3.13-11.67 8.42 8.42 0 0 0-3.2-1.07 8.59 8.59 0 0 0-8.47 4.2 8.59 8.59 0 0 0 1.25 10.1L5.15 80.87l1.14-40.59zm-1.83 25.06a3.7 3.7 0 0 1 2.1.5 3.62 3.62 0 0 1 1.34 5 3.62 3.62 0 0 1-5 1.34 3.62 3.62 0 0 1-1.34-5 3.63 3.63 0 0 1 2.21-1.72 3.61 3.61 0 0 1 .69-.11zm-.34 36.12a2.44 2.44 0 0 0-2.44 2.44 2.44 2.44 0 0 0 2.44 2.44h61a2.44 2.44 0 0 0 2.44-2.44 2.44 2.44 0 0 0-2.44-2.44z"/></svg>