<svg xmlns="http://www.w3.org/2000/svg" viewBox="0 0 66.76 66.76"><title>p10_s24</title><circle cx="33.38" cy="33.38" r="31.38" fill="none" stroke="#fff" stroke-linecap="round" stroke-linejoin="round" stroke-width="4" stroke-dasharray=".995458722114563,9.95458698272705"/><path d="M20.65 29.88a.28.28 0 0 1 .28.27.42.42 0 0 1-.13.26 3.24 3.24 0 0 1-2.61 1.06 3.31 3.31 0 0 1-3.43-3.65 3.49 3.49 0 0 1 3.54-3.71 3.15 3.15 0 0 1 2.54 1 .46.46 0 0 1 .14.31.35.35 0 0 1-.38.35c-.21 0-.35-.13-.5-.33a1.92 1.92 0 0 0-1.77-.84c-1.48 0-2.4 1.38-2.4 3.21s.82 3.19 2.4 3.19a2.51 2.51 0 0 0 2-.84c.08-.21.17-.28.32-.28zM22.47 21.27c0-.29.25-.45.56-.45s.56.15.56.45v9.62c0 .29-.25.45-.56.45s-.56-.15-.56-.45zM25.61 21.76c0-.31.26-.56.71-.56s.71.25.71.56-.28.57-.71.57-.71-.23-.71-.57zm.15 2.92c0-.29.25-.45.57-.45s.54.15.54.45v6.19c0 .29-.24.45-.54.45s-.57-.15-.57-.45zM34.45 29.76h-.07a2.7 2.7 0 0 1-2.64 1.7c-2.12 0-3.3-1.59-3.3-3.65a3.44 3.44 0 0 1 3.51-3.71 2.52 2.52 0 0 1 2.46 1.6h.07v-1c0-.28.22-.43.53-.43s.54.14.54.42v9.23c0 .29-.25.45-.56.45s-.56-.15-.56-.45zm-4.84-2c0 1.94.92 3.17 2.33 3.17 1.66 0 2.55-1.44 2.55-3.17s-.85-3.17-2.44-3.17-2.44 1.32-2.44 3.17zM43.76 30.9c0 .28-.24.43-.54.43s-.52-.15-.52-.43v-1h-.07a2.43 2.43 0 0 1-2.36 1.53c-1.86 0-2.66-1-2.66-2.83v-3.95c0-.29.25-.45.56-.45s.56.15.56.45v4.11c0 1.1.38 2.18 1.8 2.18 1.25 0 2.13-1.09 2.13-2.64v-3.61c0-.29.25-.45.56-.45s.56.15.56.45zM50.97 30.14c.18-.2.27-.24.39-.24a.26.26 0 0 1 .28.26.44.44 0 0 1-.11.26 3.6 3.6 0 0 1-2.78 1 3.28 3.28 0 0 1-3.42-3.61 3.44 3.44 0 0 1 3.49-3.75 2.89 2.89 0 0 1 3.08 3.12v.13c0 .28-.14.49-.53.49h-4.88v.11c0 1.7.84 3 2.38 3a2.63 2.63 0 0 0 2.1-.77zm-.14-2.8v-.21c0-1.7-.81-2.55-2-2.55s-2.15.95-2.26 2.76zM25.92 40.98c.29 0 .53.15.53.43v6.22c0 .28-.25.43-.54.43s-.52-.15-.53-.43v-1.14h-.06a2.66 2.66 0 0 1-2.59 1.73c-2.08 0-3.18-1.52-3.18-3.61a3.45 3.45 0 0 1 3.44-3.77 2.42 2.42 0 0 1 2.34 1.55h.06v-1a.47.47 0 0 1 .53-.41zm-5.23 3.61c0 2 .87 3.07 2.22 3.07 1.56 0 2.47-1.39 2.47-3.11s-.73-3.19-2.33-3.19c-1.43-.01-2.36 1.32-2.36 3.23zM34.02 46.5h-.07a2.7 2.7 0 0 1-2.64 1.7c-2.12 0-3.3-1.59-3.3-3.65a3.44 3.44 0 0 1 3.51-3.71 2.52 2.52 0 0 1 2.46 1.6h.07v-1c0-.28.22-.43.53-.43s.54.14.54.42v9.23c0 .29-.25.45-.56.45s-.56-.15-.56-.45zm-4.84-2c0 1.94.92 3.17 2.33 3.17 1.66 0 2.55-1.44 2.55-3.17s-.85-3.17-2.44-3.17-2.44 1.31-2.44 3.19zM43.34 47.63c0 .28-.24.43-.54.43s-.52-.15-.52-.43v-1h-.07a2.43 2.43 0 0 1-2.36 1.53c-1.86 0-2.66-1-2.66-2.83v-3.95c0-.29.25-.45.56-.45s.56.15.56.45v4.07c0 1.1.38 2.18 1.8 2.18 1.25 0 2.13-1.09 2.13-2.64v-3.61c0-.29.25-.45.56-.45s.56.15.56.45zM45.36 38.51c0-.31.26-.56.71-.56s.71.25.71.56-.28.57-.71.57-.71-.25-.71-.57zm.15 2.92c0-.29.25-.45.57-.45s.54.15.54.45v6.19c0 .29-.24.45-.54.45s-.57-.15-.57-.45z" fill="#fff"/></svg>