<svg xmlns="http://www.w3.org/2000/svg" viewBox="0 0 48.64 48.64"><defs><style>.a{fill:#fff}</style></defs><title>p10_s21</title><path class="a" d="M11.86 48.64a2 2 0 0 1-.77-.15l-2.7-1.12A2.05 2.05 0 0 1 7.19 45c.14-.58.3-1.17.45-1.75a13.63 13.63 0 0 1-2.24-2.24l-1.75.45a2 2 0 0 1-2.37-1.2l-1.12-2.7a2.05 2.05 0 0 1 .83-2.53l1.56-.92a13.61 13.61 0 0 1 0-3.17l-1.56-.92a2 2 0 0 1-.83-2.53l1.12-2.7a2.05 2.05 0 0 1 2.36-1.2l1.75.45a13.59 13.59 0 0 1 2.24-2.24c-.16-.59-.31-1.18-.45-1.75a2.05 2.05 0 0 1 1.2-2.37l2.7-1.12a2.05 2.05 0 0 1 2.53.83c.31.51.62 1 .92 1.56a13.55 13.55 0 0 1 3.16 0c.3-.53.61-1.05.92-1.56a2.05 2.05 0 0 1 2.53-.83l2.7 1.12a2 2 0 0 1 1.2 2.37c-.14.58-.3 1.17-.45 1.75a13.63 13.63 0 0 1 2.24 2.24l1.75-.45a2 2 0 0 1 2.37 1.2l1.12 2.7a2.05 2.05 0 0 1-.83 2.53l-1.56.92a13.6 13.6 0 0 1 0 3.16l1.56.92a2.05 2.05 0 0 1 .83 2.53l-1.12 2.7a2 2 0 0 1-2.37 1.2L26.83 41a13.63 13.63 0 0 1-2.24 2.24c.16.59.31 1.18.45 1.75a2 2 0 0 1-1.2 2.37l-2.7 1.12a2.05 2.05 0 0 1-2.53-.83c-.31-.51-.62-1-.92-1.56a13.61 13.61 0 0 1-3.17 0c-.31.53-.61 1.05-.92 1.56a2.05 2.05 0 0 1-1.76 1m-2.53-3.24l2.48 1c.29-.49.59-1 .88-1.5a2 2 0 0 1 2-1 11.44 11.44 0 0 0 2.82 0 2 2 0 0 1 2 1c.29.5.58 1 .88 1.5l2.48-1c-.14-.55-.28-1.12-.44-1.68a2 2 0 0 1 .71-2.14 11.41 11.41 0 0 0 2-2 2 2 0 0 1 2.14-.71l1.68.44 1-2.48-1.5-.88a2 2 0 0 1-1-2 11.39 11.39 0 0 0 0-2.82 2 2 0 0 1 1-2l1.5-.88-1-2.48-1.68.44a2 2 0 0 1-2.14-.71 11.41 11.41 0 0 0-2-2 2 2 0 0 1-.71-2.14c.15-.56.3-1.13.44-1.68l-2.48-1c-.29.49-.59 1-.88 1.5a2 2 0 0 1-2 1 11.4 11.4 0 0 0-2.82 0 2 2 0 0 1-2-1c-.29-.51-.59-1-.88-1.5l-2.48 1c.14.56.29 1.12.44 1.68a2 2 0 0 1-.71 2.14 11.44 11.44 0 0 0-2 2 2 2 0 0 1-2.14.71l-1.68-.44-1 2.48 1.5.88a2 2 0 0 1 1 2 11.39 11.39 0 0 0 0 2.82 2 2 0 0 1-1 2l-1.5.88 1 2.48 1.68-.44a2 2 0 0 1 2.14.71 11.37 11.37 0 0 0 2 2 2 2 0 0 1 .71 2.14c-.15.56-.3 1.13-.44 1.68"/><path class="a" d="M16.12 39.96a7.41 7.41 0 0 1-2.84-.57 7.37 7.37 0 0 1-4-4 7.43 7.43 0 0 1 4-9.7 7.43 7.43 0 0 1 9.69 4 7.43 7.43 0 0 1-4 9.7 7.42 7.42 0 0 1-2.84.57m0-12.67a5.2 5.2 0 0 0-2 .4 5.25 5.25 0 0 0-2.84 6.85 5.21 5.21 0 0 0 2.84 2.84 5.21 5.21 0 0 0 4 0 5.25 5.25 0 0 0 2.84-6.85 5.25 5.25 0 0 0-4.85-3.24m21.23-2.57h-2.12a1.74 1.74 0 0 1-1.71-1.47c-.06-.38-.11-.76-.16-1.15a10.22 10.22 0 0 1-1.88-.78l-.93.7a1.74 1.74 0 0 1-2.24-.17l-1.5-1.5a1.73 1.73 0 0 1-.17-2.24l.7-.93a10.22 10.22 0 0 1-.78-1.88l-1.15-.16a1.74 1.74 0 0 1-1.47-1.71v-2.12a1.74 1.74 0 0 1 1.47-1.71l1.15-.16a10 10 0 0 1 .78-1.88l-.7-.93a1.73 1.73 0 0 1 .17-2.24l1.5-1.5a1.73 1.73 0 0 1 2.24-.17l.93.7a10.22 10.22 0 0 1 1.88-.78c.05-.39.11-.78.16-1.15A1.74 1.74 0 0 1 35.23.02h2.12a1.74 1.74 0 0 1 1.71 1.47c.06.38.11.76.16 1.15a10.22 10.22 0 0 1 1.88.78l.93-.7a1.73 1.73 0 0 1 2.24.17l1.5 1.5a1.74 1.74 0 0 1 .17 2.24l-.7.93a10.19 10.19 0 0 1 .78 1.88l1.15.16a1.74 1.74 0 0 1 1.47 1.71v2.12a1.74 1.74 0 0 1-1.47 1.71l-1.15.16a10.22 10.22 0 0 1-.78 1.88l.7.93a1.73 1.73 0 0 1-.17 2.24l-1.5 1.5a1.73 1.73 0 0 1-2.24.17l-.93-.7a10.08 10.08 0 0 1-1.88.78c-.05.39-.11.78-.16 1.15a1.74 1.74 0 0 1-1.71 1.47m-1.83-2.07h1.53c0-.34.1-.69.14-1a1.72 1.72 0 0 1 1.25-1.44 8 8 0 0 0 1.84-.76 1.72 1.72 0 0 1 1.9.14l.84.63 1.08-1.08-.63-.84a1.72 1.72 0 0 1-.13-1.9 8.05 8.05 0 0 0 .76-1.84 1.72 1.72 0 0 1 1.44-1.25l1-.14v-1.58l-1-.14a1.72 1.72 0 0 1-1.44-1.25 8 8 0 0 0-.76-1.84 1.72 1.72 0 0 1 .14-1.9l.63-.84-1.08-1.08-.84.63a1.72 1.72 0 0 1-1.9.13 8.05 8.05 0 0 0-1.84-.76A1.72 1.72 0 0 1 37.2 3.1c0-.35-.09-.7-.14-1h-1.53c0 .34-.1.69-.14 1a1.72 1.72 0 0 1-1.25 1.44 8 8 0 0 0-1.84.76 1.72 1.72 0 0 1-1.9-.13l-.84-.63-1.08 1.08.63.84a1.72 1.72 0 0 1 .13 1.9 8.05 8.05 0 0 0-.76 1.84 1.72 1.72 0 0 1-1.44 1.25l-1 .14v1.53l1 .14a1.72 1.72 0 0 1 1.44 1.25 8 8 0 0 0 .76 1.84 1.72 1.72 0 0 1-.13 1.9l-.63.84 1.08 1.08.84-.63a1.72 1.72 0 0 1 1.9-.13 8.07 8.07 0 0 0 1.84.76 1.72 1.72 0 0 1 1.25 1.44c0 .35.09.7.14 1"/><path class="a" d="M36.29 16.77a4.41 4.41 0 0 1-4.41-4.41 4.41 4.41 0 0 1 4.41-4.41 4.41 4.41 0 0 1 4.41 4.41 4.41 4.41 0 0 1-4.41 4.41m0-6.86a2.45 2.45 0 0 0-2.45 2.45 2.45 2.45 0 0 0 2.45 2.45 2.45 2.45 0 0 0 2.45-2.45 2.45 2.45 0 0 0-2.45-2.45"/></svg>