<svg xmlns="http://www.w3.org/2000/svg" viewBox="0 0 41.15 40.34"><title>p11_s3</title><path fill="#3c1604" d="M0 0h41.15v40.34H0z"/><path d="M24.85 6.69a10.32 10.32 0 0 1-3.2.66c-6 .29-9.59 4.6-9.76 9.2h-1.18a.75.75 0 0 0-.75.75v3.74H8.71a.75.75 0 0 0-.75.75v8.43a3.51 3.51 0 0 0 3.51 3.51h18.14a3.51 3.51 0 0 0 3.51-3.51v-8.43a.75.75 0 0 0-.75-.75h-1.26v-3.69a.75.75 0 0 0-.75-.75h-1.3a7.41 7.41 0 0 0-2.19-4.61c-2.41-2.06-2.24-2.73-1.28-4a.75.75 0 0 0-.74-1.3zm-3 2.16c.58-.06 1.16-.12 1.73-.22-.39 1.42.31 2.7 1.75 3.89a6 6 0 0 1 2.28 4H13.4c.38-4.62 3.68-7.33 8.41-7.68zm-10.34 9.2h18.12v3H11.51zm20.13 12.17a2 2 0 0 1-2 2H11.5a2 2 0 0 1-2-2v-7.68h22.14v7.68z" fill="#fff"/></svg>