<?xml version="1.0" encoding="utf-8"?>
<!-- Generator: Adobe Illustrator 21.0.0, SVG Export Plug-In . SVG Version: 6.00 Build 0)  -->
<svg version="1.1" id="Layer_1" xmlns="http://www.w3.org/2000/svg" xmlns:xlink="http://www.w3.org/1999/xlink" x="0px" y="0px"
	 viewBox="0 0 305 63" style="enable-background:new 0 0 305 63;" xml:space="preserve">
<style type="text/css">
	.st0{fill:#FFFFFF;}
	.st1{fill:#3C1604;}
</style>
<title>p11_s4</title>
<path class="st0" d="M0,0h305v63H0V0z"/>
<path class="st1" d="M31.8,20.5c5.4,0,9.3,3.5,9.3,9.9c0,6.1-4,9.9-9.3,9.9s-9.3-3.5-9.3-9.9C22.5,24.4,26.4,20.5,31.8,20.5z
	 M31.8,39c3.4,0,5.4-3,5.4-8.6c0-5.8-2.1-8.6-5.4-8.6s-5.4,3-5.4,8.6C26.4,36.2,28.5,39,31.8,39z M58.5,20.5c5.4,0,9.3,3.6,9.3,9.9
	c0,5.6-3.2,9-7.8,9.6v0.1l6,2.1c0.7,0.2,1.2,0.5,1.2,1.1c0,0.6-0.4,1-1,1c0,0-0.1,0-0.1,0c-0.6,0-1.1-0.2-1.6-0.4l-7.3-3.8
	c-4.8-0.5-8-4-8-9.8C49.1,24.4,53,20.5,58.5,20.5z M58.5,39c3.4,0,5.4-3,5.4-8.6c0-5.8-2.1-8.6-5.4-8.6s-5.4,3-5.4,8.6
	C53,36.2,55.1,39,58.5,39z M71,22.1c0-0.9,0.8-1.3,1.8-1.3s1.8,0.4,1.8,1.3v11.3c0,3.4,1.3,5.6,4.4,5.6c2.4,0,4.4-1.6,4.4-5.6V22.1
	c0-0.8,0.7-1.3,1.7-1.3s1.6,0.4,1.6,1.3v10.4c0,4.5-2.4,7.8-7.7,7.8s-8-2.8-8-7.8L71,22.1z M91.2,23.1c0-1.5,0.9-2.2,2.4-2.2h9.9
	c0.7,0,1,0.3,1,0.8s-0.3,0.8-1,0.8h-8.7v6.6h7.4c0.7,0,1,0.3,1,0.8s-0.3,0.8-1,0.8h-7.4v7.6h8.9c0.7,0,1,0.3,1,0.8s-0.3,0.8-1,0.8
	H93c-1.1,0-1.7-0.5-1.7-1.6V23.1z M119.6,25c0,2.3-1.3,3.8-4.4,5.9c-1.4,0.9-2.4,1.8-2.5,3c-0.1,0.6-0.3,0.8-0.7,0.8
	c-0.3,0-0.5-0.2-0.6-0.4c-0.1-0.4-0.1-0.9-0.1-1.3c0-2,0.5-2.8,2.4-4.7c1.2-1.2,2-2.2,2-3.6c0-1.5-1.2-2.8-2.7-2.8
	c-0.1,0-0.3,0-0.4,0c-1.3,0-2.5,0.5-3.3,1.5c-0.8,0.9-1.2,1.2-1.7,1.2c-0.5,0-0.9-0.3-0.9-0.8c0,0,0,0,0-0.1c0-0.4,0.1-0.7,0.4-1
	c1.4-1.5,3.5-2.4,5.6-2.2C116.5,20.5,119.6,22.1,119.6,25z M110.1,38.6c0-0.9,0.8-1.6,2-1.6s2,0.6,2,1.6s-0.8,1.6-2,1.6
	S110.1,39.6,110.1,38.6z"/>
</svg>
