<?xml version="1.0" encoding="utf-8"?>
<!-- Generator: Adobe Illustrator 21.0.0, SVG Export Plug-In . SVG Version: 6.00 Build 0)  -->
<svg version="1.1" id="Layer_1" xmlns="http://www.w3.org/2000/svg" xmlns:xlink="http://www.w3.org/1999/xlink" x="0px" y="0px"
	 viewBox="0 0 305 63" style="enable-background:new 0 0 305 63;" xml:space="preserve">
<style type="text/css">
	.st0{fill:#FFFFFF;}
	.st1{fill:#F18024;}
</style>
<title>p11_s6</title>
<path class="st0" d="M0,0h305v63H0V0z"/>
<path class="st1" d="M31.8,21.3c5.4,0,9.3,3.5,9.3,9.9c0,6.1-4,9.9-9.3,9.9s-9.4-3.5-9.4-9.9C22.4,25.1,26.4,21.3,31.8,21.3z
	 M31.8,39.8c3.4,0,5.4-3,5.4-8.6c0-5.8-2.1-8.6-5.4-8.6s-5.4,3-5.4,8.6C26.4,37,28.4,39.8,31.8,39.8L31.8,39.8z M44.7,23.2
	c0-0.9,0.8-1.6,2.2-1.6c1,0,1.9,0.5,2.4,1.3c2.6,4,4.6,7.4,7.2,11.4c0.6,1,1.4,2.4,1.8,3.1h0.1c0-1.9-0.1-4-0.1-5.9v-9
	c0-0.5,0.3-0.9,0.8-0.9c0.1,0,0.1,0,0.2,0c0.5-0.1,0.9,0.3,0.9,0.8c0,0,0,0.1,0,0.1v16.7c0,0.9-0.7,1.7-2.1,1.7c-1,0-2-0.5-2.5-1.3
	c-2.6-4-4.7-7.4-7.2-11.4c-0.6-1-1.4-2.4-1.8-3.1h-0.1c0,1.9,0.1,3.9,0.1,5.9v9c0,0.5-0.3,0.9-0.8,0.9c-0.1,0-0.1,0-0.2,0
	c-0.5,0.1-0.9-0.3-0.9-0.8c0,0,0-0.1,0-0.1L44.7,23.2z M66.9,40.6c-1.1,0-1.7-0.5-1.7-1.6V23.8c0-1,0.8-1.9,1.8-2
	c1.3-0.2,2.6-0.2,3.9-0.2c5.8,0,10.8,2.5,10.8,9.3s-4.5,9.8-10.9,9.8L66.9,40.6z M70.8,39.3c4.1,0,6.9-2.2,6.9-8.4
	c0-3.8-1.2-6-3-7.1c-1.2-0.7-2.6-1-4-1c-0.2,0-1.3,0-1.9,0v16.4L70.8,39.3z M85.2,23.9c0-1.5,0.9-2.2,2.4-2.2h9.9c0.7,0,1,0.3,1,0.8
	s-0.3,0.8-1,0.8h-8.7v6.6h7.4c0.7,0,1,0.3,1,0.8s-0.3,0.8-1,0.8h-7.4V39h8.9c0.7,0,1,0.3,1,0.8s-0.3,0.8-1,0.8H86.9
	c-1.1,0-1.7-0.5-1.7-1.6L85.2,23.9z M113.5,25.8c0,2.3-1.3,3.8-4.4,5.9c-1.4,0.9-2.4,1.8-2.5,3c-0.1,0.6-0.3,0.8-0.7,0.8
	c-0.3,0-0.5-0.2-0.6-0.4c-0.1-0.4-0.1-0.9-0.1-1.3c0-2,0.5-2.8,2.4-4.7c1.2-1.2,2-2.2,2-3.6c0-1.5-1.2-2.8-2.7-2.8
	c-0.1,0-0.3,0-0.4,0c-1.3,0-2.5,0.5-3.3,1.5c-0.8,0.9-1.2,1.2-1.7,1.2c-0.5,0-0.9-0.3-0.9-0.8c0,0,0,0,0-0.1c0-0.4,0.1-0.7,0.4-1
	c1.4-1.5,3.5-2.4,5.6-2.2C110.4,21.3,113.5,22.8,113.5,25.8L113.5,25.8z M104.1,39.3c0-0.9,0.8-1.6,2-1.6s2,0.6,2,1.6
	s-0.8,1.6-2,1.6S104.1,40.3,104.1,39.3z"/>
</svg>
