<?xml version="1.0" encoding="utf-8"?>
<!-- Generator: Adobe Illustrator 21.0.0, SVG Export Plug-In . SVG Version: 6.00 Build 0)  -->
<svg version="1.1" id="Layer_1" xmlns="http://www.w3.org/2000/svg" xmlns:xlink="http://www.w3.org/1999/xlink" x="0px" y="0px"
	 viewBox="0 0 305 63" style="enable-background:new 0 0 305 63;" xml:space="preserve">
<style type="text/css">
	.st0{fill:#FFFFFF;}
	.st1{fill:#A3775B;}
</style>
<title>p11_s2</title>
<path class="st0" d="M0,0h305v63H0V0z"/>
<path class="st1" d="M30.9,20.9c5.4,0,9.3,3.6,9.3,9.9c0,5.6-3.2,9-7.8,9.6v0.1l6,2.1c0.7,0.2,1.2,0.5,1.2,1.1c0,0.6-0.4,1-1,1
	c0,0-0.1,0-0.1,0c-0.6,0-1.1-0.2-1.6-0.4l-7.3-3.8c-4.8-0.5-8-4-8-9.8C21.6,24.7,25.5,20.9,30.9,20.9z M30.9,39.4
	c3.4,0,5.4-3,5.4-8.6c0-5.8-2.1-8.6-5.4-8.6s-5.4,3-5.4,8.6C25.5,36.6,27.6,39.4,30.9,39.4z M43.4,22.5c0-0.9,0.8-1.3,1.8-1.3
	s1.8,0.4,1.8,1.3v11.3c0,3.4,1.3,5.6,4.4,5.6c2.4,0,4.4-1.6,4.4-5.6V22.5c0-0.8,0.7-1.3,1.7-1.3s1.6,0.4,1.6,1.3v10.5
	c0,4.5-2.4,7.8-7.7,7.8s-8-2.8-8-7.8L43.4,22.5z M63.7,23.5c0-1.5,0.9-2.2,2.4-2.2H76c0.7,0,1,0.3,1,0.8s-0.3,0.8-1,0.8h-8.7v6.6
	h7.4c0.7,0,1,0.3,1,0.8s-0.3,0.8-1,0.8h-7.4v7.6h8.9c0.7,0,1,0.3,1,0.8s-0.3,0.8-1,0.8H65.4c-1.1,0-1.7-0.5-1.7-1.6L63.7,23.5z
	 M80.6,23c0-1.1,0.9-1.8,2.5-1.8c1-0.1,2,0.4,2.4,1.4c1.2,2.6,3.3,8.3,4.4,11.1h0.1c1.1-2.4,1.8-4.2,2.7-6.3
	c0.7-1.6,1.3-3.2,2.1-4.7c0.4-0.9,1.4-1.5,2.4-1.4c1.1,0,2.1,0.5,2.1,1.5v16.4c0,0.9-0.8,1.3-1.8,1.3s-1.8-0.4-1.8-1.3v-8.3
	c0-1.5,0-5.4,0.2-6.8h-0.1c-0.3,0.9-0.9,2.6-1.3,3.5c-1.2,2.8-2.5,6-3.5,7.8c-0.3,0.8-1.1,1.3-1.9,1.3c-0.9,0.1-1.7-0.4-2-1.2
	c-0.9-1.9-2.1-5.1-3.3-8.1c-0.3-0.8-0.9-2.4-1.1-3.2h-0.1c0.1,1.9,0.1,4.7,0.1,6.6v8.9c0,0.5-0.3,0.9-0.8,0.9c-0.1,0-0.1,0-0.2,0
	c-0.5,0.1-0.9-0.3-0.9-0.8c0,0,0-0.1,0-0.1L80.6,23z M115.2,25.4c0,2.3-1.3,3.8-4.4,5.9c-1.4,0.9-2.4,1.8-2.5,3
	c-0.1,0.6-0.3,0.8-0.7,0.8c-0.3,0-0.5-0.2-0.6-0.4c-0.1-0.4-0.1-0.9-0.1-1.3c0-2,0.5-2.8,2.4-4.7c1.2-1.2,2-2.2,2-3.6
	c0-1.5-1.2-2.8-2.7-2.8c-0.1,0-0.3,0-0.4,0c-1.3,0-2.5,0.5-3.3,1.5c-0.8,0.9-1.2,1.2-1.7,1.2c-0.5,0-0.9-0.3-0.9-0.8c0,0,0,0,0-0.1
	c0-0.4,0.1-0.7,0.4-1c1.4-1.5,3.5-2.4,5.6-2.2C112,20.9,115.2,22.4,115.2,25.4z M105.7,39c0-0.9,0.8-1.6,2-1.6s2,0.6,2,1.6
	s-0.8,1.6-2,1.6S105.7,39.9,105.7,39z"/>
</svg>
