<svg xmlns="http://www.w3.org/2000/svg" viewBox="0 0 41.15 40.34"><title>p11_s5</title><path fill="#f18024" d="M0 0h41.15v40.34H0z"/><path d="M9.86 18.41a.68.68 0 0 0-.19.48v14.49a.68.68 0 0 0 .68.68h7a.68.68 0 0 0 .68-.68V25.9h5.07v7.48a.68.68 0 0 0 .68.68h7a.68.68 0 0 0 .68-.68V18.89a.68.68 0 0 0-.19-.48L21 7.95a.69.69 0 0 0-.49-.2.68.68 0 0 0-.49.21zm1.17.75l9.48-9.76 9.53 9.76v13.53h-5.6v-7.47a.68.68 0 0 0-.68-.68h-6.44a.68.68 0 0 0-.68.68v7.47h-5.6z" fill="#fff"/><path d="M6.73 18.11L20.07 4.49a.69.69 0 0 1 .49-.21.68.68 0 0 1 .49.21l6.86 7.11V7.01a.685.685 0 1 1 1.37 0v6l5.14 5.33a.69.69 0 1 1-1 .95L20.58 5.94 7.71 19.06a.707.707 0 1 1-1-1z" fill="#fff"/></svg>