<svg xmlns="http://www.w3.org/2000/svg" viewBox="0 0 41.15 40.34"><title>p11_s7</title><path fill="#755847" d="M0 0h41.15v40.34H0z"/><path d="M14.23 32.54a1 1 0 0 1-.39-.08l-1.37-.57a1 1 0 0 1-.61-1.21c.07-.29.15-.59.23-.89a6.93 6.93 0 0 1-1.14-1.14l-.89.23a1 1 0 0 1-1.21-.61l-.57-1.37a1 1 0 0 1 .42-1.29l.79-.47a6.92 6.92 0 0 1 0-1.61l-.79-.47a1 1 0 0 1-.42-1.28l.57-1.37a1 1 0 0 1 1.21-.61l.89.23a6.91 6.91 0 0 1 1.14-1.14c-.08-.3-.16-.6-.23-.89a1 1 0 0 1 .61-1.21l1.37-.57a1 1 0 0 1 1.29.42l.47.79a6.89 6.89 0 0 1 1.61 0l.47-.79a1 1 0 0 1 1.29-.42l1.37.57a1 1 0 0 1 .61 1.21c-.07.29-.15.59-.23.89a6.93 6.93 0 0 1 1.14 1.14l.89-.23a1 1 0 0 1 1.21.61l.57 1.37a1 1 0 0 1-.42 1.29l-.79.47a6.92 6.92 0 0 1 0 1.61l.79.47a1 1 0 0 1 .42 1.29l-.59 1.35a1 1 0 0 1-1.21.61l-.89-.23a6.93 6.93 0 0 1-1.14 1.14c.08.3.16.6.23.89a1 1 0 0 1-.61 1.21l-1.37.57a1 1 0 0 1-1.29-.42l-.47-.79a6.92 6.92 0 0 1-1.61 0l-.47.79a1 1 0 0 1-.89.5m-1.29-1.65l1.26.52.45-.76a1 1 0 0 1 1-.51 5.82 5.82 0 0 0 1.43 0 1 1 0 0 1 1 .51l.45.76 1.26-.52c-.07-.28-.14-.57-.22-.86a1 1 0 0 1 .36-1.09 5.8 5.8 0 0 0 1-1 1 1 0 0 1 1.09-.36l.86.22.52-1.26-.76-.45a1 1 0 0 1-.51-1 5.79 5.79 0 0 0 0-1.43 1 1 0 0 1 .51-1l.76-.45-.52-1.26-.86.22a1 1 0 0 1-1.09-.36 5.8 5.8 0 0 0-1-1 1 1 0 0 1-.36-1.09l.22-.86-1.19-.59-.45.76a1 1 0 0 1-1 .51 5.8 5.8 0 0 0-1.43 0 1 1 0 0 1-1-.51l-.45-.76-1.26.52c.07.28.15.57.22.86a1 1 0 0 1-.36 1.09 5.82 5.82 0 0 0-1 1 1 1 0 0 1-1.09.36l-.86-.22-.52 1.26.76.45a1 1 0 0 1 .51 1 5.79 5.79 0 0 0 0 1.43 1 1 0 0 1-.51 1l-.76.45.52 1.26.85-.22a1 1 0 0 1 1.09.36 5.78 5.78 0 0 0 1 1 1 1 0 0 1 .36 1.09c-.08.29-.15.57-.22.86" fill="#fff"/><path d="M16.4 28.12a3.77 3.77 0 1 1 3.49-5.22 3.78 3.78 0 0 1-3.49 5.22m0-6.44a2.67 2.67 0 1 0 2.47 1.65 2.67 2.67 0 0 0-2.47-1.65M27.2 20.37h-1.08a.88.88 0 0 1-.87-.75c0-.19-.06-.39-.08-.58a5.2 5.2 0 0 1-1-.4l-.47.36a.88.88 0 0 1-1.14-.09l-.76-.76a.88.88 0 0 1-.09-1.14l.36-.47a5.2 5.2 0 0 1-.4-1l-.58-.08a.88.88 0 0 1-.75-.87v-1.04a.88.88 0 0 1 .75-.87l.59-.08a5.11 5.11 0 0 1 .4-1l-.36-.47a.88.88 0 0 1 .09-1.14l.76-.76a.88.88 0 0 1 1.14-.09l.47.36a5.2 5.2 0 0 1 1-.4c0-.2.05-.39.08-.58a.88.88 0 0 1 .87-.75h1.08a.88.88 0 0 1 .87.75c0 .19.06.39.08.58a5.2 5.2 0 0 1 1 .4l.47-.36a.88.88 0 0 1 1.14.09l.76.76a.88.88 0 0 1 .09 1.14l-.36.47a5.18 5.18 0 0 1 .4 1l.58.08a.88.88 0 0 1 .75.87v1.08a.88.88 0 0 1-.75.87l-.58.08a5.2 5.2 0 0 1-.4 1l.36.47a.88.88 0 0 1-.09 1.14l-.76.76a.88.88 0 0 1-1.14.09l-.47-.36a5.12 5.12 0 0 1-1 .4c0 .2-.05.39-.08.59a.88.88 0 0 1-.87.75m-.93-1.05h.74l.07-.53a.88.88 0 0 1 .64-.73 4.08 4.08 0 0 0 .93-.39.88.88 0 0 1 1 .07l.43.32.55-.55-.32-.43a.87.87 0 0 1-.07-1 4.1 4.1 0 0 0 .39-.93.88.88 0 0 1 .73-.64l.53-.07v-.78l-.53-.07a.88.88 0 0 1-.73-.64 4.08 4.08 0 0 0-.39-.93.88.88 0 0 1 .07-1l.32-.43-.55-.55-.43.32a.88.88 0 0 1-1 .07 4.09 4.09 0 0 0-.93-.39.88.88 0 0 1-.64-.73l-.07-.53h-.78l-.07.53a.88.88 0 0 1-.64.73 4.09 4.09 0 0 0-.93.39.87.87 0 0 1-1-.07l-.43-.32-.55.55.32.43a.87.87 0 0 1 .07 1 4.1 4.1 0 0 0-.39.93.88.88 0 0 1-.73.64l-.53.07v.78l.53.07a.88.88 0 0 1 .73.64 4.08 4.08 0 0 0 .39.93.88.88 0 0 1-.07 1l-.32.43.55.55.43-.32a.87.87 0 0 1 1-.07 4.11 4.11 0 0 0 .93.39.88.88 0 0 1 .64.73l.07.53" fill="#fff"/><path d="M26.66 16.33a2.24 2.24 0 1 1 2.24-2.24 2.24 2.24 0 0 1-2.24 2.24m0-3.49a1.25 1.25 0 1 0 1.25 1.25 1.25 1.25 0 0 0-1.25-1.25" fill="#fff"/></svg>