<?xml version="1.0" encoding="utf-8"?>
<!-- Generator: Adobe Illustrator 21.0.0, SVG Export Plug-In . SVG Version: 6.00 Build 0)  -->
<svg version="1.1" id="Layer_1" xmlns="http://www.w3.org/2000/svg" xmlns:xlink="http://www.w3.org/1999/xlink" x="0px" y="0px"
	 viewBox="0 0 305 63" style="enable-background:new 0 0 305 63;" xml:space="preserve">
<style type="text/css">
	.st0{fill:#FFFFFF;}
	.st1{fill:#755847;}
</style>
<title>p11_s8</title>
<path class="st0" d="M0,0h305v63H0V0z"/>
<path class="st1" d="M36,37.5c0.4-0.5,0.8-0.8,1.3-0.8c0.4,0,0.8,0.3,0.9,0.7c0,0.4-0.2,0.7-0.4,1c-1.6,2-4.4,2.4-6.7,2.4
	c-5.4,0-9-3.5-9-10c0-6,4.1-9.8,9.2-9.8c3.4,0,5.5,1.2,6.4,2.4c0.2,0.3,0.3,0.6,0.3,0.9c0,0.5-0.5,1-1,0.9c-0.6-0.1-1.2-0.4-1.5-1
	c-0.9-1.3-2.4-2.1-4-2C28,22.3,26,25.7,26,30.8c0,5.3,2,8.7,5.5,8.7C33.2,39.5,34.9,38.8,36,37.5z M49.3,21c5.4,0,9.3,3.5,9.3,9.9
	c0,6.1-4,9.9-9.3,9.9S40,37.3,40,30.9C40,24.8,43.9,21,49.3,21z M49.3,39.5c3.4,0,5.4-3,5.4-8.6c0-5.8-2.1-8.6-5.4-8.6
	s-5.4,3-5.4,8.6C43.9,36.8,46,39.5,49.3,39.5z M62.2,23.1c0-1.1,0.9-1.8,2.5-1.8c1-0.1,2,0.4,2.4,1.4c1.2,2.6,3.3,8.3,4.4,11.1h0.1
	c1.1-2.4,1.8-4.2,2.7-6.3c0.7-1.6,1.3-3.2,2.1-4.7c0.4-0.9,1.4-1.5,2.4-1.4c1.1,0,2.1,0.5,2.1,1.5v16.4c0,0.9-0.8,1.3-1.8,1.3
	s-1.8-0.4-1.8-1.3v-8.3c0-1.5,0-5.4,0.2-6.8h-0.1c-0.3,0.9-0.9,2.6-1.3,3.5c-1.2,2.8-2.5,6-3.5,7.8c-0.3,0.8-1.1,1.3-1.9,1.3
	c-0.9,0.1-1.7-0.4-2-1.2c-0.9-1.9-2.1-5.1-3.3-8.1c-0.3-0.8-0.9-2.4-1.1-3.2H64C64,26,64,28.8,64,30.8v8.9c0,0.5-0.3,0.9-0.8,0.9
	c-0.1,0-0.1,0-0.2,0c-0.5,0.1-0.9-0.3-0.9-0.8c0,0,0-0.1,0-0.1L62.2,23.1z M93.8,21c5.4,0,9.3,3.5,9.3,9.9c0,6.1-4,9.9-9.3,9.9
	s-9.3-3.5-9.3-9.9C84.4,24.8,88.4,21,93.8,21z M93.8,39.5c3.4,0,5.4-3,5.4-8.6c0-5.8-2.1-8.6-5.4-8.6s-5.4,3-5.4,8.6
	C88.3,36.8,90.4,39.5,93.8,39.5z M117.8,25.5c0,2.3-1.3,3.8-4.4,5.9c-1.4,0.9-2.4,1.8-2.5,3c-0.1,0.6-0.3,0.8-0.7,0.8
	c-0.3,0-0.5-0.2-0.6-0.4c-0.1-0.4-0.1-0.9-0.1-1.3c0-2,0.5-2.8,2.4-4.7c1.2-1.2,2-2.2,2-3.6c0-1.5-1.2-2.8-2.7-2.8
	c-0.1,0-0.3,0-0.4,0c-1.3,0-2.5,0.5-3.3,1.5c-0.8,0.9-1.2,1.2-1.7,1.2c-0.5,0-0.9-0.3-0.9-0.8c0,0,0,0,0-0.1c0-0.4,0.1-0.7,0.4-1
	c1.4-1.5,3.5-2.4,5.6-2.2C114.7,21,117.8,22.6,117.8,25.5z M108.3,39.1c0-0.9,0.8-1.6,2-1.6s2,0.6,2,1.6s-0.8,1.6-2,1.6
	S108.3,40.1,108.3,39.1z"/>
</svg>
