<svg xmlns="http://www.w3.org/2000/svg" viewBox="0 0 41.15 40.34"><title>p11_s1</title><path fill="#a3775b" d="M0 0h41.15v40.34H0z"/><path d="M26.95 24.84a3.62 3.62 0 0 1-3.64-3.27 7.21 7.21 0 0 0 2.59-3.71v.47a.65.65 0 0 0 1.16.36 8.35 8.35 0 0 0-.26-10.22 5.8 5.8 0 0 0-4.35-2.14h-.37a5.91 5.91 0 0 0-2.64-.56 6.43 6.43 0 0 0-4.91 2.66 9.28 9.28 0 0 0-1.82 5.95 9.92 9.92 0 0 0 .86 3.74.65.65 0 0 0 1.15.07c.08-.13.19-.3.3-.46l.13-.17a8 8 0 0 0 1.67 3.09 6 6 0 0 0 1 .9 3.62 3.62 0 0 1-3.64 3.26 4.29 4.29 0 0 0-4.14 4.31v4.78a.65.65 0 0 0 .65.65h19.72a.65.65 0 0 0 .65-.65v-4.78a4.29 4.29 0 0 0-4.14-4.28m-12.59-8.31a8.52 8.52 0 0 1-.27-1.25 8.39 8.39 0 0 1 1.47-6 5.15 5.15 0 0 1 3.92-2.16 4.78 4.78 0 0 1 2.23.49.66.66 0 0 0 .31.07h.45a4.53 4.53 0 0 1 3.39 1.68 6.78 6.78 0 0 1 1.56 4.21 7.1 7.1 0 0 1-.51 2.92 7.48 7.48 0 0 0-.39-1 7 7 0 0 0-3.62-3.54.65.65 0 0 0-.86.37 6.14 6.14 0 0 1-.4.86 2.57 2.57 0 0 1-2.37 1.25h-.42a6.22 6.22 0 0 0-2 .39 6.31 6.31 0 0 0-1.73 1s-.59.52-.79.75m1.89.05a4.81 4.81 0 0 1 2.66-.89h.48a3.85 3.85 0 0 0 3.4-1.92l.2-.39a5.76 5.76 0 0 1 2.11 2.04.68.68 0 0 0 0 .11 7.36 7.36 0 0 1-1.52 4 3.85 3.85 0 0 1-2.94 1.56c-2 0-3.78-1.91-4.32-4.59m2.78 5.67a4.51 4.51 0 0 0 3 0 4.89 4.89 0 0 0 2.48 3.35 4.11 4.11 0 0 1-8 0 4.89 4.89 0 0 0 2.52-3.35m10.73 11H11.36v-4.09a3 3 0 0 1 3-3 4.94 4.94 0 0 0 1-.12 5.41 5.41 0 0 0 10.44 0 5.58 5.58 0 0 0 1 .12 3 3 0 0 1 3 3z" fill="#fff"/></svg>