<svg xmlns="http://www.w3.org/2000/svg" viewBox="0 0 283.31 187.22"><defs><style>.a{fill:#dd6428}</style></defs><title>p12_s5</title><path class="a" d="M20.82 26.12c0 1.3-1.22 1.92-2.67 1.92s-2.59-.63-2.59-1.92v-4.65H3.42c-1.33 0-2.08-.59-2.08-2a4 4 0 0 1 .79-2.16c1.41-2 2.87-4 4.32-6 2.47-3.34 4.83-6.44 7.15-9.47a4.11 4.11 0 0 1 3.77-1.89c2.36 0 3.46 1.1 3.46 2.55v15.37h2c1.57 0 2.08.63 2.08 1.81s-.63 1.81-2.08 1.81h-2zm-5.26-13.9c0-3.26.08-7.38.24-9.54h-.16c-.82 1.22-2.24 3.14-3.53 4.95l-3.65 5c-1.37 1.89-2.87 3.85-3.77 5.11v.16h10.88zm11.58 13.47c0-1.49 1.33-2.47 3.22-2.47s3.18 1 3.18 2.47-1.3 2.51-3.18 2.51-3.22-.98-3.22-2.51zm25.93 1.02c-1.06-.51-3-1.57-3-2.4 0-.2.2-.35.55-.35.67 0 1.45.67 1.88.9a14.69 14.69 0 0 0 7.78 2.36c3 0 6.13-1.41 6.13-4.08s-2.87-3.38-6.17-4c-5-.86-7.27-1.57-7.27-4.16 0-4.16 6.52-7.31 11-7.31a7.78 7.78 0 0 1 2.36.35s1.14.35 1.14.94c0 .24-.12.35-.31.35a9.92 9.92 0 0 1-1.3-.31 12.1 12.1 0 0 0-2-.16 11.73 11.73 0 0 0-4.59 1c-1.92.82-4.87 2.47-4.87 4.91 0 1.57 1.33 2.2 3.65 2.67 3.57.71 9.78 1.73 9.78 5.66 0 2.71-2.75 5.34-7.78 5.34a17 17 0 0 1-2-.12 19.49 19.49 0 0 1-4.98-1.59zm29.48 1.14c-3.5 0-4-3.46-4.91-3.46s-2.12 4.24-5.5 4.24a2 2 0 0 1-2.2-2.16c0-2.36 3.22-5.54 5.62-5.54a2.59 2.59 0 0 1 2.4 1.26c1.14-.12 1.22 1.06 1.45 1.85a6.48 6.48 0 0 0 .47 1.22 3.08 3.08 0 0 0 2.67 1.77.43.43 0 0 1 .43.39.44.44 0 0 1-.43.43zm-10.13-.35c1.1 0 2.32-1.53 2.91-2.36.43-.63.79-1.37 1.26-2-.31-.51-.63-1-1.3-1-1.61 0-4 2.63-4 4.2a1 1 0 0 0 1.13 1.13z"/><path class="a" d="M103.56 20.27a6.17 6.17 0 0 0 1.14 2.12 4.58 4.58 0 0 0 2.91 1.73c.35 0 1.06-.08 1.06.47a.4.4 0 0 1-.39.43c-2.44 0-4.95-2-6-4-1.14 2.79-3.34 7.62-6.91 7.62-1.92 0-2.87-1.45-2.87-3.22a10.21 10.21 0 0 1 .28-2.2c-2.59 2.59-6.09 4.67-9.82 4.67-.31 0-.86.08-.86-.43a.4.4 0 0 1 .43-.39 15.23 15.23 0 0 0 1.88-.16 12.44 12.44 0 0 0 3.34-1.14 20.63 20.63 0 0 0 5.5-4.24c0-.16 1-3.1 1.18-3.5 1-2.79 4-10.84 7.42-10.84a1.88 1.88 0 0 1 1.81 2c0 2.12-1.85 4.4-3.18 6-.75.86-1.57 1.69-2.36 2.51l-3.85 4a14.17 14.17 0 0 0-.59 3.61c0 1 .43 2.08 1.57 2.08 1.57 0 2.79-1.3 3.65-2.47 1.26-1.73 1.65-3.42 2.4-5.34.16-.39.39-.79.86-.79.85-.02 1.17.77 1.4 1.48zM99.75 9.9a54.17 54.17 0 0 0-4.71 9.43l-.08.27c1.57-1.69 5.73-6.13 6.6-7.93a4.89 4.89 0 0 0 .55-1.92c0-.47-.16-1-.71-1s-1.33.72-1.65 1.15z"/><path class="a" d="M120.07 25.61c0 .86-1.37 1.53-2.08 1.81a11.31 11.31 0 0 1-1.1.27 7.47 7.47 0 0 1-1.61.16c-1.77 0-3.77-1.26-3.77-3.18a19.34 19.34 0 0 1-3.38.35.44.44 0 0 1-.43-.43.44.44 0 0 1 .43-.43 14.58 14.58 0 0 0 3.46-.39c.39-2.12 2.16-4.71 4.56-4.71a2 2 0 0 1 2.16 1.73c0 1.81-4.08 3.22-5.46 3.61h-.12a2.5 2.5 0 0 0 2.59 2.59 6.15 6.15 0 0 0 3.69-1.06 9.34 9.34 0 0 1 .83-.63c.23.03.23.11.23.31zm-7.19-2.12c.94-.24 3.85-1.61 3.85-2.75 0-.39-.47-.47-.79-.47-1.58 0-2.72 1.84-3.03 3.2zm34.35 6.32a.36.36 0 0 1-.16.31c-2.59 2.12-6.6 5.69-8.44 8.44a43.3 43.3 0 0 1-1.3 6.28 2.08 2.08 0 0 1-1.49 1.14c-.83 0-1.22-.83-1.22-1.53 0-1.89 1.88-4.52 2.95-6a108.86 108.86 0 0 1 3.69-12.18 10.32 10.32 0 0 1-5 1.65 2.42 2.42 0 0 1-2.51-2.36 2.35 2.35 0 0 1 .24-1.06c1-2.36 4-5 6.68-5a2.79 2.79 0 0 1 2.55 1.85c.2-.55.67-1.45 1.33-1.45s1 .9 1 1.53a4.09 4.09 0 0 1-1.61 2.71c0 .24.08.51.08.75s0 .67-.39.67-.51-.35-.63-.59l-.08.08a77.88 77.88 0 0 0-3.77 11.43 34.31 34.31 0 0 1 7.38-6.91.45.45 0 0 1 .31-.12.38.38 0 0 1 .39.36zm-5.42-5.11l.71-1.81c-.24-1.1-.67-2.32-2-2.32-1.85 0-5.34 2.91-5.34 4.83a1.35 1.35 0 0 0 1.33 1.45 12.26 12.26 0 0 0 5.3-2.15zm-4.91 16.85c-.31.67-1.22 1.89-1.22 2.51 0 .2.08.31.27.31.64.01.87-2.31.95-2.82zm6.79-18.89a1.4 1.4 0 0 0 .08.39c.27-.27.75-.67.75-1.1 0-.16-.08-.39-.27-.39s-.55.91-.55 1.1z"/><path class="a" d="M169.15 23.8a3.84 3.84 0 0 0 3.14 3.14c.31.08 1.1 0 1.1.47a.44.44 0 0 1-.43.43 5.34 5.34 0 0 1-5.38-4.56c-1 2.32-3.1 5.54-6 5.54a3.08 3.08 0 0 1-3.06-3.38 8.19 8.19 0 0 1 .67-2.95 37.66 37.66 0 0 0-6.21 3.42c-3.42 2.2-5.85 4.28-6.21 4.28a.39.39 0 0 1-.39-.39.58.58 0 0 1 .16-.35 76.88 76.88 0 0 1 11.23-7.58 7.83 7.83 0 0 1 2.47-1.14c.47 0 .79.16.79.59 0 1-1.33 2.4-1.33 4.28a1.91 1.91 0 0 0 2 2.08 2.32 2.32 0 0 0 1.34-.39c1.92-1.26 2.71-3.22 3.65-5.22.27-.55.75-1.3 1.45-1.3 1.24.01.93 2.25 1.01 3.03z"/><path class="a" d="M186.31 24.04a4.71 4.71 0 0 0 .51 1.22 3 3 0 0 0 2.63 1.77.43.43 0 0 1 .43.39.44.44 0 0 1-.43.43c-3.5 0-4-3.46-4.91-3.46s-2.08 4.24-5.54 4.24a2 2 0 0 1-2.12-2.08v-.24a5.81 5.81 0 0 1-4 1.53.39.39 0 0 1-.43-.43.42.42 0 0 1 .39-.39c1.77 0 3.26-1.26 4.56-2.36.94-1.69 3-3.73 5.07-3.73a2.82 2.82 0 0 1 2.44 1.26c1.16-.12 1.16 1.06 1.4 1.85zm-2.79-.9c-.31-.51-.67-1-1.3-1-1.65 0-4 2.63-4 4.2a1.07 1.07 0 0 0 1.14 1.14c1.76-.01 3.22-3.13 4.16-4.35z"/><path class="a" d="M210.26 23.37c.47 1.65.83 3.65 2.95 3.65a.43.43 0 0 1 .43.39.44.44 0 0 1-.43.43c-4.28 0-3.69-5.18-4.95-5.18-1.1 0-3.38 5.3-5.18 5.3-.82 0-1.14-.75-1.14-1.45 0-1.3.67-2.71.67-3.89 0-.51-.08-1.1-.71-1.1-2.4 0-7.07 6.32-11.47 6.32-.39 0-1.49.2-1.49-.43a.43.43 0 0 1 .43-.39 10.07 10.07 0 0 0 6.13-2.36c1.38-1 3.85-3.42 5.26-4a3.22 3.22 0 0 1 1.18-.28 1.85 1.85 0 0 1 1.85 2c0 1.26-.79 2.67-.79 3.85 0 .2 0 .47.27.47.86 0 3.46-5.54 5.34-5.54.99.05 1.46 1.42 1.65 2.21z"/><path class="a" d="M227.23 17.2c0 1-2.75 1-3.42 1.06a1.61 1.61 0 0 1-.16.39 14.42 14.42 0 0 0-1.3 5.07 3 3 0 0 0 .94 2.44 3.85 3.85 0 0 0 2.16.82c.2 0 .43.16.43.39a.44.44 0 0 1-.43.43 3.83 3.83 0 0 1-4-4 12.92 12.92 0 0 1 .31-2.47c-1.41 2.47-5.62 6.44-8.64 6.44a.44.44 0 0 1-.43-.43c0-.24.24-.35.43-.39a8.59 8.59 0 0 0 4-2 17.42 17.42 0 0 0 5.07-6.72c-.63 0-1.22.08-1.85.08-.35 0-1.22-.12-1.22-.63 0-.79 2.91-.71 3.57-.71.2-.51.86-2.55 1.53-2.55.51 0 .59.86.59 1.22a5.57 5.57 0 0 1-.43 1.3 14.22 14.22 0 0 1 2.24 0c.14.11.61-.01.61.26z"/><path class="a" d="M241.72 24.04a15.3 15.3 0 0 0 2.32.12.44.44 0 0 1 .43.43.44.44 0 0 1-.43.43 15.22 15.22 0 0 1-2.55-.16c-.79 2.08-3.1 4-5.22 4a2.63 2.63 0 0 1-2.51-2.91 5.2 5.2 0 0 1 .12-1.1c-2.47 1.69-4.83 3-7.89 3-.35 0-.94.08-.94-.43a.43.43 0 0 1 .43-.39 15.23 15.23 0 0 0 1.88-.16 12.44 12.44 0 0 0 3.34-1.14 12.22 12.22 0 0 0 3-1.85 7 7 0 0 0 .79-.75l.35-.55a9.88 9.88 0 0 1 1.06-1.45c.71-.86 2-2.12 3.18-2.12s1.57 1 1.57 2a2.91 2.91 0 0 1 1.14 2.44 3.32 3.32 0 0 1-.07.59zm-1.41.51a2.72 2.72 0 0 1-2.2-2.55c0-.82.63-1.26 1.53-1.33a.8.8 0 0 0-.67-.43 1.56 1.56 0 0 0-1 .35 8 8 0 0 0-3 5.46 1.61 1.61 0 0 0 1.65 1.73c1.13-.01 3.02-1.31 3.69-3.23zm.24-.82a2.61 2.61 0 0 0 0-.55c0-.83-.43-1.49-1.1-1.49-.16 0-.24.16-.24.31a1.77 1.77 0 0 0 1.33 1.72z"/><path class="a" d="M258.61 22.47a3.5 3.5 0 0 1 1.41 2.67c0 4.08-5.34 5.22-8.52 5.22-.31 0-1.1-.16-1.1-.59s.63-.51.94-.51a13.56 13.56 0 0 0 3.34-.31 5.23 5.23 0 0 0 3.5-2.08 2.86 2.86 0 0 0 .51-1.69c0-2.08-3.85-4.28-5.22-5.73-2.67 2.47-5.54 5.58-9.46 5.58a.44.44 0 0 1-.43-.43.44.44 0 0 1 .43-.43 5.59 5.59 0 0 0 1.81-.27c2.59-.9 5.11-3.34 7.07-5.22a2.83 2.83 0 0 1-.31-1.26c0-1.45 1.45-3.53 3-3.53a1.19 1.19 0 0 1 1.22 1.26c0 1.3-1.53 2.79-2.51 3.53h-.08c1.37 1.35 2.94 2.53 4.4 3.79zm-4.87-5v.39c.47-.43 1.89-1.77 1.89-2.44a.31.31 0 0 0-.35-.35c-.76-.03-1.54 1.7-1.54 2.4zM7.07 59.73c0 .16-.12.2-.24.2-.43 0-.63-.59-1.49-.59-1.73 0-3.18 3-3.18 4.48a2.46 2.46 0 0 0 2.47 2.47c.24 0 .39.12.39.39a.4.4 0 0 1-.39.43c-1.85 0-3.77-1.3-3.77-3.3s1.85-5.38 4.08-5.38c.68.04 2.13.52 2.13 1.3z"/><path class="a" d="M22.94 48.78c.67-.82 1.92-2 3.06-2s1.73 1.41 1.73 2.4c0 1.89-1.37 4.67-2.44 6.21a23.34 23.34 0 0 1-3.69 4.16 6 6 0 0 1-.75.67c.55 2.67 2.51 6.13 5.62 6.13a.42.42 0 0 1 .39.39.4.4 0 0 1-.39.43c-3.57 0-5.85-2.87-6.6-6.09-3.85 2.91-10.49 6.09-15.28 6.09a.44.44 0 0 1-.43-.43.43.43 0 0 1 .43-.39 12.4 12.4 0 0 0 3.38-.55 34 34 0 0 0 11.67-5.69c0-.59-.16-1.18-.16-1.81a16.61 16.61 0 0 1 3.46-9.52zm1.61 6c.83-1.3 2.12-3.69 2.12-5.22 0-.71-.31-1.26-1.06-1.26-1.06 0-2.28 1.77-2.75 2.59a15.39 15.39 0 0 0-2.2 7.38 7 7 0 0 0 0 .9 19.61 19.61 0 0 0 3.89-4.42z"/><path class="a" d="M36.8 59.85a1.36 1.36 0 0 1 .27 1 7.19 7.19 0 0 0 1.38 4.56 2.36 2.36 0 0 0 2 .86c.2 0 .43.16.43.39a.44.44 0 0 1-.43.43c-2.83 0-4.24-2.91-4.4-5.38a14 14 0 0 1-5.18 4.4 9.49 9.49 0 0 1-4.4 1 .44.44 0 0 1-.43-.43.43.43 0 0 1 .43-.39 7.91 7.91 0 0 0 3.89-.94 12.1 12.1 0 0 0 4.16-3.81c.35-.51 1.06-1.92 1.77-1.92a.71.71 0 0 1 .51.23zm-.75-6.13c0-.39.35-.55.71-.55.63 0 .94.82.94 1.38 0 .31-.16.59-.47.59-.55 0-1.16-.9-1.16-1.41z"/><path class="a" d="M54.83 60.05a2 2 0 0 1-.24.82 3 3 0 0 1-1 .86c-.51.31-1.06.55-1.57.82-.94.51-1.81 1.06-2.75 1.53.16 1.49 1.14 2 2.51 2.2.2 0 .43.16.43.39a.44.44 0 0 1-.43.43 3.8 3.8 0 0 1-3.65-2.44c-2.47 1.22-4.95 2.44-7.78 2.44a.44.44 0 0 1-.47-.43.43.43 0 0 1 .43-.39 11.39 11.39 0 0 0 3.46-.59 35.35 35.35 0 0 0 4.28-2c0-2.32 2.12-5.38 4.63-5.38a1.94 1.94 0 0 1 2.15 1.74zm-1.69.59a.65.65 0 0 0 .2-.47c0-.47-.47-.63-.86-.63-1.69 0-2.79 2-3.1 3.46a25.58 25.58 0 0 0 3.76-2.36z"/><path class="a" d="M76.39 62.64c.47 1.65.79 3.65 2.95 3.65a.42.42 0 0 1 .39.39.4.4 0 0 1-.39.43c-4.32 0-3.65-5.18-4.95-5.18-1.06 0-3.34 5.3-5.18 5.3-.83 0-1.14-.75-1.14-1.45 0-1.3.67-2.71.67-3.89 0-.59-.16-.86-.79-.86-.83 0-2.63 1.34-3.42 1.77-3.57 2-8.68 4.32-12.8 4.32a.4.4 0 0 1-.39-.43c0-.35.28-.39.55-.39 2.51 0 5.66-1.26 8-2.24a47.5 47.5 0 0 0 6.72-3.81 2.76 2.76 0 0 1 1.53-.51 1.8 1.8 0 0 1 1.81 2c0 1.22-.79 2.71-.79 3.85 0 .2 0 .47.24.47.86 0 3.53-5.54 5.34-5.54.98-.05 1.41 1.34 1.65 2.12z"/><path class="a" d="M93.31 56.47c0 1-2.75 1-3.42 1.06a1.61 1.61 0 0 1-.16.39 14.42 14.42 0 0 0-1.3 5.07 3 3 0 0 0 .94 2.44 3.85 3.85 0 0 0 2.16.82c.2 0 .43.16.43.39a.44.44 0 0 1-.43.43 3.83 3.83 0 0 1-4-4 12.92 12.92 0 0 1 .31-2.47c-1.41 2.47-5.62 6.44-8.64 6.44a.44.44 0 0 1-.43-.43c0-.24.24-.35.43-.39a8.59 8.59 0 0 0 4-2 17.42 17.42 0 0 0 5.07-6.72c-.63 0-1.22.08-1.85.08-.35 0-1.22-.12-1.22-.63 0-.79 2.91-.71 3.57-.71.2-.51.86-2.55 1.53-2.55.51 0 .59.86.59 1.22a5.57 5.57 0 0 1-.43 1.3 14.22 14.22 0 0 1 2.24 0c.14.11.61-.01.61.26z"/><path class="a" d="M106.07 60.05a2 2 0 0 1-.24.82 3 3 0 0 1-1 .86c-.51.31-1.06.55-1.57.82-.94.51-1.81 1.06-2.75 1.53.16 1.49 1.14 2 2.51 2.2.2 0 .43.16.43.39a.44.44 0 0 1-.43.43 3.8 3.8 0 0 1-3.65-2.44c-2.47 1.22-4.95 2.44-7.78 2.44a.44.44 0 0 1-.47-.43.43.43 0 0 1 .43-.39 11.39 11.39 0 0 0 3.46-.59 35.35 35.35 0 0 0 4.28-2c0-2.32 2.12-5.38 4.63-5.38a1.94 1.94 0 0 1 2.15 1.74zm-1.69.59a.65.65 0 0 0 .2-.47c0-.47-.47-.63-.86-.63-1.69 0-2.79 2-3.1 3.46a25.58 25.58 0 0 0 3.73-2.36z"/><path class="a" d="M125.56 61.74a3.35 3.35 0 0 1 1.45 2.75c0 2.63-2.67 4.2-5 4.75a15.24 15.24 0 0 1-3.54.39c-.31 0-1.1-.16-1.1-.59s.63-.51.94-.51a13.75 13.75 0 0 0 3.34-.31 5.23 5.23 0 0 0 3.5-2.08 2.86 2.86 0 0 0 .51-1.69c0-2.12-3.93-4.24-5.26-5.77a38.37 38.37 0 0 1-6.79 5.26 22.07 22.07 0 0 1-10.6 3.14.43.43 0 0 1-.43-.39.44.44 0 0 1 .43-.43 13.13 13.13 0 0 0 3.5-.43 40 40 0 0 0 4.71-1.77 32.05 32.05 0 0 0 7-4.63l1.65-1.57a2.68 2.68 0 0 1-.31-1.22c0-1.45 1.45-3.53 3-3.53a1.19 1.19 0 0 1 1.22 1.26c0 1.34-1.53 2.79-2.51 3.53h-.08c1.38 1.4 2.88 2.57 4.37 3.84zm-4.83-5.07v.43c.47-.43 1.88-1.77 1.88-2.47a.32.32 0 0 0-.35-.31c-.79-.01-1.53 1.68-1.53 2.35zm32.71-.2c0 1-2.75 1-3.42 1.06a1.61 1.61 0 0 1-.16.39 15.09 15.09 0 0 0-1.3 5 3.2 3.2 0 0 0 .94 2.55 3.51 3.51 0 0 0 2 .75c.2 0 .43.16.43.39a.44.44 0 0 1-.43.43 3.59 3.59 0 0 1-3.89-3.89 14.24 14.24 0 0 1 .35-2.55 13.71 13.71 0 0 1-1.45 1.92c-1.3 1.38-4.48 4.44-6.44 4.44-.31 0-1-.12-1-.51s1-.39 1.22-.47a8.74 8.74 0 0 0 3-1.73 17.42 17.42 0 0 0 5.07-6.72c-.59 0-1.22.08-1.81.08-.39 0-1.26-.12-1.26-.63 0-.79 2.95-.71 3.57-.71.24-.51.86-2.55 1.53-2.55.47 0 .59.79.59 1.1a4.53 4.53 0 0 1-.43 1.41 14.23 14.23 0 0 1 2.24 0c.18.09.65-.03.65.24z"/><path class="a" d="M166.07 60.05a2 2 0 0 1-.24.82 3 3 0 0 1-1 .86c-.51.31-1.06.55-1.57.82-.94.51-1.81 1.06-2.75 1.53.16 1.49 1.14 2 2.51 2.2.2 0 .43.16.43.39a.44.44 0 0 1-.43.43 3.8 3.8 0 0 1-3.65-2.44c-2.47 1.22-4.95 2.44-7.78 2.44a.44.44 0 0 1-.47-.43.43.43 0 0 1 .43-.39 11.39 11.39 0 0 0 3.46-.59 35.35 35.35 0 0 0 4.28-2c0-2.32 2.12-5.38 4.63-5.38a1.94 1.94 0 0 1 2.15 1.74zm-1.69.59a.65.65 0 0 0 .2-.47c0-.47-.47-.63-.86-.63-1.69 0-2.79 2-3.1 3.46a25.58 25.58 0 0 0 3.74-2.36z"/><path class="a" d="M199.7 66.1c0 .71-1.49 1-2 1-3.61 0-2.79-4.67-4.12-4.67-.35 0-.63.35-.83.63a27 27 0 0 1-2.91 3.65 1.57 1.57 0 0 1-1 .39 1.39 1.39 0 0 1-1.3-.94c-.47-1.14-.67-2.4-1.18-3.53-.12-.27-.31-.71-.67-.71-1.06 0-3.38 5.3-5.15 5.3a1.23 1.23 0 0 1-1.18-1.37c0-1.34.67-2.63.67-4 0-.55-.2-.94-.79-.94a1.79 1.79 0 0 0-.9.31c-4.24 2.67-10.29 5.85-15.32 5.85a.44.44 0 0 1-.43-.43c0-.35.35-.39.59-.39 2.59 0 5.58-1.26 7.93-2.24a27.29 27.29 0 0 0 4-2.08c.94-.59 3.22-2.44 4.28-2.51h.27c1.1 0 1.61.86 1.61 1.89a10.23 10.23 0 0 1-.47 2.47 12.14 12.14 0 0 0-.31 1.73v.16a.3.3 0 0 0 .27.31c.83 0 3.46-5.5 5.34-5.5s1.77 5.07 3 5.07c.59 0 2.63-3.1 3-3.65a2.21 2.21 0 0 1 1.65-1 1.5 1.5 0 0 1 1.26.71c1.06 1.69.27 4.6 3.06 4.6.51 0 1-.31 1.49-.31.03 0 .14.04.14.2zm25.13-1.22c0 1.18-2.28 1.89-3.18 2.08a7.47 7.47 0 0 1-1.61.16 3.53 3.53 0 0 1-3.77-3.42 15 15 0 0 1-2.63.27c-.35 0-1.14-.24-1.14-.71 0-.27.43-.27.63-.27a15.75 15.75 0 0 0 3.3-.39v-.16c.43-1.92 2.36-4.12 4.44-4.12a2 2 0 0 1 2.16 1.73 2.17 2.17 0 0 1-.24.86c-.59 1.18-3.81 2-5 2.4a.92.92 0 0 1-.31.08v.35a2.43 2.43 0 0 0 2.55 2.55 6.15 6.15 0 0 0 3.69-1.06 9.2 9.2 0 0 1 .83-.63c.25.01.28.08.28.28zm-7.07-2.59c.9-.2 3.69-1.18 3.69-2.24 0-.43-.43-.51-.79-.51-1.36 0-2.59 1.53-2.89 2.75zM18.19 103.13a.44.44 0 0 1-.43.43h-1.33c.24 3.06-3.73 5.07-6.36 5.07-1.1 0-2.43-.43-2.43-1.77 0-2.87 5.38-3.73 7.46-3.93-1-2-4.12-3.38-5.42-5.07a23.78 23.78 0 0 1-3.34 2.59c-1.26.79-4 2.44-5.42 2.44-.27 0-.9-.12-.9-.51s.94-.43 1.18-.51a15.54 15.54 0 0 0 3.18-1.45 29.09 29.09 0 0 0 4.69-3.45 2.67 2.67 0 0 1-.28-1.1c0-1.41 1.45-3.5 3-3.5a1.23 1.23 0 0 1 1.26 1.3c0 1.57-1.53 2.55-2.55 3.46a44.72 44.72 0 0 0 4.59 4 3.86 3.86 0 0 1 1.22 1.65c.39 0 1.26-.08 1.49-.08a.44.44 0 0 1 .39.43zm-2.91.59c-1.61.16-6.6.82-6.6 3 0 .83.75 1.1 1.45 1.1 2.09.03 5.15-1.35 5.15-4.1zM11.9 93.9a.32.32 0 0 0-.35-.31c-.83 0-1.57 1.65-1.57 2.32v.27c.51-.43 1.92-1.57 1.92-2.28z"/><path class="a" d="M27.89 99.36c0 1.85-4.16 3.1-5.5 3.57h-.08v.24c0 1.53 1.14 2.2 2.51 2.36.2 0 .43.16.43.39a.44.44 0 0 1-.43.43 3.68 3.68 0 0 1-3.69-2.71c0-.12 0-.39-.08-.47a19.28 19.28 0 0 1-3.34.35.44.44 0 0 1-.43-.43.44.44 0 0 1 .43-.43 14.26 14.26 0 0 0 3.42-.39c.43-2.12 2.16-4.71 4.59-4.71a2 2 0 0 1 2.17 1.8zm-1.61 0c0-.39-.43-.51-.79-.51-1.57 0-2.75 1.85-3.06 3.22.94-.23 3.85-1.6 3.85-2.75z"/><path class="a" d="M56.71 100.89c.82 1.3.79 3.89 2.28 4.52a3.06 3.06 0 0 0 .83.16c.2 0 .43.16.43.39a.44.44 0 0 1-.43.43c-3.89 0-3.18-4.67-4.48-4.67-1.06 0-2.91 4.67-4.75 4.67a1.35 1.35 0 0 1-1.26-.94c-.47-1.14-.71-2.4-1.22-3.53-.12-.27-.31-.71-.67-.71-1.06 0-3.34 5.3-5.15 5.3-.79 0-1.14-.75-1.14-1.41 0-1.34.63-2.63.63-3.93 0-.55-.2-.94-.79-.94a1.92 1.92 0 0 0-.9.31c-.83.51-1.65 1.06-2.51 1.53-3.61 2-8.64 4.32-12.8 4.32a.44.44 0 0 1-.43-.43c0-.35.31-.39.59-.39 2.51 0 5.66-1.3 8-2.24a28.78 28.78 0 0 0 3.93-2.08c.94-.59 3.22-2.44 4.28-2.51h.27c1.1 0 1.61.86 1.61 1.89 0 1.53-.82 3.14-.82 4.36a.3.3 0 0 0 .27.31c.83 0 3.46-5.5 5.34-5.5s1.77 5.07 3 5.07c.63 0 2.59-3.1 3-3.65a2.21 2.21 0 0 1 1.65-1 1.5 1.5 0 0 1 1.24.67z"/><path class="a" d="M78.74 105.96a.43.43 0 0 1-.39.43 23.09 23.09 0 0 1-3.53-.24 7.08 7.08 0 0 1-2.75-.79c-1.22 4.2-1.92 5.7-3.1 9s-2 6.83-4.44 6.83c-1.14 0-2-1.37-2-2.95 0-5.58 7-14.73 10-19.09 0-.24.08-.47.08-.75s-.2-1.06-.63-1.06a2 2 0 0 0-1.22.86c-3.46 4.6-7 8.13-11 8.13a.41.41 0 0 1-.43-.43.43.43 0 0 1 .43-.43h.31c1.85 0 4.48-1.57 6.17-3.26 2.12-2.08 4.75-6.52 6.36-6.52 1.26 0 1.22 1.65 1.22 2.36a6.09 6.09 0 0 1 3.06-1.18c1.57 0 3.42.9 3.42 2.83 0 2.32-3 5.07-5.93 5.26a11.41 11.41 0 0 0 4 .55.42.42 0 0 1 .37.45zm-9.15 3.22c.86-2.71 1.85-5.15 2.47-7.7-2.91 4.44-3.89 5.66-5.42 8.29a36.7 36.7 0 0 0-2.47 5.62 9.63 9.63 0 0 0-.51 2.87c0 1.18.27 1.81.9 1.81 1 0 1.61-1.49 2.4-3.61 1.11-2.8 1.65-4.33 2.63-7.28zm4-4.71c1.81 0 5.3-2 5.3-4.56a1.67 1.67 0 0 0-1.88-1.61 6.08 6.08 0 0 0-3.34 1.22 31.48 31.48 0 0 1-1.22 4.79 4.16 4.16 0 0 0 1.11.16z"/><path class="a" d="M99.6 105.57a.44.44 0 0 1 .43.43.43.43 0 0 1-.43.39c-2 0-4.24-1-4.24-3.34 0-1.61 1.1-3.26 1.1-4.91 0-1.1-1.18-1.45-2-1.89l-.12.27c-1.88 3.46-6.13 6.4-9.62 8.21a12.46 12.46 0 0 1-6.48 1.65.43.43 0 0 1-.39-.43.42.42 0 0 1 .39-.39 10.89 10.89 0 0 0 3.38-.59c4-1.3 9.94-5.26 11.86-9.27-.9-.47-1.92-1.14-1.92-2.28a1.7 1.7 0 0 1 1.73-1.65 1.94 1.94 0 0 1 1.92 2 4 4 0 0 1-.24 1.37c1.33.59 2.67 1.3 2.67 3s-1.14 3.73-1.14 5.07c.03 1.49 1.8 2.36 3.1 2.36zm-5.69-11a3 3 0 0 0 .12-.82c0-.31-.16-.79-.59-.79a.64.64 0 0 0-.63.59c.03.47.74.82 1.09 1.06z"/><path class="a" d="M112.6 106.23a7.47 7.47 0 0 1-1.61.16 3.76 3.76 0 0 1-3.65-2.44c-2.51 1.26-4.95 2.44-7.82 2.44a.44.44 0 0 1-.43-.43.43.43 0 0 1 .43-.39 11.61 11.61 0 0 0 3.46-.59 32.22 32.22 0 0 0 4.24-2 6.23 6.23 0 0 1 3.26-5.07 2.72 2.72 0 0 1 1.37-.31c1 0 2.16.59 2.16 1.73a2 2 0 0 1-.24.82 2.74 2.74 0 0 1-1 .86c-.51.31-1 .55-1.53.82-.9.51-1.81 1.06-2.75 1.53a2.46 2.46 0 0 0 2.55 2.2 5.89 5.89 0 0 0 3.69-1.06 9.49 9.49 0 0 1 .86-.63c.16 0 .2.08.2.24-.01 1.26-2.25 1.93-3.19 2.12zm-4-4a25.58 25.58 0 0 0 3.77-2.36.72.72 0 0 0 .2-.47c0-.47-.51-.63-.9-.63-1.67.04-2.88 2.08-3.12 3.5zm34.12 3.77a.4.4 0 0 1-.43.39 27.39 27.39 0 0 1-4.87-.27 7.69 7.69 0 0 1-2.83-.79c-1.22 4.2-1.89 5.66-3.06 9-1.14 3.22-2 6.83-4.44 6.83-1.14 0-2-1.34-2-2.87 0-5.7 6.87-14.73 9.94-19.17a9.45 9.45 0 0 0 .08-1.06c0-.59-.2-1.41-.2-1.77s.31-.86.79-.86c.79 0 .83 1 .83 1.65a2.7 2.7 0 0 1-.12.9 6.32 6.32 0 0 1 3-1.14c1.57 0 3.42.9 3.42 2.79 0 2.36-3.18 5.3-5.62 5.3.9.51 3.89.59 5 .59a.46.46 0 0 1 .51.48zm-8.13-4.56c-2.91 4.48-3.85 5.7-5.38 8.29a57.41 57.41 0 0 0-2.51 5.62 9.51 9.51 0 0 0-.47 2.87c0 1.14.28 1.81.94 1.81 1 0 1.61-1.49 2.4-3.61 1-2.79 1.61-4.32 2.59-7.27.86-2.68 1.8-5.15 2.43-7.68zm1.53 3c1.81 0 5.26-2 5.26-4.56a1.65 1.65 0 0 0-1.85-1.61 5.94 5.94 0 0 0-3.3 1.22c-.43 1.81-.71 3.26-1.22 4.79a3.91 3.91 0 0 0 1.06.19z"/><path class="a" d="M161.21 99.32c0 1.73-3.89 3.5-5.3 4.08l-.24.08c.16 1.38 1.26 1.92 2.51 2.08.2 0 .43.16.43.39a.44.44 0 0 1-.43.43 3.71 3.71 0 0 1-3.65-2.47 39.14 39.14 0 0 1-12.29 2.47.44.44 0 0 1-.43-.43.43.43 0 0 1 .43-.39 26.56 26.56 0 0 0 5-.55c1.49-.27 2.95-.71 4.4-1.1.71-.24 1.57-.39 2.28-.71l.51-.24c.2-2.36 2-5.38 4.63-5.38a2 2 0 0 1 2.15 1.74zm-1.53.2a.74.74 0 0 0-.83-.71c-1.69 0-2.91 2.12-3.14 3.61.91-.43 3.97-1.72 3.97-2.95z"/><path class="a" d="M182.78 101.91c.47 1.65.79 3.65 2.95 3.65a.42.42 0 0 1 .39.39.4.4 0 0 1-.39.43c-4.32 0-3.65-5.18-4.95-5.18-1.06 0-3.34 5.3-5.18 5.3-.83 0-1.14-.75-1.14-1.45 0-1.3.67-2.71.67-3.89 0-.59-.16-.86-.79-.86-.83 0-2.63 1.34-3.42 1.77-3.57 2-8.68 4.32-12.8 4.32a.4.4 0 0 1-.39-.43c0-.35.28-.39.55-.39 2.51 0 5.66-1.26 8-2.24a47.5 47.5 0 0 0 6.72-3.81 2.75 2.75 0 0 1 1.53-.51 1.8 1.8 0 0 1 1.81 2c0 1.22-.79 2.71-.79 3.85 0 .2 0 .47.24.47.86 0 3.53-5.54 5.34-5.54.94-.04 1.41 1.34 1.65 2.12z"/><path class="a" d="M199.47 108.67c-1.14 0-2.47-.39-2.47-1.73a2.73 2.73 0 0 1 1.1-2c1.49-1.3 4.32-1.69 6.25-2-.94-2-3.77-3.38-5.18-5a60.63 60.63 0 0 1-7.3 6.17c-2.16 1.53-3.46 2.28-6.21 2.28a.44.44 0 0 1-.47-.39.44.44 0 0 1 .43-.43 8.84 8.84 0 0 0 4.28-1.34c3.22-1.85 6-4.56 8.72-7.07a2.15 2.15 0 0 1-.35-1.1c0-1.53 1.38-3.65 3-3.65a1.19 1.19 0 0 1 1.22 1.26c0 1.3-1.53 2.79-2.47 3.53h-.08c1.41 1.34 2.91 2.47 4.36 3.77a4.59 4.59 0 0 1 1.26 1.77c.39 0 1.26-.08 1.49-.08a.44.44 0 0 1 .43.43.44.44 0 0 1-.43.43h-1.26c.28 3.03-3.77 5.15-6.32 5.15zm5.07-4.67v-.24c-1.65.16-6.52.82-6.52 3.06 0 .79.79 1 1.45 1 2 .03 5.06-1.51 5.06-3.82zm-5.07-8.05a1.48 1.48 0 0 0 0 .43c.47-.43 1.89-1.77 1.89-2.44a.33.33 0 0 0-.35-.35c-.8 0-1.54 1.69-1.54 2.35z"/><path class="a" d="M226.29 104.94c0 1-2 1.45-2.83 1.45-3.53 0-4-3.46-4.91-3.46s-2.12 4.24-5.5 4.24a2 2 0 0 1-2.2-2.12 4.43 4.43 0 0 1 .9-2.47 10.28 10.28 0 0 1-4.71 1 .44.44 0 0 1-.43-.43.44.44 0 0 1 .43-.43 12.38 12.38 0 0 0 5.38-1.45c.35-.2.79-.35 1.14-.59a4.67 4.67 0 0 1 2.91-1.21 2.66 2.66 0 0 1 2.4 1.26 1.17 1.17 0 0 1 1.14.67 10.37 10.37 0 0 1 .31 1.18c.43 1.53 1.37 3 3.14 3a6.47 6.47 0 0 0 2.59-.9c.16-.02.24.1.24.26zm-8.8-3.26c-.31-.51-.63-1-1.3-1-1.61 0-4 2.63-4 4.2a1 1 0 0 0 1.1 1.14c1.78.02 3.26-3.12 4.2-4.34zm32.2-2.32c0 2-3.85 2.71-5.3 3.22a.57.57 0 0 1-.28.08v.43a2.46 2.46 0 0 0 2.55 2.47c.24 0 .43.12.43.39a.44.44 0 0 1-.43.43c-1.88 0-3.89-1.37-3.77-3.42a14.5 14.5 0 0 1-2.59.28c-.35 0-1.18-.24-1.18-.71 0-.27.43-.27.63-.27a15.81 15.81 0 0 0 3.34-.39v-.16a6 6 0 0 1 3-3.81 2.72 2.72 0 0 1 1.37-.31 2 2 0 0 1 2.23 1.77zm-1.61 0c0-.39-.43-.51-.79-.51-1.41 0-2.51 1.53-2.95 2.75.88-.2 3.73-1.22 3.73-2.28z"/><path class="a" d="M283.31 105.37c0 .71-1.49 1-2 1-3.61 0-2.79-4.67-4.12-4.67-.35 0-.63.35-.83.63a27 27 0 0 1-2.91 3.65 1.57 1.57 0 0 1-1 .39 1.39 1.39 0 0 1-1.38-.9c-.47-1.14-.67-2.4-1.18-3.53-.12-.27-.31-.71-.67-.71-1.06 0-3.38 5.3-5.15 5.3a1.23 1.23 0 0 1-1.18-1.37c0-1.34.67-2.63.67-4 0-.55-.2-.94-.79-.94a1.79 1.79 0 0 0-.9.31c-4.24 2.67-10.29 5.85-15.32 5.85a.44.44 0 0 1-.43-.43c0-.35.35-.39.59-.39 2.59 0 5.58-1.26 7.93-2.24a27.29 27.29 0 0 0 4-2.08c.94-.59 3.22-2.44 4.28-2.51h.27c1.1 0 1.61.86 1.61 1.89a10.23 10.23 0 0 1-.47 2.47 12.13 12.13 0 0 0-.31 1.73v.16a.3.3 0 0 0 .27.31c.83 0 3.46-5.5 5.34-5.5s1.77 5.07 3 5.07c.59 0 2.63-3.1 3-3.65a2.21 2.21 0 0 1 1.65-1 1.5 1.5 0 0 1 1.26.71c1.06 1.69.27 4.6 3.06 4.6.51 0 1-.31 1.49-.31.11-.04.22 0 .22.16zM7.07 138.28c0 .16-.12.2-.24.2-.43 0-.63-.59-1.49-.59-1.73 0-3.18 3-3.18 4.48a2.46 2.46 0 0 0 2.47 2.47c.24 0 .39.12.39.39a.4.4 0 0 1-.39.43c-1.85 0-3.77-1.3-3.77-3.3s1.85-5.38 4.08-5.38c.68 0 2.13.49 2.13 1.3z"/><path class="a" d="M24.2 141.85a15.29 15.29 0 0 0 2.32.12.44.44 0 0 1 .43.43.44.44 0 0 1-.43.43 15.17 15.17 0 0 1-2.55-.16c-.79 2.08-3.1 4-5.22 4a2.63 2.63 0 0 1-2.51-2.91 5.34 5.34 0 0 1 .35-1.89c-3.5 1.53-8.21 3.81-11.94 3.81a.4.4 0 0 1-.39-.43.42.42 0 0 1 .39-.39 12.46 12.46 0 0 0 3.38-.59 45.69 45.69 0 0 0 9.19-3.77 15.53 15.53 0 0 1 1.14-1.53c.71-.86 2-2.12 3.18-2.12s1.57 1 1.57 2a2.91 2.91 0 0 1 1.14 2.44 3.4 3.4 0 0 1-.05.56zm-1.41.51a2.72 2.72 0 0 1-2.2-2.55c0-.82.63-1.26 1.53-1.34a.8.8 0 0 0-.67-.43 1.56 1.56 0 0 0-1 .35 8 8 0 0 0-3 5.46 1.61 1.61 0 0 0 1.65 1.73c1.13.01 2.97-1.33 3.68-3.21zm.24-.82v-.55c0-.82-.43-1.49-1.1-1.49-.16 0-.24.16-.24.31a1.77 1.77 0 0 0 1.33 1.73z"/><path class="a" d="M50.7 140.17c1.06 1.69.51 4.4 3.1 4.67.2 0 .43.16.43.39a.44.44 0 0 1-.43.43c-4 0-3.14-4.67-4.48-4.67-.35 0-.63.35-.83.63a30.19 30.19 0 0 1-2.87 3.65 1.68 1.68 0 0 1-1.06.39 1.3 1.3 0 0 1-1.26-.94c-.43-1.14-.71-2.4-1.22-3.53-.12-.27-.31-.71-.67-.71-1.06 0-3.34 5.3-5.15 5.3-.82 0-1.14-.75-1.14-1.45 0-1.26.67-2.67.67-3.73 0-.63 0-1.26-.86-1.26a8.62 8.62 0 0 0-2.36 1.26 18.09 18.09 0 0 1-3.34 1.77 8.1 8.1 0 0 1-2.75.47.44.44 0 0 1-.47-.43.44.44 0 0 1 .43-.43 7.87 7.87 0 0 0 3.1-.79c1.61-.75 3.89-3 5.58-3a1.81 1.81 0 0 1 1.81 2c0 1.37-.79 2.83-.79 4a.3.3 0 0 0 .27.31c.83 0 3.46-5.5 5.34-5.5 2 0 1.73 5.07 3 5.07.63 0 2.59-3.1 3-3.65a2.2 2.2 0 0 1 1.65-1 1.5 1.5 0 0 1 1.3.75z"/><path class="a" d="M73.25 142.6c0 .79-1.49.71-2 .71a4.24 4.24 0 0 1-1.57-.24 5.89 5.89 0 0 1-5.18 3.61c-1.65 0-2.47-1.53-2.47-3a4.5 4.5 0 0 1 .12-1c-2.51 1.73-4.83 3-7.93 3-.35 0-.9.08-.9-.43a.43.43 0 0 1 .43-.39 15.33 15.33 0 0 0 1.88-.16 15.16 15.16 0 0 0 6.32-3l.83-.75c.75-1.49 2.71-4 4.52-4 1.1 0 1.57 1.14 1.57 2.12a2.91 2.91 0 0 1 1.14 2.44 4.83 4.83 0 0 1-.08.75 5.55 5.55 0 0 0 1.81.2c.17.01 1.51-.17 1.51.14zm-4.56 0c-.82-.43-2.36-1.57-2.36-2.59 0-.83.79-1.22 1.49-1.26a.64.64 0 0 0-.59-.43 2.08 2.08 0 0 0-.9.31 6.91 6.91 0 0 0-3.06 5.26 1.48 1.48 0 0 0 1.57 1.61 4.22 4.22 0 0 0 3.85-2.9zm.16-1.06c0-.55-.47-1.77-1.14-1.77-.16 0-.28.2-.28.35 0 .67 1 1.14 1.41 1.53zm30.28 4.12c-3.5 0-4-3.46-4.91-3.46s-2.15 4.27-5.5 4.27a2 2 0 0 1-2.2-2.16c0-2.36 3.22-5.54 5.62-5.54a2.59 2.59 0 0 1 2.4 1.26c1.14-.12 1.22 1.06 1.45 1.85a6.48 6.48 0 0 0 .47 1.22 3.08 3.08 0 0 0 2.67 1.77.43.43 0 0 1 .43.39.44.44 0 0 1-.43.4zM89 145.31c1.1 0 2.32-1.53 2.91-2.36.43-.63.79-1.37 1.26-2-.31-.51-.63-1-1.3-1-1.61 0-4 2.63-4 4.2a1 1 0 0 0 1.12 1.16z"/><path class="a" d="M112.07 145.11c1.92-1.3 2.63-3.22 3.61-5.22.28-.55.79-1.3 1.45-1.3 1.22 0 .86 2.2 1 3a3.79 3.79 0 0 0 3.14 3.14c.31.08 1.06 0 1.06.47a.44.44 0 0 1-.43.43 5.34 5.34 0 0 1-5.38-4.56 6.21 6.21 0 0 1-.71 1.45c-1.14 1.92-2.79 4.12-5.26 4.12-2 0-3-1.73-3-3.57a6.61 6.61 0 0 1 .24-1.77 14.35 14.35 0 0 1-4.32 3.34 9.49 9.49 0 0 1-4.4 1 .4.4 0 0 1-.39-.43.42.42 0 0 1 .39-.39 8.06 8.06 0 0 0 3.93-.94 14.48 14.48 0 0 0 4.36-3.81c.35-.55 1.22-2 2-2a.83.83 0 0 1 .79.86c0 1.06-1.45 2.55-1.45 4.48a1.94 1.94 0 0 0 2 2.12 2.38 2.38 0 0 0 1.37-.42z"/><path class="a" d="M149.91 140.17c.83 1.3.83 3.89 2.32 4.52a3.06 3.06 0 0 0 .83.16c.2 0 .39.16.39.39a.43.43 0 0 1-.39.43c-4 0-3.18-4.67-4.52-4.67-.35 0-.63.35-.83.63a30.2 30.2 0 0 1-2.87 3.65 1.67 1.67 0 0 1-1.06.39 1.3 1.3 0 0 1-1.26-.94c-.47-1.18-.75-2.4-1.22-3.53-.12-.27-.28-.71-.63-.71-1.1 0-3.34 5.3-5.18 5.3a1.29 1.29 0 0 1-1.18-1.41c0-1.34.71-2.79.71-4.12a.78.78 0 0 0-.79-.86c-2.4 0-7 6.28-11.39 6.28-.39 0-1.49.24-1.49-.43a.43.43 0 0 1 .43-.39 10.07 10.07 0 0 0 6.13-2.36c1.38-1 3.85-3.42 5.26-4a3.23 3.23 0 0 1 1.18-.27 1.85 1.85 0 0 1 1.85 2c0 1.22-.79 2.67-.79 3.85 0 .2 0 .47.24.47.9 0 3.46-5.5 5.34-5.5 2.08 0 1.77 5.07 3 5.07.63 0 2.59-3.1 3-3.65a2.28 2.28 0 0 1 1.69-1 1.43 1.43 0 0 1 1.23.7z"/><path class="a" d="M167.42 138.59a2 2 0 0 1-.24.82 3 3 0 0 1-1 .86c-.51.31-1.06.55-1.57.82-.94.51-1.81 1.06-2.75 1.53.16 1.49 1.14 2 2.51 2.2.2 0 .43.16.43.39a.44.44 0 0 1-.43.43 3.8 3.8 0 0 1-3.65-2.44c-2.47 1.22-4.95 2.44-7.78 2.44a.44.44 0 0 1-.47-.43.43.43 0 0 1 .43-.39 11.39 11.39 0 0 0 3.46-.59 35.28 35.28 0 0 0 4.28-2c0-2.32 2.12-5.38 4.63-5.38a1.94 1.94 0 0 1 2.15 1.74zm-1.69.59a.65.65 0 0 0 .2-.47c0-.47-.47-.63-.86-.63-1.69 0-2.79 2-3.1 3.46a25.58 25.58 0 0 0 3.76-2.36z"/><path class="a" d="M188.98 141.19c.47 1.65.79 3.65 2.95 3.65a.42.42 0 0 1 .39.39.4.4 0 0 1-.39.43c-4.32 0-3.65-5.18-4.95-5.18-1.06 0-3.34 5.3-5.18 5.3-.83 0-1.14-.75-1.14-1.45 0-1.3.67-2.71.67-3.89 0-.59-.16-.86-.79-.86-.83 0-2.63 1.34-3.42 1.77-3.57 2-8.68 4.32-12.8 4.32a.4.4 0 0 1-.39-.43c0-.35.28-.39.55-.39 2.51 0 5.66-1.26 8-2.24a47.5 47.5 0 0 0 6.72-3.81 2.75 2.75 0 0 1 1.53-.51 1.8 1.8 0 0 1 1.81 2c0 1.22-.79 2.71-.79 3.85 0 .2 0 .47.24.47.86 0 3.53-5.54 5.34-5.54.98-.04 1.42 1.33 1.65 2.12z"/><path class="a" d="M205.91 135.02c0 1-2.75 1-3.42 1.06a1.61 1.61 0 0 1-.16.39 14.42 14.42 0 0 0-1.3 5.07 3 3 0 0 0 .94 2.44 3.85 3.85 0 0 0 2.16.82c.2 0 .43.16.43.39a.44.44 0 0 1-.43.43 3.83 3.83 0 0 1-4-4 12.92 12.92 0 0 1 .31-2.47c-1.41 2.47-5.62 6.44-8.64 6.44a.44.44 0 0 1-.43-.43c0-.24.24-.35.43-.39a8.6 8.6 0 0 0 4-2 17.42 17.42 0 0 0 5.07-6.72c-.63 0-1.22.08-1.85.08-.35 0-1.22-.12-1.22-.63 0-.79 2.91-.71 3.57-.71.2-.51.86-2.55 1.53-2.55.51 0 .59.86.59 1.22a5.57 5.57 0 0 1-.43 1.3 14.22 14.22 0 0 1 2.24 0c.14.1.61-.01.61.26z"/><path class="a" d="M217.57 141.85a4.71 4.71 0 0 0 .51 1.22 3 3 0 0 0 2.63 1.77.43.43 0 0 1 .43.39.44.44 0 0 1-.43.43c-3.5 0-4-3.46-4.91-3.46s-2.08 4.24-5.54 4.24a2 2 0 0 1-2.12-2.08v-.24a5.81 5.81 0 0 1-4 1.53.39.39 0 0 1-.43-.43.42.42 0 0 1 .39-.39c1.77 0 3.26-1.26 4.56-2.36.94-1.69 3-3.73 5.07-3.73a2.82 2.82 0 0 1 2.44 1.26c1.13-.11 1.16 1.07 1.4 1.85zm-2.79-.9c-.31-.51-.67-1-1.3-1-1.65 0-4 2.63-4 4.2a1.07 1.07 0 0 0 1.14 1.14c1.77.02 3.22-3.12 4.16-4.34z"/><path class="a" d="M244.2 139.47c0 .16-.16.2-.28.2a6.87 6.87 0 0 1-1.3-.2 9.3 9.3 0 0 0-1.49-.08c-4.2 0-7 2.4-9.35 5.66-.28.39-.9 1.22-1.45 1.22-1.37 0-1-4.52-1.14-5.42 0-.2-.12-.43-.35-.43-.82 0-4.48 5.26-8 5.26-.28 0-.63 0-.63-.43 0-.24.24-.35.43-.39a5.37 5.37 0 0 0 1.57-.35c2-.9 4-3.1 5.58-4.67a2.21 2.21 0 0 1 1.41-.82c1.18 0 1.14 1.85 1.14 2.63v2.55c0 .2 0 .55.28.55s1-1.1 1.14-1.22a19.46 19.46 0 0 1 2.16-2.24 12.05 12.05 0 0 1 7.65-2.82c.63 0 2.63 0 2.63 1zM18.19 181.68a.44.44 0 0 1-.43.43h-1.33c.24 3.06-3.73 5.07-6.36 5.07-1.1 0-2.43-.43-2.43-1.77 0-2.87 5.38-3.73 7.46-3.93-1-2-4.12-3.38-5.42-5.07A23.86 23.86 0 0 1 6.34 179c-1.26.79-4 2.43-5.42 2.43-.27 0-.9-.12-.9-.51s.94-.43 1.18-.51a15.57 15.57 0 0 0 3.18-1.45 29.06 29.06 0 0 0 4.69-3.49 2.67 2.67 0 0 1-.28-1.1c0-1.41 1.45-3.5 3-3.5a1.23 1.23 0 0 1 1.26 1.3c0 1.57-1.53 2.55-2.55 3.46a44.67 44.67 0 0 0 4.59 4 3.86 3.86 0 0 1 1.22 1.65c.39 0 1.26-.08 1.49-.08a.43.43 0 0 1 .39.48zm-2.91.59c-1.61.16-6.6.82-6.6 3 0 .83.75 1.1 1.45 1.1 2.09.02 5.15-1.39 5.15-4.1zm-3.38-9.82a.32.32 0 0 0-.35-.31c-.83 0-1.57 1.65-1.57 2.32v.28c.51-.45 1.92-1.59 1.92-2.27z"/><path class="a" d="M28.75 184.39c1.92-1.3 2.63-3.22 3.61-5.22.28-.55.79-1.3 1.45-1.3 1.22 0 .86 2.2 1 3a3.79 3.79 0 0 0 3.14 3.14c.31.08 1.06 0 1.06.47a.44.44 0 0 1-.43.43 5.34 5.34 0 0 1-5.38-4.56 6.22 6.22 0 0 1-.71 1.45c-1.14 1.92-2.79 4.12-5.26 4.12-2 0-3-1.73-3-3.57a12.42 12.42 0 0 1 .79-3.38 16.8 16.8 0 0 1-4.52 2.63 7.24 7.24 0 0 1-2.75.47.44.44 0 0 1-.43-.43.43.43 0 0 1 .39-.43 6.9 6.9 0 0 0 2-.35 10.46 10.46 0 0 0 2.32-1.1c.71-.39 3.42-2.44 4-2.44a.78.78 0 0 1 .79.86c0 1.06-1.45 2.55-1.45 4.48a1.94 1.94 0 0 0 2 2.12 2.38 2.38 0 0 0 1.38-.39z"/><path class="a" d="M57.93 183.47c0 1-2 1.45-2.83 1.45-3.53 0-4-3.46-4.91-3.46s-2.12 4.24-5.54 4.24a2 2 0 0 1-2.16-2.12v-.2a6 6 0 0 1-3.81 1.53c-.31 0-.63 0-.63-.43a.43.43 0 0 1 .43-.39c1.77 0 3.22-1.26 4.52-2.36.94-1.73 3-3.73 5.11-3.73a2.66 2.66 0 0 1 2.4 1.26 1.08 1.08 0 0 1 1.1.67 6.76 6.76 0 0 1 .35 1.18c.43 1.53 1.37 3 3.14 3a6.73 6.73 0 0 0 2.59-.9c.16 0 .24.12.24.26zm-8.8-3.26c-.31-.51-.63-1-1.3-1-1.61 0-4 2.63-4 4.2a1 1 0 0 0 1.1 1.14c1.81.03 3.26-3.08 4.2-4.33zm39.86 3.9a.43.43 0 0 1 .39.43.42.42 0 0 1-.39.39c-2 0-4.24-1-4.24-3.3 0-1.61 1.1-3.34 1.1-4.91 0-1.14-1.18-1.49-2-1.92a1.85 1.85 0 0 1-.16.28 27.31 27.31 0 0 1-6.87 7.38 12.18 12.18 0 0 1-3.85 2.08 7.73 7.73 0 0 1-2.32.39c-.43 0-1.45-.08-1.45-.71 0-.35 1.06-.27 1.3-.27a10 10 0 0 0 4.32-1.49c2.36-1.33 6.76-5.62 8-8.21-.9-.47-1.92-1.14-1.92-2.32a1.73 1.73 0 0 1 1.77-1.61 1.94 1.94 0 0 1 1.89 2 4 4 0 0 1-.24 1.38c1.34.59 2.67 1.3 2.67 2.95s-.79 3.1-1.1 4.71a1.35 1.35 0 0 0 0 .39c0 1.54 1.77 2.36 3.1 2.36zm-5.7-11c0-.12.12-.63.12-.86s-.16-.79-.59-.79a.64.64 0 0 0-.63.59c.01.48.76.91 1.11 1.1z"/><path class="a" d="M103.37 177.87a2 2 0 0 1-.24.83 3 3 0 0 1-1 .86c-.51.31-1.06.55-1.57.83-.94.51-1.81 1.06-2.75 1.53.16 1.49 1.14 2 2.51 2.2.2 0 .43.16.43.39a.44.44 0 0 1-.43.43 3.8 3.8 0 0 1-3.65-2.44c-2.47 1.22-4.95 2.44-7.78 2.44a.44.44 0 0 1-.47-.43.43.43 0 0 1 .43-.39 11.39 11.39 0 0 0 3.46-.59 35.2 35.2 0 0 0 4.28-2c0-2.32 2.12-5.38 4.63-5.38a1.94 1.94 0 0 1 2.15 1.72zm-1.69.59a.65.65 0 0 0 .2-.47c0-.47-.47-.63-.86-.63-1.69 0-2.79 2-3.1 3.46a25.66 25.66 0 0 0 3.76-2.35z"/><path class="a" d="M127.36 162.04c.9 0 1.3.63 1.3 1.45 0 2.55-2.24 6-3.46 8.29a57.2 57.2 0 0 1-3.22 5.69c-.2.31-.35.63-.59.94a6.11 6.11 0 0 0 1.53 4.2 5.43 5.43 0 0 0 3.89 1.49.43.43 0 0 1 .43.39.44.44 0 0 1-.43.43 6 6 0 0 1-6.24-5.3c-1.53 2.08-4.08 5.81-7 5.81a2.37 2.37 0 0 1-2.5-2.46 3.45 3.45 0 0 1 .43-1.53c-3.26 1.41-7.74 3.5-11.23 3.5a.44.44 0 0 1-.43-.43c0-.35.31-.39.59-.39 2.16 0 5.85-1.41 7.89-2.24a37.52 37.52 0 0 0 4.36-2l.39-.35a5.71 5.71 0 0 1 1.85-1 4.07 4.07 0 0 1 1.38-.24 2.91 2.91 0 0 1 2.63 1.89c.51-.67 1-1.34 1.45-2-.4-3.3 3.06-16.14 6.98-16.14zm-9.29 19.24a1.88 1.88 0 0 0-1.89-1.73c-1.61 0-3.81 1.69-3.81 3.38a1.23 1.23 0 0 0 1.34 1.3c1.79-.04 3.25-1.76 4.36-2.95zm7.42-12.06c.63-1.22 1.92-3.38 1.92-4.71 0-.39-.16-.79-.63-.79-1.73 0-3.81 6.36-4.24 7.82a28.25 28.25 0 0 0-1.18 5c1.49-2.33 2.82-4.84 4.12-7.31z"/><path class="a" d="M139.85 184.78a7.5 7.5 0 0 1-1.61.16 3.76 3.76 0 0 1-3.65-2.44c-2.51 1.26-4.95 2.44-7.82 2.44a.44.44 0 0 1-.43-.43.43.43 0 0 1 .43-.39 11.61 11.61 0 0 0 3.46-.59 32.15 32.15 0 0 0 4.24-2 6.23 6.23 0 0 1 3.26-5.07 2.73 2.73 0 0 1 1.37-.31c1 0 2.16.59 2.16 1.73a2 2 0 0 1-.24.83 2.73 2.73 0 0 1-1 .86c-.51.31-1 .55-1.53.83-.9.51-1.81 1.06-2.75 1.53a2.46 2.46 0 0 0 2.55 2.2 5.9 5.9 0 0 0 3.69-1.06 9.59 9.59 0 0 1 .86-.63c.16 0 .2.08.2.24.03 1.24-2.25 1.9-3.19 2.1zm-4-4a25.66 25.66 0 0 0 3.77-2.36.72.72 0 0 0 .2-.47c0-.47-.51-.63-.9-.63-1.66.04-2.85 2.08-3.11 3.49zm11.46 2.51a1.1 1.1 0 0 1 1.06 1 .83.83 0 0 1-.82.86 1 1 0 0 1-1.06-1.06.64.64 0 0 1 .24-.59.87.87 0 0 1 .58-.21z"/></svg>