<svg xmlns="http://www.w3.org/2000/svg" viewBox="0 0 274.55 160.86"><defs><style>.a{fill:#dd6428}</style></defs><title>p12_s4</title><path class="a" d="M19.88 20.44c0-3-1.69-5.85-6.6-5.85h-1.14c-.9 0-1.49-.31-1.49-1s.51-1.06 1.49-1.06h1.33c5.15 0 5.7-3.81 5.7-5.85 0-2.95-1.73-4.83-4.36-4.83A6.08 6.08 0 0 0 9.9 4.09C8.84 5.27 8.37 5.78 7.58 5.78a1.23 1.23 0 0 1-1.33-1.22 2.33 2.33 0 0 1 .67-1.53c1.61-2 4.71-3.06 7.93-3.06 6 0 9.78 2.63 9.78 6.68 0 2.51-1.41 5.11-5.73 6.13v.16c3.42.75 6.56 2.71 6.56 7.07 0 5.5-4.87 8.72-11.31 8.72-3.54 0-6.64-.79-8.21-2.51a2.37 2.37 0 0 1-.75-1.53 1.45 1.45 0 0 1 1.53-1.49c.86 0 1.41.59 2.08 1.37a6.84 6.84 0 0 0 5.38 2.28c3.46.02 5.7-2.65 5.7-6.41zm9.03 5.64c0-1.49 1.33-2.47 3.22-2.47s3.18 1 3.18 2.47-1.3 2.51-3.18 2.51-3.22-.98-3.22-2.51zm20.58 1.02c-1.06-.51-3-1.57-3-2.4 0-.2.2-.35.55-.35.67 0 1.45.67 1.88.9a14.69 14.69 0 0 0 7.78 2.36c3 0 6.13-1.41 6.13-4.08s-2.87-3.38-6.17-4c-5-.86-7.27-1.57-7.27-4.16 0-4.16 6.52-7.31 11-7.31a7.78 7.78 0 0 1 2.36.35s1.14.35 1.14.94c0 .24-.12.35-.31.35a9.9 9.9 0 0 1-1.3-.31 12.1 12.1 0 0 0-2-.16 11.73 11.73 0 0 0-4.59 1c-1.92.82-4.87 2.47-4.87 4.91 0 1.57 1.33 2.2 3.65 2.67 3.57.71 9.78 1.73 9.78 5.66 0 2.71-2.75 5.34-7.78 5.34a17 17 0 0 1-2-.12 19.49 19.49 0 0 1-4.98-1.59zm29.49 1.14c-3.5 0-4-3.46-4.91-3.46s-2.12 4.24-5.5 4.24a2 2 0 0 1-2.2-2.16c0-2.36 3.22-5.54 5.62-5.54a2.59 2.59 0 0 1 2.4 1.26c1.14-.12 1.22 1.06 1.45 1.85a6.48 6.48 0 0 0 .47 1.22 3.08 3.08 0 0 0 2.67 1.77.43.43 0 0 1 .43.39.44.44 0 0 1-.43.43zm-10.13-.35c1.1 0 2.32-1.53 2.91-2.36.43-.63.79-1.37 1.26-2-.31-.51-.63-1-1.3-1-1.61 0-4 2.63-4 4.2a1 1 0 0 0 1.13 1.16z"/><path class="a" d="M99.99 20.66a6.17 6.17 0 0 0 1.14 2.12 4.58 4.58 0 0 0 2.91 1.73c.35 0 1.06-.08 1.06.47a.4.4 0 0 1-.39.43c-2.44 0-4.95-2-6-4-1.14 2.79-3.34 7.62-6.91 7.62-1.92 0-2.87-1.45-2.87-3.22a10.21 10.21 0 0 1 .28-2.2c-2.59 2.59-6.09 4.67-9.82 4.67-.31 0-.86.08-.86-.43a.4.4 0 0 1 .43-.39 15.33 15.33 0 0 0 1.88-.16 12.44 12.44 0 0 0 3.34-1.14 20.64 20.64 0 0 0 5.5-4.24c0-.16 1-3.1 1.18-3.5 1-2.79 4-10.84 7.42-10.84a1.88 1.88 0 0 1 1.81 2c0 2.12-1.85 4.4-3.18 6-.75.86-1.57 1.69-2.36 2.51l-3.85 4a14.17 14.17 0 0 0-.59 3.61c0 1 .43 2.08 1.57 2.08 1.57 0 2.79-1.3 3.65-2.47 1.26-1.73 1.65-3.42 2.4-5.34.16-.39.39-.79.86-.79.85-.01 1.17.77 1.4 1.48zm-3.81-10.37a54.17 54.17 0 0 0-4.71 9.43l-.08.27c1.57-1.69 5.73-6.13 6.6-7.93a4.89 4.89 0 0 0 .55-1.92c0-.47-.16-1-.71-1s-1.29.68-1.65 1.15z"/><path class="a" d="M116.52 26c0 .86-1.37 1.53-2.08 1.81a11.31 11.31 0 0 1-1.1.27 7.47 7.47 0 0 1-1.61.16c-1.77 0-3.77-1.26-3.77-3.18a19.34 19.34 0 0 1-3.38.35.44.44 0 0 1-.43-.43.44.44 0 0 1 .43-.43 14.58 14.58 0 0 0 3.46-.39c.39-2.12 2.16-4.71 4.56-4.71a2 2 0 0 1 2.16 1.73c0 1.81-4.08 3.22-5.46 3.61h-.12a2.5 2.5 0 0 0 2.59 2.59 6.15 6.15 0 0 0 3.69-1.06 9.34 9.34 0 0 1 .83-.63c.2.04.23.12.23.31zm-7.19-2.12c.94-.24 3.85-1.61 3.85-2.75 0-.39-.47-.47-.79-.47-1.6 0-2.74 1.85-3.08 3.22zm34.33 6.33a.36.36 0 0 1-.16.31c-2.59 2.12-6.6 5.69-8.44 8.44a43.3 43.3 0 0 1-1.3 6.28 2.08 2.08 0 0 1-1.49 1.14c-.83 0-1.22-.82-1.22-1.53 0-1.89 1.88-4.52 2.95-6a108.86 108.86 0 0 1 3.69-12.18 10.32 10.32 0 0 1-5 1.65 2.42 2.42 0 0 1-2.51-2.36 2.35 2.35 0 0 1 .24-1.06c1-2.36 4-5 6.68-5a2.79 2.79 0 0 1 2.55 1.85c.2-.55.67-1.45 1.33-1.45s1 .9 1 1.53a4.09 4.09 0 0 1-1.61 2.71c0 .24.08.51.08.75s0 .67-.39.67-.51-.35-.63-.59l-.08.08a77.88 77.88 0 0 0-3.77 11.43 34.31 34.31 0 0 1 7.38-6.91.45.45 0 0 1 .31-.12.38.38 0 0 1 .39.36zm-5.42-5.11l.71-1.81c-.24-1.1-.67-2.32-2-2.32-1.85 0-5.34 2.91-5.34 4.83a1.35 1.35 0 0 0 1.33 1.45 12.26 12.26 0 0 0 5.3-2.15zm-4.93 16.85c-.31.67-1.22 1.89-1.22 2.51 0 .2.08.31.27.31.66.01.89-2.33.95-2.82zm6.79-18.89a1.4 1.4 0 0 0 .08.39c.27-.27.75-.67.75-1.1 0-.16-.08-.39-.27-.39s-.53.9-.53 1.1z"/><path class="a" d="M165.58 24.2a3.84 3.84 0 0 0 3.14 3.14c.31.08 1.1 0 1.1.47a.44.44 0 0 1-.43.43 5.34 5.34 0 0 1-5.38-4.56c-1 2.32-3.1 5.54-6 5.54a3.08 3.08 0 0 1-3.06-3.38 8.19 8.19 0 0 1 .67-2.95 37.66 37.66 0 0 0-6.21 3.42c-3.42 2.2-5.85 4.28-6.21 4.28a.39.39 0 0 1-.39-.39.59.59 0 0 1 .16-.35 76.92 76.92 0 0 1 11.23-7.58 7.83 7.83 0 0 1 2.47-1.14c.47 0 .79.16.79.59 0 1-1.33 2.4-1.33 4.28a1.91 1.91 0 0 0 2 2.08 2.31 2.31 0 0 0 1.34-.39c1.92-1.26 2.71-3.22 3.65-5.22.27-.55.75-1.3 1.45-1.3 1.24 0 .89 2.27 1.01 3.03z"/><path class="a" d="M182.38 28.08a7.47 7.47 0 0 1-1.61.16 3.76 3.76 0 0 1-3.65-2.44c-2.51 1.26-4.95 2.44-7.82 2.44a.44.44 0 0 1-.43-.43.43.43 0 0 1 .44-.37 11.61 11.61 0 0 0 3.46-.59 32.22 32.22 0 0 0 4.24-2 6.23 6.23 0 0 1 3.26-5.07 2.72 2.72 0 0 1 1.37-.31 2 2 0 0 1 2.16 1.73 2 2 0 0 1-.24.82 2.74 2.74 0 0 1-1 .86c-.51.31-1 .55-1.53.82-.9.51-1.81 1.06-2.75 1.53a2.46 2.46 0 0 0 2.55 2.2 5.89 5.89 0 0 0 3.69-1.06 9.49 9.49 0 0 1 .86-.63c.16 0 .2.08.2.24-.02 1.24-2.27 1.91-3.2 2.1zm-4-4a25.58 25.58 0 0 0 3.77-2.36.72.72 0 0 0 .2-.47c0-.47-.51-.63-.9-.63-1.66.04-2.88 2.08-3.14 3.5zm33.61-6.48c0 1-2.75 1-3.42 1.06a1.61 1.61 0 0 1-.16.39 15.09 15.09 0 0 0-1.3 5 3.2 3.2 0 0 0 .94 2.55 3.52 3.52 0 0 0 2 .75c.2 0 .43.16.43.39a.44.44 0 0 1-.43.43 3.59 3.59 0 0 1-3.89-3.89 14.24 14.24 0 0 1 .35-2.55 13.71 13.71 0 0 1-1.45 1.92c-1.3 1.38-4.48 4.44-6.44 4.44-.31 0-1-.12-1-.51s1-.39 1.22-.47a8.75 8.75 0 0 0 3-1.73 17.43 17.43 0 0 0 5.07-6.72c-.59 0-1.22.08-1.81.08-.39 0-1.26-.12-1.26-.63 0-.79 2.95-.71 3.57-.71.24-.51.86-2.55 1.53-2.55.47 0 .59.79.59 1.1a4.53 4.53 0 0 1-.43 1.41 14.23 14.23 0 0 1 2.24 0c.18.08.65-.04.65.24z"/><path class="a" d="M226.37 24.44a15.3 15.3 0 0 0 2.32.12.44.44 0 0 1 .43.43.44.44 0 0 1-.43.43 15.17 15.17 0 0 1-2.55-.16c-.79 2.08-3.1 4-5.22 4a2.63 2.63 0 0 1-2.51-2.91 5.2 5.2 0 0 1 .12-1.1c-2.47 1.69-4.83 3-7.89 3-.35 0-.94.08-.94-.43a.43.43 0 0 1 .43-.39 15.33 15.33 0 0 0 1.88-.16 12.44 12.44 0 0 0 3.34-1.14 12.22 12.22 0 0 0 3-1.85 7 7 0 0 0 .79-.75l.35-.55a9.88 9.88 0 0 1 1.06-1.45c.71-.86 2-2.12 3.18-2.12s1.57 1 1.57 2a2.91 2.91 0 0 1 1.14 2.44 3.32 3.32 0 0 1-.07.59zm-1.41.51a2.72 2.72 0 0 1-2.2-2.55c0-.82.63-1.26 1.53-1.34a.8.8 0 0 0-.67-.43 1.56 1.56 0 0 0-1 .35 8 8 0 0 0-3 5.46 1.61 1.61 0 0 0 1.65 1.73c1.13-.01 3.04-1.34 3.68-3.23zm.24-.82a2.61 2.61 0 0 0 0-.55c0-.82-.43-1.49-1.1-1.49-.16 0-.24.16-.24.31a1.77 1.77 0 0 0 1.33 1.72z"/><path class="a" d="M242.31 16.07c.67-2.67 3-10.72 6.28-10.72a1.28 1.28 0 0 1 1.3 1.45c0 2.59-2.24 6-3.5 8.29a69.19 69.19 0 0 1-3.81 6.64c.16 2.4.94 4.63 3.5 5.38a6.84 6.84 0 0 0 2 .31.43.43 0 0 1 .43.39.44.44 0 0 1-.43.43c-3.5 0-5.62-2-6.28-5.3-1.53 2.12-4 5.81-7 5.81a2.39 2.39 0 0 1-2.51-2.44 3.54 3.54 0 0 1 .51-1.65 11.86 11.86 0 0 1-4.2.75.44.44 0 0 1-.43-.43.44.44 0 0 1 .43-.43 12.15 12.15 0 0 0 4.71-1.11 3.5 3.5 0 0 0 .67-.31 5.77 5.77 0 0 1 2.67-1.49 3.56 3.56 0 0 1 .9-.12 2.84 2.84 0 0 1 2.63 1.89c.51-.67.94-1.34 1.41-2a22.17 22.17 0 0 1 .72-5.34zm-3.06 8.52a1.83 1.83 0 0 0-1.88-1.73c-1.61 0-3.77 1.65-3.77 3.38a1.22 1.22 0 0 0 1.3 1.3c1.87-.04 3.29-1.73 4.41-2.95zm5.38-8.21c.71-1.26 1.38-2.55 2-3.85s2-3.34 2-4.71c0-.39-.16-.79-.63-.79-1.81 0-3.77 6.32-4.24 7.82a27.49 27.49 0 0 0-1.18 5z"/><path class="a" d="M267.56 25.18c0 .79-1.49.71-2 .71a4.24 4.24 0 0 1-1.57-.24 5.89 5.89 0 0 1-5.18 3.61c-1.65 0-2.47-1.53-2.47-3a4.5 4.5 0 0 1 .12-1c-2.51 1.73-4.83 3-7.93 3-.35 0-.9.08-.9-.43a.43.43 0 0 1 .43-.39 15.33 15.33 0 0 0 1.88-.16 15.17 15.17 0 0 0 6.32-3l.82-.75c.75-1.49 2.71-4 4.52-4 1.1 0 1.57 1.14 1.57 2.12a2.91 2.91 0 0 1 1.14 2.43 4.83 4.83 0 0 1-.08.75 5.55 5.55 0 0 0 1.81.2c.19-.01 1.52-.17 1.52.15zm-4.56 0c-.82-.43-2.36-1.57-2.36-2.59 0-.83.79-1.22 1.49-1.26a.64.64 0 0 0-.59-.43 2.08 2.08 0 0 0-.9.31 6.91 6.91 0 0 0-3.06 5.26 1.48 1.48 0 0 0 1.57 1.61 4.22 4.22 0 0 0 3.86-2.9zm.16-1.06c0-.55-.47-1.77-1.14-1.77-.16 0-.28.2-.28.35 0 .67 1 1.14 1.41 1.53zM10.53 60.13c0 .16-.12.2-.24.2-.43 0-.63-.59-1.49-.59-1.73 0-3.18 3-3.18 4.48a2.46 2.46 0 0 0 2.47 2.47c.24 0 .39.12.39.39a.4.4 0 0 1-.39.43c-1.85 0-3.77-1.3-3.77-3.3s1.85-5.38 4.08-5.38c.68 0 2.13.51 2.13 1.3z"/><path class="a" d="M26.4 49.17c.67-.82 1.92-2 3.06-2s1.73 1.41 1.73 2.4c0 1.89-1.37 4.67-2.44 6.21a23.34 23.34 0 0 1-3.69 4.16 6 6 0 0 1-.75.67c.55 2.67 2.51 6.13 5.62 6.13a.42.42 0 0 1 .39.39.4.4 0 0 1-.39.43c-3.57 0-5.85-2.87-6.6-6.09-3.85 2.91-10.49 6.09-15.28 6.09a.44.44 0 0 1-.43-.43.43.43 0 0 1 .43-.39 12.4 12.4 0 0 0 3.38-.55 34 34 0 0 0 11.67-5.75c0-.59-.16-1.18-.16-1.81a16.61 16.61 0 0 1 3.46-9.46zm1.61 6c.83-1.3 2.12-3.69 2.12-5.22 0-.71-.31-1.26-1.06-1.26-1.06 0-2.28 1.77-2.75 2.59a15.39 15.39 0 0 0-2.2 7.38 7 7 0 0 0 0 .9 19.61 19.61 0 0 0 3.89-4.42z"/><path class="a" d="M40.26 60.25a1.36 1.36 0 0 1 .27 1 7.19 7.19 0 0 0 1.38 4.56 2.36 2.36 0 0 0 2 .86c.2 0 .43.16.43.39a.44.44 0 0 1-.43.43c-2.83 0-4.24-2.91-4.4-5.38a14 14 0 0 1-5.18 4.4 9.48 9.48 0 0 1-4.4 1 .44.44 0 0 1-.43-.43.43.43 0 0 1 .43-.39 7.91 7.91 0 0 0 3.89-.94 12.1 12.1 0 0 0 4.16-3.81c.35-.51 1.06-1.92 1.77-1.92a.71.71 0 0 1 .51.23zm-.75-6.13c0-.39.35-.55.71-.55.63 0 .94.82.94 1.38 0 .31-.16.59-.47.59-.55-.01-1.18-.91-1.18-1.42z"/><path class="a" d="M58.31 60.44a2 2 0 0 1-.24.82 3 3 0 0 1-1 .86c-.51.31-1.06.55-1.57.82-.94.51-1.81 1.06-2.75 1.53.16 1.49 1.14 2 2.51 2.2.2 0 .43.16.43.39a.44.44 0 0 1-.43.43 3.8 3.8 0 0 1-3.65-2.44c-2.47 1.22-4.95 2.44-7.78 2.44a.44.44 0 0 1-.47-.43.43.43 0 0 1 .43-.39 11.39 11.39 0 0 0 3.46-.59 35.28 35.28 0 0 0 4.28-2c0-2.32 2.12-5.38 4.63-5.38a1.94 1.94 0 0 1 2.15 1.74zm-1.69.59a.65.65 0 0 0 .2-.47c0-.47-.47-.63-.86-.63-1.69 0-2.79 2-3.1 3.46a25.58 25.58 0 0 0 3.74-2.36z"/><path class="a" d="M79.85 63.04c.47 1.65.79 3.65 2.95 3.65a.42.42 0 0 1 .39.39.4.4 0 0 1-.39.43c-4.32 0-3.65-5.18-4.95-5.18-1.06 0-3.34 5.3-5.18 5.3-.83 0-1.14-.75-1.14-1.45 0-1.3.67-2.71.67-3.89 0-.59-.16-.86-.79-.86-.83 0-2.63 1.34-3.42 1.77-3.57 2-8.68 4.32-12.8 4.32a.4.4 0 0 1-.39-.43c0-.35.28-.39.55-.39 2.51 0 5.66-1.26 8-2.24a47.5 47.5 0 0 0 6.72-3.81 2.75 2.75 0 0 1 1.53-.51 1.8 1.8 0 0 1 1.81 2c0 1.22-.79 2.71-.79 3.85 0 .2 0 .47.24.47.86 0 3.53-5.54 5.34-5.54.98-.04 1.41 1.33 1.65 2.12z"/><path class="a" d="M96.77 56.87c0 1-2.75 1-3.42 1.06a1.61 1.61 0 0 1-.16.39 14.42 14.42 0 0 0-1.3 5.07 3 3 0 0 0 .94 2.44 3.85 3.85 0 0 0 2.16.82c.2 0 .43.16.43.39a.44.44 0 0 1-.43.43 3.83 3.83 0 0 1-4-4A12.92 12.92 0 0 1 91.3 61c-1.41 2.47-5.62 6.44-8.64 6.44a.44.44 0 0 1-.43-.43c0-.24.24-.35.43-.39a8.6 8.6 0 0 0 4-2 17.42 17.42 0 0 0 5.07-6.72c-.63 0-1.22.08-1.85.08-.35 0-1.22-.12-1.22-.63 0-.79 2.91-.71 3.57-.71.2-.51.86-2.55 1.53-2.55.51 0 .59.86.59 1.22a5.57 5.57 0 0 1-.43 1.3 14.22 14.22 0 0 1 2.24 0c.15.1.61-.01.61.26z"/><path class="a" d="M108.08 67.36a7.47 7.47 0 0 1-1.61.16 3.76 3.76 0 0 1-3.65-2.44c-2.51 1.26-4.95 2.44-7.82 2.44a.44.44 0 0 1-.43-.43.43.43 0 0 1 .43-.39 11.61 11.61 0 0 0 3.46-.59 32.22 32.22 0 0 0 4.24-2 6.23 6.23 0 0 1 3.26-5.07 2.72 2.72 0 0 1 1.37-.31c1 0 2.16.59 2.16 1.73a2 2 0 0 1-.24.82 2.74 2.74 0 0 1-1 .86c-.51.31-1 .55-1.53.82-.9.51-1.81 1.06-2.75 1.53a2.46 2.46 0 0 0 2.55 2.2 5.89 5.89 0 0 0 3.69-1.06 9.49 9.49 0 0 1 .86-.63c.16 0 .2.08.2.24.04 1.25-2.25 1.92-3.19 2.12zm-4-4a25.58 25.58 0 0 0 3.77-2.36.72.72 0 0 0 .2-.47c0-.47-.51-.63-.9-.63-1.66.03-2.84 2.08-3.11 3.54zm30.59-2.92c0 2-3.85 2.71-5.3 3.22a.57.57 0 0 1-.28.08v.43a2.46 2.46 0 0 0 2.55 2.47c.24 0 .43.12.43.39a.44.44 0 0 1-.43.43c-1.88 0-3.89-1.37-3.77-3.42a14.5 14.5 0 0 1-2.59.28c-.35 0-1.18-.24-1.18-.71 0-.27.43-.27.63-.27a15.81 15.81 0 0 0 3.34-.39v-.16a6 6 0 0 1 3-3.81 2.72 2.72 0 0 1 1.37-.31 2 2 0 0 1 2.23 1.77zm-1.61 0c0-.39-.43-.51-.79-.51-1.41 0-2.51 1.53-2.95 2.75.87-.15 3.74-1.18 3.74-2.24z"/><path class="a" d="M168.31 66.49c0 .71-1.49 1-2 1-3.61 0-2.79-4.67-4.12-4.67-.35 0-.63.35-.83.63a27 27 0 0 1-2.91 3.65 1.57 1.57 0 0 1-1 .39 1.4 1.4 0 0 1-1.3-.94c-.47-1.14-.67-2.4-1.18-3.53-.12-.27-.31-.71-.67-.71-1.06 0-3.38 5.3-5.15 5.3a1.23 1.23 0 0 1-1.18-1.37c0-1.34.67-2.63.67-4 0-.55-.2-.94-.79-.94a1.79 1.79 0 0 0-.9.31c-4.24 2.67-10.29 5.85-15.32 5.85a.44.44 0 0 1-.43-.43c0-.35.35-.39.59-.39 2.59 0 5.58-1.26 7.93-2.24a27.29 27.29 0 0 0 4-2.08c.94-.59 3.22-2.44 4.28-2.51h.27c1.1 0 1.61.86 1.61 1.89a10.23 10.23 0 0 1-.47 2.47 12.13 12.13 0 0 0-.31 1.73v.16a.3.3 0 0 0 .27.31c.83 0 3.46-5.5 5.34-5.5s1.77 5.07 3 5.07c.59 0 2.63-3.1 3-3.65a2.21 2.21 0 0 1 1.65-1 1.5 1.5 0 0 1 1.26.71c1.06 1.69.27 4.6 3.06 4.6.51 0 1-.31 1.49-.31 0 .01.14.05.14.2zm32-4.47c1.1 1.69.51 4.4 3.1 4.67.24 0 .39.16.39.39a.4.4 0 0 1-.39.43c-4 0-3.18-4.67-4.52-4.67-.35 0-.63.35-.83.63a26.76 26.76 0 0 1-2.87 3.65 1.67 1.67 0 0 1-1.06.39 1.38 1.38 0 0 1-1.26-.94c-.43-1.18-.71-2.4-1.22-3.53-.12-.27-.27-.71-.63-.71-1.1 0-3.34 5.3-5.18 5.3-.83 0-1.14-.75-1.14-1.45 0-1.3.67-2.71.67-3.89 0-.51-.12-1.1-.71-1.1-1.1 0-2.47 1.41-3.22 1.41a.42.42 0 0 1-.39-.35c0-.82 2.75-2.2 3.65-2.2a1.85 1.85 0 0 1 1.85 2c0 1.26-.79 2.63-.79 3.85 0 .2 0 .47.24.47.83 0 3.57-5.54 5.34-5.54 2 0 1.77 5.11 3 5.11 1.06 0 2.83-4.67 4.67-4.67a1.5 1.5 0 0 1 1.3.75z"/><path class="a" d="M217.81 60.44a2 2 0 0 1-.24.82 3 3 0 0 1-1 .86c-.51.31-1.06.55-1.57.82-.94.51-1.81 1.06-2.75 1.53.16 1.49 1.14 2 2.51 2.2.2 0 .43.16.43.39a.44.44 0 0 1-.43.43 3.8 3.8 0 0 1-3.65-2.44c-2.47 1.22-4.95 2.44-7.78 2.44a.44.44 0 0 1-.47-.43.43.43 0 0 1 .43-.39 11.39 11.39 0 0 0 3.46-.59 35.28 35.28 0 0 0 4.28-2c0-2.32 2.12-5.38 4.63-5.38a1.94 1.94 0 0 1 2.15 1.74zm-1.69.59a.65.65 0 0 0 .2-.47c0-.47-.47-.63-.86-.63-1.69 0-2.79 2-3.1 3.46a25.58 25.58 0 0 0 3.76-2.36zm-2.75-5.5c-.16 0-.24 0-.24-.16 0-.27 2.63-2.55 3.26-2.55.31 0 .59.16.59.39 0 .51-2.4 2-3.26 2.28a1.1 1.1 0 0 1-.35.04z"/><path class="a" d="M241.8 44.62c.9 0 1.3.63 1.3 1.45 0 2.55-2.24 6-3.46 8.29a57.31 57.31 0 0 1-3.22 5.69c-.2.31-.35.63-.59.94a6.11 6.11 0 0 0 1.53 4.2 5.42 5.42 0 0 0 3.89 1.49.43.43 0 0 1 .43.39.44.44 0 0 1-.43.43 6 6 0 0 1-6.24-5.3c-1.53 2.08-4.08 5.81-7 5.81a2.37 2.37 0 0 1-2.47-2.47 3.45 3.45 0 0 1 .43-1.53c-3.26 1.41-7.74 3.5-11.23 3.5a.44.44 0 0 1-.43-.43c0-.35.31-.39.59-.39 2.16 0 5.85-1.41 7.89-2.24a37.44 37.44 0 0 0 4.36-2l.39-.35a5.7 5.7 0 0 1 1.85-1 4.06 4.06 0 0 1 1.38-.24 2.91 2.91 0 0 1 2.63 1.89c.51-.67 1-1.34 1.45-2-.43-3.31 3.03-16.13 6.95-16.13zm-9.31 19.25a1.88 1.88 0 0 0-1.89-1.73c-1.61 0-3.81 1.69-3.81 3.38a1.23 1.23 0 0 0 1.34 1.3c1.81-.05 3.26-1.74 4.36-2.96zm7.42-12.06c.63-1.22 1.92-3.38 1.92-4.71 0-.39-.16-.79-.63-.79-1.73 0-3.81 6.36-4.24 7.82a28.28 28.28 0 0 0-1.18 5c1.53-2.34 2.84-4.85 4.14-7.33z"/><path class="a" d="M251.58 60.25a1.36 1.36 0 0 1 .27 1 7.19 7.19 0 0 0 1.38 4.56 2.36 2.36 0 0 0 2 .86c.2 0 .43.16.43.39a.44.44 0 0 1-.43.43c-2.83 0-4.24-2.91-4.4-5.38a14 14 0 0 1-5.18 4.4 9.48 9.48 0 0 1-4.4 1 .44.44 0 0 1-.43-.43.43.43 0 0 1 .43-.39 7.91 7.91 0 0 0 3.89-.94 12.09 12.09 0 0 0 4.17-3.81c.35-.51 1.06-1.92 1.77-1.92a.71.71 0 0 1 .5.23zm-.75-6.13c0-.39.35-.55.71-.55.63 0 .94.82.94 1.38 0 .31-.16.59-.47.59-.55-.01-1.18-.91-1.18-1.42z"/><path class="a" d="M274.56 66.06c0 1-2 1.45-2.83 1.45-3.53 0-4-3.46-4.91-3.46s-2.12 4.24-5.54 4.24a2 2 0 0 1-2.16-2.12v-.2a6 6 0 0 1-3.81 1.53c-.31 0-.63 0-.63-.43a.43.43 0 0 1 .43-.39c1.77 0 3.22-1.26 4.52-2.36.94-1.73 3-3.73 5.11-3.73a2.66 2.66 0 0 1 2.4 1.26 1.08 1.08 0 0 1 1.1.67 6.75 6.75 0 0 1 .35 1.18c.43 1.53 1.37 3 3.14 3a6.74 6.74 0 0 0 2.59-.9c.16-.01.24.1.24.26zm-8.8-3.26c-.31-.51-.63-1-1.3-1-1.61 0-4 2.63-4 4.2a1 1 0 0 0 1.1 1.14c1.8.02 3.25-3.12 4.2-4.34zM17.6 106.44a.4.4 0 0 1-.43.39 27.33 27.33 0 0 1-4.87-.28 7.68 7.68 0 0 1-2.83-.79c-1.22 4.2-1.89 5.66-3.06 9-1.14 3.22-2 6.83-4.44 6.83-1.14 0-2-1.33-2-2.87 0-5.7 6.87-14.73 9.94-19.17a9.45 9.45 0 0 0 .08-1.06c0-.59-.2-1.41-.2-1.77s.31-.86.79-.86c.79 0 .83 1 .83 1.65a2.7 2.7 0 0 1-.12.9 6.32 6.32 0 0 1 3-1.14c1.57 0 3.42.9 3.42 2.79 0 2.36-3.18 5.3-5.62 5.3.9.51 3.89.59 5 .59a.46.46 0 0 1 .51.49zm-8.13-4.56c-2.91 4.48-3.85 5.7-5.38 8.29a57.35 57.35 0 0 0-2.51 5.62 9.51 9.51 0 0 0-.47 2.87c0 1.14.28 1.81.94 1.81 1 0 1.61-1.49 2.4-3.61 1-2.79 1.61-4.32 2.59-7.27.86-2.76 1.8-5.15 2.43-7.75zm1.53 3c1.81 0 5.26-2 5.26-4.56a1.65 1.65 0 0 0-1.85-1.61 5.94 5.94 0 0 0-3.3 1.22c-.43 1.81-.71 3.26-1.22 4.79a3.91 3.91 0 0 0 1.11.1z"/><path class="a" d="M36.1 99.72c0 1.73-3.89 3.5-5.3 4.08l-.24.08c.16 1.37 1.26 1.92 2.51 2.08.2 0 .43.16.43.39a.44.44 0 0 1-.43.43 3.71 3.71 0 0 1-3.65-2.47 39.14 39.14 0 0 1-12.29 2.47.44.44 0 0 1-.43-.43.43.43 0 0 1 .43-.39 26.56 26.56 0 0 0 5-.55c1.49-.27 2.95-.71 4.4-1.1.71-.24 1.57-.39 2.28-.71l.51-.24c.2-2.36 2-5.38 4.63-5.38a2 2 0 0 1 2.15 1.74zm-1.53.2a.74.74 0 0 0-.83-.71c-1.69 0-2.91 2.12-3.14 3.61.9-.43 3.96-1.73 3.96-2.91z"/><path class="a" d="M60.09 83.89c.9 0 1.3.63 1.3 1.45 0 2.55-2.24 6-3.46 8.29a57.31 57.31 0 0 1-3.22 5.69c-.2.31-.35.63-.59.94a6.11 6.11 0 0 0 1.53 4.2 5.42 5.42 0 0 0 3.89 1.49.43.43 0 0 1 .43.39.44.44 0 0 1-.43.43 6 6 0 0 1-6.23-5.33c-1.53 2.08-4.08 5.81-7 5.81a2.37 2.37 0 0 1-2.47-2.47 3.45 3.45 0 0 1 .43-1.53c-3.26 1.41-7.74 3.5-11.23 3.5a.44.44 0 0 1-.43-.43c0-.35.31-.39.59-.39 2.16 0 5.85-1.41 7.89-2.24a37.44 37.44 0 0 0 4.36-2l.39-.35a5.7 5.7 0 0 1 1.85-1 4.06 4.06 0 0 1 1.38-.24 2.91 2.91 0 0 1 2.63 1.89c.51-.67 1-1.34 1.45-2-.44-3.26 3.02-16.1 6.94-16.1zm-9.31 19.25a1.88 1.88 0 0 0-1.89-1.73c-1.61 0-3.81 1.69-3.81 3.38a1.23 1.23 0 0 0 1.34 1.3c1.81-.05 3.27-1.74 4.36-2.96zm7.42-12.06c.63-1.22 1.92-3.38 1.92-4.71 0-.39-.16-.79-.63-.79-1.73 0-3.81 6.36-4.24 7.82a28.28 28.28 0 0 0-1.18 5c1.51-2.34 2.84-4.85 4.14-7.32z"/><path class="a" d="M72.58 106.63a7.47 7.47 0 0 1-1.61.16 3.76 3.76 0 0 1-3.65-2.44c-2.51 1.26-4.95 2.44-7.82 2.44a.44.44 0 0 1-.43-.43.43.43 0 0 1 .43-.39 11.61 11.61 0 0 0 3.46-.59 32.28 32.28 0 0 0 4.24-2 6.23 6.23 0 0 1 3.26-5.07 2.72 2.72 0 0 1 1.37-.31 2 2 0 0 1 2.16 1.73 2 2 0 0 1-.24.82 2.74 2.74 0 0 1-1 .86c-.51.31-1 .55-1.53.82-.9.51-1.81 1.06-2.75 1.53a2.46 2.46 0 0 0 2.55 2.2 5.89 5.89 0 0 0 3.69-1.06 9.49 9.49 0 0 1 .86-.63c.16 0 .2.08.2.24-.01 1.26-2.25 1.93-3.19 2.12zm-4-4a25.58 25.58 0 0 0 3.77-2.36.72.72 0 0 0 .2-.47c0-.47-.51-.63-.9-.63-1.66.04-2.88 2.08-3.12 3.49zm36.32 4.08a.48.48 0 0 1-.39.51c-.27 0-.51-.27-.71-.43a7.83 7.83 0 0 0-1.57-1.3 13.91 13.91 0 0 0-5.07-1.41 4.82 4.82 0 0 0-.75.79c-.08.08-3.06 3-5 3a1.05 1.05 0 0 1-1.18-1.1c.24-2.32 3.22-3.81 5.58-3.81a3.92 3.92 0 0 1 .59 0s.71-.9 2.24-3.22 2.63-4.83 2.63-5.7a2.13 2.13 0 0 0-2.32-2.2 5.72 5.72 0 0 0-3.53 1.81 1.51 1.51 0 0 1-.9.43.51.51 0 0 1-.47-.51 1.65 1.65 0 0 1 .39-.79 6.15 6.15 0 0 1 4.32-2.16 3.58 3.58 0 0 1 3.85 3.42c0 2.87-4.08 8-4.87 9a14.21 14.21 0 0 1 4.32 1 6 6 0 0 1 2.79 2.2c.01.2.05.35.05.47zm-9.27-2.63h-.24c-1.53 0-3.89 1.49-3.89 2.28a.28.28 0 0 0 .31.27 1 1 0 0 0 .5-.19 20.43 20.43 0 0 0 3.32-2.36zm37.68 2.36a.4.4 0 0 1-.43.39 27.33 27.33 0 0 1-4.87-.28 7.68 7.68 0 0 1-2.83-.79c-1.22 4.2-1.89 5.66-3.06 9-1.14 3.22-2 6.83-4.44 6.83-1.14 0-2-1.33-2-2.87 0-5.7 6.87-14.73 9.94-19.17a9.45 9.45 0 0 0 .08-1.06c0-.59-.2-1.41-.2-1.77s.31-.86.79-.86c.79 0 .83 1 .83 1.65a2.7 2.7 0 0 1-.12.9 6.32 6.32 0 0 1 3-1.14c1.57 0 3.42.9 3.42 2.79 0 2.36-3.18 5.3-5.62 5.3.9.51 3.89.59 5 .59a.46.46 0 0 1 .51.49zm-8.13-4.56c-2.91 4.48-3.85 5.7-5.38 8.29a57.35 57.35 0 0 0-2.49 5.57 9.51 9.51 0 0 0-.47 2.87c0 1.14.28 1.81.94 1.81 1 0 1.61-1.49 2.4-3.61 1-2.79 1.61-4.32 2.59-7.27.82-2.71 1.77-5.1 2.39-7.7zm1.53 3c1.81 0 5.26-2 5.26-4.56a1.65 1.65 0 0 0-1.85-1.61 5.94 5.94 0 0 0-3.3 1.22c-.43 1.81-.71 3.26-1.22 4.79a3.91 3.91 0 0 0 1.1.1z"/><path class="a" d="M154.11 105.96a.44.44 0 0 1 .43.43.43.43 0 0 1-.43.39c-2 0-4.24-1-4.24-3.34 0-1.61 1.1-3.26 1.1-4.91 0-1.1-1.18-1.45-2-1.89l-.12.27c-1.88 3.46-6.13 6.4-9.62 8.21a12.46 12.46 0 0 1-6.48 1.65.43.43 0 0 1-.39-.43.42.42 0 0 1 .39-.39 10.89 10.89 0 0 0 3.38-.59c4-1.3 9.94-5.26 11.86-9.27-.9-.47-1.92-1.14-1.92-2.28a1.7 1.7 0 0 1 1.73-1.65 1.94 1.94 0 0 1 1.92 2 4 4 0 0 1-.24 1.37c1.33.59 2.67 1.3 2.67 3s-1.14 3.73-1.14 5.07c.04 1.5 1.8 2.36 3.1 2.36zm-5.69-11a3 3 0 0 0 .12-.82c0-.31-.16-.79-.59-.79a.64.64 0 0 0-.63.59c-.01.5.74.83 1.09 1.06z"/><path class="a" d="M170.31 102.98a15.29 15.29 0 0 0 2.32.12.44.44 0 0 1 .43.43.44.44 0 0 1-.43.43 15.22 15.22 0 0 1-2.55-.16c-.79 2.08-3.1 4-5.22 4a2.63 2.63 0 0 1-2.51-2.91 5.2 5.2 0 0 1 .12-1.1c-2.47 1.69-4.83 3-7.89 3-.35 0-.94.08-.94-.43a.43.43 0 0 1 .43-.39 15.23 15.23 0 0 0 1.88-.16 12.44 12.44 0 0 0 3.34-1.14 12.25 12.25 0 0 0 3-1.85 7 7 0 0 0 .79-.75l.35-.55a9.88 9.88 0 0 1 1.06-1.45c.71-.86 2-2.12 3.18-2.12s1.57 1 1.57 2a2.91 2.91 0 0 1 1.14 2.44 3.32 3.32 0 0 1-.07.59zm-1.41.51a2.72 2.72 0 0 1-2.2-2.55c0-.82.63-1.26 1.53-1.33a.8.8 0 0 0-.67-.43 1.56 1.56 0 0 0-1 .35 8 8 0 0 0-3 5.46 1.61 1.61 0 0 0 1.65 1.73c1.1-.01 3-1.35 3.66-3.28zm.24-.82a2.61 2.61 0 0 0 0-.55c0-.83-.43-1.49-1.1-1.49-.16 0-.24.16-.24.31a1.77 1.77 0 0 0 1.31 1.72z"/><path class="a" d="M186.31 94.61c.67-2.67 3-10.72 6.28-10.72a1.28 1.28 0 0 1 1.3 1.45c0 2.59-2.24 6-3.5 8.29a69.19 69.19 0 0 1-3.81 6.64c.16 2.4.94 4.63 3.5 5.38a6.84 6.84 0 0 0 2 .31.43.43 0 0 1 .43.39.44.44 0 0 1-.43.43c-3.5 0-5.62-2-6.28-5.3-1.53 2.12-4 5.81-7 5.81a2.39 2.39 0 0 1-2.51-2.44 3.54 3.54 0 0 1 .51-1.65 11.86 11.86 0 0 1-4.2.75.44.44 0 0 1-.43-.43.44.44 0 0 1 .43-.43 12.15 12.15 0 0 0 4.67-1.1 3.5 3.5 0 0 0 .67-.31 5.77 5.77 0 0 1 2.67-1.49 3.56 3.56 0 0 1 .9-.12 2.84 2.84 0 0 1 2.63 1.89c.51-.67.94-1.34 1.41-2a22.17 22.17 0 0 1 .76-5.35zm-3.06 8.52a1.83 1.83 0 0 0-1.88-1.73c-1.61 0-3.77 1.65-3.77 3.38a1.22 1.22 0 0 0 1.3 1.3c1.79-.04 3.21-1.73 4.31-2.95zm5.38-8.21c.71-1.26 1.38-2.55 2-3.85s2-3.34 2-4.71c0-.39-.16-.79-.63-.79-1.81 0-3.77 6.32-4.24 7.82a27.49 27.49 0 0 0-1.18 5z"/><path class="a" d="M204.97 106.24c1.92-1.3 2.63-3.22 3.61-5.22.28-.55.79-1.3 1.45-1.3 1.22 0 .86 2.2 1 3a3.79 3.79 0 0 0 3.14 3.14c.31.08 1.06 0 1.06.47a.44.44 0 0 1-.43.43 5.34 5.34 0 0 1-5.38-4.56 6.21 6.21 0 0 1-.71 1.45c-1.14 1.92-2.79 4.12-5.26 4.12-2 0-3-1.73-3-3.57a6.61 6.61 0 0 1 .24-1.77 14.35 14.35 0 0 1-4.32 3.34 9.49 9.49 0 0 1-4.4 1 .4.4 0 0 1-.39-.43.42.42 0 0 1 .39-.39 8.06 8.06 0 0 0 3.93-.94 14.48 14.48 0 0 0 4.36-3.81c.35-.55 1.22-2 2-2a.83.83 0 0 1 .79.86c0 1.06-1.45 2.55-1.45 4.48a1.94 1.94 0 0 0 2 2.12 2.38 2.38 0 0 0 1.37-.42z"/><path class="a" d="M228.8 96.14c0 1-2.75 1-3.42 1.06a1.61 1.61 0 0 1-.16.39 14.42 14.42 0 0 0-1.3 5.07 3 3 0 0 0 .94 2.44 3.85 3.85 0 0 0 2.16.82c.2 0 .43.16.43.39a.44.44 0 0 1-.43.43 3.83 3.83 0 0 1-4-4 12.92 12.92 0 0 1 .31-2.47c-1.41 2.47-5.62 6.44-8.64 6.44a.44.44 0 0 1-.43-.43c0-.24.24-.35.43-.39a8.59 8.59 0 0 0 4-2 17.42 17.42 0 0 0 5.07-6.72c-.63 0-1.22.08-1.85.08-.35 0-1.22-.12-1.22-.63 0-.79 2.91-.71 3.57-.71.2-.51.86-2.55 1.53-2.55.51 0 .59.86.59 1.22a5.57 5.57 0 0 1-.43 1.3 14.22 14.22 0 0 1 2.24 0c.12.11.61-.01.61.26z"/><path class="a" d="M243.31 102.98a15.29 15.29 0 0 0 2.32.12.44.44 0 0 1 .43.43.44.44 0 0 1-.43.43 15.22 15.22 0 0 1-2.55-.16c-.79 2.08-3.1 4-5.22 4a2.63 2.63 0 0 1-2.51-2.91 5.2 5.2 0 0 1 .12-1.1c-2.47 1.69-4.83 3-7.89 3-.35 0-.94.08-.94-.43a.43.43 0 0 1 .43-.39 15.23 15.23 0 0 0 1.88-.16 12.44 12.44 0 0 0 3.34-1.14 12.25 12.25 0 0 0 3-1.85 7 7 0 0 0 .79-.75l.35-.55a9.88 9.88 0 0 1 1.06-1.45c.71-.86 2-2.12 3.18-2.12s1.57 1 1.57 2a2.91 2.91 0 0 1 1.14 2.44 3.32 3.32 0 0 1-.07.59zm-1.41.51a2.72 2.72 0 0 1-2.2-2.55c0-.82.63-1.26 1.53-1.33a.8.8 0 0 0-.67-.43 1.56 1.56 0 0 0-1 .35 8 8 0 0 0-3 5.46 1.61 1.61 0 0 0 1.65 1.73c1.1-.01 3-1.35 3.67-3.28zm.24-.82a2.61 2.61 0 0 0 0-.55c0-.83-.43-1.49-1.1-1.49-.16 0-.24.16-.24.31a1.77 1.77 0 0 0 1.32 1.72z"/><path class="a" d="M260.18 101.44a3.5 3.5 0 0 1 1.41 2.67c0 4.08-5.34 5.22-8.52 5.22-.31 0-1.1-.16-1.1-.59s.63-.51.94-.51a13.56 13.56 0 0 0 3.34-.31 5.24 5.24 0 0 0 3.5-2.08 2.86 2.86 0 0 0 .51-1.69c0-2.08-3.85-4.28-5.22-5.73-2.67 2.47-5.54 5.58-9.47 5.58a.44.44 0 0 1-.43-.43.44.44 0 0 1 .43-.43 5.59 5.59 0 0 0 1.81-.27c2.59-.9 5.11-3.34 7.07-5.22a2.83 2.83 0 0 1-.31-1.26c0-1.45 1.45-3.53 3-3.53a1.19 1.19 0 0 1 1.22 1.26c0 1.3-1.53 2.79-2.51 3.53h-.08c1.39 1.32 2.96 2.5 4.41 3.79zm-4.87-5v.39c.47-.43 1.89-1.77 1.89-2.44a.31.31 0 0 0-.35-.35c-.75-.06-1.54 1.67-1.54 2.34zM17.6 145.67a.4.4 0 0 1-.43.39 27.33 27.33 0 0 1-4.87-.28 7.68 7.68 0 0 1-2.83-.79c-1.22 4.2-1.89 5.66-3.06 9-1.14 3.22-2 6.83-4.44 6.83-1.14 0-2-1.33-2-2.87 0-5.7 6.87-14.73 9.94-19.17a9.45 9.45 0 0 0 .08-1.06c0-.59-.2-1.41-.2-1.77s.31-.86.79-.86c.79 0 .83 1 .83 1.65a2.7 2.7 0 0 1-.12.9 6.32 6.32 0 0 1 3-1.14c1.57 0 3.42.9 3.42 2.79 0 2.36-3.18 5.3-5.62 5.3.9.51 3.89.59 5 .59a.46.46 0 0 1 .51.49zm-8.13-4.56c-2.91 4.48-3.85 5.7-5.38 8.29a57.35 57.35 0 0 0-2.51 5.62 9.51 9.51 0 0 0-.47 2.87c0 1.14.28 1.81.94 1.81 1 0 1.61-1.49 2.4-3.61 1-2.79 1.61-4.32 2.59-7.27.86-2.72 1.8-5.16 2.43-7.71zm1.53 3c1.81 0 5.26-2 5.26-4.56a1.65 1.65 0 0 0-1.85-1.61 5.94 5.94 0 0 0-3.3 1.22c-.43 1.81-.71 3.26-1.22 4.79a3.91 3.91 0 0 0 1.11.15z"/><path class="a" d="M36.73 142.25a15.29 15.29 0 0 0 2.32.12.44.44 0 0 1 .43.43.44.44 0 0 1-.43.43 15.22 15.22 0 0 1-2.55-.16c-.79 2.08-3.1 4-5.22 4a2.63 2.63 0 0 1-2.51-2.91 5.34 5.34 0 0 1 .35-1.89c-3.5 1.53-8.21 3.81-11.94 3.81a.4.4 0 0 1-.39-.43.42.42 0 0 1 .39-.39 12.46 12.46 0 0 0 3.38-.59 45.69 45.69 0 0 0 9.19-3.77 15.53 15.53 0 0 1 1.14-1.53c.71-.86 2-2.12 3.18-2.12s1.57 1 1.57 2a2.91 2.91 0 0 1 1.14 2.44 3.4 3.4 0 0 1-.05.56zm-1.41.51a2.72 2.72 0 0 1-2.2-2.55c0-.82.63-1.26 1.53-1.33a.8.8 0 0 0-.67-.43 1.56 1.56 0 0 0-1 .35 8 8 0 0 0-3 5.46 1.61 1.61 0 0 0 1.65 1.73c1.13-.01 3.01-1.34 3.68-3.23zm.24-.82v-.55c0-.83-.43-1.49-1.1-1.49-.16 0-.24.16-.24.31a1.77 1.77 0 0 0 1.33 1.73z"/><path class="a" d="M60.05 139.85c0 .16-.16.2-.27.2a6.86 6.86 0 0 1-1.3-.2 9.3 9.3 0 0 0-1.49-.08c-4.2 0-7 2.4-9.35 5.66-.31.39-.9 1.22-1.45 1.22-1.45 0-1-4.48-1.14-5.42 0-.2-.12-.43-.35-.43a.88.88 0 0 0-.59.31 9 9 0 0 1-2.51 1.65 7.38 7.38 0 0 1-2.59.47.44.44 0 0 1-.43-.43.44.44 0 0 1 .43-.43 6.63 6.63 0 0 0 2-.31 7.42 7.42 0 0 0 2.67-1.85 2.21 2.21 0 0 1 1.41-.82c1.18 0 1.14 1.85 1.14 2.63v2.55c0 .16 0 .55.28.55s1-1.1 1.14-1.22a19.42 19.42 0 0 1 2.16-2.24 12 12 0 0 1 7.62-2.79c.62 0 2.62.04 2.62.98zm32.05.71c1.1 1.69.51 4.4 3.1 4.67.24 0 .39.16.39.39a.4.4 0 0 1-.39.43c-4 0-3.18-4.67-4.52-4.67-.35 0-.63.35-.83.63a26.74 26.74 0 0 1-2.87 3.65 1.67 1.67 0 0 1-1.06.39 1.38 1.38 0 0 1-1.26-.94c-.43-1.18-.71-2.4-1.22-3.53-.12-.27-.27-.71-.63-.71-1.1 0-3.34 5.3-5.18 5.3-.83 0-1.14-.75-1.14-1.45 0-1.3.67-2.71.67-3.89 0-.51-.12-1.1-.71-1.1-1.1 0-2.47 1.41-3.22 1.41a.42.42 0 0 1-.39-.35c0-.82 2.75-2.2 3.65-2.2a1.85 1.85 0 0 1 1.85 2c0 1.26-.79 2.63-.79 3.85 0 .2 0 .47.24.47.83 0 3.57-5.54 5.34-5.54 2 0 1.77 5.11 3 5.11 1.06 0 2.83-4.67 4.67-4.67a1.5 1.5 0 0 1 1.3.75z"/><path class="a" d="M109.57 138.99a2 2 0 0 1-.24.82 3 3 0 0 1-1 .86c-.51.31-1.06.55-1.57.82-.94.51-1.81 1.06-2.75 1.53.16 1.49 1.14 2 2.51 2.2.2 0 .43.16.43.39a.44.44 0 0 1-.43.43 3.8 3.8 0 0 1-3.65-2.44c-2.47 1.22-4.95 2.44-7.78 2.44a.44.44 0 0 1-.47-.43.43.43 0 0 1 .43-.39 11.39 11.39 0 0 0 3.46-.59 35.35 35.35 0 0 0 4.28-2c0-2.32 2.12-5.38 4.63-5.38a1.94 1.94 0 0 1 2.15 1.74zm1.06-4.28c0 .16-.08.2-.24.2a8.76 8.76 0 0 1-2.47-1.22 6.75 6.75 0 0 0-.82-.47 3.92 3.92 0 0 0-1.1.55 7.85 7.85 0 0 1-2.2 1.1c-.27 0-.27-.16-.27-.16 0-.39 2-1.77 3.06-2.4a.83.83 0 0 1 .43-.16h.08a22.28 22.28 0 0 1 3.3 2.16c.2.13.23.28.23.4zm-2.75 4.87a.65.65 0 0 0 .2-.47c0-.47-.47-.63-.86-.63-1.69 0-2.79 2-3.1 3.46a25.58 25.58 0 0 0 3.77-2.36z"/><path class="a" d="M129.09 140.68a3.35 3.35 0 0 1 1.45 2.75c0 2.63-2.67 4.2-5 4.75a15.24 15.24 0 0 1-3.54.39c-.31 0-1.1-.16-1.1-.59s.63-.51.94-.51a13.75 13.75 0 0 0 3.34-.31 5.23 5.23 0 0 0 3.5-2.08 2.86 2.86 0 0 0 .51-1.69c0-2.12-3.93-4.24-5.26-5.77a38.37 38.37 0 0 1-6.79 5.26 22.07 22.07 0 0 1-10.6 3.14.43.43 0 0 1-.43-.39.44.44 0 0 1 .43-.43 13.13 13.13 0 0 0 3.5-.43 40 40 0 0 0 4.71-1.77 32.07 32.07 0 0 0 7-4.63l1.65-1.57a2.68 2.68 0 0 1-.31-1.22c0-1.45 1.45-3.53 3-3.53a1.19 1.19 0 0 1 1.22 1.26c0 1.34-1.53 2.79-2.51 3.53h-.08c1.39 1.4 2.92 2.6 4.37 3.84zm-4.83-5.07v.43c.47-.43 1.88-1.77 1.88-2.47a.32.32 0 0 0-.35-.31c-.78 0-1.48 1.68-1.48 2.35zm9.94 13.55c-.12-.08-.2-.12-.2-.31 0-.51.47-1.06.67-1.57.16-.82-.08-2.44.86-2.44a.69.69 0 0 1 .79.79 5.62 5.62 0 0 1-1.49 3.18 1 1 0 0 1-.63.35zm2.2-12.69a1 1 0 0 1 1.06.9 1 1 0 0 1-.9.94 1.18 1.18 0 0 1-1.22-1.06.84.84 0 0 1 .28-.59 1.55 1.55 0 0 1 .78-.22z"/></svg>