<svg id="Camada_1" data-name="Camada 1" xmlns="http://www.w3.org/2000/svg" viewBox="0 0 512 512"><defs><style>.cls-1{fill:#f58230;}</style></defs><title>Pó</title><path class="cls-1" d="M512,347.47c0-.13,0-.27,0-.4s0,0,0-.06,0-.31,0-.46c-.46-50.29-67.34-89.6-152.67-89.6-85.6,0-152.66,39.58-152.66,90.12,0,.11,0,.21,0,.32a11.9,11.9,0,0,0-.11,1.39c-2.36,38.62,7.59,70.32,29.59,94.23,25.93,28.22,67.17,43.18,122.58,44.48,2,0,4.06.06,6.12.06,63.68,0,138-23.75,146.48-131.7a56.61,56.61,0,0,0,.68-8.13C512,347.63,512,347.55,512,347.47ZM359.31,276.81c71.61,0,132.16,31.82,132.83,69.63-.15,1.27-.29,3-.44,5.27,0,.6-.09,1.18-.13,1.77-6.36,35.22-64.33,63.85-132.25,63.85-72,0-132.82-32.18-132.82-70.27S287.33,276.81,359.31,276.81Zm-.13,190.81c-49.81-1.16-86.29-14-108.44-38a89.11,89.11,0,0,1-19-32.34c27.08,24.25,73.63,40,127.54,40,50,0,93.69-13.51,121.37-34.82C462,447.27,421,469.31,359.18,467.62Z"/><path class="cls-1" d="M418.27,229.76A83.66,83.66,0,0,0,432.6,231c12.64,0,29.91-3,36.83-17.87a20.49,20.49,0,0,0,.17-17.32c-6.74-15.38-31.29-23.91-36.11-25.46l-245-79.65L64.45,25.59a9.91,9.91,0,0,0-7.37-.75c-1.64.49-40.54,12.33-53.49,66.72-12.77,53.67,12.53,84.26,13.61,85.55a9.94,9.94,0,0,0,7.52,3.5l140.61.67Zm33.13-25c-3.44,7.45-21.76,6.85-29.48,5.48L178.52,163.6l6.57-25.51,6.57-25.51,235.71,76.65C437.31,192.44,449.35,199.05,451.4,204.77ZM22.92,96.17c8.19-34.44,28.31-47.1,36.35-50.88L173.09,105l-14.52,56.38L30,160.78C25,152.67,14.73,130.58,22.92,96.17Z"/></svg>