<svg xmlns="http://www.w3.org/2000/svg" viewBox="0 0 262.61 147.81"><defs><style>.a{fill:#dd6428}</style></defs><title>p12_s3</title><path class="a" d="M24.49 29.42c1.77 0 2.28.71 2.28 2.08 0 1.22-.63 2-2.28 2H9.29c-1.81 0-2.08-.9-2.08-1.85a3.34 3.34 0 0 1 .82-2.2 70.86 70.86 0 0 1 7.23-7.23c2.87-2.63 6-5.66 6-10.09 0-2.87-1.85-4.87-4.48-4.87a6 6 0 0 0-4.87 2.2c-1.06 1.26-1.65 1.81-2.44 1.81s-1.33-.35-1.33-1.14a2.41 2.41 0 0 1 .59-1.49c1.41-1.85 4.32-3.26 8.25-3.26 6 0 9.9 2.51 9.9 7 0 3.77-2.47 6.17-5.7 8.76-2.36 1.92-8.64 6.56-10.29 8.13v.16zm6.65 2.08c0-1.49 1.33-2.47 3.22-2.47s3.18 1 3.18 2.47-1.3 2.51-3.18 2.51-3.22-.98-3.22-2.51zM77.72 0c.72 0 .9.18.9.42s-.18.78-2 1.26c-1.14.3-5.1 1-5.1 1l-6.07.78c-.42 1.44-.54 2.16-3.48 14.05 1.92 0 8.89-1 8.89-.72.78 0 1.68-.06 2.52-.06 1.86 0 2.7.24 2.7.9 0 1-3.9.9-8.41 1.38-1.74.18-5.23.72-6.25.72-1.86 7.81-3.54 15.74-4.87 15.74a.89.89 0 0 1-.72-1 25.15 25.15 0 0 1 .84-3.42l2.7-11.23c-.48 0-.9-.12-.9-.6s.36-.9 1.38-1.26l2.1-8.77c.48-2.1 1-4.26 1.38-5.65-.9-.12-1.26-.48-1.26-.9s.18-1.08 2.28-1.32C70.35.66 76.66.06 77.14 0zm14.47 33.64c-5.34 0-6.19-5.29-7.51-5.29-1.5 0-3.24 6.49-8.41 6.49a3.08 3.08 0 0 1-3.36-3.3c0-3.6 4.92-8.47 8.59-8.47a4 4 0 0 1 3.66 1.92c1.74-.18 1.86 1.62 2.22 2.82a10 10 0 0 0 .72 1.86 4.71 4.71 0 0 0 4.08 2.7.65.65 0 0 1 .66.6.67.67 0 0 1-.65.67zM76.7 33.1c1.68 0 3.54-2.34 4.44-3.6.66-1 1.2-2.1 1.92-3.06-.48-.78-1-1.5-2-1.5-2.46 0-6.07 4-6.07 6.43a1.59 1.59 0 0 0 1.71 1.73z"/><path class="a" d="M119.33 46.49a30.82 30.82 0 0 1-.9 7.45c-1.08 4.26-4.38 6.91-8 6.91a4.56 4.56 0 0 1-4.62-4.74c0-6.67 5.89-11.41 10.75-14.89a9.36 9.36 0 0 0-3.36-5.35c-1.38 1.14-3.18 3.06-5.11 3.06a1.56 1.56 0 0 1-1.74-1.56c0-2.22 2.64-3.66 4.63-3.66a6.29 6.29 0 0 1 1.8.3c1.8-1.68 5-5.65 5-8.17 0-2.16-2.28-3.12-4.14-3.12-6.07 0-10.51 6.85-15.62 9.49a11.63 11.63 0 0 1-6.07 1.44.62.62 0 0 1-.6-.66.65.65 0 0 1 .6-.6 10.3 10.3 0 0 0 5.35-1.38 45.42 45.42 0 0 0 7.45-5.71 28.22 28.22 0 0 1 3.06-2.4 11.46 11.46 0 0 1 6.18-2.2c2.88 0 6.07 1.32 6.07 4.62 0 3.54-3.24 7.21-5.71 9.43.18.06.24.18.42.3a11.07 11.07 0 0 1 3.48 4.92c5.46-4 11.11-6.43 17.24-9a9.57 9.57 0 0 1 3.06-1c.36 0 1 .18 1 .6a.65.65 0 0 1-.12.36 2.12 2.12 0 0 1-1.56.9 35.44 35.44 0 0 0-5.46 2.1 108.26 108.26 0 0 0-10.39 5.65c-1 .6-2.22 1.62-3.12 2.28a19.27 19.27 0 0 1 .43 4.63zm-4.74 10.93c2.46-2.52 2.76-6.43 2.76-10.51a18.48 18.48 0 0 0-.3-3.66c-4.26 2.82-9.31 6.91-9.31 12.73a2.87 2.87 0 0 0 3 3.12 6.13 6.13 0 0 0 3.85-1.68zm-3.1-22.16a1.67 1.67 0 0 0-.54-.06c-.78 0-2.76.72-2.76 1.74a.34.34 0 0 0 .36.3c.88 0 2.44-1.38 2.94-1.98zM26.9 87.75a.62.62 0 0 1-.66.6 41.84 41.84 0 0 1-7.45-.42 11.74 11.74 0 0 1-4.3-1.23c-1.86 6.43-2.88 8.65-4.69 13.81-1.74 4.92-3.12 10.45-6.79 10.45-1.74 0-3-2-3-4.38 0-8.71 10.51-22.52 15.2-29.31a14.84 14.84 0 0 0 .12-1.62c0-.9-.3-2.16-.3-2.7s.48-1.32 1.2-1.32c1.2 0 1.26 1.5 1.26 2.52a4.15 4.15 0 0 1-.18 1.38c1.56-.78 2.7-1.74 4.63-1.74 2.4 0 5.22 1.38 5.22 4.26 0 3.6-4.87 8.11-8.59 8.11 1.38.78 5.95.9 7.69.9a.71.71 0 0 1 .64.69zm-12.43-7c-4.45 6.85-5.89 8.71-8.23 12.67a88.07 88.07 0 0 0-3.84 8.59 14.54 14.54 0 0 0-.72 4.38c0 1.74.42 2.76 1.44 2.76 1.56 0 2.46-2.28 3.66-5.53 1.56-4.26 2.46-6.61 4-11.11 1.29-4.1 2.71-7.81 3.71-11.72zm2.34 4.56c2.76 0 8-3.06 8-7 0-1.68-1.38-2.46-2.82-2.46a9.09 9.09 0 0 0-5 1.86c-.66 2.76-1.08 5-1.86 7.33a6 6 0 0 0 1.68.31z"/><path class="a" d="M55.19 77.54c0 2.64-5.95 5.35-8.11 6.25l-.36.12c.24 2.1 1.92 2.94 3.84 3.18.3.06.66.24.66.6a.67.67 0 0 1-.66.66c-2.34 0-5-1.38-5.58-3.78-5.65 2-12.85 3.78-18.8 3.78a.67.67 0 0 1-.69-.65.65.65 0 0 1 .66-.6 40.62 40.62 0 0 0 7.63-.84c2.28-.42 4.5-1.08 6.73-1.68 1.08-.36 2.4-.6 3.48-1.08l.78-.36c.3-3.6 3.06-8.23 7.09-8.23 1.63-.01 3.33.89 3.33 2.63zm-2.34.3a1.13 1.13 0 0 0-1.26-1.08c-2.58 0-4.44 3.24-4.8 5.53 1.37-.66 6.06-2.65 6.06-4.45z"/><path class="a" d="M91.88 53.34c1.38 0 2 1 2 2.22 0 3.9-3.42 9.25-5.29 12.67a87.85 87.85 0 0 1-4.92 8.71c-.3.48-.54 1-.9 1.44.18 2.46.54 4.56 2.34 6.43a8.29 8.29 0 0 0 5.95 2.28.65.65 0 0 1 .66.6.67.67 0 0 1-.66.66c-5.11 0-8.77-3.06-9.55-8.11-2.34 3.18-6.25 8.89-10.69 8.89a3.63 3.63 0 0 1-3.78-3.78 5.29 5.29 0 0 1 .66-2.34c-5 2.16-11.83 5.35-17.18 5.35a.67.67 0 0 1-.66-.66c0-.54.48-.6.9-.6 3.3-.06 8.95-2.16 12.07-3.42a57.27 57.27 0 0 0 6.67-3.12l.6-.54a8.71 8.71 0 0 1 2.82-1.56 6.19 6.19 0 0 1 2.1-.36c1.56 0 3.72 1.32 4 2.88.78-1 1.5-2 2.22-3.06-.65-4.94 4.64-24.58 10.64-24.58zM77.65 82.77l.06-.06a2.88 2.88 0 0 0-2.88-2.64c-2.46 0-5.83 2.58-5.83 5.17a1.88 1.88 0 0 0 2 2c2.74-.03 4.97-2.61 6.65-4.47zM89 64.33c1-1.86 2.94-5.17 2.94-7.21 0-.6-.24-1.2-1-1.2-2.64 0-5.83 9.73-6.49 12a43.25 43.25 0 0 0-1.8 7.69c2.33-3.65 4.37-7.5 6.35-11.28z"/><path class="a" d="M106.83 77.24a2.08 2.08 0 0 1 .42 1.56c0 2.28.54 5.23 2.1 7 1 1.14 1.56 1.14 3 1.32.3.06.66.24.66.6a.67.67 0 0 1-.66.66c-4.32 0-6.49-4.44-6.73-8.23a21.44 21.44 0 0 1-7.93 6.73 14.51 14.51 0 0 1-6.73 1.5.67.67 0 0 1-.66-.66.65.65 0 0 1 .66-.6 12.09 12.09 0 0 0 5.95-1.44 18.49 18.49 0 0 0 6.37-5.83c.54-.78 1.62-2.94 2.7-2.94a1.09 1.09 0 0 1 .85.33zm-1.14-9.37c0-.6.54-.84 1.08-.84 1 0 1.44 1.26 1.44 2.1 0 .48-.24.9-.72.9-.84 0-1.8-1.33-1.8-2.16z"/><path class="a" d="M134.22 69.7c1-4.08 4.5-16.4 9.61-16.4a2 2 0 0 1 2 2.22c0 4-3.48 9.19-5.34 12.67a94.46 94.46 0 0 1-5.83 10.15c.06.72.12 1.56.24 2.28a7.45 7.45 0 0 0 5 5.95 10.85 10.85 0 0 0 3.06.48.65.65 0 0 1 .66.6.67.67 0 0 1-.66.66 9.38 9.38 0 0 1-8.47-4.61 13.36 13.36 0 0 1-1.08-3.42c-2.34 3.24-6.25 8.89-10.69 8.89a3.64 3.64 0 0 1-3.78-3.54c-2.28 1.74-3.72 2.76-6.67 2.76a.6.6 0 0 1-.66-.66.57.57 0 0 1 .6-.6c2.88 0 5.23-2.16 7.33-3.9 1.26-2.7 4.32-5.1 7.45-5.1a4.49 4.49 0 0 1 4 2.88c.78-1 1.44-2 2.16-3.06a33.84 33.84 0 0 1 1.07-8.25zm-4.69 13l.06-.06a2.88 2.88 0 0 0-2.88-2.64c-2.52 0-5.77 2.58-5.77 5.23a1.81 1.81 0 0 0 2 1.92c2.75.06 4.91-2.52 6.55-4.38zm8.23-12.55c1.14-1.92 2.1-3.9 3.12-5.89s3-5.17 3-7.21c0-.66-.24-1.2-1-1.2-2.76 0-5.83 9.67-6.49 12a37.67 37.67 0 0 0-1.8 7.69z"/><path class="a" d="M172.77 83.7c0 1.2-2.28 1.08-3.06 1.08a6.49 6.49 0 0 1-2.4-.36 9 9 0 0 1-7.93 5.53c-2.52 0-3.78-2.34-3.78-4.62a7 7 0 0 1 .18-1.56c-3.84 2.64-7.39 4.62-12.13 4.62-.54 0-1.38.12-1.38-.66a.65.65 0 0 1 .66-.6 23.33 23.33 0 0 0 2.88-.24 23.2 23.2 0 0 0 9.68-4.6l1.26-1.14c1.14-2.28 4.14-6.13 6.91-6.13 1.68 0 2.4 1.74 2.4 3.24a4.45 4.45 0 0 1 1.74 3.72 7.42 7.42 0 0 1-.12 1.14 8.49 8.49 0 0 0 2.76.3c.29.01 2.33-.23 2.33.28zm-7 0c-1.26-.66-3.6-2.4-3.6-4 0-1.26 1.2-1.86 2.28-1.92a1 1 0 0 0-.9-.66 3.18 3.18 0 0 0-1.38.48c-2.46 1.32-4.68 5.23-4.68 8a2.26 2.26 0 0 0 2.4 2.46 6.45 6.45 0 0 0 5.92-4.36zm.24-1.62c0-.84-.72-2.7-1.74-2.7-.24 0-.42.3-.42.54 0 1 1.56 1.74 2.16 2.34zM26.12 126.79c0 1.5-4.2 1.56-5.22 1.62v.06a2.53 2.53 0 0 1-.24.6 23.09 23.09 0 0 0-2 7.69 4.9 4.9 0 0 0 1.44 3.9 5.37 5.37 0 0 0 3.12 1.14c.3.06.66.24.66.6a.67.67 0 0 1-.66.66c-3.66 0-5.95-2.22-5.95-5.95a21.8 21.8 0 0 1 .54-3.9 21.05 21.05 0 0 1-2.22 2.94c-2 2.1-6.85 6.79-9.85 6.79-.48 0-1.56-.18-1.56-.78s1.5-.6 1.86-.72a13.38 13.38 0 0 0 4.56-2.64 26.64 26.64 0 0 0 7.75-10.27c-.9.06-1.86.12-2.76.12-.6 0-1.92-.18-1.92-1 0-1.2 4.5-1.08 5.46-1.08.36-.78 1.32-3.9 2.34-3.9.72 0 .9 1.2.9 1.68a6.94 6.94 0 0 1-.66 2.16 21.71 21.71 0 0 1 3.42 0c.27.04.99-.14.99.28z"/><path class="a" d="M48.1 137.24a23.35 23.35 0 0 0 3.54.18.67.67 0 0 1 .66.66.67.67 0 0 1-.66.66 23.26 23.26 0 0 1-3.9-.24c-1.2 3.18-4.74 6.07-8 6.07-2.52 0-3.84-2.16-3.84-4.44a7.94 7.94 0 0 1 .18-1.68c-3.78 2.58-7.39 4.62-12.07 4.62-.54 0-1.44.12-1.44-.66a.65.65 0 0 1 .66-.6 23.33 23.33 0 0 0 2.88-.24 19 19 0 0 0 5.11-1.74 18.73 18.73 0 0 0 4.56-2.82 10.83 10.83 0 0 0 1.2-1.14l.54-.84a15.06 15.06 0 0 1 1.62-2.22c1.08-1.32 3.06-3.24 4.87-3.24s2.4 1.5 2.4 3a4.45 4.45 0 0 1 1.74 3.72 5.21 5.21 0 0 1-.05.95zm-2.16.78c-1.8-.6-3.36-1.74-3.36-3.9 0-1.26 1-1.92 2.34-2a1.22 1.22 0 0 0-1-.66 2.39 2.39 0 0 0-1.5.54c-2.28 1.62-4.56 5.53-4.56 8.35a2.46 2.46 0 0 0 2.52 2.64c1.66-.04 4.54-2.08 5.56-4.97zm.36-1.26a3.93 3.93 0 0 0 .06-.84c0-1.26-.66-2.28-1.68-2.28-.24 0-.36.24-.36.48a2.7 2.7 0 0 0 1.98 2.64z"/><path class="a" d="M72.54 124.45c1-4.08 4.56-16.4 9.61-16.4a2 2 0 0 1 2 2.22c0 4-3.42 9.25-5.34 12.67s-3.54 7-5.83 10.15c.24 3.66 1.44 7.09 5.34 8.23a10.45 10.45 0 0 0 3 .48.65.65 0 0 1 .66.6.67.67 0 0 1-.66.66c-5.35 0-8.59-3-9.61-8.11-2.34 3.24-6.19 8.89-10.63 8.89a3.66 3.66 0 0 1-3.84-3.72 5.4 5.4 0 0 1 .78-2.52 18.13 18.13 0 0 1-6.43 1.14.67.67 0 0 1-.66-.66.67.67 0 0 1 .66-.66 18.58 18.58 0 0 0 7.15-1.68 5.31 5.31 0 0 0 1-.48c1.92-1.44 1.62-1.5 4.08-2.28l.06-.06v.06a5.46 5.46 0 0 1 1.38-.18 4.34 4.34 0 0 1 4 2.88c.78-1 1.44-2 2.16-3.06a33.84 33.84 0 0 1 1.12-8.17zm-4.68 13l.06-.06a2.8 2.8 0 0 0-2.88-2.64c-2.46 0-5.77 2.52-5.77 5.17a1.86 1.86 0 0 0 2 2c2.74.01 4.91-2.58 6.59-4.44zm8.23-12.55c1.08-1.92 2.1-3.9 3.12-5.89s3-5.1 3-7.21c0-.6-.24-1.2-1-1.2-2.76 0-5.77 9.67-6.49 12a42.06 42.06 0 0 0-1.8 7.69z"/><path class="a" d="M111.1 138.38c0 1.2-2.28 1.08-3.06 1.08a6.49 6.49 0 0 1-2.4-.36 9 9 0 0 1-7.93 5.53c-2.52 0-3.78-2.34-3.78-4.62a7 7 0 0 1 .18-1.56c-3.84 2.64-7.39 4.62-12.13 4.62-.54 0-1.38.12-1.38-.66a.65.65 0 0 1 .66-.6 23.33 23.33 0 0 0 2.88-.24 23.2 23.2 0 0 0 9.67-4.56l1.26-1.14c1.14-2.28 4.14-6.13 6.91-6.13 1.68 0 2.4 1.74 2.4 3.24a4.45 4.45 0 0 1 1.73 3.72 7.42 7.42 0 0 1-.12 1.14 8.49 8.49 0 0 0 2.76.3c.31 0 2.35-.24 2.35.24zm-7 0c-1.26-.66-3.6-2.4-3.6-4 0-1.26 1.2-1.86 2.28-1.92a1 1 0 0 0-.9-.66 3.18 3.18 0 0 0-1.38.48c-2.46 1.32-4.68 5.23-4.68 8a2.26 2.26 0 0 0 2.4 2.46 6.45 6.45 0 0 0 5.91-4.36zm.24-1.62c0-.84-.72-2.7-1.74-2.7-.24 0-.42.3-.42.54 0 1 1.56 1.74 2.16 2.34zm37.15-4.98c0 .24-.18.3-.36.3-.66 0-1-.9-2.28-.9-2.64 0-4.86 4.56-4.86 6.85s1.62 3.54 3.78 3.78c.36.06.6.18.6.6a.62.62 0 0 1-.6.66c-2.82 0-5.77-2-5.77-5s2.82-8.23 6.25-8.23c1.01-.04 3.24.74 3.24 1.94z"/><path class="a" d="M163.58 132.02a11.82 11.82 0 0 1 .3 2.16c.24 2.22.54 4.56 2.1 6.31a3.73 3.73 0 0 0 1.32 1c.6.24 2.34.12 2.34.9a.67.67 0 0 1-.66.66 6.21 6.21 0 0 1-4.75-2.46 14.28 14.28 0 0 1-2.58-6.85c-6.13 4.2-16.58 9.31-24 9.31a.67.67 0 0 1-.66-.66c0-.54.54-.6.9-.6 4-.12 8.47-1.92 12.13-3.42a41.8 41.8 0 0 0 6.07-3.18c.84-.54 1.62-1.08 2.4-1.68s2.46-2.28 3.66-2.28a1.59 1.59 0 0 1 1.43.79zm-1.26-9.43c0-.6.54-.84 1.08-.84 1 0 1.44 1.26 1.44 2.1 0 .48-.18.9-.72.9-.84 0-1.8-1.38-1.8-2.16z"/><path class="a" d="M168.87 141.81a17.43 17.43 0 0 0 5.29-.9 34.81 34.81 0 0 0 8.71-5.29 5 5 0 0 0 1-.9c.18-.24.3-.66.48-1a9.91 9.91 0 0 1 2.34-2.88 4.64 4.64 0 0 1 2.7-1.08c1 0 3.18.84 3.18 1.92a.32.32 0 0 1-.36.36c-.72 0-1-.9-2.22-.9-2.7 0-4.87 4.56-4.87 6.91s1.5 3.48 3.72 3.72c.36.06.66.24.66.66a.62.62 0 0 1-.66.6c-2.52 0-5.17-1.5-5.65-4.08 0-.18-.12-.42-.12-.6a8.11 8.11 0 0 1 .06-1.2c-4.2 3.3-8.83 5.89-14.29 5.89a.62.62 0 0 1-.66-.6.67.67 0 0 1 .69-.63z"/><path class="a" d="M216.85 115.02c1-1.26 2.94-3.12 4.68-3.12s2.64 2.16 2.64 3.66c0 2.88-2.1 7.15-3.72 9.49a35.67 35.67 0 0 1-5.65 6.37 9.2 9.2 0 0 1-1.14 1c.84 4.08 3.84 9.37 8.59 9.37a.65.65 0 0 1 .6.6.62.62 0 0 1-.6.66c-5.47 0-8.95-4.38-10.09-9.31-5.89 4.44-16 9.31-23.36 9.31a.67.67 0 0 1-.66-.66.65.65 0 0 1 .66-.6 19 19 0 0 0 5.16-.84c6-1.68 13-4.74 17.84-8.71-.06-.9-.24-1.8-.24-2.76a25.4 25.4 0 0 1 5.29-14.46zm2.46 9.13c1.26-2 3.24-5.65 3.24-8 0-1.08-.48-1.92-1.62-1.92-1.62 0-3.48 2.7-4.2 4a23.55 23.55 0 0 0-3.36 11.29 10.72 10.72 0 0 0 .06 1.38 30 30 0 0 0 5.88-6.75z"/><path class="a" d="M252.04 138.38c0 1.2-2.28 1.08-3.06 1.08a6.49 6.49 0 0 1-2.4-.36 9 9 0 0 1-7.93 5.53c-2.52 0-3.78-2.34-3.78-4.62a7 7 0 0 1 .18-1.56c-3.84 2.64-7.39 4.62-12.13 4.62-.54 0-1.38.12-1.38-.66a.65.65 0 0 1 .66-.6 23.33 23.33 0 0 0 2.88-.24 23.2 23.2 0 0 0 9.67-4.56l1.26-1.14c1.14-2.28 4.14-6.13 6.91-6.13 1.68 0 2.4 1.74 2.4 3.24a4.45 4.45 0 0 1 1.74 3.72 7.42 7.42 0 0 1-.12 1.14 8.49 8.49 0 0 0 2.76.3c.3 0 2.34-.24 2.34.24zm-7 0c-1.26-.66-3.6-2.4-3.6-4 0-1.26 1.2-1.86 2.28-1.92a1 1 0 0 0-.9-.66 3.18 3.18 0 0 0-1.38.48c-2.46 1.32-4.68 5.23-4.68 8a2.26 2.26 0 0 0 2.4 2.46 6.45 6.45 0 0 0 5.92-4.36zm.24-1.62c0-.84-.72-2.7-1.74-2.7-.24 0-.42.3-.42.54 0 1 1.56 1.74 2.16 2.34zm12.35 11.05c-.18-.12-.3-.18-.3-.48 0-.78.72-1.62 1-2.4.24-1.26-.12-3.72 1.32-3.72a1.05 1.05 0 0 1 1.2 1.2c0 1.86-1.56 4.14-2.28 4.86a1.58 1.58 0 0 1-.94.54zm3.36-19.4a1.42 1.42 0 1 1 .24 2.82 1.8 1.8 0 0 1-1.86-1.62 1.28 1.28 0 0 1 .42-.9 2.36 2.36 0 0 1 1.2-.3z"/></svg>