<svg xmlns="http://www.w3.org/2000/svg" viewBox="0 0 96.28 121.06"><defs><linearGradient id="a" x1="348.39" y1="-10.55" x2="457.13" y2="98.2" gradientUnits="userSpaceOnUse"><stop offset="0" stop-color="#eac618"/><stop offset="1" stop-color="#e06b21"/></linearGradient></defs><title>p12_s6</title><path d="M434.79-5.65a15.13 15.13 0 0 0-7.25 1.91 4.89 4.89 0 0 0-.47-.69 3.24 3.24 0 0 0-.34-.36c-.71-.65-7.49-6.32-25-6.32h-.48c-17.55 0-24.33 5.68-25 6.33a3.3 3.3 0 0 0-.34.35 4.76 4.76 0 0 0-.47.7 15.13 15.13 0 0 0-7.25-1.91c-8.25 0-14.75 7.06-14.8 16.08-.07 13.39 9.54 23.39 15.27 28.16a57 57 0 0 0 10.15 6.4l1 .5c4.85 2.52 9.42 4.9 12.22 8.42.78 1.07 1.8 6 1.55 7.36 0 .16-.33.4-.79.78a5.72 5.72 0 0 0 .48 10.05l.43.29c1 4.15-2.62 11.88-4.81 14.38l-.54.05c-1.67 0-5.1.21-11 16.28a3.27 3.27 0 0 0 2.26 4.29 93.28 93.28 0 0 0 21.84 2.57 93.51 93.51 0 0 0 21.37-2.45 3.27 3.27 0 0 0 2.3-4.24c-5.56-16.16-8.79-16.44-10.55-16.44l-.55-.06c-2.17-2.47-5.8-10.22-4.81-14.37l.43-.29a5.72 5.72 0 0 0 .47-10.12 3.41 3.41 0 0 1-.78-.73c-.26-1.42.76-6.34 1.53-7.4 2.81-3.53 7.38-5.91 12.23-8.43a61.68 61.68 0 0 0 11.22-6.9c5.73-4.77 15.34-14.77 15.27-28.16-.04-8.97-6.58-16.03-14.79-16.03zm-74.94 16.11c0-5.36 3.65-9.57 8.25-9.57a9.81 9.81 0 0 1 6.16 2.5v6.5c-.09 9.85 0 18.78.94 25.45a29.66 29.66 0 0 1-2.43-1.8c-4.85-4.02-12.98-12.38-12.92-23.08zm45.89 39.38c-2.18 2.74-3.51 10.28-2.74 13.16a7.56 7.56 0 0 0 2.67 3.88 6.16 6.16 0 0 0-2.67 3.24c-2.35 7.58 3.64 19.35 7.52 22.33a4.4 4.4 0 0 0 2.68.79h.25a44.41 44.41 0 0 1 4.16 8.64 92.45 92.45 0 0 1-16.21 1.49 92.17 92.17 0 0 1-16.58-1.56c1.65-4 3.43-7.44 4.42-8.56h.38a4.38 4.38 0 0 0 2.66-.78c3.9-3 9.89-14.77 7.54-22.35a6.14 6.14 0 0 0-2.64-3.26 7.54 7.54 0 0 0 2.7-3.86c.78-2.86-.55-10.4-2.73-13.14-3.64-4.58-9-7.39-14.2-10.09-2.38-5.77-2.25-20.69-2.17-29.77V2.39a11.64 11.64 0 0 0 .28-2.14v-.53c1.79-1.14 7.79-4.25 20.1-4.25h.48C414-4.58 420-1.44 421.78-.33v.54a11.76 11.76 0 0 0 .28 2.14c0 1.84-.06 4.12-.06 6.75 0 9.47-.06 23.53-2.35 30.78-5.08 2.66-10.33 5.45-13.91 9.96zm24.39-16.28a30.26 30.26 0 0 1-2.83 2c1.23-8.08 1.26-18.38 1.28-26.49V3.36a9.8 9.8 0 0 1 6.21-2.47c4.6 0 8.23 4.2 8.26 9.57.04 10.7-8.05 19.06-12.92 23.1z" transform="translate(-353.3 11.12)" fill="url(#a)"/></svg>