<svg id="Camada_1" data-name="Camada 1" xmlns="http://www.w3.org/2000/svg" viewBox="0 0 512 512"><defs><style>.cls-1{fill:#f58230;}</style></defs><title>Alvo</title><path class="cls-1" d="M501.07,214.25c-15.82,0-33.77,17.44-42.35,26.92H412.36c-5.7-109.51-95.93-196.83-206-196.83C92.55,44.34,0,137.58,0,252.18A208.07,208.07,0,0,0,72.32,410.09L30.61,448.53a11.07,11.07,0,0,0-.69,15.56,10.88,10.88,0,0,0,15.44.69L89.93,423.7a204.65,204.65,0,0,0,232.78,0l44.57,41.07a10.87,10.87,0,0,0,15.44-.69,11.07,11.07,0,0,0-.69-15.56l-41.71-38.43a208.06,208.06,0,0,0,72-146.9h46.36c8.58,9.48,26.53,26.92,42.35,26.92a11,11,0,0,0,10.93-11V225.26A11,11,0,0,0,501.07,214.25ZM206.33,438C104.61,438,21.86,354.65,21.86,252.18S104.61,66.36,206.33,66.36c98,0,178.46,77.46,184.13,174.81H341.53C335.95,171,277.44,115.53,206.33,115.53c-74.8,0-135.65,61.3-135.65,136.65s60.85,136.65,135.65,136.65c71.12,0,129.62-55.42,135.21-125.64h48.93C384.78,360.55,304.37,438,206.33,438Zm64-196.83c-5.21-30.86-31.93-54.44-64-54.44-35.83,0-65,29.36-65,65.45s29.14,65.46,65,65.46c32.11,0,58.82-23.58,64-54.45h49.23c-5.52,58.06-54.21,103.62-113.27,103.62-62.74,0-113.79-51.42-113.79-114.63s51-114.63,113.79-114.63c59.06,0,107.75,45.56,113.27,103.62Zm-64,22H248a43.44,43.44,0,1,1,0-22H206.33a11,11,0,0,0,0,22Zm283.82-.78a114.17,114.17,0,0,1-11.6-10.24,113.62,113.62,0,0,1,11.6-10.24Z"/></svg>