<svg xmlns="http://www.w3.org/2000/svg" viewBox="0 0 360.31 25.64"><defs><style>.a{fill:#dd6428}</style></defs><title>p12_s1</title><path class="a" d="M14.96 5.6a.32.32 0 0 1-.32.32 1.66 1.66 0 0 1-.88-.44 5.06 5.06 0 0 0-3-1A7.26 7.26 0 0 0 6.04 6.4a18.31 18.31 0 0 0-3.16 4.16 11.12 11.12 0 0 0-1.52 5.36c0 3.84 1.76 6.76 8.56 6.6a.45.45 0 0 1 .4.48c0 .44-.44.44-.76.44-5.84.36-9.56-2-9.56-7.2a14.19 14.19 0 0 1 2.16-7.16c2.6-4.36 5.88-5.88 8.4-5.88a4.73 4.73 0 0 1 3.84 1.48 1.53 1.53 0 0 1 .56.92z"/><path class="a" d="M29.8 19.44a15.53 15.53 0 0 0 2.36.12.44.44 0 0 1 .44.44.44.44 0 0 1-.44.44 15.47 15.47 0 0 1-2.6-.16c-.8 2.12-3.16 4-5.32 4a2.68 2.68 0 0 1-2.56-3 5.43 5.43 0 0 1 .36-1.92c-3.56 1.56-8.36 3.88-12.16 3.88a.41.41 0 0 1-.4-.44.43.43 0 0 1 .4-.4 12.66 12.66 0 0 0 3.44-.6 46.5 46.5 0 0 0 9.36-3.84 15.83 15.83 0 0 1 1.16-1.56c.72-.88 2-2.16 3.24-2.16s1.6 1 1.6 2a3 3 0 0 1 1.16 2.48 3.43 3.43 0 0 1-.04.72zm-1.44.52a2.77 2.77 0 0 1-2.24-2.6c0-.84.64-1.28 1.56-1.36a.81.81 0 0 0-.68-.44 1.6 1.6 0 0 0-1 .36 8.12 8.12 0 0 0-3 5.56 1.64 1.64 0 0 0 1.68 1.76c1.12.02 3.04-1.36 3.72-3.28zm.24-.84v-.56c0-.84-.44-1.52-1.12-1.52-.16 0-.24.16-.24.32a1.8 1.8 0 0 0 1.4 1.76z"/><path class="a" d="M49.4 18.76c.52 1.68.76 3.72 3 3.72a.44.44 0 0 1 .44.4.44.44 0 0 1-.44.44c-4.4 0-3.72-5.28-5-5.28-1.12 0-3.4 5.4-5.28 5.4-.84 0-1.16-.76-1.16-1.48 0-1.32.68-2.76.68-4 0-.52-.12-1-.72-1-1.56 0-4.52 3.48-8.72 3.48a.44.44 0 0 1-.44-.44.44.44 0 0 1 .44-.44 8.56 8.56 0 0 0 3.12-.8c1.56-.76 4.08-3 5.64-3a1.88 1.88 0 0 1 1.88 2.08c0 1.24-.8 2.72-.8 3.92 0 .2 0 .48.24.48.88 0 3.6-5.64 5.44-5.64 1.08-.04 1.44 1.36 1.68 2.16z"/><path class="a" d="M66.44 25.64c-1.16 0-2.52-.4-2.52-1.76a2.78 2.78 0 0 1 1.12-2c1.52-1.32 4.4-1.72 6.36-2-1-2-3.84-3.44-5.28-5.12a61.84 61.84 0 0 1-7.44 6.28c-2.2 1.56-3.52 2.32-6.32 2.32a.45.45 0 0 1-.48-.4.44.44 0 0 1 .44-.44 9 9 0 0 0 4.36-1.36c3.28-1.88 6.12-4.64 8.88-7.2a2.18 2.18 0 0 1-.36-1.12c0-1.56 1.4-3.72 3.08-3.72a1.21 1.21 0 0 1 1.24 1.28c0 1.32-1.56 2.84-2.52 3.6h-.08c1.44 1.36 3 2.52 4.44 3.84a4.66 4.66 0 0 1 1.28 1.8c.4 0 1.28-.08 1.52-.08a.44.44 0 0 1 .44.44.44.44 0 0 1-.44.44h-1.28c.28 3.04-3.84 5.2-6.44 5.2zm5.16-4.76v-.24c-1.68.16-6.64.84-6.64 3.12 0 .8.8 1 1.48 1 2.04.04 5.15-1.5 5.15-3.88zm-5.16-8.2a1.5 1.5 0 0 0 0 .44c.48-.44 1.92-1.8 1.92-2.48a.34.34 0 0 0-.36-.36c-.8-.02-1.56 1.72-1.56 2.4z"/><path class="a" d="M85.4 22.76c2-1.32 2.68-3.28 3.68-5.32.28-.56.8-1.32 1.48-1.32 1.24 0 .88 2.24 1 3.08a3.86 3.86 0 0 0 3.2 3.2c.32.08 1.08 0 1.08.48a.44.44 0 0 1-.44.44 5.44 5.44 0 0 1-5.48-4.64 6.34 6.34 0 0 1-.72 1.48c-1.16 2-2.84 4.2-5.36 4.2-2.08 0-3.08-1.76-3.08-3.64a12.69 12.69 0 0 1 .8-3.44 17.09 17.09 0 0 1-4.6 2.68 7.37 7.37 0 0 1-2.8.48.44.44 0 0 1-.44-.44.44.44 0 0 1 .4-.44 7 7 0 0 0 2-.36 10.63 10.63 0 0 0 2.36-1.12c.72-.4 3.48-2.48 4.12-2.48a.8.8 0 0 1 .8.88c0 1.08-1.48 2.6-1.48 4.56A2 2 0 0 0 84 23.2a2.42 2.42 0 0 0 1.4-.44z"/><path class="a" d="M106.24 4.64c.68-.84 2-2.08 3.12-2.08s1.76 1.48 1.76 2.52c0 2.84-2.72 7.92-4.44 10.16l-.84 1.08c-.4.56-.76 1.16-1.2 1.68.92 2.2 2.52 4.48 5.16 4.48a.44.44 0 0 1 .44.4.44.44 0 0 1-.44.44c-2.84 0-4.88-1.8-6-4.28-2.56 2.88-4.52 4.28-8.48 4.28a.44.44 0 0 1-.4-.44.43.43 0 0 1 .4-.4 8.93 8.93 0 0 0 3.4-.56 13 13 0 0 0 4.64-4 13.14 13.14 0 0 1-.6-3.72 17.08 17.08 0 0 1 3.48-9.56zm2 6.24a14 14 0 0 0 1.84-5.36c0-.68-.28-1.4-1.08-1.4a1.55 1.55 0 0 0-.92.36c-2.44 1.76-4.08 6.92-4.08 9.8a10.24 10.24 0 0 0 .28 2.48 52.21 52.21 0 0 0 3.92-5.88z"/><path class="a" d="M124.11 12.48c0 1-2.8 1-3.48 1.08a1.67 1.67 0 0 1-.16.4 14.68 14.68 0 0 0-1.32 5.16 3.06 3.06 0 0 0 1 2.48 3.92 3.92 0 0 0 2.2.84c.2 0 .44.16.44.4a.44.44 0 0 1-.44.44 3.9 3.9 0 0 1-4.08-4 13.16 13.16 0 0 1 .32-2.52c-1.44 2.52-5.72 6.56-8.8 6.56a.44.44 0 0 1-.44-.44c0-.24.24-.36.44-.4a8.74 8.74 0 0 0 4-2 17.73 17.73 0 0 0 5.16-6.84c-.64 0-1.24.08-1.88.08-.36 0-1.24-.12-1.24-.64 0-.8 3-.72 3.64-.72.2-.52.88-2.6 1.56-2.6.52 0 .6.88.6 1.24a5.73 5.73 0 0 1-.44 1.32 14.44 14.44 0 0 1 2.28 0c.16 0 .64-.12.64.16z"/><path class="a" d="M138.88 19.44a15.53 15.53 0 0 0 2.36.12.44.44 0 0 1 .44.44.44.44 0 0 1-.44.44 15.47 15.47 0 0 1-2.6-.16c-.8 2.12-3.16 4-5.32 4a2.68 2.68 0 0 1-2.56-3 5.33 5.33 0 0 1 .12-1.12c-2.52 1.72-4.92 3.08-8 3.08-.36 0-1 .08-1-.44a.44.44 0 0 1 .44-.4 15.52 15.52 0 0 0 1.92-.16 12.65 12.65 0 0 0 3.4-1.16 12.46 12.46 0 0 0 3-1.88 7.1 7.1 0 0 0 .8-.76l.36-.56a10 10 0 0 1 1.08-1.48c.72-.88 2-2.16 3.24-2.16s1.6 1 1.6 2a3 3 0 0 1 1.16 2.48 3.43 3.43 0 0 1 0 .72zm-1.44.52a2.77 2.77 0 0 1-2.24-2.6c0-.84.64-1.28 1.56-1.36a.81.81 0 0 0-.68-.44 1.6 1.6 0 0 0-1 .36 8.12 8.12 0 0 0-3 5.56 1.64 1.64 0 0 0 1.68 1.76c1.04.02 3.04-1.36 3.67-3.28zm.24-.84a2.64 2.64 0 0 0 0-.56c0-.84-.44-1.52-1.12-1.52-.16 0-.24.16-.24.32a1.8 1.8 0 0 0 1.36 1.76z"/><path class="a" d="M156.03 22.48a.44.44 0 0 1 .4.44.43.43 0 0 1-.4.4c-2 0-4.32-1-4.32-3.36 0-1.64 1.12-3.4 1.12-5 0-1.16-1.2-1.48-2-2a1.74 1.74 0 0 1-.16.28c-1.36 2.28-4.28 5.64-6.8 6.68a8.34 8.34 0 0 1-2.64.48.45.45 0 0 1-.48-.44.44.44 0 0 1 .44-.44 6.76 6.76 0 0 0 2-.32 6.55 6.55 0 0 0 2.72-1.76 18.89 18.89 0 0 0 3.88-5c-.92-.48-2-1.16-2-2.36a1.76 1.76 0 0 1 1.8-1.64 2 2 0 0 1 1.92 2 4.12 4.12 0 0 1-.24 1.4c1.36.6 2.72 1.32 2.72 3s-.8 3.16-1.12 4.8a1.36 1.36 0 0 0 0 .4c0 1.6 1.8 2.44 3.16 2.44zm-5.8-11.16c0-.12.12-.64.12-.88s-.16-.8-.6-.8a.65.65 0 0 0-.64.6c.01.44.77.88 1.12 1.08z"/><path class="a" d="M175.71 21.84c0 1-2.08 1.48-2.88 1.48-3.6 0-4.12-3.52-5-3.52s-2.16 4.32-5.64 4.32a2 2 0 0 1-2.2-2.16v-.2a6.08 6.08 0 0 1-3.88 1.56c-.32 0-.64 0-.64-.44a.44.44 0 0 1 .44-.4c1.8 0 3.28-1.28 4.6-2.4 1-1.76 3.08-3.8 5.2-3.8a2.71 2.71 0 0 1 2.44 1.28 1.1 1.1 0 0 1 1.12.68 6.83 6.83 0 0 1 .36 1.2c.44 1.56 1.4 3 3.2 3a6.86 6.86 0 0 0 2.64-.92c.16.04.24.16.24.32zm-9-3.32c-.32-.52-.64-1-1.32-1-1.64 0-4 2.68-4 4.28a1.06 1.06 0 0 0 1.12 1.16c1.8 0 3.29-3.2 4.29-4.44zm33.52-7.6c.68-2.72 3-10.92 6.4-10.92a1.31 1.31 0 0 1 1.32 1.48 11.14 11.14 0 0 1-1.16 4c-.68 1.52-1.6 2.92-2.4 4.4-1.08 2-2 3.92-3.24 5.8-.2.32-.4.64-.64 1 .24 1.56.36 3.08 1.56 4.28a5.69 5.69 0 0 0 4 1.52.41.41 0 0 1 .44.4.44.44 0 0 1-.44.44c-3.56 0-5.72-2-6.4-5.4-1.56 2.16-4.12 5.92-7.08 5.92a2.44 2.44 0 0 1-2.56-2.48c0-2.4 3-4.88 5.36-4.88a2.89 2.89 0 0 1 2.68 1.92c.52-.68 1-1.36 1.44-2a22.58 22.58 0 0 1 .72-5.48zm-3.12 8.68a1.86 1.86 0 0 0-1.92-1.76c-1.64 0-3.84 1.68-3.84 3.44a1.24 1.24 0 0 0 1.32 1.32c1.88-.04 3.32-1.72 4.44-3zm5.48-8.36c.72-1.28 1.4-2.6 2.08-3.92s2-3.4 2-4.8c0-.4-.16-.8-.64-.8-1.8 0-3.84 6.48-4.32 8a28.05 28.05 0 0 0-1.2 5.12z"/><path class="a" d="M219.35 23.16a7.58 7.58 0 0 1-1.64.16 3.83 3.83 0 0 1-3.72-2.48c-2.56 1.28-5 2.48-8 2.48a.44.44 0 0 1-.44-.44.44.44 0 0 1 .44-.4 11.81 11.81 0 0 0 3.52-.6 32.78 32.78 0 0 0 4.32-2 6.35 6.35 0 0 1 3.32-5.16 2.78 2.78 0 0 1 1.4-.32c1 0 2.2.6 2.2 1.76a2 2 0 0 1-.24.84 2.79 2.79 0 0 1-1 .88c-.52.32-1 .56-1.56.84-.92.52-1.84 1.08-2.8 1.56a2.51 2.51 0 0 0 2.6 2.24 6 6 0 0 0 3.76-1.08 9.56 9.56 0 0 1 .88-.64c.16 0 .2.08.2.24 0 1.22-2.28 1.92-3.24 2.12zm-4.12-4a26 26 0 0 0 3.84-2.4.74.74 0 0 0 .2-.48c0-.48-.52-.64-.92-.64-1.64-.04-2.88 2.04-3.12 3.48zm38.92.84a.44.44 0 0 1-.44.44h-1.36c.24 3.12-3.8 5.16-6.48 5.16-1.12 0-2.48-.44-2.48-1.8 0-2.92 5.48-3.8 7.6-4-1-2-4.2-3.44-5.52-5.16a24.13 24.13 0 0 1-3.4 2.64c-1.28.8-4 2.48-5.52 2.48-.28 0-.92-.12-.92-.52s1-.44 1.2-.52a15.78 15.78 0 0 0 3.24-1.48 29.57 29.57 0 0 0 4.8-3.52 2.72 2.72 0 0 1-.28-1.12c0-1.44 1.48-3.56 3-3.56a1.25 1.25 0 0 1 1.28 1.32c0 1.6-1.56 2.6-2.6 3.52a45.54 45.54 0 0 0 4.68 4.08 3.93 3.93 0 0 1 1.24 1.68c.4 0 1.28-.08 1.52-.08a.44.44 0 0 1 .44.44zm-3 .6c-1.64.16-6.72.84-6.72 3.08 0 .84.76 1.12 1.48 1.12 2.16 0 5.28-1.44 5.28-4.2zm-3.44-10a.33.33 0 0 0-.36-.32c-.84 0-1.6 1.68-1.6 2.36v.28c.56-.44 2.05-1.6 2.05-2.32z"/><path class="a" d="M264.91 22.76c2-1.32 2.68-3.28 3.68-5.32.28-.56.8-1.32 1.48-1.32 1.24 0 .88 2.24 1 3.08a3.86 3.86 0 0 0 3.2 3.2c.32.08 1.08 0 1.08.48a.44.44 0 0 1-.44.44 5.44 5.44 0 0 1-5.48-4.64 6.34 6.34 0 0 1-.72 1.48c-1.16 2-2.84 4.2-5.36 4.2-2.08 0-3.08-1.76-3.08-3.64a12.69 12.69 0 0 1 .8-3.44 17.09 17.09 0 0 1-4.6 2.68 7.37 7.37 0 0 1-2.8.48.44.44 0 0 1-.44-.44.44.44 0 0 1 .4-.44 7 7 0 0 0 2-.36 10.63 10.63 0 0 0 2.36-1.12c.72-.4 3.48-2.48 4.12-2.48a.8.8 0 0 1 .8.88c0 1.08-1.48 2.6-1.48 4.56a2 2 0 0 0 2.08 2.16 2.42 2.42 0 0 0 1.4-.44z"/><path class="a" d="M274.8 22.48a11.59 11.59 0 0 0 3.52-.6 23.16 23.16 0 0 0 5.8-3.52 3.31 3.31 0 0 0 .68-.6c.12-.16.2-.44.32-.64a6.58 6.58 0 0 1 1.56-1.92 3.09 3.09 0 0 1 1.8-.72c.64 0 2.12.56 2.12 1.28a.21.21 0 0 1-.24.24c-.48 0-.68-.6-1.48-.6-1.8 0-3.24 3-3.24 4.6s1 2.32 2.48 2.48c.24 0 .44.16.44.44a.41.41 0 0 1-.44.4 3.69 3.69 0 0 1-3.76-2.72c0-.12-.08-.28-.08-.4a5.36 5.36 0 0 1 0-.8c-2.8 2.2-5.88 3.92-9.52 3.92a.41.41 0 0 1-.44-.4.44.44 0 0 1 .48-.44z"/><path class="a" d="M307.43 16.12c0 1.76-4 3.56-5.4 4.16l-.24.08c.16 1.4 1.28 2 2.56 2.12.2 0 .44.16.44.4a.44.44 0 0 1-.44.44 3.78 3.78 0 0 1-3.72-2.52 39.85 39.85 0 0 1-12.52 2.52.44.44 0 0 1-.44-.44.44.44 0 0 1 .44-.4 27 27 0 0 0 5.08-.56c1.52-.28 3-.72 4.48-1.12.72-.24 1.6-.4 2.32-.72l.52-.24c.2-2.4 2-5.48 4.72-5.48a2 2 0 0 1 2.2 1.76zm-1.56.2a.75.75 0 0 0-.84-.72c-1.72 0-3 2.16-3.2 3.68.97-.44 4.04-1.76 4.04-2.96z"/><path class="a" d="M333.11 23.88a2.83 2.83 0 0 1 1.16-2c1.52-1.32 4.44-1.68 6.4-2-.92-2-3.88-3.52-5.32-5.16a27.48 27.48 0 0 1-6.76 4.64 3.31 3.31 0 0 1 .32 1.16c.2 3.12-3.8 5.12-6.48 5.12-1.12 0-2.48-.44-2.48-1.8 0-2.68 4.6-3.92 6.84-4.8-1.28-1.52-3.72-3.08-4.64-4.32a40.53 40.53 0 0 1-6.92 5.36 22.63 22.63 0 0 1-10.84 3.2.41.41 0 0 1-.4-.44.43.43 0 0 1 .4-.4 13.66 13.66 0 0 0 3.6-.44 25.66 25.66 0 0 0 4.81-1.74 37.87 37.87 0 0 0 7.12-4.72l1.68-1.6a2.72 2.72 0 0 1-.32-1.24c0-1.48 1.48-3.6 3.08-3.6a1.21 1.21 0 0 1 1.24 1.28c0 1.68-1.64 2.6-2.6 3.64a43.25 43.25 0 0 0 4.56 4l.52.52a23.47 23.47 0 0 0 6.72-4.52 2.9 2.9 0 0 1-.32-1.28c0-1.48 1.48-3.6 3.08-3.6a1.21 1.21 0 0 1 1.24 1.28c0 1.32-1.56 2.84-2.56 3.6h-.08c1.4 1.36 3 2.56 4.48 3.84a4.39 4.39 0 0 1 1.28 1.8c.4 0 1.28-.08 1.52-.08a.44.44 0 0 1 .44.44.44.44 0 0 1-.44.44h-1.36c.44 3.16-3.76 5.16-6.36 5.16-1.21.02-2.61-.36-2.61-1.74zm-5.72-4c-2 .76-6.36 2.16-6.36 3.8 0 .84.76 1.12 1.48 1.12 2 0 5.16-1.6 5.16-4a2.19 2.19 0 0 0-.28-.92zm-4.92-7.2a1.5 1.5 0 0 0 0 .44c.48-.44 1.92-1.8 1.92-2.48a.33.33 0 0 0-.36-.36c-.8-.02-1.56 1.72-1.56 2.4zm18.4 8.24v-.24c-1.68.16-6.68.8-6.68 3.08 0 .8.8 1 1.48 1 2.04.04 5.2-1.5 5.2-3.84zm-5.24-8.2v.4c.48-.44 1.92-1.8 1.92-2.48a.32.32 0 0 0-.36-.36c-.76-.02-1.56 1.76-1.56 2.44z"/><path class="a" d="M360.31 20.2c0 .68-1.12.72-1.6.72a5.81 5.81 0 0 1-2-.2 5.9 5.9 0 0 1-5.24 3.64c-1.76 0-2.56-1.52-2.56-3.08a6.2 6.2 0 0 1 .56-2.4 12.54 12.54 0 0 1-6.12 1.56.41.41 0 0 1-.4-.44.4.4 0 0 1 .44-.44 14.44 14.44 0 0 0 7-2.32c.76-1.12 2.36-2.76 3.8-2.76 1.16 0 1.64 1.12 1.64 2.12a3 3 0 0 1 1.16 2.48 4.89 4.89 0 0 1-.08.76 5.44 5.44 0 0 0 1.8.24c.32 0 .64-.08 1-.08.09 0 .6.04.6.2zm-4.64 0c-.76-.24-2.4-1.76-2.4-2.64a1.37 1.37 0 0 1 1.52-1.24c-.12-.24-.28-.48-.6-.48a2.53 2.53 0 0 0-.92.32 7 7 0 0 0-3.12 5.4 1.47 1.47 0 0 0 1.56 1.64 4.39 4.39 0 0 0 3.96-3zm.16-1.08c0-.56-.48-1.8-1.16-1.8-.2 0-.28.2-.28.36 0 .72 1 1.16 1.44 1.56z"/></svg>