<svg xmlns="http://www.w3.org/2000/svg" viewBox="0 0 306.65 49.54"><defs><style>.a{fill:#fff}</style></defs><title>p13_s3</title><path class="a" d="M19.93 16.64a.64.64 0 0 1 .67.62c0 .67-.62 1-1.85 1.18.46 7.88 1.18 11.9 1.18 12.31s-.36.57-.77.57c-1.24 0-1.29-2.94-1.44-4.48l-.77-8c-2.63.52-10.61 1.7-10.61 1.91-2.11 4.74-3 6.54-4 9.06-.31.72-.62 1.7-1.7 1.7a.58.58 0 0 1-.62-.67c0-.52 2.73-6.49 4.38-9.94a11.36 11.36 0 0 1-1.13.1c-1.08 0-1.49-.41-1.49-.82 0-1 1.54-.72 3.45-1.13 3.3-7.31 6.44-15.09 7.88-16.79a2.55 2.55 0 0 1 2-1.13c2.32 0 2.21 4.27 2.42 6.18.31 3.14.62 5.2 1.08 9.53l.77-.1a2.32 2.32 0 0 1 .55-.1zm-3.14.46c-.41-5.61-.88-9.12-1.29-12.46-.1-.82-.36-1.29-.77-1.29-.93 0-4.07 7.47-7.52 15.35 3.71-.57 5.72-.88 8.55-1.39zm25.33 12.41a.53.53 0 0 1-.57.52 35.86 35.86 0 0 1-6.39-.36 10.08 10.08 0 0 1-3.71-1c-1.6 5.51-2.47 7.42-4 11.84-1.49 4.22-2.68 9-5.82 9-1.49 0-2.58-1.75-2.58-3.76 0-7.47 9-19.31 13-25.13a12.56 12.56 0 0 0 .1-1.39c0-.77-.26-1.85-.26-2.32s.41-1.13 1-1.13c1 0 1.08 1.29 1.08 2.16a3.56 3.56 0 0 1-.15 1.18c1.34-.67 2.32-1.49 4-1.49 2.06 0 4.48 1.18 4.48 3.66 0 3.09-4.17 7-7.36 7 1.18.67 5.1.77 6.59.77a.61.61 0 0 1 .59.45zm-10.66-6c-3.81 5.87-5 7.47-7.05 10.87a75.11 75.11 0 0 0-3.3 7.36 12.47 12.47 0 0 0-.62 3.76c0 1.49.36 2.37 1.24 2.37 1.34 0 2.11-2 3.14-4.74 1.34-3.66 2.11-5.67 3.4-9.53 1.13-3.52 2.37-6.71 3.23-10.06zm2 3.91c2.37 0 6.9-2.63 6.9-6a2.17 2.17 0 0 0-2.42-2.11 7.79 7.79 0 0 0-4.33 1.6c-.57 2.37-.93 4.27-1.6 6.28a5.11 5.11 0 0 0 1.49.26z"/><path class="a" d="M79.72 21.12a6.44 6.44 0 0 1-.82 2.94c-1.44 2.68-6.49 5.87-11.54 6.28-.72 0-.88 0-1.18.62-1.18 3.66-2.11 6-3.4 9.63-1.54 4.33-2.57 9-5.77 9-1.49 0-2.58-1.75-2.58-3.81 0-4.64 3.61-11.43 7.62-17.35a42.25 42.25 0 0 1 5.3-6.13c.1-.77.21-1.49.31-2.27 0-.41-.1-1.13-.67-1.13a.82.82 0 0 0-.52.26c-4 2.68-5.51 4-9.58 6.08-2.88 1.6-9.48 4.84-15.45 4.84a.52.52 0 0 1-.51-.52.5.5 0 0 1 .51-.57c6.28 0 14.88-4.17 20.6-8.6 1.75-1.39 3.81-3.81 5.61-3.81 1.18 0 1.6 1.18 1.6 2.47a9.7 9.7 0 0 1-.21 1.85c2-1.39 4-2.83 6.75-2.83a4 4 0 0 1 3.4 1.39 3 3 0 0 1 .53 1.66zm-13 3.5c-.88 1-2.21 2.58-2.58 3.09a60.78 60.78 0 0 0-4.33 6.8 58.48 58.48 0 0 0-3.35 7.36 12.6 12.6 0 0 0-.67 3.76c0 1.49.36 2.37 1.24 2.37 1.29 0 2.16-2 3.19-4.74 1.34-3.6 2.11-5.67 3.35-9.53a22.21 22.21 0 0 1 1.34-3.6 1.61 1.61 0 0 1-.93-1.13.28.28 0 0 1 .21-.31c.21 0 .57.05 1.08.1 0-.05 0-.05.05-.1.49-1.29 1.06-2.78 1.42-4.07zm11.12-3.4c0-1-.62-1.65-2-1.65-1.6 0-3.86.72-7.26 3.24a48.37 48.37 0 0 1-1.7 6.13c2.94-.41 7.42-1.44 9.63-4.58a6 6 0 0 0 1.35-3.14zm33.24-7.16c.88-3.5 3.91-14.06 8.24-14.06a1.68 1.68 0 0 1 1.7 1.91 14.37 14.37 0 0 1-1.49 5.2c-.88 2-2.06 3.76-3.09 5.67-1.39 2.52-2.63 5-4.17 7.47-.26.41-.51.82-.82 1.24.31 2 .46 4 2 5.51a7.32 7.32 0 0 0 5.15 2 .53.53 0 0 1 .57.51.57.57 0 0 1-.57.57c-4.58 0-7.36-2.58-8.24-7-2 2.78-5.3 7.62-9.12 7.62a3.14 3.14 0 0 1-3.3-3.19c0-3.09 3.86-6.28 6.9-6.28a3.72 3.72 0 0 1 3.45 2.47c.67-.88 1.24-1.75 1.85-2.63a29 29 0 0 1 .94-7.01zm-4 11.18l.05-.05a2.4 2.4 0 0 0-2.47-2.27c-2.11 0-4.94 2.16-4.94 4.43a1.59 1.59 0 0 0 1.7 1.7c2.34 0 4.2-2.16 5.64-3.81zm7.06-10.76c.93-1.65 1.8-3.35 2.68-5s2.57-4.38 2.57-6.18c0-.52-.21-1-.82-1-2.32 0-4.94 8.34-5.56 10.25a36.08 36.08 0 0 0-1.55 6.59z"/><path class="a" d="M144.03 28.12c0 1.29-2.68 1.91-3.71 1.91-4.64 0-5.3-4.53-6.44-4.53-1.29 0-2.78 5.56-7.26 5.56a2.58 2.58 0 0 1-2.83-2.78v-.26c-1.65 1.18-2.88 2-5 2-.41 0-.82-.05-.82-.57a.56.56 0 0 1 .57-.51c2.32 0 4.22-1.65 5.92-3.09 1.24-2.27 4-4.89 6.69-4.89a3.49 3.49 0 0 1 3.14 1.65 1.42 1.42 0 0 1 1.44.88 8.77 8.77 0 0 1 .46 1.54c.57 2 1.8 3.91 4.12 3.91 1.6 0 3.19-1.18 3.4-1.18s.32.16.32.36zm-11.53-4.27c-.41-.67-.82-1.29-1.7-1.29-2.11 0-5.2 3.45-5.2 5.51a1.37 1.37 0 0 0 1.44 1.49c2.32 0 4.22-4.12 5.46-5.71zM189.86 6.6c-.21.77-.77 2.32-1.39 4.17-.88 2.47-1.85 5.61-2.58 8a90.39 90.39 0 0 1-3 8.81c-.36.93-1.24 2.21-2.21 2.21-1.75 0-2.37-2.58-3.14-5.41a4.82 4.82 0 0 0-.21-.88l-2.16-8.45c-.57-2.21-1.18-4.64-2.06-7.88-.1-.41-.36-1-.57-1-.41 0-2.32 7-3.55 11.38-.15.46-.26.93-.36 1.34-.93 3.24-1.54 5-2 6.44-.41 1.13-.67 2.11-1.08 3.55-.21.88-.46 2.27-1.39 2.27-.41 0-.72-.46-.72-1a1.84 1.84 0 0 1 .1-.52l2.21-7.72c1.24-4.22 2.52-8.5 3.86-13.29 0-.1.1-.26.1-.36.51-1.91 1.34-4.89 2.94-4.89s2 2.21 4.22 11.69l.72 3c.93 4 2.58 9.27 3.14 9.27s1.13-1.85 1.65-3.45c.67-2.11 1.65-4.94 2.47-7.62 1.29-3.91 2.52-7.78 3.19-10.15.15-.72.62-2.06 1.49-2.06a.78.78 0 0 1 .77.67 3.64 3.64 0 0 1-.31 1.24zm14.94 23.43c-4.58 0-5.3-4.53-6.44-4.53-1.29 0-2.78 5.56-7.21 5.56a2.64 2.64 0 0 1-2.88-2.83c0-3.09 4.22-7.26 7.36-7.26a3.39 3.39 0 0 1 3.14 1.65c1.49-.15 1.6 1.39 1.91 2.42a8.58 8.58 0 0 0 .62 1.6 4 4 0 0 0 3.5 2.32.56.56 0 0 1 .57.51.57.57 0 0 1-.57.56zm-13.29-.46c1.44 0 3-2 3.81-3.09.57-.82 1-1.8 1.65-2.63-.41-.67-.82-1.29-1.7-1.29-2.11 0-5.2 3.45-5.2 5.51a1.37 1.37 0 0 0 1.43 1.49z"/><path class="a" d="M223.18 16.07c0 1.29-3.6 1.34-4.48 1.39v.05a2.12 2.12 0 0 1-.21.51 18.9 18.9 0 0 0-1.7 6.64 3.94 3.94 0 0 0 1.24 3.19 5.05 5.05 0 0 0 2.83 1.08c.26.05.57.21.57.51a.57.57 0 0 1-.57.57 5 5 0 0 1-5.25-5.2 16.94 16.94 0 0 1 .41-3.24c-1.85 3.24-7.36 8.45-11.33 8.45a.57.57 0 0 1-.57-.57c0-.31.31-.46.57-.51a11.27 11.27 0 0 0 5.2-2.58 22.84 22.84 0 0 0 6.64-8.81c-.82.05-1.6.1-2.42.1-.46 0-1.6-.15-1.6-.82 0-1 3.81-.93 4.69-.93.26-.67 1.13-3.35 2-3.35.67 0 .77 1.13.77 1.6a7.32 7.32 0 0 1-.57 1.7 18.58 18.58 0 0 1 2.94 0c.22.02.84-.14.84.22z"/><path class="a" d="M237.91 29.31c2.52-1.7 3.45-4.22 4.74-6.85.36-.72 1-1.7 1.91-1.7 1.6 0 1.13 2.88 1.29 4a5 5 0 0 0 4.12 4.12c.41.1 1.39 0 1.39.62a.57.57 0 0 1-.57.57 7 7 0 0 1-7.06-6 8.18 8.18 0 0 1-.93 1.91c-1.49 2.52-3.66 5.41-6.9 5.41-2.68 0-4-2.27-4-4.69a8.69 8.69 0 0 1 .31-2.32 18.8 18.8 0 0 1-5.66 4.38 12.44 12.44 0 0 1-5.77 1.29.53.53 0 0 1-.51-.57.55.55 0 0 1 .51-.51 10.57 10.57 0 0 0 5.15-1.24 19 19 0 0 0 5.72-5c.46-.72 1.6-2.63 2.63-2.63a1.09 1.09 0 0 1 1 1.13c0 1.39-1.91 3.35-1.91 5.87a2.54 2.54 0 0 0 2.68 2.78 3.12 3.12 0 0 0 1.86-.57z"/><path class="a" d="M273.03 28.95a.56.56 0 0 1 .57.51.57.57 0 0 1-.57.57c-2.63 0-5.51-1.29-5.51-4.33 0-2.21 1.39-4.27 1.39-6.49 0-1.39-1.54-2.06-2.63-2.52l-.15-.05a31.91 31.91 0 0 1-5.46 6.9c-2.27 2.16-4.27 4.48-7.11 5.87a5.79 5.79 0 0 1-2.63.62c-.36 0-.82-.05-.82-.57a.55.55 0 0 1 .52-.51 5.71 5.71 0 0 0 2.06-.46c3.14-1.39 10.71-9 12.36-12.46-1.18-.62-2.52-1.49-2.52-3a2.23 2.23 0 0 1 2.27-2.16 2.52 2.52 0 0 1 2.52 2.47 4.94 4.94 0 0 1-.46 1.91l.15.05c1.75.77 3.5 1.7 3.5 3.91s-1 4.07-1.44 6.13a1.76 1.76 0 0 0-.05.52c-.01 1.92 2.31 3.09 4.01 3.09zm-7.47-14.37l.05-.05a3.9 3.9 0 0 0 .15-1.08c0-.41-.21-1-.77-1a.84.84 0 0 0-.82.77c0 .56.93 1.05 1.39 1.36z"/><path class="a" d="M298.41 28.12c0 1.29-2.68 1.91-3.71 1.91-4.64 0-5.3-4.53-6.44-4.53-1.29 0-2.78 5.56-7.26 5.56a2.58 2.58 0 0 1-2.83-2.78v-.26c-1.65 1.18-2.88 2-5 2-.41 0-.82-.05-.82-.57a.56.56 0 0 1 .57-.51c2.32 0 4.22-1.65 5.92-3.09 1.24-2.27 4-4.89 6.7-4.89a3.49 3.49 0 0 1 3.14 1.65 1.42 1.42 0 0 1 1.44.88 8.81 8.81 0 0 1 .46 1.54c.57 2 1.8 3.91 4.12 3.91 1.6 0 3.19-1.18 3.4-1.18s.31.16.31.36zm-11.54-4.27c-.41-.67-.82-1.29-1.7-1.29-2.11 0-5.2 3.45-5.2 5.51a1.37 1.37 0 0 0 1.44 1.49c2.33 0 4.23-4.12 5.47-5.71zm17.41 3.81a1.26 1.26 0 0 1 1.39 1.24 1.24 1.24 0 0 1-1.08 1.13 1.49 1.49 0 0 1-1.65-1.39 1.14 1.14 0 0 1 .31-.77 2.45 2.45 0 0 1 1.03-.21zm1-11a1.32 1.32 0 0 1 1.39 1.13 1.24 1.24 0 0 1-1.18 1.24 1.49 1.49 0 0 1-1.54-1.39 1.13 1.13 0 0 1 .31-.77 2.46 2.46 0 0 1 1-.18z"/></svg>