<svg xmlns="http://www.w3.org/2000/svg" viewBox="0 0 54.04 54.04"><defs><style>.a{fill:#dc6429}.b{fill:#fff}</style></defs><title>p13_s2</title><path class="a" d="M0 0h54.04v54.04H0z"/><path class="b" d="M33.41 8.02H20.59a3.54 3.54 0 0 0-3.54 3.54v30.93a3.54 3.54 0 0 0 3.54 3.54h12.77a3.54 3.54 0 0 0 3.54-3.54V11.56a3.54 3.54 0 0 0-3.49-3.54zM20.59 9.56h12.77a2 2 0 0 1 2 2v3.11H18.6V11.6a2 2 0 0 1 1.99-2.04zm14.76 27.52H18.59V16.16h16.76zm-2 7.4H20.59a2 2 0 0 1-2-2v-3.81h16.76v3.86a2 2 0 0 1-1.94 1.96z"/><path class="b" d="M24.87 12.96h4.31a.77.77 0 0 0 .77-.77.77.77 0 0 0-.77-.77h-4.31a.77.77 0 0 0-.77.77.77.77 0 0 0 .77.77zm2.15 26.16a2.49 2.49 0 0 0-2.49 2.49 2.49 2.49 0 0 0 2.49 2.49 2.49 2.49 0 0 0 2.49-2.49 2.49 2.49 0 0 0-2.49-2.49zm0 3.44a1 1 0 0 1-.94-.95 1 1 0 0 1 .95-.94 1 1 0 0 1 .94.95 1 1 0 0 1-.95.95z"/></svg>