<svg xmlns="http://www.w3.org/2000/svg" viewBox="0 0 197.15 24.96"><defs><style>.a{fill:#e0e4eb}</style></defs><title>p13_s1</title><path class="a" d="M14.56-.01c.48 0 .6.12.6.28s-.12.52-1.32.84c-.76.2-3.4.64-3.4.64l-4 .52c-.28 1-.36 1.44-2.32 9.36 1.28 0 5.92-.68 5.92-.48h1.68c1.24 0 1.8.16 1.8.6 0 .68-2.6.6-5.6.92-1.16.12-3.48.48-4.16.48C2.52 18.35 1.4 23.63.52 23.63a.59.59 0 0 1-.48-.64 16.66 16.66 0 0 1 .56-2.28l1.8-7.48c-.32 0-.6-.08-.6-.4s.24-.6.92-.84l1.4-5.84c.32-1.4.68-2.84.92-3.76-.6-.08-.84-.32-.84-.6s.12-.72 1.52-.88c4-.44 8.2-.84 8.52-.88zm8.92 15.25c0 2-3.92 2.76-5.4 3.28a.58.58 0 0 1-.28.08v.44a2.5 2.5 0 0 0 2.6 2.52c.24 0 .44.12.44.4a.44.44 0 0 1-.44.44c-1.92 0-4-1.4-3.84-3.48a14.78 14.78 0 0 1-2.64.28c-.36 0-1.2-.24-1.2-.72 0-.28.44-.28.64-.28a16.14 16.14 0 0 0 3.4-.4v-.16a6.13 6.13 0 0 1 3.08-3.88 2.78 2.78 0 0 1 1.4-.32 2 2 0 0 1 2.24 1.8zm-1.64 0c0-.4-.44-.52-.8-.52-1.44 0-2.56 1.56-3 2.8.88-.2 3.8-1.24 3.8-2.32z"/><path class="a" d="M41.99 21.56a.44.44 0 0 1 .44.44.44.44 0 0 1-.44.4c-2.08 0-4.32-1-4.32-3.4 0-1.64 1.12-3.32 1.12-5 0-1.12-1.2-1.48-2-1.92l-.12.28c-1.92 3.52-6.24 6.52-9.8 8.36a12.68 12.68 0 0 1-6.6 1.68.44.44 0 0 1-.4-.44.43.43 0 0 1 .4-.4 11.09 11.09 0 0 0 3.44-.6c4.12-1.32 10.12-5.36 12.08-9.44-.92-.48-2-1.16-2-2.32a1.73 1.73 0 0 1 1.76-1.68 2 2 0 0 1 2 2 4.12 4.12 0 0 1-.24 1.4c1.36.6 2.72 1.32 2.72 3s-1.16 3.8-1.16 5.16c0 1.6 1.8 2.48 3.12 2.48zm-5.8-11.16a3 3 0 0 0 .12-.84c0-.32-.16-.8-.6-.8a.65.65 0 0 0-.64.6c.04.44.76.8 1.12 1.04z"/><path class="a" d="M59.27 21.56a.44.44 0 0 1 .44.4.44.44 0 0 1-.44.44c-2 0-4.28-1-4.28-3.36 0-1.72 1.08-3.32 1.08-5 0-1.08-1.2-1.6-2-2h-.12a24.78 24.78 0 0 1-4.24 5.36c-1.76 1.68-3.32 3.48-5.52 4.56a4.5 4.5 0 0 1-2 .48c-.28 0-.64 0-.64-.44a.43.43 0 0 1 .4-.4 4.43 4.43 0 0 0 1.6-.36c2.44-1.08 8.32-7 9.6-9.68-.92-.48-2-1.16-2-2.32a1.73 1.73 0 0 1 1.76-1.68 2 2 0 0 1 2 1.92 3.83 3.83 0 0 1-.36 1.48h.12c1.36.6 2.72 1.32 2.72 3s-.8 3.16-1.12 4.76a1.36 1.36 0 0 0 0 .4c-.12 1.56 1.68 2.44 3 2.44zm-5.8-11.16a3 3 0 0 0 .12-.84c0-.32-.16-.8-.6-.8a.65.65 0 0 0-.64.6c.04.44.76.8 1.13 1.04z"/><path class="a" d="M72.87 18.52a4.83 4.83 0 0 0 .52 1.24 3.08 3.08 0 0 0 2.68 1.8.44.44 0 0 1 .44.4.44.44 0 0 1-.44.44c-3.56 0-4.08-3.52-5-3.52s-2.12 4.32-5.64 4.32a2 2 0 0 1-2.16-2.12v-.24a5.92 5.92 0 0 1-4.08 1.56.4.4 0 0 1-.44-.44.43.43 0 0 1 .4-.4c1.8 0 3.32-1.28 4.64-2.4 1-1.72 3-3.8 5.16-3.8a2.87 2.87 0 0 1 2.48 1.28c1.16-.12 1.2 1.08 1.44 1.88zm-2.84-.92c-.32-.52-.68-1-1.32-1-1.68 0-4.08 2.68-4.08 4.28a1.09 1.09 0 0 0 1.16 1.16c1.81-.05 3.27-3.2 4.27-4.44z"/><path class="a" d="M104.63 16.8c.84 1.32.84 4 2.36 4.6a3.1 3.1 0 0 0 .84.16c.2 0 .4.16.4.4a.44.44 0 0 1-.4.44c-4 0-3.24-4.76-4.6-4.76-.36 0-.64.36-.84.64A30.72 30.72 0 0 1 99.47 22a1.71 1.71 0 0 1-1.08.4 1.32 1.32 0 0 1-1.28-1c-.48-1.2-.76-2.44-1.24-3.6-.12-.28-.28-.72-.64-.72-1.12 0-3.4 5.4-5.28 5.4a1.31 1.31 0 0 1-1.2-1.44c0-1.36.72-2.84.72-4.2a.8.8 0 0 0-.8-.88c-2.44 0-7.12 6.4-11.6 6.4-.4 0-1.52.24-1.52-.44a.44.44 0 0 1 .44-.4 10.26 10.26 0 0 0 6.24-2.4c1.4-1 3.92-3.48 5.36-4.08a3.29 3.29 0 0 1 1.2-.28 1.88 1.88 0 0 1 1.88 2.08c0 1.24-.8 2.72-.8 3.92 0 .2 0 .48.24.48.92 0 3.52-5.6 5.44-5.6 2.12 0 1.8 5.16 3 5.16.64 0 2.64-3.16 3.08-3.72a2.32 2.32 0 0 1 1.72-1 1.46 1.46 0 0 1 1.28.72z"/><path class="a" d="M122.47 15.2a2 2 0 0 1-.24.84 3.06 3.06 0 0 1-1 .88c-.52.32-1.08.56-1.6.84-1 .52-1.84 1.08-2.8 1.56.16 1.52 1.16 2 2.56 2.24.2 0 .44.16.44.4a.44.44 0 0 1-.44.44 3.87 3.87 0 0 1-3.72-2.48c-2.52 1.24-5 2.48-7.92 2.48a.45.45 0 0 1-.48-.44.44.44 0 0 1 .44-.4 11.59 11.59 0 0 0 3.52-.6 36 36 0 0 0 4.36-2c0-2.36 2.16-5.48 4.72-5.48a2 2 0 0 1 2.16 1.72zm-1.72.6a.66.66 0 0 0 .2-.48c0-.48-.48-.64-.88-.64-1.72 0-2.84 2.08-3.16 3.52a26 26 0 0 0 3.84-2.4z"/><path class="a" d="M144.43 17.84c.48 1.68.8 3.72 3 3.72a.43.43 0 0 1 .4.4.41.41 0 0 1-.4.44c-4.4 0-3.72-5.28-5-5.28-1.08 0-3.4 5.4-5.28 5.4-.84 0-1.16-.76-1.16-1.48 0-1.32.68-2.76.68-4 0-.6-.16-.88-.8-.88-.84 0-2.68 1.36-3.48 1.8-3.64 2-8.84 4.4-13 4.4a.41.41 0 0 1-.4-.44c0-.36.28-.4.56-.4 2.56 0 5.76-1.28 8.12-2.28a48.25 48.25 0 0 0 6.84-3.88 2.8 2.8 0 0 1 1.56-.52 1.83 1.83 0 0 1 1.84 2c0 1.24-.8 2.76-.8 3.92 0 .2 0 .48.24.48.88 0 3.6-5.64 5.44-5.64.96.04 1.4 1.39 1.64 2.24z"/><path class="a" d="M161.67 11.56c0 1-2.8 1-3.48 1.08a1.67 1.67 0 0 1-.16.4 14.68 14.68 0 0 0-1.32 5.16 3.06 3.06 0 0 0 1 2.48 3.92 3.92 0 0 0 2.2.84c.2 0 .44.16.44.4a.44.44 0 0 1-.44.44 3.9 3.9 0 0 1-4.08-4 13.16 13.16 0 0 1 .32-2.52c-1.44 2.52-5.72 6.56-8.8 6.56a.44.44 0 0 1-.44-.44c0-.24.24-.36.44-.4a8.74 8.74 0 0 0 4-2 17.73 17.73 0 0 0 5.16-6.84c-.64 0-1.24.08-1.88.08-.36 0-1.24-.12-1.24-.64 0-.8 3-.72 3.64-.72.2-.52.88-2.6 1.56-2.6.52 0 .6.88.6 1.24a5.73 5.73 0 0 1-.44 1.32 14.44 14.44 0 0 1 2.28 0c.16 0 .64-.12.64.16z"/><path class="a" d="M173.55 18.52a4.83 4.83 0 0 0 .52 1.24 3.08 3.08 0 0 0 2.68 1.8.44.44 0 0 1 .44.4.44.44 0 0 1-.44.44c-3.56 0-4.08-3.52-5-3.52s-2.12 4.32-5.64 4.32a2 2 0 0 1-2.16-2.12v-.24a5.92 5.92 0 0 1-4.08 1.56.4.4 0 0 1-.44-.44.43.43 0 0 1 .4-.4c1.8 0 3.32-1.28 4.64-2.4 1-1.72 3-3.8 5.16-3.8a2.87 2.87 0 0 1 2.48 1.28c1.16-.12 1.2 1.08 1.44 1.88zm-2.84-.92c-.32-.52-.68-1-1.32-1-1.68 0-4.08 2.68-4.08 4.28a1.09 1.09 0 0 0 1.16 1.16c1.8-.05 3.28-3.2 4.24-4.44z"/><path class="a" d="M195.71 16.92a3.57 3.57 0 0 1 1.44 2.72c0 4.16-5.44 5.32-8.68 5.32-.32 0-1.12-.16-1.12-.6s.64-.52 1-.52a13.79 13.79 0 0 0 3.4-.32 5.33 5.33 0 0 0 3.56-2.12 2.9 2.9 0 0 0 .52-1.72c0-2.16-3.92-4.32-5.32-5.84a69 69 0 0 1-7.44 6.24c-2.24 1.56-3.56 2.32-6.36 2.32a.44.44 0 0 1-.44-.4.44.44 0 0 1 .44-.44 9 9 0 0 0 4.36-1.36 11.67 11.67 0 0 0 1.28-.84 61.06 61.06 0 0 0 5.88-4.76l1.68-1.6a2.72 2.72 0 0 1-.32-1.24c0-1.48 1.48-3.6 3.08-3.6a1.21 1.21 0 0 1 1.24 1.28c0 1.32-1.56 2.84-2.56 3.6h-.08c1.36 1.4 2.96 2.6 4.44 3.88zm-5-5.12v.4c.48-.44 2-1.8 2-2.48a.34.34 0 0 0-.36-.36c-.8 0-1.6 1.76-1.6 2.44z"/></svg>