<svg xmlns="http://www.w3.org/2000/svg" viewBox="0 0 330.28 27.05"><defs><style>.a{fill:#725993}</style></defs><title>p14_s2</title><path class="a" d="M16.06 13.4a.51.51 0 0 1 .54.5c0 .54-.5.79-1.49 1 .37 6.35 1 9.58 1 9.92s-.29.46-.62.46c-1 0-1-2.36-1.16-3.61l-.62-6.47c-2.12.42-8.55 1.37-8.55 1.54-1.7 3.82-2.45 5.27-3.24 7.3-.25.58-.5 1.37-1.37 1.37-.33 0-.5-.21-.5-.54s2.2-5.23 3.53-8c-.37 0-.66.08-.91.08-.87 0-1.2-.33-1.2-.66 0-.79 1.24-.58 2.78-.91C6.91 9.49 9.44 3.22 10.6 1.86a2.05 2.05 0 0 1 1.62-.91c1.87 0 1.78 3.44 1.95 5 .25 2.53.5 4.19.87 7.68l.62-.08a1.86 1.86 0 0 1 .4-.15zm-2.53.37c-.33-4.52-.71-7.34-1-10-.08-.66-.29-1-.62-1-.75 0-3.28 6-6.06 12.36 3-.46 4.61-.71 6.89-1.12zm18.09 5.69c.54 1.7.87 3.86 3.11 3.86a.43.43 0 0 1 .46.42.46.46 0 0 1-.46.46c-4.48 0-3.9-5.48-5.23-5.48-1.08 0-3.57 5.6-5.44 5.6-.83 0-1.2-.79-1.2-1.49 0-1.41.66-2.78.66-4.15 0-.54 0-1.16-.71-1.16-1.12 0-2.7 1.49-3.4 1.49a.38.38 0 0 1-.42-.33c0-.91 2.95-2.37 3.86-2.37a1.91 1.91 0 0 1 1.91 2.12c0 1.45-.83 3-.83 4.27a.32.32 0 0 0 .29.33h.17c1.54-1.54 2.49-3.53 4-5.06a2.26 2.26 0 0 1 1.45-.75c1.15-.05 1.53 1.36 1.78 2.24z"/><path class="a" d="M49.51 12.94c0 1-2.9 1.08-3.61 1.12a1.73 1.73 0 0 1-.17.42 15.21 15.21 0 0 0-1.37 5.35 3.18 3.18 0 0 0 1 2.57 4.06 4.06 0 0 0 2.28.87c.21 0 .46.17.46.42a.46.46 0 0 1-.46.46 4 4 0 0 1-4.23-4.19 13.64 13.64 0 0 1 .33-2.61c-1.49 2.61-5.93 6.8-9.13 6.8a.46.46 0 0 1-.46-.46c0-.25.25-.37.46-.42a9.07 9.07 0 0 0 4.19-2.07 18.41 18.41 0 0 0 5.35-7.09c-.66 0-1.29.08-2 .08-.37 0-1.29-.12-1.29-.66 0-.83 3.07-.75 3.78-.75.21-.54.91-2.7 1.62-2.7.54 0 .62.91.62 1.29a5.92 5.92 0 0 1-.46 1.37 15 15 0 0 1 2.36 0c.26.04.73-.09.73.2z"/><path class="a" d="M62.98 16.72a2.12 2.12 0 0 1-.25.87 3.17 3.17 0 0 1-1 .91c-.54.33-1.12.58-1.66.87-1 .54-1.91 1.12-2.9 1.62.17 1.58 1.2 2.12 2.66 2.32.21 0 .46.17.46.42a.46.46 0 0 1-.46.46 4 4 0 0 1-3.86-2.57c-2.61 1.29-5.23 2.57-8.21 2.57a.47.47 0 0 1-.5-.46.45.45 0 0 1 .46-.42 12.06 12.06 0 0 0 3.65-.62 37.31 37.31 0 0 0 4.52-2.12c0-2.45 2.24-5.68 4.9-5.68a2.05 2.05 0 0 1 2.19 1.83zm-1.78.62a.69.69 0 0 0 .21-.5c0-.5-.5-.66-.91-.66-1.78 0-2.95 2.16-3.28 3.65a27 27 0 0 0 3.98-2.49z"/><path class="a" d="M83.6 18.5a3.54 3.54 0 0 1 1.54 2.9c0 2.78-2.82 4.44-5.27 5a16.09 16.09 0 0 1-3.73.41c-.33 0-1.16-.17-1.16-.62s.66-.54 1-.54a14.54 14.54 0 0 0 3.53-.33 5.53 5.53 0 0 0 3.69-2.2 3 3 0 0 0 .54-1.78c0-2.24-4.15-4.48-5.56-6.1A40.49 40.49 0 0 1 71 20.8a23.32 23.32 0 0 1-11.2 3.32.45.45 0 0 1-.46-.41.46.46 0 0 1 .46-.46 13.87 13.87 0 0 0 3.69-.46 42.22 42.22 0 0 0 5-1.87 33.87 33.87 0 0 0 7.43-4.9l1.74-1.66a2.83 2.83 0 0 1-.33-1.29c0-1.54 1.53-3.73 3.19-3.73a1.25 1.25 0 0 1 1.29 1.33c0 1.41-1.62 2.95-2.66 3.73h-.08c1.38 1.54 2.99 2.77 4.53 4.1zm-5.1-5.35v.46c.5-.46 2-1.87 2-2.61a.34.34 0 0 0-.37-.33c-.85-.01-1.62 1.77-1.62 2.48zm32.07-1.83c.71-2.82 3.15-11.33 6.64-11.33a1.35 1.35 0 0 1 1.37 1.54 11.57 11.57 0 0 1-1.2 4.19c-.71 1.58-1.66 3-2.49 4.56-1.12 2-2.12 4.07-3.36 6-.21.33-.41.66-.66 1 .25 1.62.37 3.19 1.62 4.44a5.9 5.9 0 0 0 4.15 1.58.43.43 0 0 1 .46.42.46.46 0 0 1-.46.46c-3.69 0-5.93-2.07-6.64-5.6-1.62 2.24-4.27 6.14-7.34 6.14a2.53 2.53 0 0 1-2.66-2.57c0-2.49 3.11-5.06 5.56-5.06a3 3 0 0 1 2.78 2c.54-.71 1-1.41 1.49-2.12a23.39 23.39 0 0 1 .74-5.65zm-3.24 9a1.93 1.93 0 0 0-2-1.83c-1.7 0-4 1.74-4 3.57a1.28 1.28 0 0 0 1.37 1.37c1.98-.03 3.47-1.78 4.63-3.1zm5.68-8.67c.75-1.33 1.45-2.7 2.16-4.07s2.07-3.53 2.07-5c0-.42-.17-.83-.66-.83-1.87 0-4 6.72-4.48 8.26a29 29 0 0 0-1.24 5.31z"/><path class="a" d="M130.4 24.02a7.88 7.88 0 0 1-1.7.17c-1.58 0-3.44-1-3.86-2.57-2.66 1.33-5.23 2.57-8.26 2.57a.46.46 0 0 1-.46-.46.45.45 0 0 1 .46-.42 12.28 12.28 0 0 0 3.65-.62 34.06 34.06 0 0 0 4.48-2.12 6.59 6.59 0 0 1 3.44-5.35 2.88 2.88 0 0 1 1.45-.33c1.08 0 2.28.62 2.28 1.83a2.12 2.12 0 0 1-.25.87 2.89 2.89 0 0 1-1.08.91c-.54.33-1.08.58-1.62.87-1 .54-1.91 1.12-2.9 1.62a2.6 2.6 0 0 0 2.7 2.32 6.23 6.23 0 0 0 3.9-1.12 9.92 9.92 0 0 1 .91-.66c.17 0 .21.08.21.25.01 1.33-2.36 2.03-3.35 2.24zm-4.27-4.19a27 27 0 0 0 4-2.49.77.77 0 0 0 .21-.5c0-.5-.54-.66-1-.66-1.68 0-2.97 2.16-3.22 3.65zm31.52-3.36a1.53 1.53 0 0 1 .29 1.12 8.19 8.19 0 0 0 1.41 4.81 2.6 2.6 0 0 0 1 .71c.42.17 1.62.08 1.62.62a.46.46 0 0 1-.46.46c-3 0-4.48-3.07-4.65-5.68a14.75 14.75 0 0 1-4.27 5.06 8.55 8.55 0 0 1-5.27 2c-.37 0-1.58-.12-1.58-.66 0-.29.62-.29.83-.29a7.42 7.42 0 0 0 2.86-.46 10.89 10.89 0 0 0 3.11-2 11.51 11.51 0 0 0 3.15-4.15 4.61 4.61 0 0 1 .75-1.41 1 1 0 0 1 .71-.33.67.67 0 0 1 .5.2zm-.79-6.43c0-.42.37-.58.75-.58.66 0 1 .87 1 1.45 0 .33-.17.62-.5.62-.54 0-1.24-.99-1.24-1.49z"/><path class="a" d="M186.28 17.63c0 .17-.17.21-.29.21a7.25 7.25 0 0 1-1.37-.21 9.78 9.78 0 0 0-1.58-.08c-4.44 0-7.38 2.53-9.87 6-.29.42-1 1.29-1.54 1.29-1.45 0-1-4.77-1.2-5.73 0-.21-.12-.46-.37-.46-.87 0-4.73 5.56-8.46 5.56-.29 0-.66 0-.66-.46 0-.25.25-.37.46-.42a5.69 5.69 0 0 0 1.66-.37c2.12-1 4.23-3.28 5.89-4.94a2.33 2.33 0 0 1 1.49-.87c1.24 0 1.2 2 1.2 2.78v2.7c0 .21 0 .58.29.58s1.08-1.16 1.2-1.29a20.48 20.48 0 0 1 2.28-2.36 12.73 12.73 0 0 1 8-2.95c.75-.02 2.87.02 2.87 1.02zm24.73-.87c0 2.12-4.07 2.86-5.6 3.4a.59.59 0 0 1-.29.08v.46a2.6 2.6 0 0 0 2.7 2.61c.25 0 .46.12.46.42a.46.46 0 0 1-.46.46c-2 0-4.11-1.45-4-3.61a15.35 15.35 0 0 1-2.74.29c-.37 0-1.24-.25-1.24-.75 0-.29.46-.29.66-.29a16.71 16.71 0 0 0 3.53-.42v-.17a6.36 6.36 0 0 1 3.19-4 2.88 2.88 0 0 1 1.45-.33 2.08 2.08 0 0 1 2.34 1.85zm-1.7 0c0-.42-.46-.54-.83-.54-1.49 0-2.66 1.62-3.11 2.9.91-.18 3.93-1.28 3.93-2.4z"/><path class="a" d="M241.46 18.38c.87 1.37.83 4.11 2.41 4.77a3.23 3.23 0 0 0 .87.17c.21 0 .46.17.46.42a.46.46 0 0 1-.46.46c-4.11 0-3.36-4.94-4.73-4.94-1.12 0-3.07 4.94-5 4.94a1.42 1.42 0 0 1-1.33-1c-.5-1.2-.75-2.53-1.29-3.73-.12-.29-.33-.75-.71-.75-1.12 0-3.53 5.6-5.44 5.6-.83 0-1.2-.79-1.2-1.49 0-1.41.66-2.78.66-4.15 0-.58-.21-1-.83-1a2 2 0 0 0-1 .33c-.87.54-1.74 1.12-2.66 1.62-3.82 2.12-9.13 4.56-13.53 4.56a.46.46 0 0 1-.46-.46c0-.37.33-.42.62-.42 2.66 0 6-1.37 8.42-2.36a30.53 30.53 0 0 0 4.15-2.2c1-.62 3.4-2.57 4.52-2.66h.29c1.16 0 1.7.91 1.7 2 0 1.62-.87 3.32-.87 4.61a.32.32 0 0 0 .29.33c.87 0 3.65-5.81 5.64-5.81s1.87 5.35 3.15 5.35c.66 0 2.74-3.28 3.19-3.86a2.33 2.33 0 0 1 1.74-1.08 1.58 1.58 0 0 1 1.4.75z"/><path class="a" d="M266.93 16.18a6.52 6.52 0 0 0 1.2 2.24 4.84 4.84 0 0 0 3.07 1.83c.37 0 1.12-.08 1.12.5a.43.43 0 0 1-.42.46c-2.57 0-5.23-2.07-6.39-4.27-1.2 2.95-3.53 8-7.3 8-2 0-3-1.54-3-3.4a10.79 10.79 0 0 1 .29-2.32c-2.74 2.74-6.43 4.94-10.37 4.94-.33 0-.91.08-.91-.46a.43.43 0 0 1 .46-.42 16.1 16.1 0 0 0 2-.17 13.11 13.11 0 0 0 3.53-1.2 21.78 21.78 0 0 0 5.81-4.48c0-.17 1.08-3.28 1.25-3.69 1-2.95 4.19-11.45 7.84-11.45a2 2 0 0 1 1.91 2.16c0 2.24-1.95 4.65-3.36 6.31-.79.91-1.66 1.78-2.49 2.66l-4.07 4.23a15 15 0 0 0-.62 3.82c0 1 .46 2.2 1.66 2.2 1.66 0 2.95-1.37 3.86-2.61 1.33-1.83 1.74-3.61 2.53-5.64.17-.42.42-.83.91-.83.91.01 1.24.84 1.49 1.59zm-4-11a57.28 57.28 0 0 0-5 10l-.08.29c1.66-1.78 6.06-6.47 7-8.38a5.18 5.18 0 0 0 .58-2c0-.5-.17-1.08-.75-1.08s-1.4.72-1.77 1.22z"/><path class="a" d="M285.97 20.16a16.06 16.06 0 0 0 2.45.13.46.46 0 0 1 .46.46.46.46 0 0 1-.46.46 16.05 16.05 0 0 1-2.7-.17c-.83 2.2-3.28 4.19-5.52 4.19-1.74 0-2.66-1.49-2.66-3.07v-.22a3.35 3.35 0 0 1 0-.58 9.3 9.3 0 0 1 .54-1.74 13.13 13.13 0 0 1-6.35 1.62.46.46 0 0 1-.46-.46.46.46 0 0 1 .46-.46 15 15 0 0 0 7.34-2.41c1.2-1.74 2.78-3 4-3s1.66 1 1.66 2.07a3.07 3.07 0 0 1 1.2 2.57 3.6 3.6 0 0 1 .04.61zm-1.49.54a2.87 2.87 0 0 1-2.32-2.7c0-.87.66-1.33 1.62-1.41a.84.84 0 0 0-.71-.46 1.65 1.65 0 0 0-1 .37 8.42 8.42 0 0 0-3.15 5.77 1.7 1.7 0 0 0 1.74 1.83c1.12 0 3.12-1.41 3.85-3.4zm.25-.87v-.58c0-.87-.46-1.58-1.16-1.58-.17 0-.25.17-.25.33a1.87 1.87 0 0 0 1.41 1.83z"/><path class="a" d="M303.77 23.31a.45.45 0 0 1 .42.46.45.45 0 0 1-.42.41c-2.12 0-4.48-1-4.48-3.48 0-1.7 1.16-3.53 1.16-5.19 0-1.2-1.24-1.54-2.07-2a1.79 1.79 0 0 1-.17.29c-1.41 2.36-4.44 5.85-7.05 6.93a8.65 8.65 0 0 1-2.74.5.47.47 0 0 1-.5-.46.46.46 0 0 1 .46-.46 7 7 0 0 0 2.07-.33 6.79 6.79 0 0 0 2.82-1.83 19.57 19.57 0 0 0 4-5.23c-1-.5-2-1.2-2-2.45a1.83 1.83 0 0 1 1.87-1.7 2 2 0 0 1 2 2.12 4.27 4.27 0 0 1-.25 1.45c1.41.62 2.82 1.37 2.82 3.11s-.83 3.28-1.16 5a1.43 1.43 0 0 0 0 .42c-.04 1.57 1.81 2.44 3.22 2.44zm-6-11.58c0-.12.12-.66.12-.91s-.17-.83-.62-.83a.67.67 0 0 0-.66.62c-.02.46.77.92 1.15 1.13z"/><path class="a" d="M324.18 22.65c0 1-2.16 1.53-3 1.53-3.73 0-4.27-3.65-5.19-3.65s-2.24 4.48-5.85 4.48a2.08 2.08 0 0 1-2.28-2.24v-.21a6.31 6.31 0 0 1-4 1.62c-.33 0-.66 0-.66-.46a.45.45 0 0 1 .46-.42c1.87 0 3.4-1.33 4.77-2.49 1-1.83 3.19-3.94 5.39-3.94a2.81 2.81 0 0 1 2.53 1.33 1.14 1.14 0 0 1 1.16.74 7.09 7.09 0 0 1 .37 1.24c.46 1.62 1.45 3.15 3.32 3.15a7.12 7.12 0 0 0 2.74-1c.16.03.24.15.24.32zm-9.29-3.44c-.33-.54-.66-1-1.37-1-1.7 0-4.19 2.78-4.19 4.44a1.1 1.1 0 0 0 1.16 1.2c1.87-.04 3.41-3.36 4.4-4.64zm13.19 7.84a.31.31 0 0 1-.25-.29 13.56 13.56 0 0 1 .71-1.7c.25-.91-.08-2.53 1-2.53.54 0 .75.29.75.79a5.45 5.45 0 0 1-1.58 3.36 1.14 1.14 0 0 1-.63.37z"/></svg>