<svg xmlns="http://www.w3.org/2000/svg" viewBox="0 0 265.39 38.99"><defs><style>.a{fill:#fff}</style></defs><title>p14_s1</title><path class="a" d="M11.04 12.64a33.08 33.08 0 0 1-.16-3.4V8.6c0-3 0-6.68-.4-6.68s-.88.8-1.24 1.56c-1.08 2.2-1.88 4.2-3.36 7.76-.72 1.68-1.24 2.88-1.84 4.16-.48 1-1 2.12-1.68 3.68-.84 2-1.4 2.6-1.76 2.6a.64.64 0 0 1-.6-.64 1.48 1.48 0 0 1 .16-.56c.56-1.4 3.88-9 6.12-14L7.4 3.96c.8-1.76 2.12-4 3.48-4 1.12 0 1.2 1.36 1.32 5.88 0 1.16 0 3 .12 4.64v.68c0 1.32 0 2.68.52 2.68s.68-.6 1.32-1.84c1.8-3.44 3.52-6.6 5.48-10C20.36.8 21.08 0 22 0c.72 0 1.2.44 1.2 2a38 38 0 0 1-.56 5.2l-.68 5.28-.12.84c-.24 1.8-.4 3.44-.52 5.4 0 1.24-.12 2.8-1 2.8-.36 0-.56-.36-.56-1.2s.64-6.08 1.52-13.24c.08-.64.16-1.36.28-2a22.47 22.47 0 0 0 .36-3c0-.2 0-.4-.24-.4-.52 0-2.56 3.44-4.72 7.84a33.91 33.91 0 0 1-3.44 5.64 1.48 1.48 0 0 1-1 .48c-.72 0-1.28-.4-1.44-2.4 0-.16-.04-.36-.04-.6zm24.92.96c0 2-3.92 2.76-5.4 3.28a.58.58 0 0 1-.28.08v.44a2.5 2.5 0 0 0 2.6 2.52c.24 0 .44.12.44.4a.44.44 0 0 1-.44.44c-1.92 0-4-1.4-3.84-3.48a14.78 14.78 0 0 1-2.64.28c-.36 0-1.2-.24-1.2-.72 0-.28.44-.28.64-.28a16.14 16.14 0 0 0 3.4-.4V16a6.13 6.13 0 0 1 3.08-3.88 2.78 2.78 0 0 1 1.4-.32 2 2 0 0 1 2.24 1.8zm-1.64 0c0-.4-.44-.52-.8-.52-1.44 0-2.56 1.56-3 2.8.88-.2 3.8-1.24 3.8-2.32z"/><path class="a" d="M57.88 16.2c.48 1.68.8 3.72 3 3.72a.43.43 0 0 1 .4.4.41.41 0 0 1-.4.44c-4.4 0-3.72-5.28-5-5.28-1.08 0-3.4 5.4-5.28 5.4-.84 0-1.16-.76-1.16-1.48 0-1.32.68-2.76.68-4 0-.6-.16-.88-.8-.88-.84 0-2.68 1.36-3.48 1.8-3.64 2-8.84 4.4-13 4.4a.41.41 0 0 1-.4-.44c0-.36.28-.4.56-.4 2.56 0 5.76-1.28 8.12-2.28a48.25 48.25 0 0 0 6.84-3.88 2.8 2.8 0 0 1 1.56-.52 1.83 1.83 0 0 1 1.84 2c0 1.24-.8 2.76-.8 3.92 0 .2 0 .48.24.48.88 0 3.6-5.64 5.44-5.64.95.04 1.4 1.44 1.64 2.24z"/><path class="a" d="M74.88 23.08c-1.16 0-2.52-.4-2.52-1.76a2.78 2.78 0 0 1 1.12-2c1.52-1.32 4.4-1.72 6.36-2-1-2-3.84-3.44-5.28-5.12a61.77 61.77 0 0 1-7.44 6.28c-2.2 1.56-3.52 2.32-6.32 2.32a.45.45 0 0 1-.48-.4.44.44 0 0 1 .44-.44 9 9 0 0 0 4.36-1.36c3.28-1.88 6.12-4.64 8.88-7.2a2.18 2.18 0 0 1-.36-1.12c0-1.56 1.4-3.72 3.08-3.72a1.21 1.21 0 0 1 1.24 1.28c0 1.32-1.56 2.84-2.52 3.6h-.08c1.44 1.36 3 2.52 4.44 3.84a4.66 4.66 0 0 1 1.28 1.8c.4 0 1.28-.08 1.52-.08a.44.44 0 0 1 .44.44.44.44 0 0 1-.44.44h-1.28c.28 3.04-3.84 5.2-6.44 5.2zm5.16-4.76v-.24c-1.68.16-6.64.84-6.64 3.12 0 .8.8 1 1.48 1 2.04.04 5.16-1.52 5.16-3.88zm-5.16-8.2a1.53 1.53 0 0 0 0 .44c.48-.44 1.92-1.8 1.92-2.48a.34.34 0 0 0-.36-.36c-.8 0-1.56 1.76-1.56 2.4z"/><path class="a" d="M96.08 16.88a4.8 4.8 0 0 0 .52 1.24 3.07 3.07 0 0 0 2.68 1.8.44.44 0 0 1 .44.4.44.44 0 0 1-.44.44c-3.56 0-4.08-3.52-5-3.52s-2.12 4.32-5.6 4.32a2 2 0 0 1-2.2-2.12 4.53 4.53 0 0 1 .92-2.56 10.52 10.52 0 0 1-4.84 1 .41.41 0 0 1-.4-.44.41.41 0 0 1 .4-.44 12.77 12.77 0 0 0 5.52-1.48l1.16-.6a3.8 3.8 0 0 0 .48-.36 4.21 4.21 0 0 1 2.48-.84A2.76 2.76 0 0 1 94.64 15c1.11-.12 1.24 1.08 1.44 1.88zm-2.84-.92c-.32-.52-.68-1-1.32-1-1.68 0-4 2.68-4 4.28a1.06 1.06 0 0 0 1.12 1.16c1.71 0 3.24-3.2 4.2-4.44z"/><path class="a" d="M113.08 25.72c-2.4 2.4-6 6.12-6 9.52a2.17 2.17 0 0 0 2.28 2.4 4 4 0 0 0 3.08-1.6c3.12-4 4.72-9.16 5-14.92v-1c0-.52 0-2.32-.8-2.32a1.6 1.6 0 0 0-.72.28 6.54 6.54 0 0 1 .08.88c0 .4-.2 1-.68 1s-.36-.84-.36-1.12c-1.28 1-2.8 2.48-4.56 2.48s-2.88-.72-2.88-2.48a4.36 4.36 0 0 1 .12-1c-2.52 1.76-4.92 3-8 3-.36 0-.88.08-.88-.44a.43.43 0 0 1 .4-.4 10.36 10.36 0 0 0 1.92-.16 15.44 15.44 0 0 0 6.44-3l.76-.68c.64-1.48 2.24-3.48 4-3.48 1.92 0 3.12 2.44 3.48 4.08a2.28 2.28 0 0 1 1.24-.4c1.12 0 1.32 1.2 1.36 2.08s.08 1.84.08 2.76c0 6-2.48 13.64-6.6 17a3.87 3.87 0 0 1-2.52.88 3.39 3.39 0 0 1-3.52-3.64c0-3.88 4.16-8.44 7.32-11a13.72 13.72 0 0 1 2.76-2 .45.45 0 0 1 .44.48c0 .12-.2.32-.32.4a21.87 21.87 0 0 0-2.92 2.4zm1.84-8.4c-.2-1.28-1.16-3.24-2.64-3.24-1.72 0-3.28 2.76-3.28 4.32a1.37 1.37 0 0 0 1.56 1.48c1.8 0 3.08-1.48 4.36-2.56z"/><path class="a" d="M131.56 13.56a2 2 0 0 1-.24.84 3.06 3.06 0 0 1-1 .88c-.52.32-1.08.56-1.6.84-1 .52-1.84 1.12-2.8 1.56.16 1.52 1.16 2 2.56 2.24.2 0 .44.16.44.4a.44.44 0 0 1-.44.44 3.86 3.86 0 0 1-3.72-2.52 58.6 58.6 0 0 0-6.12 3.12 26.71 26.71 0 0 1-2.76 1.8.44.44 0 0 1-.44-.4.45.45 0 0 1 .12-.32 18.4 18.4 0 0 1 1.84-1.28 51.15 51.15 0 0 1 7.28-3.92c0-2.36 2.2-5.44 4.72-5.44a2 2 0 0 1 2.16 1.76zm-1.72.6a.67.67 0 0 0 .2-.48c0-.48-.48-.64-.88-.64-1.72 0-2.84 2.08-3.16 3.52a26.06 26.06 0 0 0 3.84-2.4z"/><path class="a" d="M165.83 19.72c0 .72-1.52 1-2.08 1-3.68 0-2.84-4.76-4.2-4.76-.36 0-.64.36-.84.64a27.47 27.47 0 0 1-3 3.72 1.6 1.6 0 0 1-1 .4 1.42 1.42 0 0 1-1.32-1c-.48-1.16-.68-2.44-1.2-3.6-.12-.28-.32-.72-.68-.72-1.08 0-3.44 5.4-5.24 5.4a1.25 1.25 0 0 1-1.2-1.4c0-1.36.68-2.68.68-4 0-.56-.2-1-.8-1a1.81 1.81 0 0 0-.92.32c-4.32 2.72-10.48 6-15.6 6a.44.44 0 0 1-.44-.44c0-.36.36-.4.6-.4 2.64 0 5.68-1.28 8.08-2.28a27.76 27.76 0 0 0 4-2.12c1-.6 3.28-2.48 4.36-2.56h.28c1.12 0 1.64.88 1.64 1.92a10.4 10.4 0 0 1-.48 2.52 12.42 12.42 0 0 0-.32 1.76v.16a.31.31 0 0 0 .28.32c.84 0 3.52-5.6 5.44-5.6s1.8 5.16 3 5.16c.6 0 2.68-3.16 3.08-3.72a2.25 2.25 0 0 1 1.68-1 1.53 1.53 0 0 1 1.28.72c1.08 1.72.28 4.68 3.12 4.68.52 0 1-.32 1.52-.32.2-.04.28.04.28.2zM197.63 4a5.55 5.55 0 0 1-1.12 3.2c-1.44 2.28-4.44 4.8-6.52 6.52-.64.52-1.36 1-2 1.6l-.48.44-.32 1.12a11.12 11.12 0 0 0 3.08 2.2 8.81 8.81 0 0 0 3.64.84.44.44 0 0 1 .44.4.44.44 0 0 1-.44.44 10.16 10.16 0 0 1-6.28-2.2c-.24-.2-.56-.36-.76-.56l-.24 1c2.08 2.72 5.24 7 5.24 10.52 0 2.12-1.28 4.32-3.6 4.32-3 0-4-3.4-4-5.88a39.32 39.32 0 0 1 1.12-8.6l-.92-1.08c-1.48 1-4.08 2.52-5.88 2.52-.4 0-1.32-.16-1.32-.72 0-.36 1.08-.24 1.32-.28a12.63 12.63 0 0 0 5.36-2.48 1.73 1.73 0 0 1-.16-.76.88.88 0 0 1 1-1 2.42 2.42 0 0 1 1 .24l.72-.64c1.28-4.12 3.32-9.32 6.72-12.24a3.8 3.8 0 0 1 2.36-1A1.92 1.92 0 0 1 197.63 4zm-7 25.32c0-3.12-2.44-6.6-4.32-8.92l-.08.36a35.82 35.82 0 0 0-.8 6.52c0 1.8.6 5.28 3 5.28 1.68 0 2.25-1.88 2.25-3.24zm-4.84-11.44a3.74 3.74 0 0 1 .16-.64 1.56 1.56 0 0 0-.4.32 2.27 2.27 0 0 0 .29.32zm5.72-7.08c1.16-1.08 4.56-4.76 4.56-6.28 0-.44-.16-.88-.68-.88-2.88 0-6.6 7.76-7.32 10.2 1.2-1 2.37-2 3.49-3.04z"/><path class="a" d="M204.48 13.36a1.39 1.39 0 0 1 .28 1 7.32 7.32 0 0 0 1.4 4.64 2.41 2.41 0 0 0 2 .88c.2 0 .44.16.44.4a.44.44 0 0 1-.44.44c-2.88 0-4.32-3-4.48-5.48a14.27 14.27 0 0 1-5.28 4.48 9.66 9.66 0 0 1-4.48 1 .44.44 0 0 1-.44-.44.44.44 0 0 1 .44-.4 8 8 0 0 0 4-1 12.3 12.3 0 0 0 4.24-3.88c.36-.52 1.08-2 1.8-2a.73.73 0 0 1 .52.36zm-.76-6.24c0-.4.36-.56.72-.56.64 0 1 .84 1 1.4 0 .32-.16.6-.48.6-.61 0-1.21-.92-1.21-1.44z"/><path class="a" d="M229.35 16.2c.48 1.68.84 3.72 3 3.72a.44.44 0 0 1 .44.4.44.44 0 0 1-.44.44c-4.36 0-3.76-5.28-5-5.28-1.12 0-3.44 5.4-5.28 5.4-.84 0-1.16-.76-1.16-1.48 0-1.32.68-2.76.68-4 0-.52-.08-1.12-.72-1.12-2.44 0-7.2 6.44-11.68 6.44-.4 0-1.52.2-1.52-.44a.44.44 0 0 1 .44-.4 10.26 10.26 0 0 0 6.24-2.4c1.4-1 3.92-3.48 5.36-4.08a3.29 3.29 0 0 1 1.2-.28 1.88 1.88 0 0 1 1.88 2.08c0 1.28-.8 2.72-.8 3.92 0 .2 0 .48.28.48.88 0 3.52-5.64 5.44-5.64.96.04 1.4 1.44 1.64 2.24z"/><path class="a" d="M245.95 16.88a4.83 4.83 0 0 0 .52 1.24 3.08 3.08 0 0 0 2.68 1.8.44.44 0 0 1 .44.4.44.44 0 0 1-.44.44c-3.56 0-4.08-3.52-5-3.52s-2.12 4.32-5.64 4.32a2 2 0 0 1-2.16-2.08v-.24a5.92 5.92 0 0 1-4.08 1.56.4.4 0 0 1-.44-.44.43.43 0 0 1 .4-.4c1.8 0 3.32-1.28 4.64-2.4 1-1.72 3-3.8 5.16-3.8a2.87 2.87 0 0 1 2.48 1.28c1.16-.16 1.24 1.04 1.44 1.84zm-2.84-.92c-.32-.52-.68-1-1.32-1-1.68 0-4.08 2.68-4.08 4.28a1.09 1.09 0 0 0 1.16 1.16c1.8 0 3.28-3.2 4.24-4.44z"/><path class="a" d="M265.39 20.08c0 .6-1.08.68-1.52.68a6.71 6.71 0 0 1-6.36-4.28c-2.44 2.84-4.6 4.28-8.44 4.28a.44.44 0 0 1-.44-.44.44.44 0 0 1 .44-.4 8 8 0 0 0 3.36-.56 12.43 12.43 0 0 0 4.68-4 11.47 11.47 0 0 1-.64-3.68 16.92 16.92 0 0 1 3.52-9.64c.68-.84 2-2.08 3.12-2.08s1.8 1.52 1.8 2.56c0 2.92-2.8 7.84-4.48 10.12-.28.36-.56.72-.8 1.08a18.23 18.23 0 0 1-1.24 1.68c.92 2.2 2.56 4.4 5.2 4.4.28.04 1.8-.16 1.8.28zm-3.6-18.16c-2.44 1.68-4 6.92-4 9.76a10.8 10.8 0 0 0 .28 2.52l.28-.44c.4-.56.84-1.08 1.2-1.6a38.75 38.75 0 0 0 2.44-3.84 14 14 0 0 0 1.84-5.36c0-.68-.28-1.4-1.08-1.4a1.86 1.86 0 0 0-1 .36z"/></svg>