<svg xmlns="http://www.w3.org/2000/svg" viewBox="0 0 511.18 88.21"><defs><style>.a{fill:#fff}</style></defs><title>p15_s3</title><path class="a" d="M19.12 5.64c0 .52-.69.61-1.13.61-1 0-2.08-.22-3.25-.22a24.8 24.8 0 0 0-4.86.39c-.52 0-.48 0-2.86 10.41a1.35 1.35 0 0 1 .43 0l.39-.09c2-.26 5.59-.39 5.64-.39h1.78c1.73 0 2 .26 2 .56 0 .74-2.34.65-6.16 1.08h-.35c-1.43.13-3.6.48-4.29.48-.87 3.64-1.56 6.33-2.08 8.24h.43c4-.52 6.85-1 10.19-1.39a9.09 9.09 0 0 1 1-.13c.91 0 1.43.3 1.43.78s-.78.52-2.12.52a13.53 13.53 0 0 1-1.78.26h-.3c-2.47.48-4.73.56-7.2 1-.65.13-1.39.3-2 .39-.35 1.21-.74 1.91-1.08 1.91a.64.64 0 0 1-.52-.69 3.51 3.51 0 0 1 .17-.82v-.09a4.08 4.08 0 0 1-1.08.17.56.56 0 0 1-.52-.56c0-.48.35-.78 2-1s0-.13 0-.17l2-8.33h-.26c-.22 0-.39-.13-.39-.3s.13-.69 1-1l1.6-6.5c.3-1.56.87-3.29 1-4.16-.91.17-1.52.22-1.91.26s-.65-.13-.65-.43.09-.74 3.3-1.17c1.56-.22 5.55-.43 6.2-.43a11.63 11.63 0 0 1 3.08.3c.39-.01 1.11-.01 1.15.51zM11.4 2.99c-.17 0-.26 0-.26-.17 0-.3 2.91-2.82 3.6-2.82.35 0 .65.17.65.43 0 .56-2.64 2.25-3.6 2.52a1.22 1.22 0 0 1-.43.05zm36.21 22.55h-1.13a9.92 9.92 0 0 1-2.25-.22c-.82 2.25-3 4.47-5.68 4.47-1.87 0-2.73-1.69-2.73-3.34a8.47 8.47 0 0 1 2.25-5.2c.78-1 2.21-2.3 3.51-2.3s1.78 1.21 1.78 2.3a2.21 2.21 0 0 1 1.26 2.17 6.52 6.52 0 0 1-.09.91 5.79 5.79 0 0 0 1.52.22h1.56c.22 0 .61.13.61.39a.65.65 0 0 1-.61.6zm-4.51-.56a3.18 3.18 0 0 1-2.47-2.69c0-.91.78-1.34 1.6-1.34a.7.7 0 0 0-.65-.48 2.12 2.12 0 0 0-1 .35 7.55 7.55 0 0 0-3.38 5.9 1.61 1.61 0 0 0 1.73 1.78 4.62 4.62 0 0 0 4.17-3.52zm.26-1.65a1.32 1.32 0 0 0-1.26-1.26c-.22 0-.3.26-.3.43a1.75 1.75 0 0 0 1.52 1.43 3.49 3.49 0 0 0 .04-.6zm26.8-2.82c0 .17-.13.22-.26.22-.48 0-.69-.65-1.65-.65-1.91 0-3.51 3.3-3.51 4.94a2.72 2.72 0 0 0 2.73 2.73c.26 0 .43.13.43.43a.45.45 0 0 1-.43.48c-2 0-4.16-1.43-4.16-3.64s2-5.94 4.51-5.94c.74.04 2.34.57 2.34 1.43z"/><path class="a" d="M89.07 24.46a16.9 16.9 0 0 0 2.56.13.48.48 0 0 1 .48.48.48.48 0 0 1-.48.48 16.76 16.76 0 0 1-2.82-.17c-.87 2.3-3.43 4.38-5.77 4.38-1.82 0-2.78-1.56-2.78-3.21a5.9 5.9 0 0 1 .39-2.08c-3.86 1.69-9.06 4.21-13.18 4.21a.45.45 0 0 1-.43-.48.47.47 0 0 1 .43-.43 13.75 13.75 0 0 0 3.73-.65 50.44 50.44 0 0 0 10.16-4.18 17.16 17.16 0 0 1 1.26-1.69c.78-1 2.21-2.34 3.51-2.34s1.73 1.08 1.73 2.17a3.21 3.21 0 0 1 1.26 2.69 3.68 3.68 0 0 1-.05.69zm-1.56.56c-1.3-.43-2.43-1.26-2.43-2.82 0-.91.69-1.39 1.69-1.47a.88.88 0 0 0-.74-.48 1.73 1.73 0 0 0-1.08.39 8.8 8.8 0 0 0-3.3 6 1.78 1.78 0 0 0 1.82 1.91c1.22.03 3.3-1.43 4.04-3.53zm.26-.91v-.61c0-.91-.48-1.65-1.21-1.65-.17 0-.26.17-.26.35a2 2 0 0 0 1.47 1.92z"/><path class="a" d="M118.36 22.6c1.17 1.86.56 4.86 3.43 5.16.22 0 .48.17.48.43a.48.48 0 0 1-.48.48c-4.38 0-3.47-5.16-4.94-5.16-.39 0-.69.39-.91.69a33.31 33.31 0 0 1-3.17 4 1.85 1.85 0 0 1-1.17.43 1.43 1.43 0 0 1-1.39-1c-.48-1.26-.78-2.65-1.34-3.9-.13-.3-.35-.78-.74-.78-1.17 0-3.69 5.85-5.68 5.85-.91 0-1.26-.82-1.26-1.6 0-1.39.74-2.95.74-4.12 0-.69 0-1.39-1-1.39a9.52 9.52 0 0 0-2.57 1.43 19.94 19.94 0 0 1-3.69 2 8.91 8.91 0 0 1-3 .52.49.49 0 0 1-.52-.48.48.48 0 0 1 .48-.48 8.69 8.69 0 0 0 3.43-.87c1.78-.82 4.29-3.3 6.16-3.3a2 2 0 0 1 2 2.21c0 1.52-.87 3.12-.87 4.47a.33.33 0 0 0 .3.35c.91 0 3.82-6.07 5.9-6.07 2.25 0 1.91 5.59 3.3 5.59.69 0 2.86-3.43 3.34-4a2.44 2.44 0 0 1 1.82-1.13 1.66 1.66 0 0 1 1.35.67z"/><path class="a" d="M137.68 20.86a2.21 2.21 0 0 1-.26.91 3.32 3.32 0 0 1-1.08 1c-.56.35-1.17.61-1.73.91-1 .56-2 1.17-3 1.69.17 1.65 1.26 2.21 2.78 2.43.22 0 .48.17.48.43a.48.48 0 0 1-.48.48 4.19 4.19 0 0 1-4-2.69c-2.73 1.34-5.46 2.69-8.59 2.69a.49.49 0 0 1-.52-.48.47.47 0 0 1 .48-.43 12.57 12.57 0 0 0 3.82-.65 39 39 0 0 0 4.73-2.21c0-2.56 2.34-5.94 5.12-5.94a2.14 2.14 0 0 1 2.25 1.86zm-1.87.65a.72.72 0 0 0 .22-.52c0-.52-.52-.69-1-.69-1.86 0-3.08 2.25-3.43 3.82a28.3 28.3 0 0 0 4.21-2.61z"/><path class="a" d="M151.16 27.76c.26 0 .43.13.43.43a.45.45 0 0 1-.43.48 3.91 3.91 0 0 1-4.16-3.69 4.82 4.82 0 0 1 .09-.78l-.61.26c-1.69.82-3.25 1.73-5 2.47a16.05 16.05 0 0 1-7.24 1.74.45.45 0 0 1-.43-.48.41.41 0 0 1 .43-.43 13.68 13.68 0 0 0 4.77-.87 54.5 54.5 0 0 0 8.46-4.12c.65-1.52 2.21-3.69 4-3.69.65 0 2.34.56 2.34 1.39a.25.25 0 0 1-.26.26c-.48 0-.74-.65-1.65-.65-1.91 0-3.51 3.3-3.51 4.94s1.21 2.56 2.77 2.74zm-2.82 5.64c0-.39.82-.39 1.39-1 1.39-1.47.35-3.3 1.39-3.3.3 0 .56.13.56.43 0 1.21-.35 3.73-2.78 4-.25.04-.54.04-.54-.14z"/><path class="a" d="M176.36 25.29c0 .82-1.69.78-2.21.78a4.68 4.68 0 0 1-1.73-.26 6.43 6.43 0 0 1-5.72 4c-1.86 0-2.73-1.69-2.73-3.34a6.22 6.22 0 0 1 .35-2l-.13.09c-3.86 1.65-8.93 4.12-13.05 4.12a.45.45 0 0 1-.43-.48.47.47 0 0 1 .43-.43 13.75 13.75 0 0 0 3.73-.65 50.81 50.81 0 0 0 10.19-4.16c.87-1.47 2.86-3.9 4.68-3.9 1.17 0 1.74 1.13 1.74 2.17v.17a3.31 3.31 0 0 1 1.3 2.69 4.74 4.74 0 0 1-.09.82 5.87 5.87 0 0 0 2 .22c.15-.01 1.67-.19 1.67.16zm-5.07 0c-.91-.52-2.6-1.73-2.6-2.91 0-.91.91-1.3 1.69-1.34a.75.75 0 0 0-.65-.48 2.12 2.12 0 0 0-1 .35 7.51 7.51 0 0 0-3.38 5.81 1.61 1.61 0 0 0 1.74 1.78 4.56 4.56 0 0 0 4.15-3.21zm.22-1.13c0-.61-.56-2-1.3-2-.17 0-.3.22-.3.39 0 .69 1.13 1.34 1.6 1.69zm31.39-8.94c.74-2.95 3.3-11.84 6.94-11.84a1.42 1.42 0 0 1 1.43 1.6 12.08 12.08 0 0 1-1.26 4.38c-.74 1.65-1.73 3.17-2.6 4.77-1.17 2.12-2.21 4.25-3.51 6.29-.22.35-.43.69-.69 1 .26 1.69.39 3.34 1.69 4.64a6.17 6.17 0 0 0 4.34 1.65.45.45 0 0 1 .48.43.48.48 0 0 1-.48.48c-3.86 0-6.2-2.17-6.94-5.85-1.69 2.34-4.47 6.42-7.68 6.42a2.64 2.64 0 0 1-2.78-2.69c0-2.6 3.25-5.29 5.81-5.29a3.13 3.13 0 0 1 2.91 2.08c.56-.74 1-1.47 1.56-2.21a24.42 24.42 0 0 1 .78-5.86zm-3.38 9.41a2 2 0 0 0-2.08-1.91c-1.78 0-4.16 1.82-4.16 3.73a1.34 1.34 0 0 0 1.43 1.43c2.03-.04 3.59-1.86 4.8-3.25zm5.94-9.06c.78-1.39 1.52-2.82 2.25-4.25s2.17-3.69 2.17-5.2c0-.43-.17-.87-.69-.87-2 0-4.16 7-4.68 8.63a30.3 30.3 0 0 0-1.3 5.55z"/><path class="a" d="M230.65 27.06c0 1.08-2.25 1.6-3.12 1.6-3.9 0-4.47-3.82-5.42-3.82s-2.34 4.68-6.12 4.68a2.18 2.18 0 0 1-2.38-2.34v-.22a6.6 6.6 0 0 1-4.21 1.69c-.35 0-.69 0-.69-.48a.47.47 0 0 1 .48-.43c2 0 3.56-1.39 5-2.6 1-1.91 3.34-4.12 5.64-4.12a2.94 2.94 0 0 1 2.65 1.39 1.19 1.19 0 0 1 1.21.74 7.4 7.4 0 0 1 .39 1.3c.48 1.69 1.52 3.3 3.47 3.3a7.43 7.43 0 0 0 2.86-1c.15.01.24.14.24.31zm-9.71-3.6c-.35-.56-.69-1.08-1.43-1.08-1.78 0-4.38 2.91-4.38 4.64a1.15 1.15 0 0 0 1.21 1.26c1.95 0 3.56-3.47 4.6-4.82zm38.89-6.54c0 1.08-3 1.13-3.77 1.17a1.83 1.83 0 0 1-.17.43 16.66 16.66 0 0 0-1.43 5.6 3.54 3.54 0 0 0 1 2.82 3.88 3.88 0 0 0 2.26.82c.22 0 .48.17.48.43a.48.48 0 0 1-.48.48 4 4 0 0 1-4.29-4.29 15.7 15.7 0 0 1 .39-2.82 15.1 15.1 0 0 1-1.6 2.13c-1.43 1.52-4.94 4.9-7.11 4.9-.35 0-1.13-.13-1.13-.56s1.08-.43 1.34-.52a9.67 9.67 0 0 0 3.3-1.91 19.24 19.24 0 0 0 5.59-7.42c-.65 0-1.34.09-2 .09-.43 0-1.39-.13-1.39-.69 0-.87 3.25-.78 3.95-.78.26-.56 1-2.82 1.69-2.82.52 0 .65.87.65 1.21a5 5 0 0 1-.48 1.56 15.72 15.72 0 0 1 2.47 0c.26-.01.73-.14.73.17z"/><path class="a" d="M276.57 27.76a.47.47 0 0 1 .48.43.48.48 0 0 1-.48.48c-2.21 0-4.64-1.08-4.64-3.64 0-1.86 1.17-3.6 1.17-5.46 0-1.17-1.3-1.73-2.21-2.12h-.13a26.84 26.84 0 0 1-4.6 5.81c-1.91 1.82-3.6 3.77-6 4.94a4.88 4.88 0 0 1-2.21.52c-.3 0-.69 0-.69-.48a.47.47 0 0 1 .43-.43 4.81 4.81 0 0 0 1.73-.39c2.65-1.17 9-7.59 10.41-10.49-1-.52-2.12-1.26-2.12-2.51a1.88 1.88 0 0 1 1.91-1.82 2.12 2.12 0 0 1 2.13 2.08 4.16 4.16 0 0 1-.39 1.6h.13c1.47.65 2.95 1.43 2.95 3.3s-.87 3.43-1.21 5.16a1.45 1.45 0 0 0 0 .43c-.04 1.63 1.91 2.59 3.34 2.59zm-6.29-12.1a3.29 3.29 0 0 0 .13-.91c0-.35-.17-.87-.65-.87a.7.7 0 0 0-.69.65c.04.48.82.87 1.22 1.13z"/><path class="a" d="M291.36 24.46a5.17 5.17 0 0 0 .56 1.34 3.33 3.33 0 0 0 2.91 2 .47.47 0 0 1 .48.43.48.48 0 0 1-.48.48c-3.86 0-4.42-3.82-5.42-3.82s-2.3 4.68-6.11 4.68a2.15 2.15 0 0 1-2.34-2.3v-.26a6.42 6.42 0 0 1-4.42 1.69.43.43 0 0 1-.48-.48.47.47 0 0 1 .43-.43c2 0 3.6-1.39 5-2.6 1-1.87 3.3-4.12 5.59-4.12a3.11 3.11 0 0 1 2.69 1.39c1.24-.17 1.29 1.13 1.59 2zm-3.08-1c-.35-.56-.74-1.08-1.43-1.08-1.82 0-4.42 2.91-4.42 4.64a1.18 1.18 0 0 0 1.26 1.26c1.9 0 3.51-3.47 4.55-4.82z"/><path class="a" d="M317.77 23.72c.52 1.82.91 4 3.25 4a.47.47 0 0 1 .48.43.48.48 0 0 1-.48.48c-4.73 0-4.08-5.72-5.46-5.72-1.21 0-3.73 5.85-5.72 5.85-.91 0-1.26-.82-1.26-1.6 0-1.43.74-3 .74-4.29 0-.56-.09-1.21-.78-1.21-2.65 0-7.81 7-12.66 7-.43 0-1.65.22-1.65-.48a.47.47 0 0 1 .48-.43 11.12 11.12 0 0 0 6.76-2.6c1.52-1.13 4.25-3.77 5.81-4.42a3.57 3.57 0 0 1 1.3-.3 2 2 0 0 1 2 2.26c0 1.39-.87 2.95-.87 4.25 0 .22 0 .52.3.52 1 0 3.82-6.11 5.9-6.11 1.12-.01 1.6 1.51 1.86 2.37z"/><path class="a" d="M336.24 31.18c-1.26 0-2.73-.43-2.73-1.91a3 3 0 0 1 1.21-2.21c1.65-1.43 4.77-1.87 6.89-2.17-1-2.21-4.16-3.73-5.72-5.55a67 67 0 0 1-8.07 6.81c-2.38 1.69-3.82 2.52-6.85 2.52a.49.49 0 0 1-.52-.43.48.48 0 0 1 .48-.48 9.76 9.76 0 0 0 4.73-1.47c3.56-2 6.63-5 9.63-7.81a2.37 2.37 0 0 1-.39-1.21c0-1.69 1.52-4 3.34-4a1.31 1.31 0 0 1 1.34 1.39c0 1.43-1.69 3.08-2.73 3.9h-.09c1.56 1.47 3.21 2.73 4.81 4.16a5.06 5.06 0 0 1 1.39 2c.43 0 1.39-.09 1.65-.09a.48.48 0 0 1 .48.48.48.48 0 0 1-.48.48h-1.39c.31 3.25-4.16 5.59-6.98 5.59zm5.59-5.16v-.26c-1.82.17-7.2.91-7.2 3.38 0 .87.87 1.13 1.6 1.13 2.22 0 5.61-1.69 5.61-4.25zm-5.59-8.89a1.64 1.64 0 0 0 0 .48c.52-.48 2.08-2 2.08-2.69a.36.36 0 0 0-.39-.39c-.86 0-1.69 1.87-1.69 2.59z"/><path class="a" d="M364.95 10.45a5.75 5.75 0 0 1-1.21 3.51c-1.82 2.69-6.42 5.77-9.19 7.5v.13c-.26 1-.56 2-.87 2.95a11.79 11.79 0 0 0 3.34 2.3 10.5 10.5 0 0 0 3.95.91.47.47 0 0 1 .48.43.48.48 0 0 1-.48.48c-3.56 0-4.77-1-7.63-2.82l-.26 1c2.34 3.12 5.59 7.2 5.59 11.27 0 2.21-1.21 4.64-3.69 4.64-3.17 0-4.29-3.56-4.38-6.16v-.82a35.51 35.51 0 0 1 1.13-8.54c-.69-.82-1.73-2-1.82-3l-.26.13a11.13 11.13 0 0 1-5 1.21.48.48 0 0 1-.48-.48.48.48 0 0 1 .48-.48c3.21 0 6.33-2 8.93-3.77 1.43-4 3.34-8.59 6.68-11.45a4.12 4.12 0 0 1 2.56-1.08 2.07 2.07 0 0 1 2.13 2.14zm-12.84 15.22l.13-.56c-.09-.09-.17-.13-.22-.22a3.31 3.31 0 0 0-.56-.39h-.09c-.01.31.57 1 .74 1.18zm.91-3.25l-1.34.78a2.42 2.42 0 0 1 1 .56zm4.25 15.57c0-3.34-2.6-7-4.6-9.54v.22a39.36 39.36 0 0 0-.87 7.07c0 1.91.61 5.72 3.21 5.72 1.74 0 2.26-2.04 2.26-3.47zm6.07-26.76c0-.52-.13-1.13-.74-1.13-2.91 0-6.55 7.24-7.46 9.63 2.31-1.61 8.22-5.46 8.22-8.5z"/><path class="a" d="M378.87 24.46a16.88 16.88 0 0 0 2.56.13.48.48 0 0 1 .48.48.48.48 0 0 1-.48.48 16.77 16.77 0 0 1-2.82-.17c-.87 2.3-3.43 4.38-5.77 4.38-1.82 0-2.78-1.56-2.78-3.21a5.77 5.77 0 0 1 .13-1.21c-2.73 1.87-5.33 3.34-8.72 3.34-.39 0-1 .09-1-.48a.47.47 0 0 1 .48-.43 16.8 16.8 0 0 0 2.08-.17 13.73 13.73 0 0 0 3.69-1.26 13.56 13.56 0 0 0 3.3-2 7.87 7.87 0 0 0 .87-.82l.39-.61a11 11 0 0 1 1.17-1.6c.78-1 2.21-2.34 3.51-2.34s1.73 1.08 1.73 2.17a3.21 3.21 0 0 1 1.26 2.69 3.76 3.76 0 0 1-.08.63zm-1.56.56c-1.3-.43-2.43-1.26-2.43-2.82 0-.91.69-1.39 1.69-1.47a.88.88 0 0 0-.74-.48 1.73 1.73 0 0 0-1.08.39 8.8 8.8 0 0 0-3.3 6 1.78 1.78 0 0 0 1.82 1.91c1.22.03 3.3-1.43 4.04-3.53zm.26-.91a2.89 2.89 0 0 0 0-.61c0-.91-.48-1.65-1.21-1.65-.17 0-.26.17-.26.35a2 2 0 0 0 1.47 1.92z"/><path class="a" d="M397.47 27.76a.47.47 0 0 1 .43.48.47.47 0 0 1-.43.43c-2.21 0-4.68-1.08-4.68-3.64 0-1.78 1.21-3.69 1.21-5.42 0-1.26-1.3-1.6-2.17-2.12a2 2 0 0 1-.17.3c-1.47 2.47-4.64 6.11-7.37 7.24a9 9 0 0 1-2.86.52.49.49 0 0 1-.52-.48.48.48 0 0 1 .48-.48 7.32 7.32 0 0 0 2.17-.35 7.1 7.1 0 0 0 2.95-1.91 20.47 20.47 0 0 0 4.21-5.46c-1-.52-2.12-1.26-2.12-2.56a1.91 1.91 0 0 1 2-1.78 2.14 2.14 0 0 1 2.08 2.21 4.45 4.45 0 0 1-.26 1.52c1.47.65 2.95 1.43 2.95 3.25s-.87 3.43-1.21 5.2a1.45 1.45 0 0 0 0 .43c-.11 1.71 1.84 2.62 3.31 2.62zm-6.29-12.1c0-.13.13-.69.13-1s-.17-.87-.65-.87a.7.7 0 0 0-.69.65c0 .52.82 1 1.21 1.22z"/><path class="a" d="M428.36 22.6c.91 1.43.91 4.29 2.56 5a3.34 3.34 0 0 0 .91.17c.22 0 .43.17.43.43a.47.47 0 0 1-.43.48c-4.38 0-3.51-5.16-5-5.16-.39 0-.69.39-.91.69a33.41 33.41 0 0 1-3.17 4 1.85 1.85 0 0 1-1.17.43 1.43 1.43 0 0 1-1.39-1c-.52-1.3-.82-2.65-1.34-3.9-.13-.3-.3-.78-.69-.78-1.21 0-3.69 5.85-5.72 5.85a1.42 1.42 0 0 1-1.3-1.56c0-1.47.78-3.08.78-4.55a.87.87 0 0 0-.87-1c-2.64 0-7.72 6.94-12.58 6.94-.43 0-1.65.26-1.65-.48a.47.47 0 0 1 .48-.43 11.12 11.12 0 0 0 6.76-2.6c1.52-1.13 4.25-3.77 5.81-4.42a3.57 3.57 0 0 1 1.3-.3 2 2 0 0 1 2 2.26c0 1.34-.87 2.95-.87 4.25 0 .22 0 .52.26.52 1 0 3.82-6.07 5.9-6.07 2.3 0 2 5.59 3.3 5.59.69 0 2.86-3.43 3.34-4a2.52 2.52 0 0 1 1.87-1.13 1.58 1.58 0 0 1 1.39.77z"/><path class="a" d="M446.56 24.46a5.17 5.17 0 0 0 .56 1.34 3.33 3.33 0 0 0 2.91 2 .47.47 0 0 1 .48.43.48.48 0 0 1-.48.48c-3.86 0-4.42-3.82-5.42-3.82s-2.3 4.68-6.11 4.68a2.15 2.15 0 0 1-2.34-2.3v-.26a6.42 6.42 0 0 1-4.42 1.69.43.43 0 0 1-.48-.48.47.47 0 0 1 .43-.43c2 0 3.6-1.39 5-2.6 1-1.87 3.3-4.12 5.59-4.12a3.11 3.11 0 0 1 2.69 1.39c1.29-.17 1.33 1.13 1.59 2zm-3.08-1c-.35-.56-.74-1.08-1.43-1.08-1.82 0-4.42 2.91-4.42 4.64a1.18 1.18 0 0 0 1.26 1.26c1.95 0 3.55-3.47 4.59-4.82z"/><path class="a" d="M449.94 27.76a12.57 12.57 0 0 0 3.82-.65 25.12 25.12 0 0 0 6.29-3.82 3.58 3.58 0 0 0 .74-.65c.13-.17.22-.48.35-.69a7.14 7.14 0 0 1 1.69-2.08 3.35 3.35 0 0 1 2-.78c.69 0 2.3.61 2.3 1.39a.23.23 0 0 1-.26.26c-.52 0-.74-.65-1.6-.65-2 0-3.51 3.3-3.51 5s1.08 2.51 2.69 2.69c.26 0 .48.17.48.48a.45.45 0 0 1-.48.43 4 4 0 0 1-4.08-2.95c0-.13-.09-.3-.09-.43a5.86 5.86 0 0 1 0-.87c-3 2.38-6.37 4.25-10.32 4.25a.45.45 0 0 1-.48-.43.48.48 0 0 1 .46-.5zm11.42 5.63c0-.39.82-.39 1.39-1 1.39-1.47.35-3.3 1.39-3.3.3 0 .56.13.56.43 0 1.21-.35 3.73-2.78 4-.22.05-.56.05-.56-.13z"/><path class="a" d="M486.24 24.46a7.17 7.17 0 0 0 .52 1.34 3.35 3.35 0 0 0 2.95 2 .47.47 0 0 1 .48.43.48.48 0 0 1-.48.48c-3.86 0-4.47-3.82-5.42-3.82s-2.3 4.68-6.07 4.68a2.15 2.15 0 0 1-2.39-2.3 4.91 4.91 0 0 1 .69-2.34c-3.34 1.56-8.59 3.77-12.19 3.77a.48.48 0 0 1-.48-.48c0-.35.35-.43.61-.43 2.38-.09 6.5-1.52 8.76-2.47a34.26 34.26 0 0 0 4.78-2.2 5.65 5.65 0 0 1 3.95-2 3.06 3.06 0 0 1 2.69 1.39c1.25-.22 1.38 1.13 1.6 1.95zm-3.12-1c-.3-.56-.69-1.08-1.39-1.08-1.82 0-4.42 2.91-4.42 4.64a1.15 1.15 0 0 0 1.21 1.26c1.95 0 3.64-3.43 4.6-4.82zm2.34-7.42c.17 0 .26.13.26.35 0 .91-1.6 1.73-2.56 1.73-1.3 0-1.69-1.21-2.52-1.21-1 0-2.21 1.26-2.6 1.26-.13 0-.22-.09-.22-.3 0-1 1.82-1.91 2.82-1.91 1.52 0 1.82 1.26 2.6 1.26s1.78-1.08 2.17-1.17z"/><path class="a" d="M511.17 25.29c0 .87-1.65.78-2.21.78a4.68 4.68 0 0 1-1.73-.26 6.5 6.5 0 0 1-5.72 4c-1.82 0-2.73-1.69-2.73-3.34a5 5 0 0 1 .13-1.13c-2.78 1.91-5.33 3.34-8.76 3.34-.39 0-1 .09-1-.48a.47.47 0 0 1 .48-.43 16.8 16.8 0 0 0 2.08-.17 16.74 16.74 0 0 0 7-3.29l.91-.82c.82-1.65 3-4.42 5-4.42 1.21 0 1.73 1.26 1.73 2.34a3.21 3.21 0 0 1 1.22 2.71 5.35 5.35 0 0 1-.09.82 6.14 6.14 0 0 0 2 .22c.22-.04 1.69-.22 1.69.13zm-5 0c-.91-.48-2.6-1.73-2.6-2.86 0-.91.87-1.34 1.65-1.39a.7.7 0 0 0-.65-.48 2.29 2.29 0 0 0-1 .35 7.63 7.63 0 0 0-3.38 5.81 1.63 1.63 0 0 0 1.74 1.78 4.66 4.66 0 0 0 4.21-3.21zm.19-1.17c0-.61-.52-2-1.26-2-.17 0-.3.22-.3.39 0 .74 1.13 1.26 1.56 1.69zm-495.31 31c.74-2.95 3.3-11.84 6.94-11.84a1.42 1.42 0 0 1 1.43 1.6 12.08 12.08 0 0 1-1.26 4.38c-.74 1.65-1.73 3.17-2.6 4.77-1.17 2.12-2.21 4.25-3.51 6.29-.22.35-.43.69-.69 1 .26 1.69.39 3.34 1.69 4.64a6.17 6.17 0 0 0 4.34 1.65.45.45 0 0 1 .48.43.48.48 0 0 1-.48.48c-3.86 0-6.2-2.17-6.94-5.85-1.69 2.34-4.47 6.42-7.68 6.42A2.64 2.64 0 0 1-.01 66.4c0-2.6 3.25-5.29 5.81-5.29a3.13 3.13 0 0 1 2.91 2.08c.56-.74 1-1.47 1.56-2.21a24.42 24.42 0 0 1 .78-5.86zm-3.38 9.41a2 2 0 0 0-2.08-1.91c-1.78 0-4.16 1.82-4.16 3.73a1.34 1.34 0 0 0 1.43 1.43c2.04-.04 3.6-1.86 4.81-3.25zm5.94-9.06c.78-1.39 1.52-2.82 2.25-4.25s2.17-3.69 2.17-5.2c0-.43-.17-.87-.69-.87-2 0-4.16 7-4.68 8.63a30.3 30.3 0 0 0-1.3 5.55z"/><path class="a" d="M38.81 66.96c0 1.08-2.25 1.6-3.12 1.6-3.9 0-4.47-3.82-5.42-3.82s-2.34 4.68-6.12 4.68a2.18 2.18 0 0 1-2.39-2.3v-.22a6.6 6.6 0 0 1-4.21 1.69c-.35 0-.69 0-.69-.48a.47.47 0 0 1 .48-.43c2 0 3.56-1.39 5-2.6 1-1.91 3.34-4.12 5.64-4.12a2.94 2.94 0 0 1 2.65 1.39 1.19 1.19 0 0 1 1.21.74 7.4 7.4 0 0 1 .39 1.3c.48 1.69 1.52 3.3 3.47 3.3a7.43 7.43 0 0 0 2.86-1c.16-.03.25.1.25.27zm-9.71-3.6c-.35-.56-.69-1.08-1.43-1.08-1.78 0-4.38 2.91-4.38 4.64a1.15 1.15 0 0 0 1.21 1.26c1.95-.01 3.55-3.48 4.59-4.82zm43.92 1.6a.48.48 0 0 1-.48.48h-1.47c.26 3.38-4.12 5.59-7 5.59-1.21 0-2.69-.48-2.69-2 0-3.17 5.94-4.12 8.24-4.34-1.08-2.21-4.55-3.73-6-5.59a26.16 26.16 0 0 1-3.69 2.86c-1.39.87-4.38 2.69-6 2.69-.3 0-1-.13-1-.56s1-.48 1.3-.56a17.16 17.16 0 0 0 3.51-1.6 32 32 0 0 0 5.2-3.82 3 3 0 0 1-.3-1.21c0-1.56 1.6-3.86 3.3-3.86a1.35 1.35 0 0 1 1.39 1.43c0 1.73-1.69 2.82-2.82 3.82a49.43 49.43 0 0 0 5.07 4.42 4.26 4.26 0 0 1 1.34 1.82c.43 0 1.39-.09 1.65-.09a.48.48 0 0 1 .45.52zm-3.21.65c-1.78.17-7.29.91-7.29 3.34 0 .91.82 1.21 1.6 1.21 2.31-.04 5.69-1.55 5.69-4.54zm-3.73-10.84a.35.35 0 0 0-.39-.35c-.91 0-1.74 1.82-1.74 2.56v.3c.57-.47 2.13-1.73 2.13-2.51z"/><path class="a" d="M84.69 67.96c2.13-1.43 2.91-3.56 4-5.77.3-.61.87-1.43 1.6-1.43 1.34 0 1 2.43 1.08 3.34a4.19 4.19 0 0 0 3.47 3.47c.35.09 1.17 0 1.17.52a.48.48 0 0 1-.48.48 5.9 5.9 0 0 1-5.94-5 6.89 6.89 0 0 1-.78 1.61c-1.26 2.12-3.08 4.55-5.81 4.55-2.25 0-3.34-1.91-3.34-3.95a13.74 13.74 0 0 1 .87-3.73 18.51 18.51 0 0 1-5 2.91 8 8 0 0 1-3 .52.48.48 0 0 1-.48-.48.47.47 0 0 1 .43-.48 7.62 7.62 0 0 0 2.17-.39 11.51 11.51 0 0 0 2.56-1.21c.78-.43 3.77-2.69 4.47-2.69a.87.87 0 0 1 .87 1c0 1.17-1.6 2.82-1.6 4.94a2.14 2.14 0 0 0 2.26 2.34 2.63 2.63 0 0 0 1.48-.55z"/><path class="a" d="M116.91 66.96c0 1.08-2.25 1.6-3.12 1.6-3.9 0-4.47-3.82-5.42-3.82s-2.34 4.68-6.12 4.68a2.18 2.18 0 0 1-2.39-2.3v-.22a6.6 6.6 0 0 1-4.21 1.69c-.35 0-.69 0-.69-.48a.47.47 0 0 1 .48-.43c2 0 3.56-1.39 5-2.6 1-1.91 3.34-4.12 5.64-4.12a2.94 2.94 0 0 1 2.65 1.39 1.19 1.19 0 0 1 1.21.74 7.4 7.4 0 0 1 .39 1.3c.48 1.69 1.52 3.3 3.47 3.3a7.43 7.43 0 0 0 2.86-1c.16-.03.25.1.25.27zm-9.71-3.6c-.35-.56-.69-1.08-1.43-1.08-1.78 0-4.38 2.91-4.38 4.64a1.15 1.15 0 0 0 1.21 1.26c1.95-.01 3.55-3.48 4.59-4.82zm41.58 1.13a.48.48 0 0 1 .48.48.48.48 0 0 1-.48.48c-3.34 0-5.2-3-6-3-1.13 0-4.21 7.16-6.37 7.16-.91 0-1.52-1-1.91-1.69-.61-1-2.91-5.2-2.91-6.2a.65.65 0 0 1 .69-.65 1 1 0 0 1 .35.09c.78.39 1.17 1.86 1.47 2.64s1.65 4.29 2.43 4.29c1.34 0 4.34-7.2 6.16-7.2 1.4-.05 2.67 3.6 6.09 3.6z"/><path class="a" d="M158.54 60.58a4.52 4.52 0 0 1 .26 1.56 8.14 8.14 0 0 0 1.47 4.55 2.75 2.75 0 0 0 2.21 1c.22 0 .48.17.48.43a.48.48 0 0 1-.48.48 4.57 4.57 0 0 1-3.47-1.78 12.23 12.23 0 0 1-1.65-5.25 23.65 23.65 0 0 1-5.64 3.43 12 12 0 0 1-3 .48.48.48 0 0 1-.48-.48.47.47 0 0 1 .43-.48 7.32 7.32 0 0 0 2.17-.35 13.85 13.85 0 0 0 2.56-1.21c.78-.48 3.73-2.73 4.47-2.73a.67.67 0 0 1 .67.35zm-.91-6.81c0-.43.39-.61.78-.61.69 0 1.08.91 1.08 1.47 0 .3-.17.69-.52.69-.61.02-1.34-.98-1.34-1.54z"/><path class="a" d="M178.27 55.12c.74-2.95 3.25-11.84 6.94-11.84a1.42 1.42 0 0 1 1.43 1.6c0 2.86-2.52 6.63-3.86 9.15a68.08 68.08 0 0 1-4.21 7.33c0 .52.09 1.13.17 1.65a5.38 5.38 0 0 0 3.64 4.29 7.84 7.84 0 0 0 2.21.35.47.47 0 0 1 .48.43.48.48 0 0 1-.48.48 6.77 6.77 0 0 1-6.16-3.38 9.63 9.63 0 0 1-.78-2.47c-1.69 2.34-4.51 6.42-7.72 6.42a2.63 2.63 0 0 1-2.73-2.56c-1.65 1.26-2.69 2-4.81 2a.43.43 0 0 1-.48-.48.41.41 0 0 1 .43-.43c2.08 0 3.77-1.56 5.29-2.82a6.42 6.42 0 0 1 5.38-3.69 3.24 3.24 0 0 1 2.91 2.08c.56-.74 1-1.47 1.56-2.21a24.47 24.47 0 0 1 .79-5.9zm-3.38 9.41a2.08 2.08 0 0 0-2.08-1.91c-1.82 0-4.16 1.86-4.16 3.77a1.31 1.31 0 0 0 1.43 1.39c2.03-.04 3.59-1.91 4.8-3.25zm5.94-9.06c.82-1.39 1.52-2.82 2.25-4.25s2.17-3.73 2.17-5.2c0-.48-.17-.87-.69-.87-2 0-4.21 7-4.68 8.63a27.22 27.22 0 0 0-1.3 5.55z"/><path class="a" d="M206.02 66.96c0 1.08-2.25 1.6-3.12 1.6-3.9 0-4.47-3.82-5.42-3.82s-2.34 4.68-6.12 4.68a2.18 2.18 0 0 1-2.38-2.34v-.22a6.6 6.6 0 0 1-4.21 1.69c-.35 0-.69 0-.69-.48a.47.47 0 0 1 .48-.43c2 0 3.56-1.39 5-2.6 1-1.91 3.34-4.12 5.64-4.12a2.94 2.94 0 0 1 2.65 1.39 1.19 1.19 0 0 1 1.21.74 7.4 7.4 0 0 1 .39 1.3c.48 1.69 1.52 3.3 3.47 3.3a7.43 7.43 0 0 0 2.86-1c.15.01.24.14.24.31zm-9.71-3.6c-.35-.56-.69-1.08-1.43-1.08-1.78 0-4.38 2.91-4.38 4.64a1.15 1.15 0 0 0 1.21 1.26c1.95-.01 3.56-3.48 4.6-4.82zm39.46 4.76a.45.45 0 0 1-.48.43 30.26 30.26 0 0 1-5.38-.3 8.49 8.49 0 0 1-3.12-.87c-1.34 4.64-2.08 6.24-3.38 10-1.26 3.56-2.26 7.55-4.9 7.55-1.26 0-2.17-1.47-2.17-3.17 0-6.29 7.59-16.26 11-21.16a10.49 10.49 0 0 0 .09-1.17c0-.65-.22-1.56-.22-2s.35-1 .87-1c.87 0 .91 1.08.91 1.82a3 3 0 0 1-.13 1c1.13-.56 2-1.26 3.34-1.26 1.73 0 3.77 1 3.77 3.08 0 2.6-3.51 5.85-6.2 5.85 1 .56 4.29.65 5.55.65a.51.51 0 0 1 .45.55zm-9-5c-3.21 4.94-4.25 6.29-5.94 9.15a63.44 63.44 0 0 0-2.78 6.2 10.48 10.48 0 0 0-.52 3.17c0 1.26.3 2 1 2 1.13 0 1.78-1.65 2.65-4 1.13-3.08 1.78-4.77 2.86-8 1.02-3.03 2.06-5.72 2.75-8.52zm1.69 3.3c2 0 5.81-2.21 5.81-5a1.83 1.83 0 0 0-2-1.78 6.56 6.56 0 0 0-3.64 1.34c-.48 2-.78 3.6-1.34 5.29a4.31 4.31 0 0 0 1.19.13z"/><path class="a" d="M256.19 60.76c0 1.91-4.29 3.86-5.85 4.51l-.26.09c.17 1.52 1.39 2.12 2.78 2.3.22 0 .48.17.48.43a.48.48 0 0 1-.48.48 4.1 4.1 0 0 1-4-2.73 43.21 43.21 0 0 1-13.57 2.73.48.48 0 0 1-.48-.48.47.47 0 0 1 .48-.43 29.28 29.28 0 0 0 5.51-.61c1.65-.3 3.25-.78 4.86-1.21.78-.26 1.73-.43 2.51-.78l.56-.26c.22-2.6 2.21-5.94 5.12-5.94 1.08-.01 2.34.64 2.34 1.9zm-1.69.22a.81.81 0 0 0-.91-.78c-1.86 0-3.21 2.34-3.47 4 1-.49 4.38-1.92 4.38-3.23z"/><path class="a" d="M273.06 48.31c.74-.91 2.13-2.25 3.38-2.25s1.91 1.56 1.91 2.65c0 2.08-1.52 5.16-2.69 6.85a25.8 25.8 0 0 1-4.08 4.6 6.73 6.73 0 0 1-.82.74c.61 2.95 2.78 6.76 6.2 6.76a.47.47 0 0 1 .43.43.45.45 0 0 1-.43.48c-3.95 0-6.46-3.17-7.29-6.72-4.25 3.21-11.58 6.72-16.87 6.72a.48.48 0 0 1-.44-.45.47.47 0 0 1 .48-.43 13.67 13.67 0 0 0 3.73-.61 37.51 37.51 0 0 0 12.88-6.29c0-.65-.17-1.3-.17-2a18.34 18.34 0 0 1 3.78-10.48zm1.78 6.59c.91-1.43 2.34-4.08 2.34-5.77 0-.78-.35-1.39-1.17-1.39-1.17 0-2.52 2-3 2.86a17 17 0 0 0-2.43 8.15 7.74 7.74 0 0 0 0 1 21.67 21.67 0 0 0 4.26-4.85z"/><path class="a" d="M298.36 66.96c0 1.08-2.25 1.6-3.12 1.6-3.9 0-4.47-3.82-5.42-3.82s-2.34 4.68-6.12 4.68a2.18 2.18 0 0 1-2.34-2.3v-.22a6.6 6.6 0 0 1-4.21 1.69c-.35 0-.69 0-.69-.48a.47.47 0 0 1 .48-.43c2 0 3.56-1.39 5-2.6 1-1.91 3.34-4.12 5.64-4.12a2.94 2.94 0 0 1 2.65 1.39 1.19 1.19 0 0 1 1.21.74 7.4 7.4 0 0 1 .39 1.3c.48 1.69 1.52 3.3 3.47 3.3a7.43 7.43 0 0 0 2.86-1c.14-.03.2.1.2.27zm-9.71-3.6c-.35-.56-.69-1.08-1.43-1.08-1.78 0-4.38 2.91-4.38 4.64a1.15 1.15 0 0 0 1.21 1.26c1.98-.01 3.58-3.48 4.62-4.82zm47.42 2.08a7.12 7.12 0 0 1-4.68-2 10.62 10.62 0 0 1-2-2.43c-1.26 3.08-3.69 8.41-7.68 8.41-2.12 0-3.12-1.65-3.12-3.6a12.75 12.75 0 0 1 .61-3.6c-1.47.87-3.64 2-5.38 2-.39 0-1.3-.26-1.3-.78s1.13-.26 1.39-.3c1.82-.17 4.29-1.6 5.81-2.65 1-3.3 4.9-14.79 9.15-14.79a2 2 0 0 1 2 2.3c0 3.86-7.37 10.93-10.15 13.14a15.07 15.07 0 0 0-.82 4.6c0 1.08.48 2.3 1.73 2.3 1.65 0 3.12-1.52 4.08-2.73 1.34-1.73 1.82-3.86 2.6-5.9a1.11 1.11 0 0 1 1-.87c1 0 1.26.91 1.52 1.65a8.26 8.26 0 0 0 1.3 2.34 5 5 0 0 0 3.17 1.91c.39 0 1.21-.09 1.21.52a.48.48 0 0 1-.44.48zm-9.41-16.7a29 29 0 0 0-2.78 4.94c-.82 1.82-1.69 3.6-2.43 5.46 1.69-1.56 6.24-6.59 7.16-8.5a5.47 5.47 0 0 0 .65-2.17c0-.52-.22-1.08-.78-1.08-.74.06-1.43.84-1.82 1.36z"/><path class="a" d="M347.43 60.8c0 2-4.6 3.43-6.07 3.95h-.09v.26c0 1.69 1.26 2.43 2.78 2.6.22 0 .48.17.48.43a.48.48 0 0 1-.48.48 4.07 4.07 0 0 1-4.08-3c0-.13 0-.43-.09-.52a21.28 21.28 0 0 1-3.69.39.48.48 0 0 1-.48-.48.48.48 0 0 1 .48-.48 15.73 15.73 0 0 0 3.77-.43c.48-2.34 2.38-5.2 5.07-5.2a2.16 2.16 0 0 1 2.4 2zm-1.78 0c0-.43-.48-.56-.87-.56-1.73 0-3 2-3.38 3.56 1.04-.27 4.25-1.83 4.25-3.04z"/><path class="a" d="M364.26 48.31c.74-.91 2.13-2.25 3.38-2.25s1.91 1.56 1.91 2.65c0 2.08-1.52 5.16-2.69 6.85a25.77 25.77 0 0 1-4.08 4.6 6.65 6.65 0 0 1-.82.74c.61 2.95 2.78 6.76 6.2 6.76a.47.47 0 0 1 .43.43.45.45 0 0 1-.43.48c-3.95 0-6.46-3.17-7.29-6.72-4.25 3.21-11.58 6.72-16.87 6.72a.48.48 0 0 1-.48-.48.47.47 0 0 1 .48-.43 13.67 13.67 0 0 0 3.73-.61 37.51 37.51 0 0 0 12.88-6.29c0-.65-.17-1.3-.17-2a18.34 18.34 0 0 1 3.82-10.45zm1.78 6.59c.91-1.43 2.34-4.08 2.34-5.77 0-.78-.35-1.39-1.17-1.39-1.17 0-2.52 2-3 2.86a17 17 0 0 0-2.43 8.15 7.74 7.74 0 0 0 0 1 21.67 21.67 0 0 0 4.26-4.85z"/><path class="a" d="M384.12 60.76a2.21 2.21 0 0 1-.26.91 3.32 3.32 0 0 1-1.08 1c-.56.35-1.17.61-1.73.91-1 .56-2 1.17-3 1.69.17 1.65 1.26 2.21 2.78 2.43.22 0 .48.17.48.43a.48.48 0 0 1-.48.48 4.19 4.19 0 0 1-4-2.69c-2.73 1.34-5.46 2.69-8.59 2.69a.49.49 0 0 1-.52-.48.47.47 0 0 1 .48-.43 12.57 12.57 0 0 0 3.82-.65 39 39 0 0 0 4.73-2.21c0-2.56 2.34-5.94 5.12-5.94a2.14 2.14 0 0 1 2.25 1.86zm-1.86.65a.72.72 0 0 0 .22-.52c0-.52-.52-.69-1-.69-1.86 0-3.08 2.25-3.43 3.82a28.3 28.3 0 0 0 4.2-2.61z"/><path class="a" d="M401.85 70.12c-1 .87-2.3 2.21-3.69 2.21a1.13 1.13 0 0 1-1.26-1.13c0-1.56 2-2.65 3.3-2.65a3.77 3.77 0 0 1 1.39.26c1.21-1.3 3.6-4 3.6-5.85 0-1.52-1.52-2.34-2.91-2.34a8.58 8.58 0 0 0-4 1.34q-2.6 1.5-5.33 2.73c-3.51 1.6-8.28 3.82-12.19 3.82a.48.48 0 0 1-.48-.48c0-.39.39-.43.65-.43 2.39 0 6.46-1.52 8.72-2.47a58.76 58.76 0 0 0 8.2-4.25 8.8 8.8 0 0 1 4.81-1.65c2.25 0 4.16 1.08 4.16 3.51s-2.43 5-4.12 6.59a7.92 7.92 0 0 1 2.95 4.12c.61-.48 4.08-3.25 4.47-3.25a.45.45 0 0 1 .43.48.63.63 0 0 1-.09.3c-.26.09-3.86 2.91-4.51 3.38a15.1 15.1 0 0 1 .35 3.43 22.3 22.3 0 0 1-.65 5.38 6.15 6.15 0 0 1-5.77 5 3.29 3.29 0 0 1-3.34-3.43c0-4.81 4.38-7.85 7.89-10.37a6.91 6.91 0 0 0-2.58-4.25zm1 15.57c1.78-1.82 2-4.64 2-7.59a13.31 13.31 0 0 0-.22-2.64c-3.08 2-6.72 5-6.72 9.19a2.07 2.07 0 0 0 2.17 2.25 4.42 4.42 0 0 0 2.77-1.16zm-2.21-16h-.3c-.61 0-2.08.48-2.08 1.21a.24.24 0 0 0 .26.22c.6 0 1.73-1 2.12-1.38z"/><path class="a" d="M438.41 66.96c0 1.08-2.25 1.6-3.12 1.6-3.86 0-4.47-3.82-5.42-3.82s-2.34 4.68-6.07 4.68a2.22 2.22 0 0 1-2.43-2.39 4.45 4.45 0 0 1 .91-2.51 91 91 0 0 0-9.15 4.68 29.22 29.22 0 0 1-3 2 .51.51 0 0 1-.48-.43c0-.39 1.82-1.52 2.17-1.73a48.36 48.36 0 0 1 4.6-2.65l5-2.47a19.65 19.65 0 0 0 2.34-1.13c.26-.17.52-.48.74-.65a5.12 5.12 0 0 1 3.08-1.17 3 3 0 0 1 2.64 1.39 1.29 1.29 0 0 1 1.26.74 11.49 11.49 0 0 1 .35 1.3c.48 1.65 1.56 3.3 3.47 3.3a6.85 6.85 0 0 0 2.86-1c.2-.04.25.04.25.26zm-9.71-3.6c-.3-.56-.69-1.08-1.39-1.08-1.82 0-4.42 2.91-4.42 4.64a1.15 1.15 0 0 0 1.21 1.26c1.95-.01 3.64-3.43 4.6-4.82zm14 3.34a1.12 1.12 0 0 1 1.17 1 1.06 1.06 0 0 1-.91 1 1.34 1.34 0 0 1-1.26-1.17c0-.39.13-.65.43-.74a1.21 1.21 0 0 1 .57-.09zm1.08-4.38c-.22 0-.3-.17-.3-.39a18.05 18.05 0 0 1 .61-3.34c.35-1.56.48-2.78.78-4.29.35-1.91.91-6.94 2.21-6.94a.83.83 0 0 1 .78.91 2.61 2.61 0 0 1-.13.87 110.86 110.86 0 0 1-3.3 12.23c-.3.69-.38.95-.64.95z"/></svg>