<svg xmlns="http://www.w3.org/2000/svg" viewBox="0 0 144.96 39.39"><defs><style>.a{fill:#fff}</style></defs><title>p15_s4</title><path class="a" d="M10.59 0c2.56 0 4.56 1.2 4.56 3.28 0 5-7.48 6.88-10.16 8.28l-3.6 10.68c-.28.8-.64 1.24-.92 1.24s-.48-.24-.48-.76a11.41 11.41 0 0 1 .72-2.4c.8-2.48 1.8-5.36 2.68-8a1.5 1.5 0 0 1-.4 0c-.44 0-1.2-.32-1.2-.64s.52-.56 2.16-1c1.16-3.56 2.24-6.52 2.48-7.32l.36-1.2a11.25 11.25 0 0 0-1.84 1.16c-.8.64-1.44 1.72-2 1.72a.82.82 0 0 1-.84-.8c0-.44.52-.92 1.48-1.52A23.6 23.6 0 0 1 6.35.92 9.69 9.69 0 0 1 10.59 0zm2.88 3.44c0-1.36-1-2.36-2.8-2.36a7.16 7.16 0 0 0-2.24.4c-.48 1.56-1.64 4.92-3 8.68 2.6-.92 5.36-2.2 7-4.28a4 4 0 0 0 1.05-2.44zm8.41 10.33c0 2-3.92 2.76-5.4 3.28a.58.58 0 0 1-.28.08v.44a2.5 2.5 0 0 0 2.6 2.52c.24 0 .44.12.44.4a.44.44 0 0 1-.44.44c-1.92 0-4-1.4-3.84-3.48a14.78 14.78 0 0 1-2.64.28c-.36 0-1.2-.24-1.2-.72 0-.28.44-.28.64-.28a16.14 16.14 0 0 0 3.4-.4v-.16a6.13 6.13 0 0 1 3.08-3.88 2.78 2.78 0 0 1 1.4-.32 2 2 0 0 1 2.24 1.8zm-1.64 0c0-.4-.44-.52-.8-.52-1.44 0-2.56 1.56-3 2.8.88-.21 3.8-1.28 3.8-2.33z"/><path class="a" d="M36.8 23.24c-1.16 0-2.56-.4-2.56-1.76a2.82 2.82 0 0 1 1.16-2c1.52-1.32 4.4-1.76 6.36-2-1-2-3.84-3.4-5.28-5.08a40.53 40.53 0 0 1-6.92 5.36 22.63 22.63 0 0 1-10.84 3.2.41.41 0 0 1-.4-.44.43.43 0 0 1 .4-.4 13.66 13.66 0 0 0 3.6-.44 40.66 40.66 0 0 0 4.8-1.8 31 31 0 0 0 7.12-4.72l1.68-1.6a2.72 2.72 0 0 1-.32-1.24c0-1.48 1.48-3.6 3.08-3.6A1.21 1.21 0 0 1 39.92 8c0 1.68-1.64 2.6-2.6 3.64 1.44 1.36 3 2.56 4.44 3.84a4.39 4.39 0 0 1 1.28 1.8c.4 0 1.28-.08 1.52-.08a.44.44 0 0 1 .44.44.44.44 0 0 1-.44.44H43.2c.39 3.16-3.8 5.16-6.4 5.16zm5.16-4.8v-.24c-1.68.16-6.64.88-6.64 3.16 0 .8.8 1 1.48 1 2.04.04 5.2-1.44 5.16-3.92zm-5.16-8.16a1.5 1.5 0 0 0 0 .44c.48-.44 1.92-1.8 1.92-2.48a.34.34 0 0 0-.36-.36c-.77 0-1.56 1.72-1.56 2.4z"/><path class="a" d="M63.24 22.92a.58.58 0 0 1-.08.28h-.08a27.22 27.22 0 0 0-3 2.64 39.19 39.19 0 0 0-5.56 6 44.11 44.11 0 0 1-1.32 6.4 2.12 2.12 0 0 1-1.52 1.16c-.84 0-1.24-.84-1.24-1.56 0-1.92 1.92-4.6 3-6.16a110.6 110.6 0 0 1 3.76-12.4 10.5 10.5 0 0 1-5.08 1.68 2.47 2.47 0 0 1-2.56-2.4 3.92 3.92 0 0 1 .64-1.88 12.25 12.25 0 0 1-5.68 1.36.44.44 0 0 1-.44-.44.44.44 0 0 1 .44-.44A12.6 12.6 0 0 0 50 15.68a11.11 11.11 0 0 0 1.59-.91c.32-.24.56-.56.88-.8a7.22 7.22 0 0 1 4-1.64 2.85 2.85 0 0 1 2.6 1.88c.2-.56.68-1.48 1.36-1.48s1 .92 1 1.56a4.17 4.17 0 0 1-1.64 2.76c0 .24.08.52.08.76s0 .68-.4.68-.52-.36-.64-.6l-.08.08a79.31 79.31 0 0 0-3.84 11.64 34 34 0 0 1 7.52-7 .45.45 0 0 1 .32-.12.41.41 0 0 1 .49.43zm-5.52-5.2l.72-1.84c-.24-1.12-.68-2.36-2-2.36-1.88 0-5.44 3-5.44 4.92a1.38 1.38 0 0 0 1.36 1.48c1.36 0 4.23-1.36 5.36-2.2zm-5 17.16c-.32.68-1.24 1.92-1.24 2.56 0 .2.08.32.28.32.64.01.83-2.37.96-2.89zm6.92-19.24a1.42 1.42 0 0 0 .08.4c.28-.28.76-.68.76-1.12 0-.16-.08-.4-.28-.4s-.61.92-.61 1.12z"/><path class="a" d="M85.59 16.77a3.91 3.91 0 0 0 3.2 3.2c.32.08 1.12 0 1.12.48a.44.44 0 0 1-.44.44 5.44 5.44 0 0 1-5.48-4.64c-1 2.36-3.16 5.64-6.08 5.64a3.13 3.13 0 0 1-3.12-3.44 8.35 8.35 0 0 1 .68-3 38.28 38.28 0 0 0-6.32 3.48c-3.48 2.24-6 4.36-6.32 4.36a.4.4 0 0 1-.4-.4.6.6 0 0 1 .16-.36 78.31 78.31 0 0 1 11.44-7.72 8 8 0 0 1 2.52-1.16c.48 0 .8.16.8.6 0 1-1.36 2.44-1.36 4.36a1.94 1.94 0 0 0 2.08 2.12 2.35 2.35 0 0 0 1.36-.4c2-1.28 2.76-3.28 3.72-5.32.28-.56.76-1.32 1.48-1.32 1.17.03.81 2.31.96 3.08z"/><path class="a" d="M99.92 13.52a1.39 1.39 0 0 1 .28 1 7.32 7.32 0 0 0 1.4 4.64 2.41 2.41 0 0 0 2 .88c.2 0 .44.16.44.4a.44.44 0 0 1-.44.44c-2.88 0-4.32-3-4.48-5.48a14.27 14.27 0 0 1-5.28 4.48 9.66 9.66 0 0 1-4.48 1 .44.44 0 0 1-.44-.44.44.44 0 0 1 .44-.4 8 8 0 0 0 4-1 12.3 12.3 0 0 0 4.24-3.88c.36-.52 1.08-2 1.8-2a.73.73 0 0 1 .52.36zm-.76-6.24c0-.4.36-.56.72-.56.64 0 1 .84 1 1.4 0 .32-.16.6-.48.6-.6 0-1.24-.95-1.24-1.44z"/><path class="a" d="M117.59 23.24c-1.16 0-2.52-.4-2.52-1.76a2.78 2.78 0 0 1 1.12-2c1.52-1.32 4.4-1.72 6.36-2-1-2-3.84-3.44-5.28-5.12a61.84 61.84 0 0 1-7.44 6.28c-2.2 1.56-3.52 2.32-6.32 2.32a.45.45 0 0 1-.48-.4.44.44 0 0 1 .44-.44 9 9 0 0 0 4.36-1.36c3.28-1.88 6.12-4.64 8.88-7.2a2.18 2.18 0 0 1-.36-1.12c0-1.56 1.4-3.72 3.08-3.72A1.21 1.21 0 0 1 120.67 8c0 1.32-1.56 2.84-2.52 3.6h-.08c1.44 1.36 3 2.52 4.44 3.84a4.66 4.66 0 0 1 1.28 1.8c.4 0 1.28-.08 1.52-.08a.44.44 0 0 1 .44.44.44.44 0 0 1-.44.44h-1.28c.33 3.04-3.79 5.2-6.44 5.2zm5.16-4.76v-.24c-1.68.16-6.64.84-6.64 3.12 0 .8.8 1 1.48 1 2.09.04 5.21-1.52 5.21-3.88zm-5.16-8.2a1.5 1.5 0 0 0 0 .44c.48-.44 1.92-1.8 1.92-2.48a.34.34 0 0 0-.36-.36c-.75 0-1.56 1.72-1.56 2.4z"/><path class="a" d="M144.96 19.44c0 1-2.08 1.48-2.88 1.48-3.6 0-4.12-3.52-5-3.52s-2.16 4.32-5.6 4.32a2 2 0 0 1-2.24-2.16 4.52 4.52 0 0 1 .92-2.52 10.46 10.46 0 0 1-4.8 1 .44.44 0 0 1-.44-.44.44.44 0 0 1 .44-.44 12.6 12.6 0 0 0 5.48-1.48c.36-.2.8-.36 1.16-.6a4.76 4.76 0 0 1 3-1.2 2.71 2.71 0 0 1 2.44 1.28 1.19 1.19 0 0 1 1.16.68 10.7 10.7 0 0 1 .32 1.2c.44 1.56 1.4 3 3.2 3a6.57 6.57 0 0 0 2.64-.92c.12.04.2.16.2.32zm-9-3.32c-.32-.52-.64-1-1.32-1-1.64 0-4 2.68-4 4.28a1.06 1.06 0 0 0 1.12 1.16c1.83 0 3.28-3.2 4.24-4.44z"/></svg>