<svg xmlns="http://www.w3.org/2000/svg" viewBox="0 0 216.71 91.4"><defs><style>.a{fill:#fff}</style></defs><title>p15_s5</title><path class="a" d="M12.67.16c2.56 0 4.56 1.2 4.56 3.28 0 5-7.48 6.88-10.16 8.28L3.51 22.35c-.28.8-.64 1.24-.92 1.24s-.48-.24-.48-.76a11.36 11.36 0 0 1 .72-2.4c.8-2.48 1.8-5.36 2.68-8a1.5 1.5 0 0 1-.4 0c-.44 0-1.2-.32-1.2-.64s.52-.56 2.16-1c1.16-3.56 2.24-6.52 2.48-7.32l.36-1.2a11.21 11.21 0 0 0-1.84 1.16c-.8.64-1.44 1.72-2 1.72a.82.82 0 0 1-.84-.8c0-.44.52-.92 1.48-1.52a23.66 23.66 0 0 1 2.76-1.8 9.69 9.69 0 0 1 4.2-.87zm2.88 3.44c0-1.36-1-2.36-2.8-2.36a7.16 7.16 0 0 0-2.24.4c-.48 1.56-1.64 4.92-3 8.68 2.6-.92 5.36-2.2 7-4.28a4 4 0 0 0 1-2.44zm10.32 17.48c-3.56 0-4.12-3.52-5-3.52s-2.16 4.32-5.6 4.32a2 2 0 0 1-2.24-2.2c0-2.4 3.28-5.64 5.72-5.64a2.63 2.63 0 0 1 2.44 1.28c1.16-.12 1.24 1.08 1.48 1.88a6.69 6.69 0 0 0 .48 1.24 3.14 3.14 0 0 0 2.72 1.8.44.44 0 0 1 .44.4.44.44 0 0 1-.44.44zm-10.32-.36c1.12 0 2.36-1.56 3-2.4.44-.64.8-1.4 1.28-2-.32-.52-.64-1-1.32-1-1.64 0-4 2.68-4 4.28a1.06 1.06 0 0 0 1 1.12z"/><path class="a" d="M43.15 20.24a.44.44 0 0 1 .44.4.44.44 0 0 1-.44.44c-2 0-4.28-1-4.28-3.36 0-1.72 1.08-3.32 1.08-5 0-1.08-1.2-1.6-2-2h-.12a24.75 24.75 0 0 1-4.24 5.36c-1.76 1.68-3.32 3.48-5.52 4.56a4.51 4.51 0 0 1-2 .48c-.28 0-.64 0-.64-.44a.43.43 0 0 1 .4-.4 4.43 4.43 0 0 0 1.6-.36c2.44-1.08 8.32-7 9.6-9.68-.92-.48-2-1.16-2-2.32a1.73 1.73 0 0 1 1.76-1.68 2 2 0 0 1 2 1.92 3.85 3.85 0 0 1-.36 1.48h.12c1.36.6 2.72 1.32 2.72 3s-.8 3.16-1.12 4.76a1.36 1.36 0 0 0 0 .4c-.12 1.55 1.68 2.44 3 2.44zm-5.8-11.16a3 3 0 0 0 .12-.84c0-.32-.16-.8-.6-.8a.65.65 0 0 0-.64.6c.04.44.76.8 1.12 1.04z"/><path class="a" d="M56.75 17.2a4.79 4.79 0 0 0 .52 1.24 3.07 3.07 0 0 0 2.68 1.8.44.44 0 0 1 .44.4.44.44 0 0 1-.44.44c-3.56 0-4.08-3.52-5-3.52s-2.12 4.32-5.64 4.32a2 2 0 0 1-2.16-2.12v-.24a5.92 5.92 0 0 1-4.08 1.56.4.4 0 0 1-.44-.44.43.43 0 0 1 .4-.4c1.8 0 3.32-1.28 4.64-2.4 1-1.72 3-3.8 5.16-3.8a2.87 2.87 0 0 1 2.48 1.31c1.2-.15 1.2 1 1.44 1.85zm-2.84-.92c-.32-.52-.68-1-1.32-1-1.68 0-4.08 2.68-4.08 4.28a1.09 1.09 0 0 0 1.16 1.16c1.84 0 3.28-3.2 4.24-4.44z"/><path class="a" d="M81.35 13.35a6.27 6.27 0 0 0 1.16 2.16 4.67 4.67 0 0 0 3 1.76c.36 0 1.08-.08 1.08.48a.41.41 0 0 1-.4.44c-2.48 0-5-2-6.16-4.12-1.16 2.84-3.4 7.76-7 7.76-2 0-2.92-1.48-2.92-3.28a10.4 10.4 0 0 1 .28-2.24c-2.64 2.64-6.2 4.76-10 4.76-.32 0-.88.08-.88-.44a.41.41 0 0 1 .44-.4 15.53 15.53 0 0 0 1.92-.16 12.65 12.65 0 0 0 3.4-1.16 21 21 0 0 0 5.6-4.32c0-.16 1-3.16 1.2-3.56 1-2.84 4-11 7.56-11a1.92 1.92 0 0 1 1.84 2.08c0 2.16-1.88 4.48-3.24 6.08-.76.88-1.6 1.72-2.4 2.56l-3.92 4.08a14.42 14.42 0 0 0-.6 3.68c0 1 .44 2.12 1.6 2.12 1.6 0 2.84-1.32 3.72-2.52 1.28-1.76 1.68-3.48 2.44-5.44.16-.4.4-.8.88-.8.84-.03 1.16.77 1.4 1.48zM77.51 2.8a55.18 55.18 0 0 0-4.8 9.6l-.08.28c1.6-1.72 5.84-6.24 6.72-8.08a5 5 0 0 0 .56-2c0-.48-.16-1-.72-1s-1.36.75-1.68 1.2z"/><path class="a" d="M96.39 13.92c0 1.88-4.24 3.16-5.6 3.64h-.08v.24c0 1.56 1.16 2.24 2.56 2.4.2 0 .44.16.44.4a.44.44 0 0 1-.44.44 3.75 3.75 0 0 1-3.76-2.69c0-.12 0-.4-.08-.48a19.64 19.64 0 0 1-3.4.36.44.44 0 0 1-.44-.44.44.44 0 0 1 .44-.44 14.52 14.52 0 0 0 3.48-.4c.44-2.16 2.2-4.8 4.68-4.8a2 2 0 0 1 2.2 1.77zm-1.64 0c0-.4-.44-.52-.8-.52-1.6 0-2.8 1.88-3.12 3.28.96-.24 3.92-1.68 3.92-2.8zm-3-4.72c-.16 0-.24 0-.24-.16 0-.28 2.68-2.6 3.32-2.6.32 0 .6.16.6.4 0 .52-2.44 2.08-3.32 2.32a1.11 1.11 0 0 1-.36 0z"/><path class="a" d="M118.31 16.52c.48 1.68.8 3.72 3 3.72a.43.43 0 0 1 .4.4.41.41 0 0 1-.4.44c-4.4 0-3.72-5.28-5-5.28-1.08 0-3.4 5.4-5.28 5.4-.84 0-1.16-.76-1.16-1.48 0-1.32.68-2.76.68-4 0-.6-.16-.88-.8-.88-.84 0-2.68 1.36-3.48 1.8-3.64 2-8.84 4.4-13 4.4a.41.41 0 0 1-.4-.44c0-.36.28-.4.56-.4 2.56 0 5.76-1.28 8.12-2.28a48.3 48.3 0 0 0 6.84-3.88 2.8 2.8 0 0 1 1.56-.52 1.83 1.83 0 0 1 1.84 2c0 1.24-.8 2.76-.8 3.92 0 .2 0 .48.24.48.88 0 3.6-5.64 5.44-5.64.96.07 1.4 1.44 1.64 2.24z"/><path class="a" d="M140.23 15.6a3.57 3.57 0 0 1 1.44 2.72c0 4.16-5.44 5.32-8.68 5.32-.32 0-1.12-.16-1.12-.6s.64-.52 1-.52a13.8 13.8 0 0 0 3.4-.32 5.33 5.33 0 0 0 3.56-2.12 2.91 2.91 0 0 0 .52-1.72c0-2.16-3.92-4.32-5.32-5.84a69 69 0 0 1-7.44 6.24c-2.24 1.56-3.56 2.32-6.36 2.32a.44.44 0 0 1-.44-.4.44.44 0 0 1 .44-.44 9 9 0 0 0 4.36-1.36 11.68 11.68 0 0 0 1.28-.84 61.17 61.17 0 0 0 5.88-4.76l1.68-1.6a2.72 2.72 0 0 1-.32-1.24c0-1.48 1.48-3.6 3.08-3.6a1.21 1.21 0 0 1 1.24 1.28c0 1.32-1.56 2.84-2.56 3.6h-.08c1.36 1.4 2.96 2.63 4.44 3.88zm-5-5.12v.4c.48-.44 2-1.8 2-2.48a.33.33 0 0 0-.36-.36c-.8 0-1.6 1.76-1.6 2.44zm10.4 8.87a1 1 0 0 1 1.08 1 1 1 0 0 1-.84.92 1.24 1.24 0 0 1-1.16-1.08c0-.36.12-.6.4-.68a1.1 1.1 0 0 1 .52-.16zm1-4c-.2 0-.28-.16-.28-.36a16.61 16.61 0 0 1 .56-3.08c.32-1.44.44-2.56.72-4 .32-1.76.84-6.4 2-6.4a.77.77 0 0 1 .72.84 2.4 2.4 0 0 1-.12.8 102.52 102.52 0 0 1-3 11.28c-.28.65-.36.92-.6.92zM12.95 47.88c2.64-4.64 5-9 6.2-11.4.16-.28.48-1.24 1.36-1.24a.61.61 0 0 1 .6.48 1.9 1.9 0 0 1-.2.56c-.32.8-3.4 6.64-3.88 7.44-2.24 3.88-4.12 7.24-5.6 9.56-.64 1-1.76 2.76-3 2.76-2.12 0-2.52-5-4.36-14.52a46.69 46.69 0 0 1-.8-4.92c0-.72-.08-1.64.8-1.64.56 0 .72 1.36.88 2.2.2 1.36 2.52 17 3.8 17 .12 0 .24-.08.4-.24 1.48-1.64 2.2-3.28 3.8-6.04zm13.88 3.32a15.53 15.53 0 0 0 2.36.12.44.44 0 0 1 .44.44.44.44 0 0 1-.44.44 15.47 15.47 0 0 1-2.6-.16c-.8 2.12-3.16 4-5.32 4a2.68 2.68 0 0 1-2.56-3 8 8 0 0 1 2.16-4.88c.72-.88 2-2.16 3.24-2.16s1.6 1 1.6 2a3 3 0 0 1 1.16 2.48 3.43 3.43 0 0 1-.04.72zm-1.44.52a2.77 2.77 0 0 1-2.24-2.6c0-.84.64-1.28 1.56-1.36a.81.81 0 0 0-.68-.44 1.6 1.6 0 0 0-1 .36 8.12 8.12 0 0 0-3 5.56A1.64 1.64 0 0 0 21.71 55c1.09 0 3-1.36 3.68-3.28zm.24-.84v-.56c0-.84-.44-1.52-1.12-1.52-.16 0-.24.16-.24.32a1.8 1.8 0 0 0 1.36 1.76z"/><path class="a" d="M39.67 46.24c.6 0 2.16.56 2.16 1.28 0 .16-.08.24-.28.24-.48 0-.68-.6-1.48-.6-1.76 0-3.24 3-3.24 4.56a2.43 2.43 0 0 0 2.48 2.52.47.47 0 0 1 .44.44.41.41 0 0 1-.44.4 3.69 3.69 0 0 1-3.8-2.73 1.42 1.42 0 0 1-.08-.4 5.27 5.27 0 0 1 .24-1.56 12.94 12.94 0 0 1-6.56 1.8.44.44 0 0 1-.44-.44.44.44 0 0 1 .44-.44 14.64 14.64 0 0 0 7.12-2.36c.72-1.23 1.92-2.71 3.44-2.71z"/><path class="a" d="M60.43 52.8c0 1.2-2.32 1.92-3.24 2.12a7.59 7.59 0 0 1-1.64.16 3.86 3.86 0 0 1-3.76-2.52 39.62 39.62 0 0 1-12.52 2.52.41.41 0 0 1-.4-.44.43.43 0 0 1 .4-.4 27 27 0 0 0 5.08-.56c1.52-.28 3-.72 4.48-1.12a22.27 22.27 0 0 0 2.32-.72l.56-.24c0-2.36 2.16-5.48 4.72-5.48a2 2 0 0 1 2.2 1.8c0 1.68-4.08 3.56-5.44 4.12l-.24.08a2.6 2.6 0 0 0 2.64 2.12 6.26 6.26 0 0 0 3.76-1.08 9.41 9.41 0 0 1 .84-.64c.2 0 .24.08.24.28zm-.44-9.64c0 .16-.08.2-.24.2a8.89 8.89 0 0 1-2.52-1.24 6.93 6.93 0 0 0-.84-.48 4 4 0 0 0-1.12.56 8 8 0 0 1-2.24 1.12c-.28 0-.28-.16-.28-.16 0-.4 2.08-1.8 3.12-2.44a.84.84 0 0 1 .44-.16h.08a22.68 22.68 0 0 1 3.36 2.2c.2.16.24.28.24.4zm-7 7.88c.92-.44 4.08-1.8 4.08-3 0-.48-.4-.72-.88-.72-1.76.03-2.88 2.2-3.2 3.72zm27.68-3.48c0 .16-.12.2-.24.2-.44 0-.64-.6-1.52-.6-1.76 0-3.24 3-3.24 4.56a2.51 2.51 0 0 0 2.52 2.52c.24 0 .4.12.4.4a.41.41 0 0 1-.4.44c-1.88 0-3.84-1.32-3.84-3.36s1.88-5.48 4.16-5.48c.68 0 2.16.52 2.16 1.32z"/><path class="a" d="M98.11 51.2a15.55 15.55 0 0 0 2.4.15.44.44 0 0 1 .44.44.44.44 0 0 1-.44.44 15.47 15.47 0 0 1-2.6-.16c-.8 2.12-3.16 4-5.32 4a2.68 2.68 0 0 1-2.56-3 5.43 5.43 0 0 1 .36-1.92c-3.56 1.56-8.36 3.88-12.16 3.88a.41.41 0 0 1-.4-.44.43.43 0 0 1 .4-.4 12.67 12.67 0 0 0 3.44-.6 46.5 46.5 0 0 0 9.36-3.84 15.82 15.82 0 0 1 1.16-1.56c.72-.88 2-2.16 3.24-2.16s1.6 1 1.6 2a3 3 0 0 1 1.16 2.48 3.43 3.43 0 0 1-.08.69zm-1.44.52a2.77 2.77 0 0 1-2.24-2.6c0-.84.64-1.28 1.56-1.36a.81.81 0 0 0-.68-.44 1.6 1.6 0 0 0-1 .36 8.12 8.12 0 0 0-3 5.56A1.64 1.64 0 0 0 92.99 55c1.08 0 3-1.36 3.68-3.28zm.24-.84v-.56c0-.84-.44-1.52-1.12-1.52-.16 0-.24.16-.24.32a1.8 1.8 0 0 0 1.36 1.76z"/><path class="a" d="M117.67 50.52c.52 1.68.76 3.72 3 3.72a.44.44 0 0 1 .44.4.44.44 0 0 1-.44.44c-4.4 0-3.72-5.28-5-5.28-1.12 0-3.4 5.4-5.28 5.4-.84 0-1.16-.76-1.16-1.48 0-1.32.68-2.76.68-4 0-.52-.12-1-.72-1-1.56 0-4.52 3.48-8.72 3.48a.44.44 0 0 1-.44-.44.44.44 0 0 1 .44-.44 8.57 8.57 0 0 0 3.12-.8c1.56-.76 4.08-3 5.64-3a1.88 1.88 0 0 1 1.88 2.08c0 1.24-.8 2.72-.8 3.92 0 .2 0 .48.24.48.88 0 3.6-5.64 5.44-5.64 1.04-.01 1.44 1.36 1.68 2.16z"/><path class="a" d="M120.59 54.24a11.59 11.59 0 0 0 3.52-.6 23.16 23.16 0 0 0 5.8-3.52 3.31 3.31 0 0 0 .68-.6c.12-.16.2-.44.32-.64a6.58 6.58 0 0 1 1.56-1.92 3.09 3.09 0 0 1 1.8-.72c.64 0 2.12.56 2.12 1.28a.21.21 0 0 1-.24.24c-.48 0-.68-.6-1.48-.6-1.8 0-3.24 3-3.24 4.6s1 2.32 2.48 2.48c.24 0 .44.16.44.44a.41.41 0 0 1-.44.4 3.69 3.69 0 0 1-3.76-2.72c0-.12-.08-.28-.08-.4a5.36 5.36 0 0 1 0-.8c-2.8 2.2-5.88 3.92-9.52 3.92a.41.41 0 0 1-.44-.4.44.44 0 0 1 .48-.44z"/><path class="a" d="M152.51 36.35c.68-.84 2-2.08 3.12-2.08s1.76 1.44 1.76 2.44c0 1.92-1.4 4.76-2.48 6.32a23.8 23.8 0 0 1-3.76 4.24 6.15 6.15 0 0 1-.76.68c.56 2.72 2.56 6.24 5.72 6.24a.43.43 0 0 1 .4.4.41.41 0 0 1-.4.44c-3.64 0-6-2.92-6.72-6.2-3.92 3-10.68 6.2-15.56 6.2a.44.44 0 0 1-.44-.44.44.44 0 0 1 .44-.4 12.61 12.61 0 0 0 3.44-.56 34.59 34.59 0 0 0 11.88-5.8c0-.6-.16-1.2-.16-1.84a16.91 16.91 0 0 1 3.52-9.64zm1.64 6.08c.84-1.32 2.16-3.76 2.16-5.32 0-.72-.32-1.28-1.08-1.28-1.08 0-2.32 1.8-2.8 2.64a15.69 15.69 0 0 0-2.24 7.52 7.07 7.07 0 0 0 0 .92 20 20 0 0 0 4-4.43z"/><path class="a" d="M169.35 54.52c2-1.32 2.68-3.28 3.68-5.32.28-.56.8-1.32 1.48-1.32 1.24 0 .88 2.24 1 3.08a3.86 3.86 0 0 0 3.2 3.2c.32.08 1.08 0 1.08.48a.44.44 0 0 1-.44.44 5.44 5.44 0 0 1-5.48-4.64 6.32 6.32 0 0 1-.72 1.48c-1.16 2-2.84 4.2-5.36 4.2-2.08 0-3.08-1.76-3.08-3.64a6.77 6.77 0 0 1 .24-1.8 14.59 14.59 0 0 1-4.4 3.4 9.66 9.66 0 0 1-4.48 1 .41.41 0 0 1-.4-.44.43.43 0 0 1 .4-.4 8.2 8.2 0 0 0 4-1 14.75 14.75 0 0 0 4.44-3.89c.36-.56 1.24-2 2-2a.85.85 0 0 1 .8.88c0 1.08-1.48 2.6-1.48 4.56a2 2 0 0 0 2.08 2.16 2.42 2.42 0 0 0 1.44-.43z"/><path class="a" d="M189.83 47.68a1.38 1.38 0 0 1 .28 1 7.32 7.32 0 0 0 1.4 4.67 2.41 2.41 0 0 0 2 .88c.2 0 .44.16.44.4a.44.44 0 0 1-.44.44c-2.88 0-4.32-3-4.48-5.48a14.27 14.27 0 0 1-5.28 4.48 9.66 9.66 0 0 1-4.48 1 .44.44 0 0 1-.44-.44.44.44 0 0 1 .44-.4 8.05 8.05 0 0 0 4-1 12.31 12.31 0 0 0 4.24-3.88c.36-.52 1.08-2 1.8-2a.73.73 0 0 1 .52.33zm-.76-6.24c0-.4.36-.56.72-.56.64 0 1 .84 1 1.4 0 .32-.16.6-.48.6-.6 0-1.24-.92-1.24-1.44z"/><path class="a" d="M216.71 54.28c0 .68-1.28 1-1.8 1-2.44 0-3.48-2.76-3.68-4.8a6.36 6.36 0 0 1-.72 1.48c-1.16 1.92-2.88 4.2-5.36 4.2a3.21 3.21 0 0 1-3.12-3.48 8 8 0 0 1 .28-2 14.59 14.59 0 0 1-4.4 3.4 9.66 9.66 0 0 1-4.48 1 .44.44 0 0 1-.44-.44.44.44 0 0 1 .44-.4 8.2 8.2 0 0 0 4-1 14.75 14.75 0 0 0 4.44-3.88c.36-.56 1.24-2 2-2a.85.85 0 0 1 .8.88c0 1.08-1.48 2.6-1.48 4.56a2 2 0 0 0 2.08 2.16 2.42 2.42 0 0 0 1.4-.44c2-1.36 2.68-3.24 3.68-5.32.28-.56.8-1.32 1.48-1.32s1 1 1 1.6-.12 1-.12 1.52c0 1.48.52 3.36 2.32 3.36.52 0 1-.24 1.52-.24a.17.17 0 0 1 .16.16zM10.79 81.92c0 2-3.92 2.76-5.4 3.28a.58.58 0 0 1-.28.08v.44a2.5 2.5 0 0 0 2.6 2.52c.24 0 .44.12.44.4a.44.44 0 0 1-.44.44c-1.92 0-4-1.4-3.84-3.48a14.78 14.78 0 0 1-2.64.28c-.36 0-1.2-.24-1.2-.72 0-.28.44-.28.64-.28a16.14 16.14 0 0 0 3.4-.4v-.16a6.13 6.13 0 0 1 3.08-3.88 2.78 2.78 0 0 1 1.4-.32 2 2 0 0 1 2.24 1.8zm-1.64 0c0-.4-.44-.52-.8-.52-1.44 0-2.56 1.56-3 2.8.88-.2 3.8-1.24 3.8-2.32z"/><path class="a" d="M36.43 89.64a2.83 2.83 0 0 1 1.16-2c1.52-1.32 4.44-1.68 6.4-2-.92-2-3.88-3.52-5.32-5.16a27.48 27.48 0 0 1-6.76 4.64 3.27 3.27 0 0 1 .32 1.16c.2 3.12-3.8 5.12-6.48 5.12-1.12 0-2.48-.44-2.48-1.8 0-2.68 4.6-3.92 6.84-4.8-1.28-1.52-3.72-3.08-4.64-4.32a40.52 40.52 0 0 1-6.92 5.36 22.63 22.63 0 0 1-10.84 3.2.41.41 0 0 1-.4-.44.43.43 0 0 1 .4-.4 13.66 13.66 0 0 0 3.6-.44 25.66 25.66 0 0 0 4.8-1.8 37.87 37.87 0 0 0 7.12-4.72l1.68-1.6a2.72 2.72 0 0 1-.32-1.24c0-1.48 1.48-3.6 3.08-3.6a1.21 1.21 0 0 1 1.24 1.28c0 1.68-1.64 2.6-2.6 3.64a43.25 43.25 0 0 0 4.56 4l.52.52a23.48 23.48 0 0 0 6.72-4.52 2.88 2.88 0 0 1-.32-1.28c0-1.48 1.48-3.6 3.08-3.6a1.21 1.21 0 0 1 1.24 1.28c0 1.32-1.56 2.84-2.56 3.6h-.08c1.4 1.36 3 2.56 4.48 3.84a4.38 4.38 0 0 1 1.28 1.8c.4 0 1.28-.08 1.52-.08a.44.44 0 0 1 .44.44.44.44 0 0 1-.44.44h-1.36c.44 3.16-3.76 5.16-6.36 5.16-1.2.03-2.6-.32-2.6-1.68zm-5.72-4c-2 .76-6.36 2.16-6.36 3.8 0 .84.76 1.12 1.48 1.12 2 0 5.16-1.6 5.16-4a2.19 2.19 0 0 0-.28-.92zm-4.92-7.2a1.5 1.5 0 0 0 0 .44c.48-.44 1.92-1.8 1.92-2.48a.34.34 0 0 0-.36-.36c-.84 0-1.56 1.72-1.56 2.4zm18.4 8.24v-.24c-1.68.16-6.68.8-6.68 3.08 0 .8.8 1 1.48 1 2.04.04 5.2-1.52 5.2-3.84zm-5.24-8.2v.4c.48-.44 1.92-1.8 1.92-2.48a.32.32 0 0 0-.36-.36c-.76 0-1.56 1.76-1.56 2.44z"/><path class="a" d="M58.83 86.8c0 .88-1.4 1.56-2.12 1.84a11.38 11.38 0 0 1-1.12.28 7.59 7.59 0 0 1-1.64.16c-1.8 0-3.84-1.28-3.84-3.24a19.69 19.69 0 0 1-3.44.36.44.44 0 0 1-.44-.44.44.44 0 0 1 .44-.44 14.85 14.85 0 0 0 3.52-.4c.4-2.16 2.2-4.8 4.64-4.8a2 2 0 0 1 2.2 1.76c0 1.84-4.16 3.28-5.56 3.68h-.12a2.54 2.54 0 0 0 2.64 2.64 6.26 6.26 0 0 0 3.76-1.08 9.41 9.41 0 0 1 .84-.64c.2.04.24.12.24.32zm-7.32-2.16c1-.24 3.92-1.64 3.92-2.8 0-.4-.48-.48-.8-.48-1.64-.01-2.8 1.88-3.12 3.28zm27.56-3.08c0 .16-.12.2-.24.2-.44 0-.64-.6-1.52-.6-1.76 0-3.24 3-3.24 4.56a2.51 2.51 0 0 0 2.52 2.52c.24 0 .4.12.4.4a.41.41 0 0 1-.4.44c-1.88 0-3.84-1.32-3.84-3.36s1.88-5.48 4.16-5.48c.68 0 2.16.52 2.16 1.32z"/><path class="a" d="M94.99 88.52c1.92-1.24 2.72-3.4 3.68-5.36.28-.52.8-1.28 1.44-1.28 1.24 0 .92 2.28 1 3.08a3.78 3.78 0 0 0 3.16 3.2c.32.08 1.12 0 1.12.48a.44.44 0 0 1-.44.44 5.44 5.44 0 0 1-5.48-4.64c-1 2.4-3.16 5.64-6.08 5.64-2 0-3.12-1.6-3.12-3.48a14.59 14.59 0 0 1 .48-2.64c-.72.36-1.36.84-2.08 1.2-3.56 1.84-8.2 3.92-12.2 3.92a.44.44 0 0 1-.4-.44c0-.32.32-.4.56-.4 2.52 0 5.8-1.28 8.12-2.28a23 23 0 0 0 3.16-1.61 17.06 17.06 0 0 0 1.64-1.16c.56-.4 2-1.8 2.64-1.8a.85.85 0 0 1 .8.88c0 1.08-1.48 2.6-1.48 4.56a2 2 0 0 0 2.08 2.12 2.48 2.48 0 0 0 1.4-.43z"/><path class="a" d="M122.27 88.24a.44.44 0 0 1 .44.4.44.44 0 0 1-.44.44c-2 0-4.28-1-4.28-3.36 0-1.72 1.08-3.32 1.08-5 0-1.08-1.2-1.6-2-2h-.12a24.75 24.75 0 0 1-4.24 5.36c-1.76 1.68-3.32 3.48-5.52 4.56a4.51 4.51 0 0 1-2 .48c-.28 0-.64 0-.64-.44a.43.43 0 0 1 .4-.4 4.43 4.43 0 0 0 1.6-.36c2.44-1.08 8.32-7 9.6-9.68-.92-.48-2-1.16-2-2.32a1.73 1.73 0 0 1 1.76-1.68 2 2 0 0 1 2 1.92 3.85 3.85 0 0 1-.36 1.48h.12c1.36.6 2.72 1.32 2.72 3s-.8 3.16-1.12 4.76a1.36 1.36 0 0 0 0 .4c-.12 1.55 1.68 2.44 3 2.44zm-5.8-11.16a3 3 0 0 0 .12-.84c0-.32-.16-.8-.6-.8a.65.65 0 0 0-.64.6c.04.44.76.8 1.16 1.04z"/><path class="a" d="M136.31 91.35c-1.16 0-2.52-.4-2.52-1.76a2.78 2.78 0 0 1 1.12-2c1.52-1.32 4.4-1.72 6.36-2-1-2-3.84-3.44-5.28-5.12a61.85 61.85 0 0 1-7.44 6.28c-2.2 1.56-3.52 2.32-6.32 2.32a.45.45 0 0 1-.48-.4.44.44 0 0 1 .44-.44 9 9 0 0 0 4.36-1.36c3.28-1.88 6.12-4.64 8.88-7.2a2.19 2.19 0 0 1-.36-1.12c0-1.56 1.4-3.72 3.08-3.72a1.21 1.21 0 0 1 1.24 1.28c0 1.32-1.56 2.84-2.52 3.6h-.08c1.44 1.36 3 2.52 4.44 3.84a4.66 4.66 0 0 1 1.28 1.8c.4 0 1.28-.08 1.52-.08a.44.44 0 0 1 .44.44.44.44 0 0 1-.44.44h-1.28c.28 3.09-3.84 5.2-6.44 5.2zm5.16-4.76v-.24c-1.68.16-6.64.84-6.64 3.12 0 .8.8 1 1.48 1 2.04.09 5.2-1.47 5.2-3.83zm-5.16-8.2a1.5 1.5 0 0 0 0 .44c.48-.44 1.92-1.8 1.92-2.48a.34.34 0 0 0-.36-.36c-.8.05-1.56 1.77-1.56 2.45z"/><path class="a" d="M160.99 85.96c0 .68-1.12.72-1.6.72a5.81 5.81 0 0 1-2-.2 5.9 5.9 0 0 1-5.24 3.64c-1.76 0-2.56-1.52-2.56-3.08a6.19 6.19 0 0 1 .56-2.4 12.55 12.55 0 0 1-6.12 1.56.41.41 0 0 1-.4-.44.4.4 0 0 1 .44-.44 14.44 14.44 0 0 0 7-2.32c.76-1.12 2.36-2.76 3.8-2.76 1.16 0 1.64 1.12 1.64 2.12a3 3 0 0 1 1.16 2.48 4.89 4.89 0 0 1-.08.76 5.43 5.43 0 0 0 1.8.24c.32 0 .64-.08 1-.08.12 0 .6.04.6.2zm-4.64 0c-.76-.24-2.4-1.76-2.4-2.64a1.37 1.37 0 0 1 1.52-1.24c-.12-.24-.28-.48-.6-.48a2.52 2.52 0 0 0-.92.32 7 7 0 0 0-3.12 5.4 1.47 1.47 0 0 0 1.56 1.64 4.38 4.38 0 0 0 3.96-3zm.16-1.08c0-.56-.48-1.8-1.16-1.8-.2 0-.28.2-.28.36 0 .72 1 1.16 1.44 1.56zm7.24 2.47a1.12 1.12 0 0 1 1.08 1 .85.85 0 0 1-.84.88 1 1 0 0 1-1.08-1.08.65.65 0 0 1 .24-.6.88.88 0 0 1 .6-.2z"/></svg>