<svg xmlns="http://www.w3.org/2000/svg" viewBox="0 0 197.11 40.47"><defs><style>.a{fill:#fff}</style></defs><title>p15_s1</title><path class="a" d="M14.55 0c.48 0 .6.12.6.28s-.12.52-1.32.84c-.76.2-3.4.64-3.4.64l-4 .52c-.28 1-.36 1.44-2.32 9.36 1.28 0 5.92-.68 5.92-.48h1.68c1.24 0 1.8.16 1.8.6 0 .68-2.6.6-5.6.92-1.16.12-3.48.48-4.16.48-1.24 5.2-2.36 10.48-3.24 10.48A.59.59 0 0 1 .03 23a16.66 16.66 0 0 1 .56-2.28l1.8-7.48c-.32 0-.6-.08-.6-.4s.24-.6.92-.84l1.4-5.84c.32-1.4.68-2.84.92-3.76-.6-.08-.84-.32-.84-.6s.12-.72 1.52-.88c4-.44 8.2-.84 8.52-.88zm8.13 14.96a1.48 1.48 0 0 1 .28 1.08 7.89 7.89 0 0 0 1.36 4.64 2.51 2.51 0 0 0 .92.68c.4.16 1.56.08 1.56.6a.44.44 0 0 1-.44.44c-2.88 0-4.32-3-4.48-5.48a14.23 14.23 0 0 1-4.12 4.88 8.25 8.25 0 0 1-5.08 1.92c-.36 0-1.52-.12-1.52-.64 0-.28.6-.28.8-.28a7.14 7.14 0 0 0 2.76-.44 10.5 10.5 0 0 0 3-2 11.1 11.1 0 0 0 3-4 4.46 4.46 0 0 1 .72-1.36.92.92 0 0 1 .68-.32.65.65 0 0 1 .56.28zm-.76-6.2c0-.4.36-.56.72-.56.64 0 1 .84 1 1.4 0 .32-.16.6-.48.6-.54 0-1.24-.96-1.24-1.44z"/><path class="a" d="M47.55 17.84c.48 1.68.84 3.72 3 3.72a.44.44 0 0 1 .44.4.44.44 0 0 1-.44.44c-4.36 0-3.76-5.28-5-5.28-1.12 0-3.44 5.4-5.28 5.4-.84 0-1.16-.76-1.16-1.48 0-1.32.68-2.76.68-4 0-.52-.08-1.12-.72-1.12-2.44 0-7.2 6.44-11.68 6.44-.4 0-1.52.2-1.52-.44a.44.44 0 0 1 .44-.4 10.26 10.26 0 0 0 6.24-2.4c1.4-1 3.92-3.48 5.36-4.08a3.29 3.29 0 0 1 1.2-.28 1.88 1.88 0 0 1 1.88 2.08c0 1.28-.8 2.72-.8 3.92 0 .2 0 .48.28.48.88 0 3.52-5.64 5.44-5.64.96.04 1.4 1.44 1.64 2.24z"/><path class="a" d="M64.15 18.52a4.83 4.83 0 0 0 .52 1.24 3.08 3.08 0 0 0 2.68 1.8.44.44 0 0 1 .44.4.44.44 0 0 1-.44.44c-3.56 0-4.08-3.52-5-3.52s-2.12 4.32-5.64 4.32a2 2 0 0 1-2.16-2.12v-.24a5.92 5.92 0 0 1-4.08 1.56.4.4 0 0 1-.44-.44.43.43 0 0 1 .4-.4c1.8 0 3.32-1.28 4.64-2.4 1-1.72 3-3.8 5.16-3.8a2.87 2.87 0 0 1 2.48 1.28c1.16-.12 1.2 1.08 1.44 1.88zm-2.84-.92c-.32-.52-.68-1-1.32-1-1.68 0-4.08 2.68-4.08 4.28a1.09 1.09 0 0 0 1.16 1.16c1.8 0 3.28-3.2 4.24-4.44z"/><path class="a" d="M78.19 3.72c.68-.84 2-2.08 3.12-2.08s1.76 1.48 1.76 2.52c0 2.84-2.72 7.92-4.44 10.16l-.84 1.08c-.4.56-.76 1.16-1.2 1.68.92 2.2 2.52 4.48 5.16 4.48a.44.44 0 0 1 .44.4.44.44 0 0 1-.44.44c-2.84 0-4.88-1.8-6-4.28-2.56 2.88-4.52 4.28-8.48 4.28a.44.44 0 0 1-.4-.44.43.43 0 0 1 .4-.4 8.93 8.93 0 0 0 3.4-.56 13 13 0 0 0 4.64-4 13.14 13.14 0 0 1-.6-3.72 17.08 17.08 0 0 1 3.48-9.56zm2 6.24a14 14 0 0 0 1.84-5.36c0-.68-.28-1.4-1.08-1.4a1.55 1.55 0 0 0-.92.36c-2.44 1.76-4.08 6.92-4.08 9.8a10.24 10.24 0 0 0 .28 2.48 52.21 52.21 0 0 0 3.92-5.88z"/><path class="a" d="M92.27 15a1.39 1.39 0 0 1 .28 1 7.32 7.32 0 0 0 1.4 4.64 2.41 2.41 0 0 0 2 .88c.2 0 .44.16.44.4a.44.44 0 0 1-.44.44c-2.88 0-4.32-3-4.48-5.48a14.27 14.27 0 0 1-5.28 4.48 9.66 9.66 0 0 1-4.48 1 .44.44 0 0 1-.44-.44.44.44 0 0 1 .44-.4 8 8 0 0 0 4-1 12.3 12.3 0 0 0 4.24-3.88c.36-.52 1.08-2 1.8-2a.73.73 0 0 1 .52.36zm-.76-6.24c0-.4.36-.56.72-.56.64 0 1 .84 1 1.4 0 .32-.16.6-.48.6-.6 0-1.24-.92-1.24-1.44z"/><path class="a" d="M113.71 27.76a13.87 13.87 0 0 1 .32 3.16 20.51 20.51 0 0 1-.6 5 5.67 5.67 0 0 1-5.32 4.6 3 3 0 0 1-3.08-3.16c0-4.44 4-7.28 7.24-9.6-.4-1.4-1-3-2.32-3.84-.88.8-2.08 2-3.4 2a1.06 1.06 0 0 1-1.16-1c0-1.44 1.8-2.44 3.08-2.44a3.42 3.42 0 0 1 1.24.24c1.16-1.16 3.36-3.84 3.36-5.48 0-1.44-1.52-2.08-2.8-2.08-4.12 0-6.92 4.56-10.4 6.32a7.69 7.69 0 0 1-4 1 .44.44 0 0 1-.44-.44.44.44 0 0 1 .44-.4 6.45 6.45 0 0 0 3.52-.92 31.64 31.64 0 0 0 4.76-3.6 19.66 19.66 0 0 1 2.28-1.8 7.46 7.46 0 0 1 4-1.4c2 0 4 .84 4 3.08s-2.16 4.72-3.8 6.24a7.15 7.15 0 0 1 2.72 3.76l1.44-1.08a19.63 19.63 0 0 1 2.32-1.76.53.53 0 0 1 .32-.12.45.45 0 0 1 .44.48.35.35 0 0 1-.12.24h-.08c-1.28.88-2.48 1.92-3.76 2.84zm-2.84 10.44c1.64-1.68 1.84-4.28 1.84-7a13.19 13.19 0 0 0-.24-2.52c-2.84 1.88-6.16 4.68-6.16 8.56a1.91 1.91 0 0 0 2 2.08 4.08 4.08 0 0 0 2.56-1.13zm-2-14.72h-.32c-.52 0-1.92.44-1.92 1.12a.22.22 0 0 0 .24.2c.68 0 1.48-.92 2-1.32z"/><path class="a" d="M137.51 18.52a4.76 4.76 0 0 0 .52 1.24 3.07 3.07 0 0 0 2.68 1.8.44.44 0 0 1 .44.4.44.44 0 0 1-.44.44c-3.56 0-4.08-3.52-5-3.52s-2.12 4.32-5.6 4.32a2 2 0 0 1-2.2-2.12 4.64 4.64 0 0 1 .8-2.4 83.82 83.82 0 0 0-8.44 4.32 26.71 26.71 0 0 1-2.76 1.8.44.44 0 0 1-.44-.4.45.45 0 0 1 .12-.32 16.6 16.6 0 0 1 1.84-1.28 44.76 44.76 0 0 1 4.24-2.44c1.56-.8 3.12-1.56 4.72-2.28.68-.36 1.48-.64 2.12-1 .24-.16.48-.44.72-.64a4.61 4.61 0 0 1 2.76-1 2.82 2.82 0 0 1 2.48 1.28c1.16-.2 1.24 1 1.44 1.8zm-2.84-.92c-.32-.52-.68-1-1.32-1-1.68 0-4 2.64-4 4.24a1.05 1.05 0 0 0 1.12 1.2c1.76 0 3.24-3.2 4.2-4.44z"/><path class="a" d="M140.62 21.56a11.59 11.59 0 0 0 3.52-.6 23.16 23.16 0 0 0 5.8-3.52 3.31 3.31 0 0 0 .68-.6c.12-.16.2-.44.32-.64a6.58 6.58 0 0 1 1.56-1.92 3.09 3.09 0 0 1 1.8-.72c.64 0 2.12.56 2.12 1.28a.21.21 0 0 1-.24.24c-.48 0-.68-.6-1.48-.6-1.8 0-3.24 3-3.24 4.6s1 2.32 2.48 2.48c.24 0 .44.16.44.44a.41.41 0 0 1-.44.4 3.69 3.69 0 0 1-3.76-2.72c0-.12-.08-.28-.08-.4a5.36 5.36 0 0 1 0-.8c-2.8 2.2-5.88 3.92-9.52 3.92a.41.41 0 0 1-.44-.4.44.44 0 0 1 .48-.44zm10.56 5.2c0-.36.76-.36 1.28-.88 1.28-1.36.32-3 1.28-3 .28 0 .52.12.52.4 0 1.12-.32 3.44-2.56 3.68-.23-.04-.51-.04-.51-.2z"/><path class="a" d="M174.11 18.52a6.63 6.63 0 0 0 .48 1.24 3.09 3.09 0 0 0 2.72 1.8.44.44 0 0 1 .44.4.44.44 0 0 1-.44.44c-3.56 0-4.12-3.52-5-3.52s-2.12 4.32-5.6 4.32a2 2 0 0 1-2.2-2.12 4.53 4.53 0 0 1 .64-2.16c-3.08 1.44-7.92 3.48-11.24 3.48a.44.44 0 0 1-.44-.44c0-.32.32-.4.56-.4 2.2-.08 6-1.4 8.08-2.28a31.47 31.47 0 0 0 4.4-2 5.21 5.21 0 0 1 3.64-1.84 2.82 2.82 0 0 1 2.48 1.28c1.16-.2 1.28 1.04 1.48 1.8zm-2.88-.92c-.28-.52-.64-1-1.28-1-1.68 0-4.08 2.68-4.08 4.28a1.06 1.06 0 0 0 1.12 1.16c1.8 0 3.36-3.16 4.24-4.44zm2.16-6.84c.16 0 .24.12.24.32 0 .84-1.48 1.6-2.36 1.6-1.2 0-1.56-1.12-2.32-1.12-1 0-2 1.16-2.4 1.16-.12 0-.2-.08-.2-.28 0-.88 1.68-1.76 2.6-1.76 1.4 0 1.68 1.16 2.4 1.16s1.64-1 2-1.08z"/><path class="a" d="M197.11 19.28c0 .8-1.52.72-2 .72a4.32 4.32 0 0 1-1.6-.24 6 6 0 0 1-5.28 3.68c-1.68 0-2.52-1.56-2.52-3.08a4.61 4.61 0 0 1 .12-1c-2.56 1.76-4.92 3.08-8.08 3.08-.36 0-.92.08-.92-.44a.44.44 0 0 1 .44-.4 15.52 15.52 0 0 0 1.92-.16 15.44 15.44 0 0 0 6.44-3l.84-.76c.76-1.52 2.76-4.08 4.6-4.08 1.12 0 1.6 1.16 1.6 2.16a3 3 0 0 1 1.16 2.48 4.89 4.89 0 0 1-.08.76 5.65 5.65 0 0 0 1.84.2c.16-.08 1.52-.24 1.52.08zm-4.64 0c-.84-.44-2.4-1.6-2.4-2.64 0-.84.8-1.24 1.52-1.28a.65.65 0 0 0-.6-.44 2.12 2.12 0 0 0-.92.32 7 7 0 0 0-3.12 5.36 1.5 1.5 0 0 0 1.6 1.64 4.3 4.3 0 0 0 3.92-2.96zm.16-1.08c0-.56-.48-1.8-1.16-1.8-.16 0-.28.2-.28.36 0 .68 1 1.16 1.44 1.56z"/></svg>