<svg xmlns="http://www.w3.org/2000/svg" viewBox="0 0 869.88 59.54"><title>p1_s4</title><path d="M12.02 35.23c-5.79 0-12-1.11-12-6 0-4.55 5.27-8.52 8.71-10.53-2.27-.32-4.94-1.49-4.94-3.77a6.3 6.3 0 0 1 1.59-3.81C8.69 7.03 18.9 0 21.44 0c.52 0 1.23.07 1.23.84 0 .2-.19.78-1.3 1.24-5.51 2.34-15.13 8.41-15.13 12.35 0 1.5 1.23 2.6 3.25 2.6a12.53 12.53 0 0 0 5.52-1.75 10.24 10.24 0 0 1 1.82-.79.82.82 0 0 1 .78.91c0 1.37-2.73 2.28-5 3l-.58.2c-3.58 1.82-9.56 6.24-9.56 10.14 0 3.25 3.19 5 10.47 5 1 0 2 0 3.19-.07a.78.78 0 0 1 .78.72c-.01.97-1.25.84-4.89.84z" fill="#fff"/><path d="M44.85 21.13c-3.51 3.12-7 6.44-11.12 8.71-5.4 3-11.38 5.2-17.62 5.2a.67.67 0 0 1-.65-.71.7.7 0 0 1 .65-.65 22.17 22.17 0 0 0 5.85-.71 66.14 66.14 0 0 0 7.8-2.92 50.42 50.42 0 0 0 11.62-7.69l2.73-2.6a4.42 4.42 0 0 1-.52-2c0-2.41 2.4-5.85 5-5.85a2 2 0 0 1 2 2.08c0 2.73-2.67 4.23-4.23 5.92 2.21 2.47 4.88 4.29 7.41 6.44a7 7 0 0 1 2 2.92 21.08 21.08 0 0 0 8-3.25 15.34 15.34 0 0 0 5.72-6.7c-1 .07-2 .13-3.06.13-.65 0-2-.19-2-1 0-1.3 4.88-1.17 5.92-1.17.33-.84 1.43-4.22 2.54-4.22.78 0 .91 1.3.91 1.82a6 6 0 0 1-.65 2.34 33.24 33.24 0 0 1 3.64-.13c.26 0 1.1-.06 1.1.39 0 1.63-4.55 1.69-5.66 1.75v.07a24.56 24.56 0 0 0-2.41 9 5.14 5.14 0 0 0 1.5 4 7.33 7.33 0 0 0 3.64 1.36c.33.07.71.26.71.65a.72.72 0 0 1-.71.71c-3.83 0-6.76-2.6-6.76-6.43a28.57 28.57 0 0 1 .78-5.27 21.63 21.63 0 0 1-12.95 7.17c.39 5.07-6.18 8.32-10.53 8.32-1.82 0-4-.71-4-2.92 0-4.75 8.78-6.11 12.22-6.44v-.07c-1.62-3.31-6.63-5.53-8.78-8.32zm9.17 9.95v-.39c-2.67.26-10.79 1.3-10.79 4.94 0 1.37 1.23 1.82 2.41 1.82 3.3.04 8.37-2.54 8.37-6.38zm-8.45-13.33a2.44 2.44 0 0 0 .06.71c.78-.71 3.12-2.93 3.12-4a.55.55 0 0 0-.58-.58c-1.37-.03-2.61 2.76-2.61 3.87z" fill="#fff"/><path d="M96.52 34.78a12.33 12.33 0 0 1-2.67.26c-2.47 0-5.4-1.5-6-4-4.16 2.08-8.19 4-12.94 4a.72.72 0 0 1-.71-.71.71.71 0 0 1 .71-.65 19.21 19.21 0 0 0 5.72-1 53.3 53.3 0 0 0 7-3.32c.33-3.38 2.21-6.89 5.4-8.38a4.51 4.51 0 0 1 2.26-.49c1.69 0 3.58 1 3.58 2.86a3.31 3.31 0 0 1-.39 1.37 4.53 4.53 0 0 1-1.69 1.43c-.85.52-1.69.91-2.54 1.37-1.5.84-3 1.75-4.55 2.54 0 2.14 2.21 3.64 4.23 3.64a9.75 9.75 0 0 0 6.11-1.75 15.63 15.63 0 0 1 1.43-1c.26 0 .33.13.33.39-.01 2.01-3.72 3.15-5.28 3.44zm-6.69-6.57c1-.46 5.65-3.18 6.24-3.9a1.2 1.2 0 0 0 .31-.82c0-.78-.84-1-1.5-1-2.65 0-4.66 3.38-5.05 5.72zM143.38 31.33c0 2-3.77 3.12-5.27 3.45a12.33 12.33 0 0 1-2.67.26c-3.32 0-6.24-2.21-6.24-5.66a24.7 24.7 0 0 1-4.36.46c-.58 0-1.88-.39-1.88-1.17 0-.46.71-.46 1-.46a26.12 26.12 0 0 0 5.46-.65c.06-.07.06-.13.06-.26.72-3.18 3.9-6.83 7.35-6.83 1.69 0 3.58 1 3.58 2.86a3.6 3.6 0 0 1-.39 1.43c-1 2-6.31 3.32-8.32 4a1.54 1.54 0 0 1-.52.13v.6c0 2.67 1.69 4 4.23 4.22h.06a10.18 10.18 0 0 0 6.11-1.75 15.38 15.38 0 0 1 1.37-1c.37-.08.43.05.43.37zm-11.7-4.29c1.5-.33 6.11-2 6.11-3.71 0-.71-.71-.84-1.3-.84-2.27 0-4.22 2.54-4.8 4.55zm2.15-9.62c-.26 0-.39-.07-.39-.26 0-.46 4.35-4.23 5.4-4.23.52 0 1 .26 1 .65 0 .84-4 3.38-5.4 3.77a1.79 1.79 0 0 1-.61.07zM183.69 30.36H182a14.91 14.91 0 0 1-3.38-.33c-1.24 3.38-4.49 6.7-8.52 6.7-2.79 0-4.1-2.54-4.1-5 0-2.86 1.56-5.66 3.38-7.8 1.18-1.44 3.32-3.44 5.27-3.44s2.67 1.82 2.67 3.45a3.31 3.31 0 0 1 1.89 3.25 9.7 9.7 0 0 1-.13 1.37 8.77 8.77 0 0 0 2.28.33c.91.06 1.56.06 2.34.06.33 0 .91.2.91.58a1 1 0 0 1-.92.83zm-6.76-.87c-2.15-.65-3.71-2.34-3.71-4 0-1.37 1.17-2 2.41-2a1.06 1.06 0 0 0-1-.71 3.18 3.18 0 0 0-1.5.52c-2.79 1.5-5.07 5.72-5.07 8.84a2.41 2.41 0 0 0 2.6 2.67c3.08-.03 5.49-2.57 6.27-5.32zm.39-2.47a2 2 0 0 0-1.89-1.88c-.32 0-.46.39-.46.65a2.63 2.63 0 0 0 2.28 2.15 5.32 5.32 0 0 0 .07-.9zM225.55 27.63c.84 2.67 1.36 6 4.88 6a.67.67 0 0 1 .71.65.72.72 0 0 1-.71.71c-7 0-6.11-8.58-8.19-8.58-1.69 0-5.59 8.78-8.52 8.78-1.3 0-1.89-1.24-1.89-2.34 0-2.21 1-4.36 1-6.5 0-.84-.06-1.82-1.1-1.82-1.75 0-4.23 2.34-5.33 2.34a.59.59 0 0 1-.65-.52c0-1.43 4.61-3.71 6-3.71 2 0 3 1.5 3 3.32 0 2.28-1.3 4.68-1.3 6.7a.5.5 0 0 0 .46.52c.13 0 .2-.06.26-.06 2.4-2.41 3.9-5.53 6.31-7.93a3.53 3.53 0 0 1 2.27-1.17c1.82.03 2.41 2.24 2.8 3.61z" fill="#fff"/><path d="M257.2 28.73a25.36 25.36 0 0 0 3.83.19.72.72 0 0 1 .71.72.72.72 0 0 1-.71.71 25.19 25.19 0 0 1-4.23-.26c-1.3 3.45-5.14 6.57-8.65 6.57-2.73 0-4.16-2.34-4.16-4.81a8.64 8.64 0 0 1 .2-1.82c-4.1 2.79-8 5-13.07 5-.58 0-1.56.13-1.56-.71a.71.71 0 0 1 .71-.65 25.27 25.27 0 0 0 3.12-.26 20.59 20.59 0 0 0 5.55-1.92 20.24 20.24 0 0 0 4.94-3 11.64 11.64 0 0 0 1.3-1.23l.58-.91a16.32 16.32 0 0 1 1.75-2.41c1.17-1.43 3.31-3.51 5.27-3.51s2.6 1.63 2.6 3.25a4.81 4.81 0 0 1 1.89 4 5.6 5.6 0 0 1-.07 1.05zm-2.34.84c-2-.65-3.64-1.88-3.64-4.23 0-1.36 1-2.08 2.54-2.21a1.32 1.32 0 0 0-1.1-.71 2.59 2.59 0 0 0-1.62.58c-2.47 1.75-4.94 6-4.94 9a2.66 2.66 0 0 0 2.73 2.86c1.81.05 4.93-2.16 6.03-5.28zm.39-1.37a4.3 4.3 0 0 0 .06-.91c0-1.37-.71-2.47-1.82-2.47-.26 0-.39.26-.39.52a2.93 2.93 0 0 0 2.15 2.87z" fill="#fff"/><path d="M294.64 35.95a4.6 4.6 0 0 1 1.88-3.32c2.47-2.14 7.22-2.73 10.4-3.18-1.5-3.25-6.31-5.72-8.65-8.39a44.66 44.66 0 0 1-11 7.54 5.35 5.35 0 0 1 .52 1.88c.32 5.07-6.18 8.32-10.53 8.32-1.82 0-4-.71-4-2.92 0-4.36 7.48-6.37 11.12-7.8-2.15-2.47-6.11-5-7.61-7-4.35 4.23-9.23 9.3-15.73 9.3a.72.72 0 0 1-.71-.71.72.72 0 0 1 .71-.72 9.66 9.66 0 0 0 3.06-.46c4.23-1.5 8.52-5.59 11.7-8.64a4.7 4.7 0 0 1-.52-2.08c0-2.41 2.41-5.85 5-5.85a2 2 0 0 1 2 2.08c0 2.15-2.47 4.55-4.1 5.79-.06 0-.06.07-.13.07 2.21 2.47 4.94 4.35 7.48 6.5l.85.84a38.17 38.17 0 0 0 10.92-7.34 4.69 4.69 0 0 1-.52-2.08c0-2.41 2.4-5.85 5-5.85a2 2 0 0 1 2 2.08c0 2.15-2.54 4.62-4.16 5.85-.06 0-.06.06-.13.06 2.27 2.21 4.88 4.16 7.28 6.24a7.13 7.13 0 0 1 2.08 2.92c.65-.06 2.08-.13 2.47-.13a.72.72 0 0 1 .71.72.72.72 0 0 1-.71.71c-.26 0-1.3 0-2.21.06.72 5.14-6.11 8.39-10.33 8.39-1.86-.02-4.14-.67-4.14-2.88zm-9.26-6.46c-3.25 1.24-10.34 3.51-10.34 6.17 0 1.37 1.23 1.82 2.41 1.82 3.31 0 8.39-2.6 8.39-6.44a3.57 3.57 0 0 0-.46-1.55zm-8.13-11.64v.2l.06.46c.78-.71 3.12-2.93 3.12-4a.52.52 0 0 0-.58-.58c-1.33-.08-2.63 2.78-2.63 3.88zm30 13.33v-.39c-2.73.26-10.86 1.3-10.86 5 0 1.3 1.3 1.69 2.41 1.69 3.32.01 8.45-2.57 8.45-6.34zm-8.52-13.33v.2l.07.46c.78-.71 3.12-2.93 3.12-4a.52.52 0 0 0-.58-.58c-1.3-.08-2.6 2.78-2.6 3.88z" fill="#fff"/><path d="M338.84 29.97c0 1.11-1.82 1.17-2.6 1.17a9.46 9.46 0 0 1-3.32-.32 9.59 9.59 0 0 1-8.54 5.91c-2.86 0-4.16-2.47-4.16-5a10.07 10.07 0 0 1 .91-3.9 20.4 20.4 0 0 1-9.95 2.54.67.67 0 0 1-.65-.71.65.65 0 0 1 .71-.72c4.1 0 7.93-1.75 11.44-3.77 1.23-1.82 3.83-4.49 6.18-4.49 1.88 0 2.67 1.82 2.67 3.45a4.9 4.9 0 0 1 1.89 4 8 8 0 0 1-.13 1.23 8.83 8.83 0 0 0 2.93.39c.52 0 1-.13 1.56-.13.21.02 1.06.09 1.06.35zm-7.54 0c-1.23-.39-3.9-2.86-3.9-4.29a2.22 2.22 0 0 1 2.47-2c-.2-.39-.46-.78-1-.78a4.1 4.1 0 0 0-1.5.52c-2.73 1.49-5.07 5.65-5.07 8.77a2.39 2.39 0 0 0 2.54 2.67 7.13 7.13 0 0 0 6.46-4.89zm.26-1.75c0-.91-.78-2.92-1.89-2.92-.32 0-.46.33-.46.58 0 1.17 1.69 1.88 2.34 2.54zM383.38 34.39a.67.67 0 0 1-.72.65 45.21 45.21 0 0 1-8.06-.46 12.71 12.71 0 0 1-4.68-1.3c-2 7-3.12 9.36-5.07 15-1.89 5.33-3.38 11.31-7.35 11.31-1.89 0-3.25-2.21-3.25-4.75 0-9.42 11.38-24.38 16.45-31.72a16 16 0 0 0 .13-1.75c0-1-.32-2.34-.32-2.93s.52-1.43 1.3-1.43c1.3 0 1.37 1.63 1.37 2.73a4.49 4.49 0 0 1-.19 1.5c1.69-.84 2.92-1.88 5-1.88 2.6 0 5.66 1.5 5.66 4.62 0 3.9-5.27 8.78-9.3 8.78 1.5.84 6.44 1 8.32 1a.77.77 0 0 1 .71.63zm-13.46-7.54c-4.81 7.41-6.37 9.43-8.91 13.72a95.13 95.13 0 0 0-4.16 9.29 15.76 15.76 0 0 0-.78 4.75c0 1.88.46 3 1.56 3 1.69 0 2.67-2.47 4-6 1.69-4.62 2.67-7.15 4.29-12 1.46-4.51 3.01-8.54 4.05-12.76zm2.53 4.94c3 0 8.71-3.32 8.71-7.54 0-1.82-1.5-2.67-3.06-2.67a9.83 9.83 0 0 0-5.46 2c-.71 3-1.17 5.4-2 7.93a6.45 6.45 0 0 0 1.87.28z" fill="#fff"/><path d="M417.88 33.67a.72.72 0 0 1 .71.72.71.71 0 0 1-.71.65c-3.38 0-7-1.69-7-5.53 0-2.67 1.82-5.39 1.82-8.12 0-1.82-2-2.41-3.25-3.12l-.19.46c-3.12 5.72-10.14 10.6-15.93 13.59a20.62 20.62 0 0 1-10.73 2.73.71.71 0 0 1-.65-.71.7.7 0 0 1 .65-.65 18 18 0 0 0 5.59-1c6.7-2.15 16.45-8.71 19.63-15.34-1.5-.78-3.19-1.88-3.19-3.77a2.82 2.82 0 0 1 2.86-2.73 3.22 3.22 0 0 1 3.19 3.32 6.69 6.69 0 0 1-.39 2.27c2.21 1 4.42 2.15 4.42 4.94s-1.89 6.18-1.89 8.39c-.01 2.47 2.91 3.9 5.06 3.9zm-9.43-18.18l.06-.06a5 5 0 0 0 .19-1.37c0-.52-.26-1.3-1-1.3a1.06 1.06 0 0 0-1 1c0 .8 1.17 1.39 1.75 1.73z" fill="#fff"/><path d="M434.91 23.01a2.25 2.25 0 0 1 .46 1.69c0 2.47.58 5.66 2.27 7.54 1.1 1.24 1.69 1.24 3.25 1.43.33.07.72.26.72.65a.72.72 0 0 1-.72.71c-4.68 0-7-4.81-7.28-8.91a23.19 23.19 0 0 1-8.58 7.28 15.7 15.7 0 0 1-7.28 1.63.72.72 0 0 1-.72-.71.71.71 0 0 1 .72-.65 13.09 13.09 0 0 0 6.44-1.56 20 20 0 0 0 6.89-6.31c.58-.84 1.75-3.18 2.92-3.18a1.18 1.18 0 0 1 .91.39zm-1.24-10.14c0-.65.59-.91 1.17-.91 1 0 1.56 1.36 1.56 2.27 0 .52-.26 1-.78 1-.91-.02-1.95-1.51-1.95-2.36z" fill="#fff"/><path d="M487.3 25.94c1.37 2.15 1.37 6.44 3.83 7.48a5 5 0 0 0 1.36.26c.33.07.65.26.65.65a.71.71 0 0 1-.65.71c-6.56 0-5.26-7.74-7.47-7.74-.58 0-1 .58-1.37 1-1.17 1.56-3.38 4.88-4.75 6a2.77 2.77 0 0 1-1.75.65 2.15 2.15 0 0 1-2.07-1.46c-.78-2-1.24-4-2-5.85-.19-.46-.46-1.17-1-1.17-1.82 0-5.53 8.78-8.58 8.78a2.13 2.13 0 0 1-2-2.34c0-2.21 1.17-4.62 1.17-6.83a1.3 1.3 0 0 0-1.3-1.43c-4 0-11.57 10.4-18.85 10.4-.65 0-2.47.39-2.47-.71a.71.71 0 0 1 .71-.65 16.67 16.67 0 0 0 10.14-3.9c2.28-1.69 6.37-5.66 8.71-6.63a5.33 5.33 0 0 1 2-.46c2 0 3.06 1.56 3.06 3.38 0 2-1.3 4.42-1.3 6.37 0 .33 0 .78.39.78 1.49 0 5.72-9.1 8.84-9.1 3.45 0 2.93 8.38 4.94 8.38 1 0 4.29-5.13 5-6a3.77 3.77 0 0 1 2.79-1.69 2.38 2.38 0 0 1 1.97 1.12z" fill="#fff"/><path d="M516.29 23.34a3.31 3.31 0 0 1-.39 1.37 5 5 0 0 1-1.62 1.43c-.84.52-1.75.91-2.6 1.37-1.56.84-3 1.75-4.55 2.54.26 2.47 1.89 3.32 4.16 3.64.33.07.72.26.72.65a.72.72 0 0 1-.72.71 6.28 6.28 0 0 1-6-4c-4.09 2-8.19 4-12.87 4a.74.74 0 0 1-.78-.71.71.71 0 0 1 .71-.65 18.86 18.86 0 0 0 5.72-1 58.35 58.35 0 0 0 7.09-3.32c0-3.83 3.51-8.91 7.67-8.91 1.55.03 3.46 1.03 3.46 2.88zm-2.79 1a1.07 1.07 0 0 0 .33-.78c0-.78-.78-1-1.43-1-2.8 0-4.62 3.38-5.14 5.72.97-.52 5.65-3.25 6.23-3.97z" fill="#fff"/><path d="M539.23 23.08a12.62 12.62 0 0 1 .33 2.34c.26 2.41.58 4.94 2.28 6.83a4 4 0 0 0 1.43 1.11c.65.26 2.54.13 2.54 1a.72.72 0 0 1-.71.71 6.72 6.72 0 0 1-5.13-2.67 15.45 15.45 0 0 1-2.8-7.41c-6.63 4.55-17.94 10.08-25.94 10.08a.72.72 0 0 1-.71-.71c0-.58.58-.65 1-.65 4.29-.13 9.17-2.08 13.13-3.71a45.27 45.27 0 0 0 6.52-3.51c.91-.59 1.75-1.17 2.6-1.82s2.67-2.47 4-2.47a1.72 1.72 0 0 1 1.46.88zm-1.36-10.21c0-.65.58-.91 1.17-.91 1 0 1.56 1.36 1.56 2.27 0 .52-.2 1-.78 1-.91-.02-1.95-1.51-1.95-2.36z" fill="#fff"/><path d="M573.16 33.67a.71.71 0 0 1 .71.65.72.72 0 0 1-.71.71c-3.32 0-7-1.62-7-5.46 0-2.79 1.76-5.4 1.76-8.19 0-1.75-2-2.6-3.32-3.18l-.2-.07c-1.3 2.67-4.75 6.63-6.89 8.71-2.86 2.73-5.4 5.66-9 7.41a7.31 7.31 0 0 1-3.32.78c-.46 0-1-.06-1-.71a.7.7 0 0 1 .65-.65 7.2 7.2 0 0 0 2.6-.58c4-1.75 13.52-11.37 15.6-15.73-1.5-.78-3.18-1.88-3.18-3.77a2.82 2.82 0 0 1 2.86-2.73 3.18 3.18 0 0 1 3.18 3.12 6.23 6.23 0 0 1-.58 2.41l.2.06c2.21 1 4.42 2.15 4.42 4.94s-1.3 5.14-1.82 7.74a2.23 2.23 0 0 0-.06.65c.03 2.46 2.96 3.89 5.1 3.89zm-9.42-18.18l.07-.06a5 5 0 0 0 .19-1.37c0-.52-.26-1.3-1-1.3a1.06 1.06 0 0 0-1 1c-.02.8 1.15 1.39 1.74 1.73z" fill="#fff"/><path d="M605.38 29.97c0 1.3-2.47 1.17-3.32 1.17a7 7 0 0 1-2.6-.39 9.75 9.75 0 0 1-8.58 6c-2.73 0-4.1-2.54-4.1-5a7.5 7.5 0 0 1 .2-1.69c-4.16 2.86-8 5-13.13 5-.58 0-1.5.13-1.5-.71a.71.71 0 0 1 .71-.65 25.27 25.27 0 0 0 3.12-.26 25.11 25.11 0 0 0 10.43-4.95l1.37-1.23c1.24-2.47 4.49-6.63 7.48-6.63 1.82 0 2.6 1.89 2.6 3.51a4.81 4.81 0 0 1 1.88 4 7.9 7.9 0 0 1-.13 1.23 9.19 9.19 0 0 0 3 .33c.32.01 2.57-.21 2.57.27zm-7.54 0c-1.37-.71-3.9-2.6-3.9-4.29 0-1.37 1.3-2 2.47-2.08a1.06 1.06 0 0 0-1-.71 3.43 3.43 0 0 0-1.5.52c-2.67 1.43-5.07 5.65-5.07 8.71a2.44 2.44 0 0 0 2.6 2.67 7 7 0 0 0 6.36-4.82zm.26-1.75c0-.91-.78-2.92-1.88-2.92-.26 0-.46.33-.46.58 0 1.1 1.69 1.88 2.34 2.54zM644.07 23.4c0 3.31-6.37 4.48-8.78 5.33a.94.94 0 0 1-.46.13c0 .26-.06.46-.06.71 0 2.54 1.82 3.9 4.22 4.09.39.07.71.2.71.65a.72.72 0 0 1-.71.71c-3.12 0-6.43-2.27-6.24-5.66a24 24 0 0 1-4.29.46c-.58 0-2-.39-2-1.17 0-.46.71-.46 1-.46a26.22 26.22 0 0 0 5.53-.65c0-.07.07-.2.07-.26a10 10 0 0 1 5-6.3 4.51 4.51 0 0 1 2.28-.52c1.85.03 3.73 1.03 3.73 2.94zm-2.69-.06c0-.65-.71-.84-1.3-.84-2.34 0-4.16 2.54-4.87 4.55 1.45-.27 6.17-1.96 6.17-3.71z" fill="#fff"/><path d="M679.69 27.63c.78 2.73 1.3 6 4.88 6a.7.7 0 0 1 .65.65.67.67 0 0 1-.65.71c-7.15 0-6-8.58-8.19-8.58-1.75 0-5.52 8.78-8.58 8.78-1.37 0-1.88-1.24-1.88-2.41 0-2.14 1.1-4.49 1.1-6.44 0-1-.26-1.43-1.3-1.43-1.37 0-4.35 2.21-5.66 2.92-5.92 3.32-14.37 7.15-21.19 7.15a.67.67 0 0 1-.65-.71c0-.58.46-.65.91-.65 4.16-.06 9.36-2.08 13.2-3.71a78.68 78.68 0 0 0 11.12-6.3 4.55 4.55 0 0 1 2.53-.85 3 3 0 0 1 3 3.25c0 2-1.3 4.48-1.3 6.37 0 .33 0 .78.39.78 1.43 0 5.85-9.17 8.84-9.17 1.68.06 2.39 2.34 2.78 3.64z" fill="#fff"/><path d="M684.38 33.67a18.86 18.86 0 0 0 5.72-1 37.67 37.67 0 0 0 9.43-5.72 5.4 5.4 0 0 0 1.1-1c.2-.26.33-.71.52-1a10.68 10.68 0 0 1 2.54-3.12 5 5 0 0 1 2.92-1.17c1 0 3.45.91 3.45 2.08a.34.34 0 0 1-.39.39c-.78 0-1.1-1-2.41-1-2.92 0-5.26 4.94-5.26 7.48s1.63 3.77 4 4c.39.07.71.26.71.72a.67.67 0 0 1-.71.65c-2.73 0-5.59-1.62-6.11-4.42 0-.2-.13-.46-.13-.65a8.78 8.78 0 0 1 .06-1.3c-4.55 3.58-9.55 6.37-15.47 6.37a.67.67 0 0 1-.71-.65.72.72 0 0 1 .74-.66z" fill="#fff"/><path d="M738.38 28.73a25.37 25.37 0 0 0 3.83.19.72.72 0 0 1 .72.72.72.72 0 0 1-.72.71 25.18 25.18 0 0 1-4.22-.26c-1.3 3.45-5.14 6.57-8.65 6.57-2.73 0-4.16-2.34-4.16-4.81a8.84 8.84 0 0 1 .58-3.12c-5.79 2.54-13.59 6.3-19.76 6.3a.67.67 0 0 1-.65-.71.7.7 0 0 1 .65-.65 20.62 20.62 0 0 0 5.59-1 75.65 75.65 0 0 0 15.23-6.18 25.76 25.76 0 0 1 1.88-2.54c1.17-1.43 3.32-3.51 5.27-3.51s2.6 1.63 2.6 3.25a4.81 4.81 0 0 1 1.89 4 5.56 5.56 0 0 1-.08 1.04zm-2.34.84c-2-.65-3.64-1.88-3.64-4.23 0-1.36 1-2.08 2.54-2.21a1.32 1.32 0 0 0-1.1-.71 2.59 2.59 0 0 0-1.62.58c-2.47 1.75-4.94 6-4.94 9a2.66 2.66 0 0 0 2.73 2.86c1.81.05 4.93-2.16 6.04-5.28zm.39-1.37c0-.26.07-.58.07-.91 0-1.37-.71-2.47-1.82-2.47-.26 0-.39.26-.39.52a2.93 2.93 0 0 0 2.15 2.87z" fill="#fff"/><path d="M770.17 27.63c.84 2.73 1.24 6 4.88 6a.71.71 0 0 1 .71.65.72.72 0 0 1-.71.71c-7.15 0-6-8.58-8.19-8.58-1.82 0-5.53 8.78-8.58 8.78-1.37 0-1.88-1.24-1.88-2.41 0-2.14 1.1-4.49 1.1-6.44 0-.84-.19-1.69-1.17-1.69-2.54 0-7.34 5.66-14.17 5.66a.72.72 0 0 1-.71-.71.72.72 0 0 1 .71-.72 13.91 13.91 0 0 0 5.07-1.3c2.54-1.24 6.63-4.94 9.17-4.94 2 0 3.05 1.56 3.05 3.38 0 2-1.3 4.42-1.3 6.37 0 .33 0 .78.39.78 1.43 0 5.85-9.17 8.84-9.17 1.75.05 2.4 2.33 2.79 3.63z" fill="#fff"/><path d="M798.25 17.42c0 1.63-4.55 1.69-5.66 1.75v.07a2.71 2.71 0 0 1-.26.65 23.85 23.85 0 0 0-2.14 8.39 5 5 0 0 0 1.56 4 6.37 6.37 0 0 0 3.58 1.36c.33.07.71.26.71.65a.72.72 0 0 1-.71.71 6.33 6.33 0 0 1-6.63-6.51 21.41 21.41 0 0 1 .52-4.09c-2.34 4.09-9.29 10.66-14.3 10.66a.72.72 0 0 1-.71-.71c0-.39.39-.58.71-.65a14.21 14.21 0 0 0 6.57-3.25 28.83 28.83 0 0 0 8.39-11.12c-1 .07-2 .13-3.06.13-.58 0-2-.19-2-1 0-1.3 4.81-1.17 5.92-1.17.33-.84 1.43-4.22 2.54-4.22.84 0 1 1.43 1 2a9.23 9.23 0 0 1-.72 2.15 23.46 23.46 0 0 1 3.71 0c.2-.06.98-.25.98.2z" fill="#fff"/><path d="M823.54 33.67a.71.71 0 0 1 .71.65.72.72 0 0 1-.71.71c-3.32 0-7-1.62-7-5.46 0-2.79 1.76-5.4 1.76-8.19 0-1.75-2-2.6-3.32-3.18l-.2-.07c-1.3 2.67-4.75 6.63-6.89 8.71-2.86 2.73-5.4 5.66-9 7.41a7.31 7.31 0 0 1-3.32.78c-.46 0-1-.06-1-.71a.7.7 0 0 1 .65-.65 7.2 7.2 0 0 0 2.6-.58c4-1.75 13.52-11.37 15.6-15.73-1.5-.78-3.18-1.88-3.18-3.77a2.82 2.82 0 0 1 2.86-2.73 3.18 3.18 0 0 1 3.18 3.12 6.23 6.23 0 0 1-.58 2.41l.2.06c2.21 1 4.42 2.15 4.42 4.94s-1.3 5.14-1.82 7.74a2.23 2.23 0 0 0-.06.65c.03 2.46 2.94 3.89 5.1 3.89zm-9.43-18.18l.07-.06a5 5 0 0 0 .19-1.37c0-.52-.26-1.3-1-1.3a1.06 1.06 0 0 0-1 1c.01.8 1.16 1.39 1.74 1.73z" fill="#fff"/><path d="M855.71 29.97c0 1.3-2.47 1.17-3.32 1.17a7 7 0 0 1-2.6-.39 9.75 9.75 0 0 1-8.58 6c-2.73 0-4.1-2.54-4.1-5a7.5 7.5 0 0 1 .2-1.69c-4.16 2.86-8 5-13.13 5-.58 0-1.5.13-1.5-.71a.71.71 0 0 1 .71-.65 25.27 25.27 0 0 0 3.12-.26 25.11 25.11 0 0 0 10.48-4.95l1.39-1.25c1.24-2.47 4.49-6.63 7.48-6.63 1.82 0 2.6 1.89 2.6 3.51a4.81 4.81 0 0 1 1.88 4 7.9 7.9 0 0 1-.13 1.23 9.19 9.19 0 0 0 3 .33c.29.03 2.5-.19 2.5.29zm-7.54 0c-1.37-.71-3.9-2.6-3.9-4.29 0-1.37 1.3-2 2.47-2.08a1.06 1.06 0 0 0-1-.71 3.43 3.43 0 0 0-1.5.52c-2.67 1.43-5.07 5.65-5.07 8.71a2.44 2.44 0 0 0 2.6 2.67 7 7 0 0 0 6.4-4.82zm.26-1.75c0-.91-.78-2.92-1.88-2.92-.26 0-.46.33-.46.58 0 1.1 1.69 1.88 2.34 2.54zM862.14 32.24a1.67 1.67 0 0 1 1.76 1.56 1.59 1.59 0 0 1-1.37 1.49 2 2 0 0 1-1.89-1.75c0-.58.2-1 .65-1.1a1.8 1.8 0 0 1 .85-.2zm1.63-6.57c-.33 0-.46-.26-.46-.58a27.1 27.1 0 0 1 .91-5c.52-2.34.72-4.16 1.17-6.44.52-2.86 1.36-10.4 3.31-10.4a1.24 1.24 0 0 1 1.17 1.37 3.91 3.91 0 0 1-.19 1.3 166.55 166.55 0 0 1-4.94 18.33c-.45 1.04-.58 1.43-.97 1.43z" fill="#fff"/></svg>