<svg xmlns="http://www.w3.org/2000/svg" viewBox="0 0 67.18 42.6"><defs><style>.a{fill:#fff}</style></defs><title>p1_s15</title><path class="a" d="M52.91 41.1a13.09 13.09 0 0 1 2.72-3.74l3.06-3.44c2.08-2.26 4.16-4.52 6.33-6.69l.82 1.72c-3.06.1-6.14.27-9.22.21L52 28.91l-2.31-.15-2.29-.34-4.59-.69c-1.52-.3-3-.69-4.53-1l-2.27-.53c-.75-.21-1.48-.47-2.22-.7-1.47-.5-3-.94-4.42-1.5a74.35 74.35 0 0 1-16.44-8.82C7.86 11.54 3.24 7.18.14 1.57A1 1 0 0 1 .55.16 1 1 0 0 1 1.8.34l.07.08c2 2.08 4.24 4.11 6.44 6 1.15.93 2.23 1.93 3.42 2.81l1.74 1.37c.58.46 1.2.86 1.79 1.29a76.06 76.06 0 0 0 15.5 8.53c1.37.56 2.79 1 4.18 1.51.7.25 1.39.52 2.1.75l2.15.59c1.44.38 2.86.81 4.31 1.16l4.39.83 2.2.42 2.23.24 4.46.52a19.32 19.32 0 0 0 2.24.15l2.25.08 4.51.2a1.05 1.05 0 0 1 1.05 1.05 1 1 0 0 1-.22.64c-1.86 2.45-3.82 4.81-5.78 7.17l-3 3.5a13.09 13.09 0 0 1-3.34 3.2 1.1 1.1 0 0 1-1.5-.43 1.11 1.11 0 0 1-.08-.9z"/><path class="a" d="M55.52 14.04a10.93 10.93 0 0 1 3.24 2.88q1.42 1.62 2.8 3.27c1.82 2.21 3.64 4.43 5.34 6.76a1.47 1.47 0 0 1-.32 2.06 1.47 1.47 0 0 1-1.88-.12c-2.09-2-4.07-4.06-6-6.15q-1.46-1.58-2.89-3.18a10.92 10.92 0 0 1-2.52-3.58 1.57 1.57 0 0 1 .94-2 1.58 1.58 0 0 1 1.29.06z"/></svg>