<svg xmlns="http://www.w3.org/2000/svg" viewBox="0 0 362.28 77.58"><defs><style>.a{fill:#3a1a0d}</style></defs><title>p1_s9</title><path class="a" d="M23.78 4.67c-.15.55-.55 1.64-1 3-.62 1.75-1.31 4-1.82 5.69a63.94 63.94 0 0 1-2.12 6.24c-.25.66-.87 1.57-1.57 1.57-1.24 0-1.68-1.82-2.22-3.83a3.27 3.27 0 0 0-.15-.62l-1.53-6c-.4-1.57-.84-3.28-1.46-5.58-.07-.29-.25-.69-.4-.69s-1.64 4.92-2.52 8.06c-.11.33-.18.66-.26.95-.66 2.3-1.09 3.54-1.42 4.56-.29.8-.47 1.5-.77 2.52-.15.62-.33 1.6-1 1.6-.29 0-.51-.33-.51-.73a1.31 1.31 0 0 1 .07-.36l1.57-5.47c.88-3 1.79-6 2.74-9.41 0-.07.07-.18.07-.26.37-1.35.95-3.46 2.08-3.46s1.42 1.57 3 8.28l.51 2.15c.66 2.81 1.82 6.56 2.22 6.56s.8-1.31 1.17-2.44c.47-1.5 1.17-3.5 1.75-5.4.91-2.77 1.79-5.51 2.26-7.18.11-.51.44-1.46 1.06-1.46a.55.55 0 0 1 .55.47 2.58 2.58 0 0 1-.22.88zm13.2 15.24c0 .91-1.9 1.35-2.63 1.35-3.32 0-3.76-3.21-4.59-3.21s-1.93 3.94-5.11 3.94a1.8 1.8 0 0 1-2-1.93c0-2.22 3-5.21 5.18-5.21a2.46 2.46 0 0 1 2.26 1.17 1 1 0 0 1 1 .62 6 6 0 0 1 .29 1.09c.33 1.35 1.42 2.77 2.92 2.77a6 6 0 0 0 2.44-.84c.17-.01.24.1.24.25zm-12 1c1.64 0 3-2.92 3.87-4-.29-.47-.62-.91-1.2-.91-1.53 0-3.68 2.44-3.68 3.9a1 1 0 0 0 .97 1.03zm40.77-2.68a.4.4 0 0 1-.4.4h-1.24c.22 2.84-3.46 4.7-5.91 4.7-1 0-2.26-.4-2.26-1.64 0-2.66 5-3.46 6.93-3.65-.91-1.86-3.83-3.14-5-4.7a22 22 0 0 1-3.1 2.41c-1.17.73-3.68 2.26-5 2.26-.26 0-.84-.11-.84-.47s.88-.4 1.09-.47a14.43 14.43 0 0 0 3-1.35 27 27 0 0 0 4.38-3.21 2.49 2.49 0 0 1-.25-1c0-1.31 1.35-3.25 2.77-3.25a1.14 1.14 0 0 1 1.17 1.2c0 1.46-1.42 2.37-2.37 3.21a41.57 41.57 0 0 0 4.27 3.72 3.59 3.59 0 0 1 1.13 1.53c.37 0 1.17-.07 1.39-.07a.4.4 0 0 1 .24.38zm-2.7.55c-1.5.15-6.13.77-6.13 2.81 0 .77.69 1 1.35 1 1.94.02 4.78-1.29 4.78-3.81zm-3.14-9.12a.3.3 0 0 0-.33-.29c-.77 0-1.46 1.53-1.46 2.15v.26c.48-.4 1.8-1.46 1.8-2.12z"/><path class="a" d="M74.76 14.73c0 1.71-3.87 2.88-5.11 3.32h-.07v.22c0 1.42 1.06 2 2.33 2.19.18 0 .4.15.4.36a.41.41 0 0 1-.4.4 3.42 3.42 0 0 1-3.43-2.52c0-.11 0-.36-.07-.44a17.88 17.88 0 0 1-3.1.33.4.4 0 1 1 0-.8 13.24 13.24 0 0 0 3.17-.36c.4-2 2-4.38 4.27-4.38a1.82 1.82 0 0 1 2.01 1.68zm-1.5 0c0-.36-.4-.47-.73-.47-1.46 0-2.55 1.71-2.84 3 .87-.23 3.57-1.54 3.57-2.57z"/><path class="a" d="M92 11.38c0 .91-2.55.95-3.17 1a14.52 14.52 0 0 0-1.35 5.07 2.88 2.88 0 0 0 .84 2.26 3.91 3.91 0 0 0 2.08.77c.22 0 .37.15.37.36a.38.38 0 0 1-.37.4 3.55 3.55 0 0 1-3.79-3.68 15.25 15.25 0 0 1 .44-2.88c-3.32 3.32-10.47 6.56-15.17 6.56a.41.41 0 0 1-.4-.4c0-.33.29-.36.55-.36a19.39 19.39 0 0 0 5.36-1.2c3.06-1 7.55-3.06 9.41-5.91a2.9 2.9 0 0 0 .47-.95c-.55 0-1.13.07-1.68.07-.37 0-1.13-.11-1.13-.58 0-.73 2.74-.66 3.32-.66.18-.47.8-2.37 1.42-2.37.44 0 .51.73.51 1a3.37 3.37 0 0 1-.37 1.31 13.19 13.19 0 0 1 2.08 0c.15.04.58-.07.58.19z"/><path class="a" d="M108.38 19.91c0 .91-1.9 1.35-2.63 1.35-3.28 0-3.76-3.21-4.56-3.21s-2 3.94-5.14 3.94a1.83 1.83 0 0 1-2-2v-.18a5.55 5.55 0 0 1-3.54 1.42c-.29 0-.58 0-.58-.4a.4.4 0 0 1 .4-.36c1.64 0 3-1.17 4.19-2.19.88-1.6 2.81-3.46 4.74-3.46a2.47 2.47 0 0 1 2.22 1.17 1 1 0 0 1 1 .62 6.21 6.21 0 0 1 .33 1.09c.4 1.42 1.28 2.77 2.92 2.77a6.26 6.26 0 0 0 2.41-.84c.16.02.24.13.24.28zm-8.17-3c-.29-.47-.58-.91-1.2-.91-1.5 0-3.68 2.44-3.68 3.9a1 1 0 0 0 1 1.06c1.65-.03 3-2.95 3.88-4.08zm34.82 3c0 .91-1.9 1.35-2.63 1.35-3.32 0-3.76-3.21-4.59-3.21s-1.93 3.94-5.11 3.94a1.8 1.8 0 0 1-2-1.93c0-2.22 3-5.21 5.18-5.21a2.46 2.46 0 0 1 2.26 1.17 1 1 0 0 1 1 .62 6.13 6.13 0 0 1 .29 1.09c.33 1.35 1.42 2.77 2.92 2.77a6 6 0 0 0 2.44-.84c.17-.01.24.1.24.25zm-12 1c1.64 0 3-2.92 3.87-4-.29-.47-.62-.91-1.2-.91-1.53 0-3.68 2.44-3.68 3.9a1 1 0 0 0 .98 1.03zm.91-12c0-.22.26-.36.55-.36.58 0 3 2.12 3 2.37s-.07.15-.25.15a.9.9 0 0 1-.29 0c-.82-.2-3.04-1.63-3.04-2.1zm32.83 5.82c0 1.86-3.57 2.52-4.92 3a.52.52 0 0 1-.25.07v.4a2.28 2.28 0 0 0 2.37 2.3c.22 0 .4.11.4.36a.41.41 0 0 1-.4.4c-1.75 0-3.61-1.28-3.5-3.17a13.48 13.48 0 0 1-2.41.26c-.33 0-1.09-.22-1.09-.66 0-.25.4-.25.58-.25a14.71 14.71 0 0 0 3.1-.36v-.15a5.59 5.59 0 0 1 2.81-3.54 2.53 2.53 0 0 1 1.28-.29 1.83 1.83 0 0 1 2.03 1.63zm-1.5 0c0-.36-.4-.47-.73-.47-1.31 0-2.33 1.42-2.74 2.55.81-.18 3.47-1.13 3.47-2.12z"/><path class="a" d="M170.37 23.38c-1.06 0-2.33-.36-2.33-1.6a2.58 2.58 0 0 1 1.06-1.86c1.39-1.2 4-1.6 5.8-1.86-.88-1.86-3.5-3.1-4.81-4.63a37 37 0 0 1-6.31 4.89 20.63 20.63 0 0 1-9.88 2.92.37.37 0 0 1-.36-.4.39.39 0 0 1 .36-.36 12.44 12.44 0 0 0 3.28-.4 37.22 37.22 0 0 0 4.38-1.64 28.3 28.3 0 0 0 6.49-4.3l1.53-1.46a2.48 2.48 0 0 1-.29-1.13c0-1.35 1.35-3.28 2.81-3.28a1.1 1.1 0 0 1 1.13 1.17c0 1.53-1.5 2.37-2.37 3.32 1.31 1.24 2.7 2.33 4 3.5a4 4 0 0 1 1.17 1.64c.37 0 1.17-.07 1.39-.07a.4.4 0 1 1 0 .8h-1.24c.39 2.92-3.44 4.75-5.81 4.75zm4.7-4.38v-.22c-1.53.15-6.05.8-6.05 2.88 0 .73.73.95 1.35.95 1.86 0 4.74-1.35 4.7-3.61zm-4.7-7.44a1.38 1.38 0 0 0 0 .4c.44-.4 1.75-1.64 1.75-2.26a.31.31 0 0 0-.33-.33c-.73.01-1.42 1.57-1.42 2.19z"/><path class="a" d="M194.5 23.08a.52.52 0 0 1-.07.26h-.07a24.8 24.8 0 0 0-2.77 2.41 35.68 35.68 0 0 0-5.07 5.43 40.18 40.18 0 0 1-1.2 5.83 1.93 1.93 0 0 1-1.39 1.06c-.77 0-1.13-.77-1.13-1.42 0-1.75 1.75-4.19 2.73-5.62a101 101 0 0 1 3.43-11.31 9.58 9.58 0 0 1-4.63 1.53 2.25 2.25 0 0 1-2.33-2.19 3.57 3.57 0 0 1 .5-1.68 11.17 11.17 0 0 1-5.18 1.24.4.4 0 1 1 0-.8 11.5 11.5 0 0 0 5-1.35 10.18 10.18 0 0 0 1.53-.8c.29-.22.51-.51.8-.73a6.58 6.58 0 0 1 3.68-1.5 2.6 2.6 0 0 1 2.37 1.71c.18-.51.62-1.35 1.24-1.35s.91.84.91 1.42a3.8 3.8 0 0 1-1.5 2.52c0 .22.07.47.07.69s0 .62-.37.62-.47-.33-.58-.55l-.07.07a72.31 72.31 0 0 0-3.5 10.61 31 31 0 0 1 6.86-6.42.41.41 0 0 1 .29-.11.38.38 0 0 1 .45.43zm-5-4.74l.66-1.68c-.22-1-.62-2.15-1.86-2.15-1.71 0-5 2.7-5 4.49a1.26 1.26 0 0 0 1.2 1.38 11.84 11.84 0 0 0 4.94-2zm-4.56 15.65c-.29.62-1.13 1.75-1.13 2.33 0 .18.07.29.25.29.53 0 .75-2.15.82-2.62zm6.31-17.54a1.27 1.27 0 0 0 .07.36c.25-.26.69-.62.69-1 0-.15-.07-.36-.25-.36s-.57.81-.57.99z"/><path class="a" d="M214.82 17.5a3.57 3.57 0 0 0 2.92 2.92c.29.07 1 0 1 .44a.4.4 0 0 1-.4.4 5 5 0 0 1-5-4.23c-.91 2.15-2.88 5.14-5.54 5.14a2.86 2.86 0 0 1-2.84-3.14 7.61 7.61 0 0 1 .62-2.74 35 35 0 0 0-5.76 3.17c-3.17 2-5.43 4-5.76 4a.37.37 0 0 1-.37-.36.54.54 0 0 1 .15-.33 71.29 71.29 0 0 1 10.43-7 7.26 7.26 0 0 1 2.3-1.06c.44 0 .73.15.73.55 0 .91-1.24 2.22-1.24 4a1.77 1.77 0 0 0 1.9 1.93 2.14 2.14 0 0 0 1.24-.36c1.79-1.17 2.52-3 3.39-4.85.26-.51.69-1.2 1.35-1.2 1.1-.09.77 1.99.88 2.72z"/><path class="a" d="M231.74 14.69a1.86 1.86 0 0 1-.22.77 2.78 2.78 0 0 1-.91.8c-.47.29-1 .51-1.46.77-.87.47-1.68 1-2.55 1.42.15 1.39 1.06 1.86 2.33 2 .18 0 .4.15.4.36a.41.41 0 0 1-.4.4 3.53 3.53 0 0 1-3.39-2.26c-2.3 1.13-4.59 2.26-7.22 2.26a.41.41 0 0 1-.44-.4.4.4 0 0 1 .4-.36 10.59 10.59 0 0 0 3.21-.55 32.71 32.71 0 0 0 4-1.86c0-2.15 2-5 4.3-5a1.8 1.8 0 0 1 1.95 1.65zm-1.57.55a.6.6 0 0 0 .18-.44c0-.44-.44-.58-.8-.58-1.57 0-2.59 1.9-2.88 3.21a23.74 23.74 0 0 0 3.5-2.19z"/><path class="a" d="M248.66 20.49a.4.4 0 0 1 .4.4.4.4 0 0 1-.4.36c-1.9 0-3.94-.95-3.94-3.1 0-1.5 1-3 1-4.56 0-1-1.09-1.35-1.82-1.75l-.11.26c-1.75 3.21-5.69 5.94-8.93 7.62a11.56 11.56 0 0 1-6 1.53.4.4 0 0 1-.36-.4.39.39 0 0 1 .36-.36 10.13 10.13 0 0 0 3.14-.55c3.76-1.2 9.23-4.89 11-8.61-.84-.44-1.79-1.06-1.79-2.12a1.58 1.58 0 0 1 1.6-1.53 1.81 1.81 0 0 1 1.79 1.86 3.76 3.76 0 0 1-.22 1.28c1.24.55 2.48 1.2 2.48 2.77s-1.06 3.46-1.06 4.7 1.7 2.2 2.86 2.2zm-5.29-10.17a2.77 2.77 0 0 0 .11-.77c0-.29-.15-.73-.55-.73a.59.59 0 0 0-.58.55c.04.4.69.73 1.02.95z"/><path class="a" d="M261.93 9.95c.62-2.48 2.74-10 5.83-10a1.19 1.19 0 0 1 1.2 1.35c0 2.41-2.12 5.58-3.25 7.7a57.24 57.24 0 0 1-3.54 6.16c0 .44.07.95.15 1.39a4.52 4.52 0 0 0 3.06 3.61 6.59 6.59 0 0 0 1.86.29.4.4 0 0 1 .4.36.4.4 0 0 1-.4.4 5.69 5.69 0 0 1-5.18-2.84 8.11 8.11 0 0 1-.66-2.08c-1.42 2-3.79 5.4-6.49 5.4a2.21 2.21 0 0 1-2.3-2.15c-1.39 1.06-2.26 1.68-4 1.68a.36.36 0 0 1-.4-.4.34.34 0 0 1 .36-.36c1.75 0 3.17-1.31 4.45-2.37a5.4 5.4 0 0 1 4.52-3.1 2.73 2.73 0 0 1 2.44 1.75c.47-.62.88-1.24 1.31-1.86a20.6 20.6 0 0 1 .64-4.93zm-2.84 7.91a1.75 1.75 0 0 0-1.75-1.6c-1.53 0-3.5 1.57-3.5 3.17a1.1 1.1 0 0 0 1.2 1.17c1.71-.03 3.03-1.6 4.05-2.73zm5-7.62c.69-1.17 1.28-2.37 1.9-3.57s1.82-3.14 1.82-4.38c0-.4-.15-.73-.58-.73-1.68 0-3.54 5.87-3.94 7.26a22.85 22.85 0 0 0-1.09 4.67z"/><path class="a" d="M285.27 19.91c0 .91-1.9 1.35-2.63 1.35-3.28 0-3.76-3.21-4.56-3.21s-2 3.94-5.14 3.94a1.83 1.83 0 0 1-2-2v-.18a5.55 5.55 0 0 1-3.54 1.42c-.29 0-.58 0-.58-.4a.4.4 0 0 1 .4-.36c1.64 0 3-1.17 4.19-2.19.88-1.6 2.81-3.46 4.74-3.46a2.47 2.47 0 0 1 2.22 1.17 1 1 0 0 1 1 .62 6.21 6.21 0 0 1 .33 1.09c.4 1.42 1.28 2.77 2.92 2.77a6.26 6.26 0 0 0 2.41-.84c.17.02.24.13.24.28zm-8.17-3c-.29-.47-.58-.91-1.2-.91-1.5 0-3.68 2.44-3.68 3.9a1 1 0 0 0 1 1.06c1.66-.03 3-2.95 3.88-4.08zm11.59 6.87a.27.27 0 0 1-.22-.26 12.1 12.1 0 0 1 .62-1.5c.22-.8-.07-2.22.88-2.22.47 0 .66.26.66.69a4.8 4.8 0 0 1-1.39 3 1 1 0 0 1-.55.29zm32.71-7.63a.36.36 0 0 1-.36.36 2.25 2.25 0 0 1-.4-.11 9.46 9.46 0 0 0-3-.73 3.11 3.11 0 0 0-.58 0c-2 .36-3.94 6.38-6 6.38-.77 0-1.24-.84-1.57-1.42-.47-.88-2.44-4.34-2.44-5.18a.55.55 0 0 1 .55-.58c.88 0 1.28 1.64 1.53 2.26s.62 1.46.95 2.15c.15.36.58 1.46 1.06 1.46.95 0 3.32-4.85 4.78-5.83a2.46 2.46 0 0 1 1.31-.36 9.1 9.1 0 0 1 3.1.84 7.4 7.4 0 0 0 .8.33h.07a.56.56 0 0 1 .2.43z"/><path class="a" d="M331.65 17.72a14.17 14.17 0 0 0 2.15.11.4.4 0 1 1 0 .8 14.13 14.13 0 0 1-2.37-.15 5.83 5.83 0 0 1-4.85 3.68 2.44 2.44 0 0 1-2.33-2.7 5.7 5.7 0 0 1 .58-2.41 8.22 8.22 0 0 1-.95 0 10.9 10.9 0 0 1-2.15-.29l-.91-.26h-.07c-.11-.11-.22-.15-.22-.36a.4.4 0 0 1 .4-.36.46.46 0 0 1 .22 0 10.75 10.75 0 0 0 2.84.44 8.9 8.9 0 0 0 1.39-.11 12.44 12.44 0 0 1 .84-1.09c.66-.8 1.86-2 3-2s1.46.91 1.46 1.82a2.7 2.7 0 0 1 1.06 2.26 3.16 3.16 0 0 1-.09.62zm-1.31.47a2.53 2.53 0 0 1-2-2.37c0-.77.58-1.17 1.42-1.24a.74.74 0 0 0-.62-.4 1.45 1.45 0 0 0-.91.33 7.4 7.4 0 0 0-2.77 5.07 1.49 1.49 0 0 0 1.53 1.6c.98.01 2.73-1.23 3.35-2.98zm.22-.77v-.51c0-.77-.4-1.39-1-1.39-.15 0-.22.15-.22.29a1.64 1.64 0 0 0 1.22 1.57z"/><path class="a" d="M343.36 13.2c.55 0 2 .51 2 1.17 0 .15-.07.22-.26.22-.44 0-.62-.55-1.35-.55-1.61 0-3 2.77-3 4.16a2.21 2.21 0 0 0 2.26 2.3.43.43 0 0 1 .4.4.38.38 0 0 1-.4.36 3.36 3.36 0 0 1-3.43-2.48 1.27 1.27 0 0 1-.08-.4 4.82 4.82 0 0 1 .22-1.42 11.79 11.79 0 0 1-6 1.64.4.4 0 1 1 0-.8 13.35 13.35 0 0 0 6.49-2.15c.67-1.1 1.76-2.45 3.15-2.45z"/><path class="a" d="M362.28 19.18c0 1.09-2.12 1.75-3 1.93a6.93 6.93 0 0 1-1.5.15 3.52 3.52 0 0 1-3.43-2.3 36.14 36.14 0 0 1-11.42 2.3.37.37 0 0 1-.36-.4.39.39 0 0 1 .36-.36 24.7 24.7 0 0 0 4.63-.51c1.39-.26 2.74-.66 4.08-1a20.33 20.33 0 0 0 2.12-.66l.51-.22c0-2.15 2-5 4.3-5a1.8 1.8 0 0 1 2 1.64c0 1.53-3.72 3.25-5 3.76l-.22.07a2.37 2.37 0 0 0 2.41 1.93 5.71 5.71 0 0 0 3.43-1 8.57 8.57 0 0 1 .77-.58c.29-.01.32.07.32.25zm-.4-8.79c0 .15-.07.18-.22.18a8.12 8.12 0 0 1-2.3-1.13 6.27 6.27 0 0 0-.77-.44 3.64 3.64 0 0 0-1 .51 7.28 7.28 0 0 1-2 1c-.26 0-.26-.15-.26-.15 0-.36 1.9-1.64 2.84-2.22a.77.77 0 0 1 .4-.15h.07a20.65 20.65 0 0 1 3.06 2c.14.18.18.29.18.39zm-6.38 7.19c.84-.4 3.72-1.64 3.72-2.7 0-.44-.36-.66-.8-.66-1.61 0-2.63 1.97-2.92 3.36zM16.34 63.46a.38.38 0 0 1-.4.36 25.4 25.4 0 0 1-4.52-.26 7.15 7.15 0 0 1-2.63-.73c-1.13 3.9-1.75 5.25-2.84 8.39s-1.9 6.35-4.12 6.35c-1.06 0-1.82-1.24-1.82-2.66 0-5.29 6.38-13.68 9.23-17.8a9 9 0 0 0 .07-1c0-.55-.18-1.31-.18-1.64s.29-.8.73-.8c.73 0 .77.91.77 1.53a2.52 2.52 0 0 1-.11.84 5.86 5.86 0 0 1 2.81-1.06c1.46 0 3.17.84 3.17 2.59 0 2.19-3 4.92-5.21 4.92.84.47 3.61.55 4.67.55a.43.43 0 0 1 .38.42zm-7.55-4.23c-2.7 4.16-3.57 5.29-5 7.69a53.48 53.48 0 0 0-2.33 5.22 8.85 8.85 0 0 0-.44 2.66c0 1.06.26 1.68.88 1.68.95 0 1.5-1.39 2.22-3.36.95-2.59 1.5-4 2.41-6.75.8-2.51 1.68-4.77 2.26-7.14zM10.21 62c1.68 0 4.89-1.86 4.89-4.23a1.53 1.53 0 0 0-1.71-1.5 5.52 5.52 0 0 0-3.06 1.13c-.4 1.68-.66 3-1.13 4.45a3.63 3.63 0 0 0 1.01.15z"/><path class="a" d="M34.1 60.29a14.19 14.19 0 0 0 2.15.11.4.4 0 1 1 0 .8 14.09 14.09 0 0 1-2.37-.15 5.83 5.83 0 0 1-4.85 3.68 2.44 2.44 0 0 1-2.33-2.7 5 5 0 0 1 .33-1.75c-3.25 1.42-7.62 3.54-11.09 3.54a.37.37 0 0 1-.36-.4.39.39 0 0 1 .36-.36 11.55 11.55 0 0 0 3.14-.55 42.42 42.42 0 0 0 8.53-3.5 14.47 14.47 0 0 1 1.06-1.42c.66-.8 1.86-2 3-2s1.46.91 1.46 1.82a2.7 2.7 0 0 1 1.06 2.26 3.08 3.08 0 0 1-.09.62zm-1.31.47a2.52 2.52 0 0 1-2-2.37c0-.77.58-1.17 1.42-1.24a.74.74 0 0 0-.62-.4 1.45 1.45 0 0 0-.91.33 7.4 7.4 0 0 0-2.77 5.07 1.49 1.49 0 0 0 1.53 1.6c.97.01 2.72-1.24 3.34-2.99zm.22-.77v-.51c0-.77-.4-1.39-1-1.39-.15 0-.22.15-.22.29A1.64 1.64 0 0 0 33 60z"/><path class="a" d="M48.94 52.52c.62-2.48 2.77-10 5.83-10a1.19 1.19 0 0 1 1.2 1.35c0 2.41-2.08 5.62-3.25 7.69a64.2 64.2 0 0 1-3.54 6.16c.15 2.22.88 4.3 3.25 5a6.35 6.35 0 0 0 1.82.29.4.4 0 0 1 .4.36.41.41 0 0 1-.4.4c-3.25 0-5.21-1.82-5.83-4.92-1.42 2-3.76 5.4-6.46 5.4a2.22 2.22 0 0 1-2.33-2.26 3.28 3.28 0 0 1 .47-1.53 11 11 0 0 1-3.9.69.4.4 0 1 1 0-.8 11.29 11.29 0 0 0 4.34-1 3.23 3.23 0 0 0 .62-.29 5.37 5.37 0 0 1 2.48-1.39 3.32 3.32 0 0 1 .84-.11 2.64 2.64 0 0 1 2.44 1.75c.47-.62.88-1.24 1.31-1.86a20.55 20.55 0 0 1 .71-4.93zm-2.84 7.91a1.7 1.7 0 0 0-1.75-1.6c-1.5 0-3.5 1.53-3.5 3.14a1.13 1.13 0 0 0 1.2 1.2c1.71-.04 3.02-1.6 4.04-2.73zm5-7.62c.66-1.17 1.28-2.37 1.9-3.57s1.82-3.1 1.82-4.38c0-.36-.15-.73-.58-.73-1.68 0-3.5 5.87-3.94 7.26a25.6 25.6 0 0 0-1.09 4.67z"/><path class="a" d="M66.37 63.68a6.93 6.93 0 0 1-1.5.15 3.49 3.49 0 0 1-3.39-2.26c-2.33 1.17-4.59 2.26-7.26 2.26a.41.41 0 0 1-.4-.4.4.4 0 0 1 .4-.36 10.78 10.78 0 0 0 3.21-.55 30 30 0 0 0 3.94-1.86 5.79 5.79 0 0 1 3-4.7 2.53 2.53 0 0 1 1.28-.29 1.82 1.82 0 0 1 2 1.6 1.86 1.86 0 0 1-.22.77 2.54 2.54 0 0 1-.95.8c-.47.29-.95.51-1.42.77-.84.47-1.68 1-2.55 1.42a2.29 2.29 0 0 0 2.37 2 5.48 5.48 0 0 0 3.43-1 8.75 8.75 0 0 1 .8-.58c.15 0 .18.07.18.22.03 1.21-2.05 1.83-2.92 2.01zM62.61 60a23.74 23.74 0 0 0 3.5-2.19.67.67 0 0 0 .18-.44c0-.44-.47-.58-.84-.58-1.49 0-2.62 1.9-2.84 3.21zm33.4-1.28a.37.37 0 0 1-.36.37 2.25 2.25 0 0 1-.4-.11 9.46 9.46 0 0 0-3-.73 3.16 3.16 0 0 0-.58 0c-2 .36-3.94 6.38-6 6.38-.77 0-1.24-.84-1.57-1.42-.47-.88-2.44-4.34-2.44-5.18a.55.55 0 0 1 .55-.58c.88 0 1.28 1.64 1.53 2.26s.62 1.46.95 2.15c.15.36.58 1.46 1.06 1.46.95 0 3.32-4.85 4.78-5.83a2.46 2.46 0 0 1 1.31-.36 9.1 9.1 0 0 1 3.1.84 7.4 7.4 0 0 0 .8.33h.07a.56.56 0 0 1 .2.42z"/><path class="a" d="M106.26 60.29a14.17 14.17 0 0 0 2.15.11.4.4 0 1 1 0 .8 14.09 14.09 0 0 1-2.37-.15 5.83 5.83 0 0 1-4.85 3.68 2.44 2.44 0 0 1-2.33-2.7 5.7 5.7 0 0 1 .58-2.41 8.19 8.19 0 0 1-.95 0 10.93 10.93 0 0 1-2.15-.29l-.91-.26h-.07c-.11-.11-.22-.15-.22-.36a.4.4 0 0 1 .4-.36.46.46 0 0 1 .22 0 10.77 10.77 0 0 0 2.84.44 8.9 8.9 0 0 0 1.39-.11 12.33 12.33 0 0 1 .84-1.09c.66-.8 1.86-2 3-2s1.46.91 1.46 1.82a2.7 2.7 0 0 1 1.06 2.26 3.17 3.17 0 0 1-.09.62zm-1.31.47a2.53 2.53 0 0 1-2-2.37c0-.77.58-1.17 1.42-1.24a.74.74 0 0 0-.62-.4 1.45 1.45 0 0 0-.91.33 7.4 7.4 0 0 0-2.77 5.07 1.49 1.49 0 0 0 1.53 1.6c.98.01 2.73-1.24 3.35-2.99zm.22-.77v-.51c0-.77-.4-1.39-1-1.39-.15 0-.22.15-.22.29a1.64 1.64 0 0 0 1.22 1.62z"/><path class="a" d="M118.33 46.8c.62-.77 1.79-1.9 2.84-1.9s1.6 1.31 1.6 2.22c0 1.75-1.06 3.76-1.93 5.21a21.07 21.07 0 0 1-4.44 5.05c.62 2.48 2.22 5.65 5.21 5.65a.39.39 0 0 1 .37.36.37.37 0 0 1-.37.4c-3.28 0-5.4-2.66-6.13-5.62-2.15 1.68-4.27 3-7.11 3a.4.4 0 1 1 0-.8 7.48 7.48 0 0 0 3-.58 12.85 12.85 0 0 0 3.94-2.55c0-.55-.15-1.09-.15-1.68a15.42 15.42 0 0 1 3.17-8.76zm1.5 5.54c.77-1.2 2-3.43 2-4.85 0-.62-.29-1.17-1-1.17a1.69 1.69 0 0 0-.84.33c-2.22 1.53-3.76 6.31-3.76 8.94a6.51 6.51 0 0 0 0 .84 21.14 21.14 0 0 0 3.59-4.05z"/><path class="a" d="M134.67 53.94c0 .91-2.55.95-3.17 1a1.55 1.55 0 0 1-.15.36 13.36 13.36 0 0 0-1.2 4.7 2.79 2.79 0 0 0 .88 2.26 3.57 3.57 0 0 0 2 .77c.18 0 .4.15.4.36a.4.4 0 0 1-.4.4 3.55 3.55 0 0 1-3.72-3.68 12 12 0 0 1 .29-2.3c-1.31 2.3-5.21 6-8 6a.41.41 0 0 1-.4-.4c0-.22.22-.33.4-.36a8 8 0 0 0 3.68-1.82 16.18 16.18 0 0 0 4.71-6.24c-.58 0-1.13.07-1.71.07-.33 0-1.13-.11-1.13-.58 0-.73 2.7-.66 3.32-.66.18-.47.8-2.37 1.42-2.37s.55.8.55 1.13a5.19 5.19 0 0 1-.4 1.2 13.19 13.19 0 0 1 2.08 0c.11.02.55-.09.55.16z"/><path class="a" d="M145.5 60.29a4.39 4.39 0 0 0 .47 1.13 2.8 2.8 0 0 0 2.44 1.64.4.4 0 0 1 .4.36.41.41 0 0 1-.4.4c-3.25 0-3.72-3.21-4.56-3.21s-1.93 3.94-5.14 3.94a1.81 1.81 0 0 1-2-1.93v-.24a5.39 5.39 0 0 1-3.72 1.42.36.36 0 0 1-.4-.4.39.39 0 0 1 .36-.36c1.64 0 3-1.17 4.23-2.19.88-1.57 2.77-3.46 4.71-3.46a2.61 2.61 0 0 1 2.26 1.17c1.09-.09 1.13 1 1.35 1.73zm-2.59-.84c-.29-.47-.62-.91-1.2-.91-1.53 0-3.72 2.44-3.72 3.9a1 1 0 0 0 1.06 1.06c1.63 0 2.98-2.92 3.86-4.05z"/><path class="a" d="M170.22 58.07c0 .15-.15.18-.25.18a6.37 6.37 0 0 1-1.2-.18 8.62 8.62 0 0 0-1.39-.07c-3.9 0-6.49 2.22-8.68 5.25-.25.36-.84 1.13-1.35 1.13-1.28 0-.91-4.19-1.06-5 0-.18-.11-.4-.33-.4-.77 0-4.16 4.89-7.44 4.89-.25 0-.58 0-.58-.4s.22-.33.4-.36a5 5 0 0 0 1.46-.33c1.86-.84 3.72-2.88 5.18-4.34a2.06 2.06 0 0 1 1.31-.77c1.09 0 1.06 1.71 1.06 2.44v2.37c0 .18 0 .51.25.51s.95-1 1.06-1.13a18 18 0 0 1 2-2.08 11.19 11.19 0 0 1 7.08-2.59c.62-.04 2.48 0 2.48.88zm24.03 5.76c-3.25 0-3.76-3.21-4.56-3.21s-2 3.94-5.11 3.94a1.87 1.87 0 0 1-2-2c0-2.19 3-5.14 5.21-5.14a2.4 2.4 0 0 1 2.22 1.17c1.06-.11 1.13 1 1.35 1.71a6 6 0 0 0 .44 1.13 2.86 2.86 0 0 0 2.48 1.64.4.4 0 0 1 .4.36.41.41 0 0 1-.43.4zm-9.41-.33c1 0 2.15-1.42 2.7-2.19.4-.58.73-1.28 1.17-1.86-.29-.47-.58-.91-1.2-.91-1.5 0-3.68 2.44-3.68 3.9a1 1 0 0 0 1.01 1.06z"/><path class="a" d="M211.5 58.83a3.26 3.26 0 0 1 1.31 2.48c0 3.79-5 4.85-7.91 4.85-.29 0-1-.15-1-.55s.58-.47.88-.47a12.59 12.59 0 0 0 3.1-.29 4.86 4.86 0 0 0 3.25-1.93 2.65 2.65 0 0 0 .47-1.57c0-2-3.57-3.94-4.85-5.32a62.91 62.91 0 0 1-6.78 5.69c-2 1.42-3.25 2.12-5.8 2.12a.4.4 0 0 1-.4-.36.41.41 0 0 1 .4-.4 8.21 8.21 0 0 0 4-1.24 10.62 10.62 0 0 0 1.17-.77 55.83 55.83 0 0 0 5.36-4.34l1.53-1.46a2.48 2.48 0 0 1-.29-1.13c0-1.35 1.35-3.28 2.81-3.28a1.1 1.1 0 0 1 1.13 1.17c0 1.2-1.42 2.59-2.33 3.28h-.07c1.25 1.26 2.7 2.35 4.02 3.52zm-4.52-4.67v.37c.44-.4 1.79-1.64 1.79-2.26a.31.31 0 0 0-.33-.33c-.7 0-1.43 1.6-1.43 2.22zm30.41-.22c0 .91-2.55.95-3.17 1a1.5 1.5 0 0 1-.15.36 14 14 0 0 0-1.2 4.67 3 3 0 0 0 .88 2.37 3.26 3.26 0 0 0 1.9.69c.18 0 .4.15.4.36a.4.4 0 0 1-.4.4 3.33 3.33 0 0 1-3.61-3.61 13.18 13.18 0 0 1 .33-2.37 12.74 12.74 0 0 1-1.35 1.79c-1.2 1.28-4.16 4.12-6 4.12-.29 0-.95-.11-.95-.47s.91-.36 1.13-.44a8.11 8.11 0 0 0 2.77-1.6 16.17 16.17 0 0 0 4.71-6.24c-.55 0-1.13.07-1.68.07-.36 0-1.17-.11-1.17-.58 0-.73 2.74-.66 3.32-.66.22-.47.8-2.37 1.42-2.37.44 0 .55.73.55 1a4.22 4.22 0 0 1-.4 1.31 13.19 13.19 0 0 1 2.08 0c.15.06.59-.05.59.2z"/><path class="a" d="M249.09 57.26a1.86 1.86 0 0 1-.22.77 2.78 2.78 0 0 1-.91.8c-.47.29-1 .51-1.46.77-.87.47-1.68 1-2.55 1.42.15 1.39 1.06 1.86 2.33 2 .18 0 .4.15.4.36a.41.41 0 0 1-.4.4 3.53 3.53 0 0 1-3.39-2.26c-2.3 1.13-4.59 2.26-7.22 2.26a.41.41 0 0 1-.44-.4.4.4 0 0 1 .4-.36 10.59 10.59 0 0 0 3.21-.55 32.79 32.79 0 0 0 4-1.86c0-2.15 2-5 4.3-5a1.8 1.8 0 0 1 1.95 1.65zm-1.57.55a.6.6 0 0 0 .18-.44c0-.44-.44-.58-.8-.58-1.57 0-2.59 1.9-2.88 3.21a23.74 23.74 0 0 0 3.48-2.19z"/><path class="a" d="M263.28 46.8c.62-.77 1.79-1.9 2.84-1.9s1.6 1.31 1.6 2.22c0 1.75-1.28 4.34-2.26 5.76a21.63 21.63 0 0 1-3.43 3.87 5.61 5.61 0 0 1-.69.62c.51 2.48 2.33 5.69 5.21 5.69a.39.39 0 0 1 .37.36.38.38 0 0 1-.37.4c-3.32 0-5.43-2.66-6.13-5.65-3.57 2.7-9.74 5.65-14.19 5.65a.41.41 0 0 1-.4-.4.4.4 0 0 1 .4-.36 11.51 11.51 0 0 0 3.14-.51 31.54 31.54 0 0 0 10.83-5.29c0-.55-.15-1.09-.15-1.68a15.42 15.42 0 0 1 3.23-8.78zm1.5 5.54c.77-1.2 2-3.43 2-4.85 0-.66-.29-1.17-1-1.17-1 0-2.12 1.64-2.55 2.41a14.29 14.29 0 0 0-2 6.86 6.34 6.34 0 0 0 0 .84 18.23 18.23 0 0 0 3.54-4.05z"/><path class="a" d="M278.99 60.29a4.39 4.39 0 0 0 .51 1.09 2.8 2.8 0 0 0 2.44 1.64.4.4 0 0 1 .4.36.41.41 0 0 1-.4.4c-3.25 0-3.72-3.21-4.56-3.21s-1.93 3.94-5.14 3.94a1.81 1.81 0 0 1-2-1.93v-.2a5.39 5.39 0 0 1-3.72 1.42.36.36 0 0 1-.4-.4.39.39 0 0 1 .36-.36c1.64 0 3-1.17 4.23-2.19.88-1.57 2.77-3.46 4.71-3.46a2.61 2.61 0 0 1 2.26 1.17c1.06-.09 1.09 1 1.31 1.73zm-2.59-.84c-.29-.47-.62-.91-1.2-.91-1.53 0-3.72 2.44-3.72 3.9a1 1 0 0 0 1.06 1.06c1.64 0 2.96-2.92 3.86-4.05z"/><path class="a" d="M299.2 58.83a3.26 3.26 0 0 1 1.31 2.48c0 3.79-5 4.85-7.91 4.85-.29 0-1-.15-1-.55s.58-.47.88-.47a12.59 12.59 0 0 0 3.1-.29 4.86 4.86 0 0 0 3.25-1.93 2.65 2.65 0 0 0 .47-1.57c0-2-3.57-3.94-4.85-5.32a62.91 62.91 0 0 1-6.78 5.69c-2 1.42-3.25 2.12-5.8 2.12a.4.4 0 0 1-.4-.36.41.41 0 0 1 .4-.4 8.21 8.21 0 0 0 4-1.24 10.62 10.62 0 0 0 1.17-.77 55.83 55.83 0 0 0 5.36-4.34l1.53-1.46a2.48 2.48 0 0 1-.29-1.13c0-1.35 1.35-3.28 2.81-3.28a1.1 1.1 0 0 1 1.13 1.17c0 1.2-1.42 2.59-2.33 3.28h-.07c1.21 1.26 2.67 2.35 4.02 3.52zm-4.52-4.67v.37c.44-.4 1.79-1.64 1.79-2.26a.31.31 0 0 0-.33-.33c-.74 0-1.47 1.6-1.47 2.22zm9.82 8.14a1 1 0 0 1 1 .95.77.77 0 0 1-.77.8.88.88 0 0 1-1-1 .59.59 0 0 1 .22-.55.81.81 0 0 1 .55-.2z"/></svg>