<svg xmlns="http://www.w3.org/2000/svg" viewBox="0 0 873.59 66.3"><title>p1_s16</title><path d="M15.43 25.79c4.22-7.42 8.06-14.33 9.92-18.24.26-.45.77-2 2.18-2a1 1 0 0 1 1 .77 3 3 0 0 1-.32.9C27.7 8.5 22.77 17.84 22 19.12c-3.58 6.21-6.59 11.58-9 15.29-1 1.54-2.82 4.42-4.74 4.42-3.39 0-4-8-7-23.23A74.57 74.57 0 0 1-.02 7.73c0-1.15-.13-2.62 1.28-2.62.9 0 1.15 2.18 1.41 3.52.32 2.18 4 27.26 6.08 27.26.19 0 .38-.13.64-.38 2.35-2.68 3.48-5.31 6.04-9.72zM39.23 25.37a2.37 2.37 0 0 1 .45 1.73c0 2.3.64 5.63 2.18 7.42a4 4 0 0 0 1.47 1.09c.64.26 2.5.13 2.5 1a.71.71 0 0 1-.7.7c-4.61 0-6.91-4.74-7.17-8.77-1.15 2.75-4.22 6-6.59 7.81a13.19 13.19 0 0 1-8.13 3.02c-.58 0-2.43-.19-2.43-1 0-.45 1-.45 1.28-.45a11.42 11.42 0 0 0 4.42-.7 16.81 16.81 0 0 0 4.8-3.14 17.77 17.77 0 0 0 4.86-6.4 7.11 7.11 0 0 1 1.15-2.18 1.46 1.46 0 0 1 1.09-.51 1 1 0 0 1 .82.38zm-1.22-9.92c0-.64.58-.9 1.15-.9 1 0 1.54 1.34 1.54 2.24 0 .51-.26 1-.77 1-.82 0-1.91-1.54-1.91-2.31z" fill="#fff"/><path d="M82.62 28.37a.64.64 0 0 1-.64.64c-1.22 0-3.71-1.47-6-1.47a3.63 3.63 0 0 0-2.43.7c-2.24 1.86-6.08 10-9 10s-5.38-9.09-6.46-9.09c-.38 0-.77.38-1 .64-1.92 2-3.65 4.16-6.08 5.7a9.59 9.59 0 0 1-6 1.86.7.7 0 0 1-.7-.64.71.71 0 0 1 .7-.7 7.72 7.72 0 0 0 5-1.54c2.18-1.41 4-4.1 5.5-6.21.58-.83 1.92-2.94 3-2.94a1.34 1.34 0 0 1 1 .51 5.62 5.62 0 0 1 1 2c.77 2.18 1.92 4.29 2.75 6.46.26.64.7 1.6 1.54 1.6 2.11 0 5.76-8.26 8.13-9.66a4.18 4.18 0 0 1 2.3-.64c2.56 0 4.48 1.41 6.85 2h.06a.79.79 0 0 1 .48.78z" fill="#fff"/><path d="M111.04 34.94c0 1.6-3.33 2.37-4.61 2.37-5.7 0-6.59-5.63-8.06-5.63s-3.26 6.85-9.09 6.85a3.08 3.08 0 0 1-3.39-3.33 8.62 8.62 0 0 1 2.37-5.25 25.77 25.77 0 0 1-6.66-1h-.06c-.26-.19-.45-.19-.45-.64a.66.66 0 0 1 .7-.64 1.08 1.08 0 0 1 .45.06 19.84 19.84 0 0 0 5.12.77 17.24 17.24 0 0 0 2.56-.19 7.91 7.91 0 0 1 5.18-2.3 4.43 4.43 0 0 1 3.84 2.11c1.73-.32 2 1.79 2.37 3a10.62 10.62 0 0 0 .77 2 5 5 0 0 0 4.35 2.88c2 0 4-1.47 4.22-1.47s.39.15.39.41zm-14.3-5.31c-.51-.83-1-1.6-2.11-1.6-2.62 0-6.46 4.29-6.46 6.85a1.68 1.68 0 0 0 1.73 1.86c2.9-.01 5.27-5.07 6.84-7.11zM157.82 34.94c0 1.6-3.33 2.37-4.61 2.37-5.82 0-6.59-5.63-8.06-5.63s-3.39 6.91-9 6.91c-2.18 0-3.52-1.22-3.52-3.39 0-3.9 5.18-9.15 9.09-9.15a4.31 4.31 0 0 1 4 2 1.81 1.81 0 0 1 1.79 1.09 10.66 10.66 0 0 1 .51 1.92c.58 2.37 2.5 4.86 5.12 4.86 2.11 0 4-1.47 4.29-1.47s.39.23.39.49zm-21.08 1.79c2.88 0 5.25-5.12 6.78-7.1-.51-.83-1.09-1.6-2.11-1.6-2.69 0-6.46 4.29-6.46 6.85a1.7 1.7 0 0 0 1.79 1.85zM213.44 32.7a10.5 10.5 0 0 1-6.91-3 15.7 15.7 0 0 1-2.94-3.58c-1.86 4.54-5.44 12.42-11.33 12.42-3.14 0-4.61-2.43-4.61-5.31a18.87 18.87 0 0 1 .9-5.31c-2.18 1.28-5.37 3-7.93 3-.58 0-1.92-.38-1.92-1.15 0-.58 1.66-.38 2-.45 2.69-.26 6.33-2.37 8.58-3.9 1.54-4.86 7.23-21.82 13.5-21.82 2 0 2.94 1.6 2.94 3.39 0 5.7-10.88 16.13-15 19.39a22.26 22.26 0 0 0-1.22 6.78c0 1.6.7 3.39 2.56 3.39 2.43 0 4.61-2.24 6-4 2-2.56 2.69-5.7 3.84-8.7a1.64 1.64 0 0 1 1.54-1.28c1.41 0 1.86 1.34 2.24 2.43a12.26 12.26 0 0 0 2 3.37 7.32 7.32 0 0 0 4.67 2.82c.58.06 1.79-.13 1.79.77a.71.71 0 0 1-.7.74zM199.55 8.06a42.7 42.7 0 0 0-4.1 7.29c-1.22 2.69-2.5 5.31-3.58 8.06v.06c2.5-2.3 9.22-9.73 10.56-12.54a8.08 8.08 0 0 0 1-3.2c0-.77-.32-1.6-1.15-1.6-1.13.01-2.15 1.16-2.73 1.93z" fill="#fff"/><path d="M230.21 25.85c0 3-6.78 5.06-9 5.82l-.13.06v.38c0 2.5 1.86 3.58 4.1 3.84.32.06.7.26.7.64a.71.71 0 0 1-.7.7 6 6 0 0 1-6-4.42c-.06-.19 0-.64-.13-.77a31.43 31.43 0 0 1-5.44.58.71.71 0 0 1-.7-.7.71.71 0 0 1 .7-.7 23.22 23.22 0 0 0 5.57-.64c.7-3.46 3.52-7.68 7.49-7.68 1.68.01 3.54.97 3.54 2.89zm-2.62-.06c0-.64-.7-.83-1.28-.83-2.56 0-4.48 3-5 5.25 1.54-.33 6.27-2.63 6.27-4.42z" fill="#fff"/><path d="M255.04 7.42c1.09-1.34 3.14-3.33 5-3.33s2.82 2.3 2.82 3.9c0 3.07-2.24 7.62-4 10.11a38.06 38.06 0 0 1-6 6.78 9.88 9.88 0 0 1-1.22 1.09c.9 4.35 4.1 10 9.15 10a.69.69 0 0 1 .64.64.66.66 0 0 1-.64.7c-5.82 0-9.54-4.67-10.75-9.92-6.27 4.74-17.09 9.92-24.89 9.92a.71.71 0 0 1-.7-.7.7.7 0 0 1 .7-.64 20.21 20.21 0 0 0 5.5-.9c6.4-1.79 13.82-5.06 19-9.28-.06-1-.26-1.92-.26-2.94a27.06 27.06 0 0 1 5.65-15.43zm2.62 9.73c1.34-2.11 3.46-6 3.46-8.51 0-1.15-.51-2-1.73-2-1.73 0-3.71 2.88-4.48 4.22a25.1 25.1 0 0 0-3.58 12 11.41 11.41 0 0 0 .06 1.47 31.93 31.93 0 0 0 6.27-7.18z" fill="#fff"/><path d="M284.35 25.79a3.25 3.25 0 0 1-.38 1.34 4.9 4.9 0 0 1-1.6 1.41c-.83.51-1.73.9-2.56 1.34-1.54.83-2.94 1.73-4.48 2.5.26 2.43 1.86 3.26 4.1 3.58.32.06.7.26.7.64a.71.71 0 0 1-.7.7 6.19 6.19 0 0 1-6-4c-4 2-8.06 4-12.67 4a.72.72 0 0 1-.77-.7.7.7 0 0 1 .7-.64 18.56 18.56 0 0 0 5.63-1 57.48 57.48 0 0 0 7-3.26c0-3.78 3.46-8.77 7.55-8.77 1.62.04 3.48 1 3.48 2.86zm-2.75 1a1.06 1.06 0 0 0 .32-.77c0-.77-.77-1-1.41-1-2.75 0-4.54 3.33-5.06 5.63.96-.51 5.57-3.2 6.15-3.9z" fill="#fff"/><path d="M310.52 39.67c-1.41 1.28-3.39 3.26-5.44 3.26a1.67 1.67 0 0 1-1.86-1.66c0-2.3 2.88-3.9 4.86-3.9a5.54 5.54 0 0 1 2 .38c1.79-1.92 5.31-6 5.31-8.64 0-2.24-2.24-3.46-4.29-3.46a12.67 12.67 0 0 0-6 2q-3.84 2.21-7.87 4c-5.18 2.37-12.22 5.63-18 5.63a.71.71 0 0 1-.7-.7c0-.58.58-.64 1-.64 3.52-.06 9.54-2.24 12.86-3.65a86.59 86.59 0 0 0 12.1-6.27c2.3-1.41 4.35-2.43 7.1-2.43 3.33 0 6.14 1.6 6.14 5.18s-3.58 7.42-6.08 9.73a11.69 11.69 0 0 1 4.35 6.08c.9-.7 6-4.8 6.59-4.8a.66.66 0 0 1 .64.7.92.92 0 0 1-.13.45c-.38.13-5.7 4.29-6.66 5a22.24 22.24 0 0 1 .51 5.06 32.85 32.85 0 0 1-1 7.94c-1.15 4.54-4.67 7.36-8.51 7.36a4.86 4.86 0 0 1-4.93-5.06c0-7.1 6.46-11.58 11.65-15.29-.5-2.36-1.42-4.86-3.64-6.27zm1.47 23c2.62-2.69 2.94-6.85 2.94-11.2a19.7 19.7 0 0 0-.32-3.9c-4.54 3-9.92 7.36-9.92 13.57a3.06 3.06 0 0 0 3.2 3.33 6.53 6.53 0 0 0 4.1-1.82zm-3.25-23.64h-.45c-.9 0-3.07.7-3.07 1.79a.36.36 0 0 0 .38.32c.89.01 2.56-1.47 3.14-2.11z" fill="#fff"/><path d="M364.47 34.94c0 1.6-3.33 2.37-4.61 2.37-5.7 0-6.59-5.63-8-5.63s-3.46 6.91-9 6.91a3.28 3.28 0 0 1-3.58-3.52 6.57 6.57 0 0 1 1.39-3.7 134.18 134.18 0 0 0-13.5 6.91c-.64.38-4 2.88-4.48 2.88a.75.75 0 0 1-.7-.64c0-.58 2.69-2.24 3.2-2.56a71.44 71.44 0 0 1 6.78-3.9l7.42-3.69a28.66 28.66 0 0 0 3.46-1.66c.38-.26.77-.7 1.09-1a7.56 7.56 0 0 1 4.54-1.73 4.41 4.41 0 0 1 3.9 2 1.9 1.9 0 0 1 1.86 1.09 16.72 16.72 0 0 1 .51 1.92c.7 2.43 2.3 4.86 5.12 4.86 2 0 4-1.47 4.22-1.47s.38.24.38.56zm-14.33-5.31c-.45-.83-1-1.6-2-1.6-2.69 0-6.53 4.29-6.53 6.85a1.7 1.7 0 0 0 1.79 1.86c2.84-.01 5.34-5.07 6.74-7.11zM403.74 17.47C404.83 13.12 408.6 0 413.98 0a2.09 2.09 0 0 1 2.11 2.37c0 2.11-1 4.54-1.86 6.46-1.09 2.43-2.56 4.67-3.84 7-1.73 3.14-3.26 6.27-5.18 9.28-.32.51-.64 1-1 1.54.38 2.5.58 4.93 2.5 6.85a9.1 9.1 0 0 0 6.4 2.43.66.66 0 0 1 .7.64.71.71 0 0 1-.7.7c-5.7 0-9.15-3.2-10.24-8.64-2.5 3.46-6.59 9.47-11.33 9.47a3.9 3.9 0 0 1-4.1-4c0-3.84 4.8-7.81 8.58-7.81a4.62 4.62 0 0 1 4.29 3.07c.83-1.09 1.54-2.18 2.3-3.26a36.07 36.07 0 0 1 1.13-8.63zm-5 13.9l.06-.06a3 3 0 0 0-3.06-2.84c-2.62 0-6.14 2.69-6.14 5.5a2 2 0 0 0 2.11 2.11c2.91.01 5.21-2.71 7.03-4.71zM407.51 18c1.15-2 2.24-4.16 3.33-6.27s3.2-5.44 3.2-7.68c0-.64-.26-1.28-1-1.28-2.88 0-6.14 10.37-6.91 12.73a44.77 44.77 0 0 0-1.92 8.19z" fill="#fff"/><path d="M434.87 31.1a7.7 7.7 0 0 0 .83 2c1 1.66 2.3 2.88 4.29 2.88a.7.7 0 0 1 .7.64.71.71 0 0 1-.7.7c-5.7 0-6.53-5.63-8-5.63s-3.39 6.91-9 6.91a3.18 3.18 0 0 1-3.46-3.39v-.38c-2.24 1.66-3.65 2.5-6.53 2.5a.64.64 0 0 1-.7-.7.69.69 0 0 1 .64-.64c2.88 0 5.31-2 7.42-3.84 1.54-2.75 4.86-6.08 8.25-6.08a4.59 4.59 0 0 1 4 2c1.82-.17 1.88 1.75 2.26 3.03zm-4.54-1.47c-.51-.83-1.09-1.6-2.11-1.6-2.69 0-6.53 4.29-6.53 6.85a1.75 1.75 0 0 0 1.86 1.86c2.88-.01 5.24-5.13 6.78-7.11z" fill="#fff"/><path d="M470.33 28.54a5.71 5.71 0 0 1 2.3 4.35c0 6.66-8.7 8.51-13.89 8.51-.51 0-1.79-.26-1.79-1s1-.83 1.54-.83a22.08 22.08 0 0 0 5.44-.51c2.56-.64 4.16-1.28 5.7-3.39a4.65 4.65 0 0 0 .83-2.75c0-3.46-6.27-6.91-8.51-9.34a110.63 110.63 0 0 1-11.9 10c-3.58 2.5-5.7 3.71-10.18 3.71a.7.7 0 0 1-.7-.64.71.71 0 0 1 .7-.7 14.4 14.4 0 0 0 7-2.18 18.62 18.62 0 0 0 2-1.34 97.66 97.66 0 0 0 9.41-7.62l2.69-2.56a4.35 4.35 0 0 1-.51-2c0-2.37 2.37-5.76 4.93-5.76a1.93 1.93 0 0 1 2 2c0 2.11-2.5 4.54-4.1 5.76-.06 0-.06.06-.13.06 2.24 2.26 4.8 4.18 7.17 6.23zm-7.94-8.17v.19l.06.45c.77-.7 3.14-2.88 3.14-4a.54.54 0 0 0-.58-.58c-1.34.01-2.62 2.83-2.62 3.94zM523.13 31.99a.71.71 0 0 1-.7.7c-.26 0-1.28 0-2.18.06.38 5-6.08 8.25-10.37 8.25-1.79 0-4-.7-4-2.88 0-4.67 8.77-6.08 12.16-6.4v-.06c-1.6-3.26-6.72-5.5-8.83-8.26a38.59 38.59 0 0 1-5.44 4.22c-2 1.28-6.46 4-8.83 4-.45 0-1.47-.19-1.47-.83s1.54-.7 1.92-.83a25.36 25.36 0 0 0 5.18-2.37 47.38 47.38 0 0 0 7.68-5.63 4.36 4.36 0 0 1-.45-1.79c0-2.3 2.37-5.7 4.86-5.7a2 2 0 0 1 2 2.11c0 2.56-2.5 4.16-4.16 5.63h-.06c2.18 2.43 5 4.42 7.49 6.53a6.3 6.3 0 0 1 2 2.69c.64-.06 2-.13 2.43-.13a.71.71 0 0 1 .77.69zm-4.74 1c-2.62.26-10.75 1.34-10.75 4.93 0 1.34 1.22 1.79 2.37 1.79 3.39-.04 8.38-2.34 8.38-6.76zm-5.5-16a.52.52 0 0 0-.58-.51c-1.34 0-2.56 2.69-2.56 3.78v.45c.83-.75 3.14-2.6 3.14-3.75z" fill="#fff"/><path d="M540.34 36.37c3.14-2.11 4.29-5.25 5.89-8.51.45-.9 1.28-2.11 2.37-2.11 2 0 1.41 3.58 1.6 4.93a6.18 6.18 0 0 0 5.12 5.12c.51.13 1.73 0 1.73.77a.71.71 0 0 1-.7.7 8.71 8.71 0 0 1-8.77-7.42 10.15 10.15 0 0 1-1.15 2.37c-1.86 3.14-4.54 6.72-8.58 6.72-3.33 0-4.93-2.82-4.93-5.82a20.28 20.28 0 0 1 1.28-5.5 27.37 27.37 0 0 1-7.36 4.29 11.8 11.8 0 0 1-4.48.77.71.71 0 0 1-.7-.7.7.7 0 0 1 .64-.7 11.26 11.26 0 0 0 3.2-.58 17 17 0 0 0 3.78-1.79c1.15-.64 5.57-4 6.59-4a1.28 1.28 0 0 1 1.27 1.46c0 1.73-2.37 4.16-2.37 7.3a3.16 3.16 0 0 0 3.33 3.46 3.88 3.88 0 0 0 2.24-.76z" fill="#fff"/><path d="M578.1 31.1a7.7 7.7 0 0 0 .83 2c1 1.66 2.3 2.88 4.29 2.88a.7.7 0 0 1 .7.64.71.71 0 0 1-.7.7c-5.7 0-6.53-5.63-8-5.63s-3.39 6.91-9 6.91a3.18 3.18 0 0 1-3.48-3.41v-.38c-2.24 1.66-3.65 2.5-6.53 2.5a.64.64 0 0 1-.7-.7.69.69 0 0 1 .64-.64c2.88 0 5.31-2 7.42-3.84 1.54-2.75 4.86-6.08 8.25-6.08a4.59 4.59 0 0 1 4 2c1.84-.15 1.92 1.77 2.28 3.05zm-4.54-1.47c-.51-.83-1.09-1.6-2.11-1.6-2.69 0-6.53 4.29-6.53 6.85a1.75 1.75 0 0 0 1.82 1.85c2.92 0 5.28-5.12 6.82-7.1z" fill="#fff"/><path d="M613.56 28.54a5.71 5.71 0 0 1 2.3 4.35c0 6.66-8.7 8.51-13.89 8.51-.51 0-1.79-.26-1.79-1s1-.83 1.54-.83a22.08 22.08 0 0 0 5.44-.51c2.56-.64 4.16-1.28 5.7-3.39a4.66 4.66 0 0 0 .83-2.75c0-3.46-6.27-6.91-8.51-9.34a110.63 110.63 0 0 1-11.9 10c-3.58 2.5-5.7 3.71-10.18 3.71a.7.7 0 0 1-.7-.64.71.71 0 0 1 .7-.7 14.4 14.4 0 0 0 7-2.18 18.62 18.62 0 0 0 2-1.34 97.66 97.66 0 0 0 9.41-7.62l2.69-2.56a4.35 4.35 0 0 1-.51-2c0-2.37 2.37-5.76 4.93-5.76a1.93 1.93 0 0 1 2 2c0 2.11-2.5 4.54-4.1 5.76-.06 0-.06.06-.13.06 2.24 2.26 4.8 4.18 7.17 6.23zm-7.94-8.17v.19l.06.45c.77-.7 3.14-2.88 3.14-4a.54.54 0 0 0-.58-.58c-1.34.01-2.62 2.83-2.62 3.94zM654.01 25.85c0 3.26-6.27 4.42-8.64 5.25a.92.92 0 0 1-.45.13c0 .26-.06.45-.06.7 0 2.5 1.79 3.84 4.16 4 .38.06.7.19.7.64a.71.71 0 0 1-.7.7c-3.07 0-6.34-2.24-6.14-5.57a23.65 23.65 0 0 1-4.22.45c-.58 0-1.92-.38-1.92-1.15 0-.45.7-.45 1-.45a25.8 25.8 0 0 0 5.44-.64c0-.06.06-.19.06-.26a9.81 9.81 0 0 1 4.93-6.21 4.44 4.44 0 0 1 2.24-.51c1.74.04 3.6 1 3.6 2.92zm-2.62-.06c0-.64-.7-.83-1.28-.83-2.3 0-4.1 2.5-4.8 4.48 1.43-.26 6.07-1.93 6.07-3.65z" fill="#fff"/><path d="M677.88 41.02c-1.86 0-4.1-.64-4.1-2.82a4.52 4.52 0 0 1 1.86-3.26c2.43-2.11 7-2.82 10.17-3.26-1.54-3.26-6.14-5.44-8.45-8.13l-.06.06c-3.46 3.07-7 6.34-11.07 8.58-5.31 2.94-11.2 5.12-17.34 5.12a.66.66 0 0 1-.64-.7.69.69 0 0 1 .64-.64 21.84 21.84 0 0 0 5.76-.7 65.1 65.1 0 0 0 7.68-2.9 49.61 49.61 0 0 0 11.41-7.54l2.69-2.56a4.36 4.36 0 0 1-.51-2c0-2.37 2.37-5.76 4.93-5.76a1.93 1.93 0 0 1 2 2c0 2.69-2.62 4.16-4.16 5.82 2.3 2.18 4.74 4.1 7.1 6.14a7 7 0 0 1 2 2.88c.64-.06 2-.13 2.43-.13a.71.71 0 0 1 .7.7.71.71 0 0 1-.7.7c-.26 0-1.28 0-2.18.06.7 5.14-6 8.34-10.16 8.34zm8.25-7.65v-.38c-2.69.26-10.62 1.41-10.62 5.06 0 1.28 1.28 1.66 2.37 1.66 3.26-.04 8.32-2.4 8.25-6.34zm-8.25-13.06a2.42 2.42 0 0 0 .06.7c.77-.7 3.07-2.88 3.07-4a.54.54 0 0 0-.58-.58c-1.34.01-2.55 2.77-2.55 3.85z" fill="#fff"/><path d="M707 23.16c1 0 3.46.9 3.46 2 0 .26-.13.38-.45.38-.77 0-1.09-1-2.37-1-2.82 0-5.18 4.86-5.18 7.3s1.66 3.84 4 4a.76.76 0 0 1 .7.7.66.66 0 0 1-.7.64c-2.69 0-5.5-1.6-6-4.35a2.29 2.29 0 0 1-.13-.64 8.42 8.42 0 0 1 .38-2.5c-3.65 1.86-6.27 2.88-10.5 2.88a.71.71 0 0 1-.7-.7.71.71 0 0 1 .7-.7c4.1 0 7.94-1.79 11.39-3.78 1.05-1.86 2.97-4.23 5.4-4.23z" fill="#fff"/><path d="M738.36 31.1a24.89 24.89 0 0 0 3.78.19.71.71 0 0 1 .7.7.71.71 0 0 1-.7.7 24.74 24.74 0 0 1-4.16-.26c-1.28 3.39-5.06 6.46-8.51 6.46-2.69 0-4.1-2.3-4.1-4.74a8.7 8.7 0 0 1 .58-3.07c-5.7 2.5-13.37 6.21-19.45 6.21a.66.66 0 0 1-.64-.7.69.69 0 0 1 .64-.64 20.28 20.28 0 0 0 5.5-1 74.41 74.41 0 0 0 15-6.14 25.4 25.4 0 0 1 1.86-2.5c1.15-1.41 3.26-3.46 5.18-3.46s2.56 1.6 2.56 3.2a4.74 4.74 0 0 1 1.86 4 5.55 5.55 0 0 1-.1 1.05zm-2.3.83c-1.92-.64-3.58-1.86-3.58-4.16 0-1.34 1-2 2.5-2.18a1.3 1.3 0 0 0-1.09-.7 2.55 2.55 0 0 0-1.6.58c-2.43 1.73-4.86 5.89-4.86 8.9a2.62 2.62 0 0 0 2.69 2.82c1.77-.01 4.84-2.19 5.93-5.26zm.38-1.34c0-.26.06-.58.06-.9 0-1.34-.7-2.43-1.79-2.43-.26 0-.38.26-.38.51a2.88 2.88 0 0 0 2.11 2.82z" fill="#fff"/><path d="M759.54 7.42c1.09-1.34 3.14-3.33 5-3.33s2.82 2.3 2.82 3.9c0 3.07-1.86 6.59-3.39 9.15a37 37 0 0 1-7.81 8.9c1.09 4.35 3.9 9.92 9.15 9.92a.69.69 0 0 1 .64.64.66.66 0 0 1-.64.7c-5.76 0-9.47-4.67-10.75-9.85-3.78 2.94-7.49 5.25-12.48 5.25a.71.71 0 0 1-.7-.7.71.71 0 0 1 .7-.7 13.14 13.14 0 0 0 5.18-1 22.55 22.55 0 0 0 6.91-4.48c-.06-1-.26-1.92-.26-2.94a27.06 27.06 0 0 1 5.63-15.46zm2.62 9.73c1.34-2.11 3.46-6 3.46-8.51 0-1.09-.51-2-1.73-2a3 3 0 0 0-1.47.58c-3.9 2.69-6.59 11.07-6.59 15.68a11.41 11.41 0 0 0 .06 1.47 37.05 37.05 0 0 0 6.27-7.22z" fill="#fff"/><path d="M794.23 30.14a27.76 27.76 0 0 0 3.58 4.61 3.55 3.55 0 0 0 2.3 1.22c.32.06.7.26.7.64a.71.71 0 0 1-.7.7c-3.2 0-4.86-3.07-6.59-5.31-.9-1.15-1.47-2.62-3.2-2.62-3.07 0-6.08 8.51-10.24 8.51-2.75 0-3.71-3.84-4-6-2.59 2.34-7.34 5.48-10.84 5.48a.71.71 0 0 1-.7-.7.71.71 0 0 1 .7-.7 6.77 6.77 0 0 0 2.5-.6 30.68 30.68 0 0 0 8.19-5.5v-.5a40 40 0 0 1 4.29-17.21c.9-1.66 3-4.61 5.18-4.61 1.92 0 2.18 2.62 2.18 4 0 5.25-2.5 10.24-5.57 14.33a33 33 0 0 1-3.46 3.84 5.94 5.94 0 0 0-.64.64c-.06 1.28.45 5.38 2.24 5.38 2.82 0 6.08-8.32 10.37-8.32 1.66.03 2.88 1.5 3.71 2.72zm-12.61-16.57a33.24 33.24 0 0 0-3.78 14.4c3.2-3.58 8.06-10.69 8.06-15.74 0-.64-.13-2.11-1.09-2.11-1.27-.01-2.68 2.48-3.19 3.44z" fill="#fff"/><path d="M821.88 31.1a7.7 7.7 0 0 0 .83 2c1 1.66 2.3 2.88 4.29 2.88a.7.7 0 0 1 .7.64.71.71 0 0 1-.7.7c-5.7 0-6.53-5.63-8-5.63s-3.39 6.91-9 6.91a3.18 3.18 0 0 1-3.46-3.39v-.38c-2.24 1.66-3.65 2.5-6.53 2.5a.64.64 0 0 1-.7-.7.69.69 0 0 1 .64-.64c2.88 0 5.31-2 7.42-3.84 1.54-2.75 4.86-6.08 8.25-6.08a4.59 4.59 0 0 1 4 2c1.81-.17 1.87 1.75 2.26 3.03zm-4.54-1.47c-.51-.83-1.09-1.6-2.11-1.6-2.69 0-6.53 4.29-6.53 6.85a1.75 1.75 0 0 0 1.86 1.86c2.87-.01 5.24-5.13 6.77-7.11z" fill="#fff"/><path d="M857.33 28.54a5.71 5.71 0 0 1 2.3 4.35c0 6.66-8.7 8.51-13.89 8.51-.51 0-1.79-.26-1.79-1s1-.83 1.54-.83a22.08 22.08 0 0 0 5.44-.51c2.56-.64 4.16-1.28 5.7-3.39a4.66 4.66 0 0 0 .83-2.75c0-3.46-6.27-6.91-8.51-9.34a110.63 110.63 0 0 1-11.9 10c-3.58 2.5-5.7 3.71-10.18 3.71a.7.7 0 0 1-.7-.64.71.71 0 0 1 .7-.7 14.4 14.4 0 0 0 7-2.18 18.62 18.62 0 0 0 2-1.34 97.66 97.66 0 0 0 9.41-7.62l2.69-2.56a4.35 4.35 0 0 1-.51-2c0-2.37 2.37-5.76 4.93-5.76a1.93 1.93 0 0 1 2 2c0 2.11-2.5 4.54-4.1 5.76-.06 0-.06.06-.13.06 2.24 2.26 4.8 4.18 7.17 6.23zm-7.93-8.17v.19l.06.45c.77-.7 3.14-2.88 3.14-4a.54.54 0 0 0-.58-.58c-1.34.01-2.62 2.83-2.62 3.94zM865.97 34.55a1.65 1.65 0 0 1 1.77 1.54 1.56 1.56 0 0 1-1.34 1.47 2 2 0 0 1-1.86-1.73c0-.58.19-1 .64-1.09a1.77 1.77 0 0 1 .79-.19zm1.6-6.46c-.32 0-.45-.26-.45-.58a26.6 26.6 0 0 1 .9-4.93c.51-2.3.7-4.1 1.15-6.33.51-2.82 1.34-10.24 3.26-10.24a1.22 1.22 0 0 1 1.15 1.34 3.85 3.85 0 0 1-.19 1.28 163.85 163.85 0 0 1-4.86 18c-.44 1.08-.57 1.46-.96 1.46z" fill="#fff"/></svg>