<svg xmlns="http://www.w3.org/2000/svg" viewBox="0 0 98.8 25.88"><defs><style>.a{fill:#fff}</style></defs><title>p1_s11</title><path class="a" d="M9.64 16.12c2.64-4.64 5-9 6.2-11.4.16-.28.48-1.24 1.36-1.24a.61.61 0 0 1 .6.48 1.9 1.9 0 0 1-.2.56c-.32.8-3.4 6.64-3.88 7.44-2.24 3.88-4.12 7.24-5.6 9.56-.64 1-1.76 2.76-3 2.76-2.12 0-2.52-5-4.36-14.52a46.44 46.44 0 0 1-.8-4.92c0-.72-.08-1.64.8-1.64.56 0 .72 1.36.88 2.2.2 1.36 2.52 17 3.8 17 .12 0 .24-.08.4-.24 1.48-1.64 2.2-3.28 3.8-6.04zm14.88-.24a1.48 1.48 0 0 1 .28 1.08 7.89 7.89 0 0 0 1.36 4.64 2.51 2.51 0 0 0 .92.68c.4.16 1.56.08 1.56.6a.44.44 0 0 1-.44.44c-2.88 0-4.32-3-4.48-5.48a14.23 14.23 0 0 1-4.12 4.88 8.25 8.25 0 0 1-5.08 1.92c-.36 0-1.52-.12-1.52-.64 0-.28.6-.28.8-.28a7.14 7.14 0 0 0 2.76-.44 10.5 10.5 0 0 0 3-2 11.1 11.1 0 0 0 3-4 4.46 4.46 0 0 1 .72-1.36.92.92 0 0 1 .68-.32.65.65 0 0 1 .56.28zm-2-3.4c-.16 0-.24 0-.24-.16 0-.28 2.68-2.6 3.32-2.6.32 0 .6.16.6.4 0 .52-2.44 2.08-3.32 2.32a1.11 1.11 0 0 1-.4.04z"/><path class="a" d="M42.76 10.92C43.44 8.2 45.76 0 49.16 0a1.31 1.31 0 0 1 1.32 1.48c0 2.64-2.32 6.12-3.56 8.44a63 63 0 0 1-3.88 6.76c0 .48.08 1 .16 1.52a5 5 0 0 0 3.36 4 7.25 7.25 0 0 0 2 .32.44.44 0 0 1 .44.4.44.44 0 0 1-.44.44 6.24 6.24 0 0 1-5.68-3.12 8.86 8.86 0 0 1-.72-2.28c-1.56 2.16-4.16 5.92-7.12 5.92a2.43 2.43 0 0 1-2.52-2.36c-1.52 1.16-2.48 1.84-4.44 1.84a.4.4 0 0 1-.44-.44.38.38 0 0 1 .4-.4c1.92 0 3.48-1.44 4.88-2.6a5.92 5.92 0 0 1 5-3.4 3 3 0 0 1 2.68 1.92c.52-.68 1-1.36 1.44-2a22.53 22.53 0 0 1 .72-5.52zm-3.12 8.68a1.92 1.92 0 0 0-1.92-1.76c-1.68 0-3.84 1.72-3.84 3.48a1.21 1.21 0 0 0 1.32 1.28c1.88-.04 3.32-1.76 4.44-3zm5.48-8.36c.76-1.28 1.4-2.6 2.08-3.92s2-3.44 2-4.8c0-.44-.16-.8-.64-.8-1.84 0-3.88 6.44-4.32 8a25 25 0 0 0-1.2 5.12z"/><path class="a" d="M63.32 16.12a2 2 0 0 1-.24.84 3.06 3.06 0 0 1-1 .88c-.52.32-1.08.56-1.6.84-1 .52-1.84 1.08-2.8 1.56.16 1.52 1.16 2 2.56 2.24.2 0 .44.16.44.4a.44.44 0 0 1-.44.44 3.87 3.87 0 0 1-3.72-2.48c-2.52 1.24-5 2.48-7.92 2.48a.45.45 0 0 1-.48-.44.44.44 0 0 1 .44-.4 11.59 11.59 0 0 0 3.52-.6 35.91 35.91 0 0 0 4.36-2c0-2.36 2.16-5.48 4.72-5.48a2 2 0 0 1 2.16 1.72zm-1.72.6a.66.66 0 0 0 .2-.48c0-.48-.48-.64-.88-.64-1.72 0-2.84 2.08-3.16 3.52a26 26 0 0 0 3.84-2.4z"/><path class="a" d="M80.16 19.44a15.53 15.53 0 0 0 2.36.12.44.44 0 0 1 .44.44.44.44 0 0 1-.44.44 15.47 15.47 0 0 1-2.6-.16c-.8 2.12-3.16 4-5.32 4a2.68 2.68 0 0 1-2.56-3 5.43 5.43 0 0 1 .36-1.92c-3.56 1.56-8.36 3.88-12.16 3.88a.41.41 0 0 1-.4-.44.43.43 0 0 1 .4-.4 12.66 12.66 0 0 0 3.44-.6 46.5 46.5 0 0 0 9.36-3.84 15.83 15.83 0 0 1 1.16-1.56c.72-.88 2-2.16 3.24-2.16s1.6 1 1.6 2a3 3 0 0 1 1.16 2.48 3.43 3.43 0 0 1-.04.72zm-1.44.52a2.77 2.77 0 0 1-2.24-2.6c0-.84.64-1.28 1.56-1.36a.81.81 0 0 0-.68-.44 1.6 1.6 0 0 0-1 .36 8.12 8.12 0 0 0-3 5.56 1.64 1.64 0 0 0 1.68 1.76c1.08 0 3-1.36 3.68-3.28zm.24-.84v-.56c0-.84-.44-1.52-1.12-1.52-.16 0-.24.16-.24.32a1.8 1.8 0 0 0 1.36 1.76z"/><path class="a" d="M97.36 17.84a3.57 3.57 0 0 1 1.44 2.72c0 4.16-5.44 5.32-8.68 5.32-.32 0-1.12-.16-1.12-.6s.64-.52 1-.52a13.79 13.79 0 0 0 3.4-.32 5.33 5.33 0 0 0 3.56-2.12 2.9 2.9 0 0 0 .52-1.72c0-2.12-3.92-4.36-5.32-5.84-2.72 2.52-5.64 5.68-9.64 5.68a.44.44 0 0 1-.44-.44.44.44 0 0 1 .44-.44 5.71 5.71 0 0 0 1.84-.28c2.64-.92 5.2-3.4 7.2-5.32a2.9 2.9 0 0 1-.32-1.28c0-1.48 1.48-3.6 3.08-3.6a1.21 1.21 0 0 1 1.24 1.28c0 1.32-1.56 2.84-2.56 3.6h-.08c1.36 1.4 2.91 2.6 4.44 3.88zm-5-5.12v.4c.48-.44 1.92-1.8 1.92-2.48a.32.32 0 0 0-.36-.36c-.72 0-1.52 1.76-1.52 2.44z"/></svg>