<svg xmlns="http://www.w3.org/2000/svg" viewBox="0 0 264.8 58.14"><defs><style>.a{fill:#3a1a0d}</style></defs><title>p1_s5</title><path class="a" d="M12.24 12.31c0 1.17-2.26 1.87-3.16 2.07a7.46 7.46 0 0 1-1.6.16 3.51 3.51 0 0 1-3.74-3.39 14.84 14.84 0 0 1-2.61.27c-.35 0-1.13-.23-1.13-.7 0-.27.43-.27.62-.27a15.71 15.71 0 0 0 3.28-.39V9.9c.43-1.91 2.34-4.1 4.41-4.1a1.94 1.94 0 0 1 2.15 1.72 2.16 2.16 0 0 1-.23.86c-.58 1.17-3.78 2-5 2.38a.91.91 0 0 1-.31.08v.35a2.42 2.42 0 0 0 2.54 2.54 6.11 6.11 0 0 0 3.67-1.05 9.3 9.3 0 0 1 .82-.62c.25-.04.29.03.29.25zm-7-2.57c.9-.2 3.67-1.17 3.67-2.22 0-.43-.43-.51-.78-.51-1.39-.03-2.56 1.5-2.91 2.7zm1.29-5.77c-.16 0-.23 0-.23-.16 0-.27 2.61-2.54 3.24-2.54.31 0 .59.16.59.39 0 .51-2.38 2-3.24 2.26a1.08 1.08 0 0 1-.38.02zm32.49 10.15a.4.4 0 0 1-.43.39 27.17 27.17 0 0 1-4.84-.27 7.64 7.64 0 0 1-2.81-.78c-1.21 4.17-1.87 5.62-3 9-1.13 3.2-2 6.79-4.41 6.79-1.13 0-2-1.33-2-2.85 0-5.66 6.83-14.62 9.87-19a9.56 9.56 0 0 0 .08-1.05c0-.59-.19-1.4-.19-1.76s.31-.86.78-.86c.78 0 .82 1 .82 1.64a2.69 2.69 0 0 1-.12.9 6.26 6.26 0 0 1 3-1.13c1.56 0 3.39.9 3.39 2.77 0 2.34-3.16 5.27-5.58 5.27.9.51 3.86.58 5 .58a.46.46 0 0 1 .44.36zM30.95 9.6c-2.89 4.45-3.82 5.66-5.34 8.23a56.73 56.73 0 0 0-2.5 5.58 9.43 9.43 0 0 0-.47 2.85c0 1.13.27 1.79.94 1.79 1 0 1.6-1.48 2.38-3.59 1-2.77 1.6-4.29 2.57-7.21.83-2.7 1.77-5.12 2.39-7.65zm1.52 3c1.79 0 5.23-2 5.23-4.52a1.64 1.64 0 0 0-1.83-1.6 5.9 5.9 0 0 0-3.28 1.21c-.43 1.79-.7 3.24-1.21 4.76a3.86 3.86 0 0 0 1.06.11z"/><path class="a" d="M58.22 10.73a6.37 6.37 0 0 0 .47 1.21 3 3 0 0 0 2.65 1.76.43.43 0 0 1 .43.39.43.43 0 0 1-.43.43c-3.47 0-4-3.43-4.87-3.43s-2.07 4.22-5.45 4.22a1.93 1.93 0 0 1-2.15-2.07 4.41 4.41 0 0 1 .63-2.11c-3 1.4-7.72 3.39-11 3.39a.43.43 0 0 1-.43-.43c0-.31.31-.39.55-.39 2.14-.08 5.85-1.37 7.88-2.22a30.73 30.73 0 0 0 4.29-2 5.08 5.08 0 0 1 3.55-1.79 2.75 2.75 0 0 1 2.42 1.25c1.15-.16 1.26 1.05 1.46 1.79zm-2.81-.9c-.27-.51-.62-1-1.25-1-1.64 0-4 2.61-4 4.17a1 1 0 0 0 1.09 1.13c1.77.03 3.31-3.05 4.17-4.3z"/><path class="a" d="M78.19 13.69a.42.42 0 0 1 .43.39.43.43 0 0 1-.43.43c-2 0-4.17-1-4.17-3.28 0-1.68 1.05-3.24 1.05-4.92 0-1.05-1.17-1.56-2-1.91h-.12a24.15 24.15 0 0 1-4.13 5.23c-1.72 1.64-3.24 3.39-5.38 4.45a4.38 4.38 0 0 1-2 .47c-.27 0-.62 0-.62-.43a.42.42 0 0 1 .39-.39 4.33 4.33 0 0 0 1.56-.35c2.38-1.05 8.11-6.83 9.36-9.44-.9-.47-1.91-1.13-1.91-2.26A1.69 1.69 0 0 1 71.94.04a1.91 1.91 0 0 1 1.91 1.87 3.73 3.73 0 0 1-.35 1.44h.12c1.33.58 2.65 1.29 2.65 3s-.78 3.08-1.09 4.64a1.33 1.33 0 0 0 0 .39c-.03 1.45 1.72 2.31 3.01 2.31zM72.53 2.81a3 3 0 0 0 .12-.82c0-.31-.16-.78-.58-.78a.63.63 0 0 0-.62.58c.03.44.73.79 1.09 1.02z"/><path class="a" d="M97.42 13.07c0 1-2 1.44-2.81 1.44-3.51 0-4-3.43-4.88-3.43s-2.11 4.21-5.5 4.21a2 2 0 0 1-2.14-2.11v-.19a5.94 5.94 0 0 1-3.78 1.52c-.31 0-.62 0-.62-.43a.42.42 0 0 1 .43-.39c1.75 0 3.2-1.25 4.49-2.34.94-1.72 3-3.71 5.07-3.71a2.65 2.65 0 0 1 2.38 1.25 1.07 1.07 0 0 1 1.09.66 6.69 6.69 0 0 1 .35 1.17c.43 1.52 1.36 3 3.12 3a6.68 6.68 0 0 0 2.57-.9c.15-.02.23.09.23.25zm-8.74-3.24c-.31-.51-.62-1-1.29-1-1.6 0-3.94 2.61-3.94 4.17a1 1 0 0 0 1.09 1.13c1.76.03 3.21-3.09 4.14-4.3zm37.28-.78a.39.39 0 0 1-.39.39 2.36 2.36 0 0 1-.43-.12 10.11 10.11 0 0 0-3.2-.78 3.35 3.35 0 0 0-.62 0c-2.15.39-4.21 6.83-6.44 6.83-.82 0-1.33-.9-1.68-1.52-.51-.94-2.61-4.64-2.61-5.54a.58.58 0 0 1 .58-.62c.94 0 1.37 1.75 1.64 2.42s.66 1.56 1 2.3c.16.39.62 1.56 1.13 1.56 1 0 3.55-5.19 5.11-6.24a2.64 2.64 0 0 1 1.4-.39 9.74 9.74 0 0 1 3.31.9 7.94 7.94 0 0 0 .86.35h.08a.59.59 0 0 1 .26.46z"/><path class="a" d="M136.92 10.73a15.13 15.13 0 0 0 2.3.12.43.43 0 0 1 0 .86 15.08 15.08 0 0 1-2.54-.16c-.78 2.07-3.08 3.94-5.19 3.94a2.61 2.61 0 0 1-2.5-2.89 6.1 6.1 0 0 1 .62-2.57 8.8 8.8 0 0 1-1 0 11.63 11.63 0 0 1-2.3-.31l-1-.27h-.08c-.12-.12-.23-.16-.23-.39a.43.43 0 0 1 .43-.39.5.5 0 0 1 .23 0 11.52 11.52 0 0 0 3 .47 9.47 9.47 0 0 0 1.48-.12 13.43 13.43 0 0 1 .9-1.17c.7-.86 2-2.11 3.16-2.11s1.56 1 1.56 2a2.89 2.89 0 0 1 1.13 2.42 3.34 3.34 0 0 1 .03.57zm-1.4.51a2.7 2.7 0 0 1-2.18-2.54c0-.82.62-1.25 1.52-1.33a.79.79 0 0 0-.66-.43 1.55 1.55 0 0 0-1 .35 7.91 7.91 0 0 0-3 5.42 1.6 1.6 0 0 0 1.64 1.72c1.18 0 3.02-1.32 3.68-3.19zm.23-.82v-.55c0-.82-.43-1.48-1.09-1.48-.16 0-.23.16-.23.31a1.76 1.76 0 0 0 1.32 1.72z"/><path class="a" d="M149.44 5.89c.58 0 2.11.55 2.11 1.25 0 .16-.08.23-.27.23-.47 0-.66-.58-1.44-.58-1.72 0-3.16 3-3.16 4.45a2.37 2.37 0 0 0 2.42 2.46.46.46 0 0 1 .43.43.4.4 0 0 1-.43.39 3.6 3.6 0 0 1-3.67-2.65 1.39 1.39 0 0 1-.08-.39 5.14 5.14 0 0 1 .23-1.52 12.61 12.61 0 0 1-6.4 1.75.43.43 0 0 1 0-.86 14.27 14.27 0 0 0 6.94-2.3c.67-1.24 1.84-2.66 3.32-2.66z"/><path class="a" d="M169.68 12.31c0 1.17-2.26 1.87-3.16 2.07a7.46 7.46 0 0 1-1.6.16 3.77 3.77 0 0 1-3.67-2.46 38.65 38.65 0 0 1-12.23 2.43.4.4 0 0 1-.39-.43.42.42 0 0 1 .39-.39 26.43 26.43 0 0 0 5-.55c1.48-.27 2.92-.7 4.37-1.09a21.49 21.49 0 0 0 2.26-.7l.55-.23c0-2.3 2.11-5.34 4.6-5.34a1.92 1.92 0 0 1 2.15 1.76c0 1.64-4 3.47-5.3 4l-.23.08a2.53 2.53 0 0 0 2.57 2.07 6.11 6.11 0 0 0 3.67-1.05 9.3 9.3 0 0 1 .82-.62c.16 0 .2.07.2.29zm-.43-9.4c0 .16-.08.2-.23.2a8.69 8.69 0 0 1-2.46-1.21 6.72 6.72 0 0 0-.82-.47 3.91 3.91 0 0 0-1.09.55 7.8 7.8 0 0 1-2.18 1.09c-.27 0-.27-.16-.27-.16 0-.39 2-1.75 3-2.38a.82.82 0 0 1 .43-.16h.08a22.12 22.12 0 0 1 3.28 2.15c.22.13.26.25.26.37zm-6.83 7.68c.9-.43 4-1.76 4-2.89 0-.47-.39-.7-.86-.7-1.73-.02-2.82 2.09-3.13 3.57zM7.02 48.55c0 .16-.12.2-.23.2-.43 0-.62-.58-1.48-.58-1.72 0-3.16 3-3.16 4.45a2.45 2.45 0 0 0 2.46 2.46c.23 0 .39.12.39.39a.4.4 0 0 1-.39.43c-1.83 0-3.74-1.29-3.74-3.28s1.83-5.34 4.06-5.34c.64-.02 2.09.49 2.09 1.27z"/><path class="a" d="M22.77 37.66c.66-.82 1.91-2 3-2s1.72 1.4 1.72 2.38c0 1.87-1.37 4.64-2.42 6.16a23.15 23.15 0 0 1-3.67 4.13 5.91 5.91 0 0 1-.74.66c.55 2.65 2.5 6.08 5.58 6.08a.42.42 0 0 1 .39.39.4.4 0 0 1-.39.43c-3.55 0-5.81-2.85-6.55-6-3.82 2.89-10.41 6-15.17 6a.43.43 0 0 1-.43-.43.42.42 0 0 1 .43-.39 12.34 12.34 0 0 0 3.35-.55 33.77 33.77 0 0 0 11.58-5.66c0-.58-.16-1.17-.16-1.79a16.49 16.49 0 0 1 3.48-9.41zm1.6 5.93c.82-1.29 2.11-3.67 2.11-5.19 0-.7-.31-1.25-1.05-1.25-1.05 0-2.26 1.76-2.73 2.57a15.3 15.3 0 0 0-2.18 7.33 6.89 6.89 0 0 0 0 .9 19.47 19.47 0 0 0 3.85-4.36z"/><path class="a" d="M36.54 48.66a1.35 1.35 0 0 1 .27 1 7.15 7.15 0 0 0 1.37 4.52 2.35 2.35 0 0 0 2 .86c.2 0 .43.16.43.39a.43.43 0 0 1-.43.43c-2.81 0-4.21-2.89-4.37-5.34a13.92 13.92 0 0 1-5.15 4.37 9.42 9.42 0 0 1-4.37 1 .43.43 0 0 1-.43-.43.42.42 0 0 1 .43-.39 7.85 7.85 0 0 0 3.86-.94 12 12 0 0 0 4.13-3.78c.35-.51 1.05-1.91 1.75-1.91a.71.71 0 0 1 .51.22zm-.74-6.08c0-.39.35-.55.7-.55.62 0 .94.82.94 1.36 0 .31-.16.58-.47.58-.55.01-1.17-.88-1.17-1.39z"/><path class="a" d="M40.02 55.06a11.34 11.34 0 0 0 3.43-.58 22.59 22.59 0 0 0 5.65-3.43 3.21 3.21 0 0 0 .66-.58c.12-.16.2-.43.31-.62a6.43 6.43 0 0 1 1.52-1.87 3 3 0 0 1 1.76-.7c.62 0 2.07.55 2.07 1.25a.21.21 0 0 1-.23.23c-.47 0-.66-.58-1.44-.58-1.75 0-3.16 3-3.16 4.49s1 2.26 2.42 2.42c.23 0 .43.16.43.43a.4.4 0 0 1-.43.39 3.6 3.6 0 0 1-3.67-2.65c0-.12-.08-.27-.08-.39a5.23 5.23 0 0 1 0-.78c-2.73 2.15-5.73 3.82-9.28 3.82a.4.4 0 0 1-.43-.39.43.43 0 0 1 .47-.46z"/><path class="a" d="M72.69 52.09a6.37 6.37 0 0 0 .47 1.21 3 3 0 0 0 2.65 1.76.43.43 0 0 1 .43.39.43.43 0 0 1-.43.43c-3.47 0-4-3.43-4.87-3.43s-2.07 4.21-5.46 4.21a1.93 1.93 0 0 1-2.15-2.07 4.41 4.41 0 0 1 .63-2.11c-3 1.4-7.72 3.39-11 3.39a.43.43 0 0 1-.43-.43c0-.31.31-.39.55-.39 2.14-.08 5.85-1.37 7.88-2.22a30.73 30.73 0 0 0 4.29-2 5.08 5.08 0 0 1 3.55-1.79 2.75 2.75 0 0 1 2.42 1.25c1.16-.15 1.28 1.02 1.47 1.8zm-2.81-.9c-.27-.51-.62-1-1.25-1-1.64 0-4 2.61-4 4.17a1 1 0 0 0 1.09 1.13c1.78.04 3.3-3.04 4.16-4.29z"/><path class="a" d="M99.13 49.72c0 .16-.16.2-.27.2a6.81 6.81 0 0 1-1.29-.2 9.18 9.18 0 0 0-1.48-.08c-4.17 0-6.94 2.38-9.28 5.62-.27.39-.9 1.21-1.44 1.21-1.37 0-1-4.48-1.13-5.38 0-.2-.12-.43-.35-.43-.82 0-4.45 5.23-8 5.23-.27 0-.62 0-.62-.43 0-.23.23-.35.43-.39a5.33 5.33 0 0 0 1.56-.35c2-.9 4-3.08 5.54-4.64a2.19 2.19 0 0 1 1.4-.82c1.17 0 1.13 1.83 1.13 2.61v2.54c0 .19 0 .55.27.55s1-1.09 1.13-1.21a19.24 19.24 0 0 1 2.15-2.22 12 12 0 0 1 7.57-2.77c.69-.02 2.68.02 2.68.96zm30.77 2.92a.43.43 0 0 1-.43.43h-1.33c.23 3-3.71 5-6.32 5-1.09 0-2.42-.43-2.42-1.75 0-2.85 5.34-3.71 7.41-3.9-1-2-4.1-3.35-5.38-5a23.59 23.59 0 0 1-3.31 2.57c-1.25.78-3.94 2.42-5.38 2.42-.27 0-.9-.12-.9-.51s.94-.43 1.17-.51a15.48 15.48 0 0 0 3.16-1.44 28.88 28.88 0 0 0 4.68-3.43 2.67 2.67 0 0 1-.27-1.09c0-1.4 1.44-3.47 3-3.47a1.22 1.22 0 0 1 1.25 1.29c0 1.56-1.52 2.54-2.54 3.43a44.39 44.39 0 0 0 4.56 4 3.84 3.84 0 0 1 1.17 1.63c.39 0 1.25-.08 1.48-.08a.43.43 0 0 1 .4.41zm-2.89.58c-1.6.16-6.55.82-6.55 3 0 .82.74 1.09 1.44 1.09 2.12 0 5.12-1.39 5.12-4.08zm-3.35-9.75a.32.32 0 0 0-.35-.31c-.82 0-1.56 1.64-1.56 2.3v.27c.51-.42 1.91-1.55 1.91-2.25z"/><path class="a" d="M142.77 52.09a15.12 15.12 0 0 0 2.3.12.43.43 0 0 1 0 .86 15.07 15.07 0 0 1-2.53-.16c-.78 2.07-3.08 3.94-5.19 3.94a2.61 2.61 0 0 1-2.5-2.89v-.23a3.18 3.18 0 0 1 0-.55 8.78 8.78 0 0 1 .51-1.64 12.34 12.34 0 0 1-6 1.52.43.43 0 0 1 0-.86 14.09 14.09 0 0 0 6.9-2.26c1.13-1.64 2.61-2.85 3.78-2.85s1.56 1 1.56 2a2.89 2.89 0 0 1 1.13 2.42 3.34 3.34 0 0 1 .04.58zm-1.4.51a2.7 2.7 0 0 1-2.18-2.54c0-.82.62-1.25 1.52-1.33a.79.79 0 0 0-.69-.42 1.55 1.55 0 0 0-1 .35 7.91 7.91 0 0 0-3 5.42 1.6 1.6 0 0 0 1.64 1.72c1.17 0 3.05-1.33 3.71-3.2zm.23-.82v-.55c0-.82-.43-1.48-1.09-1.48-.16 0-.23.16-.23.31a1.76 1.76 0 0 0 1.32 1.72z"/><path class="a" d="M163.25 48.39a6.2 6.2 0 0 0 1.17 2.11 4.41 4.41 0 0 0 2.85 1.68c.35 0 1.09-.08 1.09.47a.43.43 0 0 1-.43.43 6.36 6.36 0 0 1-4.21-1.79 10.7 10.7 0 0 1-1.79-2.18c-1.13 2.73-3.35 7.57-6.9 7.57-2 0-2.81-1.52-2.81-3.28a12.9 12.9 0 0 1 .58-3.43c-2.57 1.91-4.49 3.12-7.8 3.12a.43.43 0 0 1 0-.86 11.55 11.55 0 0 0 1.64-.12c2.38-.39 4.8-2.22 6.67-3.67 1-2.81 4.21-13.1 8.15-13.1 1.25 0 1.79 1 1.79 2.11 0 3.67-6.4 9.28-9 11.39a14.16 14.16 0 0 0-.9 4.56c0 1 .39 2.07 1.56 2.07 1.56 0 2.77-1.37 3.63-2.5a20 20 0 0 0 2.38-5.27 1.08 1.08 0 0 1 .62-.74.66.66 0 0 1 .27 0c.97-.05 1.21.73 1.44 1.43zm-3.82-10.3c-1.44 1.87-3.55 6.67-4.52 9a21.82 21.82 0 0 0 2.22-2 33.94 33.94 0 0 0 4.09-5.23 4.91 4.91 0 0 0 .58-2c0-.47-.2-1-.7-1-.66.06-1.33.77-1.68 1.23z"/><path class="a" d="M182.32 55.06a.42.42 0 0 1 .39.43.42.42 0 0 1-.39.39c-2 0-4.21-1-4.21-3.28 0-1.6 1.09-3.32 1.09-4.88 0-1.13-1.17-1.44-2-1.91a1.7 1.7 0 0 1-.16.27c-1.33 2.22-4.17 5.5-6.63 6.51a8.14 8.14 0 0 1-2.57.47.44.44 0 0 1-.47-.43.43.43 0 0 1 .43-.43 6.6 6.6 0 0 0 2-.31 6.39 6.39 0 0 0 2.65-1.72 18.38 18.38 0 0 0 3.78-4.91c-.9-.47-1.91-1.13-1.91-2.3a1.72 1.72 0 0 1 1.75-1.6 1.92 1.92 0 0 1 1.87 2 4 4 0 0 1-.23 1.37c1.33.58 2.65 1.29 2.65 2.93s-.78 3.08-1.09 4.68a1.33 1.33 0 0 0 0 .39c-.03 1.51 1.75 2.33 3.05 2.33zm-5.66-10.88c0-.12.12-.62.12-.86s-.16-.78-.58-.78a.63.63 0 0 0-.62.58c-.01.43.73.86 1.08 1.06z"/><path class="a" d="M195.19 55.72a7.46 7.46 0 0 1-1.6.16 3.73 3.73 0 0 1-3.63-2.42c-2.5 1.25-4.92 2.42-7.76 2.42a.43.43 0 0 1-.43-.43.42.42 0 0 1 .43-.39 11.55 11.55 0 0 0 3.43-.58 32.14 32.14 0 0 0 4.21-2 6.19 6.19 0 0 1 3.24-5 2.7 2.7 0 0 1 1.36-.31 1.94 1.94 0 0 1 2.15 1.72 2 2 0 0 1-.23.82 2.71 2.71 0 0 1-1 .86c-.51.31-1 .55-1.52.82-.9.51-1.79 1.05-2.73 1.52a2.45 2.45 0 0 0 2.54 2.18 5.85 5.85 0 0 0 3.67-1.05 9.31 9.31 0 0 1 .86-.62c.16 0 .19.08.19.23-.02 1.21-2.25 1.88-3.18 2.07zm-4-3.94a25.48 25.48 0 0 0 3.74-2.34.72.72 0 0 0 .19-.47c0-.47-.51-.62-.9-.62-1.61-.04-2.82 2.03-3.05 3.43zm30.4-2.88c0 2-3.82 2.69-5.27 3.2a.56.56 0 0 1-.27.08v.43a2.44 2.44 0 0 0 2.54 2.46c.23 0 .43.12.43.39a.43.43 0 0 1-.43.43c-1.87 0-3.86-1.36-3.74-3.39a14.4 14.4 0 0 1-2.57.27c-.35 0-1.17-.23-1.17-.7 0-.27.43-.27.62-.27a15.75 15.75 0 0 0 3.31-.39v-.16a6 6 0 0 1 3-3.78 2.7 2.7 0 0 1 1.36-.31 2 2 0 0 1 2.19 1.74zm-1.6 0c0-.39-.43-.51-.78-.51-1.4 0-2.5 1.52-2.93 2.73.86-.2 3.74-1.21 3.74-2.26z"/><path class="a" d="M236.72 37.66c.66-.82 1.91-2 3-2s1.72 1.4 1.72 2.38c0 1.87-1.37 4.64-2.42 6.16a23.15 23.15 0 0 1-3.67 4.13 5.91 5.91 0 0 1-.74.66c.55 2.65 2.5 6.08 5.58 6.08a.42.42 0 0 1 .39.39.4.4 0 0 1-.39.43c-3.55 0-5.81-2.85-6.55-6-3.82 2.89-10.41 6-15.17 6a.43.43 0 0 1-.43-.43.42.42 0 0 1 .43-.39 12.34 12.34 0 0 0 3.35-.55 33.77 33.77 0 0 0 11.58-5.66c0-.58-.16-1.17-.16-1.79a16.49 16.49 0 0 1 3.48-9.41zm1.6 5.93c.82-1.29 2.11-3.67 2.11-5.19 0-.7-.31-1.25-1.05-1.25-1.05 0-2.26 1.76-2.73 2.57a15.3 15.3 0 0 0-2.18 7.33 6.89 6.89 0 0 0 0 .9 19.47 19.47 0 0 0 3.85-4.36z"/><path class="a" d="M259.5 54.44c0 1-2 1.44-2.81 1.44-3.51 0-4-3.43-4.88-3.43s-2.11 4.21-5.5 4.21a2 2 0 0 1-2.14-2.11v-.24a5.94 5.94 0 0 1-3.78 1.52c-.31 0-.62 0-.62-.43a.42.42 0 0 1 .43-.39c1.75 0 3.2-1.25 4.49-2.34.94-1.72 3-3.71 5.07-3.71a2.65 2.65 0 0 1 2.36 1.35 1.07 1.07 0 0 1 1.09.66 6.69 6.69 0 0 1 .35 1.17c.43 1.52 1.36 3 3.12 3a6.69 6.69 0 0 0 2.57-.9c.17-.08.25.07.25.2zm-8.74-3.24c-.31-.51-.62-1-1.29-1-1.6 0-3.94 2.61-3.94 4.17a1 1 0 0 0 1.09 1.13c1.76.03 3.2-3.09 4.14-4.3zm12.99 3.04a1.1 1.1 0 0 1 1.05 1 .83.83 0 0 1-.82.86.94.94 0 0 1-1.05-1.05.63.63 0 0 1 .23-.58.86.86 0 0 1 .59-.23z"/></svg>