<svg xmlns="http://www.w3.org/2000/svg" viewBox="0 0 61.73 89.21"><defs><style>.a{fill:#3a1a0d}</style></defs><title>p1_10</title><path class="a" d="M35.34 87.24a25.74 25.74 0 0 1 6-2.42l6.17-2c4.13-1.28 8.25-2.56 12.42-3.72l-.17 1.9c-1.9-1-3.82-2-5.7-3.06s-3.74-2.17-5.54-3.35-3.65-2.33-5.39-3.61l-2.63-1.9-2.55-2c-1.73-1.31-3.33-2.77-5-4.17-.82-.71-1.59-1.47-2.39-2.2s-1.6-1.47-2.35-2.25a105.07 105.07 0 0 1-22.2-32A78.26 78.26 0 0 1 1.72 14.1a51.74 51.74 0 0 1-1.74-13A1.034 1.034 0 0 1 2.04.92v.07a105.28 105.28 0 0 0 3.17 12.13q1.93 6 4.44 11.75a105.24 105.24 0 0 0 12.88 21.56 117.18 117.18 0 0 0 17.46 18.2l2.43 2 2.51 1.93c1.64 1.33 3.4 2.52 5.11 3.76s3.53 2.35 5.29 3.53l5.43 3.32a1 1 0 0 1-.1 1.87h-.07c-4 1.55-8.11 3-12.19 4.41l-6.14 2.08a25.69 25.69 0 0 1-6.28 1.64 1.07 1.07 0 0 1-.65-2z"/><path class="a" d="M57.17 56.02a21.31 21.31 0 0 1 1.65 5.85q.56 3 1.07 6c.66 4 1.32 8 1.82 12a1.47 1.47 0 0 1-2.88.55c-1-3.92-1.87-7.86-2.73-11.81q-.62-3-1.2-5.94a21.31 21.31 0 0 1-.62-6 1.52 1.52 0 0 1 2.88-.55z"/></svg>