<svg xmlns="http://www.w3.org/2000/svg" viewBox="0 0 305.55 102.89"><defs><style>.a{fill:#3a1a0d}</style></defs><title>p1_s14</title><path class="a" d="M34.38 9.1c0 .84-1.12 1-1.82 1-1.54 0-3.36-.35-5.25-.35a40 40 0 0 0-7.84.63c-.84 0-.77-.07-4.62 16.8l.07.07a2.16 2.16 0 0 1 .7-.07l.63-.14c3.15-.42 9-.63 9.1-.63h.07c.91-.07 2-.07 2.87-.07 2.8 0 3.29.42 3.29.91 0 1.19-3.78 1.05-9.94 1.75h-.56c-2.31.21-5.81.77-6.93.77v.07c-1.4 5.88-2.52 10.22-3.36 13.3v.07l.7-.07c6.51-.84 11.06-1.61 16.45-2.24a14.6 14.6 0 0 1 1.61-.21c1.47 0 2.31.49 2.31 1.26s-1.26.84-3.43.84a21.74 21.74 0 0 1-2.87.42h-.49c-4 .77-7.63.91-11.62 1.54-1 .21-2.24.49-3.22.63-.56 2-1.19 3.08-1.75 3.08a1 1 0 0 1-.84-1.12 5.65 5.65 0 0 1 .28-1.33v-.14l-.07.07a6.54 6.54 0 0 1-1.75.28.91.91 0 0 1-.84-.91c0-.77.56-1.26 3.22-1.68l.07-.07c0-.07.07-.21.07-.28l3.22-13.44h-.42a.57.57 0 0 1-.63-.49c0-.49.21-1.12 1.54-1.54l2.59-10.5c.49-2.52 1.4-5.32 1.61-6.72l.07-.07h-.07c-1.47.28-2.45.35-3.08.42s-1-.21-1-.7.14-1.19 5.32-1.89c2.52-.35 9-.7 10-.7a18.73 18.73 0 0 1 5 .49c.42.12 1.54.19 1.61.96zM21.92 4.83c-.28 0-.42-.07-.42-.28 0-.49 4.69-4.55 5.81-4.55.56 0 1.05.28 1.05.7 0 .91-4.27 3.64-5.81 4.06a1.94 1.94 0 0 1-.63.07zm63.06 40.74a.72.72 0 0 1-.77.7 48.75 48.75 0 0 1-8.68-.49c-1.75-.28-3.78-.56-5-1.4-2.17 7.49-3.36 10.08-5.46 16.1-2 5.74-3.64 12.18-7.91 12.18-2 0-3.5-2.38-3.5-5.11 0-10.15 12.25-26.25 17.71-34.16a17.09 17.09 0 0 0 .14-1.89c0-1.05-.35-2.52-.35-3.15s.56-1.54 1.4-1.54c1.4 0 1.47 1.75 1.47 2.94a4.83 4.83 0 0 1-.21 1.61c1.82-.91 3.15-2 5.39-2 2.8 0 6.09 1.61 6.09 5 0 4.2-5.67 9.45-10 9.45 1.61.91 6.93 1 9 1a.83.83 0 0 1 .68.76zm-14.49-8.12c-5.18 8-6.86 10.15-9.59 14.77a102.14 102.14 0 0 0-4.48 10 16.94 16.94 0 0 0-.84 5.11c0 2 .49 3.22 1.68 3.22 1.82 0 2.87-2.66 4.27-6.44 1.82-5 2.87-7.7 4.62-13 1.54-4.77 3.22-9.15 4.34-13.66zm2.73 5.32c3.22 0 9.38-3.57 9.38-8.12 0-2-1.61-2.87-3.29-2.87a10.59 10.59 0 0 0-5.88 2.17c-.77 3.22-1.26 5.81-2.17 8.54a6.94 6.94 0 0 0 1.96.28z"/><path class="a" d="M119.08 39.48a27.23 27.23 0 0 0 4.13.21.78.78 0 0 1 .77.77.78.78 0 0 1-.77.77 27.11 27.11 0 0 1-4.55-.28c-1.4 3.71-5.53 7.07-9.31 7.07-2.94 0-4.48-2.52-4.48-5.18a9.52 9.52 0 0 1 .63-3.36c-6.23 2.73-14.63 6.79-21.28 6.79a.72.72 0 0 1-.7-.77.75.75 0 0 1 .7-.7 22.21 22.21 0 0 0 6-1 81.49 81.49 0 0 0 16.38-6.72 27.6 27.6 0 0 1 2-2.73c1.26-1.54 3.57-3.78 5.67-3.78s2.8 1.75 2.8 3.5a5.18 5.18 0 0 1 2 4.34 6 6 0 0 1 .01 1.07zm-2.52.91c-2.1-.7-3.92-2-3.92-4.55 0-1.47 1.12-2.24 2.73-2.38a1.42 1.42 0 0 0-1.19-.77 2.79 2.79 0 0 0-1.75.63c-2.66 1.89-5.32 6.44-5.32 9.73a2.87 2.87 0 0 0 2.94 3.08c1.95 0 5.32-2.38 6.51-5.74zm.42-1.47c0-.28.07-.63.07-1 0-1.47-.77-2.66-2-2.66-.28 0-.42.28-.42.56a3.15 3.15 0 0 0 2.35 3.14z"/><path class="a" d="M159.4 47.25a5 5 0 0 1 2-3.57c2.66-2.31 7.77-2.94 11.2-3.43-1.61-3.5-6.79-6.16-9.31-9a48.09 48.09 0 0 1-11.83 8.12 5.77 5.77 0 0 1 .56 2c.35 5.46-6.65 9-11.34 9-2 0-4.34-.77-4.34-3.15 0-4.69 8.05-6.86 12-8.4-2.31-2.66-6.58-5.39-8.19-7.56-4.69 4.55-9.94 10-16.94 10a.78.78 0 0 1-.77-.77.78.78 0 0 1 .77-.77 10.41 10.41 0 0 0 3.29-.49c4.55-1.61 9.17-6 12.6-9.31a5.05 5.05 0 0 1-.56-2.24c0-2.59 2.59-6.3 5.39-6.3a2.11 2.11 0 0 1 2.17 2.24c0 2.31-2.66 4.9-4.41 6.23-.07 0-.07.07-.14.07 2.38 2.66 5.32 4.69 8.05 7l.91.91a41.09 41.09 0 0 0 11.76-7.91 5 5 0 0 1-.56-2.24c0-2.59 2.59-6.3 5.39-6.3a2.11 2.11 0 0 1 2.17 2.24c0 2.31-2.73 5-4.48 6.3-.07 0-.07.07-.14.07 2.45 2.38 5.25 4.48 7.84 6.72a7.69 7.69 0 0 1 2.24 3.15c.7-.07 2.24-.14 2.66-.14a.77.77 0 0 1 .77.77.78.78 0 0 1-.77.77c-.28 0-1.4 0-2.38.07.77 5.53-6.58 9-11.13 9-2.03 0-4.48-.7-4.48-3.08zm-10-7c-3.5 1.33-11.13 3.78-11.13 6.65 0 1.47 1.33 2 2.59 2 3.57 0 9-2.8 9-6.93a3.85 3.85 0 0 0-.48-1.72zm-8.75-12.53v.24l.07.49c.84-.77 3.36-3.15 3.36-4.34a.56.56 0 0 0-.63-.63c-1.42-.03-2.82 3.05-2.82 4.24zm32.34 14.35v-.42c-2.94.28-11.69 1.4-11.69 5.39 0 1.4 1.4 1.82 2.59 1.82 3.56 0 9.09-2.73 9.09-6.79zm-9.22-14.35v.24l.07.49c.84-.77 3.36-3.15 3.36-4.34a.56.56 0 0 0-.63-.63c-1.36-.03-2.8 3.05-2.8 4.24z"/><path class="a" d="M193.2 33.39a7.32 7.32 0 0 1 .42 2.52c.28 2.52.63 5.32 2.38 7.35 1.12 1.33 2 1.33 3.57 1.54.35.07.77.28.77.7a.78.78 0 0 1-.77.77 7.38 7.38 0 0 1-5.6-2.87c-1.4-1.82-2.52-6.16-2.66-8.47a38.17 38.17 0 0 1-9.1 5.53 19.35 19.35 0 0 1-4.9.77.78.78 0 0 1-.77-.77.76.76 0 0 1 .7-.77 11.79 11.79 0 0 0 3.5-.56 22.3 22.3 0 0 0 4.13-2c1.26-.77 6-4.41 7.21-4.41a1.08 1.08 0 0 1 1.12.67zm-3.43-6.09c-.28 0-.42-.07-.42-.28 0-.49 4.69-4.55 5.81-4.55.56 0 1.05.28 1.05.7 0 .91-4.27 3.64-5.81 4.06a1.94 1.94 0 0 1-.63.07z"/><path class="a" d="M230.86 33.81c2.31 0 4.34 5.88 9.8 5.88a.78.78 0 0 1 .77.77.78.78 0 0 1-.77.77c-2.59 0-3.92-.7-6-2.24-.49-.42-3.22-2.66-3.64-2.66a1.3 1.3 0 0 0-.49.14 4.62 4.62 0 0 0-1.4 1.68c-1.4 2.24-3.08 4.34-4.69 6.44-.84 1-2.17 2.59-3.64 2.59s-2.45-1.54-3.08-2.73c-1.19-2.24-2.24-4.55-3.5-6.79-.14-.21-.21-.42-.56-.42s-.84.42-1.12.7c-2.1 2.31-3.92 4.62-6.58 6.3a10.49 10.49 0 0 1-6.58 2 .78.78 0 0 1-.77-.77.72.72 0 0 1 .77-.7 8.44 8.44 0 0 0 5.46-1.68c3.29-2.1 7.07-9 8.54-9.8a1.42 1.42 0 0 1 .77-.21 1.65 1.65 0 0 1 1.12.49c.49.42 3.57 8.26 4.06 9.38.28.7.84 1.75 1.75 1.75 2.57.03 6.91-10.89 9.78-10.89z"/><path class="a" d="M258.65 33.74c0 3.29-7.42 5.53-9.8 6.37l-.14.07v.42c0 2.73 2 3.92 4.48 4.2.35.07.77.28.77.7a.78.78 0 0 1-.77.77 6.57 6.57 0 0 1-6.58-4.83c-.07-.21 0-.7-.14-.84a34.4 34.4 0 0 1-6 .63.78.78 0 0 1-.77-.77.78.78 0 0 1 .77-.77 25.4 25.4 0 0 0 6.09-.7c.77-3.78 3.85-8.4 8.19-8.4 1.87 0 3.9 1.05 3.9 3.15zm-2.87-.07c0-.7-.77-.91-1.4-.91-2.8 0-4.9 3.29-5.46 5.74 1.68-.35 6.85-2.87 6.85-4.83z"/><path class="a" d="M295.26 45.08c0 1-1.82 1.19-2.59 1.19-6.79 0-10.78-4.62-12.32-10.85-6.86 5.18-18.62 10.85-27.23 10.85a.78.78 0 0 1-.77-.77.76.76 0 0 1 .77-.7 22.1 22.1 0 0 0 6-1c7-2 15.12-5.53 20.79-10.15-.07-1.05-.28-2.1-.28-3.22 0-5.53 2.73-12.53 6.16-16.87 1.19-1.47 3.43-3.64 5.46-3.64 2.24 0 3.15 2.66 3.15 4.48a4 4 0 0 1-.07.91c-.35 2.73-2.24 6.51-3.64 8.89-1.82 3.22-4.62 6-7.28 8.47a10.79 10.79 0 0 1-1.33 1.19c1 4.9 4.34 10.78 10 10.78.52.02 3.18-.33 3.18.44zm-9.59-27.79c-2.24 4.06-3.92 8.47-3.92 13.16a12.43 12.43 0 0 0 .07 1.61 35 35 0 0 0 6.86-7.84c1.47-2.31 3.78-6.65 3.78-9.38 0-1.19-.56-2.17-1.89-2.17-1.89 0-4.06 3.08-4.9 4.62zm16.17 33.81a.52.52 0 0 1-.42-.49c.07-.84.91-1.89 1.19-2.87.42-1.54-.14-4.27 1.68-4.27.91 0 1.26.49 1.26 1.33a9.2 9.2 0 0 1-2.66 5.67 1.92 1.92 0 0 1-1.05.63zM25.56 79.08c0 1.75-4.9 1.82-6.09 1.89v.07a2.91 2.91 0 0 1-.28.7c-1.05 2.45-2.31 6.3-2.31 9a5.71 5.71 0 0 0 1.68 4.55 6.26 6.26 0 0 0 3.64 1.33c.35.07.77.28.77.7a.78.78 0 0 1-.77.77c-4.27 0-6.93-2.59-6.93-6.93a25.44 25.44 0 0 1 .63-4.55 24.52 24.52 0 0 1-2.59 3.43c-2.31 2.45-8 7.91-11.48 7.91-.56 0-1.82-.21-1.82-.91s1.75-.7 2.17-.84a15.59 15.59 0 0 0 5.32-3.08 31.06 31.06 0 0 0 9-12c-1.05.07-2.17.14-3.22.14-.7 0-2.24-.21-2.24-1.12 0-1.4 5.25-1.26 6.37-1.26.42-.91 1.54-4.55 2.73-4.55.84 0 1.05 1.4 1.05 2a8.09 8.09 0 0 1-.77 2.52 25.32 25.32 0 0 1 4 0c.3-.05 1.14-.26 1.14.23z"/><path class="a" d="M46.14 91.26a8.38 8.38 0 0 0 .91 2.17c1.05 1.82 2.52 3.15 4.69 3.15a.76.76 0 0 1 .77.7.78.78 0 0 1-.77.77c-6.23 0-7.14-6.16-8.75-6.16s-3.71 7.56-9.87 7.56a3.47 3.47 0 0 1-3.78-3.71v-.42c-2.45 1.82-4 2.73-7.14 2.73a.7.7 0 0 1-.77-.77.75.75 0 0 1 .7-.7c3.15 0 5.81-2.24 8.12-4.2 1.68-3 5.32-6.65 9-6.65a5 5 0 0 1 4.34 2.24c2.06-.21 2.13 1.89 2.55 3.29zm-5-1.61c-.56-.91-1.19-1.75-2.31-1.75-2.94 0-7.14 4.69-7.14 7.49a1.91 1.91 0 0 0 2 2c3.21.04 5.8-5.56 7.48-7.74z"/><path class="a" d="M101.72 88.25c1.47 2.31 1.47 6.93 4.13 8.05a5.43 5.43 0 0 0 1.47.28c.35.07.7.28.7.7a.76.76 0 0 1-.7.77c-7.07 0-5.67-8.33-8.05-8.33-.63 0-1.12.63-1.47 1.12-1.26 1.68-3.64 5.25-5.11 6.51a3 3 0 0 1-1.89.7 2.31 2.31 0 0 1-2.24-1.68c-.84-2.1-1.33-4.27-2.17-6.3-.21-.49-.49-1.26-1.12-1.26-2 0-6 9.45-9.24 9.45a2.3 2.3 0 0 1-2.1-2.52c0-2.38 1.26-5 1.26-7.35a1.4 1.4 0 0 0-1.4-1.54c-4.27 0-12.46 11.2-20.3 11.2-.7 0-2.66.42-2.66-.77a.76.76 0 0 1 .77-.7 18 18 0 0 0 10.92-4.2c2.45-1.82 6.86-6.09 9.38-7.14a5.73 5.73 0 0 1 2.1-.49c2.17 0 3.29 1.68 3.29 3.64 0 2.17-1.4 4.76-1.4 6.86 0 .35 0 .84.42.84 1.61 0 6.16-9.8 9.52-9.8 3.71 0 3.15 9 5.32 9 1.12 0 4.62-5.53 5.39-6.51a4.06 4.06 0 0 1 3-1.82 2.56 2.56 0 0 1 2.18 1.29z"/><path class="a" d="M144.7 84.54a11 11 0 0 0 2 3.78 8.17 8.17 0 0 0 5.18 3.08c.63.07 1.89-.14 1.89.84a.72.72 0 0 1-.7.77c-4.34 0-8.82-3.5-10.78-7.21-2 5-6 13.58-12.32 13.58-3.43 0-5.11-2.59-5.11-5.74a18.2 18.2 0 0 1 .49-3.92c-4.62 4.62-10.85 8.33-17.5 8.33-.56 0-1.54.14-1.54-.77a.72.72 0 0 1 .77-.7 27.26 27.26 0 0 0 3.36-.28 22.17 22.17 0 0 0 6-2 36.75 36.75 0 0 0 9.8-7.56c0-.28 1.82-5.53 2.1-6.23 1.75-5 7.07-19.32 13.23-19.32a3.36 3.36 0 0 1 3.22 3.64c0 3.78-3.29 7.84-5.67 10.64-1.33 1.54-2.8 3-4.2 4.48l-6.86 7.14a25.28 25.28 0 0 0-1.05 6.44c0 1.75.77 3.71 2.8 3.71 2.8 0 5-2.31 6.51-4.41 2.24-3.08 2.94-6.09 4.27-9.52.28-.7.7-1.4 1.54-1.4 1.59-.03 2.15 1.37 2.57 2.63zm-6.79-18.48c-2.24 2.87-7.14 13.16-8.4 16.8l-.14.49c2.8-3 10.22-10.92 11.76-14.14a8.75 8.75 0 0 0 1-3.43c0-.84-.28-1.82-1.26-1.82-1.21 0-2.33 1.26-2.96 2.1z"/><path class="a" d="M171.01 85.52c0 3.29-7.42 5.53-9.8 6.37l-.14.07v.42c0 2.73 2 3.92 4.48 4.2.35.07.77.28.77.7a.78.78 0 0 1-.77.77 6.57 6.57 0 0 1-6.58-4.83c-.07-.21 0-.7-.14-.84a34.31 34.31 0 0 1-6 .63.78.78 0 0 1-.77-.77.78.78 0 0 1 .77-.77 25.4 25.4 0 0 0 6.09-.7c.77-3.78 3.85-8.4 8.19-8.4 1.87 0 3.9 1.05 3.9 3.15zm-2.87-.07c0-.7-.77-.91-1.4-.91-2.8 0-4.9 3.29-5.46 5.74 1.68-.32 6.86-2.87 6.86-4.83zm-5.25-8.26c-.28 0-.42-.07-.42-.28 0-.49 4.69-4.55 5.81-4.55.56 0 1.05.28 1.05.7 0 .91-4.27 3.64-5.81 4.06a1.93 1.93 0 0 1-.63.07z"/><path class="a" d="M230.94 96.24c0 1.26-2.66 1.82-3.64 1.82-6.44 0-5-8.33-7.35-8.33-.63 0-1.12.63-1.47 1.12-1.4 1.89-3.5 5-5.18 6.51a2.8 2.8 0 0 1-1.82.7 2.48 2.48 0 0 1-2.31-1.68c-.84-2-1.19-4.27-2.1-6.3-.21-.49-.56-1.26-1.19-1.26-1.89 0-6 9.45-9.17 9.45a2.2 2.2 0 0 1-2.1-2.45c0-2.38 1.19-4.69 1.19-7.07 0-1-.35-1.68-1.4-1.68a3.18 3.18 0 0 0-1.61.56c-7.56 4.76-18.34 10.43-27.3 10.43a.78.78 0 0 1-.77-.77c0-.63.63-.7 1-.7 4.62-.07 9.94-2.24 14.14-4a48.72 48.72 0 0 0 7.07-3.71c1.68-1 5.74-4.34 7.63-4.48h.49c2 0 2.87 1.54 2.87 3.36a18.22 18.22 0 0 1-.84 4.41 21.76 21.76 0 0 0-.56 3.08c0 .07-.07.21-.07.28a.54.54 0 0 0 .49.56c1.47 0 6.16-9.8 9.52-9.8s3.15 9 5.32 9c1.05 0 4.69-5.53 5.39-6.51a3.93 3.93 0 0 1 2.94-1.82 2.67 2.67 0 0 1 2.24 1.26c1.89 3 .49 8.19 5.46 8.19.91 0 1.75-.56 2.66-.56.3.04.47.11.47.39zm6.57 6.65a.52.52 0 0 1-.42-.49c.07-.84.91-1.89 1.19-2.87.42-1.54-.14-4.27 1.68-4.27.91 0 1.26.49 1.26 1.33a9.2 9.2 0 0 1-2.66 5.67 1.92 1.92 0 0 1-1.05.63z"/></svg>