<svg xmlns="http://www.w3.org/2000/svg" viewBox="0 0 166.37 60.15"><defs><style>.a{fill:#fff}</style></defs><title>p1_s13</title><path class="a" d="M151.24 58.95a70.32 70.32 0 0 1 2.79-10.39l3.23-10.26c2.19-6.82 4.39-13.65 6.71-20.43l1.44 1.24c-3.21 1.54-6.4 3.15-9.65 4.62l-4.92 2.11c-1.64.7-3.27 1.43-4.95 2-3.34 1.26-6.65 2.62-10.06 3.69l-5.09 1.69-5.16 1.47c-3.42 1-6.93 1.78-10.4 2.65-1.74.41-3.51.71-5.26 1.08s-3.51.72-5.28 1a174.7 174.7 0 0 1-21.35 2.26 175.16 175.16 0 0 1-42.83-3.29 138.87 138.87 0 0 1-20.7-5.95A94.94 94.94 0 0 1 .46 22.8a1 1 0 0 1-.28-1.44 1 1 0 0 1 1.33-.35h.06c3.06 1.57 6.29 3 9.54 4.33s6.55 2.51 9.87 3.63a186.66 186.66 0 0 0 20.29 5.48 171.28 171.28 0 0 0 41.86 3.43 194.44 194.44 0 0 0 41.63-6.3l5.1-1.37 5-1.57c3.39-1 6.69-2.23 10-3.38 1.67-.56 3.3-1.23 4.94-1.89l4.92-2c3.25-1.38 6.47-2.84 9.71-4.26a1 1 0 0 1 1.39.46 1 1 0 0 1 .07.74c-1.93 6.91-4 13.78-6 20.65l-3.14 10.28a70.32 70.32 0 0 1-3.57 10.15 1 1 0 0 1-1.4.48 1.05 1.05 0 0 1-.54-.92z"/><path class="a" d="M129.05.05a57 57 0 0 1 9.35 3.73l9.1 4.25 9.06 4.34q4.52 2.19 9 4.47a1.47 1.47 0 0 1 .64 2 1.47 1.47 0 0 1-1.87.69q-4.65-1.92-9.25-3.93l-9.2-4.05-9.15-4.14a57 57 0 0 1-8.9-4.73 1.49 1.49 0 0 1-.4-2.07 1.49 1.49 0 0 1 1.62-.56z"/></svg>