<svg xmlns="http://www.w3.org/2000/svg" viewBox="0 0 314.46 132.69"><defs><style>.a{fill:#3a1a0d}</style></defs><title>p1_s7</title><path class="a" d="M19.93 15.45a.59.59 0 0 1 .62.57c0 .62-.57.91-1.72 1.1.43 7.31 1.1 11 1.1 11.43s-.33.53-.72.53c-1.15 0-1.2-2.73-1.34-4.16l-.72-7.46c-2.44.48-9.85 1.58-9.85 1.77-2 4.4-2.82 6.07-3.73 8.41-.29.67-.57 1.58-1.58 1.58-.38 0-.57-.24-.57-.62s2.53-6 4.06-9.23c-.43 0-.77.1-1.05.1-1 0-1.39-.38-1.39-.76 0-.91 1.43-.67 3.2-1.05 3.06-6.79 6-14 7.31-15.58a2.36 2.36 0 0 1 1.86-1.05c2.15 0 2.06 4 2.25 5.74.29 2.92.57 4.83 1 8.84l.72-.1a2.14 2.14 0 0 1 .55-.06zm-2.92.43c-.38-5.21-.81-8.46-1.2-11.57-.09-.76-.33-1.2-.72-1.2-.86 0-3.78 6.93-7 14.25 3.44-.53 5.31-.81 7.94-1.29zm23.76 14.38a.44.44 0 0 1-.19.38c-3.16 2.58-8 6.93-10.28 10.28-.29 1.67-1 6.26-1.58 7.65a2.53 2.53 0 0 1-1.82 1.39c-1 0-1.48-1-1.48-1.86 0-2.29 2.29-5.5 3.58-7.36a132.23 132.23 0 0 1 4.53-14.86 12.56 12.56 0 0 1-6.07 2 3 3 0 0 1-3.06-2.87 2.84 2.84 0 0 1 .29-1.29c1.2-2.87 4.88-6.12 8.13-6.12a3.4 3.4 0 0 1 3.11 2.25c.24-.67.81-1.77 1.63-1.77s1.19 1.1 1.19 1.87c0 1.39-1.05 2.39-2 3.3 0 .29.1.62.1.91s0 .81-.48.81-.62-.43-.76-.72l-.1.1a94.69 94.69 0 0 0-4.59 13.91 41.75 41.75 0 0 1 9-8.41.54.54 0 0 1 .38-.14.47.47 0 0 1 .47.55zm-6.6-6.21l.86-2.2c-.29-1.34-.81-2.82-2.44-2.82-2.25 0-6.5 3.54-6.5 5.88a1.65 1.65 0 0 0 1.63 1.77c1.68 0 5.12-1.58 6.46-2.63zm-6 20.51c-.38.81-1.48 2.29-1.48 3.06 0 .24.1.38.33.38.8 0 1.09-2.82 1.18-3.44zm8.27-23a1.7 1.7 0 0 0 .1.48c.33-.33.91-.81.91-1.34 0-.19-.1-.48-.33-.48s-.65 1.11-.65 1.34z"/><path class="a" d="M67.45 22.95a4.67 4.67 0 0 0 3.83 3.82c.38.1 1.34 0 1.34.57a.53.53 0 0 1-.53.53 6.51 6.51 0 0 1-6.55-5.55c-1.2 2.82-3.78 6.74-7.27 6.74-2.39 0-3.73-1.87-3.73-4.11a10 10 0 0 1 .81-3.59 45.84 45.84 0 0 0-7.55 4.16c-4.16 2.68-7.12 5.21-7.55 5.21a.48.48 0 0 1-.48-.48.71.71 0 0 1 .19-.43 93.53 93.53 0 0 1 13.67-9.23c.72-.38 2.2-1.39 3-1.39.57 0 1 .19 1 .72 0 1.19-1.62 2.92-1.62 5.21a2.32 2.32 0 0 0 2.49 2.53 2.81 2.81 0 0 0 1.63-.48c2.34-1.53 3.3-3.92 4.45-6.36.33-.67.91-1.58 1.77-1.58 1.39.03.96 2.76 1.1 3.71z"/><path class="a" d="M91.4 26.78c0 .86-1.67 1.1-2.34 1.1-3.58 0-5.21-3.44-5.4-6.55a17.22 17.22 0 0 1-6.36 5.35 11.55 11.55 0 0 1-5.35 1.2.49.49 0 0 1-.48-.53.51.51 0 0 1 .48-.48 9.8 9.8 0 0 0 4.78-1.15 15.19 15.19 0 0 0 5.07-4.64c.48-.67 1.24-2.39 2.15-2.39a.77.77 0 0 1 .62.29c.43.48.33 1.15.38 1.72.19 2.63.91 6.21 4.21 6.21.81 0 1.39-.43 2.06-.43.13.01.18.15.18.3zm-7.74-15.25c0-.43.43-.62.86-.62.76 0 1.2 1 1.2 1.63 0 .33-.19.76-.57.76-.68-.01-1.5-1.15-1.5-1.77zm42.73 9.65a.48.48 0 0 1-.48.48 2.91 2.91 0 0 1-.53-.14 12.39 12.39 0 0 0-3.92-1 4.11 4.11 0 0 0-.76 0c-2.63.48-5.16 8.37-7.89 8.37-1 0-1.63-1.1-2.06-1.86-.62-1.15-3.2-5.69-3.2-6.79a.72.72 0 0 1 .72-.76c1.15 0 1.67 2.15 2 3s.81 1.91 1.24 2.82c.19.48.76 1.91 1.39 1.91 1.24 0 4.35-6.36 6.26-7.65a3.23 3.23 0 0 1 1.72-.48 11.94 11.94 0 0 1 4.06 1.1 9.73 9.73 0 0 0 1.05.43h.1a.73.73 0 0 1 .3.57z"/><path class="a" d="M139.82 23.24a18.57 18.57 0 0 0 2.82.14.53.53 0 1 1 0 1.05 18.49 18.49 0 0 1-3.11-.19c-1 2.53-3.78 4.83-6.36 4.83-2 0-3.06-1.72-3.06-3.54a7.46 7.46 0 0 1 .76-3.16 10.8 10.8 0 0 1-1.24 0 14.34 14.34 0 0 1-2.82-.38l-1.2-.33h-.08c-.14-.14-.29-.19-.29-.48a.52.52 0 0 1 .53-.48.61.61 0 0 1 .29 0 14.08 14.08 0 0 0 3.73.57 11.62 11.62 0 0 0 1.82-.14 16.42 16.42 0 0 1 1.1-1.43c.86-1.05 2.44-2.58 3.87-2.58s1.91 1.2 1.91 2.39a3.54 3.54 0 0 1 1.39 3 4.1 4.1 0 0 1-.06.73zm-1.72.62c-1.43-.48-2.68-1.39-2.68-3.11 0-1 .76-1.53 1.86-1.63a1 1 0 0 0-.81-.53 1.91 1.91 0 0 0-1.2.43 9.7 9.7 0 0 0-3.63 6.65 2 2 0 0 0 2 2.1c1.35.01 3.65-1.62 4.46-3.89zm.29-1v-.67c0-1-.53-1.82-1.34-1.82-.19 0-.29.19-.29.38a2.15 2.15 0 0 0 1.63 2.13z"/><path class="a" d="M155.17 17.31c.72 0 2.58.67 2.58 1.53 0 .19-.1.29-.33.29-.57 0-.81-.72-1.77-.72-2.1 0-3.87 3.63-3.87 5.45a2.9 2.9 0 0 0 3 3 .57.57 0 0 1 .53.53.49.49 0 0 1-.53.48c-2 0-4.11-1.2-4.49-3.25a1.7 1.7 0 0 1-.1-.48 6.34 6.34 0 0 1 .29-1.86 15.45 15.45 0 0 1-7.84 2.15.53.53 0 0 1 0-1.05c3.06 0 5.93-1.34 8.51-2.82.77-1.48 2.2-3.25 4.02-3.25z"/><path class="a" d="M179.98 25.15c0 1.43-2.77 2.29-3.87 2.53a9.07 9.07 0 0 1-2 .19c-1.82 0-4-1.1-4.49-3a47.38 47.38 0 0 1-15 3 .49.49 0 0 1-.48-.53.51.51 0 0 1 .48-.48 32.31 32.31 0 0 0 6.07-.67c1.82-.33 3.59-.86 5.35-1.34a26.86 26.86 0 0 0 2.77-.86l.67-.29c0-2.82 2.58-6.55 5.64-6.55 1.29 0 2.63.72 2.63 2.15 0 2-4.88 4.25-6.5 4.92l-.29.1a3.1 3.1 0 0 0 3.16 2.53 7.49 7.49 0 0 0 4.49-1.29 11.09 11.09 0 0 1 1-.76c.32.02.37.08.37.35zm-.53-11.52c0 .19-.1.24-.29.24a10.66 10.66 0 0 1-3-1.48 8.21 8.21 0 0 0-1-.57 4.73 4.73 0 0 0-1.34.67 9.55 9.55 0 0 1-2.68 1.34c-.33 0-.33-.19-.33-.19 0-.48 2.49-2.15 3.73-2.92a1 1 0 0 1 .53-.19h.1a27.1 27.1 0 0 1 4 2.63c.24.18.28.33.28.47zm-8.37 9.42c1.1-.53 4.88-2.15 4.88-3.54 0-.57-.48-.86-1.05-.86-2.1 0-3.44 2.58-3.82 4.4zm41.69 4.35a.49.49 0 0 1-.53.48 33.28 33.28 0 0 1-5.93-.33 9.35 9.35 0 0 1-3.44-1c-1.48 5.12-2.29 6.88-3.73 11-1.39 3.92-2.49 8.32-5.4 8.32-1.39 0-2.39-1.62-2.39-3.49 0-6.93 8.37-17.93 12.09-23.33a11.7 11.7 0 0 0 .1-1.29c0-.72-.24-1.72-.24-2.15s.38-1.05 1-1.05c1 0 1 1.2 1 2a3.3 3.3 0 0 1-.14 1.1c1.24-.62 2.15-1.39 3.68-1.39 1.91 0 4.16 1.1 4.16 3.39 0 2.87-3.87 6.45-6.84 6.45 1.1.62 4.73.72 6.12.72a.57.57 0 0 1 .49.57zm-9.9-5.54c-3.54 5.45-4.68 6.93-6.55 10.09a70 70 0 0 0-3.06 6.84 11.57 11.57 0 0 0-.57 3.49c0 1.39.33 2.2 1.15 2.2 1.24 0 2-1.82 2.92-4.4 1.24-3.39 2-5.26 3.16-8.84 1.04-3.36 2.19-6.28 2.96-9.36zm1.87 3.63c2.2 0 6.41-2.44 6.41-5.54a2 2 0 0 0-2.25-2 7.24 7.24 0 0 0-4 1.48c-.53 2.2-.86 4-1.48 5.83a4.74 4.74 0 0 0 1.32.22z"/><path class="a" d="M236.05 23.24a18.57 18.57 0 0 0 2.82.14.53.53 0 0 1 0 1.05 18.49 18.49 0 0 1-3.11-.19c-1 2.53-3.78 4.83-6.36 4.83-2 0-3.06-1.72-3.06-3.54a6.5 6.5 0 0 1 .43-2.29c-4.25 1.87-10 4.64-14.53 4.64a.49.49 0 0 1-.48-.53.51.51 0 0 1 .48-.48 15.14 15.14 0 0 0 4.11-.72 55.58 55.58 0 0 0 11.18-4.59 18.85 18.85 0 0 1 1.39-1.86c.86-1.05 2.44-2.58 3.87-2.58s1.91 1.2 1.91 2.39a3.54 3.54 0 0 1 1.39 3 4.1 4.1 0 0 1-.04.73zm-1.72.62c-1.43-.48-2.68-1.39-2.68-3.11 0-1 .76-1.53 1.86-1.63a1 1 0 0 0-.81-.53 1.91 1.91 0 0 0-1.2.43 9.7 9.7 0 0 0-3.63 6.65 2 2 0 0 0 2 2.1c1.35.01 3.66-1.62 4.46-3.89zm.29-1v-.67c0-1-.53-1.82-1.34-1.82-.19 0-.29.19-.29.38a2.15 2.15 0 0 0 1.63 2.13z"/><path class="a" d="M255.53 13.05C256.34 9.8 259.16 0 263.18 0a1.56 1.56 0 0 1 1.58 1.77c0 3.16-2.73 7.36-4.25 10.09a84.2 84.2 0 0 1-4.64 8.08c.19 2.92 1.15 5.64 4.25 6.55a8.31 8.31 0 0 0 2.41.39.52.52 0 0 1 .53.48.53.53 0 0 1-.53.53c-4.25 0-6.84-2.39-7.65-6.45-1.86 2.58-4.92 7.08-8.46 7.08a2.91 2.91 0 0 1-3.06-3 4.3 4.3 0 0 1 .62-2 14.44 14.44 0 0 1-5.12.91.53.53 0 0 1 0-1.05 14.79 14.79 0 0 0 5.69-1.34 4.24 4.24 0 0 0 .81-.38 7 7 0 0 1 3.17-1.78 4.34 4.34 0 0 1 1.1-.14 3.45 3.45 0 0 1 3.2 2.29c.62-.81 1.15-1.63 1.72-2.44a26.93 26.93 0 0 1 .98-6.54zm-3.73 10.37a2.23 2.23 0 0 0-2.29-2.1c-2 0-4.59 2-4.59 4.11a1.48 1.48 0 0 0 1.58 1.58c2.22-.04 3.94-2.13 5.28-3.58zm6.55-10c.86-1.53 1.67-3.11 2.49-4.68s2.39-4.06 2.39-5.74c0-.48-.19-1-.76-1-2.2 0-4.59 7.7-5.16 9.51a33.53 33.53 0 0 0-1.43 6.12z"/><path class="a" d="M278.36 27.68a9.07 9.07 0 0 1-2 .19c-1.82 0-4-1.1-4.45-3-3.06 1.53-6 3-9.51 3a.53.53 0 0 1-.53-.53.52.52 0 0 1 .53-.48 14.12 14.12 0 0 0 4.21-.72 39.19 39.19 0 0 0 5.16-2.44 7.59 7.59 0 0 1 4-6.17 3.32 3.32 0 0 1 1.67-.38c1.24 0 2.63.72 2.63 2.1a2.43 2.43 0 0 1-.29 1 3.33 3.33 0 0 1-1.24 1.05c-.62.38-1.24.67-1.86 1-1.1.62-2.2 1.29-3.35 1.86a3 3 0 0 0 3.11 2.68 7.18 7.18 0 0 0 4.49-1.29 11.41 11.41 0 0 1 1.05-.76c.19 0 .24.1.24.29.01 1.55-2.69 2.36-3.86 2.6zm-4.92-4.8a31.18 31.18 0 0 0 4.59-2.87.88.88 0 0 0 .24-.57c0-.57-.62-.76-1.1-.76-1.97-.03-3.45 2.45-3.73 4.2zM15.34 69.24c-4.25 0-4.92-4.21-6-4.21s-2.58 5.16-6.69 5.16a2.45 2.45 0 0 1-2.68-2.63c0-2.87 3.92-6.74 6.84-6.74a3.15 3.15 0 0 1 2.92 1.53c1.39-.14 1.48 1.29 1.77 2.25a7.92 7.92 0 0 0 .57 1.48 3.74 3.74 0 0 0 3.25 2.15.52.52 0 0 1 .53.48.53.53 0 0 1-.51.53zm-12.33-.43c1.34 0 2.82-1.86 3.54-2.87.53-.76 1-1.67 1.53-2.44-.38-.62-.76-1.19-1.58-1.19-2 0-4.83 3.2-4.83 5.12a1.27 1.27 0 0 0 1.34 1.38z"/><path class="a" d="M15.24 68.24a13.86 13.86 0 0 0 4.21-.72 27.7 27.7 0 0 0 6.93-4.21 4 4 0 0 0 .81-.72c.14-.19.24-.53.38-.76a7.88 7.88 0 0 1 1.86-2.29 3.7 3.7 0 0 1 2.15-.86c.76 0 2.53.67 2.53 1.53a.25.25 0 0 1-.29.29c-.57 0-.81-.72-1.77-.72-2.15 0-3.87 3.63-3.87 5.5s1.2 2.77 3 3c.29 0 .53.19.53.53a.49.49 0 0 1-.53.48c-2 0-4.11-1.2-4.49-3.25 0-.14-.1-.33-.1-.48a6.41 6.41 0 0 1 0-1c-3.35 2.63-7 4.69-11.38 4.69a.49.49 0 0 1-.53-.48.53.53 0 0 1 .56-.53z"/><path class="a" d="M54.97 64.6a18.57 18.57 0 0 0 2.82.14.53.53 0 0 1 0 1.05 18.49 18.49 0 0 1-3.11-.19c-1 2.53-3.78 4.83-6.36 4.83-2 0-3.06-1.72-3.06-3.54a6.5 6.5 0 0 1 .43-2.29c-4.25 1.87-10 4.64-14.53 4.64a.49.49 0 0 1-.48-.53.51.51 0 0 1 .48-.48 15.14 15.14 0 0 0 4.11-.72 55.58 55.58 0 0 0 11.19-4.59 18.85 18.85 0 0 1 1.39-1.86c.86-1.05 2.44-2.58 3.87-2.58s1.91 1.2 1.91 2.39a3.54 3.54 0 0 1 1.39 3 4.1 4.1 0 0 1-.05.73zm-1.72.62c-1.43-.48-2.68-1.39-2.68-3.11 0-1 .76-1.53 1.86-1.63a1 1 0 0 0-.81-.53 1.91 1.91 0 0 0-1.2.43 9.7 9.7 0 0 0-3.63 6.65 2 2 0 0 0 2 2.1c1.35.02 3.65-1.61 4.46-3.9zm.29-1v-.67c0-1-.53-1.82-1.34-1.82-.19 0-.29.19-.29.38a2.15 2.15 0 0 0 1.62 2.11z"/><path class="a" d="M87.24 62.55c1.29 2.06.62 5.35 3.78 5.69.24 0 .53.19.53.48a.53.53 0 0 1-.53.53c-4.83 0-3.82-5.69-5.45-5.69-.43 0-.76.43-1 .77a36.73 36.73 0 0 1-3.49 4.45 2 2 0 0 1-1.29.48 1.58 1.58 0 0 1-1.53-1.15c-.53-1.39-.86-2.92-1.48-4.3-.14-.33-.38-.86-.81-.86-1.29 0-4.06 6.45-6.26 6.45-1 0-1.39-.91-1.39-1.77 0-1.53.81-3.25.81-4.54 0-.76 0-1.53-1.05-1.53a10.46 10.46 0 0 0-2.87 1.53 22.11 22.11 0 0 1-4.06 2.15 9.86 9.86 0 0 1-3.35.57.54.54 0 0 1-.57-.53.53.53 0 0 1 .53-.53 9.58 9.58 0 0 0 3.78-1c2-.91 4.73-3.63 6.79-3.63a2.2 2.2 0 0 1 2.2 2.44c0 1.67-1 3.44-1 4.92a.37.37 0 0 0 .33.38c1 0 4.21-6.69 6.5-6.69 2.49 0 2.1 6.17 3.63 6.17.76 0 3.16-3.78 3.68-4.45a2.68 2.68 0 0 1 2-1.24 1.83 1.83 0 0 1 1.57.9z"/><path class="a" d="M114.06 68.71a.52.52 0 0 1-.48.53 28.12 28.12 0 0 1-4.3-.29 8.62 8.62 0 0 1-3.35-1c-1.48 5.12-2.34 6.93-3.78 11s-2.44 8.32-5.4 8.32c-1.39 0-2.39-1.67-2.39-3.58 0-6.79 8.46-17.93 12.14-23.23 0-.29.1-.57.1-.91s-.24-1.29-.77-1.29a2.45 2.45 0 0 0-1.48 1.05c-4.21 5.59-8.56 9.9-13.39 9.9a.5.5 0 0 1-.53-.53.53.53 0 0 1 .53-.53h.38c2.25 0 5.45-1.91 7.5-4 2.58-2.53 5.79-7.94 7.75-7.94 1.53 0 1.48 2 1.48 2.87a7.41 7.41 0 0 1 3.73-1.43c1.91 0 4.16 1.1 4.16 3.44 0 2.82-3.68 6.17-7.22 6.41a13.88 13.88 0 0 0 4.83.67.51.51 0 0 1 .49.54zm-11.14 3.92c1.05-3.3 2.25-6.26 3-9.37-3.54 5.4-4.73 6.88-6.6 10.09a44.63 44.63 0 0 0-3 6.84 11.69 11.69 0 0 0-.62 3.49c0 1.43.33 2.2 1.1 2.2 1.24 0 2-1.82 2.92-4.4 1.28-3.39 2-5.26 3.2-8.85zm4.83-5.74c2.2 0 6.45-2.39 6.45-5.54a2 2 0 0 0-2.29-2 7.4 7.4 0 0 0-4.06 1.48 38.41 38.41 0 0 1-1.48 5.83 5.06 5.06 0 0 0 1.38.22z"/><path class="a" d="M137.67 64.6a7.93 7.93 0 0 0 .57 1.48 3.69 3.69 0 0 0 3.25 2.15.52.52 0 0 1 .53.48.53.53 0 0 1-.53.53c-4.25 0-4.92-4.21-6-4.21s-2.53 5.16-6.69 5.16a2.36 2.36 0 0 1-2.63-2.53 5.41 5.41 0 0 1 .76-2.58c-3.68 1.72-9.47 4.16-13.43 4.16a.53.53 0 0 1-.53-.53c0-.38.38-.48.67-.48 2.63-.1 7.17-1.67 9.66-2.73a37.64 37.64 0 0 0 5.26-2.44 6.23 6.23 0 0 1 4.35-2.2 3.37 3.37 0 0 1 3 1.53c1.38-.18 1.52 1.31 1.76 2.21zm-3.44-1.1c-.33-.62-.77-1.19-1.53-1.19-2 0-4.88 3.2-4.88 5.12a1.27 1.27 0 0 0 1.34 1.39c2.15-.01 4.02-3.79 5.07-5.32z"/><path class="a" d="M166.83 63.79c.57 2 1 4.45 3.59 4.45a.52.52 0 0 1 .53.48.53.53 0 0 1-.53.53c-5.21 0-4.49-6.31-6-6.31-1.34 0-4.11 6.45-6.31 6.45-1 0-1.39-.91-1.39-1.77 0-1.58.81-3.3.81-4.73 0-.62-.1-1.34-.86-1.34-2.92 0-8.6 7.7-14 7.7-.48 0-1.82.24-1.82-.53a.52.52 0 0 1 .53-.48 12.26 12.26 0 0 0 7.46-2.87c1.67-1.24 4.68-4.16 6.41-4.88a3.94 3.94 0 0 1 1.43-.33 2.25 2.25 0 0 1 2.25 2.49c0 1.53-1 3.25-1 4.69 0 .24 0 .57.33.57 1.05 0 4.21-6.74 6.5-6.74 1.26-.01 1.77 1.71 2.07 2.62z"/><path class="a" d="M191.98 63.88a20.75 20.75 0 0 0 2.68 3.44 2.66 2.66 0 0 0 1.72.91c.24 0 .53.19.53.48a.53.53 0 0 1-.53.53c-2.39 0-3.63-2.29-4.92-4-.67-.86-1.1-2-2.39-2-2.29 0-4.54 6.36-7.65 6.36-2.06 0-2.77-2.87-3-4.45-1.91 1.72-5.45 4.06-8.08 4.06a.53.53 0 0 1 0-1.05 5 5 0 0 0 1.86-.43 22.9 22.9 0 0 0 6.12-4.11v-.38a29.91 29.91 0 0 1 3.2-12.86c.67-1.24 2.25-3.44 3.87-3.44 1.43 0 1.63 2 1.63 3 0 3.92-1.86 7.65-4.16 10.71a24.52 24.52 0 0 1-2.58 2.87 4.51 4.51 0 0 0-.48.48c0 1 .33 4 1.67 4 2.1 0 4.54-6.21 7.75-6.21 1.23.09 2.14 1.19 2.76 2.09zm-9.45-12.37a24.84 24.84 0 0 0-2.82 10.76c2.39-2.68 6-8 6-11.76 0-.48-.1-1.58-.81-1.58-.91-.05-1.96 1.86-2.37 2.58z"/><path class="a" d="M212.63 64.6a5.77 5.77 0 0 0 .62 1.48 3.68 3.68 0 0 0 3.2 2.15.52.52 0 0 1 .53.48.53.53 0 0 1-.53.53c-4.25 0-4.88-4.21-6-4.21s-2.53 5.16-6.74 5.16a2.37 2.37 0 0 1-2.58-2.53v-.29a7.07 7.07 0 0 1-4.88 1.86.48.48 0 0 1-.53-.53.51.51 0 0 1 .48-.48c2.15 0 4-1.53 5.55-2.87 1.15-2.06 3.63-4.54 6.17-4.54a3.43 3.43 0 0 1 3 1.53c1.37-.13 1.42 1.31 1.71 2.26zm-3.39-1.1c-.38-.62-.81-1.19-1.58-1.19-2 0-4.88 3.2-4.88 5.12a1.3 1.3 0 0 0 1.39 1.39c2.15-.01 3.92-3.83 5.06-5.32z"/><path class="a" d="M245.04 61.69c0 .19-.19.24-.33.24a8.35 8.35 0 0 1-1.58-.24 11.26 11.26 0 0 0-1.82-.1c-5.12 0-8.51 2.92-11.38 6.88-.33.48-1.1 1.48-1.77 1.48-1.67 0-1.19-5.5-1.39-6.6 0-.24-.14-.53-.43-.53-1 0-5.45 6.41-9.75 6.41-.33 0-.76 0-.76-.53 0-.29.29-.43.53-.48a6.53 6.53 0 0 0 1.91-.43c2.44-1.1 4.88-3.78 6.79-5.69a2.69 2.69 0 0 1 1.72-1c1.43 0 1.39 2.25 1.39 3.2v3.11c0 .24 0 .67.33.67s1.24-1.34 1.39-1.48a23.58 23.58 0 0 1 2.64-2.72 14.67 14.67 0 0 1 9.27-3.39c.8 0 3.24.05 3.24 1.2zm28.49-1.01c0 2.44-4.69 3.3-6.45 3.92a.69.69 0 0 1-.33.1v.53c0 1.86 1.34 2.87 3.11 3 .29 0 .53.14.53.48a.53.53 0 0 1-.53.53c-2.29 0-4.73-1.67-4.59-4.16a17.67 17.67 0 0 1-3.16.33c-.43 0-1.43-.29-1.43-.86 0-.33.53-.33.76-.33a19.26 19.26 0 0 0 4.06-.48v-.19a7.33 7.33 0 0 1 3.68-4.64 3.32 3.32 0 0 1 1.67-.38c1.3 0 2.68.72 2.68 2.15zm-2 0c0-.48-.53-.62-1-.62-1.72 0-3.06 1.86-3.59 3.35 1.14-.24 4.59-1.53 4.59-2.77z"/><path class="a" d="M314.45 68c0 .86-1.82 1.24-2.49 1.24-4.4 0-3.39-5.69-5-5.69-.43 0-.77.43-1 .77a32.94 32.94 0 0 1-3.54 4.45 1.91 1.91 0 0 1-1.24.48 1.7 1.7 0 0 1-1.58-1.15c-.57-1.39-.81-2.92-1.43-4.3-.14-.33-.38-.86-.81-.86-1.29 0-4.11 6.45-6.26 6.45a1.5 1.5 0 0 1-1.43-1.67c0-1.62.81-3.2.81-4.83 0-.67-.24-1.15-1-1.15a2.17 2.17 0 0 0-1.1.38c-5.16 3.25-12.53 7.12-18.64 7.12a.53.53 0 0 1-.53-.53c0-.43.43-.48.72-.48 3.16 0 6.79-1.53 9.66-2.73a33.24 33.24 0 0 0 4.83-2.53c1.15-.72 3.92-3 5.21-3.06h.33c1.34 0 2 1.05 2 2.29a12.43 12.43 0 0 1-.57 3 14.83 14.83 0 0 0-.38 2.1v.19a.37.37 0 0 0 .33.38c1 0 4.21-6.69 6.5-6.69s2.15 6.17 3.63 6.17c.72 0 3.2-3.78 3.68-4.45a2.69 2.69 0 0 1 2-1.24 1.83 1.83 0 0 1 1.53.86c1.29 2.06.33 5.59 3.73 5.59.62 0 1.2-.38 1.82-.38.08.03.22.08.22.27zM16.87 113a.44.44 0 0 1-.19.38c-3.16 2.58-8 6.93-10.28 10.28-.29 1.67-1 6.26-1.58 7.65A2.53 2.53 0 0 1 3 132.7c-1 0-1.48-1-1.48-1.86 0-2.29 2.29-5.5 3.58-7.36a132.23 132.23 0 0 1 4.49-14.82 12.56 12.56 0 0 1-6.07 2 3 3 0 0 1-3.06-2.87 2.84 2.84 0 0 1 .29-1.29c1.2-2.87 4.88-6.12 8.13-6.12a3.4 3.4 0 0 1 3.11 2.25c.24-.67.81-1.77 1.63-1.77s1.19 1.1 1.19 1.87c0 1.39-1.05 2.39-2 3.3 0 .29.1.62.1.91s0 .81-.48.81-.62-.43-.76-.72l-.1.1a94.69 94.69 0 0 0-4.59 13.91 41.75 41.75 0 0 1 9-8.41.54.54 0 0 1 .38-.14.47.47 0 0 1 .51.51zm-6.6-6.21l.86-2.2c-.29-1.34-.81-2.82-2.44-2.82-2.25 0-6.5 3.54-6.5 5.88a1.65 1.65 0 0 0 1.63 1.77c1.71-.01 5.12-1.54 6.45-2.64zm-6 20.51c-.38.81-1.48 2.29-1.48 3.06 0 .24.1.38.33.38.8-.01 1.08-2.86 1.18-3.45zm8.27-23a1.7 1.7 0 0 0 .1.48c.33-.33.91-.81.91-1.34 0-.19-.1-.48-.33-.48s-.69 1.1-.69 1.34z"/><path class="a" d="M43.53 105.68a4.67 4.67 0 0 0 3.83 3.82c.38.1 1.34 0 1.34.57a.53.53 0 0 1-.53.53 6.51 6.51 0 0 1-6.55-5.55c-1.2 2.82-3.78 6.74-7.27 6.74-2.39 0-3.73-1.87-3.73-4.11a10 10 0 0 1 .81-3.59 45.84 45.84 0 0 0-7.55 4.16c-4.16 2.68-7.12 5.21-7.55 5.21a.48.48 0 0 1-.48-.48.71.71 0 0 1 .19-.43 93.53 93.53 0 0 1 13.67-9.23c.72-.38 2.2-1.39 3-1.39.57 0 1 .19 1 .72 0 1.19-1.62 2.92-1.62 5.21a2.32 2.32 0 0 0 2.49 2.53 2.81 2.81 0 0 0 1.63-.48c2.34-1.53 3.3-3.92 4.45-6.36.33-.67.91-1.58 1.77-1.58 1.4.03.97 2.76 1.1 3.71z"/><path class="a" d="M64.44 105.97a5.77 5.77 0 0 0 .62 1.48 3.68 3.68 0 0 0 3.2 2.15.52.52 0 0 1 .53.48.53.53 0 0 1-.53.53c-4.25 0-4.88-4.21-6-4.21s-2.53 5.16-6.74 5.16a2.37 2.37 0 0 1-2.58-2.53v-.29a7.07 7.07 0 0 1-4.88 1.86.48.48 0 0 1-.53-.53.51.51 0 0 1 .48-.48c2.15 0 4-1.53 5.55-2.87 1.15-2.06 3.63-4.54 6.17-4.54a3.43 3.43 0 0 1 3 1.53c1.37-.13 1.42 1.3 1.71 2.26zm-3.39-1.1c-.38-.62-.81-1.19-1.58-1.19-2 0-4.88 3.2-4.88 5.12a1.3 1.3 0 0 0 1.39 1.39c2.15-.01 3.91-3.84 5.06-5.31z"/><path class="a" d="M87.67 109.8c0 .72-1.29.81-1.82.81-3.59 0-6.12-1.91-7.6-5.12-2.92 3.39-5.5 5.12-10.09 5.12a.53.53 0 0 1-.53-.53.52.52 0 0 1 .53-.48 9.6 9.6 0 0 0 4-.67 14.85 14.85 0 0 0 5.59-4.73 13.71 13.71 0 0 1-.77-4.4 20.22 20.22 0 0 1 4.21-11.52c.81-1 2.34-2.49 3.73-2.49s2.15 1.82 2.15 3.06c0 3.49-3.35 9.37-5.35 12.09-.33.43-.67.86-1 1.29a21.79 21.79 0 0 1-1.48 2c1.1 2.63 3.06 5.26 6.21 5.26.4.02 2.22-.22 2.22.31zm-4.3-21.7c-2.92 2-4.83 8.27-4.83 11.66a12.92 12.92 0 0 0 .33 3l.33-.53c.48-.67 1-1.29 1.43-1.91a46.34 46.34 0 0 0 2.92-4.59c.91-1.62 2.2-4.59 2.2-6.41 0-.81-.33-1.67-1.29-1.67a2.22 2.22 0 0 0-1.09.44zm36.47 9.55c0 1.19-3.35 1.24-4.16 1.29a2 2 0 0 1-.19.48 18.35 18.35 0 0 0-1.58 6.12 3.9 3.9 0 0 0 1.15 3.11 4.28 4.28 0 0 0 2.49.91c.24 0 .53.19.53.48a.53.53 0 0 1-.53.53 4.37 4.37 0 0 1-4.73-4.73 17.34 17.34 0 0 1 .43-3.11 16.66 16.66 0 0 1-1.77 2.34c-1.58 1.67-5.45 5.4-7.84 5.4-.38 0-1.24-.14-1.24-.62s1.2-.48 1.48-.57a10.65 10.65 0 0 0 3.63-2.1 21.19 21.19 0 0 0 6.17-8.17c-.72 0-1.48.1-2.2.1-.48 0-1.53-.14-1.53-.76 0-1 3.58-.86 4.35-.86.29-.62 1.05-3.11 1.86-3.11.57 0 .72 1 .72 1.34a5.52 5.52 0 0 1-.53 1.72 17.26 17.26 0 0 1 2.72 0c.2.02.77-.12.77.21z"/><path class="a" d="M135.19 102a2.43 2.43 0 0 1-.29 1 3.65 3.65 0 0 1-1.2 1.05c-.62.38-1.29.67-1.91 1-1.15.62-2.2 1.29-3.35 1.86.19 1.82 1.39 2.44 3.06 2.68.24 0 .53.19.53.48a.53.53 0 0 1-.53.53 4.62 4.62 0 0 1-4.45-3c-3 1.48-6 3-9.47 3a.54.54 0 0 1-.57-.53.52.52 0 0 1 .53-.48 13.86 13.86 0 0 0 4.21-.72 43 43 0 0 0 5.21-2.44c0-2.82 2.58-6.55 5.64-6.55a2.36 2.36 0 0 1 2.59 2.12zm-2.06.72a.79.79 0 0 0 .24-.57c0-.57-.57-.76-1.05-.76-2.06 0-3.39 2.49-3.78 4.21a31.18 31.18 0 0 0 4.59-2.88z"/><path class="a" d="M153.78 88.28c.81-1 2.34-2.49 3.73-2.49s2.1 1.72 2.1 2.92c0 2.29-1.67 5.69-3 7.55a28.43 28.43 0 0 1-4.49 5.07 7.41 7.41 0 0 1-.91.81c.67 3.25 3.06 7.46 6.84 7.46a.51.51 0 0 1 .48.48.49.49 0 0 1-.48.53c-4.35 0-7.12-3.49-8-7.41-4.69 3.54-12.76 7.41-18.6 7.41a.53.53 0 0 1-.53-.53.52.52 0 0 1 .53-.48 15.07 15.07 0 0 0 4.11-.67 41.34 41.34 0 0 0 14.2-6.93c0-.72-.19-1.43-.19-2.2a20.21 20.21 0 0 1 4.21-11.52zm2 7.27c1-1.58 2.58-4.49 2.58-6.36 0-.86-.38-1.53-1.29-1.53-1.29 0-2.77 2.15-3.35 3.16a18.75 18.75 0 0 0-2.68 9 8.45 8.45 0 0 0 0 1.1 23.87 23.87 0 0 0 4.7-5.37z"/><path class="a" d="M181.7 108.88c0 1.19-2.49 1.77-3.44 1.77-4.3 0-4.92-4.21-6-4.21s-2.58 5.16-6.74 5.16a2.4 2.4 0 0 1-2.63-2.58v-.24c-1.53 1.1-2.68 1.86-4.64 1.86-.38 0-.76 0-.76-.53a.52.52 0 0 1 .53-.48c2.15 0 3.92-1.53 5.5-2.87 1.15-2.1 3.68-4.54 6.21-4.54a3.24 3.24 0 0 1 2.92 1.53 1.31 1.31 0 0 1 1.34.81 8.16 8.16 0 0 1 .43 1.43c.53 1.87 1.67 3.63 3.82 3.63a8.2 8.2 0 0 0 3.16-1.1c.21-.02.3.13.3.36zm-10.71-4c-.38-.62-.76-1.19-1.58-1.19-2 0-4.83 3.2-4.83 5.12a1.27 1.27 0 0 0 1.34 1.39c2.16-.02 3.92-3.85 5.07-5.32zm39.2-2.83c0 2.44-4.69 3.3-6.45 3.92a.69.69 0 0 1-.33.1v.53c0 1.86 1.34 2.87 3.11 3 .29 0 .53.14.53.48a.53.53 0 0 1-.53.53c-2.29 0-4.73-1.67-4.59-4.16a17.67 17.67 0 0 1-3.16.33c-.43 0-1.43-.29-1.43-.86 0-.33.53-.33.76-.33a19.26 19.26 0 0 0 4.06-.48v-.19a7.33 7.33 0 0 1 3.68-4.64 3.32 3.32 0 0 1 1.69-.4c1.28 0 2.66.74 2.66 2.17zm-2 0c0-.48-.53-.62-1-.62-1.72 0-3.06 1.86-3.59 3.35 1.14-.24 4.63-1.49 4.63-2.78z"/><path class="a" d="M227.69 100.33a48.76 48.76 0 0 1-8.27 6.45 27.06 27.06 0 0 1-13 3.82.49.49 0 0 1-.48-.53.51.51 0 0 1 .48-.48 16.31 16.31 0 0 0 4.3-.53 48.44 48.44 0 0 0 5.81-2.18 37 37 0 0 0 8.51-5.64l2-1.91a3.25 3.25 0 0 1-.38-1.48c0-1.77 1.77-4.3 3.68-4.3a1.44 1.44 0 0 1 1.48 1.53c0 2-2 3.3-3.16 4.35 1.72 1.67 3.63 3.16 5.5 4.73a5.13 5.13 0 0 1 1.48 2.15 15.5 15.5 0 0 0 5.88-2.39 11.28 11.28 0 0 0 4.21-4.92c-.77 0-1.48.1-2.25.1-.48 0-1.48-.14-1.48-.76 0-1 3.59-.86 4.35-.86.24-.62 1.05-3.11 1.86-3.11.57 0 .67 1 .67 1.34a4.42 4.42 0 0 1-.48 1.72 24.58 24.58 0 0 1 2.68-.1c.19 0 .81 0 .81.29 0 1.19-3.35 1.24-4.16 1.29a18 18 0 0 0-1.77 6.65 3.78 3.78 0 0 0 1.1 3 5.4 5.4 0 0 0 2.68 1c.24 0 .53.19.53.48a.53.53 0 0 1-.53.53 4.69 4.69 0 0 1-5-4.73 21 21 0 0 1 .57-3.87 15.91 15.91 0 0 1-9.51 5.26c.29 3.73-4.54 6.12-7.74 6.12-1.34 0-3-.53-3-2.15 0-3.49 6.45-4.49 9-4.73-1.2-2.44-4.78-4.11-6.36-6.17zm6.65 7.36v-.29c-2 .19-7.94 1-7.94 3.63 0 1 .91 1.34 1.77 1.34 2.43.01 6.16-1.86 6.16-4.68zm-6.21-9.8a1.79 1.79 0 0 0 0 .53c.57-.53 2.29-2.15 2.29-3a.4.4 0 0 0-.43-.43c-.96.03-1.87 2.09-1.87 2.89z"/><path class="a" d="M273.29 108.88c0 1.19-2.49 1.77-3.44 1.77-4.3 0-4.92-4.21-6-4.21s-2.58 5.16-6.74 5.16a2.4 2.4 0 0 1-2.58-2.62v-.24c-1.53 1.1-2.68 1.86-4.64 1.86-.38 0-.76 0-.76-.53a.52.52 0 0 1 .53-.48c2.15 0 3.92-1.53 5.5-2.87 1.15-2.1 3.68-4.54 6.21-4.54a3.24 3.24 0 0 1 2.92 1.53 1.31 1.31 0 0 1 1.34.81 8.16 8.16 0 0 1 .43 1.43c.53 1.87 1.67 3.63 3.82 3.63a8.2 8.2 0 0 0 3.16-1.1c.16.02.25.17.25.4zm-10.71-4c-.38-.62-.76-1.19-1.58-1.19-2 0-4.83 3.2-4.83 5.12a1.27 1.27 0 0 0 1.36 1.37c2.14 0 3.91-3.83 5.06-5.3zm-3.39-6.41c-.19 0-.29 0-.29-.19 0-.33 3.2-3.11 4-3.11.38 0 .72.19.72.48 0 .62-2.92 2.49-4 2.77a1.32 1.32 0 0 1-.43.04zm18.6 15.41a.36.36 0 0 1-.29-.33c0-.57.62-1.29.81-2 .29-1.05-.1-2.92 1.15-2.92.62 0 .86.33.86.91a6.28 6.28 0 0 1-1.79 3.94 1.31 1.31 0 0 1-.74.4z"/></svg>