<svg xmlns="http://www.w3.org/2000/svg" viewBox="0 0 218 32.45"><defs><style>.a{fill:#e88024}</style></defs><title>p1_s1</title><path class="a" d="M23.4 7.65a6.87 6.87 0 0 1-.85 3.1c-.75 1.5-2.7 3.5-7.2 4.65a7 7 0 0 1 1.4-.1 5.58 5.58 0 0 1 3.15.75 4.39 4.39 0 0 1 2.2 3.9c0 3.6-4.2 5.8-7 7.1a22.79 22.79 0 0 1-9 2h-.4c-.3 1.1-1 3.4-2.2 3.4a.58.58 0 0 1-.55-.65 1 1 0 0 1 0-.35c.4-.7.35-1 1-2.5-3.1-.55-4-1.55-4-2.35a.41.41 0 0 1 .4-.45c.85 0 2.35 1.05 4.2 1.25 1.7-4.75 2.45-7.25 3.35-9.7-.45 0-.75-.1-.75-.4 0-.5.65-.95 1.35-1.2 1.85-5.65 2.25-5.9 3.7-10.4-1.6.85-2.8 1.55-3.65 1.55a.53.53 0 0 1-.6-.5c0-.85 1.2-1.65 6.2-3.35a13.7 13.7 0 0 1 4-.9 6.15 6.15 0 0 1 2.4.45c2.65.95 2.85 3.55 2.85 4.7zm-8.1 9c-2.55 0-3.55.6-5.65.9-1.85 6-3 8.85-3.4 10h.55a20.9 20.9 0 0 0 4.7-.7c5.4-1.3 9.15-4.25 9.15-7.1a4.31 4.31 0 0 0-.1-.8c-.6-1.75-2.95-2.3-5.25-2.3zm6.55-9.2a3.69 3.69 0 0 0-3.8-3.55 9.11 9.11 0 0 0-3.85 1c-1 2.65-2.9 8.25-3.85 10.65 4.4-1.25 10.25-2.65 11.35-6.8a6.08 6.08 0 0 0 .15-1.3zM37.4 20.2c0 2.55-4.9 3.45-6.75 4.1a.72.72 0 0 1-.35.1c0 .2-.05.35-.05.55 0 2 1.4 3 3.25 3.15.3 0 .55.15.55.5a.56.56 0 0 1-.55.55c-2.4 0-5-1.75-4.8-4.35a18.47 18.47 0 0 1-3.3.35c-.45 0-1.5-.3-1.5-.9 0-.35.55-.35.8-.35a20.16 20.16 0 0 0 4.25-.5v-.2a7.67 7.67 0 0 1 3.85-4.85 3.46 3.46 0 0 1 1.75-.4c1.4 0 2.85.75 2.85 2.25zm-2 0c0-.5-.55-.65-1-.65-1.8 0-3.2 2-3.75 3.5 1.05-.25 4.7-1.55 4.7-2.9z"/><path class="a" d="M80.2 27.85c0 .9-1.9 1.3-2.6 1.3-4.6 0-3.55-6-5.25-6-.45 0-.8.45-1 .8a34.49 34.49 0 0 1-3.7 4.65 2 2 0 0 1-1.3.5 1.77 1.77 0 0 1-1.65-1.2c-.6-1.45-.85-3.05-1.5-4.5-.15-.35-.4-.9-.85-.9-1.35 0-4.3 6.75-6.55 6.75a1.57 1.57 0 0 1-1.5-1.75c0-1.7.85-3.35.85-5 0-.7-.25-1.2-1-1.2a2.27 2.27 0 0 0-1.15.4c-5.4 3.4-13.1 7.45-19.5 7.45a.56.56 0 0 1-.55-.55c0-.45.45-.5.75-.5 3.3 0 7.1-1.6 10.1-2.85a34.83 34.83 0 0 0 5-2.65c1.2-.75 4.1-3.1 5.45-3.2h.35c1.4 0 2 1.1 2 2.4a13 13 0 0 1-.6 3.15 15.47 15.47 0 0 0-.4 2.2v.2a.39.39 0 0 0 .35.4c1 0 4.4-7 6.8-7s2.25 6.45 3.8 6.45c.75 0 3.35-4 3.85-4.65a2.81 2.81 0 0 1 2.1-1.3 1.91 1.91 0 0 1 1.6.9C75.45 24.3 74.45 28 78 28c.65 0 1.25-.4 1.9-.4.15 0 .3.05.3.25zm16.7-5.3c0 .35-.2.7-1 .7l-10.55.2c-.5 0-.75-.3-.75-.6s.15-.65 1.25-.7 6.15-.1 8.7-.1h1.35c.5-.04 1 .25 1 .5zm24.87 1.9a.56.56 0 0 1 .55.55.55.55 0 0 1-.55.55c-3.85 0-6-3.5-7-3.5-1.3 0-4.85 8.25-7.35 8.25-1.05 0-1.75-1.15-2.2-2-.7-1.2-3.35-6-3.35-7.15a.75.75 0 0 1 .8-.75 1.16 1.16 0 0 1 .4.1c.9.45 1.35 2.15 1.7 3s1.9 5 2.8 5c1.55 0 5-8.3 7.1-8.3 1.68.05 3.18 4.25 7.1 4.25z"/><path class="a" d="M133 19.95a5.23 5.23 0 0 1 .3 1.8c.2 1.8.45 3.8 1.7 5.25a3.17 3.17 0 0 0 2.55 1.1c.25 0 .55.2.55.5a.56.56 0 0 1-.55.55 5.27 5.27 0 0 1-4-2.05 14.1 14.1 0 0 1-1.9-6 27.25 27.25 0 0 1-6.5 4 13.82 13.82 0 0 1-3.5.55.55.55 0 0 1-.55-.55.55.55 0 0 1 .5-.55 8.44 8.44 0 0 0 2.5-.4 16 16 0 0 0 3-1.4c.9-.55 4.3-3.15 5.15-3.15a.77.77 0 0 1 .75.35zm-1-7.85c0-.5.45-.7.9-.7.8 0 1.25 1.05 1.25 1.7 0 .35-.2.8-.6.8-.78 0-1.6-1.15-1.6-1.8z"/><path class="a" d="M164.05 23.45c.6 2.1 1 4.65 3.75 4.65a.55.55 0 0 1 .55.5.56.56 0 0 1-.55.55c-5.45 0-4.7-6.6-6.3-6.6-1.4 0-4.3 6.75-6.6 6.75-1.05 0-1.45-1-1.45-1.85 0-1.65.85-3.45.85-5 0-.65-.1-1.4-.9-1.4-3.05 0-9 8.05-14.6 8.05-.5 0-1.9.25-1.9-.55a.55.55 0 0 1 .55-.5 12.82 12.82 0 0 0 7.8-3c1.75-1.3 4.9-4.35 6.7-5.1a4.11 4.11 0 0 1 1.5-.35 2.35 2.35 0 0 1 2.35 2.6c0 1.6-1 3.4-1 4.9 0 .25 0 .6.35.6 1.1 0 4.4-7.05 6.8-7.05 1.25.05 1.82 1.8 2.1 2.8z"/><path class="a" d="M186 13.65c.85-3.4 3.75-13.65 8-13.65a1.63 1.63 0 0 1 1.65 1.85c0 3.3-2.9 7.65-4.45 10.55a78.71 78.71 0 0 1-4.85 8.45c0 .6.1 1.3.2 1.9a6.2 6.2 0 0 0 4.2 5 9 9 0 0 0 2.55.4.55.55 0 0 1 .55.5.56.56 0 0 1-.55.55 7.81 7.81 0 0 1-7.1-3.9 11.15 11.15 0 0 1-.9-2.85c-2 2.7-5.2 7.4-8.9 7.4a3 3 0 0 1-3.15-3c-1.9 1.45-3.1 2.3-5.55 2.3a.5.5 0 0 1-.55-.55.47.47 0 0 1 .5-.5c2.4 0 4.35-1.8 6.1-3.25a7.41 7.41 0 0 1 6.2-4.25 3.74 3.74 0 0 1 3.35 2.4c.65-.85 1.2-1.7 1.8-2.55a28.2 28.2 0 0 1 .9-6.8zm-3.9 10.85l.05-.05a2.4 2.4 0 0 0-2.4-2.2c-2.1 0-4.8 2.15-4.8 4.35a1.51 1.51 0 0 0 1.65 1.6c2.3 0 4.1-2.19 5.5-3.7zm6.85-10.45c1-1.6 1.75-3.25 2.6-4.9s2.5-4.3 2.5-6c0-.55-.2-1-.8-1-2.3 0-4.85 8.05-5.4 10a31.27 31.27 0 0 0-1.5 6.4z"/><path class="a" d="M218 27.3c0 1.25-2.6 1.85-3.6 1.85-4.5 0-5.15-4.4-6.25-4.4s-2.7 5.4-7 5.4a2.51 2.51 0 0 1-2.75-2.7v-.25c-1.6 1.15-2.8 2-4.85 2-.4 0-.8-.05-.8-.55a.55.55 0 0 1 .55-.5c2.25 0 4.1-1.6 5.75-3 1.2-2.2 3.85-4.75 6.5-4.75a3.39 3.39 0 0 1 3 1.6 1.38 1.38 0 0 1 1.4.85 8.5 8.5 0 0 1 .45 1.5c.55 2 1.75 3.8 4 3.8 1.55 0 3.1-1.15 3.3-1.15s.3.1.3.3zm-11.2-4.15c-.4-.65-.8-1.25-1.65-1.25-2 0-5 3.35-5 5.35a1.33 1.33 0 0 0 1.4 1.45c2.22 0 4.05-4 5.22-5.55z"/></svg>