<svg xmlns="http://www.w3.org/2000/svg" viewBox="0 0 333.3 29.35"><defs><style>.a{fill:#fff}</style></defs><title>p1_s4</title><path class="a" d="M13.25 0c3.2 0 5.7 1.5 5.7 4.1 0 6.3-9.35 8.6-12.7 10.35L1.75 27.8c-.35 1-.8 1.55-1.15 1.55-.2 0-.6-.3-.6-.95a14.21 14.21 0 0 1 .9-3c1-3.1 2.25-6.7 3.35-10a1.92 1.92 0 0 1-.5 0c-.55 0-1.5-.4-1.5-.8s.65-.7 2.7-1.2c1.45-4.45 2.8-8.15 3.1-9.15l.45-1.5A14.05 14.05 0 0 0 6.2 4.2c-1 .8-1.8 2.15-2.45 2.15a1 1 0 0 1-1-1c0-.55.65-1.15 1.85-1.9A29.57 29.57 0 0 1 8.05 1.2a12.12 12.12 0 0 1 5.2-1.2zm3.6 4.3c0-1.7-1.25-3-3.5-3a9 9 0 0 0-2.8.5c-.6 2-2 6.15-3.7 10.85 3.25-1.15 6.7-2.75 8.75-5.35a4.94 4.94 0 0 0 1.25-3zM37.1 25.1a.54.54 0 0 1 .5.55.54.54 0 0 1-.5.5c-2.55 0-5.4-1.25-5.4-4.2 0-2 1.4-4.25 1.4-6.25 0-1.45-1.5-1.9-2.5-2.45a2.2 2.2 0 0 1-.2.35 34.81 34.81 0 0 1-8.75 9.4 15.59 15.59 0 0 1-4.9 2.65 9.91 9.91 0 0 1-3 .5c-.55 0-1.85-.1-1.85-.9 0-.45 1.35-.35 1.65-.35a12.69 12.69 0 0 0 5.5-1.9c3-1.7 8.6-7.15 10.2-10.45-1.15-.6-2.45-1.45-2.45-3a2.21 2.21 0 0 1 2.25-2 2.47 2.47 0 0 1 2.4 2.55 5.15 5.15 0 0 1-.3 1.75c1.7.75 3.4 1.65 3.4 3.75s-1 3.95-1.4 6a1.69 1.69 0 0 0-.05.5c.05 1.95 2.3 3 4 3zm-7.25-14c0-.15.15-.8.15-1.1s-.2-1-.75-1a.81.81 0 0 0-.8.75c0 .6.95 1.15 1.4 1.4z"/><path class="a" d="M50.15 16.9a1.73 1.73 0 0 1 .35 1.3c0 1.9.45 4.35 1.75 5.8a3 3 0 0 0 2.5 1.1c.25 0 .55.2.55.5a.56.56 0 0 1-.55.55c-3.6 0-5.4-3.7-5.6-6.85a17.84 17.84 0 0 1-6.6 5.6 12.08 12.08 0 0 1-5.6 1.25.56.56 0 0 1-.55-.55.55.55 0 0 1 .55-.5 10.06 10.06 0 0 0 5-1.2 15.39 15.39 0 0 0 5.3-4.85c.45-.65 1.35-2.45 2.25-2.45a.91.91 0 0 1 .65.3zm-1-7.8c0-.5.45-.7.9-.7.8 0 1.2 1.05 1.2 1.75 0 .4-.2.75-.6.75-.65 0-1.45-1.15-1.45-1.8z"/><path class="a" d="M90.45 19.15c1 1.65 1 5 3 5.75a3.87 3.87 0 0 0 1 .2c.25 0 .5.2.5.5a.55.55 0 0 1-.5.55c-5.05 0-4.05-6-5.75-6-.45 0-.8.45-1.05.8A38.47 38.47 0 0 1 84 25.6a2.14 2.14 0 0 1-1.35.5 1.65 1.65 0 0 1-1.6-1.2c-.6-1.5-.95-3-1.55-4.5-.15-.35-.35-.9-.8-.9-1.4 0-4.25 6.75-6.6 6.75a1.64 1.64 0 0 1-1.5-1.8c0-1.7.9-3.55.9-5.25a1 1 0 0 0-1-1.1c-3.05 0-8.9 8-14.5 8-.5 0-1.9.3-1.9-.55a.55.55 0 0 1 .55-.5 12.82 12.82 0 0 0 7.8-3c1.75-1.3 4.9-4.35 6.7-5.1a4.09 4.09 0 0 1 1.5-.35A2.35 2.35 0 0 1 73 19.2c0 1.55-1 3.4-1 4.9 0 .25 0 .6.3.6 1.15 0 4.4-7 6.8-7 2.65 0 2.25 6.45 3.8 6.45.8 0 3.3-3.95 3.85-4.65a2.9 2.9 0 0 1 2.15-1.3 1.83 1.83 0 0 1 1.55.95z"/><path class="a" d="M112.75 17.15a2.55 2.55 0 0 1-.3 1.05 3.81 3.81 0 0 1-1.25 1.1c-.65.4-1.35.7-2 1.05-1.2.65-2.3 1.35-3.5 1.95.2 1.9 1.45 2.55 3.2 2.8.25 0 .55.2.55.5a.56.56 0 0 1-.55.55 4.84 4.84 0 0 1-4.65-3.1c-3.15 1.55-6.3 3.1-9.9 3.1a.57.57 0 0 1-.6-.55.55.55 0 0 1 .55-.5 14.51 14.51 0 0 0 4.4-.75 44.83 44.83 0 0 0 5.45-2.55c0-2.95 2.7-6.85 5.9-6.85 1.25 0 2.7.75 2.7 2.2zm-2.15.75a.83.83 0 0 0 .25-.6c0-.6-.6-.8-1.1-.8-2.15 0-3.55 2.6-4 4.4a32.63 32.63 0 0 0 4.85-3z"/><path class="a" d="M130.4 16.95a9.75 9.75 0 0 1 .25 1.8c.2 1.85.45 3.8 1.75 5.25a3.1 3.1 0 0 0 1.1.85c.5.2 1.95.1 1.95.75a.56.56 0 0 1-.55.55 5.17 5.17 0 0 1-4-2.05 11.88 11.88 0 0 1-2.15-5.7c-5.1 3.5-13.8 7.75-20 7.75a.56.56 0 0 1-.55-.55c0-.45.45-.5.75-.5 3.3-.1 7.05-1.6 10.1-2.85a34.91 34.91 0 0 0 5.05-2.65c.7-.45 1.35-.9 2-1.4s2-1.9 3-1.9a1.32 1.32 0 0 1 1.3.65zm-1.05-7.85c0-.5.45-.7.9-.7.8 0 1.2 1.05 1.2 1.75 0 .4-.15.75-.6.75-.7 0-1.5-1.15-1.5-1.8z"/><path class="a" d="M156.5 25.1a.55.55 0 0 1 .55.5.56.56 0 0 1-.55.55c-2.55 0-5.35-1.25-5.35-4.2 0-2.15 1.35-4.15 1.35-6.3 0-1.35-1.5-2-2.55-2.45l-.15-.05a31 31 0 0 1-5.3 6.7c-2.2 2.1-4.15 4.35-6.9 5.7a5.63 5.63 0 0 1-2.55.6c-.35 0-.8-.05-.8-.55a.54.54 0 0 1 .5-.5 5.55 5.55 0 0 0 2-.45c3-1.35 10.4-8.75 12-12.1-1.15-.6-2.45-1.45-2.45-2.9a2.17 2.17 0 0 1 2.2-2.1 2.44 2.44 0 0 1 2.45 2.4 4.79 4.79 0 0 1-.45 1.85h.15c1.7.75 3.4 1.65 3.4 3.8s-1 4-1.4 6a1.69 1.69 0 0 0-.05.5c0 1.9 2.25 3 3.9 3zm-7.25-14a3.82 3.82 0 0 0 .15-1c0-.4-.2-1-.75-1a.81.81 0 0 0-.8.75c.08.55.95 1 1.4 1.3z"/><path class="a" d="M177.1 21.3a19.39 19.39 0 0 0 3 .15.56.56 0 0 1 .55.55.55.55 0 0 1-.55.55 19.32 19.32 0 0 1-3.25-.2c-1 2.65-4 5.05-6.65 5.05-2.1 0-3.2-1.8-3.2-3.7a6.68 6.68 0 0 1 .15-1.4c-3.15 2.15-6.15 3.85-10.05 3.85-.45 0-1.2.1-1.2-.55a.55.55 0 0 1 .55-.5 19.32 19.32 0 0 0 2.4-.2 15.81 15.81 0 0 0 4.25-1.45 15.61 15.61 0 0 0 3.8-2.35 9 9 0 0 0 1-1l.45-.7a12.5 12.5 0 0 1 1.35-1.85c.9-1.1 2.55-2.7 4-2.7s2 1.25 2 2.5a3.7 3.7 0 0 1 1.45 3.1 4.31 4.31 0 0 1-.05.85zm-1.8.65c-1.5-.5-2.8-1.45-2.8-3.25 0-1 .8-1.6 2-1.7a1 1 0 0 0-.85-.55 2 2 0 0 0-1.25.45 10.15 10.15 0 0 0-3.8 7 2 2 0 0 0 2.1 2.2c1.35-.05 3.75-1.75 4.6-4.15zm.3-1a3.32 3.32 0 0 0 0-.7c0-1-.55-1.9-1.4-1.9-.2 0-.3.2-.3.4a2.25 2.25 0 0 0 1.7 2.15z"/><path class="a" d="M198.6 19.3a4.47 4.47 0 0 1 1.8 3.4c0 5.2-6.8 6.65-10.85 6.65-.4 0-1.4-.2-1.4-.75s.8-.65 1.2-.65a17.24 17.24 0 0 0 4.25-.4c2-.5 3.25-1 4.45-2.65a3.63 3.63 0 0 0 .65-2.15c0-2.65-4.9-5.45-6.65-7.3-3.4 3.15-7.05 7.1-12.05 7.1a.55.55 0 0 1-.55-.55.56.56 0 0 1 .55-.55 7.13 7.13 0 0 0 2.3-.35c3.3-1.15 6.5-4.25 9-6.65a3.61 3.61 0 0 1-.4-1.6c0-1.85 1.85-4.5 3.85-4.5a1.51 1.51 0 0 1 1.55 1.6c0 1.65-2 3.55-3.2 4.5h-.1c1.75 1.75 3.75 3.25 5.6 4.85zm-6.2-6.4v.5c.6-.55 2.4-2.25 2.4-3.1a.4.4 0 0 0-.45-.45c-.95 0-1.95 2.2-1.95 3.05zM232.55 0c3.2 0 5.7 1.5 5.7 4.1 0 6.3-9.35 8.6-12.7 10.35l-4.5 13.35c-.35 1-.8 1.55-1.15 1.55-.2 0-.6-.3-.6-.95a14.23 14.23 0 0 1 .9-3c1-3.1 2.25-6.7 3.35-10a1.92 1.92 0 0 1-.5 0c-.55 0-1.5-.4-1.5-.8s.65-.7 2.7-1.2c1.45-4.45 2.8-8.15 3.1-9.15l.45-1.5a14.07 14.07 0 0 0-2.3 1.45c-1 .8-1.8 2.15-2.45 2.15a1 1 0 0 1-1-1c0-.55.65-1.15 1.85-1.9a29.57 29.57 0 0 1 3.45-2.25 12.12 12.12 0 0 1 5.2-1.2zm3.6 4.3c0-1.7-1.25-3-3.5-3a9 9 0 0 0-2.8.5c-.6 2-2.05 6.15-3.7 10.85 3.25-1.15 6.7-2.75 8.75-5.35a4.93 4.93 0 0 0 1.25-3zm12.9 21.85c-4.45 0-5.15-4.4-6.25-4.4s-2.7 5.4-7 5.4a2.56 2.56 0 0 1-2.8-2.75c0-3 4.1-7 7.15-7a3.29 3.29 0 0 1 3.05 1.6c1.45-.15 1.55 1.35 1.85 2.35a8.27 8.27 0 0 0 .6 1.55 3.92 3.92 0 0 0 3.4 2.25.55.55 0 0 1 .55.5.56.56 0 0 1-.55.5zm-12.9-.45c1.4 0 3-1.95 3.7-3 .55-.8 1-1.75 1.6-2.55-.4-.65-.8-1.25-1.65-1.25-2 0-5.05 3.35-5.05 5.35a1.33 1.33 0 0 0 1.4 1.45z"/><path class="a" d="M280.05 26.85a3.53 3.53 0 0 1 1.45-2.55c1.9-1.65 5.55-2.1 8-2.45-1.15-2.5-4.85-4.4-6.65-6.45a34.31 34.31 0 0 1-8.45 5.8 4.12 4.12 0 0 1 .4 1.45c.25 3.9-4.75 6.4-8.1 6.4-1.4 0-3.1-.55-3.1-2.25 0-3.35 5.75-4.9 8.55-6-1.7-1.9-4.8-3.85-6-5.4a77.28 77.28 0 0 1-9.3 7.85c-2.75 1.95-4.4 2.9-7.9 2.9a.56.56 0 0 1-.6-.5.56.56 0 0 1 .55-.55 11.25 11.25 0 0 0 5.45-1.7c4.1-2.35 7.65-5.8 11.1-9A2.73 2.73 0 0 1 265 13c0-2 1.75-4.65 3.85-4.65a1.51 1.51 0 0 1 1.55 1.6c0 1.65-2 3.55-3.15 4.5a55 55 0 0 0 5.75 5l.65.65a29.37 29.37 0 0 0 8.4-5.65 3.61 3.61 0 0 1-.4-1.6c0-1.85 1.85-4.5 3.85-4.5a1.51 1.51 0 0 1 1.55 1.6c0 1.65-2 3.55-3.2 4.5h-.1c1.75 1.7 3.75 3.2 5.6 4.8a5.49 5.49 0 0 1 1.6 2.25c.5 0 1.6-.1 1.9-.1a.55.55 0 0 1 .55.55.55.55 0 0 1-.55.55c-.2 0-1 0-1.7.05.55 4-4.7 6.45-8 6.45-1.35.05-3.1-.45-3.1-2.15zm-7.15-5c-2.5.95-8 2.7-8 4.75 0 1.05 1 1.4 1.85 1.4 2.55 0 6.45-2 6.45-5a2.74 2.74 0 0 0-.27-1.15zm-6.3-9a1.86 1.86 0 0 0 .05.55c.6-.55 2.4-2.25 2.4-3.1a.42.42 0 0 0-.45-.45c-1.05 0-2 2.15-2 3zm23.15 10.3v-.3c-2.1.2-8.35 1-8.35 3.85 0 1 1 1.3 1.85 1.3 2.55 0 6.5-1.95 6.5-4.85zM283.2 12.9v.5c.6-.55 2.4-2.25 2.4-3.1a.4.4 0 0 0-.45-.45c-.95 0-1.95 2.2-1.95 3.05z"/><path class="a" d="M310 21.3a19.39 19.39 0 0 0 3 .15.56.56 0 0 1 .55.55.55.55 0 0 1-.55.55 19.32 19.32 0 0 1-3.25-.2c-1 2.65-4 5.05-6.65 5.05-2.1 0-3.2-1.8-3.2-3.7v-.3a4.1 4.1 0 0 1 0-.7 11.27 11.27 0 0 1 .65-2.1 15.83 15.83 0 0 1-7.62 1.95.55.55 0 0 1-.55-.55.56.56 0 0 1 .55-.53c3.25 0 6.1-1.35 8.85-2.9 1.45-2.1 3.35-3.65 4.85-3.65s2 1.25 2 2.5a3.7 3.7 0 0 1 1.45 3.1 4.31 4.31 0 0 1-.08.78zm-1.8.65c-1.5-.5-2.8-1.45-2.8-3.25 0-1 .8-1.6 2-1.7a1 1 0 0 0-.85-.55 2 2 0 0 0-1.25.45 10.15 10.15 0 0 0-3.8 7 2 2 0 0 0 2.1 2.2c1.33-.05 3.75-1.75 4.6-4.15zm.3-1v-.7c0-1-.55-1.9-1.4-1.9-.2 0-.3.2-.3.4a2.25 2.25 0 0 0 1.7 2.15z"/><path class="a" d="M331.5 19.3a4.47 4.47 0 0 1 1.8 3.4c0 5.2-6.8 6.65-10.85 6.65-.4 0-1.4-.2-1.4-.75s.8-.65 1.2-.65a17.24 17.24 0 0 0 4.25-.4c2-.5 3.25-1 4.45-2.65a3.63 3.63 0 0 0 .65-2.15c0-2.65-4.9-5.45-6.65-7.3-3.4 3.15-7.05 7.1-12.05 7.1a.55.55 0 0 1-.55-.55.56.56 0 0 1 .58-.53 7.14 7.14 0 0 0 2.3-.35c3.3-1.15 6.5-4.25 9-6.65a3.61 3.61 0 0 1-.4-1.6c0-1.85 1.85-4.5 3.85-4.5a1.51 1.51 0 0 1 1.55 1.6c0 1.65-2 3.55-3.2 4.5h-.1c1.72 1.73 3.72 3.23 5.57 4.83zm-6.2-6.4v.5c.6-.55 2.4-2.25 2.4-3.1a.4.4 0 0 0-.45-.45c-.95 0-1.95 2.2-1.95 3.05z"/></svg>