<svg xmlns="http://www.w3.org/2000/svg" width="379.86" height="52.12" viewBox="0 0 379.86 52.12"><title>p1_txt1</title><g id="cce9ccdb-a1a7-4fb7-87f3-bb9561efef11" data-name="Layer 2"><g id="c2c586da-edbf-4def-9cb3-3eb57e6aaa52" data-name="elementos"><path d="M47.64,58a.84.84,0,0,1-.95.95,13.15,13.15,0,0,1-9.29-4,17,17,0,0,1-4-4.82Q26.66,66.74,18.23,66.74a5.51,5.51,0,0,1-4.6-2A8,8,0,0,1,12,59.6a25.39,25.39,0,0,1,1.2-7.14q-6.88,4-10.66,4A3.91,3.91,0,0,1,.9,56.07Q0,55.64,0,55c0-.23.19-.39.56-.47a6,6,0,0,1,1.33-.13h.86q4.47-.43,11.52-5.25,1.2-3.78,2.62-7.57t4-9.33a36.07,36.07,0,0,1,5.59-9q3.05-3.44,6-3.44a3.48,3.48,0,0,1,2.92,1.33,5.11,5.11,0,0,1,1,3.23q0,5-7,13.07a104.41,104.41,0,0,1-13.12,13,30.09,30.09,0,0,0-1.63,9.12,5.87,5.87,0,0,0,.86,3.18,2.84,2.84,0,0,0,2.58,1.38q3.78,0,8.08-5.42a17.71,17.71,0,0,0,2-3.27A47,47,0,0,0,30,50.65q1-3,1.29-3.7a2.15,2.15,0,0,1,2.06-1.72q1.89,0,3,3.27A17.9,17.9,0,0,0,39,53.15q3,3.44,6.28,3.78l.64,0,.86.09a1.41,1.41,0,0,1,.6.26A.75.75,0,0,1,47.64,58Zm-16-34.74q-1.72,0-3.61,2.58a47.35,47.35,0,0,0-5.5,9.8q-4.21,9.29-4.82,10.84v.09a107.65,107.65,0,0,0,8-8.51q5-5.76,6.19-8.34a11.13,11.13,0,0,0,1.29-4.3Q33.2,23.22,31.65,23.22Z" transform="translate(0 -14.96)" style="fill:#fff"/><path d="M64.5,45.84a5.54,5.54,0,0,1,3.27,1,3.29,3.29,0,0,1,1.46,2.84,2.83,2.83,0,0,1-.3,1.29,4.72,4.72,0,0,1-.9,1.2,15.21,15.21,0,0,1-1.25,1.12,8.47,8.47,0,0,1-1.63,1q-1,.47-1.72.86a17.35,17.35,0,0,1-1.85.82q-1.12.43-1.68.6l-1.55.52q-1,.34-1.16.43l-.17.09v.52q0,4.56,5.5,5.16.94.17.95.86a.84.84,0,0,1-.95.95,8.76,8.76,0,0,1-5.16-1.63,7,7,0,0,1-2.92-4.3c0-.06,0-.23,0-.52a1.06,1.06,0,0,0-.13-.52,42.4,42.4,0,0,1-7.31.77A.95.95,0,0,1,47,57a30.79,30.79,0,0,0,7.48-.86A15.3,15.3,0,0,1,58,49.06,8.39,8.39,0,0,1,64.5,45.84Zm-7.22,9.72a17.9,17.9,0,0,0,5.25-2.37q3.18-1.94,3.18-3.57,0-1.12-1.72-1.12a5.43,5.43,0,0,0-4.26,2.24A11.65,11.65,0,0,0,57.27,55.56Z" transform="translate(0 -14.96)" style="fill:#fff"/><path d="M140.74,62.78a5.93,5.93,0,0,1,1.59-.34q.52,0,.52.43,0,1-1.59,1.63a8.23,8.23,0,0,1-2.88.6,5.9,5.9,0,0,1-4.3-1.59A7.32,7.32,0,0,1,132,60a30.79,30.79,0,0,0-1.08-3.53q-.6-1.59-1.55-1.59t-1.81,1.38q-5.08,6.88-6.36,8a3.43,3.43,0,0,1-2.24.86A2.93,2.93,0,0,1,116.1,63a33,33,0,0,1-1.25-3.83,27.4,27.4,0,0,0-1.33-3.91q-.69-1.55-1.46-1.55t-2.19,1.81q-1.42,1.81-2.84,4a25.71,25.71,0,0,1-3.18,4q-1.76,1.81-3.05,1.81a2.29,2.29,0,0,1-1.89-.86,3.33,3.33,0,0,1-.69-2.15A19.4,19.4,0,0,1,98.94,58a19.5,19.5,0,0,0,.73-4.34q0-2.06-1.72-2.06a4.28,4.28,0,0,0-2,.69Q75.59,65.1,62.43,65.1a.84.84,0,0,1-.95-.95q0-.86,1.29-.86,5.85-.08,17.37-4.9a60.85,60.85,0,0,0,8.69-4.56q.43-.26,2.62-1.85a41.45,41.45,0,0,1,4-2.58,7.59,7.59,0,0,1,2.79-1.08h.6a3.12,3.12,0,0,1,2.62,1.16,4.69,4.69,0,0,1,.9,3,33.18,33.18,0,0,1-1,5.42,28.83,28.83,0,0,0-.69,3.78.38.38,0,0,1,0,.17.38.38,0,0,0,0,.17c0,.46.2.69.6.69s1.38-1,2.75-3,2.91-4,4.6-6,3.14-3,4.34-3a2.86,2.86,0,0,1,2.45,1.72,12.78,12.78,0,0,1,1.42,3.83A22.21,22.21,0,0,0,117.82,60q.69,1.72,1.55,1.72.34,0,1.08-.69a16.44,16.44,0,0,0,1.63-1.85q.9-1.16,1.55-2.11T125.08,55q.82-1.16.9-1.25,1.72-2.24,3.61-2.24a3,3,0,0,1,2.75,1.55,11.86,11.86,0,0,1,1.29,4,11.66,11.66,0,0,0,1.59,4.43q1.07,1.59,3.83,1.59A5.93,5.93,0,0,0,140.74,62.78Z" transform="translate(0 -14.96)" style="fill:#fff"/><path d="M169.85,52.89q1.72,0,1.72.86,0,1.21-1.72,1.2l-18.15.34q-1.29,0-1.29-1t2.15-1.2q4-.17,15-.17Z" transform="translate(0 -14.96)" style="fill:#fff"/><path d="M202.18,49.79a3.56,3.56,0,0,1,2.19,1.12,25.09,25.09,0,0,1,2.41,2.49A11,11,0,0,0,210,55.9a8.9,8.9,0,0,0,4.3,1.12.95.95,0,0,1,0,1.89,10.74,10.74,0,0,1-5.5-1.51,25.9,25.9,0,0,1-4.26-3q-1.68-1.5-2.19-1.5-.86,0-3.14,3.57t-4.94,7.1q-2.67,3.53-4.56,3.53t-3.78-3.35q-5.76-9.89-5.76-12.3,0-1.29,1.38-1.29a2.84,2.84,0,0,1,.69.17A3.61,3.61,0,0,1,183,51a5.45,5.45,0,0,1,.73,1.07,7.83,7.83,0,0,1,.52,1.16q.17.52.47,1.29t.39,1q3.27,8.51,4.82,8.51,1.12,0,3.4-3.57t4.77-7.14Q200.63,49.79,202.18,49.79Z" transform="translate(0 -14.96)" style="fill:#fff"/><path d="M232.28,48.5a1.46,1.46,0,0,1,1.38.77,13.05,13.05,0,0,1,.52,3.1q.69,6.45,2.92,9a3.22,3.22,0,0,0,.52.56l.47.39a2,2,0,0,0,.56.3,1.46,1.46,0,0,1,.43.22,1.35,1.35,0,0,0,.56.17l.56.09.65.09.65.09q.94.17.95.86a.84.84,0,0,1-.95.95,8.25,8.25,0,0,1-6.88-3.53,14.66,14.66,0,0,1-2.15-4.82,28,28,0,0,1-1.12-5.59A39.78,39.78,0,0,1,220.16,58a17.9,17.9,0,0,1-6,.95.84.84,0,0,1-.95-.95c0-.63.29-.95.86-.95a13.49,13.49,0,0,0,4.3-.69,26,26,0,0,0,5.07-2.41q.34-.26,2.49-1.76t3.91-2.58A6.1,6.1,0,0,1,232.28,48.5Zm2.24-9.63a2.36,2.36,0,0,1-1.81-1.12,3.42,3.42,0,0,1-.86-2q0-1.2,1.55-1.2a1.78,1.78,0,0,1,1.55,1,3.72,3.72,0,0,1,.6,1.94Q235.55,38.87,234.52,38.87Z" transform="translate(0 -14.96)" style="fill:#fff"/><path d="M283.45,50.57q2.15,0,3.61,4.73.08.26.34,1.2t.34,1.29c.06.23.19.62.39,1.16a6.75,6.75,0,0,0,.52,1.16l.6,1A3.42,3.42,0,0,0,290,62q.39.3.9.65a3.18,3.18,0,0,0,1.16.47,7.25,7.25,0,0,0,1.42.13q.94,0,.95.86a.84.84,0,0,1-.95.95,8.16,8.16,0,0,1-4.43-1.16,7,7,0,0,1-2.67-2.84A27.41,27.41,0,0,1,285,57.75a24.8,24.8,0,0,0-1.12-2.84q-.56-1.16-1.25-1.16-.95,0-3,2.88t-4.34,5.81q-2.32,2.92-4,2.92-2.49,0-2.49-3.18a19.4,19.4,0,0,1,.73-4.34,19.44,19.44,0,0,0,.73-4.17q0-2.41-1.55-2.41-1.72,0-4.82,2.15a70.74,70.74,0,0,0-6.11,4.77,38.57,38.57,0,0,1-7,4.77,15.36,15.36,0,0,1-7.22,2.15l-.69,0c-.34,0-.63,0-.86,0a4,4,0,0,1-.77-.09,1.51,1.51,0,0,1-.69-.3.79.79,0,0,1-.26-.65q0-.86.95-.86,6.79,0,13.42-5.16l3.44-2.84q2.49-2.06,4.6-3.7a17.83,17.83,0,0,1,3.48-2.24,6.93,6.93,0,0,1,2.58-.6,3.66,3.66,0,0,1,3,1.29,4.81,4.81,0,0,1,1.07,3.18,16.79,16.79,0,0,1-.86,4.26,16.72,16.72,0,0,0-.86,4.17q0,1,.6,1t2.79-3.05q2.11-3.05,4.6-6.06T283.45,50.57Z" transform="translate(0 -14.96)" style="fill:#fff"/><path d="M323.27,50.14a49.83,49.83,0,0,1,1.55-11.7q.77-3.1,1.81-6.28t2.79-7.48a24.38,24.38,0,0,1,4.17-7Q336,15,338.58,15q2.84,0,2.84,3.18a14.94,14.94,0,0,1-.95,4.73,40.6,40.6,0,0,1-1.76,4.43q-.82,1.68-2.71,5l-2.24,4q-.6,1.12-1.89,3.57t-2.11,3.91q-.82,1.46-2,3.44t-2.32,3.61a31.2,31.2,0,0,0,.34,3.27,11.39,11.39,0,0,0,2.45,5.38A9.16,9.16,0,0,0,333,62.61a14.83,14.83,0,0,0,4.39.69q.94,0,.95.86a.84.84,0,0,1-.95.95q-8.43,0-12.21-6.71a19.71,19.71,0,0,1-1.55-4.9q-2.06,2.84-3.1,4.13t-3.31,3.78a17.06,17.06,0,0,1-4.47,3.66,9.39,9.39,0,0,1-4.43,1.16,5.39,5.39,0,0,1-3.78-1.42,5,5,0,0,1-1.63-3.65,29.2,29.2,0,0,1-4.73,3.05,11.21,11.21,0,0,1-4.82.9.84.84,0,0,1-.95-.95.76.76,0,0,1,.86-.86,10,10,0,0,0,1.33-.09,6.09,6.09,0,0,0,1.33-.34l1.2-.43a5.08,5.08,0,0,0,1.25-.69,9.57,9.57,0,0,1,1.08-.69,8.4,8.4,0,0,0,1.16-.82l1-.82,1.12-.9q.9-.73,1-.82a12.93,12.93,0,0,1,4.39-5.16,10.66,10.66,0,0,1,6.28-2.15,5.9,5.9,0,0,1,3.48,1.2,6,6,0,0,1,2.28,2.92q.52-.69,1-1.42l1.12-1.59ZM308.65,63.47a7.34,7.34,0,0,0,3.83-1.25,16.68,16.68,0,0,0,2.88-2.11q.86-.86,2.75-3l.09-.09a4.17,4.17,0,0,0-1.33-2.71,4,4,0,0,0-2.8-1.08,8.42,8.42,0,0,0-5.55,2.37,6.8,6.8,0,0,0-2.71,5.12Q305.81,63.47,308.65,63.47Zm16.77-16.68,4.47-7.65q.95-1.63,4.47-8.43,4.3-7.83,4.3-10.32,0-1.72-1.38-1.72-1.81,0-4,3.91A45,45,0,0,0,330,29.71q-1.12,3.22-2,6.06A58.81,58.81,0,0,0,325.42,46.78Z" transform="translate(0 -14.96)" style="fill:#fff"/><path d="M379.34,61.32c.34,0,.52.2.52.6q0,1.46-2.24,2.32a11.22,11.22,0,0,1-4,.86,9.33,9.33,0,0,1-3.87-.77A8.33,8.33,0,0,1,367,62.44a17,17,0,0,1-1.76-2.24q-.73-1.12-1.29-1.89t-1.07-.77q-.69,0-1.76,1.46t-2.28,3.18a12.82,12.82,0,0,1-3.35,3.18,8.24,8.24,0,0,1-4.73,1.46,4.71,4.71,0,0,1-3.48-1.25,4.59,4.59,0,0,1-1.25-3.4v-.43q-4.64,3.35-8.34,3.35-1.38,0-1.38-.95t.95-.86a9.11,9.11,0,0,0,3.78-.9,16.49,16.49,0,0,0,3.05-1.72q1.07-.82,3.05-2.54A18.48,18.48,0,0,1,352,52.46,10.14,10.14,0,0,1,358.36,50a5.76,5.76,0,0,1,5.25,2.75A2.17,2.17,0,0,1,366,54.18a4.9,4.9,0,0,1,.3.77q.13.43.26,1c.09.37.16.65.22.82q1.81,6.54,6.88,6.54a7,7,0,0,0,2.54-.52,18.41,18.41,0,0,0,2.19-1A6,6,0,0,1,379.34,61.32Zm-27.86,3a4.83,4.83,0,0,0,3.35-1.59,26.54,26.54,0,0,0,3.57-4.6q1.94-3,2.19-3.35-1.29-2.15-2.84-2.15-2.58,0-5.63,3.27t-3.05,5.93Q349.07,64.33,351.48,64.33Z" transform="translate(0 -14.96)" style="fill:#fff"/></g></g></svg>