<svg xmlns="http://www.w3.org/2000/svg" viewBox="0 0 75.29 75.29"><defs><style>.a{fill:none;stroke:#fff;stroke-linecap:round;stroke-linejoin:round;stroke-width:4px;stroke-dasharray:1.02 10.18}.b{fill:#fff}</style></defs><title>p2_s11</title><circle class="a" cx="37.65" cy="37.65" r="35.65"/><path class="b" d="M23.18 33.67a.31.31 0 0 1 .32.3.48.48 0 0 1-.14.3 3.68 3.68 0 0 1-3 1.2c-2.46 0-3.94-1.62-3.94-4.15a4 4 0 0 1 4-4.21 3.58 3.58 0 0 1 2.88 1.11.53.53 0 0 1 .16.35.4.4 0 0 1-.43.4c-.24 0-.4-.14-.57-.38a2.18 2.18 0 0 0-2-1c-1.68 0-2.72 1.57-2.72 3.64s.93 3.63 2.72 3.63a2.85 2.85 0 0 0 2.22-1c.23-.11.32-.19.5-.19zm2.07-9.78c0-.33.29-.51.63-.51s.63.17.63.51v10.93c0 .33-.29.51-.63.51s-.63-.17-.63-.51zm3.56.58c0-.35.3-.63.81-.63s.81.29.81.63-.32.65-.81.65-.81-.28-.81-.65zm.17 3.31c0-.33.29-.51.65-.51s.62.17.62.51v7c0 .33-.27.51-.62.51s-.65-.17-.65-.51zm9.87 5.75h-.08a3.06 3.06 0 0 1-3 1.93c-2.41 0-3.75-1.81-3.75-4.15a3.9 3.9 0 0 1 4-4.21 2.86 2.86 0 0 1 2.79 1.82h.08v-1.17c0-.32.25-.49.6-.49s.62.16.62.48v10.48c0 .33-.28.51-.63.51s-.63-.17-.63-.51zm-5.5-2.25c0 2.2 1 3.6 2.65 3.6 1.88 0 2.9-1.63 2.9-3.6s-1-3.6-2.77-3.6-2.77 1.48-2.77 3.62zm16.08 3.55c0 .32-.27.49-.62.49s-.59-.17-.59-.49v-1.09h-.08a2.77 2.77 0 0 1-2.68 1.74c-2.11 0-3-1.19-3-3.21v-4.48c0-.33.29-.51.63-.51s.63.17.63.51v4.63c0 1.25.43 2.47 2 2.47 1.43 0 2.42-1.24 2.42-3v-4.1c0-.33.29-.51.63-.51s.63.17.63.51zm8.19-.87c.21-.22.3-.27.44-.27a.3.3 0 0 1 .32.3.5.5 0 0 1-.13.3 4.08 4.08 0 0 1-3.15 1.19c-2.31 0-3.88-1.52-3.88-4.1 0-2.42 1.49-4.26 4-4.26a3.29 3.29 0 0 1 3.5 3.55v.14c0 .32-.16.55-.6.55h-5.54v.17c0 1.93 1 3.42 2.71 3.42a3 3 0 0 0 2.33-.99zm-.16-3.18v-.25c0-1.93-.92-2.9-2.33-2.9s-2.44 1.08-2.57 3.14zm-28.3 15.5c.33 0 .6.17.6.49v7.06c0 .32-.29.49-.62.49s-.59-.17-.6-.49v-1.3h-.11a3 3 0 0 1-2.95 2c-2.36 0-3.61-1.73-3.61-4.1 0-2.53 1.62-4.28 3.91-4.28a2.75 2.75 0 0 1 2.66 1.76h.06v-1.12a.53.53 0 0 1 .66-.51zm-5.94 4.1c0 2.23 1 3.48 2.52 3.48 1.77 0 2.8-1.58 2.8-3.53s-.82-3.63-2.65-3.63c-1.61.01-2.67 1.51-2.67 3.68zm15.14 2.15h-.08a3.06 3.06 0 0 1-3 1.93c-2.41 0-3.75-1.8-3.75-4.15a3.9 3.9 0 0 1 4-4.21 2.86 2.86 0 0 1 2.79 1.82h.08v-1.17c0-.32.25-.49.6-.49s.62.16.62.47v10.48c0 .33-.28.51-.63.51s-.63-.17-.63-.51zm-5.5-2.25c0 2.2 1 3.59 2.65 3.59 1.88 0 2.9-1.63 2.9-3.59s-1-3.6-2.77-3.6-2.77 1.48-2.77 3.62zm16.1 3.55c0 .32-.27.49-.62.49s-.59-.17-.59-.49v-1.09h-.08a2.77 2.77 0 0 1-2.68 1.74c-2.11 0-3-1.19-3-3.21v-4.48c0-.33.29-.51.63-.51s.63.17.63.51v4.63c0 1.25.43 2.47 2 2.47 1.43 0 2.42-1.24 2.42-3v-4.1c0-.33.29-.51.63-.51s.63.17.63.51zm2.29-10.35c0-.35.3-.63.81-.63s.81.29.81.63-.32.65-.81.65-.81-.29-.81-.65zm.17 3.31c0-.33.29-.51.65-.51s.62.17.62.51v7c0 .33-.27.51-.62.51s-.65-.17-.65-.51z"/></svg>