<svg xmlns="http://www.w3.org/2000/svg" viewBox="0 0 344.48 84.48"><defs><style>.a{fill:#fff}</style></defs><title>p2_s13</title><path class="a" d="M11.96 24.93c-4.09 0-8.51-.78-8.51-4.28 0-3.22 3.73-6 6.16-7.45-1.61-.23-3.5-1.06-3.5-2.67a4.45 4.45 0 0 1 1.15-2.67C9.61 4.96 16.83 0 18.62 0c.37 0 .87 0 .87.6 0 .14-.14.55-.92.87-3.91 1.66-10.72 6-10.72 8.74 0 1.06.87 1.84 2.3 1.84a8.87 8.87 0 0 0 3.91-1.24 7.2 7.2 0 0 1 1.29-.55.58.58 0 0 1 .55.64c0 1-1.93 1.61-3.54 2.12l-.41.14c-2.53 1.29-6.76 4.42-6.76 7.17 0 2.3 2.25 3.54 7.4 3.54h2.25a.55.55 0 0 1 .55.51c.02.64-.86.55-3.43.55z"/><path class="a" d="M43.41 25.44a3.25 3.25 0 0 1 1.33-2.35c1.75-1.52 5.1-1.93 7.36-2.25-1.06-2.3-4.46-4-6.12-5.93a31.6 31.6 0 0 1-7.77 5.33 3.78 3.78 0 0 1 .37 1.33c.23 3.59-4.37 5.89-7.45 5.89-1.29 0-2.85-.51-2.85-2.07 0-3.08 5.29-4.51 7.86-5.52-1.56-1.75-4.42-3.54-5.47-5a71.12 71.12 0 0 1-8.55 7.22c-2.53 1.79-4 2.67-7.27 2.67a.52.52 0 0 1-.55-.46.51.51 0 0 1 .51-.51 10.35 10.35 0 0 0 5-1.56c3.77-2.16 7-5.33 10.21-8.28a2.52 2.52 0 0 1-.41-1.29c0-1.79 1.61-4.28 3.54-4.28a1.39 1.39 0 0 1 1.43 1.47c0 1.52-1.79 3.27-2.9 4.14a50.52 50.52 0 0 0 5.29 4.6l.6.6a27 27 0 0 0 7.73-5.2 3.32 3.32 0 0 1-.37-1.47c0-1.7 1.7-4.14 3.54-4.14a1.39 1.39 0 0 1 1.43 1.47c0 1.52-1.79 3.27-2.94 4.14h-.09c1.61 1.56 3.45 2.94 5.15 4.42a5 5 0 0 1 1.47 2.07c.46 0 1.47-.09 1.75-.09a.51.51 0 0 1 .51.51.51.51 0 0 1-.51.51h-1.56c.51 3.63-4.32 5.93-7.31 5.93-1.35.12-2.96-.34-2.96-1.9zm-6.58-4.6c-2.3.87-7.31 2.48-7.31 4.37 0 1 .87 1.29 1.7 1.29 2.35 0 5.93-1.84 5.93-4.55a2.52 2.52 0 0 0-.31-1.11zm-5.79-8.28a1.73 1.73 0 0 0 0 .51c.55-.51 2.21-2.07 2.21-2.85a.39.39 0 0 0-.41-.41c-.92-.01-1.8 1.97-1.8 2.75zm21.29 9.47v-.28c-1.93.18-7.68.92-7.68 3.54 0 .92.92 1.2 1.7 1.2 2.35 0 5.99-1.79 5.99-4.46zm-6-9.43v.46c.55-.51 2.21-2.07 2.21-2.85a.37.37 0 0 0-.41-.41c-.94 0-1.82 2.02-1.82 2.8z"/><path class="a" d="M69.19 22.18c0 1-1.61 1.79-2.44 2.12-.41.14-.87.23-1.29.32a8.73 8.73 0 0 1-1.89.18c-2.07 0-4.42-1.47-4.42-3.73a22.58 22.58 0 0 1-4 .41.51.51 0 0 1-.51-.51.51.51 0 0 1 .51-.51 17.05 17.05 0 0 0 4-.46c.46-2.48 2.53-5.52 5.33-5.52 1.2 0 2.53.69 2.53 2 0 2.12-4.78 3.77-6.39 4.23h-.14a2.92 2.92 0 0 0 3 3 7.21 7.21 0 0 0 4.32-1.24 10.75 10.75 0 0 1 1-.74c.39.12.39.21.39.45zm-8.42-2.48c1.1-.28 4.51-1.89 4.51-3.22 0-.46-.55-.55-.92-.55-1.86-.01-3.17 2.15-3.57 3.76zm44.72 1.27a.51.51 0 0 1-.51.51h-1.56c.28 3.59-4.37 5.93-7.45 5.93-1.29 0-2.85-.51-2.85-2.07 0-3.36 6.3-4.37 8.74-4.6-1.15-2.35-4.83-4-6.35-5.93a27.75 27.75 0 0 1-3.91 3c-1.47.92-4.64 2.85-6.35 2.85-.32 0-1.06-.14-1.06-.6s1.1-.51 1.38-.6a18.22 18.22 0 0 0 3.73-1.7 34.08 34.08 0 0 0 5.52-4 3.13 3.13 0 0 1-.32-1.29c0-1.66 1.7-4.09 3.5-4.09a1.44 1.44 0 0 1 1.47 1.52c0 1.84-1.79 3-3 4a52.46 52.46 0 0 0 5.38 4.69 4.53 4.53 0 0 1 1.43 1.93c.46 0 1.47-.09 1.75-.09a.51.51 0 0 1 .46.54zm-3.4.69c-1.89.18-7.73 1-7.73 3.54 0 1 .87 1.29 1.7 1.29 2.44 0 6.03-1.65 6.03-4.83zm-4-11.5a.38.38 0 0 0-.41-.37c-1 0-1.84 1.93-1.84 2.71v.32c.64-.49 2.29-1.82 2.29-2.64z"/><path class="a" d="M120.67 20.33a17.92 17.92 0 0 0 2.71.14.51.51 0 0 1 .51.51.51.51 0 0 1-.51.51 17.84 17.84 0 0 1-3-.18c-.92 2.44-3.63 4.64-6.12 4.64-1.93 0-2.94-1.66-2.94-3.4v-.28a3.76 3.76 0 0 1 0-.64 10.38 10.38 0 0 1 .6-1.93 14.55 14.55 0 0 1-7 1.79.51.51 0 0 1-.51-.51.51.51 0 0 1 .51-.51c3 0 5.61-1.24 8.14-2.67 1.33-1.93 3.08-3.36 4.46-3.36s1.84 1.15 1.84 2.3a3.41 3.41 0 0 1 1.33 2.85 4 4 0 0 1-.02.74zm-1.66.6c-1.38-.46-2.58-1.33-2.58-3 0-1 .74-1.47 1.79-1.56a.93.93 0 0 0-.78-.51 1.83 1.83 0 0 0-1.15.41 9.33 9.33 0 0 0-3.5 6.39 1.88 1.88 0 0 0 1.93 2c1.3.04 3.47-1.48 4.29-3.73zm.28-1v-.64c0-1-.51-1.75-1.29-1.75-.18 0-.28.18-.28.37a2.07 2.07 0 0 0 1.57 2.05z"/><path class="a" d="M143.19 19.55c.6 1.93.87 4.28 3.45 4.28a.5.5 0 0 1 .51.46.51.51 0 0 1-.51.51c-5.06 0-4.28-6.07-5.79-6.07-1.29 0-3.91 6.21-6.07 6.21-1 0-1.33-.87-1.33-1.7 0-1.52.78-3.17.78-4.55 0-.6-.14-1.2-.83-1.2-1.79 0-5.2 4-10 4a.51.51 0 0 1-.51-.51.51.51 0 0 1 .51-.51 9.85 9.85 0 0 0 3.59-.92c1.79-.87 4.69-3.5 6.48-3.5a2.16 2.16 0 0 1 2.16 2.39c0 1.43-.92 3.13-.92 4.51 0 .23 0 .55.28.55 1 0 4.14-6.48 6.25-6.48 1.18 0 1.64 1.61 1.95 2.53z"/><path class="a" d="M167.34 19.64a20 20 0 0 0 2.58 3.31 2.56 2.56 0 0 0 1.66.87c.23 0 .51.18.51.46a.51.51 0 0 1-.51.51c-2.3 0-3.5-2.21-4.74-3.82-.64-.83-1.06-1.89-2.3-1.89-2.21 0-4.37 6.12-7.36 6.12-2 0-2.67-2.76-2.9-4.28-1.84 1.66-5.24 3.91-7.77 3.91a.51.51 0 0 1-.51-.51.51.51 0 0 1 .51-.51 4.86 4.86 0 0 0 1.79-.41 22 22 0 0 0 5.89-4v-.37a28.77 28.77 0 0 1 3.08-12.37c.64-1.2 2.16-3.31 3.73-3.31 1.38 0 1.56 1.89 1.56 2.9 0 3.77-1.79 7.36-4 10.3a23.62 23.62 0 0 1-2.48 2.76 4.26 4.26 0 0 0-.46.46c0 .92.32 3.86 1.61 3.86 2 0 4.37-6 7.45-6 1.19.08 2.07 1.14 2.66 2.01zm-9.06-11.91a23.88 23.88 0 0 0-2.71 10.35c2.3-2.58 5.79-7.68 5.79-11.31 0-.46-.09-1.52-.78-1.52-.92 0-1.93 1.79-2.3 2.48z"/><path class="a" d="M194.34 21.18c0 .92-1.75.83-2.35.83a5 5 0 0 1-1.84-.28 6.9 6.9 0 0 1-6.07 4.23c-1.93 0-2.9-1.79-2.9-3.54a5.31 5.31 0 0 1 .14-1.2c-2.94 2-5.66 3.54-9.29 3.54-.41 0-1.06.09-1.06-.51a.5.5 0 0 1 .51-.46 17.8 17.8 0 0 0 2.21-.18 17.76 17.76 0 0 0 7.4-3.5l1-.87c.87-1.75 3.17-4.69 5.29-4.69 1.29 0 1.84 1.33 1.84 2.48a3.41 3.41 0 0 1 1.33 2.85 5.66 5.66 0 0 1-.09.87 6.52 6.52 0 0 0 2.12.23c.19.04 1.76-.14 1.76.2zm-5.33 0c-1-.51-2.76-1.84-2.76-3 0-1 .92-1.43 1.75-1.47a.75.75 0 0 0-.69-.51 2.44 2.44 0 0 0-1.06.37 8.09 8.09 0 0 0-3.59 6.16 1.73 1.73 0 0 0 1.84 1.89 4.94 4.94 0 0 0 4.5-3.44zm.18-1.24c0-.64-.55-2.07-1.33-2.07-.18 0-.32.23-.32.41 0 .78 1.2 1.33 1.66 1.79zm36.92 7.15a.42.42 0 0 1-.18.37c-3 2.48-7.73 6.67-9.89 9.89-.28 1.61-.92 6-1.52 7.36a2.44 2.44 0 0 1-1.75 1.33c-1 0-1.43-1-1.43-1.79 0-2.21 2.21-5.29 3.45-7.08a127.38 127.38 0 0 1 4.32-14.26 12.08 12.08 0 0 1-5.84 1.93 2.84 2.84 0 0 1-2.94-2.76 2.74 2.74 0 0 1 .28-1.24c1.15-2.76 4.69-5.89 7.82-5.89a3.27 3.27 0 0 1 3 2.16c.23-.64.78-1.7 1.56-1.7s1.15 1.06 1.15 1.79c0 1.33-1 2.3-1.89 3.17 0 .28.09.6.09.87s0 .78-.46.78-.6-.41-.74-.69l-.09.09a91.11 91.11 0 0 0-4.42 13.38 40.16 40.16 0 0 1 8.65-8.09.52.52 0 0 1 .37-.14.45.45 0 0 1 .46.52zm-6.35-6l.83-2.12c-.28-1.29-.78-2.71-2.35-2.71-2.16 0-6.25 3.4-6.25 5.66a1.59 1.59 0 0 0 1.56 1.7c1.64.02 4.93-1.5 6.22-2.51zm-5.75 19.73c-.37.78-1.43 2.21-1.43 2.94 0 .23.09.37.32.37.75.05 1.02-2.69 1.12-3.29zm8-22.12a1.64 1.64 0 0 0 .09.46c.32-.32.87-.78.87-1.29 0-.18-.09-.46-.32-.46s-.68 1.08-.68 1.31z"/><path class="a" d="M251.77 20.06a4.5 4.5 0 0 0 3.68 3.68c.37.09 1.29 0 1.29.55a.51.51 0 0 1-.51.51 6.26 6.26 0 0 1-6.3-5.33c-1.15 2.71-3.63 6.48-7 6.48-2.3 0-3.59-1.79-3.59-4a9.58 9.58 0 0 1 .78-3.45 44 44 0 0 0-7.27 4c-4 2.58-6.85 5-7.27 5a.46.46 0 0 1-.46-.46.68.68 0 0 1 .18-.41 90 90 0 0 1 13.15-8.88c.69-.37 2.12-1.33 2.9-1.33.55 0 .92.18.92.69 0 1.15-1.56 2.81-1.56 5a2.23 2.23 0 0 0 2.39 2.44 2.71 2.71 0 0 0 1.56-.46c2.25-1.47 3.17-3.77 4.28-6.12.32-.64.87-1.52 1.7-1.52 1.41.06.99 2.73 1.13 3.61z"/><path class="a" d="M271.45 24.61a8.73 8.73 0 0 1-1.89.18c-1.75 0-3.82-1.06-4.28-2.85-2.94 1.47-5.79 2.85-9.15 2.85a.51.51 0 0 1-.51-.51.5.5 0 0 1 .51-.46 13.59 13.59 0 0 0 4-.69 37.78 37.78 0 0 0 5-2.35 7.3 7.3 0 0 1 3.82-5.93 3.19 3.19 0 0 1 1.61-.37c1.2 0 2.53.69 2.53 2a2.34 2.34 0 0 1-.28 1 3.21 3.21 0 0 1-1.2 1c-.6.37-1.2.64-1.79 1-1.06.6-2.12 1.24-3.22 1.79a2.88 2.88 0 0 0 3 2.58 6.9 6.9 0 0 0 4.32-1.24 10.93 10.93 0 0 1 1-.74c.18 0 .23.09.23.28.04 1.45-2.59 2.23-3.7 2.46zm-4.74-4.65a29.91 29.91 0 0 0 4.42-2.76.85.85 0 0 0 .23-.55c0-.55-.6-.74-1.06-.74-1.88.01-3.31 2.4-3.58 4.05zm42.13-1.61a.46.46 0 0 1-.46.46 2.84 2.84 0 0 1-.51-.14 11.92 11.92 0 0 0-3.77-.92 3.92 3.92 0 0 0-.74 0c-2.53.46-5 8-7.59 8-1 0-1.56-1.06-2-1.79-.6-1.1-3.08-5.47-3.08-6.53a.69.69 0 0 1 .69-.74c1.1 0 1.61 2.07 1.93 2.85s.78 1.84 1.2 2.71c.18.46.74 1.84 1.33 1.84 1.2 0 4.19-6.12 6-7.36a3.11 3.11 0 0 1 1.66-.46 11.47 11.47 0 0 1 3.91 1.06 9.53 9.53 0 0 0 1 .41h.09a.7.7 0 0 1 .34.61z"/><path class="a" d="M322.27 20.33a7.65 7.65 0 0 0 .55 1.43 3.6 3.6 0 0 0 3.13 2.07.5.5 0 0 1 .46.46.47.47 0 0 1-.46.51c-4.09 0-4.74-4-5.79-4s-2.39 4.92-6.48 4.92a2.28 2.28 0 0 1-2.49-2.54 6.08 6.08 0 0 1 1.7-3.73 18.53 18.53 0 0 1-4.78-.74c-.18-.14-.32-.14-.32-.46a.47.47 0 0 1 .51-.46.78.78 0 0 1 .32 0 14.26 14.26 0 0 0 3.68.55 12.41 12.41 0 0 0 1.84-.14 5.68 5.68 0 0 1 3.73-1.66 3.18 3.18 0 0 1 2.76 1.52c1.18-.12 1.41 1.4 1.64 2.27zm-3.31-1.06c-.37-.6-.74-1.15-1.52-1.15-1.89 0-4.65 3.08-4.65 4.92a1.21 1.21 0 0 0 1.24 1.33c2.16.01 3.82-3.62 4.92-5.1z"/><path class="a" d="M344.48 23.73c0 .83-1.61 1.06-2.25 1.06-3.45 0-5-3.31-5.2-6.3a16.55 16.55 0 0 1-6.12 5.15 11.11 11.11 0 0 1-5.15 1.15.47.47 0 0 1-.46-.51.49.49 0 0 1 .46-.46 9.44 9.44 0 0 0 4.6-1.1 14.62 14.62 0 0 0 4.87-4.46c.46-.64 1.2-2.3 2.07-2.3a.74.74 0 0 1 .6.28c.41.46.32 1.1.37 1.66.18 2.53.87 6 4 6 .78 0 1.33-.41 2-.41.16-.03.21.11.21.24zm-7.45-14.67c0-.41.41-.6.83-.6.74 0 1.15 1 1.15 1.56 0 .32-.18.74-.55.74-.65 0-1.43-1.1-1.43-1.7zM16.79 54.64c0 1.15-3.22 1.2-4 1.24a1.92 1.92 0 0 1-.18.46 17.68 17.68 0 0 0-1.52 5.89 3.75 3.75 0 0 0 1.1 3 4.12 4.12 0 0 0 2.39.87c.23 0 .51.18.51.46a.51.51 0 0 1-.51.51 4.2 4.2 0 0 1-4.55-4.55 16.64 16.64 0 0 1 .41-3 16.08 16.08 0 0 1-1.7 2.25c-1.52 1.61-5.24 5.2-7.54 5.2-.37 0-1.2-.14-1.2-.6s1.15-.46 1.43-.55a10.25 10.25 0 0 0 3.5-2 20.4 20.4 0 0 0 5.93-7.86c-.69 0-1.43.09-2.12.09-.46 0-1.47-.14-1.47-.74 0-.92 3.45-.83 4.19-.83.28-.6 1-3 1.79-3 .55 0 .69.92.69 1.29a5.32 5.32 0 0 1-.51 1.66 16.66 16.66 0 0 1 2.62 0c.14.02.74-.12.74.21z"/><path class="a" d="M29.89 66.92a8.73 8.73 0 0 1-1.89.18c-1.75 0-3.82-1.06-4.28-2.85-2.94 1.47-5.79 2.85-9.15 2.85a.51.51 0 0 1-.51-.51.5.5 0 0 1 .51-.46 13.59 13.59 0 0 0 4-.69 37.72 37.72 0 0 0 5-2.35 7.3 7.3 0 0 1 3.82-5.93 3.19 3.19 0 0 1 1.61-.37c1.2 0 2.53.69 2.53 2a2.35 2.35 0 0 1-.28 1 3.21 3.21 0 0 1-1.2 1c-.6.37-1.2.64-1.79 1-1.06.6-2.12 1.24-3.22 1.79a2.88 2.88 0 0 0 3 2.58 6.9 6.9 0 0 0 4.32-1.24 10.93 10.93 0 0 1 1-.74c.18 0 .23.09.23.28.03 1.44-2.59 2.23-3.7 2.46zm-4.74-4.65a29.91 29.91 0 0 0 4.42-2.76.85.85 0 0 0 .23-.55c0-.55-.6-.74-1.06-.74-1.88-.04-3.31 2.39-3.55 4.05zm34.95-3.72a1.7 1.7 0 0 1 .32 1.24 9.08 9.08 0 0 0 1.56 5.33 2.89 2.89 0 0 0 1.06.78c.46.18 1.79.09 1.79.69a.51.51 0 0 1-.51.51c-3.31 0-5-3.4-5.15-6.3a16.36 16.36 0 0 1-4.74 5.61 9.48 9.48 0 0 1-5.84 2.21c-.41 0-1.75-.14-1.75-.74 0-.32.69-.32.92-.32a8.22 8.22 0 0 0 3.17-.51 12.08 12.08 0 0 0 3.45-2.25 12.76 12.76 0 0 0 3.5-4.6 5.11 5.11 0 0 1 .83-1.56 1.05 1.05 0 0 1 .78-.37.74.74 0 0 1 .61.28zm-.87-7.13c0-.46.41-.64.83-.64.74 0 1.1 1 1.1 1.61 0 .37-.18.69-.55.69-.6-.01-1.42-1.11-1.42-1.66z"/><path class="a" d="M97.19 60.66c1 1.52 1 4.55 2.71 5.29a3.57 3.57 0 0 0 1 .18c.23 0 .46.18.46.46a.5.5 0 0 1-.46.51c-4.65 0-3.73-5.47-5.29-5.47-.41 0-.74.41-1 .74a35.4 35.4 0 0 1-3.36 4.28 2 2 0 0 1-1.24.46 1.52 1.52 0 0 1-1.47-1.1c-.55-1.38-.87-2.81-1.43-4.14-.14-.32-.32-.83-.74-.83-1.29 0-3.91 6.21-6.07 6.21a1.51 1.51 0 0 1-1.38-1.66c0-1.56.83-3.27.83-4.83a.92.92 0 0 0-.92-1c-2.81 0-8.19 7.36-13.34 7.36-.46 0-1.75.28-1.75-.51a.5.5 0 0 1 .51-.46 11.8 11.8 0 0 0 7.17-2.76c1.61-1.2 4.51-4 6.16-4.69a3.77 3.77 0 0 1 1.38-.32 2.16 2.16 0 0 1 2.16 2.39c0 1.43-.92 3.13-.92 4.51 0 .23 0 .55.28.55 1.06 0 4-6.44 6.25-6.44 2.44 0 2.07 5.93 3.5 5.93.74 0 3-3.63 3.54-4.28a2.67 2.67 0 0 1 2-1.2 1.68 1.68 0 0 1 1.42.82z"/><path class="a" d="M122.97 66.59a.5.5 0 0 1-.46.51 27.12 27.12 0 0 1-4.14-.28 8.28 8.28 0 0 1-3.22-.92c-1.43 4.92-2.25 6.67-3.63 10.58s-2.35 8-5.2 8c-1.33 0-2.3-1.61-2.3-3.45 0-6.53 8.14-17.25 11.68-22.35 0-.28.09-.55.09-.87s-.23-1.24-.74-1.24a2.36 2.36 0 0 0-1.43 1c-4 5.38-8.23 9.52-12.88 9.52a.48.48 0 0 1-.51-.51.51.51 0 0 1 .51-.51h.37c2.16 0 5.24-1.84 7.22-3.82 2.48-2.44 5.56-7.63 7.45-7.63 1.47 0 1.43 1.93 1.43 2.76A7.14 7.14 0 0 1 120.8 56c1.84 0 4 1.06 4 3.31 0 2.71-3.54 5.93-6.94 6.16a13.36 13.36 0 0 0 4.65.64.49.49 0 0 1 .46.48zm-10.72 3.77c1-3.17 2.16-6 2.9-9-3.4 5.2-4.55 6.62-6.35 9.7a42.87 42.87 0 0 0-2.9 6.58 11.24 11.24 0 0 0-.6 3.36c0 1.38.32 2.12 1.06 2.12 1.2 0 1.89-1.75 2.81-4.23 1.24-3.28 1.93-5.08 3.08-8.53zm4.64-5.52c2.12 0 6.21-2.3 6.21-5.33a2 2 0 0 0-2.21-1.89 7.12 7.12 0 0 0-3.91 1.43 36.92 36.92 0 0 1-1.43 5.61 4.88 4.88 0 0 0 1.35.19z"/><path class="a" d="M143.66 66.46c2.21-1.43 3.13-3.91 4.23-6.16.32-.6.92-1.47 1.66-1.47 1.43 0 1.06 2.62 1.2 3.54a4.34 4.34 0 0 0 3.63 3.68c.37.09 1.29 0 1.29.55a.51.51 0 0 1-.51.51 6.26 6.26 0 0 1-6.3-5.33c-1.15 2.76-3.63 6.48-7 6.48-2.3 0-3.59-1.84-3.59-4a16.79 16.79 0 0 1 .55-3c-.83.41-1.56 1-2.39 1.38-4.09 2.12-9.43 4.51-14 4.51a.5.5 0 0 1-.46-.51c0-.37.37-.46.64-.46 2.9 0 6.67-1.47 9.34-2.62a26.61 26.61 0 0 0 3.59-1.89 19.57 19.57 0 0 0 1.89-1.33c.64-.46 2.3-2.07 3-2.07a1 1 0 0 1 .92 1c0 1.24-1.7 3-1.7 5.24a2.26 2.26 0 0 0 2.39 2.44 2.85 2.85 0 0 0 1.62-.49z"/><path class="a" d="M167.62 45.62c.78-1 2.25-2.39 3.59-2.39s2 1.7 2 2.9c0 3.27-3.13 9.11-5.11 11.68l-1 1.24c-.46.64-.87 1.33-1.38 1.93 1.06 2.53 2.9 5.15 5.93 5.15a.5.5 0 0 1 .51.46.51.51 0 0 1-.51.51c-3.27 0-5.61-2.07-6.94-4.92-2.94 3.31-5.2 4.92-9.75 4.92a.5.5 0 0 1-.46-.51.49.49 0 0 1 .46-.46 10.27 10.27 0 0 0 3.91-.64 14.94 14.94 0 0 0 5.33-4.55 15.12 15.12 0 0 1-.69-4.28 19.64 19.64 0 0 1 4.11-11.04zm2.25 7.17c.87-1.56 2.12-4.42 2.12-6.16 0-.78-.32-1.61-1.24-1.61a1.79 1.79 0 0 0-1.06.41c-2.81 2-4.69 8-4.69 11.27a11.79 11.79 0 0 0 .32 2.85 60 60 0 0 0 4.55-6.75z"/><path class="a" d="M187.9 69.77c-1.33 0-2.9-.46-2.9-2a3.2 3.2 0 0 1 1.29-2.35c1.75-1.52 5.06-2 7.31-2.3-1.1-2.35-4.42-4-6.07-5.89a71 71 0 0 1-8.55 7.22c-2.53 1.79-4 2.67-7.27 2.67a.52.52 0 0 1-.55-.46.51.51 0 0 1 .51-.51 10.35 10.35 0 0 0 5-1.56c3.77-2.16 7-5.33 10.21-8.28a2.51 2.51 0 0 1-.41-1.29c0-1.79 1.61-4.28 3.54-4.28a1.39 1.39 0 0 1 1.43 1.47c0 1.52-1.79 3.27-2.9 4.14h-.09c1.66 1.56 3.4 2.9 5.1 4.42a5.36 5.36 0 0 1 1.47 2.07c.46 0 1.47-.09 1.75-.09a.51.51 0 0 1 .51.51.51.51 0 0 1-.51.51h-1.47c.33 3.51-4.41 6-7.4 6zm5.93-5.47v-.28c-1.93.18-7.63 1-7.63 3.59 0 .92.92 1.2 1.7 1.2 2.34-.01 5.93-1.8 5.93-4.52zm-5.93-9.43a1.73 1.73 0 0 0 0 .51c.55-.51 2.21-2.07 2.21-2.85a.39.39 0 0 0-.41-.41c-.93-.01-1.8 1.96-1.8 2.75z"/><path class="a" d="M207.19 58.64a4.81 4.81 0 0 1 .28 1.66c.18 1.66.41 3.5 1.56 4.83a2.92 2.92 0 0 0 2.35 1c.23 0 .51.18.51.46a.51.51 0 0 1-.51.51 4.85 4.85 0 0 1-3.68-1.89 13 13 0 0 1-1.75-5.56 25.05 25.05 0 0 1-6 3.63 12.71 12.71 0 0 1-3.22.51.51.51 0 0 1-.51-.51.5.5 0 0 1 .46-.51 7.76 7.76 0 0 0 2.3-.37 14.67 14.67 0 0 0 2.71-1.29c.83-.51 4-2.9 4.74-2.9a.71.71 0 0 1 .76.43zm-1-7.22c0-.46.41-.64.83-.64.74 0 1.15 1 1.15 1.56 0 .32-.18.74-.55.74-.64-.01-1.37-1.07-1.37-1.66z"/><path class="a" d="M230.34 62.64a17.92 17.92 0 0 0 2.71.14.51.51 0 0 1 .51.51.51.51 0 0 1-.51.51 17.78 17.78 0 0 1-3-.18c-.92 2.44-3.63 4.65-6.12 4.65-1.93 0-2.94-1.66-2.94-3.4a6.15 6.15 0 0 1 .14-1.29c-2.9 2-5.66 3.54-9.24 3.54-.41 0-1.1.09-1.1-.51a.5.5 0 0 1 .51-.46 17.91 17.91 0 0 0 2.21-.18 14.56 14.56 0 0 0 3.91-1.33 14.34 14.34 0 0 0 3.5-2.16 8.28 8.28 0 0 0 .92-.87l.41-.64a11.49 11.49 0 0 1 1.24-1.7c.83-1 2.35-2.48 3.73-2.48s1.84 1.15 1.84 2.3a3.41 3.41 0 0 1 1.33 2.85 4 4 0 0 1-.05.7zm-1.66.6c-1.38-.46-2.58-1.33-2.58-3 0-1 .74-1.47 1.79-1.56a.93.93 0 0 0-.78-.51 1.83 1.83 0 0 0-1.15.41 9.33 9.33 0 0 0-3.5 6.39 1.88 1.88 0 0 0 1.93 2c1.31.04 3.52-1.53 4.3-3.73zm.28-1a3 3 0 0 0 0-.64c0-1-.51-1.75-1.29-1.75-.18 0-.28.18-.28.37a2.07 2.07 0 0 0 1.57 2.05z"/><path class="a" d="M252.83 61.86c.6 1.93.87 4.28 3.45 4.28a.5.5 0 0 1 .51.46.51.51 0 0 1-.51.51c-5.06 0-4.28-6.07-5.79-6.07-1.29 0-3.91 6.21-6.07 6.21-1 0-1.33-.87-1.33-1.7 0-1.52.78-3.17.78-4.55 0-.6-.14-1.2-.83-1.2-1.79 0-5.2 4-10 4a.51.51 0 0 1-.51-.51.51.51 0 0 1 .51-.51 9.85 9.85 0 0 0 3.59-.92c1.79-.87 4.69-3.5 6.48-3.5a2.16 2.16 0 0 1 2.16 2.39c0 1.43-.92 3.13-.92 4.51 0 .23 0 .55.28.55 1 0 4.14-6.48 6.25-6.48 1.21 0 1.67 1.61 1.95 2.53z"/><path class="a" d="M271.91 62.64a5.5 5.5 0 0 0 .6 1.43 3.54 3.54 0 0 0 3.08 2.11.5.5 0 0 1 .51.46.51.51 0 0 1-.51.51c-4.09 0-4.69-4-5.75-4s-2.44 5-6.48 5a2.28 2.28 0 0 1-2.48-2.44v-.28a6.8 6.8 0 0 1-4.69 1.79.46.46 0 0 1-.51-.51.49.49 0 0 1 .46-.46c2.07 0 3.82-1.47 5.33-2.76 1.1-2 3.5-4.37 5.93-4.37a3.3 3.3 0 0 1 2.85 1.47c1.34-.25 1.39 1.13 1.66 2.05zm-3.27-1.06c-.37-.6-.78-1.15-1.52-1.15-1.93 0-4.69 3.08-4.69 4.92a1.25 1.25 0 0 0 1.33 1.33c2.08.01 3.78-3.67 4.89-5.1z"/><path class="a" d="M303.09 59.83c0 .18-.18.23-.32.23a8 8 0 0 1-1.52-.23 10.87 10.87 0 0 0-1.75-.09c-4.92 0-8.19 2.81-10.95 6.62-.32.46-1.06 1.43-1.7 1.43-1.61 0-1.15-5.29-1.33-6.35 0-.23-.14-.51-.41-.51-1 0-5.24 6.16-9.38 6.16-.32 0-.74 0-.74-.51 0-.28.28-.41.51-.46a6.3 6.3 0 0 0 1.84-.41c2.35-1.06 4.69-3.63 6.53-5.47a2.59 2.59 0 0 1 1.66-1c1.38 0 1.33 2.16 1.33 3.08v3c0 .23 0 .64.32.64s1.2-1.29 1.33-1.43a22.71 22.71 0 0 1 2.53-2.62 14.11 14.11 0 0 1 8.92-3.27c.79.04 3.13.09 3.13 1.19z"/></svg>