<svg xmlns="http://www.w3.org/2000/svg" viewBox="0 0 164.11 22.84"><defs><style>.a{fill:#fff}</style></defs><title>p2_s1</title><path class="a" d="M3.08 19.37C2 18.85 0 17.77 0 16.93c0-.2.2-.36.56-.36.68 0 1.48.68 1.92.92a15 15 0 0 0 7.92 2.4c3.08 0 6.24-1.44 6.24-4.16s-2.92-3.44-6.28-4c-5.12-.88-7.4-1.6-7.4-4.24C2.96 3.25 9.6.05 14.16.05a7.93 7.93 0 0 1 2.4.36s1.16.36 1.16 1c0 .24-.12.36-.32.36a10 10 0 0 1-1.32-.32 12.31 12.31 0 0 0-2-.16 11.94 11.94 0 0 0-4.68 1c-2 .84-5 2.52-5 5 0 1.6 1.36 2.24 3.72 2.72 3.64.72 10 1.76 10 5.76 0 2.76-2.8 5.44-7.92 5.44a17.25 17.25 0 0 1-2-.12 19.87 19.87 0 0 1-5.12-1.72zm26.92-6c0 2-3.92 2.76-5.4 3.28a.59.59 0 0 1-.28.08v.44a2.5 2.5 0 0 0 2.6 2.52c.24 0 .44.12.44.4a.44.44 0 0 1-.44.44c-1.92 0-4-1.4-3.84-3.48a14.78 14.78 0 0 1-2.64.28c-.36 0-1.2-.24-1.2-.72 0-.28.44-.28.64-.28a16.11 16.11 0 0 0 3.4-.4v-.16a6.13 6.13 0 0 1 3.08-3.88 2.78 2.78 0 0 1 1.4-.32 2 2 0 0 1 2.24 1.8zm-1.64 0c0-.4-.44-.52-.8-.52-1.44 0-2.56 1.56-3 2.8.91-.21 3.8-1.28 3.8-2.33z"/><path class="a" d="M55.28 19.72c0 .64-1 .72-1.24.92a2.27 2.27 0 0 1-.52 0c-2.44 0-3.52-2.72-3.72-4.8a6.33 6.33 0 0 1-.72 1.48c-1.16 1.92-2.84 4.16-5.36 4.16A3.19 3.19 0 0 1 40.6 18a14.68 14.68 0 0 1 .48-2.64c-.72.36-1.36.84-2.08 1.2-3.52 1.84-8.2 3.92-12.16 3.92a.44.44 0 0 1-.44-.44c0-.32.32-.4.56-.4 2.52 0 5.8-1.28 8.12-2.28a23.17 23.17 0 0 0 3.12-1.64 17.16 17.16 0 0 0 1.64-1.16c.56-.4 2-1.8 2.64-1.8a.85.85 0 0 1 .8.88c0 1.08-1.48 2.6-1.48 4.56a2 2 0 0 0 2.08 2.12 2.47 2.47 0 0 0 1.4-.4c1.92-1.24 2.72-3.4 3.68-5.36.28-.52.8-1.28 1.48-1.28s1 1 1 1.6c0 .48-.12 1-.12 1.44 0 1.48.48 3.44 2.32 3.44.48 0 1-.24 1.4-.24.12.04.24.04.24.2zm31.56-2.52a.44.44 0 0 1-.44.44h-1.36c.24 3.12-3.8 5.16-6.48 5.16-1.12 0-2.48-.44-2.48-1.8 0-2.92 5.48-3.8 7.6-4-1-2-4.2-3.44-5.52-5.16a24.13 24.13 0 0 1-3.4 2.64c-1.28.8-4 2.48-5.52 2.48-.28 0-.92-.12-.92-.52s1-.44 1.2-.52a15.72 15.72 0 0 0 3.24-1.48 29.56 29.56 0 0 0 4.8-3.52 2.73 2.73 0 0 1-.28-1.12c0-1.44 1.48-3.56 3-3.56a1.25 1.25 0 0 1 1.28 1.32c0 1.6-1.56 2.6-2.6 3.52a45.31 45.31 0 0 0 4.68 4.08 3.94 3.94 0 0 1 1.24 1.68c.4 0 1.28-.08 1.52-.08a.44.44 0 0 1 .44.44zm-3 .6c-1.64.16-6.72.84-6.72 3.08 0 .84.76 1.12 1.48 1.12 2.16 0 5.28-1.44 5.28-4.2zm-3.44-10a.33.33 0 0 0-.36-.32c-.84 0-1.6 1.68-1.6 2.36v.28c.56-.44 2.03-1.6 2.03-2.32z"/><path class="a" d="M100.04 16.64a15.66 15.66 0 0 0 2.36.12.44.44 0 0 1 .44.44.44.44 0 0 1-.44.44 15.59 15.59 0 0 1-2.6-.16c-.8 2.12-3.16 4-5.32 4a2.68 2.68 0 0 1-2.56-3v-.24a3.35 3.35 0 0 1 0-.56 9 9 0 0 1 .52-1.68 12.66 12.66 0 0 1-6.12 1.56.44.44 0 0 1-.44-.44.44.44 0 0 1 .44-.44 14.45 14.45 0 0 0 7.08-2.32c1.16-1.68 2.68-2.92 3.88-2.92s1.6 1 1.6 2a3 3 0 0 1 1.16 2.48 3.44 3.44 0 0 1 0 .72zm-1.44.52a2.77 2.77 0 0 1-2.24-2.6c0-.84.64-1.28 1.56-1.36a.81.81 0 0 0-.68-.44 1.59 1.59 0 0 0-1 .36 8.12 8.12 0 0 0-3 5.56 1.64 1.64 0 0 0 1.68 1.76c1.08 0 3-1.36 3.68-3.28zm.24-.84v-.56c0-.84-.44-1.52-1.12-1.52-.16 0-.24.16-.24.32a1.8 1.8 0 0 0 1.36 1.76z"/><path class="a" d="M119.6 15.96c.52 1.68.76 3.72 3 3.72a.44.44 0 0 1 .44.4.44.44 0 0 1-.44.44c-4.4 0-3.72-5.28-5-5.28-1.12 0-3.4 5.4-5.28 5.4-.84 0-1.16-.76-1.16-1.48 0-1.32.68-2.76.68-4 0-.52-.12-1-.72-1-1.56 0-4.52 3.48-8.72 3.48a.44.44 0 0 1-.44-.44.44.44 0 0 1 .44-.44 8.57 8.57 0 0 0 3.12-.8c1.56-.76 4.08-3 5.64-3a1.88 1.88 0 0 1 1.88 2.08c0 1.24-.8 2.72-.8 3.92 0 .2 0 .48.24.48.88 0 3.6-5.64 5.44-5.64 1.04-.04 1.44 1.36 1.68 2.16z"/><path class="a" d="M140.64 16.04a17.39 17.39 0 0 0 2.24 2.88 2.22 2.22 0 0 0 1.44.76c.2 0 .44.16.44.4a.44.44 0 0 1-.44.44c-2 0-3-1.92-4.12-3.32-.56-.72-.92-1.64-2-1.64-1.92 0-3.8 5.32-6.4 5.32-1.72 0-2.32-2.4-2.52-3.72-1.6 1.44-4.56 3.4-6.76 3.4a.44.44 0 0 1-.44-.44.44.44 0 0 1 .44-.44 4.24 4.24 0 0 0 1.56-.36 19.2 19.2 0 0 0 5.12-3.44v-.32a25 25 0 0 1 2.68-10.76c.56-1 1.88-2.88 3.24-2.88 1.2 0 1.36 1.64 1.36 2.52a15.4 15.4 0 0 1-3.48 9 20.6 20.6 0 0 1-2.16 2.4 3.76 3.76 0 0 0-.4.4c0 .8.28 3.36 1.4 3.36 1.76 0 3.8-5.2 6.48-5.2 1.04-.03 1.8.88 2.32 1.64zm-7.88-10.36a20.78 20.78 0 0 0-2.36 9c2-2.24 5-6.68 5-9.84 0-.4-.08-1.32-.68-1.32-.76 0-1.64 1.56-1.96 2.16z"/><path class="a" d="M164.12 17.37c0 .8-1.52.72-2 .72a4.32 4.32 0 0 1-1.6-.24 6 6 0 0 1-5.28 3.68c-1.68 0-2.52-1.56-2.52-3.08a4.62 4.62 0 0 1 .12-1c-2.56 1.76-4.92 3.08-8.08 3.08-.36 0-.92.08-.92-.44a.44.44 0 0 1 .44-.4 15.52 15.52 0 0 0 1.92-.16 15.44 15.44 0 0 0 6.44-3l.84-.76c.76-1.52 2.76-4.08 4.6-4.08 1.12 0 1.6 1.16 1.6 2.16a3 3 0 0 1 1.16 2.48 4.89 4.89 0 0 1-.08.76 5.65 5.65 0 0 0 1.84.2c.16-.05 1.52-.21 1.52.08zm-4.64 0c-.84-.44-2.4-1.6-2.4-2.64 0-.84.8-1.24 1.52-1.28a.65.65 0 0 0-.6-.44 2.12 2.12 0 0 0-.92.32 7 7 0 0 0-3.12 5.36 1.5 1.5 0 0 0 1.6 1.64 4.3 4.3 0 0 0 3.91-2.96zm.16-1.08c0-.56-.48-1.8-1.16-1.8-.16 0-.28.2-.28.36 0 .68 1 1.16 1.44 1.56z"/></svg>