<svg xmlns="http://www.w3.org/2000/svg" viewBox="0 0 616.55 46.88"><defs><style>.a{opacity:.98;isolation:isolate}.b{fill:#fff}</style></defs><title>p2_s8</title><g class="a"><path class="b" d="M38.65 14.56a26.4 26.4 0 0 1-4.88 15.2 47.62 47.62 0 0 1-3.2 4.08c2.4 2.8 3.76 4.24 5.6 6.48a9.1 9.1 0 0 1 1.2 2.08c0 .4-.4.56-.8.56-1.2 0-2.24-.88-7.84-7.2-4.24 4.16-9.76 7.68-16 7.68-5.28 0-12.72-3-12.72-13.6 0-4.16 1.44-8.72 5.2-14.32 4.16-6.16 5.76-7.68 8.4-10.08 2.72-2.56 4.48-3.28 5.84-3.28a5.93 5.93 0 0 1 2.32.64C23.05 1.6 26.09.64 28.33.64c4.64 0 8.72 2.8 10.16 11.2.08.8.16 1.76.16 2.72zm-2.61.25c0-5.52-2.16-12-8.16-12a17.23 17.23 0 0 0-4.8 1.28 5.18 5.18 0 0 1 .88 2.48c-.08.56-.32.64-.56.64-1.36 0-1.6-2-3.28-2-2 0-4.8 2-6.24 3.36A43.73 43.73 0 0 0 7 17.13a24.47 24.47 0 0 0-4 12.8c0 7.52 5 10.88 10.4 10.88a10.64 10.64 0 0 0 3.2-.4c2.4-.72 6.48-3 10.24-6.56a52.72 52.72 0 0 1-4.64-5 3.92 3.92 0 0 1-.56-1.84c0-.32 0-1.52 1.2-1.52.4 0 1 .24 1.68 1.12l4.32 5.2c3.52-3.92 6.48-8.88 7.12-14.56.08-.77.08-1.65.08-2.44zM64.64 34a7.64 7.64 0 0 0 6.32 6.4c.64.16 2.24 0 2.24 1a.89.89 0 0 1-.88.88 10.89 10.89 0 0 1-11-9.28 14.45 14.45 0 0 1-1.44 3c-2.24 3.92-5.68 8.4-10.64 8.4-4.32 0-6.24-3.44-6.24-7.28 0-2.08 1.2-10.24 3.84-10.24a1.32 1.32 0 0 1 1.44 1.36c0 1.84-2.64 5.12-2.64 8.8 0 2.72 1 5 4 5a4.71 4.71 0 0 0 2.72-.8c3.92-2.64 5.28-6.64 7.28-10.64.48-1 1.6-2.64 3-2.64 2.4-.15 1.76 4.44 2 6.04z"/><path class="b" d="M99.52 34.48a9.6 9.6 0 0 0 1 2.48c1.2 2.08 2.88 3.6 5.36 3.6a.87.87 0 0 1 .88.8.89.89 0 0 1-.88.88c-7.12 0-8.16-7-10-7s-4.2 8.57-11.24 8.57a4 4 0 0 1-4.32-4.24v-.48c-2.8 2.08-4.56 3.12-8.16 3.12a.8.8 0 0 1-.88-.88.86.86 0 0 1 .8-.8c3.6 0 6.64-2.56 9.28-4.8 1.92-3.44 6.08-7.6 10.32-7.6a5.73 5.73 0 0 1 5 2.56c2.28-.21 2.36 2.19 2.84 3.79zm-5.68-1.84c-.64-1-1.36-2-2.64-2-3.36 0-8.16 5.36-8.16 8.56a2.18 2.18 0 0 0 2.32 2.32c3.6 0 6.56-6.4 8.48-8.88z"/><path class="b" d="M138.4 40.88c0 1.2-2.16 1.36-3 1.36-6 0-10.24-3.2-12.72-8.56-4.88 5.68-9.2 8.56-16.88 8.56a.89.89 0 0 1-.88-.88.87.87 0 0 1 .88-.8 16.1 16.1 0 0 0 6.72-1.12c3.84-1.6 6.8-4.72 9.36-7.92a23 23 0 0 1-1.28-7.36c0-6.48 3-14.24 7-19.28 1.36-1.68 3.92-4.16 6.24-4.16 2.56 0 3.6 3 3.6 5.12 0 5.84-5.6 15.68-9 20.24-.56.72-1.12 1.44-1.6 2.16a36.56 36.56 0 0 1-2.48 3.36c1.84 4.4 5.12 8.8 10.4 8.8.6 0 3.64-.4 3.64.48zm-7.2-36.32c-4.88 3.36-8.08 13.84-8.08 19.52a21.65 21.65 0 0 0 .56 5l.56-.88c.8-1.12 1.68-2.16 2.4-3.2a77.66 77.66 0 0 0 4.88-7.68c1.52-2.72 3.68-7.68 3.68-10.72 0-1.36-.56-2.8-2.16-2.8a3.72 3.72 0 0 0-1.84.76zm58.4 33.12c0 2.4-4.64 3.84-6.48 4.24a15.24 15.24 0 0 1-3.28.32c-4.08 0-7.68-2.72-7.68-7a30.54 30.54 0 0 1-5.36.56c-.72 0-2.32-.48-2.32-1.44 0-.56.88-.56 1.28-.56a32.15 32.15 0 0 0 6.72-.8c.08-.08.08-.16.08-.32.88-3.92 4.8-8.4 9-8.4 2.08 0 4.4 1.2 4.4 3.52a4.44 4.44 0 0 1-.48 1.76c-1.2 2.4-7.76 4.08-10.24 4.88a1.88 1.88 0 0 1-.64.16v.72c0 3.28 2.08 5 5.2 5.2h.08a12.53 12.53 0 0 0 7.52-2.16 18.79 18.79 0 0 1 1.68-1.28c.44.04.52.2.52.6zm-14.4-5.28c1.84-.4 7.52-2.4 7.52-4.56 0-.88-.88-1-1.6-1-2.8-.03-5.2 3.08-5.92 5.56zm2.64-11.84c-.32 0-.48-.08-.48-.32 0-.56 5.36-5.2 6.64-5.2.64 0 1.2.32 1.2.8 0 1-4.88 4.16-6.64 4.64a2.21 2.21 0 0 1-.72.08zm61.36 15.92h-2.08a18.32 18.32 0 0 1-4.16-.4c-1.52 4.16-5.52 8.24-10.48 8.24-3.44 0-5-3.12-5-6.16 0-3.52 1.92-7 4.16-9.6 1.44-1.76 4.08-4.24 6.48-4.24s3.28 2.24 3.28 4.24a4.07 4.07 0 0 1 2.32 4 11.91 11.91 0 0 1-.16 1.68 10.75 10.75 0 0 0 2.8.4c1.12.08 1.92.08 2.88.08.4 0 1.12.24 1.12.72a1.2 1.2 0 0 1-1.16 1.04zm-8.32-1c-2.64-.8-4.56-2.88-4.56-5 0-1.68 1.44-2.48 3-2.48a1.3 1.3 0 0 0-1.2-.88 3.92 3.92 0 0 0-1.84.64c-3.44 1.84-6.24 7-6.24 10.88a3 3 0 0 0 3.2 3.28c3.72 0 6.68-3.11 7.64-6.48zm.48-3a2.43 2.43 0 0 0-2.32-2.32c-.4 0-.56.48-.56.8 0 1.2 1.44 2.48 2.8 2.64a6.53 6.53 0 0 0 .08-1.2zm72.08 3.12a.89.89 0 0 1-.88.88c-.32 0-1.6 0-2.72.08.48 6.24-7.6 10.32-13 10.32-2.24 0-5-.88-5-3.6 0-5.84 11-7.6 15.2-8v-.08c-2-4.08-8.4-6.88-11-10.32a48.28 48.28 0 0 1-6.8 5.28c-2.56 1.6-8.08 5-11 5-.56 0-1.84-.24-1.84-1 0-.64 1.92-.88 2.4-1a31.63 31.63 0 0 0 6.48-3 59.28 59.28 0 0 0 9.6-7 5.45 5.45 0 0 1-.56-2.24c0-2.88 3-7.12 6.08-7.12a2.5 2.5 0 0 1 2.56 2.64c0 3.2-3.12 5.2-5.2 7h-.08c2.72 3 6.24 5.52 9.36 8.16a7.86 7.86 0 0 1 2.48 3.36c.8-.08 2.56-.16 3-.16a.89.89 0 0 1 .92.8zm-5.92 1.2c-3.28.32-13.44 1.68-13.44 6.16 0 1.68 1.52 2.24 3 2.24 4.2 0 10.44-2.88 10.44-8.39zm-6.88-20a.65.65 0 0 0-.72-.64c-1.68 0-3.2 3.36-3.2 4.72v.56c1.04-.88 3.92-3.2 3.92-4.63z"/><path class="b" d="M323.2 27.92c0 3.76-8.48 6.32-11.2 7.28l-.16.08v.53c0 3.12 2.32 4.48 5.12 4.8.4.08.88.32.88.8a.89.89 0 0 1-.88.88 7.5 7.5 0 0 1-7.52-5.52c-.08-.24 0-.8-.16-1a39.32 39.32 0 0 1-6.8.72.89.89 0 0 1-.88-.88.89.89 0 0 1 .88-.88 29 29 0 0 0 7-.8c.88-4.32 4.4-9.6 9.36-9.6 2.04-.01 4.36 1.19 4.36 3.59zm-3.28-.08c0-.8-.88-1-1.6-1-3.2 0-5.6 3.76-6.24 6.56 1.96-.44 7.84-3.32 7.84-5.59z"/><path class="b" d="M373.76 40.64c0 1.28-1.92 1.44-2.48 1.84a4.56 4.56 0 0 1-1 .08c-4.88 0-7-5.44-7.44-9.6a12.67 12.67 0 0 1-1.44 3c-2.32 3.84-5.68 8.32-10.72 8.32-3.92 0-6.24-3.2-6.24-7a29.21 29.21 0 0 1 1-5.28c-1.44.72-2.72 1.68-4.16 2.4-7 3.68-16.4 7.84-24.32 7.84a.89.89 0 0 1-.88-.88c0-.64.64-.8 1.12-.8 5-.08 11.6-2.56 16.24-4.56a46.33 46.33 0 0 0 6.24-3.28 34.16 34.16 0 0 0 3.28-2.32c1.12-.8 4-3.6 5.28-3.6a1.69 1.69 0 0 1 1.6 1.76c0 2.16-3 5.2-3 9.12a3.93 3.93 0 0 0 4.16 4.24 5 5 0 0 0 2.8-.8c3.84-2.48 5.44-6.8 7.36-10.72.56-1 1.6-2.56 3-2.56 1.6 0 1.92 1.92 1.92 3.2 0 1-.24 1.92-.24 2.88 0 3 1 6.88 4.64 6.88 1 0 1.92-.48 2.8-.48.24 0 .48 0 .48.32zm63.12-5.04a.89.89 0 0 1-.88.88c-.32 0-1.6 0-2.72.08.48 6.24-7.6 10.32-13 10.32-2.24 0-5-.88-5-3.6 0-5.84 11-7.6 15.2-8v-.08c-2-4.08-8.4-6.88-11-10.32a48.28 48.28 0 0 1-6.8 5.28c-2.56 1.6-8.08 5-11 5-.56 0-1.84-.24-1.84-1 0-.64 1.92-.88 2.4-1a31.63 31.63 0 0 0 6.48-3 59.28 59.28 0 0 0 9.6-7 5.45 5.45 0 0 1-.56-2.24c0-2.88 3-7.12 6.08-7.12a2.5 2.5 0 0 1 2.56 2.64c0 3.2-3.12 5.2-5.2 7h-.08c2.72 3 6.24 5.52 9.36 8.16a7.86 7.86 0 0 1 2.48 3.36c.8-.08 2.56-.16 3-.16a.89.89 0 0 1 .92.8zm-5.92 1.2c-3.28.32-13.44 1.68-13.44 6.16 0 1.68 1.52 2.24 3 2.24 4.2 0 10.44-2.88 10.44-8.39zm-6.92-19.99a.65.65 0 0 0-.72-.64c-1.68 0-3.2 3.36-3.2 4.72v.56c1.08-.89 3.92-3.21 3.92-4.64z"/><path class="b" d="M463.28 34.48a31.08 31.08 0 0 0 4.72.24.89.89 0 0 1 .88.88.89.89 0 0 1-.88.88 31 31 0 0 1-5.2-.32c-1.6 4.24-6.32 8.08-10.64 8.08-3.36 0-5.12-2.88-5.12-5.92v-.51a6.53 6.53 0 0 1 .08-1.12 18 18 0 0 1 1-3.36 25.33 25.33 0 0 1-12.24 3.12.89.89 0 0 1-.88-.88.89.89 0 0 1 .88-.88c5.2 0 9.76-2.16 14.16-4.64 2.32-3.36 5.36-5.84 7.76-5.84s3.2 2 3.2 4a5.92 5.92 0 0 1 2.32 5 6.87 6.87 0 0 1-.04 1.27zm-2.88 1c-2.4-.8-4.48-2.32-4.48-5.2 0-1.68 1.28-2.56 3.12-2.72a1.63 1.63 0 0 0-1.36-.88 3.19 3.19 0 0 0-2 .72c-3 2.16-6.08 7.36-6.08 11.12a3.28 3.28 0 0 0 3.36 3.52c2.24.04 6.08-2.68 7.44-6.52zm.48-1.68c0-.32.08-.72.08-1.12 0-1.68-.88-3-2.24-3-.32 0-.48.32-.48.64a3.6 3.6 0 0 0 2.64 3.49z"/><path class="b" d="M502.4 33.12c1 3.36 1.52 7.44 6 7.44a.87.87 0 0 1 .88.8.89.89 0 0 1-.88.88c-8.8 0-7.44-10.56-10.08-10.56-2.24 0-6.8 10.8-10.56 10.8-1.68 0-2.32-1.52-2.32-3 0-2.64 1.36-5.52 1.36-7.92 0-1-.24-2.08-1.44-2.08-3.12 0-9 7-17.44 7a.89.89 0 0 1-.88-.88.89.89 0 0 1 .88-.88 17.15 17.15 0 0 0 6.24-1.6c3.12-1.52 8.16-6.08 11.28-6.08 2.48 0 3.76 1.92 3.76 4.16 0 2.48-1.6 5.44-1.6 7.84 0 .4 0 1 .48 1 1.76 0 7.2-11.28 10.88-11.28 2.16-.04 2.96 2.76 3.44 4.36z"/><path class="b" d="M544.48 33.28a34.74 34.74 0 0 0 4.48 5.76 4.45 4.45 0 0 0 2.88 1.52c.4.08.88.32.88.8a.89.89 0 0 1-.88.88c-4 0-6.08-3.84-8.24-6.64-1.12-1.44-1.84-3.28-4-3.28-3.84 0-7.6 10.64-12.8 10.64-3.44 0-4.64-4.8-5-7.44-3.2 2.88-9.12 6.8-13.52 6.8a.89.89 0 0 1-.88-.88.89.89 0 0 1 .88-.88 8.47 8.47 0 0 0 3.12-.72 38.38 38.38 0 0 0 10.24-6.88v-.64a50 50 0 0 1 5.32-21.51c1.12-2.08 3.76-5.76 6.48-5.76 2.4 0 2.72 3.28 2.72 5 0 6.56-3.12 12.8-7 17.92a41 41 0 0 1-4.32 4.8 7.63 7.63 0 0 0-.8.8c-.08 1.6.56 6.72 2.8 6.72 3.52 0 7.6-10.4 13-10.4 2.08.03 3.6 1.92 4.64 3.39zm-15.76-20.72a41.55 41.55 0 0 0-4.72 18c4-4.48 10.08-13.36 10.08-19.68 0-.8-.16-2.64-1.36-2.64-1.6 0-3.36 3.12-4 4.32z"/><path class="b" d="M591.44 36c0 1.6-3 1.44-4.08 1.44a8.63 8.63 0 0 1-3.2-.48 12 12 0 0 1-10.56 7.36c-3.36 0-5-3.12-5-6.16a9.23 9.23 0 0 1 .24-2.08c-5.12 3.52-9.84 6.16-16.16 6.16-.72 0-1.84.16-1.84-.88a.87.87 0 0 1 .88-.8 31 31 0 0 0 3.84-.32 30.89 30.89 0 0 0 12.88-6.08l1.68-1.52c1.52-3 5.52-8.16 9.2-8.16 2.24 0 3.2 2.32 3.2 4.32 1.6 1 2.32 3.2 2.32 5a9.81 9.81 0 0 1-.16 1.52 11.33 11.33 0 0 0 3.68.4c.36-.04 3.08-.36 3.08.28zm-9.28 0c-1.68-.88-4.8-3.2-4.8-5.28 0-1.68 1.6-2.48 3-2.56a1.3 1.3 0 0 0-1.2-.88 4.25 4.25 0 0 0-1.84.64c-3.28 1.76-6.24 7-6.24 10.72a3 3 0 0 0 3.2 3.28 8.59 8.59 0 0 0 7.88-5.92zm.32-2.16c0-1.12-1-3.6-2.32-3.6-.32 0-.56.4-.56.72 0 1.36 2.08 2.32 2.88 3.12zm17.44 5.36a2.36 2.36 0 0 1 2.56 2.08 2.12 2.12 0 0 1-1.84 2 3 3 0 0 1-2.8-2.48 1.25 1.25 0 0 1 1-1.2 1.5 1.5 0 0 1 1.08-.4zm15.2-25.76c-1.92 3.28-6.32 4-9 6.64-2.56 2.4-3 6.72-3.76 9.76-.32.64-.72 1.12-1.12 1.12-.56 0-.64-.56-.64-1.12a15.14 15.14 0 0 1 .48-3.76 10 10 0 0 1 3-7.2c3.44-3.36 9.76-4.48 9.76-10.72 0-3.12-2.24-5.68-6.16-5.68a9.92 9.92 0 0 0-6.16 2.4 1.45 1.45 0 0 1-1.12.48 1.16 1.16 0 0 1-1.12-1.2 1.58 1.58 0 0 1 .4-1.12c1.76-2 5-3 7.76-3a12 12 0 0 1 1.76.16c5.6 1.2 7.36 4 7.36 8.56a9.79 9.79 0 0 1-1.44 4.68z"/></g></svg>