<svg xmlns="http://www.w3.org/2000/svg" viewBox="0 0 550.44 41.29"><title>p2_s4</title><path d="M11.13.17c2.69 0 4.79 1.26 4.79 3.44 0 5.29-7.86 7.23-10.67 8.7L1.47 23.53c-.29.84-.67 1.3-1 1.3s-.5-.25-.5-.8a12 12 0 0 1 .76-2.52c.84-2.6 1.89-5.63 2.81-8.44a1.58 1.58 0 0 1-.42 0c-.46 0-1.26-.34-1.26-.67s.55-.59 2.27-1c1.22-3.74 2.35-6.85 2.6-7.69l.38-1.26a11.87 11.87 0 0 0-1.93 1.22c-.84.67-1.51 1.81-2.06 1.81a.86.86 0 0 1-.88-.84c0-.46.55-1 1.55-1.6a24.73 24.73 0 0 1 2.9-1.89 10.19 10.19 0 0 1 4.44-.98zm3 3.61c0-1.43-1.05-2.48-2.94-2.48a7.54 7.54 0 0 0-2.35.42c-.5 1.64-1.72 5.17-3.11 9.12 2.73-1 5.63-2.31 7.35-4.5a4.14 4.14 0 0 0 1.08-2.56zM24.99 22.14c-3.74 0-4.33-3.7-5.25-3.7s-2.27 4.54-5.88 4.54a2.15 2.15 0 0 1-2.35-2.31c0-2.52 3.45-5.92 6-5.92a2.77 2.77 0 0 1 2.56 1.34c1.22-.13 1.3 1.13 1.55 2a7 7 0 0 0 .5 1.3 3.29 3.29 0 0 0 2.86 1.89.46.46 0 0 1 .46.42.47.47 0 0 1-.45.44zm-10.84-.38c1.18 0 2.48-1.64 3.11-2.52.46-.67.84-1.47 1.34-2.14-.34-.55-.67-1.05-1.39-1.05-1.72 0-4.24 2.82-4.24 4.5a1.11 1.11 0 0 0 1.18 1.21z" fill="#3c1604"/><path d="M43.13 21.26a.46.46 0 0 1 .46.42.47.47 0 0 1-.46.46c-2.14 0-4.5-1-4.5-3.53 0-1.81 1.13-3.49 1.13-5.29 0-1.13-1.26-1.68-2.14-2.06h-.13a26 26 0 0 1-4.45 5.63c-1.85 1.76-3.49 3.65-5.8 4.79a4.73 4.73 0 0 1-2.14.5c-.29 0-.67 0-.67-.46a.45.45 0 0 1 .42-.42 4.66 4.66 0 0 0 1.68-.38c2.56-1.13 8.74-7.35 10.08-10.17-1-.5-2.06-1.22-2.06-2.44a1.82 1.82 0 0 1 1.85-1.76 2.05 2.05 0 0 1 2.06 2 4 4 0 0 1-.38 1.55h.13c1.43.63 2.86 1.39 2.86 3.19s-.84 3.32-1.18 5a1.43 1.43 0 0 0 0 .42c-.03 1.62 1.86 2.55 3.24 2.55zM37.04 9.58a3.2 3.2 0 0 0 .13-.88c0-.34-.17-.84-.63-.84a.68.68 0 0 0-.67.63c.05.42.8.79 1.17 1.09z" fill="#3c1604"/><path d="M63.84 20.58c0 1-2.18 1.55-3 1.55-3.78 0-4.33-3.7-5.25-3.7s-2.27 4.54-5.92 4.54a2.11 2.11 0 0 1-2.31-2.27v-.21a6.39 6.39 0 0 1-4.08 1.64c-.34 0-.67 0-.67-.46a.46.46 0 0 1 .46-.42c1.89 0 3.45-1.34 4.83-2.52 1-1.85 3.23-4 5.46-4a2.85 2.85 0 0 1 2.56 1.36 1.16 1.16 0 0 1 1.18.71 7.11 7.11 0 0 1 .38 1.26c.46 1.64 1.47 3.19 3.36 3.19a7.21 7.21 0 0 0 2.77-1c.15.04.23.17.23.33zm-9.41-3.49c-.34-.55-.67-1.05-1.39-1.05-1.72 0-4.24 2.82-4.24 4.5a1.12 1.12 0 0 0 1.18 1.22c1.89 0 3.44-3.36 4.45-4.66zM88.03 14.33a1.55 1.55 0 0 1 .29 1.13 8.29 8.29 0 0 0 1.43 4.87 2.63 2.63 0 0 0 1 .71c.42.17 1.64.08 1.64.63a.47.47 0 0 1-.46.46c-3 0-4.54-3.11-4.7-5.75a14.94 14.94 0 0 1-4.33 5.12 8.66 8.66 0 0 1-5.33 2c-.38 0-1.6-.13-1.6-.67 0-.29.63-.29.84-.29a7.52 7.52 0 0 0 2.9-.46 11 11 0 0 0 3.15-2.06 11.64 11.64 0 0 0 3.19-4.2 4.66 4.66 0 0 1 .76-1.43 1 1 0 0 1 .71-.34.68.68 0 0 1 .51.28zm-.8-6.51c0-.42.38-.59.76-.59.67 0 1 .88 1 1.47 0 .34-.17.63-.5.63-.57 0-1.26-1.01-1.26-1.52z" fill="#3c1604"/><path d="M117.92 22.73a3 3 0 0 1 1.24-2.15c1.6-1.39 4.66-1.76 6.72-2.06-1-2.1-4.07-3.7-5.59-5.42a28.84 28.84 0 0 1-7.1 4.87 3.45 3.45 0 0 1 .34 1.22c.21 3.28-4 5.38-6.81 5.38-1.18 0-2.6-.46-2.6-1.89 0-2.81 4.83-4.12 7.18-5-1.43-1.6-4-3.23-5-4.54a64.93 64.93 0 0 1-7.81 6.6c-2.31 1.64-3.7 2.44-6.64 2.44a.44.44 0 1 1 0-.88 9.45 9.45 0 0 0 4.58-1.43c3.45-2 6.43-4.87 9.33-7.56a2.3 2.3 0 0 1-.38-1.18c0-1.64 1.47-3.91 3.23-3.91a1.27 1.27 0 0 1 1.3 1.34c0 1.39-1.64 3-2.65 3.78a46.28 46.28 0 0 0 4.83 4.2l.55.55a24.65 24.65 0 0 0 7.06-4.75 3 3 0 0 1-.34-1.34c0-1.55 1.55-3.78 3.23-3.78a1.27 1.27 0 0 1 1.3 1.34c0 1.39-1.64 3-2.69 3.78h-.08c1.47 1.43 3.15 2.69 4.7 4a4.6 4.6 0 0 1 1.34 1.89c.42 0 1.34-.08 1.6-.08a.46.46 0 1 1 0 .92h-1.43c.46 3.32-3.95 5.42-6.68 5.42-1.24.09-2.73-.33-2.73-1.76zm-6-4.2c-2.1.8-6.68 2.27-6.68 4 0 .88.8 1.18 1.55 1.18 2.14 0 5.42-1.68 5.42-4.16a2.31 2.31 0 0 0-.29-1.02zm-5.29-7.56a1.57 1.57 0 0 0 0 .46c.5-.46 2-1.89 2-2.6a.35.35 0 0 0-.38-.38c-.81-.01-1.61 1.8-1.61 2.52zm19.46 8.61v-.25c-1.76.17-7 .84-7 3.23 0 .84.84 1.09 1.55 1.09 2.13.04 5.45-1.6 5.45-4.07zm-5.5-8.61v.42c.5-.46 2-1.89 2-2.6a.33.33 0 0 0-.38-.38c-.79.03-1.63 1.88-1.63 2.6z" fill="#3c1604"/><path d="M146.54 18.86c0 .71-1.18.76-1.68.76a6.11 6.11 0 0 1-2.14-.21 6.2 6.2 0 0 1-5.5 3.82c-1.85 0-2.69-1.6-2.69-3.24a6.51 6.51 0 0 1 .59-2.52 13.18 13.18 0 0 1-6.43 1.64.43.43 0 0 1-.42-.46.42.42 0 0 1 .46-.46 15.15 15.15 0 0 0 7.39-2.44c.8-1.18 2.48-2.9 4-2.9 1.22 0 1.72 1.18 1.72 2.23a3.16 3.16 0 0 1 1.22 2.6 5.15 5.15 0 0 1-.08.8 5.72 5.72 0 0 0 1.89.25c.34 0 .67-.08 1-.08.12 0 .67.04.67.21zm-4.87 0c-.8-.25-2.52-1.85-2.52-2.77a1.44 1.44 0 0 1 1.6-1.3c-.13-.25-.29-.5-.63-.5a2.65 2.65 0 0 0-1 .34 7.35 7.35 0 0 0-3.28 5.67 1.55 1.55 0 0 0 1.64 1.72 4.61 4.61 0 0 0 4.19-3.16zm.17-1.13c0-.59-.5-1.89-1.22-1.89-.21 0-.29.21-.29.38 0 .76 1.09 1.22 1.51 1.64zM148.8 25.04a.31.31 0 0 1-.25-.29c0-.5.55-1.13.71-1.72.25-.92-.08-2.56 1-2.56.55 0 .76.29.76.8a5.53 5.53 0 0 1-1.6 3.4 1.15 1.15 0 0 1-.62.37zM188.92 18.65a.47.47 0 0 1-.46.46h-1.43c.25 3.28-4 5.42-6.8 5.42-1.18 0-2.6-.46-2.6-1.89 0-3.07 5.75-4 8-4.2-1.05-2.14-4.41-3.61-5.8-5.42a25.29 25.29 0 0 1-3.57 2.77c-1.34.84-4.24 2.6-5.8 2.6-.29 0-1-.13-1-.55s1-.46 1.26-.55a16.59 16.59 0 0 0 3.4-1.55 31.06 31.06 0 0 0 5-3.7 2.86 2.86 0 0 1-.29-1.18c0-1.51 1.55-3.74 3.19-3.74a1.31 1.31 0 0 1 1.34 1.39c0 1.68-1.64 2.73-2.73 3.7a47.79 47.79 0 0 0 4.92 4.28 4.13 4.13 0 0 1 1.3 1.76c.42 0 1.34-.08 1.6-.08a.46.46 0 0 1 .47.48zm-3.11.63c-1.72.17-7.06.88-7.06 3.23 0 .88.8 1.18 1.55 1.18 2.19 0 5.46-1.51 5.46-4.41zm-3.61-10.5a.34.34 0 0 0-.38-.34c-.88 0-1.68 1.76-1.68 2.48v.29c.5-.46 2.01-1.63 2.01-2.43z" fill="#3c1604"/><path d="M197.92 14.41a4.4 4.4 0 0 1 .25 1.51 7.88 7.88 0 0 0 1.43 4.41 2.66 2.66 0 0 0 2.14.92c.21 0 .46.17.46.42a.47.47 0 0 1-.46.46 4.43 4.43 0 0 1-3.36-1.72 11.85 11.85 0 0 1-1.6-5.08 22.9 22.9 0 0 1-5.46 3.32 11.61 11.61 0 0 1-2.94.46.47.47 0 0 1-.46-.46.46.46 0 0 1 .42-.46 7.1 7.1 0 0 0 2.1-.34 13.39 13.39 0 0 0 2.48-1.17c.76-.46 3.61-2.65 4.33-2.65a.65.65 0 0 1 .67.38zm-.88-6.6c0-.42.38-.59.76-.59.67 0 1.05.88 1.05 1.43 0 .29-.17.67-.5.67-.66.01-1.33-.96-1.33-1.51z" fill="#3c1604"/><path d="M216.21 27.35c-2.52 2.52-6.34 6.43-6.34 10a2.28 2.28 0 0 0 2.39 2.52 4.2 4.2 0 0 0 3.23-1.68c3.28-4.2 5-9.62 5.29-15.67v-1.09c0-.55 0-2.44-.84-2.44a1.67 1.67 0 0 0-.76.29 6.84 6.84 0 0 1 .08.92c0 .42-.21 1-.71 1s-.38-.88-.38-1.18c-1.34 1-2.94 2.6-4.79 2.6s-3-.76-3-2.6a4.57 4.57 0 0 1 .13-1.09c-2.65 1.85-5.17 3.19-8.44 3.19-.38 0-.92.08-.92-.46a.45.45 0 0 1 .42-.42 10.9 10.9 0 0 0 2-.17 16.21 16.21 0 0 0 6.76-3.19l.8-.71c.67-1.55 2.35-3.65 4.2-3.65 2 0 3.28 2.56 3.66 4.28a2.4 2.4 0 0 1 1.3-.42c1.18 0 1.39 1.26 1.43 2.18s.08 1.93.08 2.9c0 6.3-2.6 14.33-6.93 17.9a4.07 4.07 0 0 1-2.65.92 3.56 3.56 0 0 1-3.7-3.82c0-4.08 4.37-8.86 7.69-11.59a14.44 14.44 0 0 1 2.9-2.1.48.48 0 0 1 .46.5c0 .13-.21.34-.34.42a22.76 22.76 0 0 0-3.02 2.66zm1.93-8.82c-.21-1.34-1.22-3.4-2.77-3.4-1.81 0-3.44 2.9-3.44 4.54a1.44 1.44 0 0 0 1.64 1.55c1.89-.01 3.23-1.56 4.58-2.69z" fill="#3c1604"/><path d="M246.58 20.58c0 1-2.18 1.55-3 1.55-3.74 0-4.33-3.7-5.25-3.7s-2.27 4.54-5.88 4.54a2.15 2.15 0 0 1-2.35-2.31 4.32 4.32 0 0 1 .88-2.44 87.86 87.86 0 0 0-8.86 4.54 28.28 28.28 0 0 1-2.94 1.89.49.49 0 0 1-.46-.42c0-.38 1.76-1.47 2.1-1.68a47.18 47.18 0 0 1 4.45-2.56l4.84-2.41a19 19 0 0 0 2.27-1.09c.25-.17.5-.46.71-.63a5 5 0 0 1 3-1.13 2.9 2.9 0 0 1 2.56 1.34 1.25 1.25 0 0 1 1.22.71 10.84 10.84 0 0 1 .34 1.26c.46 1.6 1.51 3.19 3.36 3.19a6.64 6.64 0 0 0 2.77-1c.16.06.24.14.24.35zm-9.41-3.49c-.29-.55-.67-1.05-1.34-1.05-1.76 0-4.29 2.82-4.29 4.5a1.12 1.12 0 0 0 1.18 1.22c1.89 0 3.53-3.32 4.45-4.66zM269.72 18.06a16.33 16.33 0 0 0 2.48.13.46.46 0 0 1 0 .92 16.4 16.4 0 0 1-2.73-.17c-.84 2.23-3.32 4.24-5.59 4.24-1.76 0-2.69-1.51-2.69-3.11a8.42 8.42 0 0 1 2.27-5.12c.76-.92 2.14-2.27 3.4-2.27s1.68 1.05 1.68 2.1a3.11 3.11 0 0 1 1.22 2.6 3.61 3.61 0 0 1-.04.68zm-1.51.55a2.91 2.91 0 0 1-2.35-2.73c0-.88.67-1.34 1.64-1.43a.85.85 0 0 0-.71-.46 1.67 1.67 0 0 0-1 .38 8.53 8.53 0 0 0-3.19 5.84 1.72 1.72 0 0 0 1.76 1.85c1.12-.01 3.13-1.48 3.85-3.48zm.25-.88v-.59c0-.88-.46-1.6-1.18-1.6-.17 0-.25.17-.25.34a1.89 1.89 0 0 0 1.43 1.85z" fill="#3c1604"/><path d="M287.78 16.38a3.75 3.75 0 0 1 1.51 2.86c0 4.37-5.71 5.59-9.12 5.59-.34 0-1.18-.17-1.18-.63s.67-.55 1-.55a14.51 14.51 0 0 0 3.57-.34 5.59 5.59 0 0 0 3.74-2.23 3 3 0 0 0 .55-1.81c0-2.23-4.12-4.58-5.59-6.13-2.86 2.65-5.92 6-10.12 6a.46.46 0 0 1 0-.92 6 6 0 0 0 1.93-.29c2.77-1 5.46-3.57 7.56-5.59a3 3 0 0 1-.34-1.34c0-1.55 1.55-3.78 3.23-3.78a1.27 1.27 0 0 1 1.3 1.34c0 1.39-1.64 3-2.69 3.78h-.08c1.5 1.44 3.18 2.7 4.73 4.04zM282.57 11v.42c.5-.46 2-1.89 2-2.6a.33.33 0 0 0-.38-.38c-.78 0-1.62 1.85-1.62 2.57zM318.1 21.72a.43.43 0 0 1-.46.42 29.32 29.32 0 0 1-5.21-.29 8.22 8.22 0 0 1-3-.84c-1.3 4.5-2 6-3.28 9.66-1.23 3.44-2.23 7.31-4.77 7.31-1.22 0-2.1-1.43-2.1-3.07 0-6.09 7.35-15.75 10.63-20.5a10.3 10.3 0 0 0 .08-1.13c0-.63-.21-1.51-.21-1.89s.34-.92.84-.92c.84 0 .88 1.05.88 1.76a2.9 2.9 0 0 1-.13 1c1.09-.55 1.89-1.22 3.23-1.22 1.68 0 3.65 1 3.65 3 0 2.52-3.4 5.67-6 5.67 1 .55 4.16.63 5.38.63a.5.5 0 0 1 .47.41zm-8.7-4.87c-3.11 4.79-4.12 6.09-5.75 8.86a61.21 61.21 0 0 0-2.69 6 10.18 10.18 0 0 0-.5 3.07c0 1.22.29 1.93 1 1.93 1.09 0 1.72-1.6 2.56-3.86 1.09-3 1.72-4.62 2.77-7.77.94-2.9 1.95-5.5 2.62-8.23zm1.64 3.19c1.93 0 5.63-2.14 5.63-4.87a1.77 1.77 0 0 0-2-1.72 6.35 6.35 0 0 0-3.53 1.3c-.46 1.93-.76 3.49-1.3 5.13a4.21 4.21 0 0 0 1.21.16z" fill="#3c1604"/><path d="M338.81 18.06a7 7 0 0 0 .5 1.3 3.24 3.24 0 0 0 2.86 1.89.46.46 0 0 1 .46.42.47.47 0 0 1-.46.46c-3.74 0-4.33-3.7-5.25-3.7s-2.23 4.54-5.88 4.54a2.08 2.08 0 0 1-2.31-2.23 4.75 4.75 0 0 1 .67-2.27c-3.24 1.51-8.32 3.65-11.8 3.65a.47.47 0 0 1-.46-.46c0-.34.34-.42.59-.42 2.31-.08 6.3-1.47 8.49-2.39a33.17 33.17 0 0 0 4.62-2.14 5.47 5.47 0 0 1 3.82-1.93 3 3 0 0 1 2.6 1.34c1.21-.16 1.34 1.15 1.55 1.94zm-3-1c-.29-.55-.67-1.05-1.34-1.05-1.76 0-4.29 2.82-4.29 4.5a1.11 1.11 0 0 0 1.18 1.22c1.86.03 3.5-3.29 4.43-4.63z" fill="#3c1604"/><path d="M368.21 22.73a3 3 0 0 1 1.22-2.15c1.6-1.39 4.66-1.76 6.72-2.06-1-2.1-4.07-3.7-5.59-5.42a28.84 28.84 0 0 1-7.1 4.87 3.45 3.45 0 0 1 .34 1.22c.21 3.28-4 5.38-6.81 5.38-1.18 0-2.6-.46-2.6-1.89 0-2.81 4.83-4.12 7.18-5-1.43-1.6-4-3.23-5-4.54a64.93 64.93 0 0 1-7.81 6.6c-2.31 1.64-3.7 2.44-6.64 2.44a.44.44 0 1 1 0-.88 9.45 9.45 0 0 0 4.58-1.43c3.45-2 6.43-4.87 9.33-7.56a2.3 2.3 0 0 1-.38-1.18c0-1.64 1.47-3.91 3.23-3.91a1.27 1.27 0 0 1 1.3 1.34c0 1.39-1.64 3-2.65 3.78a46.28 46.28 0 0 0 4.83 4.2l.55.55a24.65 24.65 0 0 0 7.01-4.78 3 3 0 0 1-.34-1.34c0-1.55 1.55-3.78 3.23-3.78a1.27 1.27 0 0 1 1.3 1.34c0 1.39-1.64 3-2.69 3.78h-.08c1.47 1.43 3.15 2.69 4.7 4a4.6 4.6 0 0 1 1.34 1.89c.42 0 1.34-.08 1.6-.08a.46.46 0 1 1 0 .92h-1.43c.46 3.32-3.95 5.42-6.68 5.42-1.19.12-2.66-.3-2.66-1.73zm-6-4.2c-2.1.8-6.68 2.27-6.68 4 0 .88.8 1.18 1.55 1.18 2.14 0 5.42-1.68 5.42-4.16a2.31 2.31 0 0 0-.3-1.02zm-5.29-7.56a1.57 1.57 0 0 0 0 .46c.5-.46 2-1.89 2-2.6a.35.35 0 0 0-.38-.38c-.83-.01-1.62 1.8-1.62 2.52zm19.44 8.61v-.25c-1.76.17-7 .84-7 3.23 0 .84.84 1.09 1.55 1.09 2.13.04 5.45-1.6 5.45-4.07zm-5.5-8.61v.42c.5-.46 2-1.89 2-2.6a.33.33 0 0 0-.38-.38c-.78.03-1.62 1.88-1.62 2.6z" fill="#3c1604"/><path d="M393.37 18.06a16.34 16.34 0 0 0 2.48.13.46.46 0 0 1 0 .92 16.39 16.39 0 0 1-2.73-.17c-.84 2.23-3.32 4.24-5.59 4.24-1.76 0-2.69-1.51-2.69-3.11v-.25a3.44 3.44 0 0 1 0-.59 9.46 9.46 0 0 1 .55-1.76 13.3 13.3 0 0 1-6.43 1.64.46.46 0 0 1 0-.92 15.17 15.17 0 0 0 7.44-2.44c1.22-1.76 2.81-3.07 4.07-3.07s1.68 1.05 1.68 2.1a3.11 3.11 0 0 1 1.22 2.6 3.61 3.61 0 0 1 0 .68zm-1.51.55a2.91 2.91 0 0 1-2.35-2.73c0-.88.67-1.34 1.64-1.43a.85.85 0 0 0-.71-.46 1.67 1.67 0 0 0-1 .38 8.52 8.52 0 0 0-3.19 5.84 1.72 1.72 0 0 0 1.67 1.84c1.2 0 3.22-1.47 3.93-3.47zm.25-.88v-.59c0-.88-.46-1.6-1.18-1.6-.17 0-.25.17-.25.34a1.89 1.89 0 0 0 1.43 1.85z" fill="#3c1604"/><path d="M411.43 16.38a3.75 3.75 0 0 1 1.49 2.86c0 4.37-5.71 5.59-9.12 5.59-.34 0-1.18-.17-1.18-.63s.67-.55 1-.55a14.51 14.51 0 0 0 3.57-.34 5.59 5.59 0 0 0 3.73-2.22 3 3 0 0 0 .55-1.81c0-2.23-4.12-4.58-5.59-6.13-2.86 2.65-5.92 6-10.12 6a.46.46 0 0 1 0-.92 6 6 0 0 0 1.93-.29c2.77-1 5.46-3.57 7.56-5.59a3 3 0 0 1-.34-1.34c0-1.55 1.55-3.78 3.23-3.78a1.27 1.27 0 0 1 1.3 1.34c0 1.39-1.64 3-2.69 3.78h-.08c1.52 1.43 3.25 2.69 4.76 4.03zM406.22 11v.42c.5-.46 2-1.89 2-2.6a.33.33 0 0 0-.38-.38c-.78 0-1.62 1.85-1.62 2.57zM440.62 22.14c-3.74 0-4.33-3.7-5.25-3.7s-2.27 4.54-5.88 4.54a2.15 2.15 0 0 1-2.35-2.31c0-2.52 3.44-5.92 6-5.92a2.77 2.77 0 0 1 2.56 1.34c1.22-.13 1.3 1.13 1.55 2a7 7 0 0 0 .5 1.3 3.29 3.29 0 0 0 2.86 1.89.46.46 0 0 1 .46.42.47.47 0 0 1-.45.44zm-10.84-.38c1.18 0 2.48-1.64 3.11-2.52.46-.67.84-1.47 1.34-2.14-.34-.55-.67-1.05-1.39-1.05-1.72 0-4.24 2.82-4.24 4.5a1.11 1.11 0 0 0 1.18 1.21z" fill="#3c1604"/><path d="M463.09 14.03a6.58 6.58 0 0 0 1.22 2.27 4.9 4.9 0 0 0 3.11 1.85c.38 0 1.13-.08 1.13.5a.43.43 0 0 1-.42.46c-2.6 0-5.29-2.1-6.47-4.33-1.22 3-3.57 8.15-7.39 8.15-2.06 0-3.07-1.55-3.07-3.45a10.93 10.93 0 0 1 .29-2.35c-2.77 2.77-6.51 5-10.5 5-.34 0-.92.08-.92-.46a.43.43 0 0 1 .46-.42 16.31 16.31 0 0 0 2-.17 13.3 13.3 0 0 0 3.57-1.22 22.07 22.07 0 0 0 5.88-4.54c0-.17 1.09-3.32 1.26-3.74 1.05-3 4.24-11.59 7.94-11.59a2 2 0 0 1 1.93 2.18c0 2.27-2 4.71-3.4 6.39-.8.92-1.68 1.81-2.52 2.69l-4.1 4.33a15.17 15.17 0 0 0-.63 3.86c0 1.05.46 2.23 1.68 2.23 1.68 0 3-1.39 3.91-2.65 1.34-1.85 1.76-3.65 2.56-5.71.17-.42.42-.84.92-.84.97-.03 1.3.81 1.56 1.56zm-4.07-11.09a57.89 57.89 0 0 0-5 10.08l-.08.29c1.68-1.81 6.13-6.55 7.06-8.49a5.25 5.25 0 0 0 .59-2.06c0-.5-.17-1.09-.76-1.09s-1.44.77-1.82 1.27z" fill="#3c1604"/><path d="M482.15 18.06a5 5 0 0 0 .55 1.3 3.23 3.23 0 0 0 2.81 1.89.46.46 0 0 1 .46.42.47.47 0 0 1-.46.46c-3.74 0-4.28-3.7-5.25-3.7s-2.23 4.54-5.88 4.54a2.08 2.08 0 0 1-2.31-2.23 4.76 4.76 0 0 1 1-2.69 11 11 0 0 1-5.15 1.07.46.46 0 0 1 0-.92 13.42 13.42 0 0 0 5.8-1.55l1.22-.63a4 4 0 0 0 .5-.38 4.42 4.42 0 0 1 2.6-.88 2.9 2.9 0 0 1 2.56 1.34c1.22-.14 1.32 1.12 1.55 1.96zm-3-1c-.34-.55-.71-1.05-1.39-1.05-1.76 0-4.24 2.82-4.24 4.5a1.11 1.11 0 0 0 1.18 1.22c1.91.03 3.46-3.33 4.47-4.63z" fill="#3c1604"/><path d="M496.52 14.37a1.45 1.45 0 0 1 .29 1.09 7.69 7.69 0 0 0 1.47 4.87 2.53 2.53 0 0 0 2.1.92c.21 0 .46.17.46.42a.47.47 0 0 1-.46.46c-3 0-4.54-3.11-4.7-5.75a15 15 0 0 1-5.55 4.7 10.13 10.13 0 0 1-4.7 1 .47.47 0 0 1-.46-.46.46.46 0 0 1 .46-.42 8.46 8.46 0 0 0 4.16-1 12.93 12.93 0 0 0 4.45-4.07c.38-.55 1.13-2.06 1.89-2.06a.76.76 0 0 1 .59.3zm-.8-6.55c0-.42.38-.59.76-.59.67 0 1 .88 1 1.47 0 .34-.17.63-.5.63-.59 0-1.26-.97-1.26-1.52z" fill="#3c1604"/><path d="M520.33 20.5a5.09 5.09 0 0 0 2.6.76.46.46 0 0 1 .46.42.47.47 0 0 1-.46.46 5.23 5.23 0 0 1-2.65-.5 13.11 13.11 0 0 1-2.9-2.18c-.42.42-3.82 4.07-4.45 4.07a.3.3 0 0 1-.29-.34c0-1.05 3-4 3.7-4.75-.34-.46-2.14-2.31-2.65-2.31a2.12 2.12 0 0 0-1 .38c-.76.46-1.43 1-2.14 1.51a33.14 33.14 0 0 1-4.21 2.56 11.9 11.9 0 0 1-6.09 1.6.43.43 0 0 1-.42-.46c0-.38.29-.42.59-.42a15.37 15.37 0 0 0 5.75-1.81 37.44 37.44 0 0 0 6.22-4.33 5 5 0 0 1 .92-.71 1.07 1.07 0 0 1 .5-.08.92.92 0 0 1 .71.29c.92.92 1.85 1.93 2.69 2.94l2.77-2.81a16.66 16.66 0 0 1 1.22-1.22 2 2 0 0 1 1.13-.63c.38 0 .59.38.59.76a.85.85 0 0 1-.21.59 15.58 15.58 0 0 1-1.46 1.29c-1 1-2.06 2-3.07 3a22.86 22.86 0 0 0 2.15 1.92z" fill="#3c1604"/><path d="M543.72 18.86c0 .84-1.6.76-2.14.76a4.56 4.56 0 0 1-1.68-.25 6.3 6.3 0 0 1-5.54 3.86c-1.76 0-2.65-1.64-2.65-3.24a4.85 4.85 0 0 1 .13-1.09c-2.69 1.85-5.17 3.23-8.49 3.23-.38 0-1 .08-1-.46a.46.46 0 0 1 .46-.42 13.42 13.42 0 0 0 8.78-3.36l.88-.8c.8-1.6 2.9-4.28 4.83-4.28 1.18 0 1.68 1.22 1.68 2.27a3.11 3.11 0 0 1 1.22 2.6 5.15 5.15 0 0 1-.08.8 6 6 0 0 0 1.93.21c.25 0 1.67-.16 1.67.17zm-4.87 0c-.88-.46-2.52-1.68-2.52-2.77 0-.88.84-1.3 1.6-1.34a.68.68 0 0 0-.63-.46 2.22 2.22 0 0 0-1 .34 7.39 7.39 0 0 0-3.28 5.63 1.58 1.58 0 0 0 1.68 1.72 4.51 4.51 0 0 0 4.15-3.12zm.17-1.13c0-.59-.5-1.89-1.22-1.89-.17 0-.29.21-.29.38 0 .71 1.09 1.22 1.51 1.64zM548.51 20.21a1 1 0 0 1 1.13 1 1 1 0 0 1-.88.92 1.22 1.22 0 0 1-1.34-1.13.93.93 0 0 1 .25-.63 2 2 0 0 1 .84-.16zm.8-8.95a1.08 1.08 0 0 1 1.13.92 1 1 0 0 1-1 1 1.21 1.21 0 0 1-1.26-1.13.93.93 0 0 1 .25-.63 2 2 0 0 1 .88-.16z" fill="#3c1604"/></svg>