<svg xmlns="http://www.w3.org/2000/svg" viewBox="0 0 68.16 68.16"><defs><style>.a{fill:#3a1a0d}.b{fill:none}.c{fill:#fff}</style></defs><title>p2_s2</title><path class="a" d="M0 0h68.16v68.16H0z"/><path class="b" d="M48.05 33.84a1.22 1.22 0 0 1-.76-1.33 4.83 4.83 0 0 0 .08-.77 4.87 4.87 0 0 0-4.86-4.86 4.81 4.81 0 0 0-2.15.49 1.22 1.22 0 0 1-1.6-.49 9.08 9.08 0 0 0-7.94-4.68 9.11 9.11 0 0 0-8.89 7.2 1.21 1.21 0 0 1-.72.87 8.1 8.1 0 0 0-5.08 7.55 8.15 8.15 0 0 0 8.14 8.14h21.52a6.27 6.27 0 0 0 6.27-6.27 6.33 6.33 0 0 0-4.01-5.85z"/><path class="c" d="M49.8 32.02v-.29a7.31 7.31 0 0 0-7.3-7.3 6.87 6.87 0 0 0-2.21.37 11.39 11.39 0 0 0-9.49-5.05 11.44 11.44 0 0 0-11.13 8.56 10.55 10.55 0 0 0-6 9.51A10.59 10.59 0 0 0 24.25 48.4h21.52a8.71 8.71 0 0 0 8.7-8.7 8.69 8.69 0 0 0-4.67-7.68zm-4 13.94H24.28a8.15 8.15 0 0 1-8.14-8.14 8.1 8.1 0 0 1 5.08-7.55 1.21 1.21 0 0 0 .72-.87 9.11 9.11 0 0 1 8.89-7.2 9.08 9.08 0 0 1 7.94 4.68 1.22 1.22 0 0 0 1.6.49 4.81 4.81 0 0 1 2.15-.49 4.87 4.87 0 0 1 4.86 4.86 4.83 4.83 0 0 1-.08.77 1.22 1.22 0 0 0 .76 1.33 6.33 6.33 0 0 1 4 5.85 6.27 6.27 0 0 1-6.28 6.27z"/></svg>