<svg xmlns="http://www.w3.org/2000/svg" viewBox="0 0 490.57 338.73"><defs><style>.a{fill:#fff;opacity:.98;isolation:isolate}</style></defs><title>p2_s5</title><path class="a" d="M204.38 0A134.16 134.16 0 0 0 73.71 104C30.35 122.88-.02 165.68-.02 216.06a122.5 122.5 0 0 0 122.67 122.66h268.64a99.37 99.37 0 0 0 99.28-99.28c0-40.36-24.48-74.65-59.13-90.16a72.45 72.45 0 0 0 .73-9.13 81.85 81.85 0 0 0-81.79-81.75 80.38 80.38 0 0 0-31.36 6.78C295.5 26.18 253.17 0 204.38 0zm0 11.68a122.38 122.38 0 0 1 107.31 63.15 5.84 5.84 0 0 0 7.69 2.35 69.6 69.6 0 0 1 31-7.12 70 70 0 0 1 70.11 70.12 69.13 69.13 0 0 1-1.1 11.13 5.84 5.84 0 0 0 3.65 6.39 87.92 87.92 0 0 1 55.85 81.76 87.51 87.51 0 0 1-87.6 87.6H122.65a110.59 110.59 0 0 1-111-111 110.67 110.67 0 0 1 69.2-102.88 5.84 5.84 0 0 0 3.47-4.2 122.6 122.6 0 0 1 120.06-97.3z"/></svg>