<svg xmlns="http://www.w3.org/2000/svg" viewBox="0 0 405.64 51.48"><title>p2_s3</title><path d="M17.83 30.06a.47.47 0 0 1-.21.42c-3.43 2.81-8.74 7.54-11.18 11.18-.31 1.82-1 6.81-1.72 8.32a2.75 2.75 0 0 1-2 1.51c-1.09 0-1.61-1.09-1.61-2 0-2.5 2.5-6 3.9-8A144 144 0 0 1 9.9 25.37a13.66 13.66 0 0 1-6.6 2.18 3.21 3.21 0 0 1-3.33-3.12 3.1 3.1 0 0 1 .31-1.4c1.3-3.12 5.3-6.66 8.84-6.66a3.7 3.7 0 0 1 3.38 2.44c.26-.73.88-1.92 1.77-1.92 1 0 1.3 1.2 1.3 2 0 1.51-1.14 2.6-2.13 3.59 0 .31.1.68.1 1s-.05.88-.52.88-.68-.47-.83-.78l-.1.1a103 103 0 0 0-5 15.13 45.38 45.38 0 0 1 9.78-9.15.58.58 0 0 1 .42-.16.51.51 0 0 1 .54.56zm-7.18-6.76l.94-2.39c-.31-1.46-.88-3.07-2.65-3.07-2.44 0-7.07 3.85-7.07 6.4a1.79 1.79 0 0 0 1.77 1.92c1.82 0 5.56-1.72 7.02-2.86zm-6.5 22.31c-.42.88-1.61 2.5-1.61 3.33 0 .26.1.42.36.42.84-.01 1.15-3.08 1.26-3.75zm9-25a1.86 1.86 0 0 0 .1.52c.36-.36 1-.88 1-1.46 0-.21-.1-.52-.36-.52s-.74 1.18-.74 1.44z" fill="#3c1604"/><path d="M46.85 22.1a5.08 5.08 0 0 0 4.16 4.16c.42.1 1.46 0 1.46.62a.58.58 0 0 1-.57.57 7.08 7.08 0 0 1-7.12-6c-1.3 3.07-4.11 7.33-7.9 7.33-2.6 0-4.06-2-4.06-4.47a10.83 10.83 0 0 1 .88-3.9 49.83 49.83 0 0 0-8.22 4.52c-4.52 2.91-7.75 5.67-8.22 5.67a.52.52 0 0 1-.52-.52.78.78 0 0 1 .21-.47 101.8 101.8 0 0 1 14.87-10c.78-.42 2.39-1.51 3.28-1.51.63 0 1 .21 1 .78 0 1.3-1.77 3.17-1.77 5.67a2.53 2.53 0 0 0 2.7 2.76 3.06 3.06 0 0 0 1.77-.52c2.55-1.66 3.59-4.27 4.84-6.92.36-.73 1-1.72 1.92-1.72 1.6-.05 1.13 2.91 1.29 3.95z" fill="#3c1604"/><path d="M69.57 22.41a6.24 6.24 0 0 0 .68 1.61 4 4 0 0 0 3.48 2.34.57.57 0 0 1 .57.52.58.58 0 0 1-.57.57c-4.63 0-5.3-4.58-6.5-4.58s-2.76 5.62-7.33 5.62a2.58 2.58 0 0 1-2.81-2.76v-.31c-1.82 1.35-3 2-5.3 2a.52.52 0 0 1-.57-.57.56.56 0 0 1 .52-.52c2.34 0 4.32-1.66 6-3.12 1.25-2.24 4-4.94 6.71-4.94a3.73 3.73 0 0 1 3.25 1.7c1.51-.16 1.56 1.4 1.87 2.44zm-3.69-1.2c-.42-.68-.88-1.3-1.72-1.3-2.18 0-5.3 3.48-5.3 5.56a1.42 1.42 0 0 0 1.51 1.5c2.34 0 4.26-4.14 5.51-5.75z" fill="#3c1604"/><path d="M94.85 26.57c0 .78-1.4.88-2 .88-3.9 0-6.66-2.08-8.27-5.56-3.17 3.69-6 5.56-11 5.56a.58.58 0 0 1-.57-.57.57.57 0 0 1 .57-.52 10.45 10.45 0 0 0 4.37-.73 16.15 16.15 0 0 0 6.08-5.15 14.91 14.91 0 0 1-.83-4.78 22 22 0 0 1 4.58-12.53c.88-1.09 2.55-2.7 4.06-2.7 1.66 0 2.34 2 2.34 3.33 0 3.8-3.64 10.19-5.82 13.16-.36.47-.73.94-1 1.4a23.77 23.77 0 0 1-1.61 2.18c1.2 2.86 3.33 5.72 6.76 5.72.36 0 2.34-.29 2.34.31zm-4.69-23.6c-3.17 2.18-5.25 9-5.25 12.69a14.07 14.07 0 0 0 .36 3.28l.36-.57c.52-.73 1.09-1.4 1.56-2.08a50.21 50.21 0 0 0 3.17-5c1-1.77 2.39-5 2.39-7 0-.88-.36-1.82-1.4-1.82a2.42 2.42 0 0 0-1.19.5zM128.12 24.49c0 1.56-3 2.5-4.21 2.76a9.86 9.86 0 0 1-2.13.21c-2.65 0-5-1.77-5-4.52a19.81 19.81 0 0 1-3.48.36c-.47 0-1.51-.31-1.51-.94 0-.36.57-.36.83-.36a20.88 20.88 0 0 0 4.37-.52c.05-.05.05-.1.05-.21.57-2.55 3.12-5.46 5.88-5.46 1.35 0 2.86.78 2.86 2.29a2.9 2.9 0 0 1-.31 1.14c-.78 1.56-5 2.65-6.66 3.17a1.24 1.24 0 0 1-.42.1v.46c0 2.13 1.35 3.22 3.38 3.38h.05a8.14 8.14 0 0 0 4.89-1.4 12.15 12.15 0 0 1 1.09-.83c.27.01.32.11.32.37zm-9.36-3.43c1.2-.26 4.89-1.56 4.89-3 0-.57-.57-.68-1-.68-1.86.04-3.42 2.07-3.89 3.68zm1.72-7.7c-.21 0-.31-.05-.31-.21 0-.36 3.48-3.38 4.32-3.38.42 0 .78.21.78.52 0 .68-3.17 2.7-4.32 3a1.43 1.43 0 0 1-.47.07zM160.37 23.71h-1.35a11.91 11.91 0 0 1-2.7-.26c-1 2.7-3.59 5.36-6.81 5.36-2.24 0-3.28-2-3.28-4a10.16 10.16 0 0 1 2.7-6.24c.94-1.14 2.65-2.76 4.21-2.76s2.13 1.46 2.13 2.76a2.65 2.65 0 0 1 1.51 2.6 7.78 7.78 0 0 1-.1 1.09 7 7 0 0 0 1.82.26c.73.05 1.25.05 1.87.05.26 0 .73.16.73.47a.78.78 0 0 1-.73.67zm-5.41-.68c-1.72-.52-3-1.87-3-3.22 0-1.09.94-1.61 1.92-1.61a.84.84 0 0 0-.78-.57 2.54 2.54 0 0 0-1.2.42 9.05 9.05 0 0 0-4.06 7.07 1.93 1.93 0 0 0 2.08 2.13c2.45 0 4.45-2.03 5.03-4.21zm.31-2a1.58 1.58 0 0 0-1.51-1.51c-.26 0-.36.31-.36.52a2.1 2.1 0 0 0 1.82 1.72 4.27 4.27 0 0 0 .05-.7zM202.12 23.14a.58.58 0 0 1-.57.57c-.21 0-1 0-1.77.05.31 4.06-4.94 6.71-8.42 6.71-1.46 0-3.22-.57-3.22-2.34 0-3.8 7.13-4.94 9.88-5.2v-.05c-1.3-2.65-5.46-4.47-7.18-6.71a31.41 31.41 0 0 1-4.47 3.43c-1.66 1-5.25 3.22-7.18 3.22-.36 0-1.2-.16-1.2-.68s1.25-.57 1.56-.68a20.59 20.59 0 0 0 4.21-1.92 38.48 38.48 0 0 0 6.29-4.57 3.54 3.54 0 0 1-.36-1.46c0-1.87 1.92-4.63 4-4.63a1.62 1.62 0 0 1 1.66 1.72c0 2.08-2 3.38-3.38 4.58h-.05a59.28 59.28 0 0 0 6.08 5.3 5.12 5.12 0 0 1 1.61 2.18c.52-.05 1.66-.1 2-.1a.58.58 0 0 1 .51.58zm-3.85.83c-2.13.21-8.74 1.09-8.74 4 0 1.09 1 1.46 1.92 1.46 2.76-.05 6.82-1.92 6.82-5.46zm-4.47-13a.42.42 0 0 0-.47-.42c-1.09 0-2.08 2.18-2.08 3.07v.35c.68-.61 2.55-2.11 2.55-3z" fill="#3c1604"/><path d="M214.96 18.15c0 2.44-5.51 4.11-7.28 4.73l-.1.05v.31c0 2 1.51 2.91 3.33 3.12.26.05.57.21.57.52a.58.58 0 0 1-.57.57 4.88 4.88 0 0 1-4.89-3.59c-.05-.16 0-.52-.1-.62a25.54 25.54 0 0 1-4.42.47.57.57 0 1 1 0-1.14 18.85 18.85 0 0 0 4.52-.52c.57-2.81 2.86-6.24 6.08-6.24 1.35 0 2.86.78 2.86 2.34zm-2.13-.05c0-.52-.57-.68-1-.68-2.08 0-3.64 2.44-4.06 4.26 1.21-.26 5.06-2.13 5.06-3.58z" fill="#3c1604"/><path d="M247.82 26.42c0 .83-1.25.94-1.61 1.2a2.93 2.93 0 0 1-.68.05c-3.17 0-4.58-3.54-4.84-6.24a8.23 8.23 0 0 1-.94 1.92c-1.51 2.5-3.69 5.41-7 5.41-2.55 0-4.06-2.08-4.06-4.52a19 19 0 0 1 .62-3.43c-.94.47-1.77 1.09-2.7 1.56-4.58 2.39-10.66 5.1-15.81 5.1a.58.58 0 0 1-.57-.57c0-.42.42-.52.73-.52 3.28-.05 7.54-1.66 10.56-3a30.12 30.12 0 0 0 4.06-2.13 22.08 22.08 0 0 0 2.13-1.51c.73-.52 2.6-2.34 3.43-2.34a1.1 1.1 0 0 1 1 1.14c0 1.4-1.92 3.38-1.92 5.93a2.55 2.55 0 0 0 2.7 2.76 3.23 3.23 0 0 0 1.82-.52c2.5-1.61 3.54-4.42 4.78-7 .36-.68 1-1.66 1.92-1.66 1 0 1.25 1.25 1.25 2.08 0 .62-.16 1.25-.16 1.87 0 1.92.62 4.47 3 4.47.62 0 1.25-.31 1.82-.31.32.05.47.05.47.26zM288.85 23.14a.58.58 0 0 1-.57.57c-.21 0-1 0-1.77.05.31 4.06-4.94 6.71-8.42 6.71-1.46 0-3.22-.57-3.22-2.34 0-3.8 7.12-4.94 9.88-5.2v-.05c-1.3-2.65-5.46-4.47-7.18-6.71a31.34 31.34 0 0 1-4.42 3.43c-1.66 1-5.25 3.22-7.18 3.22-.36 0-1.2-.16-1.2-.68s1.25-.57 1.56-.68a20.57 20.57 0 0 0 4.21-1.92 38.48 38.48 0 0 0 6.25-4.57 3.54 3.54 0 0 1-.36-1.46c0-1.87 1.92-4.63 4-4.63a1.62 1.62 0 0 1 1.66 1.72c0 2.08-2 3.38-3.38 4.58h-.05a59.16 59.16 0 0 0 6.08 5.3 5.11 5.11 0 0 1 1.61 2.18c.52-.05 1.66-.1 2-.1a.58.58 0 0 1 .5.58zm-3.85.78c-2.13.21-8.74 1.09-8.74 4 0 1.09 1 1.46 1.92 1.46 2.77 0 6.82-1.87 6.82-5.41zm-4.47-13a.42.42 0 0 0-.47-.42c-1.09 0-2.08 2.18-2.08 3.07v.4c.68-.61 2.55-2.11 2.55-3z" fill="#3c1604"/><path d="M306.01 22.41a20.19 20.19 0 0 0 3.07.16.57.57 0 1 1 0 1.14 20.1 20.1 0 0 1-3.38-.21c-1 2.76-4.11 5.25-6.92 5.25-2.18 0-3.33-1.87-3.33-3.85v-.31a4.19 4.19 0 0 1 .05-.73 11.7 11.7 0 0 1 .68-2.18 16.46 16.46 0 0 1-8 2 .57.57 0 1 1 0-1.14c3.38 0 6.34-1.4 9.2-3 1.51-2.18 3.48-3.8 5-3.8s2.08 1.3 2.08 2.6a3.85 3.85 0 0 1 1.51 3.22 4.41 4.41 0 0 1 .04.85zm-1.87.68c-1.56-.52-2.91-1.51-2.91-3.38 0-1.09.83-1.66 2-1.77a1.06 1.06 0 0 0-.88-.57 2.07 2.07 0 0 0-1.3.47c-2 1.4-4 4.78-4 7.23a2.13 2.13 0 0 0 2.18 2.29c1.53-.01 4.02-1.77 4.91-4.27zm.31-1.09c0-.21.05-.47.05-.73 0-1.09-.57-2-1.46-2-.21 0-.31.21-.31.42a2.34 2.34 0 0 0 1.72 2.28z" fill="#3c1604"/><path d="M331.44 21.53c.68 2.18 1 4.84 3.9 4.84a.57.57 0 0 1 .57.52.58.58 0 0 1-.57.57c-5.72 0-4.84-6.86-6.55-6.86-1.46 0-4.42 7-6.86 7-1.09 0-1.51-1-1.51-1.92 0-1.72.88-3.59.88-5.15 0-.68-.16-1.35-.94-1.35-2 0-5.88 4.52-11.34 4.52a.57.57 0 1 1 0-1.14 11.15 11.15 0 0 0 4.06-1c2-1 5.3-4 7.33-4a2.45 2.45 0 0 1 2.44 2.7c0 1.61-1 3.54-1 5.1 0 .26 0 .63.31.63 1.14 0 4.68-7.33 7.07-7.33 1.37.01 1.89 1.83 2.21 2.87z" fill="#3c1604"/><path d="M358.79 21.63a22.58 22.58 0 0 0 2.91 3.74 2.89 2.89 0 0 0 1.87 1c.26.05.57.21.57.52a.58.58 0 0 1-.57.57c-2.6 0-4-2.5-5.36-4.32-.73-.94-1.2-2.13-2.6-2.13-2.5 0-4.94 6.92-8.32 6.92-2.24 0-3-3.12-3.28-4.84-2.08 1.87-5.93 4.42-8.79 4.42a.57.57 0 0 1 0-1.14 5.51 5.51 0 0 0 2-.47 25 25 0 0 0 6.66-4.47v-.46a32.52 32.52 0 0 1 3.48-14c.73-1.35 2.44-3.74 4.21-3.74 1.56 0 1.77 2.13 1.77 3.28 0 4.26-2 8.32-4.52 11.65a26.82 26.82 0 0 1-2.81 3.12 4.88 4.88 0 0 0-.52.52c-.05 1 .36 4.37 1.82 4.37 2.29 0 4.94-6.76 8.42-6.76 1.39.04 2.38 1.23 3.06 2.22zM348.54 8.16a27 27 0 0 0-3.07 11.7c2.6-2.91 6.55-8.68 6.55-12.79 0-.52-.1-1.72-.88-1.72-1.04.01-2.18 2.03-2.6 2.81z" fill="#3c1604"/><path d="M389.31 23.4c0 1-2 .94-2.65.94a5.62 5.62 0 0 1-2.08-.31 7.8 7.8 0 0 1-6.86 4.78c-2.18 0-3.28-2-3.28-4a6 6 0 0 1 .16-1.35c-3.33 2.29-6.4 4-10.5 4-.47 0-1.2.11-1.2-.57a.57.57 0 0 1 .57-.52 16.59 16.59 0 0 0 10.9-4.17l1.09-1c1-2 3.59-5.3 6-5.3 1.46 0 2.08 1.51 2.08 2.81a3.85 3.85 0 0 1 1.46 3.26 6.4 6.4 0 0 1-.1 1 7.34 7.34 0 0 0 2.39.26c.26-.04 2.02-.26 2.02.17zm-6 0c-1.09-.57-3.12-2.08-3.12-3.43 0-1.09 1-1.61 2-1.66a.85.85 0 0 0-.78-.57 2.75 2.75 0 0 0-1.2.42 9.15 9.15 0 0 0-4.06 7 2 2 0 0 0 2.08 2.13 5.59 5.59 0 0 0 5.05-3.89zm.21-1.4c0-.73-.62-2.34-1.51-2.34-.21 0-.36.26-.36.47 0 .88 1.35 1.51 1.87 2zM394.83 25.48a1.54 1.54 0 0 1 1.66 1.35 1.38 1.38 0 0 1-1.2 1.3 2 2 0 0 1-1.82-1.61.81.81 0 0 1 .62-.78 1 1 0 0 1 .74-.26zm9.88-16.75c-1.25 2.13-4.11 2.6-5.82 4.32-1.66 1.56-1.92 4.37-2.44 6.34-.21.42-.47.73-.73.73s-.42-.36-.42-.73a9.84 9.84 0 0 1 .31-2.44 6.48 6.48 0 0 1 1.92-4.68c2.24-2.18 6.34-2.91 6.34-7a3.67 3.67 0 0 0-4-3.69 6.45 6.45 0 0 0-4 1.56.94.94 0 0 1-.73.31.76.76 0 0 1-.73-.78 1 1 0 0 1 .26-.73 7.07 7.07 0 0 1 5-2 7.74 7.74 0 0 1 1.14.1c3.64.78 4.79 2.6 4.79 5.56a6.36 6.36 0 0 1-.9 3.14z" fill="#3c1604"/></svg>