<svg xmlns="http://www.w3.org/2000/svg" viewBox="0 0 74.55 74.55"><defs><style>.a{fill:#df6428}.b{fill:#fff}</style></defs><title>p2_s10</title><path class="a" d="M0 0h74.55v74.55H0z"/><path class="b" d="M53.58 58.94H23.35a1.14 1.14 0 0 1-1.14-1.14v-41a1.14 1.14 0 0 1 1.14-1.14h30.23a1.14 1.14 0 0 1 1.14 1.14v41a1.14 1.14 0 0 1-1.14 1.14zm-29.09-2.29h27.94V17.9H24.49z"/><path class="b" d="M30.69 29.35a3.41 3.41 0 0 1-3.4-3.4 3.41 3.41 0 0 1 3.4-3.4 3.41 3.41 0 0 1 3.4 3.4 3.41 3.41 0 0 1-3.4 3.4zm0-4.52a1.12 1.12 0 0 0-1.11 1.11 1.12 1.12 0 0 0 1.11 1.11 1.12 1.12 0 0 0 1.11-1.11 1.12 1.12 0 0 0-1.11-1.1z"/><path class="b" d="M28.43 27.09h-7.51a1.14 1.14 0 0 1-1.14-1.14 1.14 1.14 0 0 1 1.14-1.14h7.46a1.14 1.14 0 0 1 1.14 1.14 1.14 1.14 0 0 1-1.09 1.14zm2.26 13.59a3.41 3.41 0 0 1-3.4-3.4 3.41 3.41 0 0 1 3.4-3.4 3.41 3.41 0 0 1 3.4 3.4 3.41 3.41 0 0 1-3.4 3.4zm0-4.52a1.12 1.12 0 0 0-1.11 1.11 1.12 1.12 0 0 0 1.11 1.11 1.12 1.12 0 0 0 1.11-1.11 1.12 1.12 0 0 0-1.11-1.11z"/><path class="b" d="M28.43 38.42h-7.51a1.14 1.14 0 0 1-1.14-1.14 1.14 1.14 0 0 1 1.14-1.15h7.46a1.14 1.14 0 0 1 1.14 1.14 1.14 1.14 0 0 1-1.09 1.15zm2.26 13.59a3.41 3.41 0 0 1-3.4-3.4 3.41 3.41 0 0 1 3.4-3.4 3.41 3.41 0 0 1 3.4 3.4 3.41 3.41 0 0 1-3.4 3.4zm0-4.52a1.12 1.12 0 0 0-1.11 1.11 1.12 1.12 0 0 0 1.11 1.11 1.12 1.12 0 0 0 1.11-1.11 1.12 1.12 0 0 0-1.11-1.11z"/><path class="b" d="M28.43 49.75h-7.51a1.14 1.14 0 0 1-1.14-1.14 1.14 1.14 0 0 1 1.14-1.14h7.46a1.14 1.14 0 0 1 1.14 1.14 1.14 1.14 0 0 1-1.09 1.14z"/></svg>