<svg xmlns="http://www.w3.org/2000/svg" viewBox="0 0 509.62 55.98"><title>p2_s9</title><path d="M21.28 16.61a.68.68 0 0 1 .71.66c0 .71-.66 1-2 1.27.5 8.41 1.27 12.7 1.27 13.14s-.39.6-.83.6c-1.32 0-1.37-3.13-1.54-4.78l-.83-8.58c-2.8.55-11.33 1.81-11.33 2-2.25 5.06-3.24 7-4.29 9.68-.33.77-.66 1.81-1.81 1.81-.44 0-.66-.27-.66-.71s2.91-6.93 4.67-10.61c-.5.06-.88.11-1.21.11-1.15 0-1.59-.44-1.59-.88 0-1 1.65-.77 3.68-1.21C9.04 11.3 12.39 3 13.93 1.18a2.72 2.72 0 0 1 2.14-1.21c2.47 0 2.36 4.56 2.58 6.6.33 3.35.66 5.55 1.15 10.17l.83-.11a2.46 2.46 0 0 1 .65-.02zm-3.35.49c-.44-6-.93-9.73-1.37-13.31-.11-.88-.39-1.37-.82-1.37-1 0-4.34 8-8 16.39 4-.6 6.1-.94 9.13-1.48zM41.91 24.64c.72 2.25 1.16 5.11 4.12 5.11a.57.57 0 0 1 .6.55.61.61 0 0 1-.6.6c-5.94 0-5.17-7.26-6.93-7.26-1.43 0-4.73 7.42-7.2 7.42-1.1 0-1.59-1-1.59-2 0-1.87.88-3.68.88-5.5 0-.71-.06-1.54-.94-1.54-1.48 0-3.57 2-4.51 2a.5.5 0 0 1-.55-.44c0-1.21 3.9-3.13 5.11-3.13a2.53 2.53 0 0 1 2.53 2.8c0 1.92-1.1 4-1.1 5.66a.43.43 0 0 0 .38.44c.11 0 .17-.06.22-.06 2-2 3.3-4.67 5.33-6.71a3 3 0 0 1 1.92-1c1.5.03 2 1.9 2.33 3.06z" fill="#fff"/><path d="M68.69 25.57a21.38 21.38 0 0 0 3.24.17.61.61 0 0 1 .6.6.61.61 0 0 1-.6.6 21.29 21.29 0 0 1-3.57-.22c-1.1 2.91-4.34 5.55-7.31 5.55-2.31 0-3.52-2-3.52-4.07a7.34 7.34 0 0 1 .17-1.54c-3.46 2.36-6.76 4.23-11.05 4.23-.5 0-1.32.11-1.32-.6a.6.6 0 0 1 .6-.55 21.38 21.38 0 0 0 2.64-.22 17.39 17.39 0 0 0 4.67-1.59 17.13 17.13 0 0 0 4.18-2.58 9.85 9.85 0 0 0 1.1-1l.5-.77a13.81 13.81 0 0 1 1.48-2c1-1.21 2.8-3 4.45-3s2.2 1.37 2.2 2.75a4.07 4.07 0 0 1 1.6 3.4 4.72 4.72 0 0 1-.06.84zm-2 .71c-1.63-.55-3.06-1.55-3.06-3.55 0-1.15.88-1.76 2.14-1.87a1.12 1.12 0 0 0-.94-.6 2.19 2.19 0 0 0-1.36.47c-2.09 1.48-4.18 5.06-4.18 7.64a2.25 2.25 0 0 0 2.31 2.42c1.54.01 4.18-1.86 5.11-4.5zm.33-1.15a3.62 3.62 0 0 0 .06-.77c0-1.15-.6-2.09-1.54-2.09-.22 0-.33.22-.33.44a2.48 2.48 0 0 0 1.83 2.42z" fill="#fff"/><path d="M91.63 16c0 1.38-3.85 1.43-4.78 1.48v.06a20.78 20.78 0 0 0-2 7.64 4.35 4.35 0 0 0 1.27 3.41 6.2 6.2 0 0 0 3.03 1.14c.27.06.6.22.6.55a.61.61 0 0 1-.6.6 5.3 5.3 0 0 1-5.61-5.44 24.13 24.13 0 0 1 .6-4.45l-1 .94c-3.08 2.75-7 5-11.22 5a.61.61 0 0 1-.6-.6.61.61 0 0 1 .6-.6 12.17 12.17 0 0 0 6.43-1.87c2.64-1.65 4.84-3.41 6.21-6.27-.88.06-1.7.11-2.58.11-.55 0-1.71-.16-1.71-.88 0-1.1 4.12-1 5-1 .27-.71 1.21-3.57 2.15-3.57.66 0 .77 1.1.77 1.54a5.09 5.09 0 0 1-.55 2 19.87 19.87 0 0 1 3.13 0c.2-.01.86-.17.86.21z" fill="#fff"/><path d="M107.41 30.73a10.44 10.44 0 0 1-2.25.22c-2.09 0-4.56-1.26-5.11-3.41-3.52 1.76-6.93 3.41-10.94 3.41a.61.61 0 0 1-.6-.6.6.6 0 0 1 .6-.55 16.26 16.26 0 0 0 4.84-.82 45.13 45.13 0 0 0 5.94-2.8 8.73 8.73 0 0 1 4.58-7.15 3.82 3.82 0 0 1 1.92-.44c1.43 0 3 .83 3 2.42a2.8 2.8 0 0 1-.33 1.15 3.83 3.83 0 0 1-1.43 1.21c-.71.44-1.43.77-2.14 1.15-1.27.71-2.53 1.48-3.85 2.14 0 1.81 1.87 3.08 3.57 3.08a8.25 8.25 0 0 0 5.17-1.48 13.2 13.2 0 0 1 1.21-.88c.22 0 .27.11.27.33 0 1.77-3.13 2.7-4.45 3.02zm-5.66-5.55a35.82 35.82 0 0 0 5.28-3.3 1 1 0 0 0 .27-.66c0-.66-.71-.88-1.26-.88-2.26-.05-3.96 2.81-4.29 4.79zM144.64 21.06c0 2.8-5.39 3.79-7.42 4.51a.8.8 0 0 1-.38.11c0 .22-.06.38-.06.6 0 2.14 1.54 3.3 3.57 3.46.33.06.6.17.6.55a.61.61 0 0 1-.6.6c-2.64 0-5.44-1.92-5.28-4.78a20.32 20.32 0 0 1-3.63.38c-.49 0-1.65-.33-1.65-1 0-.38.6-.38.88-.38a22.19 22.19 0 0 0 4.67-.55c0-.06.05-.17.05-.22a8.43 8.43 0 0 1 4.23-5.33 3.82 3.82 0 0 1 1.92-.44c1.51.02 3.1.84 3.1 2.49zm-2.25-.06c0-.55-.6-.71-1.1-.71-2 0-3.52 2.14-4.12 3.85 1.2-.22 5.22-1.65 5.22-3.13z" fill="#fff"/><path d="M191.72 29.48c0 1-2.09 1.43-2.86 1.43-5.06 0-3.9-6.54-5.77-6.54-.5 0-.88.5-1.15.88a37.79 37.79 0 0 1-4.07 5.11 2.2 2.2 0 0 1-1.43.55 2 2 0 0 1-1.81-1.32c-.66-1.59-.93-3.35-1.65-4.95-.17-.38-.44-1-.94-1-1.48 0-4.73 7.42-7.2 7.42a1.73 1.73 0 0 1-1.65-1.92c0-1.87.94-3.68.94-5.55 0-.77-.27-1.32-1.1-1.32a2.5 2.5 0 0 0-1.26.44c-5.94 3.74-14.41 8.19-21.45 8.19a.61.61 0 0 1-.6-.6c0-.49.49-.55.82-.55 3.63-.05 7.81-1.76 11.11-3.13a38.33 38.33 0 0 0 5.53-2.89c1.32-.83 4.51-3.41 6-3.52h.39c1.54 0 2.25 1.21 2.25 2.64a14.32 14.32 0 0 1-.66 3.46 17.05 17.05 0 0 0-.44 2.42c0 .06-.06.17-.06.22a.43.43 0 0 0 .39.44c1.15 0 4.84-7.7 7.48-7.7s2.47 7.04 4.18 7.04c.83 0 3.68-4.34 4.23-5.11a3.09 3.09 0 0 1 2.31-1.43 2.1 2.1 0 0 1 1.76 1c1.48 2.36.39 6.43 4.29 6.43.71 0 1.38-.44 2.09-.44.16.02.33.08.33.3zM227.97 30.91c-4.89 0-5.66-4.84-6.87-4.84-1.37 0-3 5.94-7.7 5.94a2.82 2.82 0 0 1-3.08-3c0-3.3 4.51-7.75 7.86-7.75a3.62 3.62 0 0 1 3.35 1.76c1.59-.16 1.7 1.48 2 2.58a9.09 9.09 0 0 0 .66 1.7 4.31 4.31 0 0 0 3.78 2.43.6.6 0 0 1 .6.55.61.61 0 0 1-.6.63zm-14.19-.49c1.54 0 3.24-2.15 4.07-3.3.6-.88 1.1-1.92 1.76-2.8-.44-.71-.88-1.37-1.81-1.37-2.25 0-5.55 3.68-5.55 5.88a1.46 1.46 0 0 0 1.53 1.58z" fill="#fff"/><path d="M242.87 5.23c.94-1.16 2.69-2.86 4.29-2.86 1.76 0 2.42 2 2.42 3.46 0 3.9-3.74 10.89-6.1 14l-1.15 1.48c-.55.77-1 1.59-1.65 2.31 1.26 3 3.46 6.16 7.09 6.16a.6.6 0 0 1 .6.55.61.61 0 0 1-.6.6c-3.9 0-6.71-2.47-8.3-5.88-3.52 4-6.21 5.88-11.66 5.88a.6.6 0 0 1-.55-.6.59.59 0 0 1 .55-.55 12.29 12.29 0 0 0 4.67-.77 17.87 17.87 0 0 0 6.38-5.44 18.09 18.09 0 0 1-.82-5.11 23.48 23.48 0 0 1 4.83-13.23zm2.69 8.58c1-1.87 2.53-5.28 2.53-7.37 0-.93-.38-1.92-1.48-1.92a2.13 2.13 0 0 0-1.26.5c-3.35 2.42-5.61 9.51-5.61 13.47a14.1 14.1 0 0 0 .39 3.41 71.76 71.76 0 0 0 5.44-8.1z" fill="#fff"/><path d="M266.8 37.73c-3.3 3.3-8.3 8.41-8.3 13.09a3 3 0 0 0 3.13 3.3 5.5 5.5 0 0 0 4.23-2.2c4.29-5.5 6.49-12.59 6.93-20.51 0-.5.06-.94.06-1.43 0-.71 0-3.19-1.1-3.19a2.2 2.2 0 0 0-1 .39 9 9 0 0 1 .11 1.21c0 .55-.27 1.32-.93 1.32s-.5-1.16-.5-1.54c-1.76 1.38-3.85 3.41-6.27 3.41-2.25 0-4-1-4-3.41a6 6 0 0 1 .21-1.44c-3.46 2.42-6.76 4.18-11.05 4.18-.49 0-1.21.11-1.21-.6a.59.59 0 0 1 .55-.55 14.25 14.25 0 0 0 2.64-.22 21.23 21.23 0 0 0 8.85-4.18l1-.93c.88-2 3.08-4.78 5.5-4.78 2.64 0 4.29 3.35 4.78 5.61a3.14 3.14 0 0 1 1.71-.55c1.54 0 1.81 1.65 1.87 2.86s.11 2.53.11 3.79c0 8.25-3.41 18.75-9.07 23.43a5.33 5.33 0 0 1-3.46 1.21 4.66 4.66 0 0 1-4.84-5c0-5.33 5.72-11.6 10.06-15.18.49-.44 3.24-2.75 3.79-2.75a.62.62 0 0 1 .6.66c0 .17-.27.44-.44.55a29.86 29.86 0 0 0-3.96 3.45zm2.53-11.55c-.27-1.76-1.59-4.45-3.63-4.45-2.36 0-4.51 3.79-4.51 5.94a1.89 1.89 0 0 0 2.15 2c2.47.06 4.23-2.01 5.99-3.49z" fill="#fff"/><path d="M301.88 25.24a5.37 5.37 0 0 0 4.4 4.4c.44.11 1.54 0 1.54.66a.61.61 0 0 1-.61.6 7.48 7.48 0 0 1-7.53-6.38c-1.38 3.24-4.34 7.75-8.36 7.75-2.75 0-4.29-2.14-4.29-4.73a11.47 11.47 0 0 1 .94-4.12 52.66 52.66 0 0 0-8.69 4.78c-4.78 3.08-8.19 6-8.69 6a.55.55 0 0 1-.55-.55.82.82 0 0 1 .22-.5 107.6 107.6 0 0 1 15.73-10.61c.83-.44 2.53-1.59 3.46-1.59.66 0 1.1.22 1.1.83 0 1.37-1.87 3.35-1.87 6a2.67 2.67 0 0 0 2.87 2.95 3.24 3.24 0 0 0 1.87-.55c2.69-1.76 3.79-4.51 5.11-7.31.38-.77 1-1.81 2-1.81 1.68-.05 1.19 3.08 1.35 4.18z" fill="#fff"/><path d="M353.25 29.48c0 1-2.09 1.43-2.86 1.43a3.37 3.37 0 0 1-3-1.26 11 11 0 0 1-1.59-3.57c-.17-.55-.28-1.21-.77-1.54a.63.63 0 0 0-.44-.17c-.49 0-.82.55-1.1.88l-1.37 1.76a19.94 19.94 0 0 1-2.69 3.35 2.2 2.2 0 0 1-1.43.55 2 2 0 0 1-1.82-1.32c-.66-1.59-1-3.35-1.7-4.95-.17-.38-.38-1-.88-1-1.48 0-4.73 7.42-7.2 7.42a1.75 1.75 0 0 1-1.65-1.92c0-1.92 1-4 1-5.83a1.14 1.14 0 0 0-1.16-1.21c-3.35 0-9.79 8.8-15.89 8.8-.55 0-2.14.27-2.14-.6a.6.6 0 0 1 .61-.55 14.1 14.1 0 0 0 8.58-3.3c2.14-1.59 6.43-6 9-6a2.59 2.59 0 0 1 2.58 2.86c0 1.92-1.1 3.74-1.1 5.66a.35.35 0 0 0 .38.38c1.21 0 4.84-7.7 7.42-7.7 2.8 0 2.58 7.09 4.23 7.09.83 0 3.63-4.34 4.23-5.11a3.09 3.09 0 0 1 2.31-1.43 2.1 2.1 0 0 1 1.76 1c1.43 2.25.44 6.16 4 6.43h.33c.71 0 1.38-.44 2.09-.44.11.01.27.07.27.29zM385.21 5.23c.93-1.16 2.69-2.86 4.29-2.86 1.76 0 2.42 2.09 2.42 3.52 0 4-3.79 10.78-6.1 13.91a15.38 15.38 0 0 0-1.15 1.48c-.55.82-1 1.59-1.65 2.36 1.27 3 3.52 6.1 7.09 6.1a.6.6 0 0 1 .6.55.61.61 0 0 1-.6.6c-3.85 0-6.71-2.42-8.25-5.83-2.86 3.19-6.1 6.27-10.67 6.27-.55 0-2.09-.17-2.09-.93 0-.27.38-.33.6-.33a11 11 0 0 0 4.23-.6c2.86-1.15 5.33-3.63 7.26-6a17.42 17.42 0 0 1-.82-5.06 23.48 23.48 0 0 1 4.84-13.18zm2.69 8.58c1-1.87 2.53-5.28 2.53-7.37 0-.93-.38-1.92-1.48-1.92a2.13 2.13 0 0 0-1.26.5c-3.35 2.42-5.61 9.51-5.61 13.47a14.08 14.08 0 0 0 .39 3.41 71.82 71.82 0 0 0 5.43-8.1z" fill="#fff"/><path d="M408.25 30.14c2.69-1.81 3.68-4.51 5.06-7.31.38-.77 1.1-1.81 2-1.81 1.71 0 1.21 3.08 1.38 4.23a5.31 5.31 0 0 0 4.4 4.4c.44.11 1.48 0 1.48.66a.61.61 0 0 1-.6.6 7.48 7.48 0 0 1-7.5-6.38 8.72 8.72 0 0 1-1 2c-1.6 2.69-3.91 5.77-7.37 5.77-2.86 0-4.23-2.42-4.23-5a9.27 9.27 0 0 1 .33-2.47 20.08 20.08 0 0 1-6 4.67 13.28 13.28 0 0 1-6.16 1.37.57.57 0 0 1-.55-.6.59.59 0 0 1 .55-.55 11.28 11.28 0 0 0 5.43-1.29 20.27 20.27 0 0 0 6.1-5.33c.49-.77 1.71-2.8 2.8-2.8a1.16 1.16 0 0 1 1.1 1.21c0 1.48-2 3.57-2 6.27a2.72 2.72 0 0 0 2.86 3 3.34 3.34 0 0 0 1.92-.64z" fill="#fff"/><path d="M440.98 37.73c-3.3 3.3-8.3 8.41-8.3 13.09a3 3 0 0 0 3.13 3.3 5.5 5.5 0 0 0 4.23-2.2c4.29-5.5 6.49-12.59 6.93-20.51 0-.5.05-.94.05-1.43 0-.71 0-3.19-1.1-3.19a2.2 2.2 0 0 0-1 .39 9 9 0 0 1 .11 1.21c0 .55-.28 1.32-.93 1.32s-.5-1.16-.5-1.54c-1.76 1.38-3.85 3.41-6.27 3.41-2.25 0-4-1-4-3.41a6 6 0 0 1 .17-1.43c-3.46 2.42-6.76 4.18-11.05 4.18-.49 0-1.21.11-1.21-.6a.59.59 0 0 1 .55-.55 14.25 14.25 0 0 0 2.68-.24 21.23 21.23 0 0 0 8.85-4.18l1-.93c.88-2 3.08-4.78 5.5-4.78 2.64 0 4.29 3.35 4.78 5.61a3.14 3.14 0 0 1 1.77-.52c1.54 0 1.81 1.65 1.87 2.86s.11 2.53.11 3.79c0 8.25-3.41 18.75-9.07 23.43a5.33 5.33 0 0 1-3.46 1.21 4.66 4.66 0 0 1-4.84-5c0-5.33 5.72-11.6 10.06-15.18.5-.44 3.24-2.75 3.79-2.75a.62.62 0 0 1 .6.66c0 .17-.27.44-.44.55a29.89 29.89 0 0 0-4.01 3.43zm2.49-11.55c-.28-1.76-1.59-4.45-3.63-4.45-2.37 0-4.51 3.79-4.51 5.94a1.89 1.89 0 0 0 2.14 2.06c2.52 0 4.28-2.07 6-3.55z" fill="#fff"/><path d="M472.33 25.57a6.6 6.6 0 0 0 .71 1.7 4.23 4.23 0 0 0 3.68 2.46.6.6 0 0 1 .6.55.61.61 0 0 1-.6.6c-4.89 0-5.61-4.84-6.87-4.84s-2.91 5.94-7.7 5.94a2.72 2.72 0 0 1-3-2.91 6.38 6.38 0 0 1 1.1-3.3c-3.9 1.92-7.92 3.57-11.6 5.94a36.73 36.73 0 0 1-3.79 2.47.6.6 0 0 1-.61-.55.62.62 0 0 1 .17-.44 22.6 22.6 0 0 1 2.53-1.76 61.25 61.25 0 0 1 5.83-3.35c2.14-1.1 4.29-2.15 6.49-3.13.93-.5 2-.88 2.91-1.43.33-.22.66-.6 1-.88a6.34 6.34 0 0 1 3.79-1.43 3.88 3.88 0 0 1 3.41 1.76c1.56-.15 1.67 1.5 1.95 2.6zm-3.86-1.26c-.44-.71-.93-1.37-1.81-1.37-2.31 0-5.55 3.63-5.55 5.83a1.45 1.45 0 0 0 1.54 1.65c2.42-.01 4.45-4.41 5.82-6.11z" fill="#fff"/><path d="M509.61 22.22c0 .22-.22.27-.38.27a9.62 9.62 0 0 1-1.81-.27 12.93 12.93 0 0 0-2.09-.11c-5.88 0-9.79 3.35-13.09 7.92-.39.55-1.27 1.71-2 1.71-1.92 0-1.37-6.32-1.59-7.59-.06-.27-.17-.6-.5-.6-1.15 0-6.27 7.37-11.22 7.37-.38 0-.88-.05-.88-.6 0-.33.33-.49.6-.55a7.52 7.52 0 0 0 2.2-.49c2.8-1.27 5.61-4.34 7.81-6.54a3.09 3.09 0 0 1 2-1.15c1.65 0 1.59 2.58 1.59 3.68s.05 2.36.05 3.57c0 .27 0 .77.38.77.22 0 1.43-1.54 1.6-1.7a27.14 27.14 0 0 1 3-3.13 16.88 16.88 0 0 1 10.67-3.9c.86-.04 3.66.02 3.66 1.34z" fill="#fff"/></svg>