<svg xmlns="http://www.w3.org/2000/svg" viewBox="0 0 199.39 24.8"><defs><style>.a{fill:#3a1a0d}</style></defs><title>p3_s1</title><path class="a" d="M15.47 12.08a.49.49 0 0 1 .52.48c0 .52-.48.76-1.44.92.36 6.12.92 9.24.92 9.56s-.28.44-.6.44c-1 0-1-2.28-1.12-3.48l-.6-6.24c-2 .4-8.24 1.32-8.24 1.48-1.64 3.68-2.36 5.08-3.12 7-.24.56-.48 1.32-1.32 1.32-.32 0-.48-.2-.48-.52s2.12-5 3.4-7.72c-.36 0-.64.08-.88.08-.84 0-1.16-.32-1.16-.64 0-.76 1.2-.56 2.68-.88 2.56-5.68 5-11.72 6.12-13A2 2 0 0 1 11.71 0c1.8 0 1.72 3.32 1.88 4.8.24 2.44.48 4 .84 7.4l.6-.08a1.79 1.79 0 0 1 .44-.04zm-2.44.36c-.32-4.36-.68-7.08-1-9.68-.08-.64-.28-1-.6-1-.72 0-3.16 5.8-5.84 11.92 2.88-.44 4.44-.68 6.64-1.08zm26.48 2.52c0 .16-.12.2-.24.2-.44 0-.64-.6-1.52-.6-1.76 0-3.24 3-3.24 4.56a2.51 2.51 0 0 0 2.52 2.52c.24 0 .4.12.4.4a.41.41 0 0 1-.4.44c-1.88 0-3.84-1.32-3.84-3.36s1.88-5.48 4.16-5.48c.68 0 2.16.52 2.16 1.32z"/><path class="a" d="M57.19 18.6a6.62 6.62 0 0 0 .48 1.24 3.09 3.09 0 0 0 2.72 1.8.44.44 0 0 1 .44.4.44.44 0 0 1-.44.44c-3.56 0-4.12-3.52-5-3.52s-2.12 4.32-5.6 4.32a2 2 0 0 1-2.2-2.12 4.53 4.53 0 0 1 .64-2.16c-3.08 1.45-7.91 3.45-11.24 3.45a.44.44 0 0 1-.44-.44c0-.32.32-.4.56-.4 2.2-.08 6-1.4 8.08-2.28a31.47 31.47 0 0 0 4.4-2 5.21 5.21 0 0 1 3.73-1.88 2.82 2.82 0 0 1 2.48 1.28c1.07-.13 1.19 1.11 1.39 1.87zm-2.88-.92c-.28-.52-.64-1-1.28-1-1.68 0-4.08 2.68-4.08 4.28a1.06 1.06 0 0 0 1.12 1.16c1.8 0 3.36-3.16 4.25-4.44z"/><path class="a" d="M74.43 24.8c-1.16 0-2.52-.4-2.52-1.76a2.78 2.78 0 0 1 1.12-2c1.52-1.32 4.4-1.72 6.36-2-1-2-3.84-3.44-5.28-5.12a61.8 61.8 0 0 1-7.44 6.28c-2.2 1.56-3.52 2.32-6.32 2.32a.45.45 0 0 1-.48-.4.44.44 0 0 1 .44-.44 9 9 0 0 0 4.36-1.36c3.28-1.88 6.12-4.64 8.88-7.2a2.18 2.18 0 0 1-.36-1.12c0-1.56 1.4-3.72 3.08-3.72a1.21 1.21 0 0 1 1.24 1.28c0 1.32-1.56 2.84-2.52 3.6h-.08c1.44 1.36 3 2.52 4.44 3.84a4.65 4.65 0 0 1 1.28 1.8c.4 0 1.28-.08 1.52-.08a.44.44 0 0 1 .44.44.44.44 0 0 1-.44.44h-1.28c.28 3.04-3.84 5.2-6.44 5.2zm5.16-4.76v-.24c-1.68.16-6.64.84-6.64 3.12 0 .8.8 1 1.48 1 2.04.04 5.16-1.52 5.16-3.88zm-5.16-8.2a1.49 1.49 0 0 0 0 .44c.48-.44 1.92-1.8 1.92-2.48a.34.34 0 0 0-.36-.36c-.8.01-1.56 1.72-1.56 2.4z"/><path class="a" d="M101.75 21c0 1-2.08 1.48-2.88 1.48-3.6 0-4.12-3.52-5-3.52s-2.16 4.32-5.6 4.32a2 2 0 0 1-2.24-2.16 4.52 4.52 0 0 1 .92-2.52 10.46 10.46 0 0 1-4.8 1 .44.44 0 0 1-.44-.44.44.44 0 0 1 .44-.44 12.61 12.61 0 0 0 5.48-1.48c.36-.2.8-.36 1.16-.6a4.76 4.76 0 0 1 3-1.2 2.71 2.71 0 0 1 2.44 1.28 1.19 1.19 0 0 1 1.16.68 10.71 10.71 0 0 1 .32 1.2c.44 1.56 1.4 3 3.2 3a6.57 6.57 0 0 0 2.64-.92c.12.04.2.16.2.32zm-9-3.32c-.32-.52-.64-1-1.32-1-1.64 0-4 2.68-4 4.28a1.06 1.06 0 0 0 1.12 1.16c1.77 0 3.28-3.2 4.24-4.44zm34.57 2.52c0 1.2-2.32 1.92-3.24 2.12a7.6 7.6 0 0 1-1.64.16A3.59 3.59 0 0 1 118.6 19a15.22 15.22 0 0 1-2.68.28c-.36 0-1.16-.24-1.16-.72 0-.28.44-.28.64-.28a16.11 16.11 0 0 0 3.36-.4v-.16c.44-2 2.4-4.2 4.52-4.2a2 2 0 0 1 2.2 1.76 2.22 2.22 0 0 1-.24.88c-.6 1.2-3.88 2-5.12 2.44a.94.94 0 0 1-.32.08v.36a2.48 2.48 0 0 0 2.6 2.6 6.26 6.26 0 0 0 3.76-1.08 9.42 9.42 0 0 1 .84-.64c.32 0 .32.08.32.28zm-7.2-2.64c.92-.2 3.76-1.2 3.76-2.28 0-.44-.44-.52-.8-.52-1.37 0-2.57 1.56-2.93 2.8zm1.32-5.92c-.16 0-.24 0-.24-.16 0-.28 2.68-2.6 3.32-2.6.32 0 .6.16.6.4 0 .52-2.44 2.08-3.32 2.32a1.1 1.1 0 0 1-.33.04zm37.47 7.52a.44.44 0 0 1-.44.44h-1.36c.24 3.12-3.8 5.16-6.48 5.16-1.12 0-2.48-.44-2.48-1.8 0-2.92 5.48-3.8 7.6-4-1-2-4.2-3.44-5.52-5.16a24.13 24.13 0 0 1-3.4 2.64c-1.28.8-4 2.48-5.52 2.48-.28 0-.92-.12-.92-.52s1-.44 1.2-.52a15.78 15.78 0 0 0 3.24-1.48 29.56 29.56 0 0 0 4.8-3.52 2.73 2.73 0 0 1-.28-1.12c0-1.44 1.48-3.56 3-3.56a1.25 1.25 0 0 1 1.28 1.32c0 1.6-1.56 2.6-2.6 3.52a45.44 45.44 0 0 0 4.68 4.08 3.93 3.93 0 0 1 1.24 1.68c.4 0 1.28-.08 1.52-.08a.44.44 0 0 1 .44.44zm-3 .6c-1.64.16-6.72.84-6.72 3.08 0 .84.76 1.12 1.48 1.12 2.16 0 5.28-1.44 5.28-4.2zm-3.44-10a.33.33 0 0 0-.36-.32c-.84 0-1.6 1.68-1.6 2.36v.28c.56-.44 2-1.63 2-2.32z"/><path class="a" d="M169.67 21.92c2-1.32 2.68-3.28 3.68-5.32.28-.56.8-1.32 1.48-1.32 1.24 0 .88 2.24 1 3.08a3.86 3.86 0 0 0 3.2 3.2c.32.08 1.08 0 1.08.48a.44.44 0 0 1-.44.44 5.44 5.44 0 0 1-5.48-4.64 6.34 6.34 0 0 1-.72 1.48c-1.16 2-2.84 4.2-5.36 4.2-2.08 0-3.08-1.76-3.08-3.64a12.7 12.7 0 0 1 .8-3.44 17.08 17.08 0 0 1-4.6 2.68 7.36 7.36 0 0 1-2.8.48.44.44 0 0 1-.44-.44.43.43 0 0 1 .4-.44 7 7 0 0 0 2-.36 10.61 10.61 0 0 0 2.36-1.12c.72-.4 3.48-2.48 4.12-2.48a.8.8 0 0 1 .8.88c0 1.08-1.48 2.6-1.48 4.56a2 2 0 0 0 2.08 2.16 2.42 2.42 0 0 0 1.4-.44z"/><path class="a" d="M199.39 21c0 1-2.08 1.48-2.88 1.48-3.6 0-4.12-3.52-5-3.52s-2.16 4.32-5.64 4.32a2 2 0 0 1-2.2-2.16v-.2a6.08 6.08 0 0 1-3.88 1.56c-.32 0-.64 0-.64-.44a.44.44 0 0 1 .44-.4c1.8 0 3.28-1.28 4.6-2.4 1-1.76 3.08-3.8 5.2-3.8a2.71 2.71 0 0 1 2.44 1.28 1.1 1.1 0 0 1 1.12.68 6.84 6.84 0 0 1 .36 1.2c.44 1.56 1.4 3 3.2 3a6.86 6.86 0 0 0 2.64-.92c.17.04.24.16.24.32zm-9-3.32c-.32-.52-.64-1-1.32-1-1.64 0-4 2.68-4 4.28a1.06 1.06 0 0 0 1.12 1.16c1.8 0 3.28-3.2 4.24-4.44z"/></svg>