<svg xmlns="http://www.w3.org/2000/svg" viewBox="0 0 372.59 38.46"><title>p3_s3</title><path d="M9.69 23.66c0 .24-.18.3-.37.3-.67 0-1-.9-2.32-.9-2.69 0-4.95 4.56-4.95 6.84s1.65 3.54 3.85 3.78c.37.06.61.18.61.6a.62.62 0 0 1-.61.66c-2.87 0-5.86-2-5.86-5s2.87-8.22 6.35-8.22c1 0 3.3.78 3.3 1.94z" fill="#fff"/><path d="M36.64 29.16a9.84 9.84 0 0 0 .73 1.86 4.72 4.72 0 0 0 4.15 2.7.66.66 0 0 1 .67.6.67.67 0 0 1-.67.66c-5.43 0-6.29-5.28-7.63-5.28s-3.24 6.48-8.55 6.48c-2.08 0-3.36-1.14-3.36-3.18a6.72 6.72 0 0 1 1-3.24c-4.7 2.16-12.09 5.22-17.16 5.22a.67.67 0 0 1-.67-.66c0-.48.49-.6.86-.6 3.36-.12 9.16-2.1 12.33-3.42a48.57 48.57 0 0 0 6.72-3.06l.06-.06c1.53-1.5 3.3-2.76 5.56-2.76a4.33 4.33 0 0 1 3.79 1.92c1.68-.18 1.86 1.68 2.17 2.82zm-4.4-1.38c-.43-.78-1-1.5-2-1.5-2.56 0-6.23 4-6.23 6.42a1.6 1.6 0 0 0 1.71 1.74c2.79 0 5.18-4.78 6.52-6.66z" fill="#fff"/><path d="M62.96 38.46c-1.77 0-3.85-.6-3.85-2.64a4.15 4.15 0 0 1 1.71-3.06c2.32-2 6.72-2.58 9.71-3-1.47-3.06-5.86-5.16-8.06-7.68a94 94 0 0 1-11.36 9.42c-3.36 2.34-5.37 3.48-9.65 3.48a.68.68 0 0 1-.73-.6.67.67 0 0 1 .67-.66 13.92 13.92 0 0 0 6.66-2c5-2.82 9.34-7 13.56-10.8a3.24 3.24 0 0 1-.55-1.68c0-2.34 2.14-5.58 4.7-5.58a1.83 1.83 0 0 1 1.89 1.92c0 2-2.38 4.26-3.85 5.4-.06 0-.06.06-.12.06 2.2 2 4.52 3.78 6.78 5.76a7 7 0 0 1 2 2.7c.61-.06 2-.12 2.32-.12a.67.67 0 0 1 .67.66.67.67 0 0 1-.67.66c-.24 0-1.1 0-2 .06.43 4.46-5.86 7.7-9.83 7.7zm7.88-7.14v-.36c-2.57.24-10.15 1.26-10.15 4.7 0 1.2 1.22 1.56 2.26 1.56 3.12-.02 7.89-2.36 7.89-5.9zm-7.88-12.3a2.2 2.2 0 0 0 .06.66c.73-.66 2.93-2.7 2.93-3.72a.51.51 0 0 0-.55-.54c-1.28 0-2.44 2.58-2.44 3.6z" fill="#fff"/><path d="M104.69 32.76c0 1.5-3.18 2.22-4.4 2.22-5.5 0-6.29-5.28-7.63-5.28-1.53 0-3.3 6.48-8.55 6.48a3.09 3.09 0 0 1-3.42-3.24 6.7 6.7 0 0 1 1.4-3.78 16.21 16.21 0 0 1-7.33 1.5.67.67 0 0 1-.67-.66.67.67 0 0 1 .67-.66 19.51 19.51 0 0 0 8.37-2.22c.55-.3 1.22-.54 1.77-.9 1.59-1 2.5-1.8 4.52-1.8a4.16 4.16 0 0 1 3.72 1.92 1.82 1.82 0 0 1 1.77 1 15.64 15.64 0 0 1 .49 1.8c.67 2.34 2.14 4.56 4.88 4.56 2 0 3.79-1.38 4-1.38s.41.2.41.44zm-13.68-5c-.49-.78-1-1.5-2-1.5-2.5 0-6.17 4-6.17 6.42a1.6 1.6 0 0 0 1.71 1.74c2.71.02 4.97-4.76 6.44-6.64zM142.1 16.38c1-4.08 4.64-16.38 9.77-16.38a2 2 0 0 1 2 2.22 16.51 16.51 0 0 1-1.77 6.06c-1 2.28-2.44 4.38-3.66 6.6-1.65 2.94-3.12 5.88-4.95 8.7-.31.48-.61 1-1 1.44.37 2.34.55 4.62 2.38 6.42a8.77 8.77 0 0 0 6.11 2.28.62.62 0 0 1 .67.6.67.67 0 0 1-.67.66c-5.43 0-8.73-3-9.77-8.1-2.38 3.24-6.29 8.88-10.81 8.88a3.69 3.69 0 0 1-3.91-3.72c0-3.6 4.58-7.32 8.18-7.32a4.41 4.41 0 0 1 4.09 2.88c.79-1 1.46-2 2.2-3.06a33.26 33.26 0 0 1 1.14-8.16zm-4.76 13l.06-.06a2.82 2.82 0 0 0-2.93-2.66c-2.5 0-5.86 2.52-5.86 5.16a1.88 1.88 0 0 0 2 2c2.82.02 5.02-2.5 6.73-4.42zm8.35-12.52c1.1-1.92 2.14-3.9 3.17-5.88s3.05-5.1 3.05-7.2c0-.6-.24-1.2-1-1.2-2.75 0-5.86 9.72-6.59 11.94a41.41 41.41 0 0 0-1.83 7.68z" fill="#fff"/><path d="M181.19 32.76c0 1.5-3.17 2.22-4.4 2.22-5.5 0-6.29-5.28-7.63-5.28-1.53 0-3.3 6.48-8.61 6.48a3 3 0 0 1-3.36-3.24v-.28c-2 1.38-3.42 2.34-5.92 2.34-.49 0-1-.06-1-.66a.66.66 0 0 1 .67-.6c2.75 0 5-1.92 7-3.6 1.47-2.64 4.7-5.7 7.94-5.7a4.16 4.16 0 0 1 3.81 1.9 1.68 1.68 0 0 1 1.71 1 10.13 10.13 0 0 1 .55 1.8c.67 2.34 2.14 4.56 4.89 4.56 1.89 0 3.79-1.38 4-1.38s.35.2.35.44zm-13.68-5c-.49-.78-1-1.5-2-1.5-2.5 0-6.17 4-6.17 6.42a1.6 1.6 0 0 0 1.71 1.74c2.73.02 4.99-4.76 6.46-6.64zM235.54 7.66c-.24.9-.92 2.7-1.65 4.86-1 2.88-2.2 6.54-3.05 9.36a104.25 104.25 0 0 1-3.54 10.26c-.43 1.08-1.47 2.58-2.63 2.58-2.08 0-2.81-3-3.72-6.3a5.41 5.41 0 0 0-.25-1l-2.56-9.84c-.67-2.58-1.4-5.4-2.44-9.18-.12-.48-.43-1.14-.67-1.14-.49 0-2.75 8.1-4.21 13.26-.18.54-.3 1.08-.43 1.56-1.1 3.78-1.83 5.82-2.38 7.5-.49 1.32-.79 2.46-1.28 4.14-.24 1-.55 2.64-1.65 2.64-.49 0-.85-.54-.85-1.2a2.08 2.08 0 0 1 .12-.6l2.63-9c1.47-4.92 3-9.9 4.58-15.48 0-.12.12-.3.12-.42.61-2.22 1.59-5.7 3.48-5.7s2.38 2.58 5 13.62l.85 3.54c1.1 4.62 3.05 10.8 3.72 10.8s1.34-2.16 2-4c.79-2.46 2-5.76 2.93-8.88 1.53-4.56 3-9.06 3.79-11.82.18-.84.73-2.4 1.77-2.4a.92.92 0 0 1 .92.78 4.17 4.17 0 0 1-.37 1.44zM253.25 34.98c-5.43 0-6.29-5.28-7.63-5.28-1.53 0-3.3 6.48-8.55 6.48a3.1 3.1 0 0 1-3.42-3.3c0-3.6 5-8.46 8.73-8.46a4 4 0 0 1 3.72 1.92c1.77-.18 1.89 1.62 2.26 2.82a9.77 9.77 0 0 0 .73 1.86 4.79 4.79 0 0 0 4.15 2.7.66.66 0 0 1 .67.6.67.67 0 0 1-.66.66zm-15.75-.54c1.71 0 3.6-2.34 4.52-3.6.67-1 1.22-2.1 2-3.06-.49-.78-1-1.5-2-1.5-2.5 0-6.17 4-6.17 6.42a1.6 1.6 0 0 0 1.65 1.74z" fill="#fff"/><path d="M275.05 18.72c0 1.5-4.27 1.56-5.31 1.62v.06a2.5 2.5 0 0 1-.24.6 21.69 21.69 0 0 0-2 7.74 4.55 4.55 0 0 0 1.47 3.72 6 6 0 0 0 3.36 1.26c.31.06.67.24.67.6a.67.67 0 0 1-.67.66 5.9 5.9 0 0 1-6.23-6.06 19.42 19.42 0 0 1 .49-3.78c-2.2 3.78-8.73 9.84-13.43 9.84a.67.67 0 0 1-.67-.66c0-.36.37-.54.67-.6a13.46 13.46 0 0 0 6.17-3 26.65 26.65 0 0 0 7.88-10.26c-1 .06-1.89.12-2.87.12-.55 0-1.89-.18-1.89-1 0-1.2 4.52-1.08 5.56-1.08.31-.78 1.34-3.9 2.38-3.9.79 0 .92 1.32.92 1.86a8.42 8.42 0 0 1-.67 2 22.44 22.44 0 0 1 3.48 0c.2.02.93-.16.93.26z" fill="#fff"/><path d="M292.52 34.14c3-2 4.09-4.92 5.62-8 .43-.84 1.22-2 2.26-2 1.89 0 1.34 3.36 1.53 4.62a5.85 5.85 0 0 0 4.89 4.8c.49.12 1.65 0 1.65.72a.67.67 0 0 1-.67.66 8.27 8.27 0 0 1-8.37-7 9.48 9.48 0 0 1-1.1 2.22c-1.77 2.94-4.34 6.3-8.18 6.3-3.18 0-4.7-2.64-4.7-5.46a9.94 9.94 0 0 1 .37-2.7 22.24 22.24 0 0 1-6.72 5.1 15 15 0 0 1-6.84 1.5.62.62 0 0 1-.61-.66.65.65 0 0 1 .61-.6 12.7 12.7 0 0 0 6.11-1.44 22.4 22.4 0 0 0 6.78-5.82c.55-.84 1.89-3.06 3.11-3.06a1.28 1.28 0 0 1 1.22 1.32c0 1.62-2.26 3.9-2.26 6.84a3 3 0 0 0 3.18 3.24 3.75 3.75 0 0 0 2.12-.58z" fill="#fff"/><path d="M334.17 33.72a.66.66 0 0 1 .67.6.67.67 0 0 1-.67.66c-3.11 0-6.53-1.5-6.53-5 0-2.58 1.65-5 1.65-7.56 0-1.62-1.83-2.4-3.11-2.94l-.18-.06c-1.22 2.46-4.46 6.12-6.47 8-2.69 2.52-5.07 5.22-8.43 6.84a7 7 0 0 1-3.11.72c-.43 0-1-.06-1-.66a.65.65 0 0 1 .61-.6 6.87 6.87 0 0 0 2.44-.54c3.73-1.62 12.71-10.52 14.65-14.52-1.4-.72-3-1.74-3-3.48a2.63 2.63 0 0 1 2.69-2.52 3 3 0 0 1 3 2.88 5.68 5.68 0 0 1-.55 2.22l.18.06c2.08.9 4.15 2 4.15 4.56s-1.22 4.74-1.71 7.14a2 2 0 0 0-.06.6c.02 2.28 2.76 3.6 4.78 3.6zm-8.85-16.74l.06-.06a4.5 4.5 0 0 0 .18-1.26c0-.48-.24-1.2-.92-1.2a1 1 0 0 0-1 .9c.05.72 1.12 1.3 1.67 1.62z" fill="#fff"/><path d="M364.28 32.76c0 1.5-3.17 2.22-4.4 2.22-5.5 0-6.29-5.28-7.63-5.28-1.53 0-3.3 6.48-8.61 6.48a3 3 0 0 1-3.36-3.24v-.28c-2 1.38-3.42 2.34-5.92 2.34-.49 0-1-.06-1-.66a.66.66 0 0 1 .67-.6c2.75 0 5-1.92 7-3.6 1.47-2.64 4.7-5.7 7.94-5.7a4.16 4.16 0 0 1 3.72 1.9 1.68 1.68 0 0 1 1.71 1 10.13 10.13 0 0 1 .55 1.8c.67 2.34 2.14 4.56 4.89 4.56 1.89 0 3.79-1.38 4-1.38s.44.2.44.44zm-13.68-5c-.49-.78-1-1.5-2-1.5-2.5 0-6.17 4-6.17 6.42a1.6 1.6 0 0 0 1.71 1.74c2.73.02 4.99-4.76 6.46-6.64zM370.94 32.46a1.7 1.7 0 0 1 1.65 1.56 1.28 1.28 0 0 1-1.28 1.32 1.46 1.46 0 0 1-1.62-1.62 1 1 0 0 1 .37-.9 1.36 1.36 0 0 1 .88-.36z" fill="#fff"/></svg>