<svg xmlns="http://www.w3.org/2000/svg" viewBox="0 0 320.98 109.07"><defs><style>.a{fill:#3a1a0d}</style></defs><title>p3_s4</title><path class="a" d="M31.54 18.43a.75.75 0 0 1 .79.73c0 .79-.73 1.16-2.2 1.4.55 9.33 1.4 14.09 1.4 14.58s-.43.67-.92.67c-1.46 0-1.52-3.48-1.71-5.31l-.92-9.52c-3.11.61-12.57 2-12.57 2.26-2.5 5.61-3.6 7.75-4.76 10.74-.37.85-.73 2-2 2a.69.69 0 0 1-.73-.79c0-.61 3.23-7.69 5.19-11.77a13.4 13.4 0 0 1-1.34.12c-1.28 0-1.77-.49-1.77-1 0-1.16 1.83-.85 4.09-1.34 3.9-8.66 7.63-17.87 9.33-19.89A3 3 0 0 1 25.8-.03c2.75 0 2.62 5.06 2.87 7.32.37 3.72.73 6.16 1.28 11.29l.92-.12a2.76 2.76 0 0 1 .67-.03zm-3.72.55c-.49-6.65-1-10.8-1.53-14.76-.12-1-.43-1.53-.92-1.53-1.1 0-4.82 8.85-8.91 18.18 4.39-.67 6.77-1 10.13-1.65zm40.38 3.84c0 .24-.18.3-.37.3-.67 0-1-.92-2.32-.92-2.68 0-4.94 4.64-4.94 7s1.65 3.6 3.84 3.84c.37.06.61.18.61.61a.63.63 0 0 1-.61.67c-2.87 0-5.86-2-5.86-5.12s2.87-8.36 6.34-8.36c1.05-.03 3.31.76 3.31 1.98z"/><path class="a" d="M95.16 28.37a10.14 10.14 0 0 0 .73 1.89 4.71 4.71 0 0 0 4.15 2.75.67.67 0 0 1 .67.61.68.68 0 0 1-.67.67c-5.43 0-6.28-5.37-7.63-5.37s-3.23 6.59-8.54 6.59a3 3 0 0 1-3.36-3.23 6.91 6.91 0 0 1 1-3.29c-4.7 2.2-12.08 5.31-17.14 5.31a.68.68 0 0 1-.67-.67c0-.49.49-.61.85-.61 3.36-.12 9.15-2.13 12.32-3.48a48.08 48.08 0 0 0 6.71-3.11l.06-.06c1.52-1.53 3.29-2.81 5.55-2.81a4.31 4.31 0 0 1 3.78 2c1.7-.24 1.88 1.65 2.19 2.81zm-4.39-1.4c-.43-.79-1-1.53-2-1.53-2.56 0-6.22 4.09-6.22 6.53a1.62 1.62 0 0 0 1.71 1.77c2.79 0 5.17-4.82 6.51-6.77z"/><path class="a" d="M121.45 37.83c-1.77 0-3.84-.61-3.84-2.68a4.24 4.24 0 0 1 1.71-3.11c2.32-2 6.71-2.62 9.7-3-1.46-3.11-5.86-5.25-8.05-7.81a94.34 94.34 0 0 1-11.35 9.58c-3.35 2.38-5.37 3.54-9.64 3.54a.68.68 0 0 1-.73-.61.68.68 0 0 1 .67-.67 13.73 13.73 0 0 0 6.65-2.07c5-2.87 9.33-7.08 13.54-11a3.34 3.34 0 0 1-.55-1.71c0-2.38 2.13-5.67 4.7-5.67a1.84 1.84 0 0 1 1.89 2c0 2-2.38 4.33-3.84 5.49-.06 0-.06.06-.12.06 2.2 2.07 4.51 3.84 6.77 5.86a7.12 7.12 0 0 1 2 2.75c.61-.06 2-.12 2.32-.12a.68.68 0 0 1 .67.67.68.68 0 0 1-.67.67c-.24 0-1.1 0-2 .06.42 4.47-5.86 7.77-9.83 7.77zm7.87-7.26v-.37c-2.56.24-10.13 1.28-10.13 4.76 0 1.22 1.22 1.59 2.26 1.59 3.11 0 7.84-2.38 7.84-5.98zm-7.87-12.46a2.27 2.27 0 0 0 .06.67c.73-.67 2.93-2.75 2.93-3.78a.51.51 0 0 0-.55-.55c-1.28-.05-2.44 2.58-2.44 3.66z"/><path class="a" d="M163.11 32.03c0 1.53-3.17 2.26-4.39 2.26-5.49 0-6.28-5.37-7.63-5.37-1.53 0-3.29 6.59-8.54 6.59a3.11 3.11 0 0 1-3.42-3.29 6.89 6.89 0 0 1 1.4-3.84 16 16 0 0 1-7.32 1.53.68.68 0 0 1-.67-.67.68.68 0 0 1 .67-.67 19.23 19.23 0 0 0 8.36-2.26c.55-.3 1.22-.55 1.77-.92 1.59-1 2.5-1.83 4.51-1.83a4.14 4.14 0 0 1 3.72 2 1.81 1.81 0 0 1 1.77 1 16 16 0 0 1 .49 1.83c.67 2.38 2.14 4.64 4.88 4.64 2 0 3.78-1.4 4-1.4s.4.16.4.4zm-13.67-5.06c-.49-.79-1-1.53-2-1.53-2.5 0-6.16 4.09-6.16 6.53a1.62 1.62 0 0 0 1.71 1.77c2.74 0 4.99-4.88 6.46-6.77zm52.71 3.84c0 1.83-3.54 2.93-4.94 3.23a11.61 11.61 0 0 1-2.5.24c-3.11 0-5.86-2.07-5.86-5.31a23.23 23.23 0 0 1-4.09.43c-.55 0-1.77-.37-1.77-1.1 0-.43.67-.43 1-.43a24.48 24.48 0 0 0 5.12-.61c.06-.06.06-.12.06-.24.67-3 3.66-6.41 6.89-6.41 1.59 0 3.36.92 3.36 2.68a3.39 3.39 0 0 1-.37 1.34c-.92 1.83-5.92 3.11-7.81 3.72a1.42 1.42 0 0 1-.49.12v.55c0 2.5 1.59 3.78 4 4h.06a9.55 9.55 0 0 0 5.73-1.65 14.34 14.34 0 0 1 1.28-1c.27.02.33.14.33.44zm-11-4c1.4-.3 5.73-1.83 5.73-3.48 0-.67-.67-.79-1.22-.79-2.11-.02-3.94 2.36-4.49 4.25zm2-9c-.24 0-.37-.06-.37-.24 0-.43 4.09-4 5.06-4 .49 0 .92.24.92.61 0 .79-3.72 3.17-5.06 3.54a1.68 1.68 0 0 1-.52.04zm57.14 11.42a.68.68 0 0 1-.67.67c-.24 0-1.22 0-2.07.06.37 4.76-5.8 7.87-9.88 7.87-1.71 0-3.78-.67-3.78-2.75 0-4.45 8.36-5.8 11.59-6.1v-.06c-1.53-3.11-6.41-5.25-8.42-7.87a36.85 36.85 0 0 1-5.19 4c-2 1.22-6.16 3.78-8.42 3.78-.43 0-1.4-.18-1.4-.79s1.46-.67 1.83-.79a24.08 24.08 0 0 0 4.94-2.26 45.08 45.08 0 0 0 7.32-5.37 4.15 4.15 0 0 1-.43-1.71c0-2.2 2.26-5.43 4.64-5.43a1.91 1.91 0 0 1 2 2c0 2.44-2.38 4-4 5.37h-.06a69.44 69.44 0 0 0 7.14 6.22 6 6 0 0 1 1.89 2.56c.61-.06 2-.12 2.32-.12a.68.68 0 0 1 .65.72zm-4.51.92c-2.5.24-10.25 1.28-10.25 4.7 0 1.28 1.16 1.71 2.26 1.71 3.22-.01 7.97-2.21 7.97-6.45zm-5.25-15.25a.5.5 0 0 0-.55-.49c-1.28 0-2.44 2.56-2.44 3.6v.43c.75-.68 2.98-2.45 2.98-3.55z"/><path class="a" d="M266.69 33.44c3-2 4.09-5 5.61-8.11.43-.85 1.22-2 2.26-2 1.89 0 1.34 3.42 1.52 4.7a5.89 5.89 0 0 0 4.88 4.88c.49.12 1.65 0 1.65.73a.68.68 0 0 1-.67.67 8.3 8.3 0 0 1-8.36-7.08 9.68 9.68 0 0 1-1.1 2.26c-1.77 3-4.33 6.41-8.17 6.41-3.17 0-4.7-2.68-4.7-5.55a19.32 19.32 0 0 1 1.22-5.25 26.07 26.07 0 0 1-7 4.09 11.23 11.23 0 0 1-4.27.73.68.68 0 0 1-.67-.67.66.66 0 0 1 .61-.67 10.73 10.73 0 0 0 3-.55 16.22 16.22 0 0 0 3.6-1.71c1.1-.61 5.31-3.78 6.28-3.78a1.22 1.22 0 0 1 1.22 1.34c0 1.65-2.26 4-2.26 7a3 3 0 0 0 3.17 3.29 3.7 3.7 0 0 0 2.18-.73z"/><path class="a" d="M312.01 32.03c0 1.53-3.17 2.26-4.39 2.26-5.49 0-6.28-5.37-7.63-5.37-1.53 0-3.29 6.59-8.6 6.59a3.06 3.06 0 0 1-3.36-3.29v-.3c-2 1.4-3.42 2.38-5.92 2.38-.49 0-1-.06-1-.67a.67.67 0 0 1 .67-.61c2.75 0 5-2 7-3.66 1.46-2.68 4.7-5.8 7.93-5.8a4.14 4.14 0 0 1 3.72 2 1.68 1.68 0 0 1 1.71 1 10.45 10.45 0 0 1 .55 1.83c.67 2.38 2.14 4.64 4.88 4.64 1.89 0 3.78-1.4 4-1.4s.44.16.44.4zm-13.67-5.06c-.49-.79-1-1.53-2-1.53-2.5 0-6.16 4.09-6.16 6.53a1.62 1.62 0 0 0 1.71 1.77c2.73 0 4.99-4.88 6.45-6.77zm19.4 11.53a.46.46 0 0 1-.37-.43c.06-.73.79-1.65 1-2.5.37-1.34-.12-3.72 1.46-3.72.79 0 1.1.43 1.1 1.16a8 8 0 0 1-2.32 4.94 1.67 1.67 0 0 1-.87.55zM27.29 85.46a.63.63 0 0 1-.67.61 42.61 42.61 0 0 1-7.56-.43 12 12 0 0 1-4.39-1.22c-1.89 6.53-2.93 8.78-4.76 14-1.77 5-3.17 10.62-6.89 10.62-1.77 0-3.05-2.07-3.05-4.45 0-8.85 10.68-22.88 15.43-29.77a15.08 15.08 0 0 0 .12-1.65c0-.92-.31-2.2-.31-2.75s.49-1.34 1.22-1.34c1.22 0 1.28 1.53 1.28 2.56a4.21 4.21 0 0 1-.18 1.4c1.59-.79 2.75-1.77 4.7-1.77 2.44 0 5.31 1.4 5.31 4.33 0 3.66-4.94 8.24-8.72 8.24 1.4.79 6 .92 7.81.92a.72.72 0 0 1 .66.7zm-12.63-7.08c-4.51 7-6 8.85-8.36 12.87a89.06 89.06 0 0 0-3.9 8.72 14.77 14.77 0 0 0-.73 4.45c0 1.77.43 2.81 1.46 2.81 1.59 0 2.5-2.32 3.72-5.61 1.59-4.33 2.5-6.71 4-11.29 1.44-4.22 2.87-7.98 3.85-11.94zm2.38 4.64c2.81 0 8.17-3.11 8.17-7.08 0-1.71-1.4-2.5-2.87-2.5a9.23 9.23 0 0 0-5.12 1.89c-.67 2.81-1.1 5.06-1.89 7.44a6.07 6.07 0 0 0 1.75.25z"/><path class="a" d="M57.04 80.11a23.65 23.65 0 0 0 3.6.18.68.68 0 0 1 .67.67.68.68 0 0 1-.67.67 23.55 23.55 0 0 1-4-.24c-1.22 3.23-4.82 6.16-8.11 6.16-2.56 0-3.9-2.2-3.9-4.51a8.3 8.3 0 0 1 .55-2.93c-5.43 2.38-12.75 5.92-18.54 5.92a.63.63 0 0 1-.61-.67.66.66 0 0 1 .61-.61 19.33 19.33 0 0 0 5.25-.92 71 71 0 0 0 14.28-5.86 24.26 24.26 0 0 1 1.77-2.38c1.1-1.34 3.11-3.29 4.94-3.29s2.44 1.53 2.44 3.05a4.52 4.52 0 0 1 1.77 3.78 5.19 5.19 0 0 1-.05.98zm-2.2.79c-1.83-.61-3.42-1.77-3.42-4 0-1.28 1-2 2.38-2.07a1.24 1.24 0 0 0-1-.67 2.43 2.43 0 0 0-1.52.55c-2.32 1.65-4.64 5.61-4.64 8.48a2.5 2.5 0 0 0 2.56 2.68c1.67.08 4.6-1.99 5.64-4.92zm.37-1.28c0-.24.06-.55.06-.85 0-1.28-.67-2.32-1.71-2.32-.24 0-.37.24-.37.49a2.75 2.75 0 0 0 2.02 2.73z"/><path class="a" d="M81.86 67.16c1-4.15 4.64-16.65 9.76-16.65a2 2 0 0 1 2 2.26c0 4-3.48 9.39-5.43 12.87s-3.6 7.08-5.92 10.31c.24 3.72 1.46 7.2 5.43 8.36a10.59 10.59 0 0 0 3 .49.67.67 0 0 1 .67.61.68.68 0 0 1-.67.67c-5.43 0-8.72-3.05-9.76-8.24-2.38 3.29-6.28 9-10.8 9a3.72 3.72 0 0 1-3.85-3.73 5.48 5.48 0 0 1 .79-2.56 18.42 18.42 0 0 1-6.53 1.16.68.68 0 0 1-.67-.67.68.68 0 0 1 .67-.67 18.88 18.88 0 0 0 7.26-1.71 5.44 5.44 0 0 0 1-.49c2-1.46 1.65-1.53 4.15-2.32l.06-.06v.06a5.53 5.53 0 0 1 1.4-.18 4.41 4.41 0 0 1 4.09 2.93c.79-1 1.46-2.07 2.2-3.11a34.4 34.4 0 0 1 1.15-8.33zM77.1 80.4l.06-.06a2.84 2.84 0 0 0-2.93-2.68c-2.5 0-5.86 2.56-5.86 5.25a1.89 1.89 0 0 0 2 2c2.83.01 5.02-2.62 6.73-4.51zm8.36-12.75c1.1-2 2.14-4 3.17-6s3-5.18 3-7.32c0-.61-.24-1.22-1-1.22-2.81 0-5.86 9.82-6.59 12.14a42.76 42.76 0 0 0-1.75 7.86z"/><path class="a" d="M111.02 85.83a11.56 11.56 0 0 1-2.5.24c-2.32 0-5.06-1.4-5.67-3.78-3.9 2-7.69 3.78-12.14 3.78a.68.68 0 0 1-.67-.67.67.67 0 0 1 .67-.61 18 18 0 0 0 5.37-.92 50.13 50.13 0 0 0 6.59-3.11c.3-3.17 2.07-6.47 5.06-7.87a4.23 4.23 0 0 1 2.14-.49c1.59 0 3.36.92 3.36 2.68a3.12 3.12 0 0 1-.37 1.28 4.25 4.25 0 0 1-1.59 1.34c-.79.49-1.59.85-2.38 1.28-1.4.79-2.81 1.65-4.27 2.38 0 2 2.07 3.42 4 3.42a9.15 9.15 0 0 0 5.67-1.67 14.41 14.41 0 0 1 1.34-1c.24 0 .31.12.31.37.02 2.01-3.46 3.05-4.92 3.35zm-6.28-6.16a39.69 39.69 0 0 0 5.86-3.66 1.13 1.13 0 0 0 .31-.73c0-.73-.79-1-1.4-1-2.52.02-4.41 3.19-4.78 5.39zm47.55-4.56c0 3.11-6 4.21-8.24 5a.88.88 0 0 1-.43.12c0 .24-.06.43-.06.67 0 2.38 1.71 3.66 4 3.84.37.06.67.18.67.61a.68.68 0 0 1-.67.67c-2.93 0-6-2.13-5.86-5.31a22.55 22.55 0 0 1-4 .43c-.55 0-1.83-.37-1.83-1.1 0-.43.67-.43 1-.43a24.57 24.57 0 0 0 5.19-.61c0-.06.06-.18.06-.24a9.35 9.35 0 0 1 4.7-5.92 4.23 4.23 0 0 1 2.14-.49c1.58.06 3.33.97 3.33 2.76zm-2.5-.06c0-.61-.67-.79-1.22-.79-2.2 0-3.9 2.38-4.58 4.27 1.37-.2 5.82-1.79 5.82-3.42z"/><path class="a" d="M185.74 79.11c.73 2.56 1.22 5.67 4.58 5.67a.66.66 0 0 1 .61.61.63.63 0 0 1-.61.67c-6.71 0-5.67-8.05-7.69-8.05-1.65 0-5.19 8.24-8.05 8.24-1.28 0-1.77-1.16-1.77-2.26 0-2 1-4.21 1-6 0-.92-.24-1.34-1.22-1.34-1.28 0-4.09 2.07-5.31 2.75-5.55 3.11-13.48 6.71-19.89 6.71a.63.63 0 0 1-.61-.67c0-.55.43-.61.85-.61 3.9-.06 8.79-2 12.38-3.48a73.74 73.74 0 0 0 10.43-5.92 4.27 4.27 0 0 1 2.38-.79 2.79 2.79 0 0 1 2.81 3c0 1.89-1.22 4.21-1.22 6 0 .31 0 .73.37.73 1.34 0 5.49-8.6 8.3-8.6 1.63 0 2.3 2.13 2.66 3.34z"/><path class="a" d="M212.03 69.54c0 1.53-4.27 1.59-5.31 1.65v.06a2.55 2.55 0 0 1-.24.61 22.39 22.39 0 0 0-2 7.87 4.67 4.67 0 0 0 1.46 3.78 6 6 0 0 0 3.36 1.28c.3.06.67.24.67.61a.68.68 0 0 1-.67.67 5.94 5.94 0 0 1-6.22-6.16 20.07 20.07 0 0 1 .49-3.84c-2.2 3.84-8.72 10-13.42 10a.68.68 0 0 1-.67-.67c0-.37.37-.55.67-.61a13.34 13.34 0 0 0 6.16-3 27.06 27.06 0 0 0 7.87-10.43c-1 .06-1.89.12-2.87.12-.55 0-1.89-.18-1.89-1 0-1.22 4.51-1.1 5.55-1.1.31-.79 1.34-4 2.38-4 .79 0 .92 1.34.92 1.89a8.67 8.67 0 0 1-.67 2 22.1 22.1 0 0 1 3.48 0c.21.03.95-.16.95.27z"/><path class="a" d="M235.76 84.79a.66.66 0 0 1 .67.61.68.68 0 0 1-.67.67c-3.11 0-6.53-1.53-6.53-5.12 0-2.62 1.65-5.06 1.65-7.69 0-1.65-1.83-2.44-3.11-3l-.18-.06c-1.22 2.5-4.45 6.22-6.47 8.17-2.68 2.56-5.06 5.31-8.42 7a6.86 6.86 0 0 1-3.11.73c-.43 0-1-.06-1-.67a.66.66 0 0 1 .61-.61 6.77 6.77 0 0 0 2.44-.55c3.72-1.65 12.69-10.68 14.64-14.76-1.4-.73-3-1.77-3-3.54a2.64 2.64 0 0 1 2.68-2.56 3 3 0 0 1 3 2.93 5.85 5.85 0 0 1-.55 2.26l.18.06c2.07.92 4.15 2 4.15 4.64s-1.22 4.82-1.71 7.26a2.07 2.07 0 0 0-.06.61c.03 2.28 2.78 3.62 4.79 3.62zm-8.85-17l.06-.06a4.64 4.64 0 0 0 .18-1.28c0-.49-.24-1.22-.92-1.22a1 1 0 0 0-1 .92c.06.71 1.14 1.26 1.69 1.62z"/><path class="a" d="M256.5 80.11a7.33 7.33 0 0 0 .79 1.89 4.69 4.69 0 0 0 4.09 2.75.67.67 0 0 1 .67.61.68.68 0 0 1-.67.67c-5.43 0-6.22-5.37-7.63-5.37s-3.23 6.59-8.6 6.59a3 3 0 0 1-3.29-3.23v-.37c-2.14 1.59-3.48 2.38-6.22 2.38a.61.61 0 0 1-.67-.67.66.66 0 0 1 .61-.61c2.75 0 5.06-2 7.08-3.66 1.46-2.62 4.64-5.79 7.87-5.79a4.37 4.37 0 0 1 3.78 2c1.76-.19 1.82 1.64 2.19 2.81zm-4.33-1.4c-.49-.79-1-1.53-2-1.53-2.56 0-6.22 4.09-6.22 6.53a1.67 1.67 0 0 0 1.77 1.77c2.73.05 4.99-4.83 6.45-6.73z"/><path class="a" d="M297.86 76.44c0 .24-.24.3-.43.3a10.67 10.67 0 0 1-2-.3 14.37 14.37 0 0 0-2.32-.12c-6.53 0-10.86 3.72-14.52 8.78-.43.61-1.4 1.89-2.26 1.89-2.14 0-1.52-7-1.77-8.42-.06-.3-.18-.67-.55-.67-1.28 0-7 8.17-12.45 8.17-.43 0-1-.06-1-.67 0-.37.37-.55.67-.61a8.34 8.34 0 0 0 2.44-.55c3.11-1.4 6.22-4.82 8.66-7.26a3.44 3.44 0 0 1 2.2-1.28c1.83 0 1.77 2.87 1.77 4.09s.06 2.62.06 4c0 .3 0 .85.43.85.24 0 1.59-1.71 1.77-1.89a30.1 30.1 0 0 1 3.36-3.48 18.71 18.71 0 0 1 11.83-4.33c1-.03 4.11.03 4.11 1.5zm6.04 7.01a1.57 1.57 0 0 1 1.65 1.46 1.49 1.49 0 0 1-1.28 1.4 1.89 1.89 0 0 1-1.77-1.65c0-.55.18-.92.61-1a1.69 1.69 0 0 1 .79-.21zm1.53-6.16c-.31 0-.43-.24-.43-.55a25.41 25.41 0 0 1 .85-4.7c.49-2.2.67-3.9 1.1-6 .49-2.68 1.28-9.76 3.11-9.76a1.17 1.17 0 0 1 1.1 1.28 3.68 3.68 0 0 1-.18 1.22 156.18 156.18 0 0 1-4.64 17.2c-.43.94-.55 1.31-.92 1.31z"/></svg>