<svg xmlns="http://www.w3.org/2000/svg" width="980.9" height="46.58" viewBox="0 0 980.9 46.58"><title>p3_txt1</title><g id="f6ad84f5-11a6-4a79-9d40-a97d5996fedb" data-name="Layer 2"><g id="135a7560-e3ca-4c31-a8bb-ac81253dc550" data-name="elementos"><path d="M16,52.49a23.84,23.84,0,0,0,1.83-2.38q.88-1.3,1.47-2.3t1.69-3q1.1-2,1.91-3.28Q31.59,26.5,34.22,21a1.72,1.72,0,0,1,.18-.43,3,3,0,0,1,.37-.58l.44-.54a1.72,1.72,0,0,1,.66-.5,2.06,2.06,0,0,1,.84-.18,1.14,1.14,0,0,1,.77.29.8.8,0,0,1,.33.58,9.36,9.36,0,0,1-.37,1q-.44,1-3.41,6.59t-3.7,6.8Q21.62,48.89,20.08,51.26q-2.71,4-4.4,4.75a2.63,2.63,0,0,1-1,.22,2.15,2.15,0,0,1-1.17-.32,3.47,3.47,0,0,1-1-1,12.08,12.08,0,0,1-.88-1.58,15.07,15.07,0,0,1-.81-2.34q-.4-1.47-.7-2.88t-.73-3.6q-.44-2.2-.81-4.14t-.88-4.86q-.51-2.92-1-5.36A58.24,58.24,0,0,1,5.2,21.24V21q0-.86,0-1.3a1.72,1.72,0,0,1,.4-.9,1.23,1.23,0,0,1,1-.47q.88,0,1.61,4,4.62,30.67,7,30.67A1.21,1.21,0,0,0,16,52.49Z" transform="translate(-5.2 -12.53)" style="fill:#fff"/><path d="M57,53.71a.71.71,0,0,1-.81.79,7.2,7.2,0,0,1-4.76-1.58,13.59,13.59,0,0,1-2.9-3.17q-1-1.58-1.5-1.58t-1.5,1.22q-.92,1.23-1.91,2.66a10.11,10.11,0,0,1-2.86,2.66,7.17,7.17,0,0,1-4,1.22,4.19,4.19,0,0,1-3-1A3.83,3.83,0,0,1,32.69,52q0-3.24,3.55-6.7t6.93-3.46a5,5,0,0,1,4.47,2.3,2,2,0,0,1,1,.11,1.63,1.63,0,0,1,.73.61,3.33,3.33,0,0,1,.4.76q.11.32.29,1a6,6,0,0,0,.26.86,11.58,11.58,0,0,0,.88,2.23,5.46,5.46,0,0,0,5,3.24Q57,53,57,53.71ZM35.25,51.77a1.83,1.83,0,0,0,2.05,2.09q2.27,0,5.42-4.32.37-.5,1.1-1.76a16.89,16.89,0,0,1,1.25-1.91q-1.1-1.8-2.42-1.8-2.2,0-4.8,2.74T35.25,51.77Z" transform="translate(-5.2 -12.53)" style="fill:#fff"/><path d="M106.26,43.13a2.54,2.54,0,0,1,2.27,1.3,25.19,25.19,0,0,1,1.54,4.07q1.17,3.56,2.78,4.21a6.32,6.32,0,0,0,1.54.29c.49.1.73.34.73.72s-.25.79-.73.79a6.08,6.08,0,0,1-4.07-1.33,5.92,5.92,0,0,1-2-3,24.88,24.88,0,0,0-1-3q-.55-1.33-1.36-1.33t-1.54,1.15q-.15.22-1.47,2t-2.27,3a15.4,15.4,0,0,1-1.61,1.73,3,3,0,0,1-2,.72,2.45,2.45,0,0,1-2.35-1.73q-.44-1.08-1.14-3.24T92.49,46.3Q91.9,45,91.31,45q-.81,0-2.53,2.41t-3.7,4.86q-2,2.45-3.44,2.45A1.89,1.89,0,0,1,80,53.93a2.94,2.94,0,0,1-.59-1.8,16.94,16.94,0,0,1,.66-3.78,17,17,0,0,0,.66-3.78q0-1.58-1.47-1.58t-4.07,1.8a63.69,63.69,0,0,0-5.13,4,32.89,32.89,0,0,1-5.9,4A13.26,13.26,0,0,1,58,54.5l-.55,0c-.27,0-.51,0-.73,0a3.58,3.58,0,0,1-.7-.07,1.3,1.3,0,0,1-.59-.25.65.65,0,0,1-.22-.54q0-.72.81-.72,5.79,0,11.43-4.32l2.93-2.38q2.12-1.73,3.92-3.1a15.25,15.25,0,0,1,3-1.87,6,6,0,0,1,2.2-.5A3.14,3.14,0,0,1,82,41.9,4,4,0,0,1,83,44.57a13.85,13.85,0,0,1-.73,3.56,13.81,13.81,0,0,0-.73,3.49q0,.86.44.86.66,0,2.42-2.52t3.88-5q2.12-2.52,3.66-2.52a2.56,2.56,0,0,1,2.2,1.44,9.42,9.42,0,0,1,1.21,3.2,18.54,18.54,0,0,0,.88,3.2q.55,1.44,1.28,1.44.51,0,1.69-1.37T101.68,47q1.35-1.94,1.43-2A4.08,4.08,0,0,1,106.26,43.13Z" transform="translate(-5.2 -12.53)" style="fill:#fff"/><path d="M144.59,46.37a6.45,6.45,0,0,1-.07,1.15,31.05,31.05,0,0,0,4.32.22.79.79,0,1,1,0,1.58,32.68,32.68,0,0,1-4.76-.29,11.36,11.36,0,0,1-4,5.11,9.55,9.55,0,0,1-5.79,2.16,4.14,4.14,0,0,1-3.44-1.58A5.87,5.87,0,0,1,129.64,51a9.45,9.45,0,0,1,.22-2,42.64,42.64,0,0,1-7.4,4.14,18.87,18.87,0,0,1-7.33,1.4q-1.76,0-1.76-.79t.81-.72a31.58,31.58,0,0,0,3.52-.29,22.68,22.68,0,0,0,6.23-2.09,25.07,25.07,0,0,0,5.57-3.38l.66-.58a6,6,0,0,0,.81-.79l.66-1a16.73,16.73,0,0,1,2-2.66q3.22-3.89,5.94-3.89a2.51,2.51,0,0,1,2.2,1,4.34,4.34,0,0,1,.73,2.56A4.91,4.91,0,0,1,144.59,46.37Zm-9.53,8a6.36,6.36,0,0,0,3.81-1.73,9.42,9.42,0,0,0,3-4.18q-4.11-1.37-4.1-4.68,0-2.23,2.86-2.45a1.37,1.37,0,0,0-1.25-.79,3.27,3.27,0,0,0-1.83.65,13.93,13.93,0,0,0-3.85,4.5A11.19,11.19,0,0,0,132,51.19a3.19,3.19,0,0,0,.84,2.27A2.91,2.91,0,0,0,135.06,54.36Zm4.84-10.58a3.26,3.26,0,0,0,2.42,3.17,5.43,5.43,0,0,0,.07-1,3.18,3.18,0,0,0-.59-1.94,1.76,1.76,0,0,0-1.47-.79Q139.9,43.2,139.9,43.78Z" transform="translate(-5.2 -12.53)" style="fill:#fff"/><path d="M167.82,37.73q1.54,1.44,4.65,4L176,44.64q2.64,2.38,2.64,4.9a7.13,7.13,0,0,1-1.61,4.64,10,10,0,0,1-4.18,3,27.4,27.4,0,0,1-10.11,1.94,3.66,3.66,0,0,1-1.32-.29q-.73-.29-.73-.79,0-.94,1.76-.94a26.51,26.51,0,0,0,6.23-.58q4.54-1.08,6.52-3.82a4.89,4.89,0,0,0,1-3.1A5.54,5.54,0,0,0,174.42,46a36.62,36.62,0,0,0-4.51-4q-2.75-2.12-3.48-2.84L164.38,41q-2,1.84-2.42,2.16t-2.2,1.76a16,16,0,0,1-2.64,1.87L154.67,48a11.06,11.06,0,0,1-3,1,16.4,16.4,0,0,1-2.93.25.79.79,0,1,1,0-1.58,10.77,10.77,0,0,0,3.37-.5A20.72,20.72,0,0,0,157,44.6a46.15,46.15,0,0,0,4.14-3.17q1.5-1.33,4.14-3.78a5,5,0,0,1-.59-2.3,6.92,6.92,0,0,1,1.76-4.28,5,5,0,0,1,3.88-2.2,2.18,2.18,0,0,1,1.65.65,2.3,2.3,0,0,1,.62,1.66q0,3-4.69,6.48s-.07,0-.07,0S167.87,37.73,167.82,37.73Zm2.05-6.7q-1,0-2,1.66a5.87,5.87,0,0,0-1,2.74v.22l.07.5q3.52-3.17,3.52-4.46A.58.58,0,0,0,169.87,31Z" transform="translate(-5.2 -12.53)" style="fill:#fff"/><path d="M211.79,38.59a5.88,5.88,0,0,1,2.56.68q1.39.68,1.39,1.69c0,.24-.15.36-.44.36a2.7,2.7,0,0,1-1.1-.54,3,3,0,0,0-1.69-.54q-2.2,0-4.07,2.92a10.06,10.06,0,0,0-1.87,5.29,4.07,4.07,0,0,0,1.28,3.13A5.62,5.62,0,0,0,211.2,53c.49.1.73.34.73.72s-.25.79-.73.79a7.7,7.7,0,0,1-4.87-1.69,5.29,5.29,0,0,1-2.16-4.36A11.54,11.54,0,0,1,206.51,42Q208.86,38.59,211.79,38.59Z" transform="translate(-5.2 -12.53)" style="fill:#fff"/><path d="M247.77,46.37a6.5,6.5,0,0,1-.07,1.15,31,31,0,0,0,4.32.22.79.79,0,1,1,0,1.58,32.68,32.68,0,0,1-4.76-.29,11.36,11.36,0,0,1-4,5.11,9.55,9.55,0,0,1-5.79,2.16,4.14,4.14,0,0,1-3.44-1.58A5.87,5.87,0,0,1,232.82,51a9.63,9.63,0,0,1,.66-3.46l-2.82,1.26q-2.53,1.12-3.3,1.4t-3.08,1.22q-2.31.94-3.55,1.3t-3.11.86a28.27,28.27,0,0,1-3.41.72,21.62,21.62,0,0,1-3,.22q-.73,0-.73-.79a.64.64,0,0,1,.73-.72,24.07,24.07,0,0,0,6.3-1.08A86.5,86.5,0,0,0,234.65,45q.88-1.3,2.13-2.81,3.22-3.89,5.94-3.89a2.51,2.51,0,0,1,2.2,1,4.34,4.34,0,0,1,.73,2.56A4.91,4.91,0,0,1,247.77,46.37Zm-9.53,8a6.36,6.36,0,0,0,3.81-1.73,9.42,9.42,0,0,0,3-4.18Q241,47.09,241,43.78q0-2.23,2.86-2.45a1.27,1.27,0,0,0-1.25-.79,3.27,3.27,0,0,0-1.83.65,13.93,13.93,0,0,0-3.85,4.5,11.19,11.19,0,0,0-1.72,5.51,3.18,3.18,0,0,0,.84,2.27A2.91,2.91,0,0,0,238.25,54.36Zm4.84-10.58a3.26,3.26,0,0,0,2.42,3.17,4.59,4.59,0,0,1,0-.47,5,5,0,0,0,0-.54A3.18,3.18,0,0,0,245,44a1.76,1.76,0,0,0-1.47-.79Q243.08,43.2,243.08,43.78Z" transform="translate(-5.2 -12.53)" style="fill:#fff"/><path d="M280.38,42.34q2,0,3.15,4,.07.29.44,1.51t.51,1.62q.15.4.59,1.3A3.46,3.46,0,0,0,286,52a5.56,5.56,0,0,0,1.28.68A4.67,4.67,0,0,0,289,53q.81,0,.81.72a.71.71,0,0,1-.81.79,6.86,6.86,0,0,1-6.74-4.75,28.88,28.88,0,0,0-1.14-3.28Q280.53,45,279.8,45t-2.53,2.41q-1.72,2.41-3.7,4.86t-3.44,2.45q-2.13,0-2.13-2.66a16,16,0,0,1,.62-3.64,16,16,0,0,0,.62-3.49q0-1.87-1.32-1.87a8.17,8.17,0,0,0-3.48,1.58,47.94,47.94,0,0,1-5.79,3.13,15.79,15.79,0,0,1-6.71,1.55.79.79,0,1,1,0-1.58,13.58,13.58,0,0,0,5.72-1.44,30,30,0,0,0,3.15-1.94q2.12-1.44,4-2.48a7,7,0,0,1,3.15-1,3.14,3.14,0,0,1,2.53,1.08,4,4,0,0,1,.92,2.66,13.85,13.85,0,0,1-.73,3.56,13.8,13.8,0,0,0-.73,3.49q0,.86.44.86.66,0,2.46-2.56t3.92-5.08Q278.92,42.34,280.38,42.34Z" transform="translate(-5.2 -12.53)" style="fill:#fff"/><path d="M313.44,45.76q2.27-2.34,4.4-2.34t4.25,3a44.46,44.46,0,0,0,4.1,5.18A5,5,0,0,0,328.83,53q.81.15.81.72a.71.71,0,0,1-.81.79,5.78,5.78,0,0,1-1.94-.32,5.38,5.38,0,0,1-1.8-1.12q-.88-.79-1.32-1.26a20,20,0,0,1-1.36-1.73l-1.14-1.55-.7-1q-.55-.76-.81-1a3.28,3.28,0,0,0-.84-.61,2.68,2.68,0,0,0-1.32-.32q-1.47,0-3.41,2.41t-4.1,4.79q-2.16,2.38-4.21,2.38-3.59,0-4.62-6.7a34.29,34.29,0,0,1-6.12,4.21,13.31,13.31,0,0,1-6.27,1.91.79.79,0,1,1,0-1.58,8.25,8.25,0,0,0,2.86-.65,32.35,32.35,0,0,0,9.38-6.19v-.58a41.7,41.7,0,0,1,1.36-10A37.24,37.24,0,0,1,306,26.21a16.28,16.28,0,0,1,2.64-3.53A4.65,4.65,0,0,1,312,21q2.49,0,2.49,4.54,0,7.78-6.38,16.13a33,33,0,0,1-4,4.32l-.73.72a11.8,11.8,0,0,0,.59,3.85q.66,2.2,2,2.2t3.26-2.34Q311.16,48.1,313.44,45.76ZM311.31,23.9q-1.54,0-3.66,3.89A33.85,33.85,0,0,0,303.32,44a48.33,48.33,0,0,0,6.34-8.82q2.89-5.08,2.89-8.89Q312.56,23.9,311.31,23.9Z" transform="translate(-5.2 -12.53)" style="fill:#fff"/><path d="M351.76,38.38a4.61,4.61,0,0,1,2.75.86,2.7,2.7,0,0,1,1.21,2.3,3.44,3.44,0,0,1-.44,1.51,5.66,5.66,0,0,1-1.83,1.58,18.11,18.11,0,0,1-1.65.86q-1.06.5-1.28.65-.59.36-2.35,1.33T345.39,49q.37,3.46,4.69,4,.81.15.81.72a.71.71,0,0,1-.81.79,7.75,7.75,0,0,1-4.21-1.22,6,6,0,0,1-2.6-3.24q-3.08,1.51-4.8,2.23A38.05,38.05,0,0,1,334,53.75a19.77,19.77,0,0,1-5.24.76q-.88,0-.88-.79t.81-.72a19.34,19.34,0,0,0,6.45-1.08,69.36,69.36,0,0,0,8-3.67,10.43,10.43,0,0,1,2.64-6.62A7.66,7.66,0,0,1,351.76,38.38Zm-6.23,8.57q1-.5,3.81-2.16a19.27,19.27,0,0,0,3.22-2.16,1.17,1.17,0,0,0,.37-.86q0-1.15-1.61-1.15a4.61,4.61,0,0,0-3.7,2A10.76,10.76,0,0,0,345.53,46.94Z" transform="translate(-5.2 -12.53)" style="fill:#fff"/><path d="M373.9,48.46q0,4,4.62,4.54c.49.1.73.34.73.72s-.25.79-.73.79a7.62,7.62,0,0,1-4.95-1.69,5.42,5.42,0,0,1-2.09-4.43,8.39,8.39,0,0,1,.15-1.3l-1,.43q-.66.29-3.7,1.84t-4.73,2.27a31.53,31.53,0,0,1-12.24,2.88q-.73,0-.73-.79a.64.64,0,0,1,.73-.72A22.61,22.61,0,0,0,358,51.55a87,87,0,0,0,14.29-6.84,14.67,14.67,0,0,1,2.86-4.21,5.44,5.44,0,0,1,4-1.91,6.14,6.14,0,0,1,2.49.68q1.46.68,1.47,1.62a.39.39,0,0,1-.44.43,2.7,2.7,0,0,1-1.1-.54,3,3,0,0,0-1.69-.54q-2.2,0-4.07,2.92A10.05,10.05,0,0,0,373.9,48.46Z" transform="translate(-5.2 -12.53)" style="fill:#fff"/><path d="M409.8,38.38a4.78,4.78,0,0,1,2.78.86,2.68,2.68,0,0,1,1.25,2.3q0,3.46-9.89,7.49l-.44.14q.37,3.31,4.69,3.82.81.15.81.72a.71.71,0,0,1-.81.79,8.12,8.12,0,0,1-4.29-1.22A5.26,5.26,0,0,1,401.38,50q-12.75,4.54-22.94,4.54a.71.71,0,0,1-.81-.79q0-.72.81-.72a53,53,0,0,0,9.31-1q1.91-.36,8.21-2,.37-.14,1.94-.54a12.5,12.5,0,0,0,2.31-.76l1-.43a12.39,12.39,0,0,1,2.75-6.73A7.3,7.3,0,0,1,409.8,38.38Zm-6.23,8.86a6.91,6.91,0,0,0,.92-.4q.84-.39,1.32-.65l1.36-.72q.88-.47,1.43-.83t1.17-.86a4.14,4.14,0,0,0,.92-1,1.71,1.71,0,0,0,.29-.9q0-1.3-1.54-1.3a4.8,4.8,0,0,0-3.85,2.12A9.69,9.69,0,0,0,403.57,47.23Z" transform="translate(-5.2 -12.53)" style="fill:#fff"/><path d="M455.09,41.33q4.84,0,4.84,1.8c0,.24-.17.36-.51.36a7.2,7.2,0,0,1-1.32-.18,8.09,8.09,0,0,0-1.1-.18,19.27,19.27,0,0,0-2.79-.14q-7.48,0-13.7,5.9a41,41,0,0,0-3.66,4.46q-1.83,2.23-2.78,2.23-1.17,0-1.61-2a23,23,0,0,1-.44-4.82,30.51,30.51,0,0,0-.07-3.1c-.1-.48-.29-.72-.59-.72a2,2,0,0,0-1.1.5,107.57,107.57,0,0,1-10.33,6.12,25.4,25.4,0,0,1-11.8,3,.71.71,0,0,1-.81-.79q0-.72.81-.72a20.23,20.23,0,0,0,6.3-1.08q6-1.87,15-8.28a4.67,4.67,0,0,1,2.79-1.22q2,0,2,4.68v4.68q0,1,.51,1,.15,0,.62-.5t1-1.08l.55-.65a48.08,48.08,0,0,1,4.1-4.1A21.79,21.79,0,0,1,455.09,41.33Z" transform="translate(-5.2 -12.53)" style="fill:#fff"/><path d="M513.06,51.34c.29,0,.44.17.44.5q0,1.22-1.91,1.94a9.71,9.71,0,0,1-3.37.72,7.31,7.31,0,0,1-4.84-1.58,12.84,12.84,0,0,1-2.86-3.17q-1-1.58-1.54-1.58t-1.47,1.22q-1,1.23-1.94,2.66a10.28,10.28,0,0,1-2.82,2.66,7.11,7.11,0,0,1-4,1.22,4.14,4.14,0,0,1-3-1,3.68,3.68,0,0,1-1.06-2.81q0-3.31,3.52-6.8t6.89-3.49a5.11,5.11,0,0,1,4.54,2.3,1.85,1.85,0,0,1,2.05,1.22,13.09,13.09,0,0,1,.59,2.16,8.05,8.05,0,0,0,2.13,3.82A5.06,5.06,0,0,0,508.15,53a6.26,6.26,0,0,0,2.24-.43,15.85,15.85,0,0,0,1.87-.83A5.14,5.14,0,0,1,513.06,51.34Zm-25.8.43a1.83,1.83,0,0,0,2.05,2.09,4.14,4.14,0,0,0,2.86-1.33,22.31,22.31,0,0,0,3-3.85q1.65-2.52,1.87-2.81-1.1-1.8-2.42-1.8-2.27,0-4.84,2.74T487.26,51.77Z" transform="translate(-5.2 -12.53)" style="fill:#fff"/><path d="M546.62,38.59a5.88,5.88,0,0,1,2.56.68q1.39.68,1.39,1.69c0,.24-.15.36-.44.36a2.7,2.7,0,0,1-1.1-.54,3,3,0,0,0-1.69-.54q-2.2,0-4.07,2.92a10.06,10.06,0,0,0-1.87,5.29,4.07,4.07,0,0,0,1.28,3.13A5.62,5.62,0,0,0,546,53c.49.1.73.34.73.72s-.25.79-.73.79a7.7,7.7,0,0,1-4.87-1.69A5.29,5.29,0,0,1,539,48.46,11.54,11.54,0,0,1,541.35,42Q543.69,38.59,546.62,38.59Z" transform="translate(-5.2 -12.53)" style="fill:#fff"/><path d="M580.33,44.14a1.51,1.51,0,0,1,.88.11,4.93,4.93,0,0,1,.62.36,1.63,1.63,0,0,1,.48.65,5.58,5.58,0,0,1,.29.72c0,.17.12.44.22.83a4.28,4.28,0,0,1,.15.72,11.58,11.58,0,0,0,.88,2.23,5.26,5.26,0,0,0,5,3.24q.81,0,.81.72a.71.71,0,0,1-.81.79,7.2,7.2,0,0,1-4.76-1.58,13.6,13.6,0,0,1-2.9-3.17q-1-1.58-1.5-1.58t-1.47,1.22q-1,1.23-1.94,2.66a10.27,10.27,0,0,1-2.82,2.66,7.11,7.11,0,0,1-4,1.22,4.14,4.14,0,0,1-3-1,3.68,3.68,0,0,1-1.06-2.81,9,9,0,0,1,1.17-3.89Q552.93,54.5,546,54.5a.71.71,0,0,1-.81-.79q0-.72,1-.72,5.42-.22,14.8-4.1A84.76,84.76,0,0,0,569,45.22l.07-.07q3.37-3.31,6.67-3.31A5.34,5.34,0,0,1,580.33,44.14Zm-10.41,9.72a4,4,0,0,0,2.46-1,12,12,0,0,0,2-2q.73-1,1.94-2.84l1.36-2.09q-1-1.8-2.35-1.8-2.27,0-4.87,2.74t-2.6,5A1.83,1.83,0,0,0,569.93,53.86Z" transform="translate(-5.2 -12.53)" style="fill:#fff"/><path d="M626.36,49.39q.37,3.74-3.7,6.52a14.33,14.33,0,0,1-8.1,2.77q-4.62,0-4.62-3.17A4.86,4.86,0,0,1,612,51.84q2.78-2.38,11.65-3.6-1-2.09-4.91-5.15A45.89,45.89,0,0,1,614,39a118.14,118.14,0,0,1-13.63,11.3,28.38,28.38,0,0,1-5.68,3.28,16.41,16.41,0,0,1-5.9.9q-.88,0-.88-.72a.71.71,0,0,1,.81-.79,16.42,16.42,0,0,0,8-2.45q1.1-.65,2.27-1.4T601,47.77q.88-.61,2.2-1.66l1.94-1.55q.62-.5,2.09-1.8l1.83-1.62q.37-.32,2-1.87t1.87-1.69a3.66,3.66,0,0,1-.66-2A7.3,7.3,0,0,1,614,31.1a4.93,4.93,0,0,1,3.92-2.23,2.18,2.18,0,0,1,1.65.65,2.3,2.3,0,0,1,.62,1.66q0,2.88-4.62,6.48l-.07.07h-.07q1.46,1.37,4.29,3.67t3.85,3.24a8.35,8.35,0,0,1,2.35,3.24q1.46-.14,2.78-.14a.79.79,0,1,1,0,1.58Q627.38,49.32,626.36,49.39Zm-11.8,7.78a11.48,11.48,0,0,0,6.3-2.05q3.15-2.05,3.15-5v-.43q-1.61.15-3.26.43t-3.88.9a9.93,9.93,0,0,0-3.63,1.73,3.24,3.24,0,0,0-1.39,2.56Q611.85,57.17,614.56,57.17ZM617.49,31q-1,0-2,1.62a5.67,5.67,0,0,0-1,2.7,2.83,2.83,0,0,0,.07.79q3.52-3.17,3.52-4.46A.58.58,0,0,0,617.49,31Z" transform="translate(-5.2 -12.53)" style="fill:#fff"/><path d="M664.17,51.34c.29,0,.44.17.44.5q0,1.22-1.91,1.94a9.71,9.71,0,0,1-3.37.72,8.07,8.07,0,0,1-3.3-.65,7.09,7.09,0,0,1-2.35-1.58,14.27,14.27,0,0,1-1.5-1.87q-.62-.94-1.1-1.58t-.92-.65q-.59,0-1.5,1.22t-1.91,2.66a10.11,10.11,0,0,1-2.86,2.66,7.17,7.17,0,0,1-4,1.22,4.19,4.19,0,0,1-3-1,3.73,3.73,0,0,1-1.1-2.84,8.42,8.42,0,0,1,1.69-4.54,18.64,18.64,0,0,1-8.79,1.8.79.79,0,1,1,0-1.58,23.65,23.65,0,0,0,10-2.66,10.33,10.33,0,0,1,1-.5q.77-.36,1.14-.58l.77-.5.73-.47.66-.36c.32-.17.56-.29.73-.36s.4-.16.7-.25a3.89,3.89,0,0,1,.88-.18c.29,0,.61,0,1,0a4.94,4.94,0,0,1,4.47,2.3,2,2,0,0,1,2.13,1.22,8.5,8.5,0,0,1,.33,1.15c.12.53.21.86.26,1Q655,53,659.33,53a6.08,6.08,0,0,0,2.16-.43,15.9,15.9,0,0,0,1.87-.83A5.14,5.14,0,0,1,664.17,51.34Zm-23.74,2.52a4.14,4.14,0,0,0,2.86-1.33,22.29,22.29,0,0,0,3-3.85q1.65-2.52,1.87-2.81-1.1-1.8-2.42-1.8-2.2,0-4.8,2.74t-2.6,5A1.83,1.83,0,0,0,640.43,53.86Z" transform="translate(-5.2 -12.53)" style="fill:#fff"/><path d="M708.21,42a41,41,0,0,1,1.32-9.79q.66-2.59,1.54-5.26t2.42-6.26a20.94,20.94,0,0,1,3.59-5.87,5.76,5.76,0,0,1,4.18-2.27q2.42,0,2.42,2.66,0,2.45-2.12,7.27Q721,23.69,720.23,25t-1.65,2.88q-.92,1.55-1.43,2.48-5.35,9.5-5.94,10.44Q710.49,42,710,42.55c0,.1,0,.43.15,1l.18,1.08q0,.22.18,1a7.22,7.22,0,0,0,.26,1l.33.9a6.9,6.9,0,0,0,.44,1,6.6,6.6,0,0,0,.59.86,8.33,8.33,0,0,0,.73.83A10.16,10.16,0,0,0,720.23,53q.81,0,.81.72a.71.71,0,0,1-.81.79,11.64,11.64,0,0,1-7.8-2.52,12.29,12.29,0,0,1-3.92-7.2q-1.54,2.09-2,2.7t-2.16,2.59a21.45,21.45,0,0,1-2.78,2.84,15.78,15.78,0,0,1-2.79,1.69,7.33,7.33,0,0,1-3.22.83,4.72,4.72,0,0,1-3.33-1.26,4.18,4.18,0,0,1-1.36-3.2q0-3.17,3.26-6a10.08,10.08,0,0,1,6.56-2.81,5.15,5.15,0,0,1,3,1,4.91,4.91,0,0,1,1.91,2.48q.44-.57.88-1.19l1-1.33ZM695.76,53.14a6.28,6.28,0,0,0,3.19-1,13.26,13.26,0,0,0,2.53-1.84q.88-.86,2.34-2.52l.07-.07a3.13,3.13,0,0,0-1.1-2.27,3.55,3.55,0,0,0-2.42-.9,7.36,7.36,0,0,0-4.69,1.94,5.53,5.53,0,0,0-2.35,4.25,2.31,2.31,0,0,0,.66,1.73A2.4,2.4,0,0,0,695.76,53.14Zm14.29-14,3.81-6.41q1.32-2.3,3.81-7.06,3.66-6.55,3.66-8.64,0-1.44-1.17-1.44-3.15,0-7.92,14.33A56.61,56.61,0,0,0,710,39.17Z" transform="translate(-5.2 -12.53)" style="fill:#fff"/><path d="M756,51.34c.29,0,.44.17.44.5q0,1.22-1.91,1.94a9.71,9.71,0,0,1-3.37.72,8.07,8.07,0,0,1-3.3-.65,7.09,7.09,0,0,1-2.35-1.58A14.3,14.3,0,0,1,744,50.4q-.62-.94-1.1-1.58c-.32-.43-.62-.65-.92-.65s-.89.41-1.5,1.22-1.26,1.7-1.94,2.66a10.84,10.84,0,0,1-2.86,2.66,7.11,7.11,0,0,1-4,1.22,4.06,4.06,0,0,1-3-1,3.8,3.8,0,0,1-1.06-2.84V51.7q-4,2.81-7.11,2.81-1.17,0-1.17-.79t.81-.72a7.88,7.88,0,0,0,3.22-.76A14.15,14.15,0,0,0,726,50.8q.92-.68,2.6-2.12a15.54,15.54,0,0,1,4.14-4.75,8.73,8.73,0,0,1,5.39-2.09,4.94,4.94,0,0,1,4.47,2.3,1.85,1.85,0,0,1,2.05,1.22,4,4,0,0,1,.26.65q.11.36.22.83c.07.31.13.54.18.68Q746.83,53,751.16,53a6.09,6.09,0,0,0,2.16-.43,15.85,15.85,0,0,0,1.87-.83A5.14,5.14,0,0,1,756,51.34Zm-23.74,2.52a4.14,4.14,0,0,0,2.86-1.33,22.34,22.34,0,0,0,3-3.85q1.65-2.52,1.87-2.81-1.1-1.8-2.42-1.8-2.2,0-4.8,2.74t-2.6,5A1.83,1.83,0,0,0,732.25,53.86Z" transform="translate(-5.2 -12.53)" style="fill:#fff"/><path d="M821.88,21l-.22.79-2,5.83q-1.61,4.54-3.66,11.23-2.79,8.79-4.25,12.31a6.73,6.73,0,0,1-1.32,2.12,2.5,2.5,0,0,1-1.83,1,2.46,2.46,0,0,1-1.54-.5,4.64,4.64,0,0,1-1.25-1.91q-.59-1.4-.84-2.16t-.84-3q-.22-.94-.29-1.22l-3.08-11.81-2.93-11q-.37-1.37-.81-1.37T792,37.15q-.15.43-.51,1.87-.66,2.38-2.86,9-.44,1.15-1.54,5-.73,3.17-2,3.17-1,0-1-1.44a2.31,2.31,0,0,1,.15-.72l3.15-10.8,5.5-18.58a.81.81,0,0,1,.07-.25.82.82,0,0,0,.07-.25q1.91-6.84,4.18-6.84,1.54,0,2.49,2.81t3.52,13.54l1,4.25q1.1,4.54,2.49,8.75t2,4.21q.73,0,2.35-4.82.37-1,1.61-4.75t1.91-5.9q3.3-9.86,4.54-14.18.66-2.88,2.13-2.88a1,1,0,0,1,.81.32,1,1,0,0,1,.29.61A5.43,5.43,0,0,1,821.88,21Z" transform="translate(-5.2 -12.53)" style="fill:#fff"/><path d="M843.72,53.71a.71.71,0,0,1-.81.79,7.2,7.2,0,0,1-4.76-1.58,13.59,13.59,0,0,1-2.9-3.17q-1-1.58-1.5-1.58t-1.5,1.22q-.92,1.23-1.91,2.66a10.11,10.11,0,0,1-2.86,2.66,7.17,7.17,0,0,1-4,1.22,4.19,4.19,0,0,1-3-1,3.83,3.83,0,0,1-1.1-2.92q0-3.24,3.55-6.7t6.93-3.46a5,5,0,0,1,4.47,2.3,2,2,0,0,1,1,.11,1.63,1.63,0,0,1,.73.61,3.33,3.33,0,0,1,.4.76q.11.32.29,1a6,6,0,0,0,.26.86,11.58,11.58,0,0,0,.88,2.23,5.46,5.46,0,0,0,5,3.24Q843.72,53,843.72,53.71ZM822,51.77A1.83,1.83,0,0,0,824,53.86q2.27,0,5.42-4.32.37-.5,1.1-1.76a16.89,16.89,0,0,1,1.25-1.91q-1.1-1.8-2.42-1.8-2.2,0-4.8,2.74T822,51.77Z" transform="translate(-5.2 -12.53)" style="fill:#fff"/><path d="M867.9,34.7q1.17,0,1.17.29,0,1.58-6.38,1.94V37c-.15.38-.25.62-.29.72A23.11,23.11,0,0,0,860,47a5.56,5.56,0,0,0,1.76,4.46,7.57,7.57,0,0,0,4,1.51q.8.15.81.72a.71.71,0,0,1-.81.79,7.43,7.43,0,0,1-5.39-2,7,7,0,0,1-2.09-5.26,24.14,24.14,0,0,1,.59-4.54,29.42,29.42,0,0,1-7.25,7.85q-5,4-8.87,4a.71.71,0,0,1-.81-.79q0-.58.81-.72,3.15-.43,7.4-3.6a30.54,30.54,0,0,0,9.45-12.31q-2.35.15-3.44.14-2.27,0-2.27-1.15t6.67-1.3q1.83-4.68,2.86-4.68t1.1,2.23a8.84,8.84,0,0,1-.81,2.38Z" transform="translate(-5.2 -12.53)" style="fill:#fff"/><path d="M887.47,54.29A4.48,4.48,0,0,0,890,53.5a10.77,10.77,0,0,0,1.65-1.33q.77-.76,1.28-1.33a10.32,10.32,0,0,0,1.14-1.66q.62-1.08.88-1.62t.92-1.87l.88-1.76q1.17-2.38,2.71-2.38a1.37,1.37,0,0,1,1.39.94,8.24,8.24,0,0,1,.4,2.7q0,1.77,0,1.91a6.13,6.13,0,0,0,1.94,3.78,7.71,7.71,0,0,0,3.92,2,3.94,3.94,0,0,1,.55.07l.66.11a1.2,1.2,0,0,1,.51.22.55.55,0,0,1,.26.47.71.71,0,0,1-.81.79,9.84,9.84,0,0,1-6.6-2.3,10.25,10.25,0,0,1-3.44-6A11.4,11.4,0,0,1,897,48.82q-4.54,7.56-9.82,7.56A5,5,0,0,1,883,54.47a7.39,7.39,0,0,1-1.47-4.64,12.07,12.07,0,0,1,.44-3.24,24.35,24.35,0,0,1-8.06,6.12,18.07,18.07,0,0,1-8.21,1.8q-.73,0-.73-.79a.64.64,0,0,1,.73-.72A14.49,14.49,0,0,0,873,51.26a23.51,23.51,0,0,0,8.13-7q2.42-3.67,3.74-3.67a1.34,1.34,0,0,1,1.06.47,1.66,1.66,0,0,1,.4,1.12A11.5,11.5,0,0,1,885,45.72a11,11,0,0,0-1.36,4.68,3.9,3.9,0,0,0,1,2.81A3.66,3.66,0,0,0,887.47,54.29Z" transform="translate(-5.2 -12.53)" style="fill:#fff"/><path d="M934.3,48.67a3.62,3.62,0,0,0,1.83,3.1A6.87,6.87,0,0,0,940,53q.81,0,.81.72a.71.71,0,0,1-.81.79,9.74,9.74,0,0,1-5.5-1.55,5.06,5.06,0,0,1-2.35-4.5,16.25,16.25,0,0,1,1-4.54,16.26,16.26,0,0,0,1-4.54q0-1.94-3.74-3.53l-.22-.07q-2.13,4.25-7.77,9.65l-2.27,2.2q-1.83,1.77-2.6,2.45a26.91,26.91,0,0,1-2.31,1.76,25.66,25.66,0,0,1-2.93,1.8,8.37,8.37,0,0,1-3.74.86q-1.17,0-1.17-.79a.64.64,0,0,1,.73-.72,6.56,6.56,0,0,0,2.93-.65q3.37-1.44,9.6-7.63t8-9.79q-3.59-1.87-3.59-4.18a2.8,2.8,0,0,1,1-2.16,3.27,3.27,0,0,1,2.27-.86,3.55,3.55,0,0,1,2.53,1,3.25,3.25,0,0,1,1.06,2.45,7.22,7.22,0,0,1-.66,2.66l.22.07a13.38,13.38,0,0,1,3.66,2.2,4.18,4.18,0,0,1,1.32,3.28,17.1,17.1,0,0,1-1,4.82q-1,3-1.1,3.74A2.49,2.49,0,0,0,934.3,48.67ZM927.41,31a1.15,1.15,0,0,0,.51.94l.48.36a5,5,0,0,0,.55.36,3.21,3.21,0,0,1,.44.29l.07-.07a5.12,5.12,0,0,0,.22-1.51q0-1.44-1.1-1.44a1.19,1.19,0,0,0-.81.32A1,1,0,0,0,927.41,31Z" transform="translate(-5.2 -12.53)" style="fill:#fff"/><path d="M975.7,51.34c.29,0,.44.17.44.5q0,1.22-1.91,1.94a9.71,9.71,0,0,1-3.37.72,8.07,8.07,0,0,1-3.3-.65,7.09,7.09,0,0,1-2.35-1.58,14.3,14.3,0,0,1-1.5-1.87q-.62-.94-1.1-1.58c-.32-.43-.62-.65-.92-.65s-.89.41-1.5,1.22-1.26,1.7-1.94,2.66a10.84,10.84,0,0,1-2.86,2.66,7.11,7.11,0,0,1-4,1.22,4.06,4.06,0,0,1-3-1,3.8,3.8,0,0,1-1.06-2.84V51.7q-4,2.81-7.11,2.81-1.17,0-1.17-.79t.81-.72a7.88,7.88,0,0,0,3.22-.76,14.15,14.15,0,0,0,2.6-1.44q.92-.68,2.6-2.12a15.54,15.54,0,0,1,4.14-4.75,8.73,8.73,0,0,1,5.39-2.09,4.94,4.94,0,0,1,4.47,2.3,1.85,1.85,0,0,1,2.05,1.22,4,4,0,0,1,.26.65q.11.36.22.83c.07.31.13.54.18.68Q966.54,53,970.86,53a6.09,6.09,0,0,0,2.16-.43,15.85,15.85,0,0,0,1.87-.83A5.14,5.14,0,0,1,975.7,51.34ZM952,53.86a4.14,4.14,0,0,0,2.86-1.33,22.34,22.34,0,0,0,3-3.85q1.65-2.52,1.87-2.81-1.1-1.8-2.42-1.8-2.2,0-4.8,2.74t-2.6,5A1.83,1.83,0,0,0,952,53.86Z" transform="translate(-5.2 -12.53)" style="fill:#fff"/><path d="M983,51.91a1.51,1.51,0,0,1,1.1-.43,1.87,1.87,0,0,1,1.39.61,1.83,1.83,0,0,1,.59,1.26,1.7,1.7,0,0,1-.4,1.08,1.38,1.38,0,0,1-1.14.5,1.73,1.73,0,0,1-2-1.94A1.2,1.2,0,0,1,983,51.91Z" transform="translate(-5.2 -12.53)" style="fill:#fff"/></g></g></svg>