<svg xmlns="http://www.w3.org/2000/svg" viewBox="0 0 432.79 38.39"><defs><style>.a{fill:#fff}</style></defs><title>p4_s4</title><path class="a" d="M6.31 15.8c0 .16-.12.2-.24.2-.44 0-.64-.6-1.52-.6-1.76 0-3.24 3-3.24 4.56a2.51 2.51 0 0 0 2.52 2.52c.24 0 .4.12.4.4a.41.41 0 0 1-.4.44c-1.88 0-3.84-1.32-3.84-3.36s1.88-5.48 4.16-5.48c.69 0 2.16.52 2.16 1.32z"/><path class="a" d="M23.75 19.44a15.54 15.54 0 0 0 2.36.12.44.44 0 0 1 .44.44.44.44 0 0 1-.44.44 15.47 15.47 0 0 1-2.6-.16c-.8 2.12-3.16 4-5.32 4a2.68 2.68 0 0 1-2.56-3 5.43 5.43 0 0 1 .36-1.92c-3.56 1.56-8.36 3.88-12.16 3.88a.41.41 0 0 1-.4-.44.43.43 0 0 1 .4-.4 12.66 12.66 0 0 0 3.44-.6 46.48 46.48 0 0 0 9.36-3.84 15.82 15.82 0 0 1 1.16-1.56c.72-.88 2-2.16 3.24-2.16s1.6 1 1.6 2a3 3 0 0 1 1.16 2.48 3.43 3.43 0 0 1-.04.72zm-1.44.52a2.77 2.77 0 0 1-2.24-2.6c0-.84.64-1.28 1.56-1.36a.81.81 0 0 0-.68-.44 1.6 1.6 0 0 0-1 .36 8.12 8.12 0 0 0-3 5.56 1.64 1.64 0 0 0 1.68 1.76c1.08 0 3-1.36 3.68-3.28zm.24-.84v-.56c0-.84-.44-1.52-1.12-1.52-.16 0-.24.16-.24.32a1.8 1.8 0 0 0 1.36 1.76z"/><path class="a" d="M50.75 17.75c1.08 1.72.52 4.48 3.16 4.76.2 0 .44.16.44.4a.44.44 0 0 1-.44.44c-4 0-3.2-4.76-4.56-4.76-.36 0-.64.36-.84.64a30.72 30.72 0 0 1-2.92 3.72 1.71 1.71 0 0 1-1.08.4 1.32 1.32 0 0 1-1.28-1c-.44-1.16-.72-2.44-1.24-3.6-.12-.28-.32-.72-.68-.72-1.08 0-3.4 5.4-5.24 5.4-.84 0-1.16-.76-1.16-1.48 0-1.28.68-2.72.68-3.8 0-.64 0-1.28-.88-1.28a8.78 8.78 0 0 0-2.4 1.28 18.43 18.43 0 0 1-3.4 1.8 8.24 8.24 0 0 1-2.8.48.45.45 0 0 1-.48-.44.44.44 0 0 1 .44-.44 8 8 0 0 0 3.16-.8c1.64-.76 4-3 5.68-3a1.84 1.84 0 0 1 1.84 2c0 1.4-.8 2.88-.8 4.12a.31.31 0 0 0 .28.32c.84 0 3.52-5.6 5.44-5.6 2.08 0 1.76 5.16 3 5.16.64 0 2.64-3.16 3.08-3.72a2.25 2.25 0 0 1 1.68-1 1.53 1.53 0 0 1 1.32.72z"/><path class="a" d="M73.71 20.2c0 .8-1.52.72-2 .72a4.32 4.32 0 0 1-1.6-.24 6 6 0 0 1-5.28 3.68c-1.68 0-2.52-1.56-2.52-3.08a4.61 4.61 0 0 1 .12-1c-2.56 1.76-4.92 3.08-8.08 3.08-.36 0-.92.08-.92-.44a.44.44 0 0 1 .44-.4 15.52 15.52 0 0 0 1.92-.16 15.44 15.44 0 0 0 6.44-3l.84-.76c.76-1.52 2.76-4.08 4.6-4.08 1.12 0 1.6 1.16 1.6 2.16a3 3 0 0 1 1.16 2.48 4.89 4.89 0 0 1-.08.76 5.65 5.65 0 0 0 1.84.2c.16-.08 1.52-.24 1.52.08zm-4.64 0c-.84-.44-2.4-1.6-2.4-2.64 0-.84.8-1.24 1.52-1.28a.65.65 0 0 0-.6-.44 2.11 2.11 0 0 0-.92.32 7 7 0 0 0-3.12 5.36 1.5 1.5 0 0 0 1.6 1.64 4.3 4.3 0 0 0 3.92-2.96zm.16-1.08c0-.56-.48-1.8-1.16-1.8-.16 0-.28.2-.28.36 0 .68 1 1.16 1.44 1.56zm30.08 1.92c0 1.2-2.32 1.92-3.24 2.12a7.59 7.59 0 0 1-1.64.16 3.59 3.59 0 0 1-3.84-3.48 15.22 15.22 0 0 1-2.68.28c-.36 0-1.16-.24-1.16-.72 0-.28.44-.28.64-.28a16.07 16.07 0 0 0 3.36-.4v-.16c.44-2 2.4-4.2 4.52-4.2a2 2 0 0 1 2.2 1.76 2.22 2.22 0 0 1-.24.88c-.6 1.2-3.88 2-5.12 2.44a.94.94 0 0 1-.32.08v.36a2.48 2.48 0 0 0 2.6 2.6 6.26 6.26 0 0 0 3.76-1.08 9.41 9.41 0 0 1 .84-.64c.28-.01.32.08.32.28zm-7.2-2.64c.92-.2 3.76-1.2 3.76-2.28 0-.44-.44-.52-.8-.52-1.44 0-2.6 1.56-2.96 2.8zm1.32-5.92c-.16 0-.24 0-.24-.16 0-.28 2.68-2.6 3.32-2.6.32 0 .6.16.6.4 0 .52-2.44 2.08-3.32 2.32a1.11 1.11 0 0 1-.36.04zm30.6 6.72a3.82 3.82 0 0 0 3.16 3.2c.32.08 1.12 0 1.12.48a.44.44 0 0 1-.44.44 5.44 5.44 0 0 1-5.48-4.64 7.22 7.22 0 0 1-.72 1.48c-1.12 2-2.84 4.2-5.32 4.2-2.16 0-3.12-1.72-3.12-3.64 0-1 .6-5.12 1.92-5.12a.66.66 0 0 1 .72.68c0 .92-1.32 2.56-1.32 4.4 0 1.36.48 2.48 2 2.48a2.35 2.35 0 0 0 1.36-.4c2-1.32 2.64-3.32 3.64-5.32.24-.52.8-1.32 1.48-1.32 1.2 0 .88 2.28 1 3.08z"/><path class="a" d="M161.35 22.28c0 .72-1.52 1-2.08 1a2.45 2.45 0 0 1-2.2-.92 8 8 0 0 1-1.16-2.6c-.12-.4-.2-.88-.56-1.12a.45.45 0 0 0-.32-.12c-.36 0-.6.4-.8.64l-1 1.28a14.54 14.54 0 0 1-2 2.44 1.6 1.6 0 0 1-1 .4 1.42 1.42 0 0 1-1.32-1c-.48-1.16-.72-2.44-1.24-3.6-.12-.28-.28-.72-.64-.72-1.08 0-3.44 5.4-5.24 5.4a1.28 1.28 0 0 1-1.2-1.4c0-1.4.72-2.88.72-4.24a.83.83 0 0 0-.84-.88c-2.44 0-7.12 6.4-11.56 6.4-.4 0-1.56.2-1.56-.44a.44.44 0 0 1 .44-.4 10.26 10.26 0 0 0 6.24-2.4c1.56-1.16 4.68-4.36 6.56-4.36a1.88 1.88 0 0 1 1.88 2.08c0 1.4-.8 2.72-.8 4.12a.25.25 0 0 0 .28.28c.88 0 3.52-5.6 5.4-5.6 2 0 1.88 5.16 3.08 5.16.6 0 2.64-3.16 3.08-3.72a2.25 2.25 0 0 1 1.68-1 1.53 1.53 0 0 1 1.28.72c1 1.64.32 4.48 2.88 4.68h.24c.52 0 1-.32 1.52-.32.12.04.24.08.24.24zm27.44.64a.41.41 0 0 1-.44.4 27.9 27.9 0 0 1-5-.28 7.82 7.82 0 0 1-2.88-.8c-1.24 4.28-1.92 5.76-3.12 9.2-1.16 3.28-2.08 7-4.52 7-1.16 0-2-1.36-2-2.92 0-5.8 7-15 10.12-19.52a9.79 9.79 0 0 0 .08-1.08c0-.6-.2-1.44-.2-1.8s.32-.88.8-.88c.8 0 .84 1 .84 1.68a2.76 2.76 0 0 1-.12.92 6.43 6.43 0 0 1 3.08-1.16c1.6 0 3.48.92 3.48 2.84 0 2.4-3.24 5.4-5.72 5.4.92.52 4 .6 5.12.6a.47.47 0 0 1 .48.4zm-8.28-4.64c-3 4.56-3.92 5.8-5.48 8.44a58.43 58.43 0 0 0-2.56 5.72 9.68 9.68 0 0 0-.48 2.92c0 1.16.28 1.84 1 1.84 1 0 1.64-1.52 2.44-3.68 1-2.84 1.64-4.4 2.64-7.4.84-2.76 1.8-5.24 2.44-7.84zm1.56 3c1.84 0 5.36-2 5.36-4.64a1.68 1.68 0 0 0-1.88-1.64 6 6 0 0 0-3.36 1.24c-.44 1.84-.72 3.32-1.24 4.88a4 4 0 0 0 1.12.2z"/><path class="a" d="M209.99 22.48a.44.44 0 0 1 .44.44.44.44 0 0 1-.44.4c-2.08 0-4.32-1-4.32-3.4 0-1.64 1.12-3.32 1.12-5 0-1.12-1.2-1.48-2-1.92l-.12.28c-1.92 3.52-6.24 6.52-9.8 8.36a12.68 12.68 0 0 1-6.6 1.68.44.44 0 0 1-.4-.44.43.43 0 0 1 .4-.4 11.09 11.09 0 0 0 3.44-.6c4.12-1.32 10.12-5.36 12.08-9.44-.92-.48-2-1.16-2-2.32a1.73 1.73 0 0 1 1.76-1.68 2 2 0 0 1 2 2 4.12 4.12 0 0 1-.24 1.4c1.36.6 2.72 1.32 2.72 3s-1.16 3.8-1.16 5.16c0 1.6 1.76 2.48 3.12 2.48zm-5.8-11.16a3 3 0 0 0 .12-.84c0-.32-.16-.8-.6-.8a.65.65 0 0 0-.64.6c.04.47.76.8 1.12 1.04z"/><path class="a" d="M226.47 19.44a15.54 15.54 0 0 0 2.36.12.44.44 0 0 1 .44.44.44.44 0 0 1-.44.44 15.47 15.47 0 0 1-2.6-.16c-.8 2.12-3.16 4-5.32 4a2.68 2.68 0 0 1-2.56-3 5.33 5.33 0 0 1 .12-1.12c-2.52 1.72-4.92 3.08-8 3.08-.36 0-1 .08-1-.44a.44.44 0 0 1 .44-.4 15.52 15.52 0 0 0 1.92-.16 12.65 12.65 0 0 0 3.4-1.16 12.48 12.48 0 0 0 3-1.88 7.22 7.22 0 0 0 .8-.76l.36-.56a10 10 0 0 1 1.08-1.48c.72-.88 2-2.16 3.24-2.16s1.6 1 1.6 2a3 3 0 0 1 1.16 2.48 3.43 3.43 0 0 1 0 .72zm-1.44.52a2.77 2.77 0 0 1-2.24-2.6c0-.84.64-1.28 1.56-1.36a.81.81 0 0 0-.68-.44 1.6 1.6 0 0 0-1 .36 8.12 8.12 0 0 0-3 5.56 1.64 1.64 0 0 0 1.68 1.76c1.08 0 3-1.36 3.68-3.28zm.24-.84a2.64 2.64 0 0 0 0-.56c0-.84-.44-1.52-1.12-1.52-.16 0-.24.16-.24.32a1.8 1.8 0 0 0 1.36 1.76z"/><path class="a" d="M242.75 10.92c.68-2.72 3-10.92 6.4-10.92a1.31 1.31 0 0 1 1.32 1.48c0 2.64-2.28 6.16-3.56 8.44a70.49 70.49 0 0 1-3.88 6.76c.16 2.44 1 4.72 3.56 5.48a7 7 0 0 0 2 .32.44.44 0 0 1 .44.4.44.44 0 0 1-.44.44c-3.56 0-5.72-2-6.4-5.4-1.56 2.16-4.12 5.92-7.08 5.92a2.44 2.44 0 0 1-2.56-2.48 3.6 3.6 0 0 1 .52-1.68 12.08 12.08 0 0 1-4.28.76.44.44 0 0 1-.44-.44.44.44 0 0 1 .44-.44 12.38 12.38 0 0 0 4.76-1.12 3.54 3.54 0 0 0 .68-.32 5.89 5.89 0 0 1 2.72-1.52 3.62 3.62 0 0 1 .92-.12 2.89 2.89 0 0 1 2.68 1.92c.52-.68 1-1.36 1.44-2a22.55 22.55 0 0 1 .76-5.48zm-3.12 8.68a1.86 1.86 0 0 0-1.92-1.76c-1.64 0-3.84 1.68-3.84 3.44a1.24 1.24 0 0 0 1.32 1.32c1.88-.04 3.32-1.76 4.44-3zm5.48-8.36c.72-1.28 1.4-2.6 2.08-3.92s2-3.4 2-4.8c0-.4-.16-.8-.64-.8-1.84 0-3.84 6.44-4.32 8a28 28 0 0 0-1.2 5.12z"/><path class="a" d="M261.79 22.75c2-1.32 2.68-3.28 3.68-5.32.28-.56.8-1.32 1.48-1.32 1.24 0 .88 2.24 1 3.08a3.86 3.86 0 0 0 3.2 3.2c.32.08 1.08 0 1.08.48a.44.44 0 0 1-.44.44 5.44 5.44 0 0 1-5.48-4.64 6.32 6.32 0 0 1-.72 1.48c-1.16 2-2.84 4.2-5.36 4.2-2.08 0-3.08-1.76-3.08-3.64a6.75 6.75 0 0 1 .24-1.8 14.6 14.6 0 0 1-4.4 3.4 9.66 9.66 0 0 1-4.48 1 .41.41 0 0 1-.4-.44.43.43 0 0 1 .4-.4 8.2 8.2 0 0 0 4-1 14.74 14.74 0 0 0 4.44-3.88c.36-.56 1.24-2 2-2a.85.85 0 0 1 .8.88c0 1.08-1.48 2.6-1.48 4.56a2 2 0 0 0 2.08 2.16 2.42 2.42 0 0 0 1.44-.44z"/><path class="a" d="M286.07 12.48c0 1-2.8 1-3.48 1.08a1.67 1.67 0 0 1-.16.4 14.67 14.67 0 0 0-1.32 5.16 3.06 3.06 0 0 0 1 2.48 3.92 3.92 0 0 0 2.2.84c.2 0 .44.16.44.4a.44.44 0 0 1-.44.44 3.9 3.9 0 0 1-4.08-4 13.2 13.2 0 0 1 .32-2.52c-1.44 2.52-5.72 6.56-8.8 6.56a.44.44 0 0 1-.44-.44c0-.24.24-.36.44-.4a8.75 8.75 0 0 0 4-2 17.75 17.75 0 0 0 5.16-6.84c-.64 0-1.24.08-1.88.08-.36 0-1.24-.12-1.24-.64 0-.8 3-.72 3.64-.72.2-.52.88-2.6 1.56-2.6.52 0 .6.88.6 1.24a5.68 5.68 0 0 1-.44 1.32 14.44 14.44 0 0 1 2.28 0c.2 0 .64-.12.64.16z"/><path class="a" d="M304.15 20.2c0 .8-1.52.72-2 .72a4.32 4.32 0 0 1-1.6-.24 6 6 0 0 1-5.28 3.68c-1.68 0-2.52-1.56-2.52-3.08a4.61 4.61 0 0 1 .12-1c-2.56 1.76-4.92 3.08-8.08 3.08-.36 0-.92.08-.92-.44a.44.44 0 0 1 .44-.4 15.52 15.52 0 0 0 1.92-.16 15.44 15.44 0 0 0 6.44-3l.84-.76c.76-1.52 2.76-4.08 4.6-4.08 1.12 0 1.6 1.16 1.6 2.16a3 3 0 0 1 1.16 2.48 4.89 4.89 0 0 1-.08.76 5.65 5.65 0 0 0 1.84.2c.16-.08 1.52-.24 1.52.08zm-4.64 0c-.84-.44-2.4-1.6-2.4-2.64 0-.84.8-1.24 1.52-1.28a.65.65 0 0 0-.6-.44 2.11 2.11 0 0 0-.92.32 7 7 0 0 0-3.12 5.36 1.5 1.5 0 0 0 1.6 1.64 4.3 4.3 0 0 0 3.92-2.96zm.16-1.08c0-.56-.48-1.8-1.16-1.8-.16 0-.28.2-.28.36 0 .68 1 1.16 1.44 1.56zm40.08-14c-.16.6-.6 1.8-1.08 3.24-.68 1.92-1.44 4.36-2 6.24a70 70 0 0 1-2.32 6.84c-.28.72-1 1.72-1.72 1.72-1.36 0-1.84-2-2.44-4.2a3.71 3.71 0 0 0-.16-.68l-1.68-6.56c-.44-1.72-.92-3.6-1.6-6.12-.08-.32-.28-.76-.44-.76-.32 0-1.8 5.4-2.76 8.84-.12.36-.2.72-.28 1-.72 2.52-1.2 3.88-1.56 5-.32.88-.52 1.64-.84 2.76-.16.68-.36 1.76-1.08 1.76-.32 0-.56-.36-.56-.8a1.42 1.42 0 0 1 .08-.4l1.72-6c1-3.28 2-6.6 3-10.32 0-.08.08-.2.08-.28.4-1.48 1-3.8 2.28-3.8s1.56 1.72 3.28 9.08l.56 2.36c.72 3.08 2 7.2 2.44 7.2s.88-1.44 1.28-2.68c.52-1.64 1.28-3.84 1.92-5.92 1-3 2-6 2.48-7.88.12-.56.48-1.6 1.16-1.6a.61.61 0 0 1 .6.52 2.82 2.82 0 0 1-.24 1zm11.6 18.2c-3.56 0-4.12-3.52-5-3.52s-2.16 4.32-5.6 4.32a2 2 0 0 1-2.24-2.2c0-2.4 3.28-5.64 5.72-5.64a2.63 2.63 0 0 1 2.44 1.28c1.16-.12 1.24 1.08 1.48 1.88a6.66 6.66 0 0 0 .48 1.24 3.13 3.13 0 0 0 2.72 1.8.44.44 0 0 1 .44.4.44.44 0 0 1-.44.44zm-10.32-.36c1.12 0 2.36-1.56 3-2.4.44-.64.8-1.4 1.28-2-.32-.52-.64-1-1.32-1-1.64 0-4 2.68-4 4.28a1.06 1.06 0 0 0 1.04 1.12z"/><path class="a" d="M365.63 12.48c0 1-2.8 1-3.48 1.08a1.67 1.67 0 0 1-.16.4 14.67 14.67 0 0 0-1.32 5.16 3.06 3.06 0 0 0 1 2.48 3.92 3.92 0 0 0 2.2.84c.2 0 .44.16.44.4a.44.44 0 0 1-.44.44 3.9 3.9 0 0 1-4.08-4 13.2 13.2 0 0 1 .32-2.52c-1.44 2.52-5.72 6.56-8.8 6.56a.44.44 0 0 1-.44-.44c0-.24.24-.36.44-.4a8.75 8.75 0 0 0 4-2 17.75 17.75 0 0 0 5.16-6.84c-.64 0-1.24.08-1.88.08-.36 0-1.24-.12-1.24-.64 0-.8 3-.72 3.64-.72.2-.52.88-2.6 1.56-2.6.52 0 .6.88.6 1.24a5.68 5.68 0 0 1-.44 1.32 14.44 14.44 0 0 1 2.28 0c.16 0 .64-.12.64.16z"/><path class="a" d="M377.07 22.75c2-1.32 2.68-3.28 3.68-5.32.28-.56.8-1.32 1.48-1.32 1.24 0 .88 2.24 1 3.08a3.86 3.86 0 0 0 3.2 3.2c.32.08 1.08 0 1.08.48a.44.44 0 0 1-.44.44 5.44 5.44 0 0 1-5.48-4.64 6.32 6.32 0 0 1-.72 1.48c-1.16 2-2.84 4.2-5.36 4.2-2.08 0-3.08-1.76-3.08-3.64a6.75 6.75 0 0 1 .24-1.8 14.6 14.6 0 0 1-4.4 3.4 9.66 9.66 0 0 1-4.48 1 .41.41 0 0 1-.4-.44.43.43 0 0 1 .4-.4 8.2 8.2 0 0 0 4-1 14.74 14.74 0 0 0 4.44-3.88c.36-.56 1.24-2 2-2a.85.85 0 0 1 .8.88c0 1.08-1.48 2.6-1.48 4.56a2 2 0 0 0 2.08 2.16 2.42 2.42 0 0 0 1.44-.44z"/><path class="a" d="M404.35 22.48a.44.44 0 0 1 .44.4.44.44 0 0 1-.44.44c-2 0-4.28-1-4.28-3.36 0-1.72 1.08-3.32 1.08-5 0-1.08-1.2-1.6-2-2h-.12a24.77 24.77 0 0 1-4.24 5.36c-1.76 1.68-3.32 3.48-5.52 4.56a4.5 4.5 0 0 1-2 .48c-.28 0-.64 0-.64-.44a.43.43 0 0 1 .4-.4 4.44 4.44 0 0 0 1.6-.36c2.44-1.08 8.32-7 9.6-9.68-.92-.48-2-1.16-2-2.32a1.73 1.73 0 0 1 1.76-1.68 2 2 0 0 1 2 1.92 3.84 3.84 0 0 1-.36 1.48h.12c1.36.6 2.72 1.32 2.72 3s-.8 3.16-1.12 4.76a1.36 1.36 0 0 0 0 .4c-.12 1.56 1.68 2.44 3 2.44zm-5.8-11.16a3 3 0 0 0 .12-.84c0-.32-.16-.8-.6-.8a.65.65 0 0 0-.64.6c.04.47.76.8 1.12 1.04z"/><path class="a" d="M424.07 21.84c0 1-2.08 1.48-2.88 1.48-3.6 0-4.12-3.52-5-3.52s-2.16 4.32-5.64 4.32a2 2 0 0 1-2.2-2.16v-.21a6.08 6.08 0 0 1-3.88 1.56c-.32 0-.64 0-.64-.44a.44.44 0 0 1 .44-.4c1.8 0 3.28-1.28 4.6-2.4 1-1.76 3.08-3.8 5.2-3.8a2.71 2.71 0 0 1 2.44 1.28 1.1 1.1 0 0 1 1.12.68 6.87 6.87 0 0 1 .36 1.2c.44 1.56 1.4 3 3.2 3a6.85 6.85 0 0 0 2.64-.92c.15.05.24.17.24.33zm-9-3.32c-.32-.52-.64-1-1.32-1-1.64 0-4 2.68-4 4.28a1.06 1.06 0 0 0 1.12 1.16c1.76 0 3.28-3.21 4.24-4.44zm12.96 3.08a1 1 0 0 1 1.08 1 1 1 0 0 1-.84.92 1.24 1.24 0 0 1-1.16-1.08c0-.36.12-.6.4-.68a1.1 1.1 0 0 1 .52-.16zm1-4c-.2 0-.28-.16-.28-.36a16.62 16.62 0 0 1 .56-3.08c.32-1.44.44-2.56.72-4 .32-1.76.84-6.4 2-6.4a.77.77 0 0 1 .72.84 2.4 2.4 0 0 1-.12.8 102.41 102.41 0 0 1-3 11.28c-.28.64-.36.88-.6.88z"/></svg>