<?xml version="1.0" encoding="utf-8"?>
<!-- Generator: Adobe Illustrator 21.0.0, SVG Export Plug-In . SVG Version: 6.00 Build 0)  -->
<svg version="1.1" id="Layer_1" xmlns="http://www.w3.org/2000/svg" xmlns:xlink="http://www.w3.org/1999/xlink" x="0px" y="0px"
	 viewBox="0 0 598.8 60" style="enable-background:new 0 0 598.8 60;" xml:space="preserve">
<style type="text/css">
	.st0{fill:#FFFFFF;}
</style>
<title>p4_s2</title>
<path class="st0" d="M21.6,25.5c0,0.5-0.4,0.7-0.8,0.7c-1.5,0-2.2-2-5.2-2c-6,0-11.1,10.4-11.1,15.6s3.7,8.1,8.6,8.6
	c0.8,0.1,1.4,0.4,1.4,1.4c0.1,0.8-0.5,1.5-1.3,1.5c0,0,0,0-0.1,0C6.7,51.2,0,46.7,0,39.7S6.4,21,14.2,21
	C16.6,21,21.6,22.7,21.6,25.5z"/>
<path class="st0" d="M81.4,38c2.7,0.3,5.4,0.5,8.1,0.4c0.8,0,1.5,0.7,1.5,1.5c0,0.8-0.7,1.5-1.5,1.5c-3,0.1-6-0.1-8.9-0.5
	c-2.7,7.3-10.8,13.8-18.2,13.8c-5.8,0-8.8-4.9-8.8-10.1c0-2.2,0.4-4.5,1.2-6.6c-12.2,5.3-28.6,13.3-41.6,13.3
	c-0.8,0-1.4-0.7-1.4-1.4c0,0,0,0,0-0.1c0-0.7,0.6-1.3,1.4-1.4c4-0.1,8-0.8,11.8-2.1c11.1-3.2,21.9-7.6,32.1-13.2
	c1.2-1.9,2.6-3.6,4-5.3c2.5-3,7-7.4,11.1-7.4s5.5,3.4,5.5,6.9c2.7,1.8,4,5.3,4,8.5C81.6,36.5,81.5,37.2,81.4,38L81.4,38z M76.4,39.7
	c-4.1-1.4-7.7-4-7.7-8.9c0-2.9,2.2-4.4,5.3-4.7c-0.5-0.9-1.3-1.5-2.3-1.5c-1.2,0-2.5,0.4-3.4,1.2C63.2,29.6,58,38.5,58,44.9
	c0,3.4,2.2,6,5.8,6C67.5,51,74.1,46.3,76.4,39.7z M77.3,36.8c0-0.5,0.1-1.2,0.1-1.9c0-2.9-1.5-5.2-3.8-5.2c-0.6,0-0.8,0.5-0.8,1.1
	C72.7,34,74.5,35.8,77.3,36.8z"/>
<path class="st0" d="M123.6,59.2c-4,0-8.8-1.4-8.8-6c0-2.9,1.9-5.2,4-7c5.2-4.5,15.2-5.9,21.9-6.8c-3.1-6.8-13.3-11.9-18.2-17.5
	c-9.2,8.9-19.4,19.6-33.2,19.6c-0.8,0-1.5-0.7-1.5-1.5c0-0.8,0.7-1.5,1.5-1.5c2.2,0,4.4-0.3,6.4-1c8.9-3.2,18-11.8,24.7-18.2
	c-0.7-1.4-1.1-2.9-1.1-4.4c0-5.1,5.1-12.3,10.5-12.3c2.3-0.1,4.2,1.7,4.3,4c0,0.1,0,0.2,0,0.4c0,4.5-5.3,9.7-8.8,12.3
	c-0.1,0-0.1,0.1-0.3,0.1c4.8,4.7,10.3,8.8,15.3,13.1c2,1.6,3.5,3.8,4.4,6.2c1.4-0.1,4.4-0.3,5.2-0.3c0.8,0,1.5,0.7,1.5,1.5
	c0,0.8-0.7,1.5-1.5,1.5c-0.6,0-2.6,0-4.5,0.1C146.6,51.9,132.5,59.2,123.6,59.2z M141.4,42.9v-0.8c-5.8,0.5-22.9,2.9-22.9,10.7
	c0,2.7,2.7,3.6,5.1,3.6C130.6,56.3,141.4,50.8,141.4,42.9z M123.4,14.9v0.4l0.1,1c1.6-1.5,6.6-6.2,6.6-8.5c0.1-0.6-0.3-1.1-0.9-1.2
	c-0.1,0-0.2,0-0.3,0C126.2,6.6,123.4,12.6,123.4,14.9z"/>
<path class="st0" d="M234.3,32.1c3.7,5.9,1.8,15.3,10.8,16.3c0.7,0.1,1.5,0.5,1.5,1.4c0,0.8-0.7,1.5-1.5,1.5
	c-13.8,0-11-16.3-15.6-16.3c-1.2,0-2.2,1.2-2.9,2.2c-2.3,3.3-7.3,10.3-10,12.7c-1,0.9-2.3,1.4-3.7,1.4c-2.2,0-3.6-1.2-4.4-3.3
	c-1.5-4-2.5-8.4-4.3-12.3c-0.4-1-1.1-2.5-2.3-2.5c-3.7,0-11.6,18.5-17.9,18.5c-2.9,0-4-2.6-4-5.1c0-4.4,2.3-9.3,2.3-13
	c0-2.2-0.1-4.4-3-4.4c-1.6,0-6.6,3.3-8.2,4.4c-3.7,2.5-7.6,4.5-11.6,6.2c-3.1,1.1-6.3,1.7-9.6,1.6c-0.9,0-1.6-0.6-1.6-1.5
	c0,0,0,0,0-0.1c0-0.8,0.7-1.5,1.5-1.5c3.8-0.2,7.4-1.1,10.8-2.7c5.6-2.6,13.6-10.4,19.4-10.4c4.1,0,6.3,3.1,6.3,7
	c0,4.8-2.7,9.9-2.7,14.1c0,0.6,0.4,1.1,1,1.1c2.9,0,12.1-19.2,18.6-19.2c7.1,0,6,17.7,10.4,17.7c2.2,0,9-10.8,10.6-12.7
	s3.3-3.6,5.8-3.6C231.7,29.6,233.3,30.6,234.3,32.1z"/>
<path class="st0" d="M295.4,26.6c-0.1,1-0.3,2-0.8,2.9c-0.5,1.1-2.3,2.3-3.4,3c-1.8,1.1-3.7,1.9-5.5,2.9c-3.3,1.8-6.3,3.7-9.6,5.3
	c0.5,5.2,4,7,8.8,7.7c0.7,0.1,1.5,0.5,1.5,1.4c0,0.8-0.7,1.5-1.5,1.5c-5.5,0-11-3.2-12.7-8.5c-8.6,4.3-17.3,8.5-27.1,8.5
	c-0.9,0-1.6-0.6-1.6-1.5c0,0,0,0,0-0.1c0.1-0.8,0.7-1.4,1.5-1.4c4.1-0.1,8.2-0.8,12-2.1c5.1-2,10.1-4.3,14.9-7
	c0-8.1,7.4-18.8,16.2-18.8C291.4,20.5,295.4,22.6,295.4,26.6L295.4,26.6z M289.5,28.6c0.4-0.4,0.7-1,0.7-1.6c0-1.6-1.6-2.2-3-2.2
	c-5.9,0-9.7,7.1-10.8,12.1C278.4,35.9,288.2,30.1,289.5,28.6z M279.9,9.4c-0.5,0-0.8-0.1-0.8-0.6c0-1,9.2-8.9,11.4-8.9
	c1.1,0,2.1,0.6,2.1,1.4c0,1.8-8.4,7.1-11.4,7.9C280.7,9.4,280.3,9.5,279.9,9.4z"/>
<path class="st0" d="M360.3,14.1c0,3.4-9.6,3.6-11.9,3.7v0.1c-2.3,5.1-5.1,13.4-5.1,19c0,3.2,0.7,6.3,3.1,8.5
	c2.2,1.9,5.1,2.5,7.8,2.9c0.8,0.1,1.4,0.5,1.4,1.4c0.1,0.8-0.5,1.5-1.3,1.5c0,0,0,0-0.1,0c-8.4,0-14.3-5.5-14.3-13.8
	c0-3.7,1-7.3,1.6-10.8c-12.5,12.5-39.3,24.7-57,24.7c-0.8,0-1.5-0.7-1.5-1.5c0-1.2,1.1-1.4,2-1.4c6.4-0.1,14.1-2.5,20.1-4.5
	c11.5-3.8,28.4-11.5,35.3-22.2c0.8-1.1,1.4-2.3,1.8-3.6c-2,0.1-4.3,0.3-6.3,0.3c-1.4,0-4.3-0.4-4.3-2.2c0-2.7,10.3-2.5,12.5-2.5
	c0.7-1.8,3-8.9,5.3-8.9c1.6,0,1.9,2.7,1.9,3.8c-0.1,1.7-0.6,3.4-1.4,4.9c2.3-0.4,5.3,0,7.8,0C358.6,13.6,360.3,13.1,360.3,14.1z"/>
<path class="st0" d="M390.2,25.9c1,1,1,2.3,1,3.6c0,5.2,1.2,11.9,4.8,15.9c2.3,2.6,3.6,2.6,6.9,3c0.7,0.1,1.5,0.5,1.5,1.4
	c0,0.8-0.7,1.5-1.5,1.5c-9.9,0-14.8-10.1-15.3-18.8c-4.7,6.5-10.9,11.8-18.1,15.3c-4.8,2.4-10,3.5-15.3,3.4c-0.8,0-1.5-0.7-1.5-1.5
	c0.1-0.8,0.7-1.4,1.5-1.4c4.7,0.1,9.4-1,13.5-3.3c5.8-3.2,10.8-7.8,14.5-13.3c1.2-1.8,3.7-6.7,6.2-6.7C389,25,389.7,25.3,390.2,25.9
	L390.2,25.9z M387.6,4.5c0-1.4,1.2-1.9,2.5-1.9c2.2,0,3.3,2.9,3.3,4.8c0,1.1-0.5,2.1-1.6,2.1C389.8,9.4,387.6,6.3,387.6,4.5
	L387.6,4.5z"/>
<path class="st0" d="M402.5,48.4c4.1-0.1,8.2-0.8,12-2.1c6.3-2.3,14.8-7.8,19.9-12c0.9-0.6,1.7-1.3,2.3-2.1c0.4-0.5,0.7-1.5,1.1-2.2
	c1.3-2.5,3.2-4.7,5.3-6.6c1.7-1.5,3.9-2.3,6.2-2.5c2.2,0,7.3,1.9,7.3,4.4c0.1,0.4-0.2,0.8-0.6,0.8c-0.1,0-0.1,0-0.2,0
	c-1.6,0-2.3-2-5.1-2c-6.2,0-11.1,10.4-11.1,15.8s3.4,8,8.5,8.5c0.8,0.1,1.5,0.5,1.5,1.5c0,0.8-0.7,1.4-1.4,1.4c0,0,0,0-0.1,0
	c-5.8,0-11.8-3.4-12.9-9.3c0-0.4-0.3-1-0.3-1.4c0-0.9,0-1.8,0.1-2.7c-9.6,7.5-20.1,13.4-32.6,13.4c-0.8,0.1-1.5-0.5-1.5-1.3
	c0,0,0,0,0-0.1C401,49,401.7,48.4,402.5,48.4L402.5,48.4z"/>
<path class="st0" d="M516.3,38c2.7,0.3,5.4,0.5,8.1,0.4c0.8,0,1.5,0.7,1.5,1.5c0,0.8-0.7,1.5-1.5,1.5c-3,0.1-6-0.1-8.9-0.5
	c-2.7,7.3-10.8,13.8-18.2,13.8c-5.8,0-8.8-4.9-8.8-10.1c0-2.2,0.4-4.5,1.2-6.6c-12.2,5.3-28.6,13.3-41.6,13.3
	c-0.8,0-1.4-0.7-1.4-1.4c0,0,0,0,0-0.1c0-0.7,0.6-1.3,1.4-1.4c4-0.1,8-0.8,11.8-2.1c11.1-3.2,21.9-7.6,32.1-13.1
	c1.2-1.9,2.6-3.6,4-5.3c2.5-3,7-7.4,11.1-7.4s5.5,3.4,5.5,6.9c2.7,1.8,4,5.3,4,8.5C516.5,36.5,516.5,37.2,516.3,38z M511.4,39.7
	c-4.1-1.4-7.7-4-7.7-8.9c0-2.9,2.2-4.4,5.3-4.7c-0.5-0.9-1.3-1.5-2.3-1.5c-1.3,0-2.5,0.4-3.4,1.2c-5.2,3.7-10.4,12.6-10.4,19
	c0,3.4,2.2,6,5.8,6C502.5,51,509.1,46.3,511.4,39.7z M512.2,36.8c0-0.5,0.1-1.2,0.1-1.9c0-2.9-1.5-5.2-3.8-5.2
	c-0.5,0-0.8,0.5-0.8,1.1C507.7,34,509.5,35.8,512.2,36.8z"/>
<path class="st0" d="M575.3,32.5c2.9,2.6,4.9,5.3,4.9,9.3c0,14.3-18.6,18.2-29.7,18.2c-1.1,0-3.8-0.5-3.8-2s2.2-1.8,3.3-1.8
	c3.9,0.1,7.8-0.3,11.7-1.1c5.5-1.4,8.9-2.7,12.2-7.3c1.2-1.7,1.8-3.8,1.8-5.9c0-7.3-13.4-14.9-18.2-20c-9.3,8.6-19.3,19.5-33,19.5
	c-0.8,0-1.5-0.7-1.5-1.5c0-0.8,0.7-1.5,1.5-1.5c2.1,0,4.3-0.3,6.3-1c9-3.2,17.8-11.6,24.7-18.2c-0.7-1.4-1.1-2.9-1.1-4.4
	c0-5.1,5.1-12.3,10.5-12.3c2.3-0.1,4.2,1.7,4.3,4c0,0.1,0,0.2,0,0.4c0,4.5-5.3,9.7-8.8,12.3c-0.1,0-0.1,0.1-0.3,0.1
	C564.7,24,570.2,28.1,575.3,32.5L575.3,32.5z M558.3,14.9v0.4l0.1,1c1.6-1.5,6.6-6.2,6.6-8.5c0.1-0.6-0.3-1.1-0.9-1.2
	c-0.1,0-0.2,0-0.3,0C561,6.6,558.3,12.6,558.3,14.9L558.3,14.9z"/>
</svg>
