<svg xmlns="http://www.w3.org/2000/svg" viewBox="0 0 1025.58 76.8"><title>p4_s3</title><path d="M30.93 25.84a1 1 0 0 1 1 1c0 1-1 1.52-2.88 1.84.79 12.2 1.88 18.46 1.88 19.08s-.56.88-1.2.88c-1.92 0-2-4.56-2.24-7l-1.2-12.48c-4.08.8-16.48 2.64-16.48 3-3.28 7.36-4.72 10.16-6.24 14.08-.48 1.12-1 2.64-2.64 2.64a.91.91 0 0 1-1-1c0-.8 4.24-10.08 6.8-15.44-.72.08-1.28.16-1.76.16-1.68 0-2.32-.64-2.32-1.28 0-1.52 2.4-1.12 5.36-1.76 5.12-11.36 10-23.44 12.24-26.08a4 4 0 0 1 3.12-1.76c3.6 0 3.44 6.64 3.76 9.6.48 4.88 1 8.08 1.68 14.8l1.2-.16a3.58 3.58 0 0 1 .92-.12zm-4.88.72c-.64-8.72-1.36-14.16-2-19.36-.16-1.28-.56-2-1.2-2-1.44 0-6.32 11.6-11.68 23.84 5.76-.88 8.88-1.36 13.28-2.16zM80.08 40.88a13.13 13.13 0 0 1-8.64-3.74 19.62 19.62 0 0 1-3.68-4.48c-2.32 5.66-6.83 15.48-14.16 15.48-3.92 0-5.76-3-5.76-6.64a23.59 23.59 0 0 1 1.09-6.62c-2.72 1.6-6.72 3.76-9.92 3.76-.72 0-2.4-.48-2.4-1.44 0-.72 2.08-.48 2.56-.56 3.36-.32 7.92-3 10.72-4.88 1.92-6.08 9-27.28 16.88-27.28 2.48 0 3.68 2 3.68 4.24 0 7.12-13.6 20.16-18.72 24.24a27.83 27.83 0 0 0-1.52 8.48c0 2 .88 4.24 3.2 4.24 3 0 5.76-2.8 7.52-5 2.48-3.2 3.36-7.12 4.8-10.88a2 2 0 0 1 1.92-1.6c1.76 0 2.32 1.68 2.8 3a15.3 15.3 0 0 0 2.4 4.32 9.15 9.15 0 0 0 5.84 3.52c.72.08 2.24-.16 2.24 1a.89.89 0 0 1-.85.84zm-17.36-30.8a53.38 53.38 0 0 0-5.12 9.12c-1.52 3.36-3.12 6.64-4.48 10.08v.08c3.12-2.88 11.52-12.16 13.2-15.68a10.08 10.08 0 0 0 1.2-4c0-1-.4-2-1.44-2-1.36 0-2.64 1.46-3.36 2.4z" fill="#fff"/><path d="M110 44.96a.87.87 0 0 1 .8.88.86.86 0 0 1-.8.8c-4.08 0-8.64-2-8.64-6.72 0-3.28 2.24-6.8 2.24-10 0-2.32-2.4-3-4-3.92a3.39 3.39 0 0 1-.32.56c-2.72 4.58-8.56 11.28-13.6 13.36a16.67 16.67 0 0 1-5.28 1 .91.91 0 0 1-1-.88.89.89 0 0 1 .88-.88 13.49 13.49 0 0 0 4-.64A13.08 13.08 0 0 0 89.72 35c2.8-2.72 6.16-6.56 7.76-10.08-1.84-1-3.92-2.32-3.92-4.72a3.53 3.53 0 0 1 3.6-3.28A4 4 0 0 1 101 21a8.26 8.26 0 0 1-.48 2.8c2.72 1.2 5.44 2.64 5.44 6s-1.6 6.32-2.24 9.6a2.75 2.75 0 0 0-.08.8c.04 3.08 3.64 4.76 6.36 4.76zM98.4 22.64c0-.24.24-1.28.24-1.76 0-.64-.32-1.6-1.2-1.6a1.3 1.3 0 0 0-1.28 1.2c0 .88 1.52 1.76 2.24 2.16z" fill="#fff"/><path d="M149.36 43.68c0 2-4.16 3-5.76 3-7.2 0-8.24-7-10-7-2 0-4.32 8.64-11.28 8.64-2.72 0-4.4-1.6-4.4-4.32v-.4c-2.56 1.84-4.48 3.12-7.76 3.12-.64 0-1.28-.08-1.28-.88a.87.87 0 0 1 .88-.8c3.6 0 6.56-2.56 9.2-4.8 1.92-3.52 6.16-7.6 10.4-7.6a5.42 5.42 0 0 1 4.88 2.5 2.2 2.2 0 0 1 2.24 1.36 13.67 13.67 0 0 1 .72 2.4c.88 3.12 2.8 6.08 6.4 6.08 2.48 0 5-1.84 5.28-1.84s.48.22.48.54zm-17.92-6.64c-.64-1-1.28-2-2.64-2-3.28 0-8.08 5.36-8.08 8.56a2.12 2.12 0 0 0 2.21 2.32c3.63 0 6.59-6.4 8.51-8.88zM198.93 40.88h-2.08a18.33 18.33 0 0 1-4.16-.4c-1.52 4.16-5.52 8.24-10.48 8.24-3.44 0-5-3.12-5-6.16 0-3.52 1.92-7 4.16-9.6 1.44-1.76 4.08-4.24 6.48-4.24s3.28 2.24 3.28 4.24a4.07 4.07 0 0 1 2.32 4 11.93 11.93 0 0 1-.16 1.68 10.77 10.77 0 0 0 2.8.4c1.12.08 1.92.08 2.88.08.4 0 1.12.24 1.12.72a1.2 1.2 0 0 1-1.16 1.04zm-8.32-1c-2.64-.8-4.56-2.88-4.56-5 0-1.68 1.44-2.48 3-2.48a1.3 1.3 0 0 0-1.2-.88 3.91 3.91 0 0 0-1.84.64c-3.44 1.84-6.24 7-6.24 10.88a3 3 0 0 0 3.16 3.28c3.78 0 6.74-3.12 7.7-6.48zm.48-3a2.43 2.43 0 0 0-2.32-2.32c-.4 0-.56.48-.56.8 0 1.2 1.44 2.48 2.8 2.64a6.53 6.53 0 0 0 .1-1.2zM254.93 45.84a.82.82 0 0 1-.88.8 55.71 55.71 0 0 1-9.92-.56c-2-.32-4.32-.64-5.76-1.6-2.48 8.56-3.84 11.52-6.24 18.4-2.32 6.56-4.16 13.92-9 13.92-2.32 0-4-2.72-4-5.84 0-11.6 14-30 20.24-39a19.6 19.6 0 0 0 .16-2.16c0-1.2-.4-2.88-.4-3.6 0-.56.64-1.76 1.6-1.76 1.6 0 1.68 2 1.68 3.36a5.53 5.53 0 0 1-.24 1.84c2.08-1 3.6-2.32 6.16-2.32 3.2 0 7 1.84 7 5.68 0 4.8-6.48 10.8-11.44 10.8 1.84 1 7.92 1.2 10.24 1.2a1 1 0 0 1 .8.84zm-16.56-9.28c-5.92 9.12-7.84 11.6-11 16.88a117 117 0 0 0-5.12 11.44 19.38 19.38 0 0 0-1 5.84c0 2.32.56 3.68 1.92 3.68 2.08 0 3.28-3 4.88-7.36 2.08-5.68 3.28-8.8 5.28-14.8 1.86-5.52 3.78-10.48 5.06-15.68zm3.12 6.08c3.68 0 10.72-4.08 10.72-9.28 0-2.24-1.84-3.28-3.76-3.28a12.11 12.11 0 0 0-6.72 2.48c-.88 3.68-1.44 6.64-2.48 9.76a8 8 0 0 0 2.26.32z" fill="#fff"/><path d="M297.35 44.96a.89.89 0 0 1 .88.88.87.87 0 0 1-.88.8c-4.16 0-8.64-2.08-8.64-6.8 0-3.28 2.24-6.64 2.24-10 0-2.24-2.4-3-4-3.84l-.24.56c-3.84 7-12.48 13-19.6 16.72a25.37 25.37 0 0 1-13.18 3.36.87.87 0 0 1-.8-.88.86.86 0 0 1 .8-.8 22.22 22.22 0 0 0 6.88-1.2c8.22-2.62 20.22-10.72 24.12-18.88-1.84-1-3.92-2.32-3.92-4.64a3.47 3.47 0 0 1 3.52-3.36 4 4 0 0 1 3.92 4.08 8.23 8.23 0 0 1-.48 2.8c2.72 1.2 5.44 2.64 5.44 6.08 0 3.6-2.32 7.6-2.32 10.32.02 3.04 3.62 4.8 6.26 4.8zm-11.6-22.32l.08-.08a6.09 6.09 0 0 0 .24-1.68c0-.64-.32-1.6-1.2-1.6a1.3 1.3 0 0 0-1.28 1.2c0 .96 1.44 1.66 2.16 2.16z" fill="#fff"/><path d="M330.31 38.88a31.07 31.07 0 0 0 4.72.24.89.89 0 0 1 .88.88.89.89 0 0 1-.88.88 31 31 0 0 1-5.2-.32c-1.6 4.24-6.32 8.08-10.64 8.08-3.36 0-5.12-2.88-5.12-5.92a10.66 10.66 0 0 1 .24-2.24c-5 3.44-9.84 6.16-16.08 6.16-.72 0-1.92.16-1.92-.88a.87.87 0 0 1 .88-.8 31.05 31.05 0 0 0 3.84-.32 25.32 25.32 0 0 0 6.8-2.32 24.93 24.93 0 0 0 6.1-3.76 14.27 14.27 0 0 0 1.6-1.52l.72-1.12a20 20 0 0 1 2.16-3c1.44-1.76 4.08-4.32 6.48-4.32s3.2 2 3.2 4a5.92 5.92 0 0 1 2.32 5 6.87 6.87 0 0 1-.1 1.28zm-2.88 1c-2.4-.8-4.48-2.32-4.48-5.2 0-1.68 1.28-2.56 3.12-2.72a1.63 1.63 0 0 0-1.36-.88 3.19 3.19 0 0 0-2 .72c-3 2.16-6.08 7.36-6.08 11.12a3.28 3.28 0 0 0 3.36 3.52c2.24.04 6.08-2.68 7.44-6.52zm.5-1.64a5.28 5.28 0 0 0 .08-1.12c0-1.68-.88-3-2.24-3-.32 0-.48.32-.48.64a3.6 3.6 0 0 0 2.64 3.48z" fill="#fff"/><path d="M362.87 21.84C364.23 16.4 368.95 0 375.67 0c1.76 0 2.64 1.28 2.64 3 0 5.28-4.56 12.32-7.12 16.88s-4.72 9.26-7.76 13.48c.32 4.88 1.92 9.44 7.12 11a13.92 13.92 0 0 0 4 .64.87.87 0 0 1 .88.8.89.89 0 0 1-.88.88c-7.12 0-11.44-4-12.8-10.8-3.12 4.32-8.24 11.84-14.16 11.84a4.88 4.88 0 0 1-5.12-5 7.2 7.2 0 0 1 1-3.36 24.15 24.15 0 0 1-8.54 1.52.89.89 0 0 1-.88-.88.89.89 0 0 1 .88-.86 24.75 24.75 0 0 0 9.52-2.24 7.06 7.06 0 0 0 1.36-.64c2.56-1.92 2.16-2 5.44-3l.08-.08v.08a7.28 7.28 0 0 1 1.84-.24 5.78 5.78 0 0 1 5.36 3.84c1-1.36 1.92-2.72 2.88-4.08a45.12 45.12 0 0 1 1.46-10.94zm-6.24 17.36l.08-.08a3.73 3.73 0 0 0-3.84-3.52c-3.28 0-7.68 3.36-7.68 6.88a2.48 2.48 0 0 0 2.64 2.66c3.68 0 6.56-3.46 8.8-5.94zm11-16.72c1.44-2.56 2.8-5.2 4.16-7.84 1.36-2.48 4-6.8 4-9.6 0-.8-.32-1.6-1.28-1.6-3.68 0-7.68 12.88-8.64 15.92a56 56 0 0 0-2.4 10.24z" fill="#fff"/><path d="M400.93 45.52c3.92-2.64 5.36-6.56 7.36-10.64.56-1.12 1.6-2.64 3-2.64 2.48 0 1.76 4.48 2 6.16a7.73 7.73 0 0 0 6.4 6.4c.64.16 2.16 0 2.16 1a.89.89 0 0 1-.88.88 10.89 10.89 0 0 1-11-9.28 12.71 12.71 0 0 1-1.44 3c-2.32 3.92-5.68 8.4-10.72 8.4-4.16 0-6.16-3.52-6.16-7.28a13.47 13.47 0 0 1 .48-3.6 29.22 29.22 0 0 1-8.8 6.8 19.32 19.32 0 0 1-9 2 .82.82 0 0 1-.8-.88.86.86 0 0 1 .8-.8 16.41 16.41 0 0 0 8-1.92 29.48 29.48 0 0 0 8.88-7.76c.72-1.12 2.48-4.08 4.08-4.08a1.69 1.69 0 0 1 1.6 1.76c0 2.16-3 5.2-3 9.12 0 2.56 1.52 4.32 4.16 4.32a4.85 4.85 0 0 0 2.88-.96z" fill="#fff"/><path d="M449.51 24.96c0 2-5.6 2.08-7 2.16v.08a3.34 3.34 0 0 1-.32.8c-1.28 2.88-2.64 7.2-2.64 10.32a6.13 6.13 0 0 0 1.92 5 7.84 7.84 0 0 0 4.4 1.68c.4.08.88.32.88.8a.89.89 0 0 1-.88.88 7.79 7.79 0 0 1-8.16-8.08 26.3 26.3 0 0 1 .64-5c-2.88 5-11.44 13.12-17.6 13.12a.89.89 0 0 1-.88-.88c0-.48.48-.72.88-.8 3-.4 5.68-2.16 8.08-4a35.47 35.47 0 0 0 10.32-13.68c-1.28.08-2.48.16-3.76.16-.72 0-2.48-.24-2.48-1.28 0-1.6 5.92-1.44 7.28-1.44.4-1 1.76-5.2 3.12-5.2 1 0 1.2 1.76 1.2 2.48a11.36 11.36 0 0 1-.88 2.64 29 29 0 0 1 4.56 0c.36-.08 1.32-.32 1.32.24z" fill="#fff"/><path d="M485.67 40.4c0 1.6-3 1.44-4.08 1.44a8.64 8.64 0 0 1-3.2-.48 12 12 0 0 1-10.56 7.36c-3.36 0-5-3.12-5-6.16a9.22 9.22 0 0 1 .24-2.08c-5.12 3.52-9.84 6.16-16.16 6.16-.72 0-1.84.16-1.84-.88a.87.87 0 0 1 .88-.8 31 31 0 0 0 3.84-.32 30.9 30.9 0 0 0 12.88-6.08l1.68-1.52c1.52-3 5.52-8.16 9.2-8.16 2.24 0 3.2 2.32 3.2 4.32 1.6 1 2.32 3.2 2.32 5a9.79 9.79 0 0 1-.16 1.52 11.32 11.32 0 0 0 3.68.4c.34-.04 3.08-.36 3.08.28zm-9.28 0c-1.68-.88-4.8-3.2-4.8-5.28 0-1.68 1.6-2.48 3-2.56a1.3 1.3 0 0 0-1.2-.88 4.23 4.23 0 0 0-1.84.64c-3.28 1.76-6.24 7-6.24 10.72a3 3 0 0 0 3.2 3.28 8.59 8.59 0 0 0 7.88-5.92zm.32-2.16c0-1.12-1-3.6-2.32-3.6-.32 0-.56.4-.56.72 0 1.36 2.08 2.32 2.88 3.12zM536.87 42.08c0 2.4-4.64 3.84-6.48 4.24a15.22 15.22 0 0 1-3.28.32c-4.08 0-7.68-2.72-7.68-7a30.51 30.51 0 0 1-5.36.56c-.72 0-2.32-.48-2.32-1.44 0-.56.88-.56 1.28-.56a32.11 32.11 0 0 0 6.72-.8c.08-.08.08-.16.08-.32.88-3.92 4.8-8.4 9-8.4 2.08 0 4.4 1.2 4.4 3.52a4.45 4.45 0 0 1-.48 1.76c-1.2 2.4-7.76 4.08-10.24 4.88a1.88 1.88 0 0 1-.64.16v.72c0 3.28 2.08 5 5.2 5.2h.08a12.53 12.53 0 0 0 7.52-2.16 18.81 18.81 0 0 1 1.68-1.28c.44.04.52.2.52.6zm-14.4-5.28c1.84-.4 7.52-2.4 7.52-4.56 0-.88-.88-1-1.6-1-2.8-.04-5.2 3.08-5.92 5.56zM599.99 40a.89.89 0 0 1-.88.88c-.32 0-1.6 0-2.72.08.48 6.24-7.6 10.32-13 10.32-2.24 0-5-.88-5-3.6 0-5.84 11-7.6 15.2-8v-.08c-2-4.08-8.4-6.88-11-10.32a48.38 48.38 0 0 1-6.8 5.28c-2.56 1.6-8.08 5-11 5-.56 0-1.84-.24-1.84-1 0-.64 1.92-.88 2.4-1a31.64 31.64 0 0 0 6.48-3 59.24 59.24 0 0 0 9.6-7 5.45 5.45 0 0 1-.56-2.24c0-2.88 3-7.12 6.08-7.12a2.5 2.5 0 0 1 2.56 2.64c0 3.2-3.12 5.2-5.2 7h-.08c2.72 3 6.24 5.52 9.36 8.16a7.87 7.87 0 0 1 2.48 3.36c.8-.08 2.56-.16 3-.16a.89.89 0 0 1 .92.8zm-5.92 1.2c-3.28.32-13.44 1.68-13.44 6.16 0 1.68 1.52 2.24 3 2.24 4.2 0 10.44-2.88 10.44-8.4zm-6.88-20a.65.65 0 0 0-.72-.64c-1.68 0-3.2 3.36-3.2 4.72v.56c1.04-.88 3.92-3.2 3.92-4.64z" fill="#fff"/><path d="M617.18 31.92a8.38 8.38 0 0 1 .48 2.88c.32 2.88.72 6.08 2.72 8.4 1.28 1.52 2.32 1.52 4.08 1.76.4.08.88.32.88.8a.89.89 0 0 1-.88.88 8.43 8.43 0 0 1-6.4-3.28c-1.6-2.08-2.88-7-3-9.68a43.6 43.6 0 0 1-10.4 6.32 22.11 22.11 0 0 1-5.6.88.89.89 0 0 1-.88-.88.87.87 0 0 1 .75-.86 13.49 13.49 0 0 0 4-.64 25.49 25.49 0 0 0 4.72-2.24c1.44-.88 6.88-5 8.24-5a1.24 1.24 0 0 1 1.29.66zm-1.68-12.56c0-.8.72-1.12 1.44-1.12 1.28 0 2 1.68 2 2.72 0 .56-.32 1.28-1 1.28-1.16 0-2.44-1.84-2.44-2.88z" fill="#fff"/><path d="M666.86 37.52c1 3.36 1.68 7.44 6 7.44a.87.87 0 0 1 .88.8.89.89 0 0 1-.88.88c-8.72 0-7.52-10.56-10.08-10.56-2.24 0-6.88 10.8-10.56 10.8-1.68 0-2.32-1.52-2.32-3 0-2.64 1.36-5.52 1.36-7.92 0-1-.16-2.24-1.44-2.24-4.88 0-14.4 12.88-23.36 12.88-.8 0-3 .4-3-.88a.87.87 0 0 1 .88-.8c4.64 0 8.88-2 12.48-4.8 2.8-2.08 7.84-7 10.72-8.16a6.54 6.54 0 0 1 2.4-.56c2.48 0 3.76 1.92 3.76 4.16 0 2.56-1.6 5.44-1.6 7.84 0 .4 0 1 .56 1 1.76 0 7-11.28 10.88-11.28 1.96.02 2.84 2.8 3.32 4.4z" fill="#fff"/><path d="M701.42 24.96c0 2-5.6 2.08-7 2.16v.08a3.34 3.34 0 0 1-.32.8c-1.28 2.88-2.64 7.2-2.64 10.32a6.13 6.13 0 0 0 1.92 5 7.84 7.84 0 0 0 4.4 1.68c.4.08.88.32.88.8a.89.89 0 0 1-.88.88 7.79 7.79 0 0 1-8.16-8.08 26.3 26.3 0 0 1 .64-5c-2.88 5-11.44 13.12-17.6 13.12a.89.89 0 0 1-.88-.88c0-.48.48-.72.88-.8 3-.4 5.68-2.16 8.08-4a35.47 35.47 0 0 0 10.32-13.68c-1.28.08-2.48.16-3.76.16-.72 0-2.48-.24-2.48-1.28 0-1.6 5.92-1.44 7.28-1.44.4-1 1.76-5.2 3.12-5.2 1 0 1.2 1.76 1.2 2.48a11.36 11.36 0 0 1-.88 2.64 29 29 0 0 1 4.56 0c.36-.08 1.32-.32 1.32.24z" fill="#fff"/><path d="M737.42 43.68c0 2-4.16 3-5.76 3-7.2 0-8.24-7-10-7-2 0-4.32 8.64-11.28 8.64-2.72 0-4.4-1.6-4.4-4.32v-.4c-2.56 1.84-4.48 3.12-7.76 3.12-.64 0-1.28-.08-1.28-.88a.87.87 0 0 1 .88-.8c3.6 0 6.56-2.56 9.2-4.8 1.92-3.52 6.16-7.6 10.4-7.6a5.43 5.43 0 0 1 4.88 2.5 2.2 2.2 0 0 1 2.24 1.36 13.75 13.75 0 0 1 .72 2.4c.88 3.12 2.8 6.08 6.4 6.08 2.48 0 5-1.84 5.28-1.84s.48.22.48.54zm-17.92-6.64c-.64-1-1.28-2-2.64-2-3.28 0-8.08 5.36-8.08 8.56a2.12 2.12 0 0 0 2.24 2.32c3.6 0 6.56-6.4 8.48-8.88zM787.02 40.88h-2.09a18.33 18.33 0 0 1-4.16-.4c-1.52 4.16-5.52 8.24-10.48 8.24-3.44 0-5-3.12-5-6.16 0-3.52 1.92-7 4.16-9.6 1.44-1.76 4.08-4.24 6.48-4.24s3.28 2.24 3.28 4.24a4.07 4.07 0 0 1 2.32 4 11.93 11.93 0 0 1-.16 1.68 10.77 10.77 0 0 0 2.8.4c1.12.08 1.92.08 2.88.08.4 0 1.12.24 1.12.72a1.2 1.2 0 0 1-1.15 1.04zm-8.32-1c-2.64-.8-4.56-2.88-4.56-5 0-1.68 1.44-2.48 3-2.48a1.3 1.3 0 0 0-1.2-.88 3.91 3.91 0 0 0-1.84.64c-3.44 1.84-6.24 7-6.24 10.88a3 3 0 0 0 3.2 3.28c3.72 0 6.68-3.12 7.64-6.48zm.48-3a2.43 2.43 0 0 0-2.32-2.32c-.4 0-.56.48-.56.8 0 1.2 1.44 2.48 2.8 2.64a6.53 6.53 0 0 0 .08-1.2zM840.86 46.64c-7.12 0-8.24-7-10-7-2 0-4.32 8.64-11.2 8.64-2.72 0-4.48-1.6-4.48-4.4 0-4.8 6.56-11.28 11.44-11.28a5.27 5.27 0 0 1 4.88 2.54c2.32-.24 2.48 2.16 3 3.76a13.31 13.31 0 0 0 1 2.48 6.27 6.27 0 0 0 5.44 3.6.87.87 0 0 1 .88.8.89.89 0 0 1-.96.86zm-20.64-.72c2.24 0 4.72-3.12 5.92-4.8.88-1.28 1.6-2.8 2.56-4.08-.64-1-1.28-2-2.64-2-3.28 0-8.08 5.36-8.08 8.56a2.12 2.12 0 0 0 2.24 2.32z" fill="#fff"/><path d="M875.42 44.96a.87.87 0 0 1 .88.8.89.89 0 0 1-.88.88c-4.08 0-8.56-2-8.56-6.72 0-3.44 2.16-6.64 2.16-10.08 0-2.16-2.4-3.2-4.08-3.92l-.24-.08c-1.6 3.28-5.84 8.16-8.48 10.72-3.52 3.36-6.64 7-11 9.12a9 9 0 0 1-4.08 1c-.56 0-1.28-.08-1.28-.88a.86.86 0 0 1 .8-.8 8.87 8.87 0 0 0 3.2-.72c4.88-2.16 16.64-14 19.2-19.36-1.84-1-3.92-2.32-3.92-4.64a3.47 3.47 0 0 1 3.52-3.36 3.91 3.91 0 0 1 3.92 3.84 7.68 7.68 0 0 1-.72 3l.24.08c2.72 1.2 5.44 2.64 5.44 6.08s-1.61 6.22-2.28 9.44a2.75 2.75 0 0 0-.08.8c0 3.04 3.6 4.8 6.24 4.8zm-11.6-22.32l.08-.08a6.08 6.08 0 0 0 .24-1.68c0-.64-.32-1.6-1.2-1.6a1.3 1.3 0 0 0-1.28 1.2c0 .96 1.44 1.66 2.16 2.16z" fill="#fff"/><path d="M908.38 38.88a31.07 31.07 0 0 0 4.72.24.89.89 0 0 1 .88.88.89.89 0 0 1-.88.88 31 31 0 0 1-5.2-.32c-1.6 4.24-6.32 8.08-10.64 8.08-3.36 0-5.12-2.88-5.12-5.92a10.66 10.66 0 0 1 .24-2.24c-5 3.44-9.84 6.16-16.08 6.16-.72 0-1.92.16-1.92-.88a.87.87 0 0 1 .88-.8 31.05 31.05 0 0 0 3.84-.32 25.32 25.32 0 0 0 6.8-2.32 24.93 24.93 0 0 0 6.03-3.76 14.27 14.27 0 0 0 1.6-1.52l.72-1.12a20 20 0 0 1 2.16-3c1.44-1.76 4.08-4.32 6.48-4.32s3.2 2 3.2 4a5.92 5.92 0 0 1 2.32 5 6.87 6.87 0 0 1-.03 1.28zm-2.88 1c-2.4-.8-4.48-2.32-4.48-5.2 0-1.68 1.28-2.56 3.12-2.72a1.63 1.63 0 0 0-1.36-.88 3.19 3.19 0 0 0-2 .72c-3 2.16-6.08 7.36-6.08 11.12a3.28 3.28 0 0 0 3.36 3.52c2.24.04 6.08-2.68 7.44-6.52zm.43-1.64a5.28 5.28 0 0 0 .08-1.12c0-1.68-.88-3-2.24-3-.32 0-.48.32-.48.64a3.6 3.6 0 0 0 2.64 3.48z" fill="#fff"/><path d="M962.38 35.44c2.16 3.44 1 9 6.32 9.52.4.08.88.32.88.8a.89.89 0 0 1-.88.88c-8.08 0-6.4-9.52-9.12-9.52-.72 0-1.28.72-1.68 1.28-1.36 1.92-4.24 6-5.84 7.44a3.41 3.41 0 0 1-2.16.8 2.64 2.64 0 0 1-2.56-1.92c-.88-2.32-1.44-4.88-2.48-7.2-.24-.56-.64-1.44-1.36-1.44-2.16 0-6.8 10.8-10.48 10.8-1.68 0-2.32-1.52-2.32-3 0-2.56 1.36-5.44 1.36-7.6 0-1.28-.08-2.56-1.76-2.56-1 0-3.84 1.92-4.8 2.56a36.88 36.88 0 0 1-6.8 3.6 16.48 16.48 0 0 1-5.6 1 .91.91 0 0 1-1-.88.89.89 0 0 1 .88-.88 16 16 0 0 0 6.32-1.6c3.28-1.52 7.92-6.08 11.36-6.08 2.4 0 3.68 1.84 3.68 4.08 0 2.8-1.6 5.76-1.6 8.24a.62.62 0 0 0 .56.64c1.68 0 7-11.2 10.88-11.2 4.16 0 3.52 10.32 6.08 10.32 1.28 0 5.28-6.32 6.16-7.44a4.49 4.49 0 0 1 3.36-2.08 3.06 3.06 0 0 1 2.6 1.44z" fill="#fff"/><path d="M1008.14 43.68c0 2-4.16 3-5.76 3-7.2 0-8.24-7-10-7-2 0-4.32 8.64-11.28 8.64-2.72 0-4.4-1.6-4.4-4.32v-.4c-2.56 1.84-4.48 3.12-7.76 3.12-.64 0-1.28-.08-1.28-.88a.87.87 0 0 1 .88-.8c3.6 0 6.56-2.56 9.2-4.8 1.92-3.52 6.16-7.6 10.4-7.6a5.42 5.42 0 0 1 4.88 2.5 2.2 2.2 0 0 1 2.24 1.36 13.67 13.67 0 0 1 .72 2.4c.88 3.12 2.8 6.08 6.4 6.08 2.48 0 5-1.84 5.28-1.84s.48.22.48.54zm-17.92-6.64c-.64-1-1.28-2-2.64-2-3.28 0-8.08 5.36-8.08 8.56a2.12 2.12 0 0 0 2.24 2.32c3.6 0 6.56-6.4 8.48-8.88zM1016.06 43.2a2.06 2.06 0 0 1 2.16 1.94 2 2 0 0 1-1.68 1.84 2.48 2.48 0 0 1-2.32-2.16c0-.72.24-1.2.8-1.36a2.22 2.22 0 0 1 1.04-.26zm2-8.08c-.4 0-.56-.32-.56-.72a33.24 33.24 0 0 1 1.12-6.16c.64-2.88.88-5.12 1.44-7.92.64-3.52 1.68-12.8 4.08-12.8a1.53 1.53 0 0 1 1.44 1.68 4.83 4.83 0 0 1-.24 1.6 204.86 204.86 0 0 1-6.08 22.56c-.56 1.28-.72 1.78-1.2 1.78z" fill="#fff"/></svg>