<svg xmlns="http://www.w3.org/2000/svg" viewBox="0 0 336.71 39.35"><defs><style>.a{fill:#fff}</style></defs><title>p4_s1</title><path class="a" d="M16.67 20.84a.44.44 0 0 1-.44.44c-3.56 0-6.28-1.48-9.44-3.88a16.25 16.25 0 0 1-2.2-2l-.56-.68c-1.24 3.52-2.68 8.84-3.52 8.84a.64.64 0 0 1-.48-.68 17.21 17.21 0 0 1 .76-2.48l2.28-6.88a3.44 3.44 0 0 1-.84-1.72c0-.24.12-.64 1-.92l.88-.28 2.76-8.32a11.21 11.21 0 0 0-1.84 1.16c-.8.64-1.32 1.72-1.92 1.72a.9.9 0 0 1-.84-.8c0-1.08 4.6-4.32 8.24-4.32 2.8 0 4.76 1.24 4.76 3.32 0 4.24-6.88 7-10.16 8.2l-.52 1.64a19.17 19.17 0 0 0 6.72 5.8 15.9 15.9 0 0 0 5 1.44.44.44 0 0 1 .36.4zM5.56 10.09c3.2-1.08 8-3.36 8-6.6 0-1.36-1-2.36-2.84-2.36a7 7 0 0 0-2.2.4z"/><path class="a" d="M35.48 14.04c0 1.76-4 3.56-5.4 4.16l-.24.08c.16 1.4 1.28 2 2.56 2.12.2 0 .44.16.44.4a.44.44 0 0 1-.44.44 3.78 3.78 0 0 1-3.72-2.52 39.86 39.86 0 0 1-12.52 2.52.44.44 0 0 1-.44-.44.44.44 0 0 1 .44-.4 27 27 0 0 0 5.08-.56c1.52-.28 3-.72 4.48-1.12.72-.24 1.6-.4 2.32-.72l.52-.24c.2-2.4 2-5.48 4.72-5.48a2 2 0 0 1 2.2 1.76zm-1.56.2a.75.75 0 0 0-.84-.72c-1.72 0-3 2.16-3.2 3.68.92-.44 4.04-1.76 4.04-2.96z"/><path class="a" d="M54.6 15.64a3.79 3.79 0 0 0-.8 1c-.84 1.24-1.76 2.48-2.68 3.68-.48.6-1.24 1.48-2.08 1.48s-1.4-.92-1.76-1.56c-.56-1-1.08-2-1.6-3.08-.2-.4-.36-.88-.6-1.28-.08-.12-.16-.28-.36-.28s-.6.32-.8.48a33.79 33.79 0 0 1-5.8 3.68 10.81 10.81 0 0 1-5.76 1.52.44.44 0 0 1-.44-.44c0-.36.32-.4.6-.4A14.63 14.63 0 0 0 38 18.72a37.83 37.83 0 0 0 5.88-4.12 7.38 7.38 0 0 1 .88-.68 1.24 1.24 0 0 1 .52-.12.81.81 0 0 1 .6.24c.28.24 2.12 4.76 2.36 5.36.16.4.48 1 1 1 1.24 0 3.68-5.32 4.92-6a1.19 1.19 0 0 1 .6-.2c1.36 0 2.44 3.36 5.64 3.36a.41.41 0 0 1 .4.44.41.41 0 0 1-.4.44c-3 0-4.76-2.8-5.52-2.8a.76.76 0 0 0-.28 0z"/><path class="a" d="M70.67 14.09c0 1.88-4.24 3.16-5.6 3.64h-.08v.24c0 1.56 1.16 2.24 2.56 2.4.2 0 .44.16.44.4a.44.44 0 0 1-.44.44 3.75 3.75 0 0 1-3.76-2.76c0-.12 0-.4-.08-.48a19.6 19.6 0 0 1-3.4.36.44.44 0 0 1-.44-.44.44.44 0 0 1 .44-.44 14.5 14.5 0 0 0 3.48-.4c.44-2.16 2.2-4.8 4.68-4.8a2 2 0 0 1 2.2 1.84zm-1.64 0c0-.4-.44-.52-.8-.52-1.6 0-2.8 1.88-3.12 3.28.93-.25 3.89-1.69 3.89-2.81z"/><path class="a" d="M86.16 2.56c.68-.84 2-2.08 3.12-2.08s1.76 1.44 1.76 2.44c0 1.92-1.4 4.76-2.48 6.32a23.78 23.78 0 0 1-3.76 4.24 6.3 6.3 0 0 1-.76.68c.56 2.72 2.56 6.24 5.72 6.24a.43.43 0 0 1 .4.4.41.41 0 0 1-.4.44c-3.64 0-6-2.92-6.72-6.2-3.92 3-10.68 6.2-15.56 6.2a.44.44 0 0 1-.44-.44.44.44 0 0 1 .44-.4 12.61 12.61 0 0 0 3.44-.56 34.56 34.56 0 0 0 11.88-5.8c0-.6-.16-1.2-.16-1.84a16.91 16.91 0 0 1 3.52-9.64zm1.64 6.08c.84-1.32 2.16-3.76 2.16-5.32 0-.72-.32-1.28-1.08-1.28-1.08 0-2.32 1.8-2.8 2.64a15.69 15.69 0 0 0-2.24 7.52 7.07 7.07 0 0 0 0 .92 20 20 0 0 0 3.96-4.48z"/><path class="a" d="M103.04 21.09a7.58 7.58 0 0 1-1.64.16 3.83 3.83 0 0 1-3.72-2.48c-2.56 1.28-5 2.48-8 2.48a.44.44 0 0 1-.44-.44.44.44 0 0 1 .44-.4 11.84 11.84 0 0 0 3.52-.6 33 33 0 0 0 4.32-2 6.35 6.35 0 0 1 3.32-5.16 2.77 2.77 0 0 1 1.4-.32c1 0 2.2.6 2.2 1.76a2 2 0 0 1-.24.84 2.79 2.79 0 0 1-1 .88c-.52.32-1 .56-1.56.84-.92.52-1.84 1.08-2.8 1.56a2.51 2.51 0 0 0 2.6 2.24 6 6 0 0 0 3.76-1.08 9.55 9.55 0 0 1 .88-.64c.16 0 .2.08.2.24 0 1.23-2.28 1.91-3.24 2.12zm-4.12-4a25.93 25.93 0 0 0 3.84-2.4.74.74 0 0 0 .2-.48c0-.48-.52-.64-.92-.64-1.64-.05-2.88 2.03-3.12 3.47zm36.6 2.67c0 1-2.08 1.48-2.88 1.48-3.64 0-4.12-3.52-5-3.52s-2.12 4.32-5.6 4.32a2 2 0 0 1-2.2-2.12c0-2.44 3.24-5.72 5.68-5.72a2.7 2.7 0 0 1 2.48 1.28 1.13 1.13 0 0 1 1.12.68 6.64 6.64 0 0 1 .32 1.2c.36 1.48 1.56 3 3.2 3a6.59 6.59 0 0 0 2.68-.92c.12.04.2.16.2.32zm-13.2 1.12c1.8 0 3.28-3.2 4.24-4.44-.32-.52-.68-1-1.32-1-1.68 0-4 2.68-4 4.28a1.06 1.06 0 0 0 1.08 1.16zm44.76-2.96a.44.44 0 0 1-.44.44h-1.36c.24 3.12-3.8 5.16-6.48 5.16-1.12 0-2.48-.44-2.48-1.8 0-2.92 5.48-3.8 7.6-4-1-2-4.2-3.44-5.52-5.16a24.13 24.13 0 0 1-3.4 2.64c-1.28.8-4 2.48-5.52 2.48-.28 0-.92-.12-.92-.52s1-.44 1.2-.52a15.72 15.72 0 0 0 3.24-1.48 29.56 29.56 0 0 0 4.8-3.52 2.73 2.73 0 0 1-.28-1.12c0-1.44 1.48-3.56 3-3.56a1.25 1.25 0 0 1 1.28 1.32c0 1.6-1.56 2.6-2.6 3.52a45.31 45.31 0 0 0 4.68 4.08 3.94 3.94 0 0 1 1.24 1.68c.4 0 1.28-.08 1.52-.08a.44.44 0 0 1 .44.44zm-3 .6c-1.64.16-6.72.84-6.72 3.08 0 .84.76 1.12 1.48 1.12 2.16 0 5.28-1.44 5.28-4.2zm-3.44-10a.33.33 0 0 0-.36-.32c-.84 0-1.6 1.68-1.6 2.36v.28c.56-.44 1.99-1.6 1.99-2.32z"/><path class="a" d="M177.84 20.68c2-1.32 2.68-3.28 3.68-5.32.28-.56.8-1.32 1.48-1.32 1.24 0 .88 2.24 1 3.08a3.86 3.86 0 0 0 3.2 3.2c.32.08 1.08 0 1.08.48a.44.44 0 0 1-.44.44 5.44 5.44 0 0 1-5.48-4.64 6.34 6.34 0 0 1-.69 1.49c-1.16 2-2.84 4.2-5.36 4.2-2.08 0-3.08-1.76-3.08-3.64a12.69 12.69 0 0 1 .8-3.44 17.11 17.11 0 0 1-4.6 2.68 7.38 7.38 0 0 1-2.8.48.44.44 0 0 1-.44-.44.44.44 0 0 1 .4-.44 7.06 7.06 0 0 0 2-.36 10.65 10.65 0 0 0 2.36-1.12c.72-.4 3.48-2.48 4.12-2.48a.8.8 0 0 1 .8.88c0 1.08-1.48 2.6-1.48 4.56a2 2 0 0 0 2.08 2.16 2.42 2.42 0 0 0 1.37-.45z"/><path class="a" d="M207.56 19.76c0 1-2.08 1.48-2.88 1.48-3.6 0-4.12-3.52-5-3.52s-2.16 4.32-5.64 4.32a2 2 0 0 1-2.2-2.16v-.2a6.08 6.08 0 0 1-3.88 1.56c-.32 0-.64 0-.64-.44a.44.44 0 0 1 .44-.4c1.8 0 3.28-1.28 4.6-2.4 1-1.76 3.08-3.8 5.2-3.8a2.71 2.71 0 0 1 2.44 1.28 1.1 1.1 0 0 1 1.12.68 6.81 6.81 0 0 1 .36 1.2c.44 1.56 1.4 3 3.2 3a6.86 6.86 0 0 0 2.64-.92c.16.04.24.16.24.32zm-9-3.32c-.32-.52-.64-1-1.32-1-1.64 0-4 2.68-4 4.28a1.06 1.06 0 0 0 1.12 1.16c1.8 0 3.31-3.2 4.24-4.44zm43.76 1.92a6.56 6.56 0 0 1-4.32-1.88 9.8 9.8 0 0 1-1.84-2.24c-1.16 2.84-3.4 7.76-7.08 7.76-2 0-2.88-1.52-2.88-3.32a11.81 11.81 0 0 1 .56-3.32c-1.36.8-3.36 1.88-5 1.88-.36 0-1.2-.24-1.2-.72s1-.24 1.28-.28c1.68-.16 4-1.48 5.36-2.44 1-3 4.52-13.64 8.44-13.64a1.89 1.89 0 0 1 1.84 2.12c0 3.56-6.8 10.08-9.36 12.12a13.9 13.9 0 0 0-.76 4.24c0 1 .44 2.12 1.6 2.12 1.52 0 2.88-1.4 3.76-2.52 1.24-1.6 1.68-3.56 2.4-5.44a1 1 0 0 1 1-.8c.88 0 1.16.84 1.4 1.52a7.65 7.65 0 0 0 1.2 2.16 4.58 4.58 0 0 0 2.92 1.76c.36 0 1.12-.08 1.12.48a.44.44 0 0 1-.44.44zm-8.68-15.4a26.74 26.74 0 0 0-2.56 4.56c-.76 1.68-1.56 3.32-2.24 5 1.56-1.44 5.76-6.08 6.6-7.84a5 5 0 0 0 .6-2c0-.48-.2-1-.72-1-.65.08-1.32.8-1.65 1.28z"/><path class="a" d="M252.8 14.09c0 1.88-4.24 3.16-5.6 3.64h-.08v.24c0 1.56 1.16 2.24 2.56 2.4.2 0 .44.16.44.4a.44.44 0 0 1-.44.44 3.75 3.75 0 0 1-3.76-2.76c0-.12 0-.4-.08-.48a19.6 19.6 0 0 1-3.4.36.44.44 0 0 1-.44-.44.44.44 0 0 1 .44-.44 14.5 14.5 0 0 0 3.48-.4c.44-2.16 2.2-4.8 4.68-4.8a2 2 0 0 1 2.2 1.84zm-1.64 0c0-.4-.44-.52-.8-.52-1.6 0-2.8 1.88-3.12 3.28.96-.25 3.92-1.69 3.92-2.81z"/><path class="a" d="M268.32 2.56c.68-.84 2-2.08 3.12-2.08s1.76 1.44 1.76 2.44c0 1.92-1.4 4.76-2.48 6.32a23.78 23.78 0 0 1-3.76 4.24 6.3 6.3 0 0 1-.76.68c.56 2.72 2.56 6.24 5.72 6.24a.43.43 0 0 1 .4.4.41.41 0 0 1-.4.44c-3.64 0-6-2.92-6.72-6.2-3.92 3-10.68 6.2-15.56 6.2a.44.44 0 0 1-.44-.44.44.44 0 0 1 .44-.4 12.61 12.61 0 0 0 3.44-.56 34.56 34.56 0 0 0 11.88-5.8c0-.6-.16-1.2-.16-1.84a16.92 16.92 0 0 1 3.52-9.64zm1.64 6.08c.84-1.32 2.16-3.76 2.16-5.32 0-.72-.32-1.28-1.08-1.28-1.08 0-2.32 1.8-2.8 2.64A15.69 15.69 0 0 0 266 12.2a7.07 7.07 0 0 0 0 .92 20 20 0 0 0 3.96-4.48z"/><path class="a" d="M286.67 14.04a2 2 0 0 1-.24.84 3.07 3.07 0 0 1-1 .88c-.52.32-1.08.56-1.6.84-1 .52-1.84 1.08-2.8 1.56.16 1.52 1.16 2 2.56 2.24.2 0 .44.16.44.4a.44.44 0 0 1-.44.44 3.87 3.87 0 0 1-3.72-2.48c-2.52 1.24-5 2.48-7.92 2.48a.45.45 0 0 1-.48-.44.44.44 0 0 1 .44-.4 11.62 11.62 0 0 0 3.52-.6 36.13 36.13 0 0 0 4.36-2c0-2.36 2.16-5.48 4.72-5.48a2 2 0 0 1 2.16 1.72zm-1.72.6a.66.66 0 0 0 .2-.48c0-.48-.48-.64-.88-.64-1.72 0-2.84 2.08-3.16 3.52a25.93 25.93 0 0 0 3.81-2.4z"/><path class="a" d="M303 22.72c-.88.8-2.12 2-3.4 2a1 1 0 0 1-1.16-1c0-1.44 1.8-2.44 3-2.44a3.48 3.48 0 0 1 1.28.24c1.12-1.2 3.32-3.72 3.32-5.4 0-1.4-1.4-2.16-2.68-2.16a7.92 7.92 0 0 0-3.72 1.24q-2.4 1.38-4.92 2.52c-3.24 1.48-7.64 3.52-11.24 3.52a.44.44 0 0 1-.44-.44c0-.36.36-.4.6-.4 2.2 0 6-1.4 8-2.28a54.14 54.14 0 0 0 7.56-3.92 8.13 8.13 0 0 1 4.44-1.52c2.08 0 3.84 1 3.84 3.24s-2.24 4.64-3.8 6.08a7.3 7.3 0 0 1 2.72 3.8 36.35 36.35 0 0 1 4.12-3 .41.41 0 0 1 .4.44.58.58 0 0 1-.08.28c-.24.08-3.56 2.68-4.16 3.12a13.88 13.88 0 0 1 .32 3.16 20.51 20.51 0 0 1-.6 5 5.67 5.67 0 0 1-5.32 4.6 3 3 0 0 1-3.08-3.16c0-4.44 4-7.24 7.28-9.56a6.37 6.37 0 0 0-2.28-3.96zm.92 14.36c1.64-1.68 1.84-4.28 1.84-7a12.3 12.3 0 0 0-.2-2.44c-2.84 1.88-6.2 4.6-6.2 8.48a1.91 1.91 0 0 0 2 2.08 4.08 4.08 0 0 0 2.56-1.11zm-2-14.76h-.28c-.56 0-1.92.44-1.92 1.12a.22.22 0 0 0 .24.2c.52 0 1.56-.92 1.92-1.32z"/><path class="a" d="M336.67 19.76c0 1-2.08 1.48-2.88 1.48-3.56 0-4.12-3.52-5-3.52s-2.16 4.32-5.6 4.32a2 2 0 0 1-2.24-2.2 4.1 4.1 0 0 1 .84-2.32 83.71 83.71 0 0 0-8.44 4.32 26.88 26.88 0 0 1-2.8 1.8.47.47 0 0 1-.44-.4c0-.36 1.68-1.4 2-1.6a44.34 44.34 0 0 1 4.24-2.44l4.64-2.28a17.78 17.78 0 0 0 2.16-1c.24-.16.48-.44.68-.6a4.72 4.72 0 0 1 2.84-1.08 2.76 2.76 0 0 1 2.44 1.28 1.19 1.19 0 0 1 1.16.68 10.5 10.5 0 0 1 .32 1.2c.44 1.52 1.44 3 3.2 3a6.32 6.32 0 0 0 2.64-.92c.24 0 .24.08.24.28zm-9-3.32c-.28-.52-.64-1-1.28-1-1.68 0-4.08 2.68-4.08 4.28a1.06 1.06 0 0 0 1.12 1.16c1.89 0 3.45-3.16 4.33-4.44z"/></svg>