<svg xmlns="http://www.w3.org/2000/svg" viewBox="0 0 225.79 91.45"><defs><style>.a{fill:#d5c029}</style></defs><title>p5_s9</title><path class="a" d="M11.62 26.02c-4.27 0-8.88-.82-8.88-4.46 0-3.36 3.89-6.29 6.43-7.78-1.68-.24-3.65-1.1-3.65-2.78a4.65 4.65 0 0 1 1.2-2.78c2.45-3 10-8.21 11.86-8.21.38 0 .91 0 .91.62 0 .14-.14.58-1 .91C14.41 3.27 7.3 7.78 7.3 10.66c0 1.1.91 1.92 2.4 1.92a9.25 9.25 0 0 0 4.08-1.3 7.55 7.55 0 0 1 1.34-.58.61.61 0 0 1 .58.67c0 1-2 1.68-3.7 2.21l-.43.14c-2.64 1.34-7.06 4.61-7.06 7.49 0 2.4 2.35 3.7 7.73 3.7h2.35a.58.58 0 0 1 .58.53c.07.64-.86.58-3.55.58z"/><path class="a" d="M44.46 26.55a3.39 3.39 0 0 1 1.39-2.47c1.82-1.58 5.33-2 7.68-2.35-1.1-2.4-4.66-4.22-6.38-6.19a33 33 0 0 1-8.12 5.54 4 4 0 0 1 .38 1.39c.24 3.74-4.56 6.14-7.78 6.14-1.34 0-3-.53-3-2.16 0-3.22 5.52-4.7 8.21-5.76-1.6-1.77-4.6-3.61-5.68-5.13a74.11 74.11 0 0 1-8.92 7.52c-2.64 1.87-4.22 2.78-7.58 2.78a.54.54 0 0 1-.58-.48.53.53 0 0 1 .53-.53 10.81 10.81 0 0 0 5.23-1.63c3.94-2.26 7.34-5.57 10.66-8.64a2.63 2.63 0 0 1-.43-1.34c0-1.87 1.68-4.46 3.7-4.46a1.45 1.45 0 0 1 1.47 1.54c0 1.58-1.87 3.41-3 4.32a52.75 52.75 0 0 0 5.52 4.8l.62.62a28.16 28.16 0 0 0 8.06-5.42 3.46 3.46 0 0 1-.4-1.56c0-1.78 1.78-4.32 3.7-4.32a1.45 1.45 0 0 1 1.5 1.56c0 1.58-1.87 3.41-3.07 4.32h-.1c1.68 1.63 3.6 3.07 5.38 4.61a5.28 5.28 0 0 1 1.54 2.16c.48 0 1.54-.1 1.82-.1a.53.53 0 1 1 0 1.06h-1.63c.53 3.79-4.51 6.19-7.63 6.19-1.41.1-3.09-.38-3.09-2.01zm-6.86-4.8c-2.4.91-7.63 2.59-7.63 4.56 0 1 .91 1.34 1.78 1.34 2.45 0 6.19-1.92 6.19-4.75a2.64 2.64 0 0 0-.35-1.15zm-6-8.64a1.8 1.8 0 0 0 0 .53c.58-.53 2.3-2.16 2.3-3a.4.4 0 0 0-.43-.43c-1.02.02-1.93 2.08-1.93 2.87zM53.83 23v-.29c-2 .19-8 1-8 3.7 0 1 1 1.25 1.78 1.25 2.37-.01 6.16-1.88 6.16-4.66zm-6.29-9.84V13.64c.58-.53 2.3-2.16 2.3-3a.38.38 0 0 0-.43-.43c-.97.02-1.93 2.13-1.93 2.95z"/><path class="a" d="M80.31 24.08c0 1.2-2.5 1.78-3.46 1.78-4.32 0-4.94-4.22-6-4.22s-2.59 5.18-6.72 5.18a2.45 2.45 0 0 1-2.69-2.59 5.42 5.42 0 0 1 1.1-3 12.56 12.56 0 0 1-5.76 1.2.53.53 0 1 1 0-1.06 15.12 15.12 0 0 0 6.58-1.78c.43-.24 1-.43 1.39-.72 1.25-.82 2-1.44 3.55-1.44a3.26 3.26 0 0 1 2.93 1.54 1.43 1.43 0 0 1 1.39.82 12.6 12.6 0 0 1 .38 1.44c.53 1.87 1.68 3.65 3.84 3.65a7.9 7.9 0 0 0 3.17-1.1c.23-.02.3.13.3.3zm-10.75-4c-.38-.62-.77-1.2-1.58-1.2-2 0-4.85 3.22-4.85 5.14a1.27 1.27 0 0 0 1.34 1.39c2.16.03 3.94-3.81 5.09-5.33zM111.03 23.14c0 1.44-2.78 2.3-3.89 2.54a9.09 9.09 0 0 1-2 .19 4.31 4.31 0 0 1-4.61-4.18 18.25 18.25 0 0 1-3.22.34c-.43 0-1.39-.29-1.39-.86 0-.34.53-.34.77-.34a19.27 19.27 0 0 0 4-.48v-.19c.53-2.35 2.88-5 5.42-5 1.25 0 2.64.72 2.64 2.11a2.66 2.66 0 0 1-.29 1.06c-.72 1.44-4.66 2.45-6.14 2.93a1.13 1.13 0 0 1-.38.1v.43c0 2 1.25 3 3.12 3.12a7.52 7.52 0 0 0 4.51-1.3 11.39 11.39 0 0 1 1-.77c.41-.04.46.06.46.3zm-8.64-3.17c1.1-.24 4.51-1.44 4.51-2.74 0-.53-.53-.62-1-.62-1.66 0-3.08 1.87-3.51 3.36zm1.58-7.11c-.19 0-.29 0-.29-.19 0-.34 3.22-3.12 4-3.12.38 0 .72.19.72.48 0 .62-2.93 2.5-4 2.78a1.33 1.33 0 0 1-.43.06zM146.12 24.08c0 1.2-2.5 1.78-3.46 1.78-4.37 0-4.94-4.22-6-4.22s-2.54 5.18-6.72 5.18a2.37 2.37 0 0 1-2.64-2.54c0-2.93 3.89-6.87 6.82-6.87a3.24 3.24 0 0 1 3 1.54 1.36 1.36 0 0 1 1.34.82 8 8 0 0 1 .38 1.44c.43 1.78 1.87 3.65 3.84 3.65a7.91 7.91 0 0 0 3.22-1.1c.12 0 .22.15.22.32zm-15.88 1.36c2.16 0 3.94-3.84 5.09-5.33-.38-.62-.82-1.2-1.58-1.2-2 0-4.85 3.22-4.85 5.14a1.27 1.27 0 0 0 1.34 1.39zM22.24 65.72a.53.53 0 0 1-.53.53h-1.63c.29 3.74-4.56 6.19-7.78 6.19-1.34 0-3-.53-3-2.16 0-3.5 6.58-4.56 9.12-4.8-1.2-2.45-5-4.13-6.62-6.19a29 29 0 0 1-4.08 3.17c-1.54 1-4.85 3-6.62 3-.34 0-1.1-.14-1.1-.62s1.15-.53 1.44-.62a19 19 0 0 0 3.89-1.78 35.52 35.52 0 0 0 5.76-4.22 3.27 3.27 0 0 1-.34-1.34c0-1.73 1.78-4.27 3.65-4.27a1.5 1.5 0 0 1 1.54 1.58c0 1.92-1.87 3.12-3.12 4.22a54.72 54.72 0 0 0 5.62 4.9 4.73 4.73 0 0 1 1.49 2c.48 0 1.54-.1 1.82-.1a.53.53 0 0 1 .49.51zm-3.55.72c-2 .19-8.06 1-8.06 3.7 0 1 .91 1.34 1.78 1.34 2.52.01 6.27-1.72 6.27-5.04zm-4.13-12a.39.39 0 0 0-.43-.38c-1 0-1.92 2-1.92 2.83v.34c.61-.53 2.34-1.92 2.34-2.79z"/><path class="a" d="M35.14 69.08c2.35-1.58 3.22-3.94 4.42-6.38.34-.67 1-1.58 1.78-1.58 1.49 0 1.06 2.69 1.2 3.7a4.64 4.64 0 0 0 3.84 3.84c.38.1 1.3 0 1.3.58a.53.53 0 0 1-.53.53 6.53 6.53 0 0 1-6.58-5.57 7.6 7.6 0 0 1-.86 1.78c-1.39 2.35-3.41 5-6.43 5-2.5 0-3.7-2.11-3.7-4.37a15.19 15.19 0 0 1 1-4.13 20.54 20.54 0 0 1-5.52 3.22 8.86 8.86 0 0 1-3.36.58.53.53 0 0 1-.53-.53.52.52 0 0 1 .48-.53 8.43 8.43 0 0 0 2.4-.43 12.72 12.72 0 0 0 2.83-1.34c.86-.48 4.18-3 4.94-3a1 1 0 0 1 1 1.06c0 1.3-1.78 3.12-1.78 5.47a2.37 2.37 0 0 0 2.5 2.59 2.91 2.91 0 0 0 1.6-.49z"/><path class="a" d="M70.81 67.93c0 1.2-2.5 1.78-3.46 1.78-4.32 0-4.94-4.22-6-4.22s-2.59 5.18-6.77 5.18a2.41 2.41 0 0 1-2.64-2.59v-.24c-1.54 1.1-2.69 1.87-4.66 1.87-.38 0-.77 0-.77-.53a.52.52 0 0 1 .53-.48c2.16 0 3.94-1.54 5.52-2.88 1.15-2.11 3.7-4.56 6.24-4.56a3.26 3.26 0 0 1 2.93 1.54 1.32 1.32 0 0 1 1.34.82 8.2 8.2 0 0 1 .43 1.44c.53 1.87 1.68 3.65 3.84 3.65a8.23 8.23 0 0 0 3.17-1.1c.2-.01.3.13.3.32zm-10.75-4c-.38-.62-.77-1.2-1.58-1.2-2 0-4.85 3.22-4.85 5.14a1.27 1.27 0 0 0 1.34 1.39c2.15.02 3.93-3.82 5.08-5.31zM112.52 66.25a7.88 7.88 0 0 1-5.18-2.26 11.8 11.8 0 0 1-2.21-2.69c-1.39 3.41-4.08 9.31-8.5 9.31-2.35 0-3.46-1.82-3.46-4a14.15 14.15 0 0 1 .67-4c-1.63 1-4 2.26-6 2.26-.43 0-1.44-.29-1.44-.86s1.25-.29 1.54-.34c2-.19 4.75-1.78 6.43-2.93 1.15-3.65 5.42-16.37 10.13-16.37a2.26 2.26 0 0 1 2.21 2.54c0 4.27-8.16 12.1-11.23 14.54a16.7 16.7 0 0 0-.91 5.09c0 1.2.53 2.54 1.92 2.54 1.82 0 3.46-1.68 4.51-3 1.49-1.92 2-4.27 2.88-6.53a1.23 1.23 0 0 1 1.15-1c1.06 0 1.39 1 1.68 1.82a9.16 9.16 0 0 0 1.53 2.71 5.49 5.49 0 0 0 3.5 2.11c.43 0 1.34-.1 1.34.58a.53.53 0 0 1-.56.48zM102.1 47.77a32.09 32.09 0 0 0-3.07 5.47c-.91 2-1.87 4-2.69 6 1.87-1.73 6.91-7.3 7.92-9.41a6.06 6.06 0 0 0 .72-2.4c0-.58-.24-1.2-.86-1.2-.82.1-1.59.97-2.02 1.54z"/><path class="a" d="M125.09 61.08c0 2.26-5.09 3.79-6.72 4.37h-.1v.29c0 1.87 1.39 2.69 3.07 2.88.24 0 .53.19.53.48a.53.53 0 0 1-.53.53 4.5 4.5 0 0 1-4.51-3.31c0-.14 0-.48-.1-.58a23.53 23.53 0 0 1-4.08.43.53.53 0 0 1 0-1.06 17.43 17.43 0 0 0 4.18-.48c.53-2.59 2.64-5.76 5.62-5.76a2.39 2.39 0 0 1 2.64 2.21zm-2 0c0-.48-.53-.62-1-.62-1.92 0-3.36 2.26-3.74 3.94 1.22-.26 4.77-1.99 4.77-3.32z"/><path class="a" d="M143.72 47.29c.82-1 2.35-2.5 3.74-2.5s2.11 1.73 2.11 2.93c0 2.3-1.68 5.71-3 7.58a28.54 28.54 0 0 1-4.51 5.09 7.48 7.48 0 0 1-.91.82c.67 3.26 3.07 7.49 6.86 7.49a.52.52 0 0 1 .48.48.49.49 0 0 1-.48.53c-4.37 0-7.15-3.5-8.06-7.44-4.7 3.55-12.82 7.44-18.67 7.44a.53.53 0 0 1-.53-.53.52.52 0 0 1 .53-.48 15.13 15.13 0 0 0 4.13-.67 41.52 41.52 0 0 0 14.26-7c0-.72-.19-1.44-.19-2.21a20.3 20.3 0 0 1 4.24-11.53zm2 7.3c1-1.58 2.59-4.51 2.59-6.38 0-.86-.38-1.54-1.3-1.54-1.3 0-2.78 2.16-3.36 3.17a18.82 18.82 0 0 0-2.69 9 8.52 8.52 0 0 0 0 1.1 24 24 0 0 0 4.72-5.35z"/><path class="a" d="M165.7 61.08a2.44 2.44 0 0 1-.29 1 3.66 3.66 0 0 1-1.2 1.06c-.62.38-1.3.67-1.92 1-1.15.62-2.21 1.3-3.36 1.87.19 1.82 1.39 2.45 3.07 2.69.24 0 .53.19.53.48a.53.53 0 0 1-.53.53 4.64 4.64 0 0 1-4.46-3c-3 1.49-6 3-9.5 3a.54.54 0 0 1-.58-.53.52.52 0 0 1 .53-.48 13.91 13.91 0 0 0 4.22-.72 43.1 43.1 0 0 0 5.23-2.45c0-2.83 2.59-6.58 5.66-6.58 1.21.01 2.6.73 2.6 2.13zm-2.06.72a.79.79 0 0 0 .24-.58c0-.58-.58-.77-1.06-.77-2.06 0-3.41 2.5-3.79 4.22a31.24 31.24 0 0 0 4.61-2.88z"/><path class="a" d="M185.33 71.49c-1.06 1-2.54 2.45-4.08 2.45a1.25 1.25 0 0 1-1.39-1.25c0-1.73 2.16-2.93 3.65-2.93a4.15 4.15 0 0 1 1.54.29c1.34-1.44 4-4.46 4-6.48 0-1.68-1.68-2.59-3.22-2.59a9.5 9.5 0 0 0-4.46 1.49q-2.88 1.66-5.9 3c-3.89 1.78-9.17 4.22-13.49 4.22a.53.53 0 0 1-.53-.53c0-.43.43-.48.72-.48 2.64 0 7.15-1.68 9.65-2.74a65.05 65.05 0 0 0 9.07-4.71 9.75 9.75 0 0 1 5.33-1.82c2.5 0 4.61 1.2 4.61 3.89s-2.69 5.57-4.56 7.3a8.77 8.77 0 0 1 3.26 4.56c.67-.53 4.51-3.6 4.94-3.6a.49.49 0 0 1 .48.53.7.7 0 0 1-.1.34c-.29.1-4.27 3.22-5 3.74a16.67 16.67 0 0 1 .38 3.79 24.66 24.66 0 0 1-.72 6c-.86 3.41-3.5 5.52-6.38 5.52a3.65 3.65 0 0 1-3.7-3.79c0-5.33 4.85-8.69 8.74-11.47-.49-1.81-1.21-3.68-2.84-4.73zm1.1 17.23c2-2 2.21-5.14 2.21-8.4a14.77 14.77 0 0 0-.24-2.93c-3.41 2.26-7.44 5.52-7.44 10.18a2.29 2.29 0 0 0 2.4 2.5 4.9 4.9 0 0 0 3.08-1.35zm-2.45-17.71h-.34c-.67 0-2.3.53-2.3 1.34a.27.27 0 0 0 .29.24c.68 0 1.93-1.1 2.36-1.59z"/><path class="a" d="M225.8 67.93c0 1.2-2.5 1.78-3.46 1.78-4.27 0-4.94-4.22-6-4.22s-2.59 5.18-6.72 5.18a2.46 2.46 0 0 1-2.69-2.64 4.93 4.93 0 0 1 1-2.78 100.87 100.87 0 0 0-10.13 5.18 32.29 32.29 0 0 1-3.36 2.16.56.56 0 0 1-.53-.48c0-.43 2-1.68 2.4-1.92a53.81 53.81 0 0 1 5.09-2.93l5.57-2.74a21.61 21.61 0 0 0 2.59-1.25c.29-.19.58-.53.82-.72a5.67 5.67 0 0 1 3.41-1.3 3.31 3.31 0 0 1 2.93 1.54 1.43 1.43 0 0 1 1.39.82 12.6 12.6 0 0 1 .38 1.44c.53 1.82 1.73 3.65 3.84 3.65a7.58 7.58 0 0 0 3.17-1.1c.2 0 .3.09.3.33zm-10.75-4c-.34-.62-.77-1.2-1.54-1.2-2 0-4.9 3.22-4.9 5.14a1.27 1.27 0 0 0 1.34 1.39c2.17.02 4.04-3.78 5.09-5.31z"/></svg>