<svg xmlns="http://www.w3.org/2000/svg" viewBox="0 0 930.67 46.75"><title>p5_s6</title><path d="M16.83 6.3a.35.35 0 0 1-.36.36 1.86 1.86 0 0 1-1-.5 5.69 5.69 0 0 0-3.42-1.17 8.17 8.17 0 0 0-5.31 2.16 20.62 20.62 0 0 0-3.55 4.68 12.5 12.5 0 0 0-1.71 6c0 4.32 2 7.61 9.63 7.42a.5.5 0 0 1 .45.54c0 .5-.5.5-.85.5-6.57.41-10.75-2.21-10.75-8.1a16 16 0 0 1 2.43-8.05C5.31 5.24 9 3.53 11.84 3.53a5.32 5.32 0 0 1 4.32 1.67 1.72 1.72 0 0 1 .67 1.1z" fill="#3c1604"/><path d="M40.86 24.44a2.84 2.84 0 0 0 1.67.85c.27 0 .45.14.45.45a.46.46 0 0 1-.45.5c-3.69 0-4.54-5.58-6.93-5.58-2.16 0-4.32 6-7.2 6-2.16 0-2.79-3.51-2.88-5.17-3.87 2.16-10 4.77-14.4 4.77a.5.5 0 0 1-.5-.5.49.49 0 0 1 .5-.45 14.25 14.25 0 0 0 3.87-.67 38.78 38.78 0 0 0 10.48-4.58 28.43 28.43 0 0 1 3-11.52c.63-1.17 2.12-3.24 3.65-3.24s1.57 1.89 1.57 2.92a14.19 14.19 0 0 1-.49 3.33 15.21 15.21 0 0 1-6.39 9c0 1 .23 4.54 1.62 4.54 2 0 4.27-5.85 7.29-5.85 2.08.07 3.61 3.89 5.14 5.2zM29.48 9.54a22.9 22.9 0 0 0-2.61 9.52 13.9 13.9 0 0 0 5.35-9.7 6.72 6.72 0 0 0 .09-.94c0-.36-.09-1.31-.63-1.31-.85 0-1.89 1.85-2.2 2.43z" fill="#3c1604"/><path d="M59 18.14a2.29 2.29 0 0 1-.27.94 3.43 3.43 0 0 1-1.12 1c-.58.36-1.22.63-1.8.95-1.08.58-2.07 1.21-3.15 1.75.18 1.71 1.31 2.29 2.88 2.52.23 0 .5.18.5.45a.5.5 0 0 1-.5.5 4.35 4.35 0 0 1-4.18-2.79c-2.83 1.39-5.67 2.79-8.91 2.79a.51.51 0 0 1-.54-.5.49.49 0 0 1 .5-.45 13.05 13.05 0 0 0 4-.67 40.37 40.37 0 0 0 4.9-2.29c0-2.65 2.43-6.17 5.31-6.17A2.23 2.23 0 0 1 59 18.14zm-1.94.67a.75.75 0 0 0 .23-.54c0-.54-.54-.72-1-.72-1.94 0-3.19 2.34-3.55 4a29.35 29.35 0 0 0 4.32-2.74z" fill="#3c1604"/><path d="M80.59 23.49c.09 1 .09 2 .09 3 0 6.75-2.83 15.43-7.42 19.26a4.72 4.72 0 0 1-2.83 1 3.8 3.8 0 0 1-4-4c0-4.37 4.63-9.54 8.19-12.46.41-.32 2.66-2.25 3.1-2.25a.44.44 0 0 1 .45.5.41.41 0 0 1-.18.36c-3.65 2.93-10.08 8.69-10.08 13.63 0 1.58.81 2.75 2.48 2.75a4.55 4.55 0 0 0 3.46-1.84c3.46-4.41 5.31-10.3 5.67-16.74v-1.17c0-.58 0-2.61-.9-2.61a1.61 1.61 0 0 0-.81.32 7.36 7.36 0 0 1 .09 1c0 .45-.23 1.08-.77 1.08-.36 0-.4-.45-.4-.72a1.11 1.11 0 0 0 0-.54c-1.4 1.13-3.15 2.79-5 2.79s-3.28-.81-3.28-2.83a6.39 6.39 0 0 1 .31-1.96c-3.82 1.67-9.13 4.18-13.27 4.18a.5.5 0 0 1-.5-.5.49.49 0 0 1 .5-.45 13.93 13.93 0 0 0 3.82-.67 51.88 51.88 0 0 0 10.12-4.09c.77-1.53 2.43-3.51 4.32-3.51 2.21 0 3.51 2.75 3.92 4.59a2.45 2.45 0 0 1 1.4-.45c1.21-.01 1.43 1.34 1.52 2.33zm-3.92-1.12c-.22-1.44-1.21-3.64-2.92-3.64-1.93 0-3.69 3.15-3.69 4.86a1.54 1.54 0 0 0 1.76 1.67c1.98-.01 3.47-1.68 4.86-2.89z" fill="#3c1604"/><path d="M100.12 21.87a17.41 17.41 0 0 0 2.66.14.5.5 0 0 1 .49.49.5.5 0 0 1-.49.5 17.45 17.45 0 0 1-2.92-.18c-.9 2.38-3.56 4.54-6 4.54-1.89 0-2.88-1.62-2.88-3.33a6 6 0 0 1 .54-2.47c-2 .94-4 1.89-6 2.88a44.93 44.93 0 0 0-4.59 2.47 30 30 0 0 1-3.1 2 .49.49 0 0 1-.5-.45.51.51 0 0 1 .14-.36 18.58 18.58 0 0 1 2.07-1.44c4-2.66 8.5-4.46 12.78-6.62a13.42 13.42 0 0 1 1.13-1.53c.81-1 2.29-2.43 3.65-2.43s1.8 1.13 1.8 2.25a3.33 3.33 0 0 1 1.22 2.82 3.83 3.83 0 0 1 0 .72zm-1.62.58c-1.38-.44-2.56-1.3-2.56-2.92 0-.94.72-1.44 1.75-1.53a.91.91 0 0 0-.76-.5 1.79 1.79 0 0 0-1.13.4 9.13 9.13 0 0 0-3.42 6.25 1.84 1.84 0 0 0 1.89 2c1.26 0 3.42-1.53 4.19-3.69zm.27-.94v-.63c0-.95-.5-1.71-1.26-1.71-.18 0-.27.18-.27.36a2 2 0 0 0 1.49 1.98z" fill="#3c1604"/><path d="M126.63 25.34c0 .72-1.44 1.08-2 1.08-2.75 0-3.92-3.1-4.14-5.4-1.12 2.65-3.65 6.39-6.88 6.39-2.21 0-3.46-1.84-3.46-3.92a14 14 0 0 1 .94-4c-2.29 1.89-5.35 3.55-8.37 3.55a.5.5 0 0 1-.5-.5.5.5 0 0 1 .5-.49 7.65 7.65 0 0 0 2.25-.41 12 12 0 0 0 2.65-1.26c.77-.45 3.91-2.79 4.59-2.79a.92.92 0 0 1 .94.94c0 1.17-1.67 3-1.67 5.17a2.2 2.2 0 0 0 2.32 2.36 2.7 2.7 0 0 0 1.53-.5c2.29-1.58 3-3.6 4.14-6 .31-.63.94-1.48 1.67-1.48.9 0 1.13 1.13 1.13 1.84 0 .54-.14 1.13-.14 1.71 0 1.67.54 3.74 2.56 3.74.58 0 1.17-.27 1.75-.27a.19.19 0 0 1 .19.24zM154.53 23h-1.17a10.33 10.33 0 0 1-2.34-.22c-.85 2.34-3.1 4.63-5.9 4.63-1.93 0-2.83-1.75-2.83-3.46a8.78 8.78 0 0 1 2.34-5.4c.81-1 2.29-2.39 3.64-2.39s1.85 1.26 1.85 2.38a2.29 2.29 0 0 1 1.3 2.25 6.72 6.72 0 0 1-.09.95 6.11 6.11 0 0 0 1.57.23h1.62c.23 0 .63.13.63.4a.67.67 0 0 1-.62.63zm-4.68-.58a3.3 3.3 0 0 1-2.56-2.79c0-.94.81-1.39 1.67-1.39a.73.73 0 0 0-.68-.5 2.19 2.19 0 0 0-1 .36 7.83 7.83 0 0 0-3.51 6.12 1.67 1.67 0 0 0 1.76 1.84 4.79 4.79 0 0 0 4.32-3.65zm.27-1.72a1.37 1.37 0 0 0-1.31-1.3c-.23 0-.31.27-.31.45a1.82 1.82 0 0 0 1.62 1.48 3.68 3.68 0 0 0 0-.63zM191.88 19.94c1.26 1.93.58 5 3.55 5.35.27 0 .45.18.45.45a.46.46 0 0 1-.45.5c-4.54 0-3.65-5.35-5.17-5.35-.4 0-.72.4-.94.72a30.61 30.61 0 0 1-3.29 4.18 1.92 1.92 0 0 1-1.21.45 1.59 1.59 0 0 1-1.44-1.08c-.5-1.35-.81-2.75-1.4-4-.13-.32-.31-.81-.72-.81-1.26 0-3.82 6.07-5.94 6.07-.94 0-1.3-.85-1.3-1.67 0-1.48.76-3.1.76-4.45 0-.58-.13-1.26-.81-1.26-1.26 0-2.83 1.62-3.69 1.62a.48.48 0 0 1-.45-.41c0-.94 3.15-2.52 4.19-2.52a2.12 2.12 0 0 1 2.1 2.33c0 1.44-.9 3-.9 4.41 0 .22 0 .54.27.54.94 0 4.09-6.34 6.12-6.34 2.34 0 2 5.85 3.46 5.85 1.21 0 3.24-5.35 5.35-5.35a1.72 1.72 0 0 1 1.46.77z" fill="#3c1604"/><path d="M213.93 21.87a17.4 17.4 0 0 0 2.65.14.5.5 0 0 1 .49.49.5.5 0 0 1-.49.5 17.45 17.45 0 0 1-2.92-.18c-.9 2.38-3.56 4.54-6 4.54-1.89 0-2.88-1.62-2.88-3.33a6 6 0 0 1 .13-1.26c-2.83 1.93-5.53 3.46-9 3.46-.41 0-1.08.09-1.08-.5a.49.49 0 0 1 .5-.45 17.5 17.5 0 0 0 2.16-.18 14.23 14.23 0 0 0 3.83-1.3 14 14 0 0 0 3.42-2.12 8.14 8.14 0 0 0 .9-.85l.4-.63a11.24 11.24 0 0 1 1.21-1.66c.81-1 2.29-2.43 3.65-2.43s1.8 1.13 1.8 2.25a3.33 3.33 0 0 1 1.31 2.79 3.87 3.87 0 0 1-.08.72zm-1.62.58c-1.35-.45-2.52-1.3-2.52-2.92 0-.94.72-1.44 1.75-1.53a.91.91 0 0 0-.76-.5 1.79 1.79 0 0 0-1.12.4 9.13 9.13 0 0 0-3.42 6.25 1.84 1.84 0 0 0 1.89 2c1.25 0 3.41-1.53 4.18-3.69zm.27-.94a3 3 0 0 0 0-.63c0-.95-.5-1.71-1.26-1.71-.18 0-.27.18-.27.36a2 2 0 0 0 1.53 1.98z" fill="#3c1604"/><path d="M244.3 19.94c1.21 1.93.58 5 3.56 5.35.22 0 .49.18.49.45a.5.5 0 0 1-.49.5c-4.54 0-3.6-5.35-5.13-5.35-.41 0-.72.4-.95.72a34.54 34.54 0 0 1-3.28 4.18 1.92 1.92 0 0 1-1.21.45 1.48 1.48 0 0 1-1.44-1.08c-.5-1.3-.81-2.75-1.4-4-.13-.32-.36-.81-.77-.81-1.21 0-3.82 6.07-5.89 6.07-.94 0-1.31-.85-1.31-1.67 0-1.44.77-3.06.77-4.27 0-.72 0-1.44-1-1.44a9.86 9.86 0 0 0-2.7 1.44 20.76 20.76 0 0 1-3.82 2 9.26 9.26 0 0 1-3.15.54.51.51 0 0 1-.54-.5.5.5 0 0 1 .5-.49 9 9 0 0 0 3.58-.97c1.85-.85 4.46-3.42 6.39-3.42a2.07 2.07 0 0 1 2.07 2.29c0 1.58-.9 3.24-.9 4.63a.35.35 0 0 0 .32.36c.94 0 4-6.3 6.12-6.3 2.34 0 2 5.8 3.42 5.8.72 0 3-3.55 3.46-4.18a2.53 2.53 0 0 1 1.89-1.17 1.72 1.72 0 0 1 1.41.87z" fill="#3c1604"/><path d="M264.37 18.14a2.29 2.29 0 0 1-.25.92 3.43 3.43 0 0 1-1.12 1c-.58.36-1.22.63-1.8.95-1.08.58-2.07 1.21-3.15 1.75.18 1.71 1.31 2.29 2.88 2.52.23 0 .5.18.5.45a.5.5 0 0 1-.5.5 4.35 4.35 0 0 1-4.18-2.79c-2.83 1.39-5.67 2.79-8.91 2.79a.51.51 0 0 1-.54-.5.49.49 0 0 1 .5-.45 13.05 13.05 0 0 0 4-.67 40.37 40.37 0 0 0 4.9-2.29c0-2.65 2.43-6.17 5.31-6.17a2.22 2.22 0 0 1 2.36 1.99zm-1.93.67a.75.75 0 0 0 .23-.54c0-.54-.54-.72-1-.72-1.94 0-3.19 2.34-3.55 4a29.35 29.35 0 0 0 4.32-2.74z" fill="#3c1604"/><path d="M289.12 21.06c.54 1.89.9 4.18 3.38 4.18a.48.48 0 0 1 .45.45.46.46 0 0 1-.45.5c-5 0-4.19-5.94-5.67-5.94-1.21 0-3.82 6.07-5.94 6.07-.94 0-1.3-.85-1.3-1.67 0-1.48.76-3.1.76-4.45 0-.68-.18-1-.9-1-.94 0-3 1.53-3.91 2-4.1 2.29-9.94 5-14.67 5a.46.46 0 0 1-.45-.5c0-.41.31-.45.63-.45 2.88 0 6.48-1.44 9.13-2.56a54.39 54.39 0 0 0 7.69-4.37 3.16 3.16 0 0 1 1.75-.58 2.06 2.06 0 0 1 2.03 2.32c0 1.4-.9 3.11-.9 4.41 0 .22 0 .54.27.54 1 0 4-6.34 6.12-6.34 1.17-.04 1.67 1.54 1.98 2.39z" fill="#3c1604"/><path d="M308.47 14.06c0 1.13-3.15 1.17-3.92 1.21a1.9 1.9 0 0 1-.18.45 16.5 16.5 0 0 0-1.48 5.8 3.45 3.45 0 0 0 1.08 2.79 4.41 4.41 0 0 0 2.48.94c.23 0 .5.18.5.45a.5.5 0 0 1-.5.5 4.38 4.38 0 0 1-4.59-4.54 14.84 14.84 0 0 1 .36-2.83c-1.62 2.83-6.43 7.38-9.9 7.38a.5.5 0 0 1-.5-.5c0-.27.27-.41.5-.45a9.84 9.84 0 0 0 4.54-2.2 20 20 0 0 0 5.8-7.69c-.72 0-1.4.09-2.12.09-.4 0-1.39-.13-1.39-.72 0-.9 3.33-.81 4.09-.81.23-.59 1-2.93 1.75-2.93.58 0 .67 1 .67 1.4a6.4 6.4 0 0 1-.49 1.48 16.29 16.29 0 0 1 2.56 0c.2-.02.74-.15.74.18z" fill="#3c1604"/><path d="M328.81 22.73c0 .9-1.71.81-2.29.81a4.87 4.87 0 0 1-1.8-.27 6.75 6.75 0 0 1-5.94 4.14c-1.89 0-2.83-1.75-2.83-3.46a5.2 5.2 0 0 1 .13-1.17c-2.88 2-5.53 3.46-9.09 3.46-.41 0-1 .09-1-.5a.49.49 0 0 1 .5-.45 17.5 17.5 0 0 0 2.16-.18 17.38 17.38 0 0 0 7.25-3.42l.94-.85c.85-1.71 3.1-4.59 5.17-4.59 1.26 0 1.8 1.3 1.8 2.43a3.33 3.33 0 0 1 1.31 2.79 5.52 5.52 0 0 1-.09.85 6.35 6.35 0 0 0 2.07.23c.18 0 1.71-.18 1.71.18zm-5.22 0c-.94-.5-2.7-1.8-2.7-3 0-.95.9-1.4 1.71-1.44a.73.73 0 0 0-.67-.5 2.39 2.39 0 0 0-1 .36 7.92 7.92 0 0 0-3.51 6 1.69 1.69 0 0 0 1.8 1.85 4.83 4.83 0 0 0 4.37-3.27zm.18-1.21c0-.63-.54-2-1.31-2-.18 0-.31.23-.31.41 0 .76 1.17 1.3 1.62 1.75zM356.39 12.29c.77-3.06 3.42-12.28 7.2-12.28a1.47 1.47 0 0 1 1.53 1.66 12.54 12.54 0 0 1-1.3 4.54c-.77 1.71-1.8 3.29-2.7 5-1.21 2.21-2.29 4.41-3.64 6.52-.23.36-.45.72-.72 1.08.27 1.75.4 3.46 1.75 4.81a6.4 6.4 0 0 0 4.5 1.71.46.46 0 0 1 .49.45.5.5 0 0 1-.49.5c-4 0-6.44-2.25-7.2-6.08-1.75 2.43-4.63 6.66-8 6.66a2.74 2.74 0 0 1-2.89-2.8c0-2.7 3.38-5.49 6-5.49a3.25 3.25 0 0 1 3 2.16c.58-.76 1.08-1.53 1.62-2.29a25.37 25.37 0 0 1 .85-6.15zm-3.51 9.77a2.1 2.1 0 0 0-2.16-2c-1.84 0-4.32 1.89-4.32 3.87a1.39 1.39 0 0 0 1.49 1.48c2.11-.03 3.73-1.92 4.99-3.35zm6.16-9.4c.81-1.44 1.58-2.93 2.34-4.41s2.25-3.82 2.25-5.4c0-.45-.18-.9-.72-.9-2 0-4.32 7.29-4.86 9a31.52 31.52 0 0 0-1.35 5.76z" fill="#3c1604"/><path d="M377.9 26.06a8.56 8.56 0 0 1-1.85.18c-1.71 0-3.73-1-4.18-2.79-2.88 1.44-5.67 2.79-9 2.79a.5.5 0 0 1-.5-.5.49.49 0 0 1 .5-.45 13.29 13.29 0 0 0 4-.67 36.83 36.83 0 0 0 4.86-2.29 7.14 7.14 0 0 1 3.73-5.8 3.13 3.13 0 0 1 1.58-.36 2.24 2.24 0 0 1 2.47 2 2.29 2.29 0 0 1-.27.94 3.13 3.13 0 0 1-1.12.95c-.59.36-1.17.63-1.76.95-1 .58-2.07 1.21-3.15 1.75a2.82 2.82 0 0 0 2.91 2.53 6.75 6.75 0 0 0 4.21-1.23 10.77 10.77 0 0 1 1-.72c.18 0 .23.09.23.27-.01 1.45-2.58 2.22-3.66 2.45zm-4.63-4.54a29.35 29.35 0 0 0 4.32-2.7.83.83 0 0 0 .23-.54c0-.54-.58-.72-1-.72-1.89-.01-3.28 2.33-3.55 3.95zM417.12 25.29a.49.49 0 0 1 .45.5.48.48 0 0 1-.45.45c-2.29 0-4.86-1.12-4.86-3.78 0-1.84 1.26-3.82 1.26-5.62 0-1.31-1.35-1.71-2.25-2.21a2 2 0 0 1-.18.31 31.31 31.31 0 0 1-7.87 8.46 14 14 0 0 1-4.41 2.38 8.87 8.87 0 0 1-2.65.45c-.5 0-1.67-.09-1.67-.81 0-.41 1.21-.32 1.48-.32a11.41 11.41 0 0 0 5-1.71c2.7-1.53 7.74-6.43 9.18-9.4-1-.54-2.2-1.31-2.2-2.66a2 2 0 0 1 2-1.84 2.22 2.22 0 0 1 2.17 2.3 4.63 4.63 0 0 1-.27 1.58c1.53.67 3.06 1.48 3.06 3.37s-.9 3.56-1.26 5.4a1.52 1.52 0 0 0 0 .45c-.06 1.76 1.96 2.7 3.47 2.7zm-6.5-12.55c0-.14.14-.72.14-1s-.18-.9-.68-.9a.73.73 0 0 0-.72.68c0 .54.85.99 1.26 1.22z" fill="#3c1604"/><path d="M433.61 18.14a2.29 2.29 0 0 1-.27.94 3.43 3.43 0 0 1-1.12 1c-.58.36-1.22.63-1.8.95-1.08.58-2.07 1.21-3.15 1.75.18 1.71 1.31 2.29 2.88 2.52.23 0 .5.18.5.45a.5.5 0 0 1-.5.5 4.35 4.35 0 0 1-4.18-2.79c-2.83 1.39-5.67 2.79-8.91 2.79a.51.51 0 0 1-.54-.5.49.49 0 0 1 .5-.45 13.05 13.05 0 0 0 4-.67 40.37 40.37 0 0 0 4.9-2.29c0-2.65 2.43-6.17 5.31-6.17a2.23 2.23 0 0 1 2.38 1.97zm-1.94.67a.75.75 0 0 0 .23-.54c0-.54-.54-.72-1-.72-1.94 0-3.19 2.34-3.55 4a29.35 29.35 0 0 0 4.33-2.74z" fill="#3c1604"/><path d="M460.12 7.52a6.51 6.51 0 0 1-1.26 3.46c-1.58 2.34-5.35 5-7.74 6.61l-1.8 1.17s-.85 2.88-.94 3.2a11.87 11.87 0 0 0 3.42 2.34 11 11 0 0 0 4.09 1 .49.49 0 0 1 .5.45.5.5 0 0 1-.5.5c-3.73 0-4.9-1.08-7.92-2.92l-.27 1c.67.72 1.21 1.62 1.84 2.43 1.89 2.47 4 6.07 4 9.27 0 2.29-1.21 4.81-3.82 4.81-3.24 0-4.46-3.69-4.54-6.39v-.81a37.3 37.3 0 0 1 1.21-8.91c-.77-.9-1.8-1.93-1.94-3.15-3.6 1.8-10.44 4.63-14.26 4.63a.45.45 0 0 1-.5-.5.48.48 0 0 1 .45-.45 14.25 14.25 0 0 0 3.87-.67c4.41-1.21 10.66-3.78 14.26-6.48 1.39-4 3.55-9.09 6.93-11.92a4.54 4.54 0 0 1 2.58-1.13 2.21 2.21 0 0 1 2.34 2.46zm-13.41 15.61a2.93 2.93 0 0 1 .18-.58 5 5 0 0 0-.58-.45.34.34 0 0 0-.31-.23.16.16 0 0 0-.09 0 4.11 4.11 0 0 0 .8 1.26zm1-3.42a10.13 10.13 0 0 1-1.44.85 3.38 3.38 0 0 1 1 .58 13.41 13.41 0 0 1 .43-1.43zm4.36 16.2c0-3.46-2.65-7.25-4.72-9.9a.4.4 0 0 0 0 .22 43.87 43.87 0 0 0-.95 7.65c0 1.89.81 5.63 3.33 5.63 1.79 0 2.33-2.11 2.33-3.6zm6.3-27.76c0-.54-.14-1.17-.77-1.17-2.34 0-4.81 4.23-5.76 6a37.83 37.83 0 0 0-2 4c2.36-1.59 8.52-5.73 8.52-8.83z" fill="#3c1604"/><path d="M468.12 5.22c.77-.94 2.21-2.34 3.51-2.34s2 1.67 2 2.83c0 3.19-3.06 8.91-5 11.43l-.94 1.21c-.45.63-.85 1.31-1.35 1.89 1 2.47 2.83 5 5.8 5a.49.49 0 0 1 .5.45.5.5 0 0 1-.5.5c-3.19 0-5.49-2-6.79-4.81-2.88 3.24-5.08 4.81-9.54 4.81a.49.49 0 0 1-.45-.5.48.48 0 0 1 .45-.45 10 10 0 0 0 3.82-.63 14.62 14.62 0 0 0 5.22-4.46 14.79 14.79 0 0 1-.73-4.09 19.22 19.22 0 0 1 4-10.84zm2.21 7c.85-1.53 2.07-4.32 2.07-6 0-.76-.31-1.57-1.21-1.57a1.74 1.74 0 0 0-1 .4c-2.75 2-4.59 7.78-4.59 11a11.53 11.53 0 0 0 .31 2.79 58.65 58.65 0 0 0 4.38-6.6z" fill="#3c1604"/><path d="M488.65 18.14a2.29 2.29 0 0 1-.27.94 3.43 3.43 0 0 1-1.12 1c-.58.36-1.22.63-1.8.95-1.08.58-2.07 1.21-3.15 1.75.18 1.71 1.31 2.29 2.88 2.52.23 0 .5.18.5.45a.5.5 0 0 1-.5.5 4.35 4.35 0 0 1-4.18-2.79c-2.83 1.39-5.67 2.79-8.91 2.79a.51.51 0 0 1-.54-.5.49.49 0 0 1 .5-.45 13.05 13.05 0 0 0 4-.67 40.37 40.37 0 0 0 4.9-2.29c0-2.65 2.43-6.17 5.31-6.17a2.22 2.22 0 0 1 2.38 1.97zm-1.93.67a.75.75 0 0 0 .23-.54c0-.54-.54-.72-1-.72-1.94 0-3.19 2.34-3.55 4a29.35 29.35 0 0 0 4.31-2.74z" fill="#3c1604"/><path d="M509.97 14.06c0 1.13-3.15 1.17-3.92 1.21a17.93 17.93 0 0 0-1.66 6.25 3.56 3.56 0 0 0 1 2.79 4.83 4.83 0 0 0 2.57.94c.27 0 .45.18.45.45a.46.46 0 0 1-.45.5 4.38 4.38 0 0 1-4.68-4.54 18.87 18.87 0 0 1 .54-3.55c-4.09 4.09-12.91 8.1-18.72 8.1a.5.5 0 0 1-.5-.5c0-.41.36-.45.67-.45a23.9 23.9 0 0 0 6.61-1.48c3.78-1.26 9.31-3.78 11.61-7.29a3.6 3.6 0 0 0 .58-1.17c-.67 0-1.4.09-2.07.09-.45 0-1.4-.13-1.4-.72 0-.9 3.37-.81 4.09-.81.22-.59 1-2.93 1.75-2.93.54 0 .63.9.63 1.26a4.16 4.16 0 0 1-.45 1.62 16.29 16.29 0 0 1 2.56 0c.25.03.79-.1.79.23z" fill="#3c1604"/><path d="M519.79 17.91a1.55 1.55 0 0 1 .33 1.15 8.25 8.25 0 0 0 1.57 5.22 2.71 2.71 0 0 0 2.25 1c.22 0 .5.18.5.45a.5.5 0 0 1-.5.5c-3.24 0-4.86-3.33-5-6.17a16.06 16.06 0 0 1-5.94 5 10.87 10.87 0 0 1-5 1.13.5.5 0 0 1-.49-.5.49.49 0 0 1 .49-.45 9.05 9.05 0 0 0 4.46-1.08 13.84 13.84 0 0 0 4.66-4.31c.41-.58 1.21-2.21 2-2.21a.82.82 0 0 1 .67.27zm-.85-7c0-.45.4-.63.81-.63.72 0 1.08.95 1.08 1.58 0 .36-.18.67-.54.67-.64-.02-1.36-1.05-1.36-1.64z" fill="#3c1604"/><path d="M550.83 19.13c0 .18-.18.22-.32.22a7.89 7.89 0 0 1-1.49-.22 10.52 10.52 0 0 0-1.7-.07c-4.81 0-8 2.75-10.71 6.48-.31.45-1 1.39-1.66 1.39-1.58 0-1.12-5.17-1.3-6.21 0-.22-.14-.5-.41-.5-.95 0-5.13 6-9.18 6-.32 0-.72 0-.72-.5 0-.27.27-.41.49-.45a6.17 6.17 0 0 0 1.8-.4c2.29-1 4.59-3.56 6.39-5.36a2.54 2.54 0 0 1 1.62-.94c1.35 0 1.3 2.11 1.3 3v2.92c0 .22 0 .63.31.63s1.17-1.26 1.3-1.39a22.35 22.35 0 0 1 2.57-2.53 13.81 13.81 0 0 1 8.73-3.19c.69-.01 2.98.05 2.98 1.12zM586.34 22.5a.5.5 0 0 1-.5.5h-1.53c.27 3.51-4.27 5.8-7.29 5.8-1.26 0-2.79-.49-2.79-2 0-3.29 6.17-4.27 8.55-4.5-1.12-2.29-4.72-3.87-6.21-5.8a27.22 27.22 0 0 1-3.83 3c-1.44.9-4.54 2.79-6.21 2.79-.32 0-1-.13-1-.58s1.08-.5 1.35-.58a17.83 17.83 0 0 0 3.64-1.67 33.3 33.3 0 0 0 5.4-4 3.07 3.07 0 0 1-.32-1.26c0-1.62 1.67-4 3.42-4a1.41 1.41 0 0 1 1.44 1.48c0 1.8-1.76 2.93-2.93 4a51.16 51.16 0 0 0 5.27 4.59 4.43 4.43 0 0 1 1.32 1.79c.45 0 1.44-.09 1.71-.09a.5.5 0 0 1 .51.53zm-3.33.68c-1.84.18-7.56.94-7.56 3.46 0 .94.85 1.26 1.67 1.26 2.38 0 5.89-1.62 5.89-4.72zm-3.89-11.25a.37.37 0 0 0-.41-.36c-.94 0-1.8 1.89-1.8 2.65v.32c.61-.48 2.21-1.8 2.21-2.61z" fill="#3c1604"/><path d="M601.19 21.87a17.39 17.39 0 0 0 2.65.14.5.5 0 0 1 .5.49.5.5 0 0 1-.5.5 17.46 17.46 0 0 1-2.92-.18c-.9 2.38-3.55 4.54-6 4.54-1.89 0-2.88-1.62-2.88-3.33v-.27a3.67 3.67 0 0 1 0-.63 10.07 10.07 0 0 1 .58-1.89 14.24 14.24 0 0 1-6.88 1.75.5.5 0 0 1-.5-.5.5.5 0 0 1 .5-.49c2.92 0 5.49-1.22 8-2.61 1.3-1.89 3-3.29 4.36-3.29s1.8 1.13 1.8 2.25a3.33 3.33 0 0 1 1.3 2.79 3.87 3.87 0 0 1-.01.73zm-1.62.58c-1.35-.45-2.52-1.3-2.52-2.92 0-.94.72-1.44 1.76-1.53a.91.91 0 0 0-.77-.5 1.8 1.8 0 0 0-1.12.4 9.13 9.13 0 0 0-3.42 6.25 1.84 1.84 0 0 0 1.89 2c1.25 0 3.41-1.53 4.18-3.69zm.27-.94v-.63c0-.95-.5-1.71-1.26-1.71-.18 0-.27.18-.27.36a2 2 0 0 0 1.53 1.98z" fill="#3c1604"/><path d="M624.81 17.6a7.18 7.18 0 0 0 1.31 2.46 5.09 5.09 0 0 0 3.29 1.94c.41 0 1.26-.09 1.26.54a.5.5 0 0 1-.5.5 7.33 7.33 0 0 1-4.86-2.07 12.36 12.36 0 0 1-2.07-2.52c-1.3 3.15-3.87 8.73-8 8.73-2.25 0-3.24-1.75-3.24-3.78a14.93 14.93 0 0 1 .67-4c-3 2.21-5.17 3.6-9 3.6a.46.46 0 0 1-.45-.5.46.46 0 0 1 .45-.49 13.24 13.24 0 0 0 1.89-.14c2.74-.45 5.53-2.56 7.69-4.23 1.13-3.24 4.86-15.12 9.41-15.12 1.44 0 2.07 1.12 2.07 2.43 0 4.23-7.38 10.71-10.35 13.14a16.34 16.34 0 0 0-1 5.26c0 1.17.45 2.38 1.8 2.38 1.8 0 3.2-1.58 4.19-2.88 1.39-1.84 1.93-4 2.74-6.07a1.25 1.25 0 0 1 .72-.86.76.76 0 0 1 .31 0c1.13-.03 1.36.87 1.67 1.68zM620.4 5.72c-1.67 2.16-4.09 7.69-5.22 10.39a24.8 24.8 0 0 0 2.56-2.34c1.22-1.35 4-4.5 4.73-6a5.67 5.67 0 0 0 .67-2.25c0-.54-.22-1.12-.81-1.12-.76-.03-1.52.78-1.93 1.32z" fill="#3c1604"/><path d="M646.82 25.29a.49.49 0 0 1 .45.5.48.48 0 0 1-.45.45c-2.29 0-4.86-1.12-4.86-3.78 0-1.84 1.26-3.82 1.26-5.62 0-1.31-1.35-1.67-2.25-2.21a2 2 0 0 1-.18.31c-1.53 2.57-4.82 6.34-7.65 7.51a9.36 9.36 0 0 1-3 .54.51.51 0 0 1-.54-.5.5.5 0 0 1 .5-.49 7.6 7.6 0 0 0 2.25-.36 7.37 7.37 0 0 0 3.06-2 21.26 21.26 0 0 0 4.37-5.67c-1-.54-2.21-1.31-2.21-2.66a2 2 0 0 1 2-1.84 2.22 2.22 0 0 1 2.16 2.29 4.62 4.62 0 0 1-.27 1.58c1.53.67 3.06 1.48 3.06 3.37s-.9 3.56-1.26 5.4a1.53 1.53 0 0 0 0 .45c0 1.79 2.03 2.73 3.56 2.73zm-6.53-12.55c0-.14.14-.72.14-1s-.18-.9-.67-.9a.73.73 0 0 0-.72.68c-.01.54.85.99 1.25 1.22z" fill="#3c1604"/><path d="M661.67 26.06a8.56 8.56 0 0 1-1.84.18c-1.71 0-3.73-1-4.18-2.79-2.88 1.44-5.67 2.79-9 2.79a.5.5 0 0 1-.49-.5.49.49 0 0 1 .49-.45 13.3 13.3 0 0 0 4-.67 36.92 36.92 0 0 0 4.86-2.29 7.14 7.14 0 0 1 3.73-5.8 3.13 3.13 0 0 1 1.58-.36 2.24 2.24 0 0 1 2.47 2 2.29 2.29 0 0 1-.27.94 3.13 3.13 0 0 1-1.17 1c-.58.36-1.17.63-1.75.95-1 .58-2.07 1.21-3.15 1.75a2.82 2.82 0 0 0 2.93 2.52 6.75 6.75 0 0 0 4.24-1.27 10.91 10.91 0 0 1 1-.72c.18 0 .23.09.23.27-.04 1.45-2.6 2.22-3.68 2.45zm-4.63-4.54a29.3 29.3 0 0 0 4.32-2.7.83.83 0 0 0 .22-.54c0-.54-.58-.72-1-.72-1.88-.01-3.28 2.33-3.55 3.95zM698.21 24.57c0 1.13-2.34 1.67-3.24 1.67-4.09 0-4.63-4-5.67-4s-2.38 4.86-6.3 4.86a2.23 2.23 0 0 1-2.47-2.38c0-2.74 3.64-6.43 6.39-6.43a3 3 0 0 1 2.79 1.44 1.28 1.28 0 0 1 1.26.76 7.53 7.53 0 0 1 .36 1.35c.41 1.67 1.76 3.42 3.6 3.42a7.41 7.41 0 0 0 3-1c.19 0 .28.13.28.31zm-14.85 1.26c2 0 3.69-3.6 4.77-5-.36-.58-.76-1.12-1.48-1.12-1.89 0-4.54 3-4.54 4.81a1.19 1.19 0 0 0 1.25 1.31zM733.71 22.5a.5.5 0 0 1-.49.5h-1.53c.27 3.51-4.27 5.8-7.29 5.8-1.26 0-2.79-.49-2.79-2 0-3.29 6.16-4.27 8.55-4.5-1.12-2.29-4.72-3.87-6.21-5.8a27.1 27.1 0 0 1-3.83 3c-1.44.9-4.54 2.79-6.21 2.79-.31 0-1-.13-1-.58s1.08-.5 1.35-.58a17.8 17.8 0 0 0 3.64-1.67 33.25 33.25 0 0 0 5.4-4 3.07 3.07 0 0 1-.31-1.26c0-1.62 1.67-4 3.42-4a1.41 1.41 0 0 1 1.44 1.48c0 1.8-1.75 2.93-2.92 4a51.24 51.24 0 0 0 5.19 4.53 4.42 4.42 0 0 1 1.4 1.89c.45 0 1.44-.09 1.71-.09a.5.5 0 0 1 .48.49zm-3.33.68c-1.84.18-7.56.94-7.56 3.46 0 .94.86 1.26 1.66 1.26 2.39 0 5.9-1.62 5.9-4.72zm-3.87-11.25a.37.37 0 0 0-.4-.36c-.95 0-1.8 1.89-1.8 2.65v.32c.58-.48 2.2-1.8 2.2-2.61z" fill="#3c1604"/><path d="M745.82 25.61c2.21-1.49 3-3.69 4.14-6 .32-.63.9-1.48 1.67-1.48 1.39 0 1 2.52 1.13 3.46a4.35 4.35 0 0 0 3.6 3.6c.36.09 1.21 0 1.21.54a.5.5 0 0 1-.49.5 6.12 6.12 0 0 1-6.18-5.17 7.15 7.15 0 0 1-.81 1.67c-1.31 2.21-3.2 4.72-6 4.72-2.34 0-3.46-2-3.46-4.09a14.28 14.28 0 0 1 .9-3.87 19.24 19.24 0 0 1-5.17 3 8.29 8.29 0 0 1-3.15.54.5.5 0 0 1-.5-.5.49.49 0 0 1 .45-.49 7.93 7.93 0 0 0 2.25-.41 11.94 11.94 0 0 0 2.65-1.26c.81-.45 3.92-2.79 4.63-2.79a.9.9 0 0 1 .9 1c0 1.21-1.67 2.92-1.67 5.13a2.22 2.22 0 0 0 2.32 2.35 2.73 2.73 0 0 0 1.58-.45z" fill="#3c1604"/><path d="M779.25 24.57c0 1.13-2.34 1.67-3.24 1.67-4 0-4.63-4-5.62-4s-2.43 4.86-6.34 4.86a2.26 2.26 0 0 1-2.47-2.43v-.22a6.84 6.84 0 0 1-4.37 1.75c-.36 0-.72 0-.72-.5a.49.49 0 0 1 .5-.45c2 0 3.69-1.44 5.17-2.7 1.08-2 3.46-4.28 5.85-4.28a3.05 3.05 0 0 1 2.75 1.44 1.24 1.24 0 0 1 1.26.76 7.73 7.73 0 0 1 .4 1.35c.5 1.75 1.58 3.42 3.6 3.42a7.71 7.71 0 0 0 3-1c.1.02.23.15.23.33zm-10.13-3.73c-.36-.58-.72-1.12-1.49-1.12-1.84 0-4.54 3-4.54 4.81a1.19 1.19 0 0 0 1.26 1.3c2.07 0 3.77-3.6 4.77-4.99zM818.35 23a7.38 7.38 0 0 1-4.86-2.11 11 11 0 0 1-2.07-2.52c-1.31 3.2-3.83 8.73-8 8.73-2.21 0-3.24-1.71-3.24-3.73a13.26 13.26 0 0 1 .63-3.74c-1.53.9-3.78 2.12-5.58 2.12-.41 0-1.35-.27-1.35-.81s1.17-.27 1.44-.32c1.89-.18 4.46-1.67 6-2.75 1.08-3.42 5.08-15.34 9.49-15.34a2.12 2.12 0 0 1 2.07 2.38c0 4-7.65 11.34-10.53 13.63a15.64 15.64 0 0 0-.86 4.77c0 1.13.5 2.38 1.8 2.38 1.71 0 3.24-1.58 4.23-2.83 1.39-1.8 1.89-4 2.7-6.12a1.15 1.15 0 0 1 1.08-.9c1 0 1.3.95 1.57 1.71a8.61 8.61 0 0 0 1.35 2.43 5.15 5.15 0 0 0 3.29 2c.41 0 1.26-.09 1.26.54a.5.5 0 0 1-.42.48zm-9.77-17.32a30 30 0 0 0-2.88 5.13c-.86 1.89-1.76 3.74-2.52 5.67 1.75-1.62 6.48-6.84 7.42-8.82a5.68 5.68 0 0 0 .67-2.25c0-.54-.22-1.12-.81-1.12-.75.03-1.47.84-1.87 1.38z" fill="#3c1604"/><path d="M830.12 18.18c0 2.12-4.77 3.55-6.3 4.09h-.09v.27c0 1.75 1.3 2.52 2.88 2.7.23 0 .5.18.5.45a.5.5 0 0 1-.5.5 4.22 4.22 0 0 1-4.23-3.1c0-.14 0-.45-.09-.54a22.12 22.12 0 0 1-3.83.4.5.5 0 0 1-.49-.5.5.5 0 0 1 .49-.49 16.36 16.36 0 0 0 3.92-.45c.5-2.43 2.48-5.4 5.26-5.4a2.24 2.24 0 0 1 2.48 2.07zm-1.84 0c0-.45-.5-.58-.9-.58-1.8 0-3.15 2.12-3.51 3.69 1.1-.23 4.43-1.89 4.43-3.15z" fill="#3c1604"/><path d="M847.6 5.22c.76-.94 2.2-2.34 3.51-2.34s2 1.62 2 2.74c0 2.16-1.57 5.35-2.79 7.11a26.75 26.75 0 0 1-4.2 4.78 6.85 6.85 0 0 1-.85.76c.63 3.06 2.88 7 6.43 7a.48.48 0 0 1 .45.45.46.46 0 0 1-.45.5c-4.09 0-6.71-3.29-7.56-7-4.41 3.33-12 7-17.5 7a.5.5 0 0 1-.49-.5.49.49 0 0 1 .49-.45 14.19 14.19 0 0 0 3.87-.63 38.92 38.92 0 0 0 13.36-6.52c0-.67-.18-1.35-.18-2.07a19 19 0 0 1 3.91-10.83zm1.85 6.84c.95-1.49 2.43-4.23 2.43-6 0-.81-.36-1.44-1.21-1.44-1.21 0-2.61 2-3.15 3a17.64 17.64 0 0 0-2.53 8.44 8 8 0 0 0 0 1 22.43 22.43 0 0 0 4.46-5z" fill="#3c1604"/><path d="M868.21 18.14a2.29 2.29 0 0 1-.27.94 3.44 3.44 0 0 1-1.12 1c-.59.36-1.22.63-1.8.95-1.08.58-2.07 1.21-3.15 1.75.18 1.71 1.31 2.29 2.88 2.52.22 0 .49.18.49.45a.5.5 0 0 1-.49.5 4.35 4.35 0 0 1-4.19-2.79c-2.83 1.39-5.67 2.79-8.91 2.79a.51.51 0 0 1-.54-.5.49.49 0 0 1 .5-.45 13.05 13.05 0 0 0 4-.67 40.29 40.29 0 0 0 4.9-2.29c0-2.65 2.43-6.17 5.31-6.17a2.22 2.22 0 0 1 2.39 1.97zm-1.94.67a.75.75 0 0 0 .23-.54c0-.54-.54-.72-1-.72-1.93 0-3.19 2.34-3.55 4a29.29 29.29 0 0 0 4.33-2.74z" fill="#3c1604"/><path d="M886.62 27.9c-1 .9-2.38 2.29-3.83 2.29a1.17 1.17 0 0 1-1.3-1.13c0-1.62 2-2.75 3.42-2.75a3.9 3.9 0 0 1 1.44.27c1.26-1.35 3.74-4.18 3.74-6.07 0-1.58-1.58-2.43-3-2.43a8.91 8.91 0 0 0-4.18 1.39q-2.7 1.55-5.53 2.83c-3.65 1.67-8.6 4-12.64 4a.5.5 0 0 1-.5-.5c0-.41.41-.45.68-.45 2.47 0 6.71-1.57 9-2.56a60.9 60.9 0 0 0 8.5-4.41 9.14 9.14 0 0 1 5-1.71c2.34 0 4.32 1.13 4.32 3.65s-2.52 5.22-4.27 6.84a8.22 8.22 0 0 1 3.06 4.28c.63-.5 4.23-3.37 4.63-3.37a.46.46 0 0 1 .45.5.65.65 0 0 1-.09.31c-.27.09-4 3-4.68 3.51a15.61 15.61 0 0 1 .36 3.56 23.08 23.08 0 0 1-.68 5.58c-.81 3.2-3.29 5.17-6 5.17a3.42 3.42 0 0 1-3.4-3.64c0-5 4.54-8.14 8.19-10.75a7.17 7.17 0 0 0-2.69-4.41zm1 16.15c1.84-1.89 2.07-4.81 2.07-7.87a13.8 13.8 0 0 0-.23-2.75c-3.19 2.12-7 5.17-7 9.54a2.15 2.15 0 0 0 2.25 2.34 4.59 4.59 0 0 0 2.94-1.25zm-2.29-16.6h-.32c-.63 0-2.16.5-2.16 1.26a.25.25 0 0 0 .27.23c.66 0 1.83-1.04 2.24-1.49z" fill="#3c1604"/><path d="M924.55 24.57c0 1.13-2.34 1.67-3.24 1.67-4 0-4.63-4-5.62-4s-2.43 4.86-6.3 4.86a2.31 2.31 0 0 1-2.52-2.47 4.61 4.61 0 0 1 .95-2.61 94.16 94.16 0 0 0-9.5 4.86 30.28 30.28 0 0 1-3.15 2 .53.53 0 0 1-.5-.45c0-.41 1.89-1.58 2.25-1.8a50.18 50.18 0 0 1 4.77-2.75l5.22-2.57a20 20 0 0 0 2.43-1.17c.27-.18.54-.49.77-.67a5.31 5.31 0 0 1 3.19-1.21 3.1 3.1 0 0 1 2.75 1.44 1.34 1.34 0 0 1 1.3.76 11.89 11.89 0 0 1 .36 1.35c.5 1.71 1.62 3.42 3.6 3.42a7.1 7.1 0 0 0 3-1c.15.03.24.12.24.34zm-10.08-3.73c-.32-.58-.72-1.12-1.44-1.12-1.89 0-4.59 3-4.59 4.81a1.19 1.19 0 0 0 1.26 1.3c2.03 0 3.78-3.55 4.77-4.99zM929.46 24.35a1.26 1.26 0 0 1 1.21 1.17 1 1 0 0 1-.95 1 1.09 1.09 0 0 1-1.21-1.21.73.73 0 0 1 .27-.67 1 1 0 0 1 .68-.29z" fill="#3c1604"/></svg>