<svg xmlns="http://www.w3.org/2000/svg" viewBox="0 0 667.5 83.31"><title>p5_s2</title><path d="M41.65 32.89c2.38 3.66 1.1 9.52 6.72 10.12.51.08.85.34.85.85a.87.87 0 0 1-.85.94c-8.59 0-6.89-10.12-9.78-10.12-.76 0-1.36.77-1.79 1.36-1.62 2.21-4.25 6.21-6.21 7.91a3.63 3.63 0 0 1-2.3.85 3 3 0 0 1-2.72-2c-.94-2.55-1.53-5.19-2.64-7.65-.25-.6-.6-1.53-1.36-1.53-2.38 0-7.23 11.48-11.22 11.48-1.79 0-2.47-1.62-2.47-3.15 0-2.8 1.45-5.87 1.45-8.42 0-1.1-.25-2.38-1.53-2.38-2.38 0-5.36 3.06-7 3.06a.9.9 0 0 1-.85-.77c0-1.79 6-4.76 7.91-4.76 2.64 0 4 2 4 4.42 0 2.72-1.7 5.7-1.7 8.33 0 .42 0 1 .51 1 1.79 0 7.74-12 11.56-12 4.42 0 3.83 11.05 6.55 11.05 2.29 0 6.12-10.12 10.12-10.12a3.25 3.25 0 0 1 2.75 1.53z" fill="#fff"/><path d="M76.25 43.6c4.17-2.81 5.7-7 7.82-11.31.59-1.19 1.7-2.81 3.15-2.81 2.64 0 1.87 4.76 2.13 6.55a8.21 8.21 0 0 0 6.8 6.8c.68.17 2.3 0 2.3 1a.94.94 0 0 1-.94.94 11.57 11.57 0 0 1-11.65-9.86 13.51 13.51 0 0 1-1.53 3.15c-2.47 4.17-6 8.93-11.39 8.93-4.42 0-6.55-3.74-6.55-7.74a14.33 14.33 0 0 1 .51-3.83 31 31 0 0 1-9.36 7.29 20.53 20.53 0 0 1-9.52 2.13.87.87 0 0 1-.85-.94.91.91 0 0 1 .85-.85 17.44 17.44 0 0 0 8.5-2c3.23-1.87 7.31-5.1 9.44-8.25.76-1.19 2.63-4.33 4.33-4.33a1.8 1.8 0 0 1 1.7 1.87c0 2.29-3.15 5.53-3.15 9.69 0 2.72 1.61 4.59 4.42 4.59a5.15 5.15 0 0 0 2.99-1.02z" fill="#fff"/><path d="M119.77 29.07a2.94 2.94 0 0 1 .6 2.21c0 3.23.77 7.4 3 9.86 1.45 1.62 2.21 1.62 4.25 1.87.42.08.94.34.94.85a.94.94 0 0 1-.94.94c-6.12 0-9.18-6.29-9.52-11.65a30.33 30.33 0 0 1-11.26 9.56 20.53 20.53 0 0 1-9.52 2.13.94.94 0 0 1-.94-.94.93.93 0 0 1 .94-.85 17.12 17.12 0 0 0 8.42-2 26.17 26.17 0 0 0 9-8.25c.77-1.1 2.3-4.17 3.83-4.17a1.54 1.54 0 0 1 1.2.44zm-1.62-13.26c0-.85.77-1.19 1.53-1.19 1.36 0 2 1.79 2 3 0 .68-.34 1.27-1 1.27-1.17-.02-2.53-1.98-2.53-3.08z" fill="#fff"/><path d="M157.93 21.71c0 2.13-6 2.21-7.4 2.3v.08a3.56 3.56 0 0 1-.34.85c-1.36 3.06-2.81 7.65-2.81 11a6.51 6.51 0 0 0 2 5.27 8.34 8.34 0 0 0 4.68 1.79c.42.08.93.34.93.85a.94.94 0 0 1-.93.94 8.28 8.28 0 0 1-8.67-8.59 28 28 0 0 1 .68-5.36c-3.06 5.36-12.16 13.94-18.7 13.94a.94.94 0 0 1-.94-.94c0-.51.51-.76.94-.85 3.23-.43 6-2.3 8.59-4.25a37.71 37.71 0 0 0 11-14.54c-1.36.08-2.64.17-4 .17-.77 0-2.64-.25-2.64-1.36 0-1.7 6.29-1.53 7.74-1.53.43-1.1 1.87-5.53 3.32-5.53 1.11 0 1.28 1.87 1.28 2.64a12.07 12.07 0 0 1-.94 2.81 30.75 30.75 0 0 1 4.85 0c.34.02 1.36-.24 1.36.31z" fill="#fff"/><path d="M196.35 38.16c0 1.7-3.23 1.53-4.34 1.53a9.19 9.19 0 0 1-3.4-.51A12.75 12.75 0 0 1 177.39 47c-3.57 0-5.36-3.32-5.36-6.55a9.81 9.81 0 0 1 .25-2.21c-5.44 3.74-10.46 6.55-17.17 6.55-.77 0-2 .17-2-.94a.93.93 0 0 1 .93-.85 32.93 32.93 0 0 0 4.08-.34 32.83 32.83 0 0 0 13.69-6.46l1.79-1.62c1.62-3.23 5.87-8.67 9.78-8.67 2.38 0 3.4 2.47 3.4 4.59 1.7 1 2.47 3.4 2.47 5.27a10.43 10.43 0 0 1-.17 1.62 12 12 0 0 0 3.91.42c.47.01 3.36-.33 3.36.35zm-9.86 0c-1.79-.94-5.1-3.4-5.1-5.61 0-1.79 1.7-2.64 3.23-2.72a1.38 1.38 0 0 0-1.28-.94 4.5 4.5 0 0 0-2 .68c-3.49 1.87-6.63 7.4-6.63 11.39a3.19 3.19 0 0 0 3.4 3.48 9.13 9.13 0 0 0 8.38-6.28zm.34-2.29c0-1.19-1-3.83-2.46-3.83-.34 0-.6.42-.6.76 0 1.45 2.21 2.47 3.06 3.32zM265.71 32.89c2.38 3.66 1.1 9.52 6.71 10.12.51.08.85.34.85.85a.87.87 0 0 1-.85.94c-8.59 0-6.89-10.12-9.78-10.12-.77 0-1.36.77-1.79 1.36-1.62 2.21-4.25 6.21-6.21 7.91a3.63 3.63 0 0 1-2.3.85 3 3 0 0 1-2.72-2c-.94-2.55-1.53-5.19-2.64-7.65-.25-.6-.59-1.53-1.36-1.53-2.38 0-7.23 11.48-11.22 11.48-1.79 0-2.47-1.62-2.47-3.15 0-2.8 1.45-5.87 1.45-8.42 0-1.1-.25-2.38-1.53-2.38-2.38 0-5.36 3.06-7 3.06a.9.9 0 0 1-.85-.77c0-1.79 6-4.76 7.91-4.76 2.64 0 4 2 4 4.42 0 2.72-1.7 5.7-1.7 8.33 0 .42 0 1 .51 1 1.79 0 7.74-12 11.56-12 4.42 0 3.83 11.05 6.55 11.05 2.3 0 6.12-10.12 10.12-10.12a3.25 3.25 0 0 1 2.76 1.53z" fill="#fff"/><path d="M301.25 36.55a10.21 10.21 0 0 0 1.1 2.64c1.28 2.21 3.06 3.83 5.7 3.83a.93.93 0 0 1 .94.85.94.94 0 0 1-.94.94c-7.57 0-8.67-7.48-10.63-7.48s-4.51 9.18-12 9.18a4.22 4.22 0 0 1-4.59-4.51v-.51c-3 2.21-4.85 3.32-8.67 3.32a.85.85 0 0 1-.94-.94.91.91 0 0 1 .85-.85c3.83 0 7.06-2.72 9.86-5.1 2-3.66 6.46-8.08 11-8.08a6.09 6.09 0 0 1 5.27 2.72c2.44-.26 2.53 2.29 3.05 3.99zm-6-2c-.68-1.1-1.45-2.12-2.81-2.12-3.57 0-8.67 5.7-8.67 9.1a2.32 2.32 0 0 0 2.47 2.47c3.78.03 6.92-6.77 9.01-9.41z" fill="#fff"/><path d="M330.31 29.07a2.94 2.94 0 0 1 .59 2.21c0 3.23.77 7.4 3 9.86 1.44 1.62 2.21 1.62 4.25 1.87.43.08.94.34.94.85a.94.94 0 0 1-.94.94c-6.12 0-9.18-6.29-9.52-11.65a30.34 30.34 0 0 1-11.24 9.56 20.53 20.53 0 0 1-9.52 2.13.94.94 0 0 1-.94-.94.93.93 0 0 1 .94-.85 17.12 17.12 0 0 0 8.42-2 26.17 26.17 0 0 0 9-8.25c.77-1.1 2.29-4.17 3.83-4.17a1.54 1.54 0 0 1 1.19.44zm-1.62-13.26c0-.85.76-1.19 1.53-1.19 1.36 0 2 1.79 2 3 0 .68-.34 1.27-1 1.27-1.17-.02-2.53-1.98-2.53-3.08z" fill="#fff"/><path d="M378.42 33.15c1.79 1.61 3.06 3.31 3.06 5.78 0 8.84-11.56 11.31-18.45 11.31-.68 0-2.38-.34-2.38-1.28s1.36-1.1 2-1.1a29.34 29.34 0 0 0 7.23-.68c3.4-.85 5.53-1.7 7.57-4.51a6.18 6.18 0 0 0 1.1-3.66c0-4.59-8.33-9.18-11.31-12.41a146.76 146.76 0 0 1-15.81 13.26c-4.76 3.32-7.57 4.93-13.52 4.93a.93.93 0 0 1-.94-.85.94.94 0 0 1 .94-.94 19.14 19.14 0 0 0 9.27-2.89 24.78 24.78 0 0 0 2.72-1.79 129.78 129.78 0 0 0 12.5-10.12l3.57-3.4a5.79 5.79 0 0 1-.68-2.64c0-3.15 3.15-7.65 6.55-7.65a2.57 2.57 0 0 1 2.64 2.72c0 2.81-3.32 6-5.44 7.65-.08 0-.08.08-.17.08 3 2.92 6.38 5.47 9.55 8.19zm-10.54-10.88v.25l.08.6c1-.94 4.17-3.83 4.17-5.27a.71.71 0 0 0-.77-.77c-1.78 0-3.48 3.74-3.48 5.19zM455.34 38.71a14 14 0 0 1-9.18-4 20.85 20.85 0 0 1-3.91-4.76c-2.47 6-7.23 16.49-15 16.49-4.17 0-6.12-3.23-6.12-7.06a25 25 0 0 1 1.19-7.06c-2.89 1.7-7.14 4-10.54 4-.76 0-2.55-.51-2.55-1.53 0-.76 2.21-.51 2.72-.59 3.57-.34 8.42-3.15 11.39-5.19 2-6.46 9.61-29 17.94-29 2.64 0 3.91 2.13 3.91 4.51 0 7.57-14.45 21.42-19.89 25.76a29.55 29.55 0 0 0-1.62 9c0 2.13.93 4.5 3.4 4.5 3.23 0 6.12-3 8-5.36 2.63-3.4 3.57-7.57 5.1-11.56a2.17 2.17 0 0 1 2-1.7c1.87 0 2.46 1.79 3 3.23a16.25 16.25 0 0 0 2.55 4.59 9.73 9.73 0 0 0 6.21 3.74c.77.08 2.38-.17 2.38 1a.94.94 0 0 1-.98.99zM436.89 5.98a56.78 56.78 0 0 0-5.44 9.69c-1.62 3.57-3.32 7.06-4.76 10.71v.09c3.32-3.06 12.24-12.92 14-16.66a10.71 10.71 0 0 0 1.28-4.25c0-1-.43-2.12-1.53-2.12-1.42-.04-2.78 1.49-3.54 2.51z" fill="#fff"/><path d="M477.61 29.58c0 4-9 6.72-11.9 7.74l-.17.08v.51c0 3.32 2.47 4.76 5.44 5.1.43.08.94.34.94.85a.94.94 0 0 1-.94.94 8 8 0 0 1-8-5.87c-.08-.25 0-.85-.17-1a41.75 41.75 0 0 1-7.23.77.94.94 0 0 1-.94-.94.94.94 0 0 1 .94-.94 30.88 30.88 0 0 0 7.4-.85c.93-4.59 4.67-10.2 9.95-10.2 2.21-.06 4.68 1.26 4.68 3.81zm-3.49-.08c0-.85-.93-1.1-1.7-1.1-3.4 0-6 4-6.63 7 2.04-.47 8.33-3.53 8.33-5.91z" fill="#fff"/><path d="M510.59 5.1c1.45-1.79 4.17-4.42 6.63-4.42 2.63 0 3.74 3.06 3.74 5.19 0 4.08-3 10.12-5.27 13.43a50.55 50.55 0 0 1-8 9 13 13 0 0 1-1.62 1.44c1.19 5.78 5.44 13.26 12.16 13.26a.91.91 0 0 1 .85.85.87.87 0 0 1-.85.94c-7.74 0-12.67-6.21-14.28-13.18-8.33 6.29-22.7 13.18-33.07 13.18a.94.94 0 0 1-.93-.94.93.93 0 0 1 .93-.85 26.82 26.82 0 0 0 7.31-1.19c8.5-2.38 18.36-6.72 25.25-12.33-.08-1.27-.34-2.55-.34-3.91.01-6.86 3.24-15.12 7.49-20.47zm3.49 12.92c1.79-2.81 4.59-8 4.59-11.31 0-1.53-.68-2.72-2.3-2.72-2.29 0-4.93 3.83-6 5.61-2.72 4.93-4.76 10.29-4.76 16a15.22 15.22 0 0 0 .08 2 42.44 42.44 0 0 0 8.39-9.58z" fill="#fff"/><path d="M549.52 29.49a4.35 4.35 0 0 1-.51 1.79 6.5 6.5 0 0 1-2.13 1.87c-1.1.68-2.29 1.19-3.4 1.79-2 1.1-3.91 2.29-6 3.31.34 3.23 2.46 4.34 5.44 4.76.42.08.94.34.94.85a.94.94 0 0 1-.94.94 8.22 8.22 0 0 1-7.91-5.27c-5.36 2.64-10.71 5.27-16.83 5.27a1 1 0 0 1-1-.94.93.93 0 0 1 .94-.85 24.67 24.67 0 0 0 7.48-1.28 76.52 76.52 0 0 0 9.27-4.33c0-5 4.59-11.65 10-11.65 2.18-.04 4.65 1.28 4.65 3.74zm-3.66 1.27a1.41 1.41 0 0 0 .42-1c0-1-1-1.36-1.87-1.36-3.66 0-6 4.42-6.72 7.48 1.29-.61 7.41-4.17 8.17-5.11z" fill="#fff"/><path d="M584.25 47.94c-1.87 1.7-4.5 4.34-7.22 4.34a2.21 2.21 0 0 1-2.47-2.21c0-3.06 3.83-5.19 6.46-5.19a7.36 7.36 0 0 1 2.72.51c2.38-2.55 7.06-7.91 7.06-11.48 0-3-3-4.59-5.7-4.59s-5.53 1.28-7.91 2.64q-5.1 2.93-10.46 5.36c-6.89 3.15-16.24 7.48-23.89 7.48a.94.94 0 0 1-.94-.94c0-.76.76-.85 1.28-.85 4.67-.08 12.67-3 17.09-4.85a115.07 115.07 0 0 0 16.07-8.33c3.06-1.87 5.78-3.23 9.44-3.23 4.42 0 8.16 2.13 8.16 6.89s-4.76 9.86-8.08 12.92a15.53 15.53 0 0 1 5.78 8.08c1.19-.94 8-6.38 8.76-6.38a.87.87 0 0 1 .85.94 1.23 1.23 0 0 1-.17.6c-.51.17-7.57 5.7-8.84 6.63a29.55 29.55 0 0 1 .68 6.72 43.67 43.67 0 0 1-1.27 10.54c-1.53 6-6.21 9.78-11.31 9.78a6.46 6.46 0 0 1-6.54-6.72c0-9.44 8.59-15.39 15.47-20.32-.82-3.15-2.1-6.47-5.02-8.34zm2 30.52c3.49-3.57 3.91-9.1 3.91-14.88a26.16 26.16 0 0 0-.42-5.19c-6 4-13.18 9.78-13.18 18 0 2.55 1.53 4.42 4.25 4.42a8.67 8.67 0 0 0 5.44-2.35zm-4.33-31.37h-.59c-1.19 0-4.08.94-4.08 2.38a.48.48 0 0 0 .51.42c1.17.01 3.38-1.95 4.14-2.8z" fill="#fff"/><path d="M655.94 41.65c0 2.13-4.42 3.15-6.12 3.15-7.57 0-8.75-7.48-10.62-7.48-2 0-4.59 9.18-11.9 9.18-2.89 0-4.76-1.7-4.76-4.68a8.73 8.73 0 0 1 1.79-4.93c-6 2.89-12.24 5.61-17.94 9.18-.85.51-5.36 3.83-6 3.83a1 1 0 0 1-.93-.85c0-.76 3.57-3 4.25-3.4a94.94 94.94 0 0 1 9-5.19l9.86-4.85a38.25 38.25 0 0 0 4.59-2.21c.51-.34 1-.94 1.45-1.27a10 10 0 0 1 6-2.3 5.86 5.86 0 0 1 5.19 2.72 2.53 2.53 0 0 1 2.46 1.45 22.34 22.34 0 0 1 .68 2.55c.93 3.23 3.06 6.46 6.8 6.46 2.72 0 5.36-2 5.61-2s.59.21.59.64zm-19-7.06c-.59-1.1-1.36-2.12-2.72-2.12-3.57 0-8.67 5.7-8.67 9.1a2.25 2.25 0 0 0 2.38 2.47c3.78-.01 7.1-6.73 8.97-9.45zM665.25 41.22a2.39 2.39 0 0 1 2.29 2.21 1.8 1.8 0 0 1-1.79 1.87 2.05 2.05 0 0 1-2.29-2.29 1.37 1.37 0 0 1 .51-1.28 1.88 1.88 0 0 1 1.28-.51z" fill="#fff"/></svg>