<svg xmlns="http://www.w3.org/2000/svg" viewBox="0 0 50.73 50.73"><title>p5_s4</title><path fill="#4e3629" d="M0 0h50.73v50.73H0z"/><path d="M38.43 19.2a.66.66 0 0 0-.66-.66h-2.24a10.19 10.19 0 0 0-20.33 0h-2.24a.66.66 0 0 0-.66.66 13.08 13.08 0 0 0 12.4 13.05v5.73h-5.5a1.87 1.87 0 1 0 0 3.74h12.32a1.87 1.87 0 1 0 0-3.74h-5.5v-5.73A13.08 13.08 0 0 0 38.43 19.2zm-6.36 20.65a.55.55 0 0 1-.55.55H19.2a.55.55 0 1 1 0-1.1h12.32a.55.55 0 0 1 .55.55zm-6.71-29.52a8.87 8.87 0 1 1-8.87 8.87 8.88 8.88 0 0 1 8.87-8.87zm-11.73 9.53h1.56a10.19 10.19 0 0 0 20.33 0h1.56a11.75 11.75 0 0 1-23.46 0z" fill="#fff"/><path d="M20.75 20.76a.66.66 0 0 0 .47-.19l5.18-5.18a.66.66 0 0 0-.93-.93l-5.17 5.17a.66.66 0 0 0 .47 1.13zM28.58 16.98a.66.66 0 0 0 .47-.19l.87-.87a.66.66 0 0 0-.93-.93l-.87.87a.66.66 0 0 0 .47 1.13zM20.81 24.09a.66.66 0 0 0 .93 0l5.42-5.42a.66.66 0 0 0-.93-.93l-5.42 5.42a.66.66 0 0 0 0 .93z" fill="#fff"/></svg>