<svg xmlns="http://www.w3.org/2000/svg" viewBox="0 0 444.56 53.89"><title>p5_s5</title><path d="M11.16 23.65a21.38 21.38 0 0 0 3.24.17.61.61 0 0 1 .6.6.61.61 0 0 1-.6.6 21.29 21.29 0 0 1-3.57-.22c-1.1 2.91-4.34 5.55-7.31 5.55-2.31 0-3.52-2-3.52-4.07 0-2.47 1.43-4.89 3-6.71 1-1.21 2.8-3 4.45-3s2.2 1.37 2.2 2.75a4.07 4.07 0 0 1 1.59 3.41 4.72 4.72 0 0 1-.08.92zm-2 .71c-1.65-.55-3.08-1.59-3.08-3.57 0-1.15.88-1.76 2.14-1.87a1.12 1.12 0 0 0-.94-.6 2.19 2.19 0 0 0-1.37.5c-2.09 1.48-4.18 5.06-4.18 7.64a2.25 2.25 0 0 0 2.31 2.42c1.57-.01 4.21-1.88 5.14-4.51zm.33-1.15c0-.22.06-.5.06-.77 0-1.15-.6-2.09-1.54-2.09-.22 0-.33.22-.33.44a2.48 2.48 0 0 0 1.83 2.45z" fill="#fff"/><path d="M29.36 3.3C30.3 2.15 32.05.44 33.65.44s2.42 2 2.42 3.35c0 2.64-1.59 5.66-2.91 7.86a31.8 31.8 0 0 1-6.71 7.64c.93 3.74 3.35 8.52 7.86 8.52a.59.59 0 0 1 .55.55.57.57 0 0 1-.55.6c-4.95 0-8.14-4-9.24-8.47C21.83 23.02 18.64 25 14.35 25a.61.61 0 0 1-.6-.6.61.61 0 0 1 .6-.6 11.3 11.3 0 0 0 4.45-.88 19.37 19.37 0 0 0 5.94-3.85c-.05-.83-.22-1.65-.22-2.53A23.26 23.26 0 0 1 29.36 3.3zm2.25 8.36c1.15-1.81 3-5.17 3-7.31 0-.93-.44-1.76-1.48-1.76a2.56 2.56 0 0 0-1.27.5C28.51 5.4 26.2 12.6 26.2 16.56a9.8 9.8 0 0 0 .05 1.27 31.89 31.89 0 0 0 5.37-6.17z" fill="#fff"/><path d="M59.17 22.82a23.88 23.88 0 0 0 3.08 4 3.06 3.06 0 0 0 2 1c.27.06.6.22.6.55a.61.61 0 0 1-.6.6c-2.75 0-4.18-2.64-5.66-4.56-.77-1-1.27-2.25-2.75-2.25-2.64 0-5.22 7.31-8.8 7.31-2.36 0-3.19-3.3-3.46-5.11-2.2 2-6.27 4.67-9.29 4.67a.61.61 0 0 1-.6-.6.61.61 0 0 1 .6-.6 5.82 5.82 0 0 0 2.15-.49 26.37 26.37 0 0 0 7-4.73v-.44a34.39 34.39 0 0 1 3.68-14.79c.77-1.43 2.58-4 4.45-4 1.65 0 1.87 2.25 1.87 3.46 0 4.51-2.14 8.8-4.78 12.32a28.27 28.27 0 0 1-3 3.3 5.12 5.12 0 0 0-.55.55c-.05 1.1.38 4.62 1.92 4.62 2.42 0 5.22-7.15 8.91-7.15 1.47.04 2.52 1.3 3.23 2.34zM48.34 8.58a28.57 28.57 0 0 0-3.24 12.37c2.75-3.08 6.93-9.18 6.93-13.53 0-.55-.11-1.81-.93-1.81-1.11 0-2.32 2.15-2.76 2.97z" fill="#fff"/><path d="M82.93 23.65a6.61 6.61 0 0 0 .71 1.7 4.23 4.23 0 0 0 3.68 2.47.6.6 0 0 1 .6.55.61.61 0 0 1-.6.6c-4.89 0-5.61-4.84-6.87-4.84s-2.91 5.94-7.75 5.94a2.73 2.73 0 0 1-3-2.91v-.33c-1.92 1.43-3.13 2.14-5.61 2.14a.55.55 0 0 1-.6-.6.59.59 0 0 1 .55-.55c2.47 0 4.56-1.76 6.38-3.3 1.32-2.36 4.18-5.22 7.09-5.22a3.94 3.94 0 0 1 3.41 1.76c1.63-.16 1.68 1.49 2.01 2.59zm-3.9-1.27c-.44-.71-.94-1.37-1.81-1.37-2.31 0-5.61 3.68-5.61 5.88a1.5 1.5 0 0 0 1.59 1.59c2.48.01 4.51-4.39 5.83-6.09z" fill="#fff"/><path d="M120.22 20.3c0 .22-.22.27-.38.27a9.63 9.63 0 0 1-1.81-.27 12.92 12.92 0 0 0-2.09-.11c-5.88 0-9.79 3.35-13.09 7.92-.38.55-1.26 1.71-2 1.71-1.92 0-1.37-6.32-1.59-7.59-.06-.28-.17-.6-.5-.6-1.15 0-6.27 7.37-11.22 7.37-.39 0-.88-.05-.88-.6 0-.33.33-.5.6-.55a7.52 7.52 0 0 0 2.2-.49c2.8-1.27 5.61-4.34 7.81-6.54a3.1 3.1 0 0 1 2-1.15c1.65 0 1.59 2.58 1.59 3.68s.05 2.36.05 3.57c0 .27 0 .77.39.77.22 0 1.43-1.54 1.59-1.7a27.19 27.19 0 0 1 3-3.13 16.87 16.87 0 0 1 10.67-3.9c.86-.04 3.66.02 3.66 1.34zM160.43 26.95c0 1.38-2.86 2-4 2-5 0-5.66-4.84-6.93-4.84s-2.91 5.94-7.7 5.94a2.72 2.72 0 0 1-3-2.91c0-3.35 4.45-7.86 7.81-7.86a3.71 3.71 0 0 1 3.41 1.76 1.56 1.56 0 0 1 1.54.94 9.17 9.17 0 0 1 .44 1.65c.5 2 2.14 4.18 4.4 4.18 1.81 0 3.46-1.26 3.68-1.26s.35.18.35.4zm-18.15 1.54c2.47 0 4.51-4.4 5.83-6.1-.44-.71-.94-1.37-1.81-1.37-2.31 0-5.55 3.68-5.55 5.88a1.46 1.46 0 0 0 1.53 1.59zM203.78 24.42a.61.61 0 0 1-.6.6c-.22 0-1.1 0-1.87.06.33 4.29-5.22 7.09-8.91 7.09-1.54 0-3.41-.6-3.41-2.48 0-4 7.53-5.22 10.45-5.5v-.06c-1.37-2.8-5.77-4.73-7.59-7.09a33.21 33.21 0 0 1-4.67 3.63c-1.76 1.1-5.55 3.41-7.59 3.41-.38 0-1.26-.17-1.26-.71s1.32-.6 1.65-.72a21.72 21.72 0 0 0 4.45-2 40.68 40.68 0 0 0 6.6-4.84 3.74 3.74 0 0 1-.38-1.54c0-2 2-4.89 4.18-4.89a1.72 1.72 0 0 1 1.76 1.81c0 2.2-2.14 3.57-3.57 4.84h-.05a62.64 62.64 0 0 0 6.43 5.61 5.4 5.4 0 0 1 1.7 2.31c.55-.06 1.76-.11 2.09-.11a.61.61 0 0 1 .59.58zm-4 .82c-2.25.22-9.24 1.15-9.24 4.23 0 1.15 1 1.54 2 1.54 2.92.01 7.24-1.97 7.24-5.77zm-4.73-13.75a.45.45 0 0 0-.5-.44c-1.15 0-2.2 2.31-2.2 3.24v.38c.69-.59 2.67-2.18 2.67-3.17z" fill="#fff"/><path d="M218.62 28.24c2.69-1.81 3.68-4.51 5.06-7.31.38-.77 1.1-1.81 2-1.81 1.7 0 1.21 3.08 1.37 4.23a5.31 5.31 0 0 0 4.4 4.4c.44.11 1.48 0 1.48.66a.61.61 0 0 1-.6.6 7.48 7.48 0 0 1-7.53-6.38 8.71 8.71 0 0 1-1 2c-1.59 2.69-3.9 5.77-7.37 5.77-2.86 0-4.23-2.42-4.23-5a17.42 17.42 0 0 1 1.1-4.73 23.52 23.52 0 0 1-6.32 3.68 10.13 10.13 0 0 1-3.85.66.61.61 0 0 1-.6-.6.6.6 0 0 1 .55-.6 9.67 9.67 0 0 0 2.75-.5 14.59 14.59 0 0 0 3.24-1.54c1-.55 4.78-3.41 5.66-3.41a1.1 1.1 0 0 1 1.1 1.21c0 1.48-2 3.57-2 6.27a2.71 2.71 0 0 0 2.86 3 3.33 3.33 0 0 0 1.93-.6z" fill="#fff"/><path d="M259.48 26.95c0 1.38-2.86 2-4 2-4.95 0-5.66-4.84-6.87-4.84-1.37 0-3 5.94-7.75 5.94a2.76 2.76 0 0 1-3-3v-.27c-1.76 1.26-3.08 2.14-5.33 2.14-.44 0-.88-.05-.88-.6a.6.6 0 0 1 .6-.55c2.47 0 4.51-1.76 6.32-3.3 1.32-2.42 4.23-5.22 7.15-5.22a3.73 3.73 0 0 1 3.35 1.76 1.51 1.51 0 0 1 1.54.94 9.42 9.42 0 0 1 .5 1.65c.6 2.14 1.92 4.18 4.4 4.18 1.7 0 3.41-1.26 3.63-1.26s.34.21.34.43zm-12.32-4.56c-.44-.71-.88-1.37-1.81-1.37-2.25 0-5.55 3.68-5.55 5.88a1.46 1.46 0 0 0 1.54 1.59c2.44 0 4.5-4.4 5.82-6.1zM307.27 25.02a9 9 0 0 1-5.94-2.58 13.49 13.49 0 0 1-2.53-3.08c-1.59 3.9-4.67 10.67-9.73 10.67-2.69 0-4-2.09-4-4.56a16.21 16.21 0 0 1 .77-4.56c-1.87 1.1-4.62 2.58-6.82 2.58-.49 0-1.65-.33-1.65-1 0-.5 1.43-.33 1.76-.39 2.31-.22 5.44-2 7.37-3.35C287.82 14.57 292.71 0 298.1 0c1.71 0 2.53 1.38 2.53 2.91 0 4.89-9.35 13.86-12.87 16.66a19.12 19.12 0 0 0-1 5.83c0 1.37.6 2.91 2.2 2.91 2.09 0 4-1.92 5.17-3.46 1.71-2.2 2.31-4.89 3.3-7.48a1.41 1.41 0 0 1 1.35-1.13c1.21 0 1.59 1.15 1.92 2.09a10.52 10.52 0 0 0 1.65 3 6.29 6.29 0 0 0 4 2.42c.5.06 1.54-.11 1.54.66a.61.61 0 0 1-.62.61zM295.34 3.85a36.74 36.74 0 0 0-3.52 6.27c-1 2.31-2.14 4.56-3.08 6.93v.05c2.15-2 7.92-8.36 9.07-10.78a6.93 6.93 0 0 0 .83-2.75c0-.66-.27-1.37-1-1.37-.92.04-1.8 1.04-2.3 1.65z" fill="#fff"/><path d="M321.69 19.14c0 2.58-5.83 4.34-7.7 5l-.11.06v.33c0 2.14 1.59 3.08 3.52 3.3.27.06.6.22.6.55a.61.61 0 0 1-.6.6 5.16 5.16 0 0 1-5.17-3.79c-.06-.17 0-.55-.11-.66a27 27 0 0 1-4.67.49.61.61 0 0 1-.6-.6.61.61 0 0 1 .6-.6 20 20 0 0 0 4.79-.55c.6-3 3-6.6 6.43-6.6 1.42 0 3.02.82 3.02 2.47zm-2.25-.05c0-.55-.6-.71-1.1-.71-2.2 0-3.85 2.58-4.29 4.51 1.31-.28 5.38-2.26 5.38-3.8z" fill="#fff"/><path d="M343.02 3.3c.93-1.15 2.69-2.86 4.29-2.86s2.42 2 2.42 3.35c0 2.64-1.92 6.54-3.41 8.69a32.64 32.64 0 0 1-5.17 5.83 8.39 8.39 0 0 1-1 .94c.77 3.74 3.52 8.58 7.86 8.58a.59.59 0 0 1 .55.55.56.56 0 0 1-.55.6c-5 0-8.19-4-9.24-8.52-5.39 4.07-14.68 8.52-21.39 8.52a.61.61 0 0 1-.6-.6.6.6 0 0 1 .6-.55 17.33 17.33 0 0 0 4.73-.77c5.5-1.54 11.88-4.34 16.33-8-.06-.83-.22-1.65-.22-2.53a23.26 23.26 0 0 1 4.8-13.23zm2.25 8.36c1.15-1.81 3-5.17 3-7.31 0-1-.44-1.76-1.49-1.76-1.48 0-3.19 2.47-3.85 3.63a21.56 21.56 0 0 0-3.08 10.34 9.63 9.63 0 0 0 .06 1.27 27.48 27.48 0 0 0 5.37-6.17z" fill="#fff"/><path d="M368.21 19.09a2.79 2.79 0 0 1-.33 1.15 4.18 4.18 0 0 1-1.37 1.21c-.71.44-1.49.77-2.2 1.15-1.32.71-2.53 1.48-3.85 2.14.22 2.09 1.6 2.8 3.52 3.08.28.06.61.22.61.55a.61.61 0 0 1-.61.6 5.32 5.32 0 0 1-5.11-3.41c-3.46 1.7-6.93 3.41-10.89 3.41a.62.62 0 0 1-.66-.6.6.6 0 0 1 .6-.55 15.94 15.94 0 0 0 4.84-.82 49.43 49.43 0 0 0 6-2.8c0-3.24 3-7.53 6.49-7.53 1.37 0 2.96.82 2.96 2.42zm-2.36.82a.91.91 0 0 0 .27-.66c0-.66-.66-.88-1.21-.88-2.37 0-3.9 2.86-4.34 4.84a35.82 35.82 0 0 0 5.28-3.3z" fill="#fff"/><path d="M390.71 31.02c-1.21 1.1-2.91 2.8-4.67 2.8a1.43 1.43 0 0 1-1.6-1.43c0-2 2.47-3.35 4.18-3.35a4.76 4.76 0 0 1 1.76.33c1.54-1.65 4.56-5.11 4.56-7.42 0-1.92-1.92-3-3.68-3a10.88 10.88 0 0 0-5.11 1.7q-3.3 1.9-6.76 3.46c-4.46 2-10.5 4.84-15.45 4.84a.61.61 0 0 1-.61-.6c0-.5.5-.55.83-.55 3-.05 8.19-1.92 11.05-3.13a74.43 74.43 0 0 0 10.39-5.39 11.17 11.17 0 0 1 6.1-2.09c2.86 0 5.28 1.37 5.28 4.45s-3.08 6.38-5.22 8.36a10.05 10.05 0 0 1 3.74 5.22c.77-.6 5.17-4.12 5.66-4.12a.57.57 0 0 1 .55.6.8.8 0 0 1-.11.38c-.33.11-4.89 3.68-5.72 4.29a19.09 19.09 0 0 1 .44 4.34 28.23 28.23 0 0 1-.83 6.82c-1 3.9-4 6.32-7.31 6.32a4.18 4.18 0 0 1-4.23-4.34c0-6.1 5.55-10 10-13.14-.55-2-1.37-4.13-3.24-5.35zm1.26 19.74c2.25-2.31 2.53-5.88 2.53-9.62a16.94 16.94 0 0 0-.28-3.35c-3.9 2.58-8.52 6.32-8.52 11.66a2.63 2.63 0 0 0 2.75 2.86 5.61 5.61 0 0 0 3.52-1.55zm-2.8-20.29h-.39c-.77 0-2.64.6-2.64 1.54a.31.31 0 0 0 .33.27c.77-.04 2.2-1.26 2.7-1.81z" fill="#fff"/><path d="M437.07 26.95c0 1.38-2.86 2-4 2-4.89 0-5.66-4.84-6.87-4.84s-3 5.94-7.7 5.94a2.82 2.82 0 0 1-3.08-3 5.65 5.65 0 0 1 1.16-3.19 115.38 115.38 0 0 0-11.6 5.94 37 37 0 0 1-3.85 2.47.65.65 0 0 1-.61-.55c0-.5 2.31-1.92 2.75-2.2a61.48 61.48 0 0 1 5.83-3.35l6.38-3.13a24.67 24.67 0 0 0 3-1.43c.33-.22.66-.6.94-.83a6.49 6.49 0 0 1 3.9-1.48 3.79 3.79 0 0 1 3.35 1.76 1.63 1.63 0 0 1 1.59.94 14.13 14.13 0 0 1 .44 1.65c.61 2.09 2 4.18 4.4 4.18a8.69 8.69 0 0 0 3.63-1.26c.23-.01.34.1.34.38zm-12.29-4.56c-.38-.71-.88-1.37-1.76-1.37-2.31 0-5.61 3.68-5.61 5.88a1.46 1.46 0 0 0 1.54 1.59c2.45 0 4.59-4.35 5.83-6.1zM443.07 26.67a1.54 1.54 0 0 1 1.49 1.43 1.16 1.16 0 0 1-1.16 1.21 1.33 1.33 0 0 1-1.48-1.48.89.89 0 0 1 .33-.82 1.21 1.21 0 0 1 .82-.34z" fill="#fff"/></svg>