<svg xmlns="http://www.w3.org/2000/svg" viewBox="0 0 175.03 24.8"><defs><style>.a{fill:#fff}</style></defs><title>p5_s1</title><path class="a" d="M15.47 12.08a.49.49 0 0 1 .52.48c0 .52-.48.76-1.44.92.36 6.12.92 9.24.92 9.56s-.28.44-.6.44c-1 0-1-2.28-1.12-3.48l-.6-6.24c-2 .4-8.24 1.32-8.24 1.48-1.64 3.68-2.36 5.08-3.12 7-.24.56-.48 1.32-1.32 1.32-.32 0-.48-.2-.48-.52s2.12-5 3.4-7.72c-.36 0-.64.08-.88.08-.84 0-1.16-.32-1.16-.64 0-.76 1.2-.56 2.68-.88 2.56-5.68 5-11.72 6.12-13A2 2 0 0 1 11.71 0c1.8 0 1.72 3.32 1.88 4.8.24 2.44.48 4 .84 7.4l.6-.08a1.79 1.79 0 0 1 .44-.04zm-2.44.36c-.32-4.36-.68-7.08-1-9.68-.08-.64-.28-1-.6-1-.72 0-3.16 5.8-5.84 11.92 2.88-.44 4.44-.68 6.64-1.08zm17.77 5.89a3.82 3.82 0 0 0 3.16 3.2c.32.08 1.12 0 1.12.48a.44.44 0 0 1-.44.44 5.44 5.44 0 0 1-5.48-4.64 7.27 7.27 0 0 1-.69 1.52c-1.12 2-2.84 4.2-5.32 4.2-2.16 0-3.12-1.72-3.12-3.64 0-1 .6-5.12 1.92-5.12a.66.66 0 0 1 .72.68c0 .92-1.32 2.56-1.32 4.4 0 1.36.48 2.48 2 2.48a2.36 2.36 0 0 0 1.36-.4c2-1.32 2.64-3.32 3.64-5.32.24-.52.8-1.32 1.48-1.32 1.17-.01.85 2.27.97 3.04z"/><path class="a" d="M48.92 11.64c0 1-2.8 1-3.48 1.08a1.67 1.67 0 0 1-.16.4 14.68 14.68 0 0 0-1.32 5.16 3.06 3.06 0 0 0 1 2.48 3.92 3.92 0 0 0 2.2.84c.2 0 .44.16.44.4a.44.44 0 0 1-.44.44 3.9 3.9 0 0 1-4.08-4 13.16 13.16 0 0 1 .32-2.52c-1.44 2.52-5.72 6.56-8.8 6.56a.44.44 0 0 1-.44-.44c0-.24.24-.36.44-.4a8.75 8.75 0 0 0 4-2 17.73 17.73 0 0 0 5.16-6.84c-.64 0-1.24.08-1.88.08-.36 0-1.24-.12-1.24-.64 0-.8 3-.72 3.64-.72.2-.52.88-2.6 1.56-2.6.52 0 .6.88.6 1.24a5.73 5.73 0 0 1-.44 1.32 14.44 14.44 0 0 1 2.28 0c.19 0 .64-.15.64.16z"/><path class="a" d="M63.68 18.6a15.41 15.41 0 0 0 2.36.12.44.44 0 0 1 .44.44.44.44 0 0 1-.44.44 15.35 15.35 0 0 1-2.6-.16c-.8 2.12-3.16 4-5.32 4a2.68 2.68 0 0 1-2.56-3 5.32 5.32 0 0 1 .12-1.12c-2.52 1.72-4.92 3.08-8 3.08-.36 0-1 .08-1-.44a.44.44 0 0 1 .44-.4 15.52 15.52 0 0 0 1.92-.16 12.68 12.68 0 0 0 3.43-1.07 12.48 12.48 0 0 0 3-1.88 7 7 0 0 0 .8-.76l.36-.56a10 10 0 0 1 1.08-1.48c.72-.88 2-2.16 3.24-2.16s1.6 1 1.6 2a3 3 0 0 1 1.16 2.48 3.42 3.42 0 0 1-.03.63zm-1.44.52a2.77 2.77 0 0 1-2.24-2.6c0-.84.64-1.28 1.56-1.36a.81.81 0 0 0-.68-.44 1.6 1.6 0 0 0-1 .36 8.11 8.11 0 0 0-3 5.56 1.64 1.64 0 0 0 1.68 1.76c1.08 0 3-1.36 3.68-3.28zm.24-.84a2.64 2.64 0 0 0 0-.56c0-.84-.44-1.52-1.12-1.52-.16 0-.24.16-.24.32a1.8 1.8 0 0 0 1.35 1.76z"/><path class="a" d="M76.36 15.33c0 1.88-4.24 3.16-5.6 3.64h-.08v.24c0 1.56 1.16 2.24 2.56 2.4.2 0 .44.16.44.4a.44.44 0 0 1-.44.44 3.75 3.75 0 0 1-3.76-2.76c0-.12 0-.4-.08-.48a19.7 19.7 0 0 1-3.4.36.44.44 0 0 1-.44-.44.44.44 0 0 1 .44-.44 14.55 14.55 0 0 0 3.47-.36c.44-2.16 2.2-4.8 4.68-4.8a2 2 0 0 1 2.21 1.8zm-1.64 0c0-.4-.44-.52-.8-.52-1.6 0-2.8 1.88-3.12 3.28.96-.25 3.92-1.69 3.92-2.81z"/><path class="a" d="M91 13.88a40.74 40.74 0 0 1-6.92 5.4 22.63 22.63 0 0 1-10.84 3.2.41.41 0 0 1-.4-.44.43.43 0 0 1 .4-.4 13.64 13.64 0 0 0 3.6-.44 40.65 40.65 0 0 0 4.8-1.8 31 31 0 0 0 7.12-4.72l1.68-1.6a2.72 2.72 0 0 1-.32-1.24c0-1.48 1.48-3.6 3.08-3.6a1.21 1.21 0 0 1 1.24 1.28c0 1.68-1.64 2.76-2.64 3.64 1.44 1.4 3 2.64 4.6 4a4.29 4.29 0 0 1 1.24 1.8 13 13 0 0 0 4.92-2 9.44 9.44 0 0 0 3.52-4.12c-.64 0-1.24.08-1.88.08-.4 0-1.24-.12-1.24-.64 0-.8 3-.72 3.64-.72.2-.52.88-2.6 1.56-2.6.48 0 .56.8.56 1.12a3.69 3.69 0 0 1-.4 1.44 20.56 20.56 0 0 1 2.24-.08c.16 0 .68 0 .68.24 0 1-2.8 1-3.48 1.08a15.09 15.09 0 0 0-1.48 5.56 3.16 3.16 0 0 0 .92 2.48 4.51 4.51 0 0 0 2.24.84c.2 0 .44.16.44.4a.44.44 0 0 1-.44.44 3.92 3.92 0 0 1-4.16-4 17.58 17.58 0 0 1 .48-3.24 13.31 13.31 0 0 1-8 4.4c.24 3.12-3.8 5.12-6.48 5.12-1.12 0-2.48-.44-2.48-1.8 0-2.92 5.4-3.76 7.52-4-1-2-4-3.44-5.32-5.16zm5.56 6.16v-.24c-1.64.16-6.64.8-6.64 3 0 .84.76 1.12 1.48 1.12 2.07.04 5.16-1.52 5.16-3.88zm-5.2-8.2a1.5 1.5 0 0 0 0 .44c.48-.44 1.92-1.8 1.92-2.48a.33.33 0 0 0-.36-.36c-.8 0-1.56 1.72-1.56 2.4z"/><path class="a" d="M119.92 15.08a1.39 1.39 0 0 1 .28 1 7.32 7.32 0 0 0 1.4 4.64 2.41 2.41 0 0 0 2 .88c.2 0 .44.16.44.4a.44.44 0 0 1-.44.44c-2.88 0-4.32-3-4.48-5.48a14.26 14.26 0 0 1-5.28 4.48 9.66 9.66 0 0 1-4.48 1 .44.44 0 0 1-.44-.44.44.44 0 0 1 .44-.4 8.05 8.05 0 0 0 4-1 12.29 12.29 0 0 0 4.24-3.88c.36-.52 1.08-2 1.8-2a.73.73 0 0 1 .52.36zm-.76-6.24c0-.4.36-.56.72-.56.64 0 1 .84 1 1.4 0 .32-.16.6-.48.6-.6 0-1.24-.95-1.24-1.44z"/><path class="a" d="M152.16 16.88c.84 1.32.84 4 2.36 4.6a3.1 3.1 0 0 0 .84.16c.2 0 .4.16.4.4a.44.44 0 0 1-.4.44c-4 0-3.24-4.76-4.6-4.76-.36 0-.64.36-.84.64a30.8 30.8 0 0 1-2.92 3.72 1.71 1.71 0 0 1-1.08.4 1.32 1.32 0 0 1-1.28-1c-.48-1.2-.76-2.44-1.24-3.6-.12-.28-.28-.72-.64-.72-1.12 0-3.4 5.4-5.28 5.4a1.31 1.31 0 0 1-1.2-1.44c0-1.36.72-2.84.72-4.2a.8.8 0 0 0-.8-.88c-2.44 0-7.12 6.4-11.6 6.4-.4 0-1.52.24-1.52-.44a.44.44 0 0 1 .44-.4 10.26 10.26 0 0 0 6.24-2.4c1.4-1 3.92-3.48 5.36-4.08a3.29 3.29 0 0 1 1.2-.28 1.88 1.88 0 0 1 1.88 2.08c0 1.24-.8 2.72-.8 3.92 0 .2 0 .48.24.48.92 0 3.52-5.6 5.44-5.6 2.12 0 1.8 5.16 3 5.16.64 0 2.64-3.16 3.08-3.72a2.32 2.32 0 0 1 1.72-1 1.46 1.46 0 0 1 1.28.72z"/><path class="a" d="M175.04 21c0 1-2.08 1.48-2.88 1.48-3.6 0-4.12-3.52-5-3.52s-2.16 4.32-5.64 4.32a2 2 0 0 1-2.2-2.16v-.2a6.08 6.08 0 0 1-3.88 1.56c-.32 0-.64 0-.64-.44a.44.44 0 0 1 .44-.4c1.8 0 3.28-1.28 4.6-2.4 1-1.76 3.08-3.8 5.2-3.8a2.71 2.71 0 0 1 2.44 1.28 1.1 1.1 0 0 1 1.12.68 6.85 6.85 0 0 1 .36 1.2c.44 1.56 1.4 3 3.2 3a6.86 6.86 0 0 0 2.64-.92c.16.04.24.16.24.32zm-9-3.32c-.32-.52-.64-1-1.32-1-1.64 0-4 2.68-4 4.28a1.06 1.06 0 0 0 1.12 1.16c1.8 0 3.28-3.2 4.24-4.44z"/></svg>