<svg xmlns="http://www.w3.org/2000/svg" xmlns:xlink="http://www.w3.org/1999/xlink" viewBox="0 0 142.62 288.32"><defs><style>.a{fill:url(#a)}.b{fill:url(#b)}</style><linearGradient id="a" x1="-322.52" y1="245.35" x2="-112.71" y2="490.87" gradientUnits="userSpaceOnUse"><stop offset="0" stop-color="#80c0ba"/><stop offset="1" stop-color="#e47e2d"/></linearGradient><linearGradient id="b" x1="-347.43" y1="266.64" x2="-137.62" y2="512.15" xlink:href="#a"/></defs><title>p5_s7</title><path class="a" d="M71.22 13.98c-29.7 0-53.87 30.86-53.87 68.8s24.17 68.8 53.87 68.8 53.87-30.86 53.87-68.8-24.17-68.8-53.87-68.8zm0 130.63c-25.86 0-46.9-27.74-46.9-61.83s21-61.83 46.9-61.83 46.9 27.74 46.9 61.83-21.04 61.83-46.9 61.83z"/><path class="b" d="M142.61 80.45a19.85 19.85 0 0 0-7.44-15.09 97.61 97.61 0 0 0-5.59-20 15.51 15.51 0 0 0-1-11.43 15.61 15.61 0 0 0-9.67-7.78C106.6 9.53 89.24.01 71.18.01c-18.24 0-35.72 9.68-48.06 26.58a15.53 15.53 0 0 0-9.65 7 15.91 15.91 0 0 0-1.2 13.15 98 98 0 0 0-5.06 18.78A19.84 19.84 0 0 0-.03 80.44a19.4 19.4 0 0 0 6.49 14.25 98.88 98.88 0 0 0 5.78 24 15.88 15.88 0 0 0 .68 12.9 15.9 15.9 0 0 0 10.55 7.82c1.17 1.58 2.4 3.11 3.67 4.58l-.08.08 3.41 3.65c13.55 13.63 27.4 31.16 27.4 57.81 0 23.89-2 41.48-5.81 52.3a26.28 26.28 0 0 0 1.39 20.86c3.44 6.63 8.91 9.59 17.73 9.59 8.57 0 13.92-2.74 17.36-8.9a26.16 26.16 0 0 0 1.73-21.6c-3.94-11-5.93-28.55-5.93-52.25 0-26.44 13.24-43.41 27.55-57.81l3.49-3.51-.18-.19c1.31-1.52 2.58-3.1 3.79-4.74a15.62 15.62 0 0 0 9.6-7.76 15.49 15.49 0 0 0 1-11.39 98.46 98.46 0 0 0 6.33-25.31 19.76 19.76 0 0 0 6.69-14.37zm-20.17 40.33a8.92 8.92 0 0 1 0 7.61 9.07 9.07 0 0 1-6.74 4.58l-.79.14-.46.66a68.81 68.81 0 0 1-7.52 9l-1.36 1.37.07.07c-14.18 14.52-28.22 33.19-28.22 61.34 0 24.5 2.13 42.88 6.34 54.6A19.19 19.19 0 0 1 82.51 276c-1.79 3.2-4.39 5.33-11.27 5.33-7.86 0-10-2.88-11.54-5.83a19.29 19.29 0 0 1-1.03-15.26c4.18-11.73 6.22-29.6 6.22-54.65 0-28.26-14-46.88-28.06-61.33l.07-.07-1.38-1.38a68.81 68.81 0 0 1-7.78-9.39l-2-2.8-.91 2a8.71 8.71 0 0 1-5.73-4.25 8.72 8.72 0 0 1-.33-7.13l2.16.35-1.33-3.24a91.73 91.73 0 0 1-6.4-26.33l-.08-.85-.67-.52c-3.55-2.74-5.5-6.36-5.5-10.19a12.67 12.67 0 0 1 4.86-9.68l1.51 1.06.46-3.15a90.94 90.94 0 0 1 5.89-21.58l1.26-3.06-2.09.24a8.72 8.72 0 0 1 .66-7.11 9 9 0 0 1 6.84-4.12l.86-.11.49-.72c11.09-16.05 27-25.26 43.53-25.26 16.37 0 32.1 9 43.16 24.73l.46.66.79.14a9.07 9.07 0 0 1 6.79 4.59 8.94 8.94 0 0 1 0 7.64l-.32.76.33.76a90.5 90.5 0 0 1 6.24 22.54l.47 3.24 1.68-1.24a12.84 12.84 0 0 1 4.84 9.65c0 3.89-2 7.56-5.66 10.31l-.69.52-.08.86a91.37 91.37 0 0 1-6.79 27.11l-.32.76z"/></svg>