<?xml version="1.0" encoding="utf-8"?>
<!-- Generator: Adobe Illustrator 21.0.0, SVG Export Plug-In . SVG Version: 6.00 Build 0)  -->
<svg version="1.1" id="Layer_1" xmlns="http://www.w3.org/2000/svg" xmlns:xlink="http://www.w3.org/1999/xlink" x="0px" y="0px"
	 viewBox="0 0 226 437" style="enable-background:new 0 0 226 437;" xml:space="preserve">
<style type="text/css">
	.st0{fill:none;stroke:#DF6428;stroke-width:4.62;stroke-linecap:round;stroke-linejoin:round;stroke-dasharray:1.18,11.76;}
	.st1{fill:#DF6428;}
	.st2{opacity:0;fill:#EF4C0C;stroke:#000000;stroke-miterlimit:10;}
</style>
<title>p5_s8</title>
<circle class="st0" cx="111.5" cy="145.5" r="41.2"/>
<path class="st1" d="M94.8,140.9c0.2,0,0.4,0.2,0.4,0.3c0,0,0,0,0,0c0,0.1-0.1,0.3-0.2,0.4c-0.9,1-2.1,1.5-3.4,1.4
	c-2.8,0-4.6-1.9-4.6-4.8c-0.2-2.5,1.7-4.7,4.3-4.9c0.1,0,0.3,0,0.4,0c1.2-0.1,2.5,0.4,3.3,1.3c0.1,0.1,0.2,0.2,0.2,0.4
	c0,0.3-0.2,0.5-0.5,0.5c0,0,0,0,0,0c-0.3,0-0.5-0.2-0.7-0.4c-0.5-0.8-1.4-1.2-2.3-1.1c-1.9,0-3.2,1.8-3.2,4.2c0,2.4,1.1,4.2,3.2,4.2
	c1,0,1.9-0.4,2.6-1.1C94.5,141,94.6,140.9,94.8,140.9z M97.2,129.6c0-0.4,0.3-0.6,0.7-0.6s0.7,0.2,0.7,0.6v12.6
	c0,0.4-0.3,0.6-0.7,0.6s-0.7-0.2-0.7-0.6V129.6z M101.3,130.3c0-0.4,0.3-0.7,0.9-0.7s0.9,0.3,0.9,0.7s-0.4,0.8-0.9,0.8
	S101.3,130.7,101.3,130.3z M101.5,134.1c0-0.4,0.3-0.6,0.8-0.6s0.7,0.2,0.7,0.6v8.1c0,0.4-0.3,0.6-0.7,0.6c-0.4,0-0.8-0.2-0.8-0.6
	V134.1z M112.9,140.8L112.9,140.8c-0.6,1.4-2,2.3-3.6,2.2c-2.8,0-4.3-2.1-4.3-4.8c-0.2-2.5,1.7-4.7,4.1-4.9c0.2,0,0.3,0,0.5,0
	c1.4-0.1,2.7,0.8,3.2,2.1h0.1v-1.3c0-0.4,0.3-0.6,0.7-0.6s0.7,0.2,0.7,0.6v12.1c0,0.4-0.3,0.6-0.7,0.6c-0.4,0-0.7-0.2-0.7-0.6
	L112.9,140.8z M106.5,138.2c0,2.5,1.2,4.1,3.1,4.1c2.2,0,3.3-1.9,3.3-4.1c0-2.3-1.1-4.2-3.2-4.2S106.6,135.7,106.5,138.2
	L106.5,138.2z M125.2,142.2c0,0.4-0.3,0.6-0.7,0.6s-0.7-0.2-0.7-0.6V141h-0.1c-0.5,1.3-1.7,2.1-3.1,2c-2.4,0-3.5-1.4-3.5-3.7v-5.2
	c0-0.4,0.3-0.6,0.7-0.6s0.7,0.2,0.7,0.6v5.3c0,1.5,0.5,2.9,2.4,2.9c1.7,0,2.8-1.4,2.8-3.5v-4.7c0-0.4,0.3-0.6,0.7-0.6
	c0.4,0,0.7,0.2,0.7,0.6L125.2,142.2z M134.6,141.2c0.2-0.3,0.3-0.3,0.5-0.3c0.2,0,0.4,0.1,0.4,0.3c0,0,0,0,0,0
	c0,0.1-0.1,0.3-0.2,0.3c-1,1-2.3,1.5-3.6,1.4c-2.7,0-4.5-1.8-4.5-4.7c0-2.8,1.7-4.9,4.6-4.9c2.1-0.1,3.9,1.5,4,3.6
	c0,0.2,0,0.3,0,0.5v0.2c0,0.4-0.2,0.6-0.7,0.6h-6.4v0.1c0,2.2,1.1,4,3.1,4C132.8,142.5,133.9,142,134.6,141.2z M134.4,137.6v-0.3
	c0-2.2-1.1-3.3-2.7-3.3c-1.6,0-2.8,1.2-3,3.6H134.4z M101.7,155.5c0.4,0,0.7,0.2,0.7,0.6v8.2c0,0.4-0.3,0.6-0.7,0.6
	s-0.7-0.2-0.7-0.6v-1.5h-0.1c-0.5,1.4-1.9,2.3-3.4,2.3c-2.7,0-4.2-2-4.2-4.7c0-2.9,1.9-4.9,4.5-4.9c1.3,0,2.6,0.8,3.1,2h0.1V156
	C101.1,155.7,101.4,155.4,101.7,155.5z M94.8,160.2c0,2.6,1.1,4,2.9,4c2,0,3.2-1.8,3.2-4.1s-1-4.2-3.1-4.2
	C96.1,156,94.8,157.7,94.8,160.2z M112.3,162.7L112.3,162.7c-0.6,1.4-2,2.3-3.6,2.2c-2.8,0-4.3-2.1-4.3-4.8
	c-0.2-2.5,1.7-4.7,4.1-4.9c0.2,0,0.3,0,0.5,0c1.4-0.1,2.7,0.8,3.2,2.1h0.1V156c0-0.4,0.3-0.6,0.7-0.6s0.7,0.2,0.7,0.5v12.1
	c0,0.4-0.3,0.6-0.7,0.6c-0.4,0-0.7-0.2-0.7-0.6L112.3,162.7z M106,160.1c0,2.5,1.2,4.2,3.1,4.2c2.2,0,3.3-1.9,3.3-4.2
	c0-2.3-1.1-4.1-3.2-4.1S106,157.6,106,160.1z M124.6,164.2c0,0.4-0.3,0.6-0.7,0.6c-0.4,0-0.7-0.2-0.7-0.6v-1.3h-0.1
	c-0.5,1.3-1.7,2.1-3.1,2c-2.4,0-3.5-1.4-3.5-3.7v-5.2c0-0.4,0.3-0.6,0.7-0.6c0.4,0,0.7,0.2,0.7,0.6v5.3c0,1.4,0.5,2.8,2.4,2.8
	c1.7,0,2.8-1.4,2.8-3.5V156c0-0.4,0.3-0.6,0.7-0.6s0.7,0.2,0.7,0.6L124.6,164.2z M127.2,152.2c0-0.4,0.4-0.7,0.9-0.7
	s0.9,0.3,0.9,0.7c0,0.4-0.4,0.8-0.9,0.8C127.6,153,127.2,152.7,127.2,152.2z M127.4,156.1c0-0.4,0.3-0.6,0.8-0.6
	c0.4,0,0.7,0.2,0.7,0.6v8.1c0,0.4-0.3,0.6-0.7,0.6c-0.4,0-0.8-0.2-0.8-0.6V156.1z"/>
<rect class="st2" width="226" height="437"/>
</svg>
