<svg xmlns="http://www.w3.org/2000/svg" viewBox="0 0 414.84 117.05"><defs><style>.a{fill:#fff}</style></defs><title>p6_s3</title><path class="a" d="M18.86 18.96a49.68 49.68 0 0 1-.24-5.1v-1c0-4.56 0-10-.6-10-.42 0-1.32 1.2-1.86 2.34-1.62 3.3-2.82 6.3-5 11.64-1.08 2.52-1.86 4.32-2.76 6.24-.72 1.56-1.5 3.18-2.52 5.52-1.26 3-2.1 3.9-2.64 3.9a1 1 0 0 1-.9-1 2.22 2.22 0 0 1 .24-.84c.84-2.1 5.82-13.44 9.18-20.94l1.68-3.78c1.2-2.64 3.18-6 5.22-6 1.68 0 1.8 2 2 8.82.06 1.74.06 4.5.18 7v1c0 2 .06 4 .78 4s1-.9 2-2.76c2.7-5.16 5.28-9.9 8.22-15C32.92 1.2 34 .06 35.38.06c1.08 0 1.8.66 1.8 2.94a57.09 57.09 0 0 1-.84 7.8l-1 7.92-.18 1.26c-.36 2.7-.6 5.16-.78 8.1 0 1.86-.18 4.2-1.44 4.2-.54 0-.84-.54-.84-1.8s1-9.12 2.28-19.86c.12-1 .24-2 .42-3.06a33.78 33.78 0 0 0 .54-4.5c0-.3-.06-.6-.36-.6-.78 0-3.84 5.16-7.08 11.76-.6 1.2-3.48 6.72-5.16 8.46a2.21 2.21 0 0 1-1.56.72c-1.08 0-1.92-.6-2.16-3.6-.1-.18-.16-.48-.16-.84zm41.16 12.18c-5.34 0-6.18-5.28-7.5-5.28-1.5 0-3.24 6.48-8.4 6.48a3.07 3.07 0 0 1-3.36-3.3c0-3.6 4.92-8.46 8.58-8.46A4 4 0 0 1 53 22.5c1.74-.18 1.86 1.62 2.22 2.82a10 10 0 0 0 .72 1.86 4.7 4.7 0 0 0 4.08 2.7.65.65 0 0 1 .66.6.67.67 0 0 1-.66.66zm-15.48-.54c1.68 0 3.54-2.34 4.44-3.6.66-1 1.2-2.1 1.92-3.06-.48-.78-1-1.5-2-1.5-2.46 0-6.06 4-6.06 6.42a1.59 1.59 0 0 0 1.7 1.74z"/><path class="a" d="M75.74 20.04a2.07 2.07 0 0 1 .42 1.56c0 2.28.54 5.22 2.1 7 1 1.14 1.56 1.14 3 1.32.3.06.66.24.66.6a.67.67 0 0 1-.66.66c-4.32 0-6.48-4.44-6.72-8.22a21.4 21.4 0 0 1-7.92 6.72 14.49 14.49 0 0 1-6.72 1.5.67.67 0 0 1-.66-.66.65.65 0 0 1 .66-.6 12.09 12.09 0 0 0 5.94-1.44 18.46 18.46 0 0 0 6.36-5.82c.54-.78 1.62-2.94 2.7-2.94a1.09 1.09 0 0 1 .84.32zm-1.14-9.36c0-.6.54-.84 1.08-.84 1 0 1.44 1.26 1.44 2.1 0 .48-.24.9-.72.9-.84 0-1.8-1.38-1.8-2.16z"/><path class="a" d="M109.7 22.92a5.36 5.36 0 0 1 2.16 4.08c0 6.24-8.16 8-13 8-.48 0-1.68-.24-1.68-.9s1-.78 1.44-.78a20.72 20.72 0 0 0 5.1-.48c2.4-.6 3.9-1.2 5.34-3.18a4.36 4.36 0 0 0 .78-2.58c0-3.24-5.88-6.48-8-8.76a103.52 103.52 0 0 1-11.16 9.36c-3.36 2.34-5.34 3.48-9.54 3.48a.65.65 0 0 1-.66-.6.67.67 0 0 1 .66-.66 13.5 13.5 0 0 0 6.54-2 17.4 17.4 0 0 0 1.92-1.26 91.53 91.53 0 0 0 8.82-7.14l2.52-2.4a4.09 4.09 0 0 1-.48-1.86c0-2.22 2.22-5.4 4.62-5.4a1.81 1.81 0 0 1 1.86 1.92c0 2-2.34 4.26-3.84 5.4-.06 0-.06.06-.12.06 2.1 1.98 4.5 3.78 6.72 5.7zm-7.44-7.68v.18l.06.42c.72-.66 2.94-2.7 2.94-3.72a.5.5 0 0 0-.54-.54c-1.26 0-2.44 2.64-2.44 3.66zm46.68 9.72a5.73 5.73 0 0 0 4.74 4.8c.48.12 1.68 0 1.68.72a.67.67 0 0 1-.66.66 8.16 8.16 0 0 1-8.22-7 10.85 10.85 0 0 1-1.08 2.22c-1.68 2.94-4.26 6.3-8 6.3-3.24 0-4.68-2.58-4.68-5.46 0-1.56.9-7.68 2.88-7.68a1 1 0 0 1 1.08 1c0 1.38-2 3.84-2 6.6 0 2 .72 3.72 3 3.72a3.53 3.53 0 0 0 2-.6c2.94-2 4-5 5.46-8 .36-.78 1.2-2 2.22-2 1.92.1 1.4 3.54 1.58 4.72z"/><path class="a" d="M197.54 22.78c1.26 2 1.26 5.94 3.54 6.9a4.67 4.67 0 0 0 1.26.24c.3.06.6.24.6.6a.65.65 0 0 1-.6.66c-6.06 0-4.86-7.14-6.9-7.14-.54 0-1 .54-1.26 1-1.08 1.44-3.12 4.5-4.38 5.58a2.56 2.56 0 0 1-1.62.6 2 2 0 0 1-1.92-1.44c-.72-1.8-1.14-3.66-1.86-5.4-.18-.42-.42-1.08-1-1.08-1.68 0-5.1 8.1-7.92 8.1a2 2 0 0 1-1.8-2.16c0-2 1.08-4.26 1.08-6.3a1.2 1.2 0 0 0-1.2-1.32c-3.66 0-10.68 9.6-17.4 9.6-.6 0-2.28.36-2.28-.66a.65.65 0 0 1 .66-.6 15.38 15.38 0 0 0 9.36-3.6c2.1-1.56 5.88-5.22 8-6.12a4.92 4.92 0 0 1 1.8-.42 2.82 2.82 0 0 1 2.82 3.12c0 1.86-1.2 4.08-1.2 5.88 0 .3 0 .72.36.72 1.38 0 5.28-8.4 8.16-8.4 3.18 0 2.7 7.74 4.56 7.74 1 0 4-4.74 4.62-5.58a3.48 3.48 0 0 1 2.58-1.56 2.19 2.19 0 0 1 1.94 1.04z"/><path class="a" d="M231.86 28.92c0 1.5-3.12 2.22-4.32 2.22-5.4 0-6.18-5.28-7.5-5.28-1.5 0-3.24 6.48-8.46 6.48a3 3 0 0 1-3.3-3.24v-.32c-1.92 1.38-3.36 2.34-5.82 2.34-.48 0-1-.06-1-.66a.65.65 0 0 1 .66-.6c2.7 0 4.92-1.92 6.9-3.6 1.44-2.64 4.62-5.7 7.8-5.7a4.07 4.07 0 0 1 3.66 1.92 1.65 1.65 0 0 1 1.68 1 10.22 10.22 0 0 1 .54 1.8c.66 2.34 2.1 4.56 4.8 4.56 1.86 0 3.72-1.38 4-1.38s.36.22.36.46zm-13.44-5c-.48-.78-1-1.5-2-1.5-2.46 0-6.06 4-6.06 6.42a1.59 1.59 0 0 0 1.68 1.74c2.72.02 4.94-4.8 6.38-6.64zm57.54 1.58a.67.67 0 0 1 .66.66.67.67 0 0 1-.66.66c-4.62 0-7.2-4.2-8.34-4.2-1.56 0-5.82 9.9-8.82 9.9-1.26 0-2.1-1.38-2.64-2.34-.84-1.44-4-7.2-4-8.58a.9.9 0 0 1 1-.9 1.42 1.42 0 0 1 .48.12c1.08.54 1.62 2.58 2 3.66s2.28 5.94 3.36 5.94c1.86 0 6-10 8.52-10 1.96.04 3.76 5.08 8.44 5.08z"/><path class="a" d="M291.38 20.4c0 2.82-6.36 4.74-8.4 5.46l-.12.06v.36c0 2.34 1.74 3.36 3.84 3.6.3.06.66.24.66.6a.67.67 0 0 1-.66.66 5.63 5.63 0 0 1-5.64-4.14c-.06-.18 0-.6-.12-.72a29.46 29.46 0 0 1-5.1.54.67.67 0 0 1-.66-.66.67.67 0 0 1 .66-.66 21.78 21.78 0 0 0 5.22-.6c.66-3.24 3.3-7.2 7-7.2 1.58 0 3.32.9 3.32 2.7zm-2.46-.06c0-.6-.66-.78-1.2-.78-2.4 0-4.2 2.82-4.68 4.92 1.44-.3 5.88-2.46 5.88-4.14z"/><path class="a" d="M321.56 39.48a19.33 19.33 0 0 1 .48 4.56 30.81 30.81 0 0 1-.9 7.44c-1.08 4.26-4.38 6.9-8 6.9a4.56 4.56 0 0 1-4.62-4.74c0-6.66 5.88-11.4 10.74-14.94-.54-1.92-1.68-4.32-3.42-5.34-1.32 1.2-3.06 3.06-5 3.06a1.56 1.56 0 0 1-1.74-1.56c0-2.16 2.64-3.66 4.56-3.66a5.13 5.13 0 0 1 1.86.36c1.74-1.74 5-5.58 5-8.1 0-2.1-2-3.24-4-3.24a11.66 11.66 0 0 0-5.58 1.86c-2.4 1.38-4.92 2.64-7.44 3.78-4.92 2.22-11.4 5.28-16.86 5.28a.67.67 0 0 1-.66-.66c0-.54.54-.6.9-.6 3.36-.12 8.94-2.1 12.12-3.42a81.21 81.21 0 0 0 11.34-5.88c2.22-1.38 4-2.28 6.66-2.28 3.06 0 5.76 1.5 5.76 4.86s-3.42 7-5.7 9.12l.42.3a11.06 11.06 0 0 1 3.48 4.92 24.18 24.18 0 0 0 2-1.38 64.92 64.92 0 0 1 8-4.5c2.34-1.14 4.8-2.22 7.2-3.12a11.73 11.73 0 0 1 3.12-1c.36 0 .84.18.84.6a.87.87 0 0 1-.12.42 2.25 2.25 0 0 1-1.5.84 36.32 36.32 0 0 0-5.52 2.16 106.68 106.68 0 0 0-10.32 5.58 23.08 23.08 0 0 0-2.76 2 1.6 1.6 0 0 1-.36.3zm-4.28 15.48c2.46-2.52 2.76-6.42 2.76-10.5a18.48 18.48 0 0 0-.3-3.66c-4.26 2.82-9.3 6.9-9.3 12.72a2.87 2.87 0 0 0 3 3.12 6.12 6.12 0 0 0 3.84-1.68zm-3-22.18h-.48c-.78 0-2.88.66-2.88 1.68 0 .18.18.3.42.3.8.02 2.3-1.4 2.94-1.98zm33.5 2.5a.45.45 0 0 1-.36-.42c.06-.72.78-1.62 1-2.46.36-1.32-.12-3.66 1.44-3.66.78 0 1.08.42 1.08 1.14a7.89 7.89 0 0 1-2.26 4.9 1.65 1.65 0 0 1-.9.5zM12.99 86.71a24.84 24.84 0 0 0 3.78.19.71.71 0 0 1 .7.7.71.71 0 0 1-.7.7 24.85 24.85 0 0 1-4.16-.26c-1.28 3.39-5.06 6.46-8.51 6.46-2.69 0-4.1-2.3-4.1-4.74 0-2.88 1.66-5.7 3.46-7.81 1.15-1.41 3.26-3.46 5.18-3.46s2.56 1.6 2.56 3.2a4.74 4.74 0 0 1 1.86 4 5.46 5.46 0 0 1-.07 1.02zm-2.3.83c-1.92-.64-3.58-1.86-3.58-4.16 0-1.34 1-2 2.5-2.18a1.3 1.3 0 0 0-1.09-.7 2.55 2.55 0 0 0-1.6.58c-2.43 1.73-4.86 5.89-4.86 8.9a2.62 2.62 0 0 0 2.69 2.82c1.78-.02 4.85-2.19 5.94-5.26zm.38-1.34c0-.26.06-.58.06-.9 0-1.34-.7-2.43-1.79-2.43-.26 0-.38.26-.38.51a2.88 2.88 0 0 0 2.11 2.82z"/><path class="a" d="M34.18 63.03c1.09-1.34 3.14-3.33 5-3.33S42 62 42 63.6c0 3.07-1.86 6.59-3.39 9.15a37 37 0 0 1-7.81 8.9c1.09 4.35 3.9 9.92 9.15 9.92a.69.69 0 0 1 .64.64.66.66 0 0 1-.64.7c-5.76 0-9.47-4.67-10.75-9.86-3.78 2.94-7.49 5.25-12.48 5.25a.71.71 0 0 1-.7-.7.71.71 0 0 1 .7-.7 13.14 13.14 0 0 0 5.18-1 22.55 22.55 0 0 0 6.91-4.48c-.06-1-.26-1.92-.26-2.94a27.06 27.06 0 0 1 5.63-15.45zm2.62 9.73c1.34-2.11 3.46-6 3.46-8.51 0-1.09-.51-2-1.73-2a3 3 0 0 0-1.47.58c-3.9 2.69-6.59 11.07-6.59 15.68a11.42 11.42 0 0 0 .06 1.47 37.05 37.05 0 0 0 6.27-7.2z"/><path class="a" d="M68.86 85.78a27.79 27.79 0 0 0 3.58 4.61 3.56 3.56 0 0 0 2.3 1.22c.32.06.7.26.7.64a.71.71 0 0 1-.7.7c-3.2 0-4.86-3.07-6.59-5.31-.9-1.15-1.47-2.62-3.2-2.62-3.07 0-6.08 8.51-10.24 8.51-2.75 0-3.71-3.84-4-6-2.56 2.3-7.29 5.44-10.81 5.44a.71.71 0 0 1-.7-.7.71.71 0 0 1 .7-.7 6.76 6.76 0 0 0 2.5-.58 30.69 30.69 0 0 0 8.19-5.5v-.51a40 40 0 0 1 4.26-17.2c.9-1.66 3-4.61 5.18-4.61 1.92 0 2.18 2.62 2.18 4 0 5.25-2.5 10.24-5.57 14.33a32.8 32.8 0 0 1-3.46 3.84 6 6 0 0 0-.64.64c-.06 1.28.45 5.38 2.24 5.38 2.82 0 6.08-8.32 10.37-8.32 1.67.02 2.88 1.49 3.71 2.74zm-12.58-16.6a33.23 33.23 0 0 0-3.78 14.4c3.2-3.58 8.06-10.69 8.06-15.74 0-.64-.13-2.11-1.09-2.11-1.29-.01-2.7 2.49-3.19 3.45z"/><path class="a" d="M95.94 92.66a12.2 12.2 0 0 1-2.62.26c-2.43 0-5.31-1.47-6-4-4.1 2-8.06 4-12.73 4a.71.71 0 0 1-.7-.7.7.7 0 0 1 .7-.64 18.94 18.94 0 0 0 5.63-1 52.57 52.57 0 0 0 6.91-3.26c.32-3.33 2.18-6.78 5.31-8.26a4.44 4.44 0 0 1 2.24-.51c1.66 0 3.52 1 3.52 2.82a3.25 3.25 0 0 1-.38 1.34 4.45 4.45 0 0 1-1.66 1.41c-.83.51-1.66.9-2.5 1.34-1.47.83-2.94 1.73-4.48 2.5 0 2.11 2.18 3.58 4.16 3.58a9.61 9.61 0 0 0 6-1.73 15.37 15.37 0 0 1 1.41-1c.26 0 .32.13.32.38.05 2.06-3.6 3.15-5.13 3.47zm-6.59-6.46c1-.45 5.57-3.14 6.14-3.84a1.18 1.18 0 0 0 .32-.77c0-.77-.83-1-1.47-1-2.63-.02-4.61 3.31-4.99 5.61zm52.09-.58c.83 2.62 1.34 6 4.8 6a.66.66 0 0 1 .7.64.71.71 0 0 1-.7.7c-6.91 0-6-8.45-8.06-8.45-1.66 0-5.5 8.64-8.38 8.64-1.28 0-1.86-1.22-1.86-2.3 0-2.18 1-4.29 1-6.4 0-.83-.06-1.79-1.09-1.79-1.73 0-4.16 2.3-5.25 2.3a.58.58 0 0 1-.64-.51c0-1.41 4.54-3.65 6-3.65 1.92 0 2.94 1.47 2.94 3.26 0 2.24-1.28 4.61-1.28 6.59a.49.49 0 0 0 .45.51c.13 0 .19-.06.26-.06 2.37-2.37 3.84-5.44 6.21-7.81a3.48 3.48 0 0 1 2.24-1.15c1.7-.04 2.28 2.14 2.66 3.48z"/><path class="a" d="M177.92 87.93c0 1.28-2.43 1.15-3.26 1.15a6.93 6.93 0 0 1-2.56-.38 9.6 9.6 0 0 1-8.45 5.89c-2.69 0-4-2.5-4-4.93a7.38 7.38 0 0 1 .19-1.66c-4.1 2.82-7.87 4.93-12.93 4.93-.58 0-1.47.13-1.47-.7a.7.7 0 0 1 .7-.64 24.87 24.87 0 0 0 3.07-.26 24.72 24.72 0 0 0 10.3-4.86l1.34-1.22c1.22-2.43 4.42-6.53 7.36-6.53 1.79 0 2.56 1.86 2.56 3.46a4.74 4.74 0 0 1 1.86 4 7.79 7.79 0 0 1-.13 1.22 9.08 9.08 0 0 0 2.94.32c.3-.05 2.48-.31 2.48.21zm-7.42 0c-1.34-.7-3.84-2.56-3.84-4.22 0-1.34 1.28-2 2.43-2a1 1 0 0 0-1-.7 3.39 3.39 0 0 0-1.47.51c-2.62 1.41-5 5.57-5 8.58a2.4 2.4 0 0 0 2.56 2.62 6.88 6.88 0 0 0 6.31-4.79zm.26-1.73c0-.9-.77-2.88-1.86-2.88-.26 0-.45.32-.45.58 0 1.09 1.66 1.86 2.3 2.5zm45.3-4.74c0 3.26-6.27 4.42-8.64 5.25a.92.92 0 0 1-.45.13c0 .26-.06.45-.06.7 0 2.5 1.79 3.84 4.16 4 .38.06.7.19.7.64a.71.71 0 0 1-.7.7c-3.07 0-6.34-2.24-6.14-5.57a23.68 23.68 0 0 1-4.22.45c-.58 0-1.92-.38-1.92-1.15 0-.45.7-.45 1-.45a25.8 25.8 0 0 0 5.44-.64c0-.06.06-.19.06-.26a9.81 9.81 0 0 1 4.93-6.21 4.44 4.44 0 0 1 2.24-.51c1.75.04 3.6 1 3.6 2.92zm-2.62-.06c0-.64-.7-.83-1.28-.83-2.3 0-4.1 2.5-4.8 4.48 1.41-.27 6.08-1.92 6.08-3.65z"/><path class="a" d="M239.93 96.63c-1.86 0-4.1-.64-4.1-2.82a4.52 4.52 0 0 1 1.86-3.26c2.43-2.11 7-2.82 10.18-3.26-1.54-3.26-6.14-5.44-8.45-8.13l-.06.06c-3.46 3.07-7 6.34-11.07 8.58-5.31 2.94-11.2 5.12-17.34 5.12a.66.66 0 0 1-.64-.7.69.69 0 0 1 .64-.64 21.86 21.86 0 0 0 5.76-.7 65.26 65.26 0 0 0 7.68-2.88 49.64 49.64 0 0 0 11.39-7.55l2.69-2.56a4.36 4.36 0 0 1-.51-2c0-2.37 2.37-5.76 4.93-5.76a1.93 1.93 0 0 1 2 2c0 2.69-2.62 4.16-4.16 5.82 2.3 2.18 4.74 4.1 7.1 6.14a7 7 0 0 1 2 2.88c.64-.06 2-.13 2.43-.13a.71.71 0 0 1 .7.7.71.71 0 0 1-.7.7c-.26 0-1.28 0-2.18.06.73 5.13-5.99 8.33-10.15 8.33zm8.26-7.68v-.38c-2.69.26-10.62 1.41-10.62 5.06 0 1.28 1.28 1.66 2.37 1.66 3.26 0 8.34-2.37 8.25-6.34zm-8.26-13.06a2.4 2.4 0 0 0 .06.7c.77-.7 3.07-2.88 3.07-4a.54.54 0 0 0-.58-.58c-1.33.05-2.55 2.77-2.55 3.89z"/><path class="a" d="M281.41 92.28c0 .38-.32.64-.77.64a29.32 29.32 0 0 1-5.44-.45c-1.54-.26-3.46-.51-4.48-1.28-2 6.85-3.14 9.28-5.06 14.72-1.86 5.25-3.33 11.13-7.23 11.13-1.86 0-3.2-2.11-3.2-4.74 0-9.15 11.26-24 16.25-31.17v-1.15c0-.7-.32-1.6-.9-1.6a.9.9 0 0 0-.58.26c-.77.58-7.81 6.53-10.81 8a14.65 14.65 0 0 1-6.85 1.66.69.69 0 0 1-.77-.7.73.73 0 0 1 .77-.7 10.61 10.61 0 0 0 6-1.6c3.52-2 8.83-6.78 10.5-8.38a4.45 4.45 0 0 1 2.62-1.41c1.15 0 2 1.34 2 3.39v.45h.06a10 10 0 0 1 5-1.92c2.56 0 5.57 1.47 5.57 4.48 0 3.71-4.86 8.7-9.15 8.7a13.94 13.94 0 0 0 5.63 1 .77.77 0 0 1 .84.67zm-10.69-7.42c-4.74 7.23-6.34 9.21-8.83 13.5a59.77 59.77 0 0 0-4 9.15 15 15 0 0 0-.9 4.8c0 1.79.45 2.82 1.54 2.82 1.66 0 2.62-2.43 3.9-5.89 1.73-4.54 2.75-7 4.29-11.84 1.37-4.42 2.97-8.39 4-12.54zm2.43 4.86c2.75 0 8.58-3 8.58-7.36a2.71 2.71 0 0 0-3-2.69 9.9 9.9 0 0 0-5.44 2 60.32 60.32 0 0 1-2 7.81 6.76 6.76 0 0 0 1.86.24z"/><path class="a" d="M311.55 81.4c0 2.82-6.34 5.7-8.64 6.66l-.38.13c.26 2.24 2 3.14 4.1 3.39.32.06.7.26.7.64a.71.71 0 0 1-.7.7c-2.5 0-5.31-1.47-6-4-6 2.18-13.7 4-20 4a.71.71 0 0 1-.7-.7.7.7 0 0 1 .7-.64 43.32 43.32 0 0 0 8.13-.9c2.43-.45 4.8-1.15 7.17-1.79 1.15-.38 2.56-.64 3.71-1.15l.83-.38c.32-3.84 3.26-8.77 7.55-8.77 1.67-.01 3.53.95 3.53 2.81zm-2.5.32a1.2 1.2 0 0 0-1.34-1.15c-2.75 0-4.74 3.46-5.12 5.89 1.47-.68 6.46-2.82 6.46-4.74z"/><path class="a" d="M336.44 63.03c1.09-1.34 3.14-3.33 5-3.33s2.82 2.3 2.82 3.9c0 3.07-2.24 7.62-4 10.11a38.05 38.05 0 0 1-6 6.78 9.92 9.92 0 0 1-1.22 1.09c.9 4.35 4.1 10 9.15 10a.69.69 0 0 1 .64.64.66.66 0 0 1-.64.7c-5.82 0-9.54-4.67-10.75-9.92-6.27 4.74-17.09 9.92-24.89 9.92a.71.71 0 0 1-.7-.7.7.7 0 0 1 .7-.64 20.21 20.21 0 0 0 5.5-.9c6.4-1.79 13.82-5.06 19-9.28-.06-1-.26-1.92-.26-2.94a27.06 27.06 0 0 1 5.65-15.43zm2.62 9.73c1.34-2.11 3.46-6 3.46-8.51 0-1.15-.51-2-1.73-2-1.73 0-3.71 2.88-4.48 4.22a25.09 25.09 0 0 0-3.58 12 11.42 11.42 0 0 0 .06 1.47 31.94 31.94 0 0 0 6.28-7.16z"/><path class="a" d="M371.13 85.78a27.79 27.79 0 0 0 3.58 4.61 3.56 3.56 0 0 0 2.3 1.22c.32.06.7.26.7.64a.71.71 0 0 1-.7.7c-3.2 0-4.86-3.07-6.59-5.31-.9-1.15-1.47-2.62-3.2-2.62-3.07 0-6.08 8.51-10.24 8.51-2.75 0-3.71-3.84-4-6-2.56 2.3-7.29 5.44-10.81 5.44a.71.71 0 0 1-.7-.7.71.71 0 0 1 .7-.7 6.76 6.76 0 0 0 2.5-.58 30.69 30.69 0 0 0 8.19-5.5v-.51a40 40 0 0 1 4.26-17.2c.9-1.66 3-4.61 5.18-4.61 1.92 0 2.18 2.62 2.18 4 0 5.25-2.5 10.24-5.57 14.33a32.8 32.8 0 0 1-3.46 3.84 6 6 0 0 0-.64.64c-.06 1.28.45 5.38 2.24 5.38 2.82 0 6.08-8.32 10.37-8.32 1.66.02 2.86 1.49 3.71 2.74zm-12.61-16.57a33.23 33.23 0 0 0-3.78 14.4c3.2-3.58 8.06-10.69 8.06-15.74 0-.64-.13-2.11-1.09-2.11-1.27-.04-2.67 2.46-3.19 3.42z"/><path class="a" d="M408.7 87.93c0 1.28-2.43 1.15-3.26 1.15a6.93 6.93 0 0 1-2.56-.38 9.6 9.6 0 0 1-8.45 5.89c-2.69 0-4-2.5-4-4.93a7.38 7.38 0 0 1 .19-1.66c-4.1 2.82-7.87 4.93-12.93 4.93-.58 0-1.47.13-1.47-.7a.7.7 0 0 1 .7-.64 24.87 24.87 0 0 0 3.07-.26 24.72 24.72 0 0 0 10.29-4.88l1.34-1.22c1.22-2.43 4.42-6.53 7.36-6.53 1.79 0 2.56 1.86 2.56 3.46a4.74 4.74 0 0 1 1.86 4 7.79 7.79 0 0 1-.13 1.22 9.08 9.08 0 0 0 2.94.32c.31-.03 2.49-.29 2.49.23zm-7.42 0c-1.34-.7-3.84-2.56-3.84-4.22 0-1.34 1.28-2 2.43-2a1 1 0 0 0-1-.7 3.39 3.39 0 0 0-1.47.51c-2.62 1.41-5 5.57-5 8.58a2.4 2.4 0 0 0 2.56 2.62 6.88 6.88 0 0 0 6.32-4.79zm.26-1.73c0-.9-.77-2.88-1.86-2.88-.26 0-.45.32-.45.58 0 1.09 1.66 1.86 2.3 2.5zm11.58 4.03a1.8 1.8 0 0 1 1.73 1.66 1.35 1.35 0 0 1-1.34 1.41 1.55 1.55 0 0 1-1.73-1.73 1 1 0 0 1 .38-1 1.41 1.41 0 0 1 .96-.34z"/></svg>