<svg xmlns="http://www.w3.org/2000/svg" viewBox="0 0 387.32 49.11"><title>p6_s2</title><path d="M25.51 24.02a7.71 7.71 0 0 1-5.08-2.21 11.51 11.51 0 0 1-2.16-2.63c-1.36 3.34-4 9.12-8.32 9.12-2.3 0-3.38-1.79-3.38-3.9a13.85 13.85 0 0 1 .66-3.9c-1.6.94-3.95 2.21-5.83 2.21-.42 0-1.41-.28-1.41-.85s1.22-.28 1.5-.33c2-.19 4.65-1.74 6.3-2.87 1.13-3.57 5.31-16 9.92-16a2.22 2.22 0 0 1 2.16 2.49c0 4.18-8 11.84-11 14.24a16.36 16.36 0 0 0-.89 5c0 1.17.52 2.49 1.88 2.49 1.79 0 3.38-1.65 4.42-3 1.46-1.88 2-4.18 2.82-6.39a1.2 1.2 0 0 1 1.13-.94c1 0 1.36 1 1.65 1.79a9 9 0 0 0 1.41 2.54 5.38 5.38 0 0 0 3.43 2.07c.42 0 1.32-.09 1.32.56a.52.52 0 0 1-.53.51zM15.31 5.93a31.41 31.41 0 0 0-3 5.36c-.89 2-1.83 3.9-2.63 5.92 1.83-1.69 6.77-7.14 7.75-9.21a5.92 5.92 0 0 0 .71-2.35c0-.56-.24-1.18-.85-1.18-.8.04-1.51.89-1.97 1.45z" fill="#fff"/><path d="M41.73 22.84a18.26 18.26 0 0 0 2.77.14.52.52 0 0 1 .52.52.52.52 0 0 1-.52.52 18.21 18.21 0 0 1-3.05-.19c-.94 2.49-3.71 4.75-6.25 4.75-2 0-3-1.69-3-3.48v-.28a3.81 3.81 0 0 1 0-.66 10.59 10.59 0 0 1 .61-2 14.87 14.87 0 0 1-7.19 1.83.52.52 0 0 1-.52-.52.52.52 0 0 1 .52-.52c3.05 0 5.73-1.27 8.32-2.73 1.36-2 3.15-3.43 4.56-3.43s1.88 1.17 1.88 2.35a3.48 3.48 0 0 1 1.36 2.91 4 4 0 0 1-.01.79zm-1.69.61c-1.41-.47-2.63-1.36-2.63-3.05 0-1 .75-1.5 1.83-1.6a1 1 0 0 0-.8-.52 1.87 1.87 0 0 0-1.17.42 9.54 9.54 0 0 0-3.57 6.53 1.92 1.92 0 0 0 2 2.07c1.28.01 3.54-1.57 4.34-3.85zm.28-1v-.66c0-1-.52-1.79-1.32-1.79-.19 0-.28.19-.28.38a2.12 2.12 0 0 0 1.6 2.08z" fill="#fff"/><path d="M64.71 22.04c.61 2 .89 4.37 3.52 4.37a.51.51 0 0 1 .52.47.52.52 0 0 1-.52.52c-5.17 0-4.37-6.2-5.92-6.2-1.32 0-4 6.34-6.2 6.34-1 0-1.36-.89-1.36-1.74 0-1.55.8-3.24.8-4.65 0-.61-.14-1.22-.85-1.22-1.83 0-5.31 4.09-10.25 4.09a.52.52 0 0 1-.52-.52.52.52 0 0 1 .52-.52 10.07 10.07 0 0 0 3.67-.94c1.83-.89 4.79-3.57 6.63-3.57a2.21 2.21 0 0 1 2.21 2.44c0 1.46-.94 3.2-.94 4.61 0 .24 0 .56.28.56 1 0 4.23-6.63 6.39-6.63 1.27.01 1.74 1.65 2.02 2.59z" fill="#fff"/><path d="M80.55 18.73a1.63 1.63 0 0 1 .33 1.22 8.61 8.61 0 0 0 1.65 5.45 2.83 2.83 0 0 0 2.35 1c.23 0 .52.19.52.47a.52.52 0 0 1-.52.52c-3.38 0-5.08-3.48-5.26-6.44a16.76 16.76 0 0 1-6.2 5.26 11.35 11.35 0 0 1-5.26 1.17.52.52 0 0 1-.52-.52.51.51 0 0 1 .52-.47 9.47 9.47 0 0 0 4.65-1.13 14.47 14.47 0 0 0 5-4.56c.42-.61 1.27-2.3 2.11-2.3a.85.85 0 0 1 .63.33zm-.89-7.33c0-.47.42-.66.85-.66.75 0 1.13 1 1.13 1.64 0 .38-.19.71-.56.71-.67-.03-1.42-1.11-1.42-1.72z" fill="#fff"/><path d="M101.65 14.66c0 1.18-3.29 1.22-4.09 1.27a2 2 0 0 1-.19.47 17.24 17.24 0 0 0-1.55 6.06 3.6 3.6 0 0 0 1.13 2.91 4.61 4.61 0 0 0 2.58 1c.23 0 .52.19.52.47a.52.52 0 0 1-.52.52 4.58 4.58 0 0 1-4.79-4.75 15.47 15.47 0 0 1 .38-3c-1.69 3-6.72 7.71-10.34 7.71a.52.52 0 0 1-.52-.52c0-.28.28-.42.52-.47a10.28 10.28 0 0 0 4.75-2.35 20.84 20.84 0 0 0 6.06-8c-.75 0-1.46.09-2.21.09-.42 0-1.46-.14-1.46-.75 0-.94 3.48-.85 4.28-.85.23-.61 1-3.05 1.83-3.05.61 0 .7 1 .7 1.46a6.7 6.7 0 0 1-.52 1.55 17 17 0 0 1 2.68 0c.2.05.76-.1.76.23z" fill="#fff"/><path d="M122.78 25.66c0 1.17-2.44 1.74-3.38 1.74-4.23 0-4.84-4.14-5.87-4.14s-2.54 5.08-6.63 5.08a2.36 2.36 0 0 1-2.58-2.54v-.24c-1.5 1.08-2.63 1.83-4.56 1.83-.38 0-.75 0-.75-.52a.51.51 0 0 1 .52-.47c2.12 0 3.85-1.5 5.4-2.82 1.13-2.07 3.62-4.46 6.11-4.46a3.19 3.19 0 0 1 2.87 1.5 1.29 1.29 0 0 1 1.32.8 8.07 8.07 0 0 1 .42 1.41c.52 1.83 1.65 3.57 3.76 3.57a8.05 8.05 0 0 0 3.1-1.08c.2.01.27.15.27.34zm-10.5-3.93c-.38-.61-.75-1.17-1.55-1.17-1.93 0-4.75 3.15-4.75 5a1.25 1.25 0 0 0 1.32 1.36c2.11.06 3.85-3.7 4.98-5.19zM151.61 12.83c.8-3.2 3.57-12.83 7.52-12.83a1.53 1.53 0 0 1 1.55 1.73 13.1 13.1 0 0 1-1.36 4.75c-.8 1.79-1.88 3.43-2.82 5.17-1.27 2.3-2.4 4.61-3.81 6.81-.23.38-.47.75-.75 1.13.28 1.83.42 3.62 1.83 5a6.68 6.68 0 0 0 4.7 1.79.48.48 0 0 1 .52.47.52.52 0 0 1-.52.52c-4.18 0-6.72-2.35-7.52-6.34-1.83 2.54-4.84 7-8.32 7a2.86 2.86 0 0 1-3-2.91c0-2.82 3.52-5.73 6.3-5.73a3.39 3.39 0 0 1 3.15 2.26c.61-.8 1.13-1.6 1.69-2.4a26.49 26.49 0 0 1 .84-6.42zm-3.67 10.2a2.19 2.19 0 0 0-2.26-2.07c-1.93 0-4.51 2-4.51 4a1.46 1.46 0 0 0 1.55 1.55c2.22 0 3.91-1.98 5.23-3.48zm6.44-9.82c.85-1.5 1.64-3.06 2.44-4.61s2.35-4 2.35-5.64c0-.47-.19-.94-.75-.94-2.11 0-4.51 7.61-5.08 9.35a33 33 0 0 0-1.41 6z" fill="#fff"/><path d="M181.78 23.73c0 .94-1.79.85-2.4.85a5.08 5.08 0 0 1-1.88-.28 7 7 0 0 1-6.2 4.32c-2 0-3-1.83-3-3.62a5.43 5.43 0 0 1 .14-1.22c-3 2.07-5.78 3.62-9.49 3.62-.42 0-1.08.09-1.08-.52a.51.51 0 0 1 .52-.47 18.3 18.3 0 0 0 2.26-.19 18.15 18.15 0 0 0 7.57-3.57l1-.89c.89-1.79 3.24-4.79 5.4-4.79 1.32 0 1.88 1.36 1.88 2.54a3.48 3.48 0 0 1 1.36 2.91 5.77 5.77 0 0 1-.09.89 6.64 6.64 0 0 0 2.16.24c.26 0 1.85-.19 1.85.18zm-5.45 0c-1-.52-2.82-1.88-2.82-3.1 0-1 .94-1.46 1.79-1.5a.76.76 0 0 0-.7-.52 2.48 2.48 0 0 0-1.08.38 8.27 8.27 0 0 0-3.67 6.3 1.77 1.77 0 0 0 1.88 1.93 5 5 0 0 0 4.61-3.49zm.19-1.27c0-.66-.56-2.11-1.36-2.11-.19 0-.33.23-.33.42 0 .8 1.22 1.36 1.69 1.83zM214.26 29.73a.43.43 0 0 1-.19.38c-3.1 2.54-7.9 6.81-10.1 10.1-.28 1.65-.94 6.16-1.55 7.52a2.49 2.49 0 0 1-1.79 1.36c-1 0-1.46-1-1.46-1.83 0-2.26 2.26-5.4 3.52-7.24a130.09 130.09 0 0 1 4.42-14.57 12.34 12.34 0 0 1-6 2 2.9 2.9 0 0 1-3-2.82 2.8 2.8 0 0 1 .28-1.27c1.17-2.82 4.79-6 8-6a3.34 3.34 0 0 1 3.05 2.21c.23-.66.8-1.74 1.6-1.74s1.17 1.08 1.17 1.83c0 1.36-1 2.35-1.93 3.24 0 .28.09.61.09.89s0 .8-.47.8-.61-.42-.75-.7l-.09.09a93.14 93.14 0 0 0-4.51 13.68 41 41 0 0 1 8.84-8.27.53.53 0 0 1 .38-.14.46.46 0 0 1 .49.48zm-6.48-6.09l.85-2.16c-.28-1.32-.8-2.77-2.4-2.77-2.21 0-6.39 3.48-6.39 5.78a1.62 1.62 0 0 0 1.6 1.74c1.64-.01 5.02-1.56 6.34-2.59zm-5.87 20.16c-.38.8-1.46 2.26-1.46 3 0 .23.09.38.33.38.75.01 1-2.77 1.12-3.38zm8.13-22.61a1.68 1.68 0 0 0 .09.47c.33-.33.89-.8.89-1.32 0-.19-.09-.47-.33-.47s-.66 1.09-.66 1.33z" fill="#fff"/><path d="M240.49 22.56a4.59 4.59 0 0 0 3.76 3.76c.38.09 1.32 0 1.32.56a.52.52 0 0 1-.52.52 6.39 6.39 0 0 1-6.44-5.45c-1.18 2.77-3.71 6.63-7.14 6.63-2.35 0-3.67-1.83-3.67-4a9.8 9.8 0 0 1 .8-3.52 45 45 0 0 0-7.43 4.09c-4.09 2.63-7 5.12-7.43 5.12a.47.47 0 0 1-.47-.47.7.7 0 0 1 .19-.42 92 92 0 0 1 13.44-9.07c.71-.38 2.16-1.36 3-1.36.56 0 .94.19.94.71 0 1.17-1.6 2.87-1.6 5.12a2.28 2.28 0 0 0 2.44 2.49 2.77 2.77 0 0 0 1.6-.47c2.3-1.5 3.24-3.85 4.37-6.25.33-.66.89-1.55 1.74-1.55 1.39-.06.96 2.62 1.1 3.56z" fill="#fff"/><path d="M260.6 27.21a8.92 8.92 0 0 1-1.93.19c-1.79 0-3.9-1.08-4.37-2.91-3 1.5-5.92 2.91-9.35 2.91a.52.52 0 0 1-.52-.52.51.51 0 0 1 .52-.47 13.88 13.88 0 0 0 4.14-.71 38.54 38.54 0 0 0 5.08-2.4 7.46 7.46 0 0 1 3.9-6.06 3.26 3.26 0 0 1 1.64-.38c1.22 0 2.58.71 2.58 2.07a2.39 2.39 0 0 1-.28 1 3.27 3.27 0 0 1-1.22 1c-.61.38-1.22.66-1.83 1-1.08.61-2.16 1.27-3.29 1.83a3 3 0 0 0 3.05 2.63 7 7 0 0 0 4.42-1.27 11.34 11.34 0 0 1 1-.75c.19 0 .23.09.23.28.04 1.53-2.59 2.33-3.77 2.56zm-4.82-4.75a30.58 30.58 0 0 0 4.51-2.82.87.87 0 0 0 .23-.56c0-.56-.61-.75-1.08-.75-1.94 0-3.39 2.4-3.66 4.13zM295.38 27.4c-4.18 0-4.84-4.14-5.87-4.14s-2.54 5.08-6.58 5.08a2.41 2.41 0 0 1-2.63-2.58c0-2.82 3.85-6.63 6.72-6.63a3.09 3.09 0 0 1 2.87 1.5c1.36-.14 1.46 1.27 1.74 2.21a7.82 7.82 0 0 0 .56 1.46 3.68 3.68 0 0 0 3.2 2.11.51.51 0 0 1 .52.47.52.52 0 0 1-.53.52zm-12.12-.42c1.32 0 2.77-1.83 3.48-2.82.52-.75.94-1.65 1.5-2.4-.38-.61-.75-1.17-1.55-1.17-1.93 0-4.75 3.15-4.75 5a1.25 1.25 0 0 0 1.32 1.39z" fill="#fff"/><path d="M320.29 22.04c.56 2 1 4.37 3.52 4.37a.51.51 0 0 1 .52.47.52.52 0 0 1-.52.52c-5.12 0-4.42-6.2-5.92-6.2-1.32 0-4 6.34-6.2 6.34-1 0-1.36-.89-1.36-1.74 0-1.55.8-3.24.8-4.65 0-.61-.09-1.32-.85-1.32-2.87 0-8.46 7.57-13.72 7.57-.47 0-1.79.24-1.79-.52a.51.51 0 0 1 .52-.47 12.05 12.05 0 0 0 7.33-2.82c1.64-1.22 4.61-4.09 6.3-4.79a3.86 3.86 0 0 1 1.41-.33 2.21 2.21 0 0 1 2.21 2.44c0 1.5-.94 3.2-.94 4.61 0 .24 0 .56.33.56 1 0 4.14-6.63 6.39-6.63 1.17.01 1.69 1.65 1.97 2.59z" fill="#fff"/><path d="M340.6 14.66c0 1.18-3.29 1.22-4.09 1.27a1.94 1.94 0 0 1-.19.47 17.24 17.24 0 0 0-1.55 6.06 3.6 3.6 0 0 0 1.13 2.91 4.61 4.61 0 0 0 2.58 1c.24 0 .52.19.52.47a.52.52 0 0 1-.52.52 4.58 4.58 0 0 1-4.79-4.75 15.43 15.43 0 0 1 .38-3c-1.69 3-6.72 7.71-10.34 7.71a.52.52 0 0 1-.52-.52c0-.28.28-.42.52-.47a10.28 10.28 0 0 0 4.75-2.35 20.84 20.84 0 0 0 6.06-8c-.75 0-1.46.09-2.21.09-.42 0-1.46-.14-1.46-.75 0-.94 3.48-.85 4.28-.85.23-.61 1-3.05 1.83-3.05.61 0 .71 1 .71 1.46a6.7 6.7 0 0 1-.52 1.55 17 17 0 0 1 2.68 0c.18.05.75-.1.75.23z" fill="#fff"/><path d="M355.78 18.94a2.38 2.38 0 0 1-.28 1 3.59 3.59 0 0 1-1.17 1c-.61.38-1.27.66-1.88 1-1.13.61-2.16 1.27-3.29 1.83.19 1.79 1.36 2.4 3 2.63.24 0 .52.19.52.47a.52.52 0 0 1-.52.52 4.55 4.55 0 0 1-4.37-2.91c-3 1.46-5.92 2.91-9.3 2.91a.53.53 0 0 1-.56-.52.51.51 0 0 1 .52-.47 13.62 13.62 0 0 0 4.13-.71 42.08 42.08 0 0 0 5.12-2.4c0-2.77 2.54-6.44 5.55-6.44a2.32 2.32 0 0 1 2.53 2.09zm-2 .71a.78.78 0 0 0 .24-.56c0-.56-.56-.75-1-.75-2 0-3.34 2.44-3.71 4.14a30.58 30.58 0 0 0 4.47-2.84z" fill="#fff"/><path d="M379.18 20.96a4 4 0 0 1 1.74 3.29c0 3.15-3.2 5-6 5.69a18.24 18.24 0 0 1-4.23.47c-.38 0-1.32-.19-1.32-.71s.75-.61 1.13-.61a16.45 16.45 0 0 0 4-.38 6.26 6.26 0 0 0 4.18-2.49 3.42 3.42 0 0 0 .61-2c0-2.54-4.7-5.08-6.3-6.91a45.88 45.88 0 0 1-8.13 6.3 26.41 26.41 0 0 1-12.69 3.76.51.51 0 0 1-.52-.47.52.52 0 0 1 .52-.52 15.69 15.69 0 0 0 4.18-.52 47.73 47.73 0 0 0 5.64-2.11 38.3 38.3 0 0 0 8.41-5.55l2-1.88a3.2 3.2 0 0 1-.38-1.46c0-1.74 1.74-4.23 3.62-4.23a1.42 1.42 0 0 1 1.46 1.5c0 1.6-1.83 3.34-3 4.23h-.09c1.6 1.69 3.43 3.1 5.17 4.6zm-5.78-6.06v.52c.56-.52 2.26-2.11 2.26-3a.38.38 0 0 0-.42-.38c-.95.04-1.84 2.06-1.84 2.86zM386.05 25.43a1.32 1.32 0 0 1 1.27 1.22 1 1 0 0 1-1 1 1.14 1.14 0 0 1-1.27-1.27.76.76 0 0 1 .28-.71 1 1 0 0 1 .72-.24z" fill="#fff"/></svg>