<svg xmlns="http://www.w3.org/2000/svg" viewBox="0 0 424.41 44.53"><title>p6_s4</title><path d="M30.33 1.52c0 .88-1.17 1-1.9 1-1.61 0-3.5-.36-5.47-.36a41.74 41.74 0 0 0-8.18.66c-.88 0-.8-.07-4.82 17.52l.07.07a2.25 2.25 0 0 1 .73-.07l.66-.15c3.28-.44 9.42-.66 9.49-.66h.07c.95-.07 2-.07 3-.07 2.92 0 3.43.44 3.43.95 0 1.24-3.94 1.09-10.37 1.82h-.58c-2.41.22-6.06.8-7.23.8v.07c-1.46 6.13-2.63 10.66-3.5 13.87v.07l.73-.07c6.79-.88 11.53-1.68 17.15-2.34a15.23 15.23 0 0 1 1.68-.22c1.53 0 2.41.51 2.41 1.31s-1.31.88-3.58.88a22.79 22.79 0 0 1-3 .44h-.51c-4.16.8-8 .95-12.12 1.61-1.1.22-2.34.51-3.36.66-.58 2-1.24 3.21-1.83 3.21a1.08 1.08 0 0 1-.88-1.17 5.93 5.93 0 0 1 .29-1.39v-.15l-.07.07a6.82 6.82 0 0 1-1.82.29 1 1 0 0 1-.88-.95c0-.8.58-1.31 3.36-1.75l.07-.07c0-.07.07-.22.07-.29l3.36-14h-.44c-.37 0-.66-.22-.66-.51 0-.51.22-1.17 1.61-1.61l2.7-10.95c.51-2.63 1.46-5.55 1.68-7l.07-.07h-.07c-1.53.29-2.56.37-3.21.44s-1.1-.22-1.1-.73.15-1.24 5.55-2c2.63-.37 9.34-.73 10.44-.73a19.58 19.58 0 0 1 5.18.51c.58.2 1.78.27 1.78 1.06zM76.58 27.23c0 3.72-7.15 5-9.85 6a1.05 1.05 0 0 1-.51.15c0 .29-.07.51-.07.8 0 2.85 2 4.38 4.74 4.6.44.07.8.22.8.73a.81.81 0 0 1-.8.8c-3.5 0-7.23-2.56-7-6.35a27 27 0 0 1-4.82.51c-.66 0-2.19-.44-2.19-1.31 0-.51.8-.51 1.17-.51a29.42 29.42 0 0 0 6.2-.73c0-.07.07-.22.07-.29a11.19 11.19 0 0 1 5.62-7.11 5.07 5.07 0 0 1 2.55-.58c1.97 0 4.09 1.1 4.09 3.29zm-3-.07c0-.73-.8-.95-1.46-.95-2.63 0-4.67 2.85-5.47 5.11 1.61-.29 6.93-2.19 6.93-4.16z" fill="#3c1604"/><path d="M105.63 37.45a8.84 8.84 0 0 0 4.53 1.31.8.8 0 0 1 .8.73.81.81 0 0 1-.8.8 9.11 9.11 0 0 1-4.6-.88 22.83 22.83 0 0 1-5-3.8c-.73.73-6.64 7.08-7.74 7.08a.52.52 0 0 1-.51-.58c0-1.82 5.18-6.93 6.42-8.25-.58-.8-3.72-4-4.6-4a3.69 3.69 0 0 0-1.68.66c-1.31.8-2.48 1.75-3.72 2.63a57.68 57.68 0 0 1-7.4 4.37c-3.8 1.9-6.28 2.77-10.58 2.77a.75.75 0 0 1-.73-.8c0-.66.51-.73 1-.73 3-.07 7.45-1.75 10-3.14a65 65 0 0 0 10.8-7.52 8.61 8.61 0 0 1 1.61-1.24 1.85 1.85 0 0 1 .88-.15 1.6 1.6 0 0 1 1.24.51c1.61 1.61 3.21 3.36 4.67 5.11l4.82-4.89a29.06 29.06 0 0 1 2.12-2.12 3.56 3.56 0 0 1 2-1.09c.66 0 1 .66 1 1.31a1.47 1.47 0 0 1-.37 1 26.86 26.86 0 0 1-2.55 2.41c-1.83 1.68-3.58 3.43-5.33 5.18a40 40 0 0 0 3.72 3.32z" fill="#3c1604"/><path d="M129.33 26.79a2.52 2.52 0 0 1 .51 1.9c0 2.77.66 6.35 2.56 8.47 1.24 1.39 1.9 1.39 3.65 1.61.37.07.8.29.8.73a.81.81 0 0 1-.8.8c-5.26 0-7.88-5.4-8.18-10a26 26 0 0 1-9.68 8.22 17.63 17.63 0 0 1-8.18 1.83.81.81 0 0 1-.8-.8.8.8 0 0 1 .8-.73 14.69 14.69 0 0 0 7.23-1.75 22.47 22.47 0 0 0 7.74-7.08c.66-.95 2-3.58 3.29-3.58a1.33 1.33 0 0 1 1.06.38zm-1.39-11.39c0-.73.66-1 1.31-1 1.17 0 1.75 1.53 1.75 2.56 0 .58-.29 1.09-.88 1.09-1.06-.02-2.22-1.7-2.22-2.65z" fill="#3c1604"/><path d="M168.19 24.67c-3.94 3.5-7.88 7.23-12.48 9.78-6.06 3.36-12.77 5.84-19.78 5.84a.75.75 0 0 1-.73-.8.78.78 0 0 1 .73-.73 24.92 24.92 0 0 0 6.57-.8 74.38 74.38 0 0 0 8.76-3.29 56.6 56.6 0 0 0 13-8.61l3.07-2.92a5 5 0 0 1-.58-2.26c0-2.7 2.7-6.57 5.62-6.57a2.2 2.2 0 0 1 2.26 2.34c0 3.07-3 4.74-4.75 6.64 2.45 2.77 5.45 4.82 8.31 7.23a7.84 7.84 0 0 1 2.26 3.28 23.66 23.66 0 0 0 9-3.65 17.22 17.22 0 0 0 6.42-7.52c-1.17.07-2.26.15-3.43.15-.73 0-2.26-.22-2.26-1.17 0-1.46 5.48-1.31 6.64-1.31.36-.95 1.61-4.75 2.85-4.75.88 0 1 1.46 1 2a6.74 6.74 0 0 1-.73 2.63 37.58 37.58 0 0 1 4.09-.15c.29 0 1.24-.07 1.24.44 0 1.83-5.11 1.9-6.35 2v.05a27.58 27.58 0 0 0-2.7 10.15 5.77 5.77 0 0 0 1.68 4.53 8.23 8.23 0 0 0 4.09 1.53c.37.07.8.29.8.73a.81.81 0 0 1-.8.8c-4.31 0-7.59-2.92-7.59-7.23a32.09 32.09 0 0 1 .88-5.91 24.29 24.29 0 0 1-14.53 8c.44 5.69-6.94 9.34-11.83 9.34-2 0-4.53-.8-4.53-3.29 0-5.33 9.85-6.86 13.72-7.23v-.07c-1.83-3.72-7.45-6.2-9.85-9.34zm10.29 11.17v-.44c-3 .29-12.12 1.46-12.12 5.55 0 1.53 1.39 2 2.7 2 3.73.05 9.42-2.8 9.42-7.11zm-9.49-15a2.73 2.73 0 0 0 .07.8c.88-.8 3.5-3.28 3.5-4.53a.61.61 0 0 0-.66-.66c-1.57.07-2.91 3.19-2.91 4.43z" fill="#3c1604"/><path d="M226.23 40a13.89 13.89 0 0 1-3 .29c-2.77 0-6.06-1.68-6.79-4.53-4.67 2.34-9.2 4.53-14.53 4.53a.81.81 0 0 1-.8-.8.8.8 0 0 1 .8-.73 21.58 21.58 0 0 0 6.42-1.09 59.86 59.86 0 0 0 7.88-3.72c.37-3.8 2.48-7.74 6.06-9.42a5.07 5.07 0 0 1 2.56-.58c1.9 0 4 1.09 4 3.21a3.71 3.71 0 0 1-.44 1.53 5.08 5.08 0 0 1-1.9 1.61c-.95.58-1.9 1-2.85 1.53-1.68.95-3.36 2-5.11 2.85 0 2.41 2.48 4.09 4.75 4.09a11 11 0 0 0 6.86-2 17.42 17.42 0 0 1 1.61-1.17c.29 0 .36.15.36.44.03 2.36-4.13 3.6-5.88 3.96zm-7.52-7.37c1.1-.51 6.35-3.58 7-4.38a1.34 1.34 0 0 0 .36-.88c0-.88-.95-1.17-1.68-1.17-2.98.01-5.25 3.8-5.68 6.43zM291.7 30.08c2 3.14.95 8.18 5.77 8.69.44.07.73.29.73.73a.75.75 0 0 1-.73.8c-7.37 0-5.91-8.69-8.39-8.69-.66 0-1.17.66-1.53 1.17-1.39 1.9-3.65 5.33-5.33 6.79a3.12 3.12 0 0 1-2 .73 2.57 2.57 0 0 1-2.31-1.78c-.8-2.19-1.31-4.45-2.26-6.57-.22-.51-.51-1.31-1.17-1.31-2 0-6.2 9.85-9.64 9.85-1.53 0-2.12-1.39-2.12-2.7 0-2.41 1.24-5 1.24-7.23 0-.95-.22-2-1.31-2-2 0-4.6 2.63-6 2.63a.78.78 0 0 1-.73-.66c0-1.53 5.11-4.09 6.79-4.09 2.26 0 3.43 1.75 3.43 3.8 0 2.34-1.46 4.89-1.46 7.15 0 .36 0 .88.44.88 1.53 0 6.64-10.29 9.93-10.29 3.8 0 3.29 9.49 5.62 9.49 2 0 5.26-8.69 8.69-8.69a2.79 2.79 0 0 1 2.34 1.3z" fill="#3c1604"/><path d="M321.41 39.27c3.58-2.41 4.89-6 6.72-9.71.51-1 1.46-2.41 2.7-2.41 2.26 0 1.61 4.09 1.82 5.62a7.05 7.05 0 0 0 5.84 5.84c.58.15 2 0 2 .88a.81.81 0 0 1-.8.8 9.93 9.93 0 0 1-10-8.47 11.55 11.55 0 0 1-1.36 2.7c-2.12 3.58-5.18 7.67-9.78 7.67-3.8 0-5.62-3.21-5.62-6.64a12.33 12.33 0 0 1 .44-3.28 26.66 26.66 0 0 1-8 6.2 17.63 17.63 0 0 1-8.18 1.83.75.75 0 0 1-.73-.8.79.79 0 0 1 .73-.73 15 15 0 0 0 7.3-1.75 26.9 26.9 0 0 0 8.1-7.08c.66-1 2.26-3.72 3.72-3.72a1.54 1.54 0 0 1 1.46 1.61c0 2-2.7 4.75-2.7 8.32a3.6 3.6 0 0 0 3.8 3.94 4.43 4.43 0 0 0 2.54-.82z" fill="#3c1604"/><path d="M358.79 26.79a2.52 2.52 0 0 1 .51 1.9c0 2.77.66 6.35 2.55 8.47 1.24 1.39 1.9 1.39 3.65 1.61.36.07.8.29.8.73a.81.81 0 0 1-.8.8c-5.26 0-7.88-5.4-8.18-10a26 26 0 0 1-9.62 8.22 17.63 17.63 0 0 1-8.18 1.83.81.81 0 0 1-.8-.8.8.8 0 0 1 .8-.73 14.7 14.7 0 0 0 7.23-1.75 22.49 22.49 0 0 0 7.74-7.08c.66-.95 2-3.58 3.28-3.58a1.33 1.33 0 0 1 1.02.38zM357.4 15.4c0-.73.66-1 1.31-1 1.17 0 1.75 1.53 1.75 2.56 0 .58-.29 1.09-.88 1.09-1.01-.02-2.18-1.7-2.18-2.65z" fill="#3c1604"/><path d="M391.57 20.52c0 1.83-5.11 1.9-6.35 2a3 3 0 0 1-.29.73 26.78 26.78 0 0 0-2.41 9.42 5.59 5.59 0 0 0 1.75 4.53 7.16 7.16 0 0 0 4 1.53c.37.07.8.29.8.73a.81.81 0 0 1-.8.8 7.11 7.11 0 0 1-7.45-7.37 24 24 0 0 1 .58-4.6c-2.63 4.6-10.44 12-16.06 12a.81.81 0 0 1-.8-.8c0-.44.44-.66.8-.73 2.77-.36 5.18-2 7.37-3.65a32.38 32.38 0 0 0 9.42-12.48c-1.17.07-2.26.15-3.43.15-.66 0-2.26-.22-2.26-1.17 0-1.46 5.4-1.31 6.64-1.31.37-.95 1.61-4.75 2.85-4.75.95 0 1.1 1.61 1.1 2.26a10.39 10.39 0 0 1-.8 2.41 26.41 26.41 0 0 1 4.16 0c.3 0 1.18-.22 1.18.3z" fill="#3c1604"/><path d="M424.42 37.6c0 1.83-3.8 2.7-5.26 2.7-6.57 0-7.52-6.42-9.12-6.42-1.82 0-3.94 7.88-10.29 7.88a3.66 3.66 0 0 1-4-3.94v-.37c-2.34 1.68-4.09 2.85-7.08 2.85-.58 0-1.17-.07-1.17-.8a.8.8 0 0 1 .8-.73c3.28 0 6-2.34 8.39-4.38 1.75-3.21 5.62-6.93 9.49-6.93a5 5 0 0 1 4.45 2.34 2 2 0 0 1 2 1.24 12.44 12.44 0 0 1 .7 2.18c.8 2.85 2.55 5.55 5.84 5.55 2.26 0 4.53-1.68 4.82-1.68s.43.21.43.51zm-16.36-6.08c-.58-.95-1.17-1.83-2.41-1.83-3 0-7.37 4.89-7.37 7.81a1.94 1.94 0 0 0 2 2.12c3.33.02 6.05-5.82 7.78-8.1z" fill="#3c1604"/></svg>