<svg xmlns="http://www.w3.org/2000/svg" viewBox="0 0 611.87 58.74"><title>p7_s3</title><path d="M15.9 0c3.84 0 6.84 1.8 6.84 4.92 0 7.56-11.22 10.32-15.24 12.42l-5.4 16c-.42 1.2-1 1.86-1.38 1.86-.24 0-.72-.36-.72-1.14a17.09 17.09 0 0 1 1.08-3.6c1.2-3.72 2.7-8 4-12.06a2.24 2.24 0 0 1-.6.06c-.66 0-1.8-.48-1.8-1 0-.3.78-.84 3.24-1.44 1.74-5.34 3.36-9.78 3.72-11l.54-1.8a16.78 16.78 0 0 0-2.76 1.74c-1.2 1-2.16 2.58-2.94 2.58a1.22 1.22 0 0 1-1.26-1.2c0-.66.78-1.38 2.22-2.28a35.49 35.49 0 0 1 4.14-2.7A14.55 14.55 0 0 1 15.9 0zm4.32 5.16c0-2-1.5-3.54-4.2-3.54a10.76 10.76 0 0 0-3.36.6c-.72 2.34-2.46 7.38-4.44 13 3.9-1.38 8-3.3 10.5-6.42a5.92 5.92 0 0 0 1.5-3.64zM30.12 25.56a23.36 23.36 0 0 0 3.54.18.67.67 0 0 1 .66.66.67.67 0 0 1-.66.66 23.27 23.27 0 0 1-3.9-.24c-1.2 3.18-4.74 6.06-8 6.06-2.52 0-3.84-2.16-3.84-4.44 0-2.7 1.56-5.34 3.24-7.32 1.14-1.32 3.08-3.24 4.88-3.24s2.4 1.5 2.4 3a4.44 4.44 0 0 1 1.74 3.72 5.2 5.2 0 0 1-.06.96zm-2.16.78c-1.8-.6-3.36-1.74-3.36-3.9 0-1.26 1-1.92 2.34-2a1.22 1.22 0 0 0-1-.66 2.39 2.39 0 0 0-1.5.54c-2.28 1.62-4.56 5.52-4.56 8.34a2.46 2.46 0 0 0 2.52 2.64c1.66-.04 4.54-2.08 5.56-4.96zm.34-1.26c0-.24.06-.54.06-.84 0-1.26-.66-2.28-1.68-2.28-.24 0-.36.24-.36.48a2.7 2.7 0 0 0 1.98 2.64z" fill="#fff"/><path d="M65.75 21.9c0 .24-.24.3-.42.3a10.49 10.49 0 0 1-2-.3 14.24 14.24 0 0 0-2.28-.12c-6.42 0-10.68 3.66-14.28 8.64-.48.6-1.38 1.86-2.22 1.86-2.22 0-1.5-6.84-1.74-8.28-.06-.3-.18-.66-.54-.66a1.35 1.35 0 0 0-.9.48 13.74 13.74 0 0 1-3.84 2.52 11.28 11.28 0 0 1-4 .72.67.67 0 0 1-.66-.66.67.67 0 0 1 .66-.66 10.13 10.13 0 0 0 3-.48 11.33 11.33 0 0 0 4.08-2.82 3.38 3.38 0 0 1 2.16-1.26c1.8 0 1.74 2.82 1.74 4s.06 2.58.06 3.9c0 .24 0 .84.42.84.24 0 1.56-1.68 1.74-1.86a29.6 29.6 0 0 1 3.3-3.42 18.41 18.41 0 0 1 11.64-4.26c1.02.02 4.08.08 4.08 1.52zM100.3 20.22a2.22 2.22 0 0 1 .42 1.62c0 2.16.6 5.28 2 7a3.76 3.76 0 0 0 1.38 1c.6.24 2.34.12 2.34.9a.67.67 0 0 1-.66.66c-4.32 0-6.48-4.44-6.72-8.22-1.08 2.58-4 5.64-6.18 7.32a12.37 12.37 0 0 1-7.58 2.86c-.54 0-2.28-.18-2.28-1 0-.42.9-.42 1.2-.42a10.71 10.71 0 0 0 4.14-.66 15.77 15.77 0 0 0 4.5-2.94 16.65 16.65 0 0 0 4.56-6 6.68 6.68 0 0 1 1.08-2 1.37 1.37 0 0 1 1-.48 1 1 0 0 1 .8.36zm-1.14-9.3c0-.6.54-.84 1.08-.84 1 0 1.44 1.26 1.44 2.1 0 .48-.24.9-.72.9-.77 0-1.79-1.44-1.79-2.16z" fill="#fff"/><path d="M143.03 32.22a4.24 4.24 0 0 1 1.74-3.06c2.28-2 6.66-2.52 9.6-2.94-1.38-3-5.82-5.28-8-7.74a41.21 41.21 0 0 1-10.14 7 4.94 4.94 0 0 1 .48 1.74c.3 4.68-5.7 7.68-9.72 7.68-1.68 0-3.72-.66-3.72-2.7 0-4 6.9-5.88 10.26-7.2-2-2.28-5.76-4.62-7.14-6.48a92.73 92.73 0 0 1-11.09 9.38c-3.3 2.34-5.28 3.48-9.48 3.48a.67.67 0 0 1-.72-.6.67.67 0 0 1 .66-.66 13.51 13.51 0 0 0 6.54-2c4.92-2.82 9.18-7 13.32-10.8a3.28 3.28 0 0 1-.54-1.68c0-2.34 2.1-5.58 4.62-5.58a1.81 1.81 0 0 1 1.86 1.92c0 2-2.34 4.26-3.78 5.4a66 66 0 0 0 6.9 6l.78.78a35.19 35.19 0 0 0 10.08-6.78 4.33 4.33 0 0 1-.48-1.92c0-2.22 2.22-5.4 4.62-5.4a1.81 1.81 0 0 1 1.86 1.92c0 2-2.34 4.26-3.84 5.4-.06 0-.06.06-.12.06 2.1 2 4.5 3.84 6.72 5.76a6.57 6.57 0 0 1 1.92 2.7c.6-.06 1.92-.12 2.28-.12a.66.66 0 0 1 .66.66.67.67 0 0 1-.66.66c-.24 0-1.2 0-2 .06.66 4.74-5.64 7.74-9.54 7.74-1.83-.04-3.93-.64-3.93-2.68zm-8.58-6c-3 1.14-9.54 3.24-9.54 5.7 0 1.26 1.14 1.68 2.22 1.68 3.06 0 7.74-2.4 7.74-5.94a3.29 3.29 0 0 0-.42-1.44zm-7.56-10.8a2.25 2.25 0 0 0 .06.66c.72-.66 2.88-2.7 2.88-3.72a.5.5 0 0 0-.53-.56c-1.27 0-2.41 2.6-2.41 3.62zm27.78 12.38v-.36c-2.52.24-10 1.2-10 4.62 0 1.2 1.2 1.56 2.22 1.56 3.04-.02 7.78-2.36 7.78-5.82zm-7.86-12.3v.18l.06.42c.72-.66 2.88-2.7 2.88-3.72a.48.48 0 0 0-.54-.54c-1.2-.04-2.4 2.62-2.4 3.64z" fill="#fff"/><path d="M183.89 26.7c0 1-1.68 1.08-2.4 1.08a8.71 8.71 0 0 1-3.06-.3 8.85 8.85 0 0 1-7.86 5.46c-2.64 0-3.84-2.28-3.84-4.62a9.29 9.29 0 0 1 .84-3.6 18.83 18.83 0 0 1-9.18 2.34.62.62 0 0 1-.6-.66.6.6 0 0 1 .66-.66c3.78 0 7.32-1.62 10.56-3.48 1.14-1.68 3.54-4.14 5.7-4.14 1.74 0 2.46 1.68 2.46 3.18a4.52 4.52 0 0 1 1.74 3.72 7.35 7.35 0 0 1-.12 1.14 8.16 8.16 0 0 0 2.7.36c.48 0 1-.12 1.44-.12.18 0 .96.06.96.3zm-7 0c-1.14-.36-3.6-2.64-3.6-4a2.05 2.05 0 0 1 2.28-1.86c-.18-.36-.42-.72-.9-.72a3.79 3.79 0 0 0-1.38.48 10.5 10.5 0 0 0-4.68 8.1 2.21 2.21 0 0 0 2.34 2.46 6.58 6.58 0 0 0 5.98-4.46zm.24-1.62c0-.84-.72-2.7-1.74-2.7-.3 0-.42.3-.42.54 0 1.08 1.56 1.74 2.16 2.34zM214.3 20.1c0 .24-.18.3-.36.3-.66 0-1-.9-2.28-.9-2.64 0-4.86 4.56-4.86 6.84s1.62 3.54 3.78 3.78c.36.06.6.18.6.6a.62.62 0 0 1-.6.66c-2.82 0-5.76-2-5.76-5s2.82-8.22 6.24-8.22c.97-.04 3.24.74 3.24 1.94z" fill="#fff"/><path d="M240.41 25.56a23.37 23.37 0 0 0 3.54.18.67.67 0 0 1 .66.66.67.67 0 0 1-.66.66 23.26 23.26 0 0 1-3.9-.24c-1.2 3.18-4.74 6.06-8 6.06-2.52 0-3.84-2.16-3.84-4.44a8.16 8.16 0 0 1 .54-2.88c-5.34 2.34-12.54 5.82-18.24 5.82a.62.62 0 0 1-.6-.66.65.65 0 0 1 .6-.6 19 19 0 0 0 5.16-.9 69.82 69.82 0 0 0 14-5.76 23.74 23.74 0 0 1 1.74-2.34c1.08-1.32 3.06-3.24 4.86-3.24s2.4 1.5 2.4 3a4.44 4.44 0 0 1 1.74 3.72 5.16 5.16 0 0 1 0 .96zm-2.16.78c-1.8-.6-3.36-1.74-3.36-3.9 0-1.26 1-1.92 2.34-2a1.22 1.22 0 0 0-1-.66 2.39 2.39 0 0 0-1.5.54c-2.28 1.62-4.56 5.52-4.56 8.34a2.46 2.46 0 0 0 2.52 2.64c1.66-.04 4.54-2.08 5.61-4.96zm.36-1.26c0-.24.06-.54.06-.84 0-1.26-.66-2.28-1.68-2.28-.24 0-.36.24-.36.48a2.7 2.7 0 0 0 1.98 2.64z" fill="#fff"/><path d="M269.75 24.54c.78 2.52 1.14 5.58 4.5 5.58a.65.65 0 0 1 .66.6.67.67 0 0 1-.66.66c-6.6 0-5.58-7.92-7.56-7.92-1.68 0-5.1 8.1-7.92 8.1-1.26 0-1.74-1.14-1.74-2.22 0-2 1-4.14 1-5.94 0-.78-.18-1.56-1.08-1.56-2.34 0-6.78 5.22-13.08 5.22a.67.67 0 0 1-.66-.66.67.67 0 0 1 .66-.66 12.86 12.86 0 0 0 4.68-1.2c2.34-1.14 6.12-4.56 8.46-4.56a2.82 2.82 0 0 1 2.82 3.12c0 1.86-1.2 4.08-1.2 5.88 0 .3 0 .72.36.72 1.32 0 5.4-8.46 8.16-8.46 1.64 0 2.24 2.1 2.6 3.3z" fill="#fff"/><path d="M295.67 15.12c0 1.5-4.2 1.56-5.22 1.62v.06a2.49 2.49 0 0 1-.24.6 22 22 0 0 0-2 7.74 4.59 4.59 0 0 0 1.44 3.72 5.88 5.88 0 0 0 3.3 1.26c.3.06.66.24.66.6a.67.67 0 0 1-.66.66 5.84 5.84 0 0 1-6.12-6.06 19.76 19.76 0 0 1 .48-3.78c-2.16 3.78-8.58 9.84-13.2 9.84a.67.67 0 0 1-.66-.66c0-.36.36-.54.66-.6a13.12 13.12 0 0 0 6.06-3 26.6 26.6 0 0 0 7.74-10.26c-1 .06-1.86.12-2.82.12-.54 0-1.86-.18-1.86-1 0-1.2 4.44-1.08 5.46-1.08.3-.78 1.32-3.9 2.34-3.9.78 0 .9 1.32.9 1.86a8.52 8.52 0 0 1-.66 2 21.73 21.73 0 0 1 3.42 0c.26.02.98-.16.98.26z" fill="#fff"/><path d="M312.95 31.14a11.42 11.42 0 0 1-2.46.24c-2.28 0-5-1.38-5.58-3.72-3.84 1.92-7.56 3.72-11.94 3.72a.67.67 0 0 1-.66-.66.65.65 0 0 1 .66-.6 17.73 17.73 0 0 0 5.28-.9 49.28 49.28 0 0 0 6.48-3.06c.3-3.12 2-6.36 5-7.74a4.16 4.16 0 0 1 2.1-.48c1.56 0 3.3.9 3.3 2.64a3.06 3.06 0 0 1-.36 1.26 4.18 4.18 0 0 1-1.56 1.32c-.78.48-1.56.84-2.34 1.26-1.38.78-2.76 1.62-4.2 2.34 0 2 2 3.36 3.9 3.36a9 9 0 0 0 5.64-1.62 14.33 14.33 0 0 1 1.32-1c.24 0 .3.12.3.36-.02 1.94-3.44 2.94-4.88 3.28zm-6.18-6.06a39.07 39.07 0 0 0 5.76-3.6 1.11 1.11 0 0 0 .3-.72c0-.72-.78-1-1.38-1-2.46.04-4.32 3.16-4.68 5.32zM348.17 20.1c0 .24-.18.3-.36.3-.66 0-1-.9-2.28-.9-2.64 0-4.86 4.56-4.86 6.84s1.62 3.54 3.78 3.78c.36.06.6.18.6.6a.62.62 0 0 1-.6.66c-2.82 0-5.76-2-5.76-5s2.82-8.22 6.24-8.22c1.02-.04 3.24.74 3.24 1.94z" fill="#fff"/><path d="M374.3 25.56a23.36 23.36 0 0 0 3.54.18.67.67 0 0 1 .66.66.67.67 0 0 1-.66.66 23.26 23.26 0 0 1-3.9-.24c-1.2 3.18-4.74 6.06-8 6.06-2.52 0-3.84-2.16-3.84-4.44a8.16 8.16 0 0 1 .54-2.88c-5.34 2.34-12.54 5.82-18.24 5.82a.62.62 0 0 1-.6-.66.65.65 0 0 1 .6-.6 19 19 0 0 0 5.16-.9 69.83 69.83 0 0 0 14-5.76 23.58 23.58 0 0 1 1.74-2.34c1.08-1.32 3.06-3.24 4.86-3.24s2.4 1.5 2.4 3a4.44 4.44 0 0 1 1.74 3.72 5.2 5.2 0 0 1 0 .96zm-2.16.78c-1.8-.6-3.36-1.74-3.36-3.9 0-1.26 1-1.92 2.34-2a1.22 1.22 0 0 0-1-.66 2.39 2.39 0 0 0-1.5.54c-2.28 1.62-4.56 5.52-4.56 8.34a2.46 2.46 0 0 0 2.52 2.64c1.72-.04 4.57-2.08 5.59-4.96zm.36-1.26c0-.24.06-.54.06-.84 0-1.26-.66-2.28-1.68-2.28-.24 0-.36.24-.36.48a2.7 2.7 0 0 0 2.01 2.64z" fill="#fff"/><path d="M422.21 29.8c0 1.08-2.28 1.56-3.12 1.56a3.62 3.62 0 0 1-3.3-1.38 12.14 12.14 0 0 1-1.8-3.9c-.18-.54-.3-1.38-.78-1.68a.68.68 0 0 0-.48-.18c-.54 0-1 .54-1.26 1-1.08 1.44-3.12 4.5-4.38 5.58a2.56 2.56 0 0 1-1.62.6 2 2 0 0 1-1.92-1.44c-.66-1.74-1.08-3.66-1.86-5.4-.18-.42-.48-1.08-1-1.08-1.56 0-5 8.1-7.86 8.1-1.26 0-1.74-1.14-1.74-2.22 0-1.92 1-4.08 1-5.7 0-1-.06-1.92-1.32-1.92-.72 0-2.94 1.44-3.6 1.92a27.65 27.65 0 0 1-5.1 2.7 12.37 12.37 0 0 1-4.2.72.68.68 0 0 1-.72-.66.67.67 0 0 1 .66-.66 12 12 0 0 0 4.74-1.2c2.46-1.14 5.94-4.56 8.52-4.56a2.76 2.76 0 0 1 2.76 3.06c0 2.16-1.14 4.14-1.14 6.24 0 .24.12.42.36.42 1.32 0 5.28-8.4 8.16-8.4 3.12 0 2.64 7.74 4.56 7.74 1 0 4-4.74 4.62-5.58a3.31 3.31 0 0 1 2.52-1.56 2.29 2.29 0 0 1 1.92 1.08c1.56 2.46.6 6.72 4.32 7h.36c.84 0 1.56-.48 2.34-.48.18 0 .36.05.36.28zM466.07 29.15c0 1.5-3.12 2.22-4.32 2.22-5.46 0-6.18-5.28-7.56-5.28s-3.18 6.48-8.4 6.48a3 3 0 0 1-3.3-3.18c0-3.66 4.86-8.58 8.52-8.58a4 4 0 0 1 3.72 1.92 1.7 1.7 0 0 1 1.68 1 10 10 0 0 1 .48 1.8c.54 2.22 2.34 4.56 4.8 4.56 2 0 3.78-1.38 4-1.38s.38.21.38.44zM446.3 30.8c2.7 0 4.92-4.8 6.36-6.66-.48-.78-1-1.5-2-1.5-2.52 0-6.06 4-6.06 6.42a1.59 1.59 0 0 0 1.7 1.74zM503.03 27.72c.06 1.38.12 2.76.12 4.14 0 9-3.6 20.34-9.84 25.44a5.93 5.93 0 0 1-3.78 1.44c-3.3 0-5.34-2.34-5.34-5.58 0-4.5 3.84-9.78 7.5-13.32 1.14-1.08 2.22-2.16 3.42-3.12.54-.48 3.6-3 4.14-3a.68.68 0 0 1 .66.72c0 .18-.18.36-.36.48a39.66 39.66 0 0 0-4.5 3.9c-3.72 3.54-8.94 8.94-8.94 14.16 0 2.1 1.2 3.78 3.42 3.78a6.32 6.32 0 0 0 4.68-2.58c4.68-6 7-13.68 7.44-22.26 0-.54.06-1 .06-1.56 0-.78 0-3.48-1.2-3.48a2.31 2.31 0 0 0-1.08.36 9 9 0 0 1 .12 1.26c0 .6-.24 1.56-1 1.56s-.54-1.26-.54-1.68c-1.88 1.42-4.28 3.72-6.71 3.72s-4.44-1.08-4.44-3.78c0-3.36 3.36-9.24 7.08-9.24 2.94 0 4.68 3.72 5.22 6.12a3.43 3.43 0 0 1 1.86-.6c1.65 0 1.95 1.8 2.01 3.12zm-5.16-1.5c-.3-1.92-1.8-4.86-4-4.86-2.52 0-4.86 4.2-4.86 6.48a2.06 2.06 0 0 0 2.29 2.22c2.73 0 4.65-2.26 6.57-3.84z" fill="#fff"/><path d="M522.77 20.58a3.06 3.06 0 0 1-.36 1.26 4.6 4.6 0 0 1-1.5 1.32c-.78.48-1.62.84-2.4 1.26-1.44.78-2.76 1.68-4.2 2.34.24 2.28 1.74 3.06 3.84 3.36.3.06.66.24.66.6a.67.67 0 0 1-.66.66c-2.28 0-5-1.44-5.58-3.78a88.15 88.15 0 0 0-9.18 4.68 40 40 0 0 1-4.14 2.7.66.66 0 0 1-.66-.6.68.68 0 0 1 .18-.48 27.55 27.55 0 0 1 2.76-1.92 76.64 76.64 0 0 1 10.92-5.88c0-3.54 3.3-8.16 7.08-8.16 1.5 0 3.24.86 3.24 2.64zm-2.58.9a1 1 0 0 0 .3-.72c0-.72-.72-1-1.32-1-2.58 0-4.26 3.12-4.74 5.28a39.07 39.07 0 0 0 5.76-3.56z" fill="#fff"/><path d="M555.7 24.54c.72 2.52 1.2 5.58 4.5 5.58a.65.65 0 0 1 .6.6.62.62 0 0 1-.6.66c-6.6 0-5.58-7.92-7.56-7.92-1.62 0-5.1 8.1-7.92 8.1-1.26 0-1.74-1.14-1.74-2.22 0-2 1-4.14 1-5.94 0-.9-.24-1.32-1.2-1.32-1.26 0-4 2-5.22 2.7-5.46 3.06-13.26 6.6-19.56 6.6a.62.62 0 0 1-.6-.66c0-.54.42-.6.84-.6 3.84-.06 8.64-1.92 12.18-3.42a72.62 72.62 0 0 0 10.26-5.82 4.21 4.21 0 0 1 2.34-.78 2.74 2.74 0 0 1 2.76 3c0 1.86-1.2 4.14-1.2 5.88 0 .3 0 .72.36.72 1.32 0 5.4-8.46 8.16-8.46 1.58 0 2.2 2.1 2.6 3.3z" fill="#fff"/><path d="M581.57 15.12c0 1.5-4.2 1.56-5.22 1.62v.06a2.45 2.45 0 0 1-.24.6 22 22 0 0 0-2 7.74 4.59 4.59 0 0 0 1.44 3.72 5.88 5.88 0 0 0 3.3 1.26c.3.06.66.24.66.6a.67.67 0 0 1-.66.66 5.84 5.84 0 0 1-6.12-6.06 19.73 19.73 0 0 1 .48-3.78c-2.16 3.78-8.58 9.84-13.2 9.84a.67.67 0 0 1-.66-.66c0-.36.36-.54.66-.6a13.11 13.11 0 0 0 6.06-3 26.6 26.6 0 0 0 7.74-10.26c-1 .06-1.86.12-2.82.12-.54 0-1.86-.18-1.86-1 0-1.2 4.44-1.08 5.46-1.08.3-.78 1.32-3.9 2.34-3.9.78 0 .9 1.32.9 1.86a8.5 8.5 0 0 1-.66 2 21.73 21.73 0 0 1 3.42 0c.25.02.98-.16.98.26z" fill="#fff"/><path d="M598.84 31.14a11.42 11.42 0 0 1-2.46.24c-2.28 0-5-1.38-5.58-3.72-3.84 1.92-7.56 3.72-11.94 3.72a.67.67 0 0 1-.66-.66.65.65 0 0 1 .66-.6 17.73 17.73 0 0 0 5.28-.9 49.33 49.33 0 0 0 6.48-3.06c.3-3.12 2-6.36 5-7.74a4.16 4.16 0 0 1 2.1-.48c1.56 0 3.3.9 3.3 2.64a3.06 3.06 0 0 1-.36 1.26 4.19 4.19 0 0 1-1.56 1.32c-.78.48-1.56.84-2.34 1.26-1.38.78-2.76 1.62-4.2 2.34 0 2 2 3.36 3.9 3.36a9 9 0 0 0 5.64-1.62 14.26 14.26 0 0 1 1.32-1c.24 0 .3.12.3.36-.02 1.94-3.42 2.94-4.88 3.28zm-6.18-6.06a39.07 39.07 0 0 0 5.76-3.6 1.11 1.11 0 0 0 .3-.72c0-.72-.78-1-1.38-1-2.46.04-4.32 3.16-4.67 5.32zM610.24 28.86a1.69 1.69 0 0 1 1.62 1.56 1.27 1.27 0 0 1-1.26 1.32 1.45 1.45 0 0 1-1.62-1.62 1 1 0 0 1 .36-.9 1.32 1.32 0 0 1 .9-.36z" fill="#fff"/></svg>