<svg xmlns="http://www.w3.org/2000/svg" viewBox="0 0 282.11 38.39"><defs><style>.a{fill:#fff}</style></defs><title>p7_s1</title><path class="a" d="M10.6 2.4c2.56 0 4.56 1.2 4.56 3.28 0 5-7.48 6.88-10.16 8.28L1.4 24.64c-.28.8-.64 1.24-.92 1.24S0 25.64 0 25.12a11.42 11.42 0 0 1 .72-2.4c.8-2.48 1.8-5.36 2.68-8a1.5 1.5 0 0 1-.4 0c-.44 0-1.2-.32-1.2-.64s.52-.56 2.16-1C5.12 9.52 6.2 6.56 6.44 5.76l.36-1.2a11.25 11.25 0 0 0-1.84 1.16c-.8.64-1.44 1.72-2 1.72a.82.82 0 0 1-.84-.8c0-.44.52-.92 1.48-1.52a23.47 23.47 0 0 1 2.76-1.8 9.68 9.68 0 0 1 4.24-.92zm2.88 3.44c0-1.36-1-2.36-2.8-2.36a7.16 7.16 0 0 0-2.24.4c-.48 1.56-1.64 4.92-3 8.68 2.6-.92 5.36-2.2 7-4.28a4 4 0 0 0 1.04-2.44zm16.2 16.64a.44.44 0 0 1 .4.44.43.43 0 0 1-.4.4c-2 0-4.32-1-4.32-3.36 0-1.64 1.12-3.4 1.12-5 0-1.16-1.2-1.52-2-2a1.74 1.74 0 0 1-.16.28 27.81 27.81 0 0 1-7 7.52 12.45 12.45 0 0 1-3.92 2.12 7.91 7.91 0 0 1-2.36.4c-.44 0-1.48-.08-1.48-.72 0-.36 1.08-.28 1.32-.28a10.14 10.14 0 0 0 4.4-1.52c2.4-1.36 6.88-5.72 8.16-8.36-.92-.48-2-1.16-2-2.36a1.76 1.76 0 0 1 1.8-1.64 2 2 0 0 1 1.92 2 4.12 4.12 0 0 1-.24 1.4c1.36.6 2.72 1.32 2.72 3s-.8 3.16-1.12 4.8a1.35 1.35 0 0 0 0 .4c0 1.64 1.8 2.48 3.16 2.48zm-5.8-11.16c0-.12.12-.64.12-.88s-.16-.8-.6-.8a.65.65 0 0 0-.64.6c0 .44.76.93 1.12 1.08z"/><path class="a" d="M46.07 19.44a15.53 15.53 0 0 0 2.36.12.44.44 0 0 1 .44.44.44.44 0 0 1-.44.44 15.47 15.47 0 0 1-2.6-.16c-.8 2.12-3.16 4-5.32 4a2.68 2.68 0 0 1-2.56-3 5.32 5.32 0 0 1 .12-1.12c-2.52 1.72-4.92 3.08-8 3.08-.36 0-1 .08-1-.44a.44.44 0 0 1 .44-.4 15.52 15.52 0 0 0 1.92-.16 12.65 12.65 0 0 0 3.4-1.16 12.48 12.48 0 0 0 3-1.88 7.09 7.09 0 0 0 .8-.76l.36-.56a10 10 0 0 1 1.08-1.48c.72-.88 2-2.16 3.24-2.16s1.6 1 1.6 2a3 3 0 0 1 1.16 2.48 3.44 3.44 0 0 1 0 .72zm-1.44.52a2.77 2.77 0 0 1-2.24-2.6c0-.84.64-1.28 1.56-1.36a.81.81 0 0 0-.68-.44 1.59 1.59 0 0 0-1 .36 8.12 8.12 0 0 0-3 5.56 1.64 1.64 0 0 0 1.68 1.76c1.12 0 3.05-1.36 3.73-3.28zm.24-.84a2.63 2.63 0 0 0 0-.56c0-.84-.44-1.52-1.12-1.52-.16 0-.24.16-.24.32a1.8 1.8 0 0 0 1.41 1.76z"/><path class="a" d="M66.68 22.92c0 .24-.2.4-.48.4a18.4 18.4 0 0 1-3.4-.28 7.21 7.21 0 0 1-2.8-.8c-1.24 4.28-2 5.8-3.16 9.2s-2.08 7-4.52 7c-1.16 0-2-1.32-2-3 0-5.72 7-15 10.16-19.48v-.72c0-.44-.2-1-.56-1a.56.56 0 0 0-.36.16c-.48.36-4.88 4.08-6.76 5a9.15 9.15 0 0 1-4.28 1 .43.43 0 0 1-.48-.44.45.45 0 0 1 .48-.44 6.64 6.64 0 0 0 3.76-1 43.55 43.55 0 0 0 6.56-5.24 2.78 2.78 0 0 1 1.64-.88c.72 0 1.28.84 1.28 2.12v.28a6.23 6.23 0 0 1 3.12-1.2c1.6 0 3.48.92 3.48 2.8 0 2.32-3 5.44-5.72 5.44a8.72 8.72 0 0 0 3.52.6.48.48 0 0 1 .52.48zM60 18.28c-3 4.52-4 5.76-5.52 8.44a37.29 37.29 0 0 0-2.52 5.72 9.38 9.38 0 0 0-.56 3c0 1.12.28 1.76 1 1.76 1 0 1.64-1.52 2.44-3.68 1.08-2.84 1.72-4.4 2.68-7.4.84-2.76 1.84-5.24 2.48-7.84zm1.52 3c1.72 0 5.36-1.88 5.36-4.6A1.69 1.69 0 0 0 65 15a6.18 6.18 0 0 0-3.4 1.24 37.86 37.86 0 0 1-1.24 4.88 4.24 4.24 0 0 0 1.16.2z"/><path class="a" d="M86.16 19.44a15.53 15.53 0 0 0 2.36.12.44.44 0 0 1 .44.44.44.44 0 0 1-.44.44 15.47 15.47 0 0 1-2.6-.16c-.8 2.12-3.16 4-5.32 4a2.68 2.68 0 0 1-2.56-3 5.43 5.43 0 0 1 .36-1.92c-3.56 1.56-8.36 3.88-12.16 3.88a.41.41 0 0 1-.4-.44.43.43 0 0 1 .4-.4 12.66 12.66 0 0 0 3.44-.6 46.5 46.5 0 0 0 9.36-3.84 15.89 15.89 0 0 1 1.16-1.56c.72-.88 2-2.16 3.24-2.16s1.6 1 1.6 2a3 3 0 0 1 1.16 2.48 3.44 3.44 0 0 1-.04.72zm-1.44.52a2.77 2.77 0 0 1-2.24-2.6c0-.84.64-1.28 1.56-1.36a.81.81 0 0 0-.68-.44 1.59 1.59 0 0 0-1 .36 8.12 8.12 0 0 0-3 5.56 1.64 1.64 0 0 0 1.68 1.76c1.03 0 3.03-1.36 3.68-3.28zm.24-.84v-.56c0-.84-.44-1.52-1.12-1.52-.16 0-.24.16-.24.32a1.8 1.8 0 0 0 1.36 1.76z"/><path class="a" d="M88.52 20.44a.44.44 0 0 1-.44-.44.44.44 0 0 1 .44-.44 6 6 0 0 0 1.88-.28c2.6-.92 5.24-3.44 7.2-5.32a4 4 0 0 1-.28-1.36c0-1.44 1.48-3.56 3-3.56a1.25 1.25 0 0 1 1.28 1.32c0 1.6-1.56 2.6-2.6 3.52a45.53 45.53 0 0 0 4.68 4.08 4.29 4.29 0 0 1 1.24 1.8 13 13 0 0 0 4.92-2 9.44 9.44 0 0 0 3.52-4.12c-.64 0-1.24.08-1.88.08-.4 0-1.24-.12-1.24-.64 0-.8 3-.72 3.64-.72.2-.52.88-2.6 1.56-2.6.48 0 .56.8.56 1.12a3.69 3.69 0 0 1-.4 1.44 20.57 20.57 0 0 1 2.24-.08c.16 0 .68 0 .68.24 0 1-2.8 1-3.48 1.08a15.11 15.11 0 0 0-1.48 5.56 3.16 3.16 0 0 0 .92 2.48 4.5 4.5 0 0 0 2.24.84c.2 0 .44.16.44.4a.44.44 0 0 1-.44.44 3.92 3.92 0 0 1-4.16-4 17.65 17.65 0 0 1 .48-3.24 13.31 13.31 0 0 1-8 4.4c.24 3.12-3.8 5.12-6.48 5.12-1.12 0-2.48-.44-2.48-1.8 0-2.92 5.4-3.76 7.52-4-1-2-4.12-3.4-5.44-5.12-2.64 2.68-5.64 5.8-9.64 5.8zm15.32.44v-.24c-1.64.16-6.64.8-6.64 3 0 .84.76 1.12 1.48 1.12 2.04.04 5.16-1.52 5.16-3.88zm-3.36-10.28a.33.33 0 0 0-.36-.32c-.84 0-1.6 1.68-1.6 2.36v.28c.55-.44 1.96-1.6 1.96-2.32z"/><path class="a" d="M136.44 21.84c0 1-2.08 1.48-2.88 1.48-3.6 0-4.12-3.52-5-3.52s-2.16 4.32-5.64 4.32a2 2 0 0 1-2.2-2.16v-.2a6.08 6.08 0 0 1-3.88 1.56c-.32 0-.64 0-.64-.44a.44.44 0 0 1 .44-.4c1.8 0 3.28-1.28 4.6-2.4 1-1.76 3.08-3.8 5.2-3.8a2.71 2.71 0 0 1 2.44 1.28 1.1 1.1 0 0 1 1.12.68 6.84 6.84 0 0 1 .36 1.2c.44 1.56 1.4 3 3.2 3a6.86 6.86 0 0 0 2.64-.92c.16.04.24.16.24.32zm-9-3.32c-.32-.52-.64-1-1.32-1-1.64 0-4 2.68-4 4.28a1.06 1.06 0 0 0 1.12 1.16c1.83 0 3.28-3.2 4.24-4.44zm33.52-7.6c.68-2.72 3-10.92 6.4-10.92a1.31 1.31 0 0 1 1.32 1.48 11.14 11.14 0 0 1-1.16 4c-.68 1.52-1.6 2.92-2.4 4.4-1.08 2-2 3.92-3.24 5.8-.2.32-.4.64-.64 1 .24 1.56.36 3.08 1.56 4.28a5.68 5.68 0 0 0 4 1.52.41.41 0 0 1 .44.4.44.44 0 0 1-.44.44c-3.56 0-5.72-2-6.4-5.4-1.56 2.16-4.12 5.92-7.08 5.92a2.44 2.44 0 0 1-2.56-2.48c0-2.4 3-4.88 5.36-4.88a2.89 2.89 0 0 1 2.68 1.92c.52-.68 1-1.36 1.44-2a22.57 22.57 0 0 1 .72-5.48zm-3.12 8.68a1.86 1.86 0 0 0-1.92-1.76c-1.64 0-3.84 1.68-3.84 3.44a1.24 1.24 0 0 0 1.32 1.32c1.88-.04 3.32-1.72 4.44-3zm5.48-8.36c.72-1.28 1.4-2.6 2.08-3.92s2-3.4 2-4.8c0-.4-.16-.8-.64-.8-1.8 0-3.84 6.48-4.32 8a28.05 28.05 0 0 0-1.2 5.12z"/><path class="a" d="M180.07 23.17a7.58 7.58 0 0 1-1.64.16 3.83 3.83 0 0 1-3.72-2.48c-2.56 1.28-5 2.48-8 2.48a.44.44 0 0 1-.44-.44.44.44 0 0 1 .44-.4 11.81 11.81 0 0 0 3.52-.6 32.78 32.78 0 0 0 4.32-2 6.35 6.35 0 0 1 3.32-5.16 2.78 2.78 0 0 1 1.4-.32c1 0 2.2.6 2.2 1.76a2 2 0 0 1-.24.84 2.79 2.79 0 0 1-1 .88c-.52.32-1 .56-1.56.84-.92.52-1.84 1.08-2.8 1.56a2.51 2.51 0 0 0 2.6 2.24 6 6 0 0 0 3.76-1.08 9.57 9.57 0 0 1 .88-.64c.16 0 .2.08.2.24.01 1.23-2.24 1.91-3.24 2.12zm-4.12-4a25.93 25.93 0 0 0 3.84-2.4.74.74 0 0 0 .2-.48c0-.48-.52-.64-.92-.64-1.63-.05-2.87 2.03-3.11 3.47zm36.64-1.45a.4.4 0 0 1-.4.4 2.5 2.5 0 0 1-.44-.12 10.37 10.37 0 0 0-3.28-.8 3.44 3.44 0 0 0-.64 0c-2.2.4-4.32 7-6.6 7-.84 0-1.36-.92-1.72-1.56-.52-1-2.68-4.76-2.68-5.68a.6.6 0 0 1 .6-.64c1 0 1.4 1.8 1.68 2.48s.68 1.6 1 2.36c.16.4.64 1.6 1.16 1.6 1 0 3.64-5.32 5.24-6.4a2.71 2.71 0 0 1 1.44-.4 10 10 0 0 1 3.4.92 8.13 8.13 0 0 0 .88.36h.08a.61.61 0 0 1 .28.48z"/><path class="a" d="M224.27 19.44a6.62 6.62 0 0 0 .48 1.24 3.13 3.13 0 0 0 2.72 1.8.43.43 0 0 1 .4.4.41.41 0 0 1-.4.44c-3.56 0-4.12-3.52-5-3.52s-2.08 4.28-5.64 4.28a2 2 0 0 1-2.16-2.12 5.28 5.28 0 0 1 1.48-3.24 16.1 16.1 0 0 1-4.16-.64c-.16-.12-.28-.12-.28-.4a.41.41 0 0 1 .44-.4.68.68 0 0 1 .28 0 12.37 12.37 0 0 0 3.2.48 10.76 10.76 0 0 0 1.6-.12 4.94 4.94 0 0 1 3.24-1.44 2.76 2.76 0 0 1 2.4 1.32c1-.16 1.2 1.16 1.4 1.92zm-2.88-.92c-.32-.52-.64-1-1.32-1-1.64 0-4 2.68-4 4.28a1.05 1.05 0 0 0 1.08 1.16c1.8 0 3.28-3.16 4.24-4.44z"/><path class="a" d="M238.27 4.64c.68-.84 2-2.08 3.12-2.08s1.76 1.48 1.76 2.52c0 2.84-2.72 7.92-4.44 10.16l-.84 1.08c-.4.56-.76 1.16-1.2 1.68.92 2.2 2.52 4.48 5.16 4.48a.44.44 0 0 1 .44.4.44.44 0 0 1-.44.44c-2.84 0-4.88-1.8-6-4.28-2.56 2.88-4.52 4.28-8.48 4.28a.43.43 0 0 1-.4-.44.43.43 0 0 1 .4-.4 8.94 8.94 0 0 0 3.4-.56 13 13 0 0 0 4.64-4 13.14 13.14 0 0 1-.6-3.72 17.09 17.09 0 0 1 3.48-9.56zm2 6.24a14 14 0 0 0 1.84-5.36c0-.68-.28-1.4-1.08-1.4a1.55 1.55 0 0 0-.92.36c-2.44 1.76-4.08 6.92-4.08 9.8a10.24 10.24 0 0 0 .28 2.48 52.29 52.29 0 0 0 3.92-5.88z"/><path class="a" d="M258.35 19.44a15.53 15.53 0 0 0 2.36.12.44.44 0 0 1 .44.44.44.44 0 0 1-.44.44 15.47 15.47 0 0 1-2.6-.16c-.8 2.12-3.16 4-5.32 4a2.68 2.68 0 0 1-2.56-3 5.32 5.32 0 0 1 .12-1.12c-2.52 1.72-4.92 3.08-8 3.08-.36 0-1 .08-1-.44a.44.44 0 0 1 .44-.4 15.52 15.52 0 0 0 1.92-.16 12.65 12.65 0 0 0 3.36-1.07 12.48 12.48 0 0 0 3-1.88 7.09 7.09 0 0 0 .8-.76l.36-.56a10 10 0 0 1 1.08-1.48c.72-.88 2-2.16 3.24-2.16s1.6 1 1.6 2a3 3 0 0 1 1.16 2.48 3.44 3.44 0 0 1 .04.63zm-1.44.52a2.77 2.77 0 0 1-2.24-2.6c0-.84.64-1.28 1.56-1.36a.81.81 0 0 0-.68-.44 1.59 1.59 0 0 0-1 .36 8.12 8.12 0 0 0-3 5.56 1.64 1.64 0 0 0 1.68 1.76c1.08 0 3-1.36 3.68-3.28zm.24-.84a2.63 2.63 0 0 0 0-.56c0-.84-.44-1.52-1.12-1.52-.16 0-.24.16-.24.32a1.8 1.8 0 0 0 1.36 1.76z"/><path class="a" d="M282.07 17c0 .16-.16.2-.28.2a7 7 0 0 1-1.32-.2 9.42 9.42 0 0 0-1.52-.08c-4.28 0-7.12 2.44-9.52 5.76-.32.4-.92 1.24-1.48 1.24-1.48 0-1-4.56-1.16-5.52 0-.2-.12-.44-.36-.44a.9.9 0 0 0-.6.32 9.14 9.14 0 0 1-2.56 1.68 7.51 7.51 0 0 1-2.64.48.44.44 0 0 1-.44-.44.44.44 0 0 1 .44-.44 6.75 6.75 0 0 0 2-.32 7.56 7.56 0 0 0 2.72-1.88 2.25 2.25 0 0 1 1.44-.84c1.2 0 1.16 1.88 1.16 2.68v2.6c0 .16 0 .56.28.56s1-1.12 1.16-1.24a19.72 19.72 0 0 1 2.2-2.28 12.27 12.27 0 0 1 7.76-2.84c.72 0 2.72.04 2.72 1z"/></svg>