<svg xmlns="http://www.w3.org/2000/svg" viewBox="0 0 584.35 40.25"><title>p7_s2</title><path d="M35.91 4.34c-.28 1.05-1 3.15-1.89 5.67-1.19 3.36-2.52 7.63-3.5 10.92a122.86 122.86 0 0 1-4.06 12c-.49 1.26-1.68 3-3 3-2.38 0-3.22-3.5-4.27-7.35a6.41 6.41 0 0 0-.28-1.19l-2.95-11.5c-.77-3-1.61-6.3-2.8-10.71-.14-.56-.49-1.33-.77-1.33-.56 0-3.15 9.45-4.83 15.47-.21.63-.35 1.26-.49 1.82-1.26 4.41-2.1 6.79-2.73 8.75-.56 1.54-.91 2.87-1.47 4.83-.28 1.19-.63 3.08-1.89 3.08-.56 0-1-.63-1-1.4a2.48 2.48 0 0 1 .14-.7l3-10.5C4.8 19.46 6.55 13.65 8.37 7.14c0-.14.14-.35.14-.49.7-2.59 1.82-6.65 4-6.65s2.73 3 5.74 15.89l1 4.13c1.26 5.39 3.5 12.6 4.27 12.6s1.54-2.52 2.24-4.69c.91-2.87 2.24-6.72 3.36-10.36C30.87 12.25 32.55 7 33.46 3.78c.21-1 .84-2.8 2-2.8a1.06 1.06 0 0 1 1.05.91 4.93 4.93 0 0 1-.42 1.68zM56.21 36.19c-6.23 0-7.21-6.16-8.75-6.16-1.75 0-3.78 7.56-9.8 7.56a3.59 3.59 0 0 1-3.92-3.85c0-4.2 5.74-9.87 10-9.87a4.61 4.61 0 0 1 4.27 2.24c2-.21 2.17 1.89 2.59 3.29a11.59 11.59 0 0 0 .84 2.17 5.48 5.48 0 0 0 4.76 3.15.76.76 0 0 1 .77.7.78.78 0 0 1-.76.77zm-18.06-.63c2 0 4.13-2.73 5.18-4.2.77-1.12 1.4-2.45 2.24-3.57-.56-.91-1.12-1.75-2.31-1.75-2.87 0-7.07 4.69-7.07 7.49a1.86 1.86 0 0 0 1.96 2.03z" fill="#fff"/><path d="M81.2 17.22c0 1.75-4.9 1.82-6.09 1.89v.07a2.89 2.89 0 0 1-.28.7 25.68 25.68 0 0 0-2.31 9 5.36 5.36 0 0 0 1.68 4.34 6.87 6.87 0 0 0 3.85 1.47c.35.07.77.28.77.7a.78.78 0 0 1-.77.77 6.82 6.82 0 0 1-7.14-7.07 23.05 23.05 0 0 1 .56-4.41c-2.52 4.41-10 11.48-15.4 11.48a.78.78 0 0 1-.77-.77c0-.42.42-.63.77-.7 2.66-.35 5-1.89 7.07-3.5a31 31 0 0 0 9-12c-1.12.07-2.17.14-3.29.14-.63 0-2.17-.21-2.17-1.12 0-1.4 5.18-1.26 6.37-1.26.35-.91 1.54-4.55 2.73-4.55.91 0 1 1.54 1 2.17a10 10 0 0 1-.77 2.31 25.25 25.25 0 0 1 4 0c.33.06 1.19-.15 1.19.34z" fill="#fff"/><path d="M101.22 35.21c3.43-2.31 4.69-5.74 6.44-9.31.49-1 1.4-2.31 2.59-2.31 2.17 0 1.54 3.92 1.75 5.39a6.76 6.76 0 0 0 5.6 5.6c.56.14 1.89 0 1.89.84a.78.78 0 0 1-.77.77 9.53 9.53 0 0 1-9.59-8.12 11.09 11.09 0 0 1-1.26 2.6c-2 3.43-5 7.35-9.38 7.35-3.64 0-5.39-3.08-5.39-6.37a11.8 11.8 0 0 1 .42-3.15 25.55 25.55 0 0 1-7.7 6 16.91 16.91 0 0 1-7.84 1.75.72.72 0 0 1-.7-.77.75.75 0 0 1 .7-.7 14.36 14.36 0 0 0 7-1.68 25.82 25.82 0 0 0 7.77-6.79c.59-1.04 2.17-3.64 3.59-3.64a1.48 1.48 0 0 1 1.4 1.54c0 1.89-2.59 4.55-2.59 8a3.46 3.46 0 0 0 3.64 3.78 4.25 4.25 0 0 0 2.43-.78z" fill="#fff"/><path d="M148.96 34.72a.76.76 0 0 1 .77.7.78.78 0 0 1-.77.77c-3.57 0-7.49-1.75-7.49-5.88 0-3 1.89-5.81 1.89-8.82 0-1.89-2.1-2.8-3.57-3.43l-.21-.07c-1.4 2.87-5.11 7.14-7.42 9.38-3.08 2.94-5.81 6.09-9.66 8a7.87 7.87 0 0 1-3.57.84c-.49 0-1.12-.07-1.12-.77a.75.75 0 0 1 .7-.7 7.77 7.77 0 0 0 2.8-.63c4.27-1.89 14.56-12.25 16.8-16.94-1.61-.84-3.43-2-3.43-4.06a3 3 0 0 1 3.08-2.94 3.42 3.42 0 0 1 3.43 3.36 6.71 6.71 0 0 1-.63 2.59l.21.07c2.38 1 4.76 2.31 4.76 5.32s-1.4 5.53-2 8.33a2.37 2.37 0 0 0-.07.7c.04 2.64 3.19 4.18 5.5 4.18zm-10.15-19.53l.07-.07a5.34 5.34 0 0 0 .21-1.47c0-.56-.28-1.4-1-1.4a1.14 1.14 0 0 0-1.12 1.05c-.05.84 1.21 1.47 1.84 1.89z" fill="#fff"/><path d="M183.47 33.6c0 1.75-3.64 2.59-5 2.59-6.3 0-7.21-6.16-8.75-6.16-1.75 0-3.78 7.56-9.87 7.56a3.51 3.51 0 0 1-3.85-3.78v-.35c-2.24 1.61-3.92 2.73-6.79 2.73-.56 0-1.12-.07-1.12-.77a.76.76 0 0 1 .77-.7c3.15 0 5.74-2.24 8.05-4.2 1.68-3.08 5.39-6.65 9.1-6.65a4.75 4.75 0 0 1 4.27 2.24 1.93 1.93 0 0 1 2 1.19 12 12 0 0 1 .63 2.1c.77 2.73 2.45 5.32 5.6 5.32 2.17 0 4.34-1.61 4.62-1.61s.34.21.34.49zm-15.68-5.81c-.56-.91-1.12-1.75-2.31-1.75-2.87 0-7.07 4.69-7.07 7.49a1.86 1.86 0 0 0 2 2c3.11.03 5.7-5.57 7.38-7.74zM225.19 23.67c0 3.57-6.86 4.83-9.45 5.74a1 1 0 0 1-.49.14c0 .28-.07.49-.07.77 0 2.73 2 4.2 4.55 4.41.42.07.77.21.77.7a.78.78 0 0 1-.77.77c-3.36 0-6.93-2.45-6.72-6.09a25.88 25.88 0 0 1-4.62.49c-.63 0-2.1-.42-2.1-1.26 0-.49.77-.49 1.12-.49a28.21 28.21 0 0 0 6-.7c0-.07.07-.21.07-.28a10.73 10.73 0 0 1 5.39-6.79 4.86 4.86 0 0 1 2.45-.56c1.84-.01 3.87 1.04 3.87 3.15zm-2.85-.08c0-.7-.77-.91-1.4-.91-2.52 0-4.48 2.73-5.25 4.9 1.52-.28 6.65-2.1 6.65-3.99z" fill="#fff"/><path d="M250.81 21.14c-3.78 3.36-7.7 7-12.11 9.45-5.81 3.22-12.25 5.6-19 5.6a.72.72 0 0 1-.7-.77.75.75 0 0 1 .7-.7 23.9 23.9 0 0 0 6.3-.77 71.24 71.24 0 0 0 8.4-3.15 54.3 54.3 0 0 0 12.46-8.26l2.94-2.8a4.77 4.77 0 0 1-.56-2.17c0-2.59 2.59-6.3 5.39-6.3a2.11 2.11 0 0 1 2.17 2.24c0 2.94-2.87 4.83-4.62 6.37 2.52 2.45 5.32 4.62 8.05 6.93a7.52 7.52 0 0 1 2.17 3.15 22.69 22.69 0 0 0 8.61-3.5 16.52 16.52 0 0 0 6.16-7.21c-1.12.07-2.17.14-3.29.14-.7 0-2.17-.21-2.17-1.12 0-1.4 5.25-1.26 6.37-1.26.35-.91 1.54-4.55 2.73-4.55.84 0 1 1.4 1 2a6.48 6.48 0 0 1-.7 2.52 36 36 0 0 1 3.92-.14c.28 0 1.19-.07 1.19.42 0 1.75-4.9 1.82-6.09 1.89v.07a26.46 26.46 0 0 0-2.59 9.73 5.54 5.54 0 0 0 1.61 4.34 7.89 7.89 0 0 0 3.92 1.47c.35.07.77.28.77.7a.78.78 0 0 1-.77.77c-4.13 0-7.28-2.8-7.28-6.93a30.74 30.74 0 0 1 .84-5.67 23.3 23.3 0 0 1-13.93 7.7c.42 5.46-6.65 9-11.34 9-2 0-4.34-.77-4.34-3.15 0-5.11 9.45-6.58 13.16-6.93v-.07c-1.75-3.57-7-6-9.31-9zm9.73 10.78v-.42c-2.87.28-11.62 1.4-11.62 5.32 0 1.47 1.33 2 2.59 2 3.57-.04 9.03-2.77 9.03-6.9zm-9.1-14.35a2.61 2.61 0 0 0 .07.77c.84-.77 3.36-3.15 3.36-4.34a.59.59 0 0 0-.63-.63c-1.47 0-2.8 3.01-2.8 4.2z" fill="#fff"/><path d="M317.59 33.6c0 1.75-3.64 2.59-5 2.59-6.3 0-7.21-6.16-8.75-6.16-1.75 0-3.78 7.56-9.87 7.56a3.51 3.51 0 0 1-3.85-3.78v-.35c-2.24 1.61-3.92 2.73-6.79 2.73-.56 0-1.12-.07-1.12-.77a.76.76 0 0 1 .77-.7c3.15 0 5.74-2.24 8.05-4.2 1.68-3.08 5.39-6.65 9.1-6.65a4.75 4.75 0 0 1 4.21 2.24 1.93 1.93 0 0 1 2 1.19 12 12 0 0 1 .63 2.1c.77 2.73 2.45 5.32 5.6 5.32 2.17 0 4.34-1.61 4.62-1.61s.4.21.4.49zm-15.68-5.81c-.56-.91-1.12-1.75-2.31-1.75-2.87 0-7.07 4.69-7.07 7.49a1.86 1.86 0 0 0 2 2c3.1.03 5.69-5.57 7.37-7.74zm-5-9.38c-.28 0-.42-.07-.42-.28 0-.49 4.69-4.55 5.81-4.55.56 0 1.05.28 1.05.7 0 .91-4.27 3.64-5.81 4.06a1.93 1.93 0 0 1-.61.07zM353 23.03c0 .28-.21.35-.42.35-.77 0-1.12-1.05-2.66-1.05-3.08 0-5.67 5.32-5.67 8s1.89 4.13 4.41 4.41c.42.07.7.21.7.7a.72.72 0 0 1-.7.77c-3.29 0-6.72-2.31-6.72-5.88s3.29-9.66 7.28-9.66c1.19 0 3.78 1 3.78 2.36z" fill="#fff"/><path d="M383.52 29.4a27.23 27.23 0 0 0 4.13.21.78.78 0 0 1 .77.77.78.78 0 0 1-.77.77 27.12 27.12 0 0 1-4.55-.28c-1.4 3.71-5.53 7.07-9.31 7.07-2.94 0-4.48-2.52-4.48-5.18a9.52 9.52 0 0 1 .63-3.36c-6.23 2.73-14.63 6.79-21.28 6.79a.72.72 0 0 1-.7-.77.75.75 0 0 1 .7-.7 22.21 22.21 0 0 0 6-1A81.5 81.5 0 0 0 371.04 27a27.52 27.52 0 0 1 2-2.73c1.26-1.54 3.57-3.78 5.67-3.78s2.8 1.75 2.8 3.5a5.18 5.18 0 0 1 2 4.34 6 6 0 0 1 .01 1.07zm-2.52.91c-2.1-.7-3.92-2-3.92-4.55 0-1.47 1.12-2.24 2.73-2.38a1.42 1.42 0 0 0-1.19-.77 2.79 2.79 0 0 0-1.75.63c-2.66 1.89-5.32 6.44-5.32 9.73a2.87 2.87 0 0 0 2.94 3.08c1.96 0 5.32-2.38 6.51-5.74zm.42-1.47c0-.28.07-.63.07-1 0-1.47-.77-2.66-2-2.66-.28 0-.42.28-.42.56a3.15 3.15 0 0 0 2.35 3.1z" fill="#fff"/><path d="M439.34 34.37c0 1.26-2.66 1.82-3.64 1.82a4.22 4.22 0 0 1-3.85-1.61 14.16 14.16 0 0 1-2.1-4.55c-.21-.63-.35-1.61-.91-2a.79.79 0 0 0-.56-.21c-.63 0-1.12.63-1.47 1.12-1.26 1.68-3.64 5.25-5.11 6.51a3 3 0 0 1-1.89.7 2.31 2.31 0 0 1-2.24-1.68c-.77-2-1.26-4.27-2.17-6.3-.21-.49-.56-1.26-1.19-1.26-1.82 0-5.88 9.45-9.17 9.45-1.47 0-2-1.33-2-2.59 0-2.24 1.19-4.76 1.19-6.65 0-1.12-.07-2.24-1.54-2.24-.84 0-3.43 1.68-4.2 2.24a32.32 32.32 0 0 1-6 3.15 14.43 14.43 0 0 1-4.9.84.79.79 0 0 1-.84-.77.78.78 0 0 1 .77-.77 14 14 0 0 0 5.53-1.4c2.87-1.33 6.93-5.32 9.94-5.32 2.1 0 3.22 1.61 3.22 3.57 0 2.52-1.33 4.83-1.33 7.28 0 .28.14.49.42.49 1.54 0 6.16-9.8 9.52-9.8 3.64 0 3.08 9 5.32 9 1.12 0 4.62-5.53 5.39-6.51a3.86 3.86 0 0 1 2.94-1.82 2.68 2.68 0 0 1 2.24 1.26c1.82 2.87.7 7.84 5 8.19h.42c1 0 1.82-.56 2.73-.56.32.07.48.14.48.42zM490.62 26.39a.7.7 0 0 1-.7.7 4.26 4.26 0 0 1-.77-.21 18.17 18.17 0 0 0-5.74-1.4 6 6 0 0 0-1.12.07c-3.85.7-7.56 12.25-11.55 12.25-1.47 0-2.38-1.61-3-2.73-.91-1.68-4.69-8.33-4.69-9.94a1 1 0 0 1 1-1.12c1.68 0 2.45 3.15 2.94 4.34.56 1.4 1.19 2.8 1.82 4.13.28.7 1.12 2.8 2 2.8 1.82 0 6.37-9.31 9.17-11.2a4.74 4.74 0 0 1 2.52-.7 17.47 17.47 0 0 1 6 1.61 14.3 14.3 0 0 0 1.54.63h.14a1.07 1.07 0 0 1 .44.77z" fill="#fff"/><path d="M510.34 29.4a27.22 27.22 0 0 0 4.13.21.78.78 0 0 1 .77.77.78.78 0 0 1-.77.77 27.12 27.12 0 0 1-4.55-.28c-1.4 3.71-5.53 7.07-9.31 7.07-2.94 0-4.48-2.52-4.48-5.18a10.94 10.94 0 0 1 1.12-4.62 15.87 15.87 0 0 1-1.91-.07 21 21 0 0 1-4.13-.56l-1.75-.49h-.12c-.21-.21-.42-.28-.42-.7a.77.77 0 0 1 .77-.7.89.89 0 0 1 .42.07 20.63 20.63 0 0 0 5.46.84 17 17 0 0 0 2.66-.21 23.7 23.7 0 0 1 1.61-2.1c1.26-1.54 3.57-3.78 5.67-3.78s2.8 1.75 2.8 3.5a5.18 5.18 0 0 1 2 4.34 6.08 6.08 0 0 1 .03 1.12zm-2.52.91c-2.1-.7-3.92-2-3.92-4.55 0-1.47 1.12-2.24 2.73-2.38a1.42 1.42 0 0 0-1.19-.77 2.79 2.79 0 0 0-1.75.63c-2.71 1.89-5.35 6.43-5.35 9.73a2.87 2.87 0 0 0 2.94 3.08c1.94 0 5.3-2.38 6.49-5.74zm.42-1.47c0-.28.07-.63.07-1 0-1.47-.77-2.66-2-2.66-.28 0-.42.28-.42.56a3.15 3.15 0 0 0 2.3 3.1z" fill="#fff"/><path d="M532.76 20.67c1 0 3.78 1 3.78 2.24 0 .28-.14.42-.49.42-.84 0-1.19-1.05-2.59-1.05-3.08 0-5.67 5.32-5.67 8s1.82 4.2 4.34 4.41a.83.83 0 0 1 .77.77.72.72 0 0 1-.77.7c-2.94 0-6-1.75-6.58-4.76a2.48 2.48 0 0 1-.14-.7 9.23 9.23 0 0 1 .42-2.73c-4 2-6.86 3.15-11.48 3.15a.78.78 0 0 1-.77-.77.78.78 0 0 1 .77-.77c4.48 0 8.68-2 12.46-4.13 1.19-2.14 3.29-4.78 5.95-4.78z" fill="#fff"/><path d="M569.09 32.2c0 2.1-4.06 3.36-5.67 3.71a13.31 13.31 0 0 1-2.87.28c-2.66 0-5.88-1.61-6.58-4.41-6.58 2.38-14.91 4.41-21.91 4.41a.72.72 0 0 1-.7-.77.75.75 0 0 1 .7-.7 47.37 47.37 0 0 0 8.89-1c2.66-.49 5.25-1.26 7.84-2a39.1 39.1 0 0 0 4.06-1.26l1-.42c0-4.13 3.78-9.59 8.26-9.59 1.89 0 3.85 1.05 3.85 3.15 0 2.94-7.14 6.23-9.52 7.21l-.42.14a4.54 4.54 0 0 0 4.62 3.71 11 11 0 0 0 6.58-1.89 16.36 16.36 0 0 1 1.45-1.1c.35 0 .42.18.42.53zm-.75-16.87c0 .28-.14.35-.42.35-.77 0-2.94-1.26-4.41-2.17a12 12 0 0 0-1.47-.84 7 7 0 0 0-2 1 14 14 0 0 1-3.92 2c-.49 0-.49-.28-.49-.28 0-.7 3.64-3.15 5.46-4.27a1.48 1.48 0 0 1 .77-.28h.14a39.61 39.61 0 0 1 5.9 3.83c.35.24.44.45.44.66zm-12.27 13.79c1.61-.77 7.14-3.15 7.14-5.18 0-.84-.7-1.26-1.54-1.26-3.08-.01-5.04 3.78-5.6 6.44zM576.02 33.18a1.8 1.8 0 0 1 1.89 1.68 1.71 1.71 0 0 1-1.47 1.61 2.17 2.17 0 0 1-2-1.89c0-.63.21-1.05.7-1.19a1.94 1.94 0 0 1 .88-.21zm1.75-7.07c-.35 0-.49-.28-.49-.63a29.08 29.08 0 0 1 1-5.39c.56-2.52.77-4.48 1.26-6.93.56-3.08 1.47-11.2 3.57-11.2a1.34 1.34 0 0 1 1.23 1.47 4.19 4.19 0 0 1-.21 1.4 179.11 179.11 0 0 1-5.32 19.74c-.47 1.1-.62 1.54-1.04 1.54z" fill="#fff"/></svg>