<svg xmlns="http://www.w3.org/2000/svg" viewBox="0 0 811.98 73.16"><title>p8_s4</title><path d="M24.01 44.31a.64.64 0 0 1-.28.56c-4.62 3.78-11.76 10.15-15.05 15.01-.42 2.45-1.4 9.17-2.31 11.2a3.71 3.71 0 0 1-2.66 2c-1.47 0-2.17-1.47-2.17-2.73 0-3.36 3.36-8.05 5.25-10.78a193.92 193.92 0 0 1 6.59-21.63 18.39 18.39 0 0 1-8.9 2.94A4.32 4.32 0 0 1 0 36.68a4.17 4.17 0 0 1 .38-1.89c1.75-4.2 7.14-9 11.9-9 2.24 0 3.64 1.4 4.55 3.29.35-1 1.19-2.59 2.38-2.59 1.4 0 1.75 1.61 1.75 2.73 0 2-1.54 3.5-2.87 4.83 0 .42.14.91.14 1.33s-.07 1.19-.7 1.19-.91-.63-1.12-1l-.14.14a138.84 138.84 0 0 0-6.72 20.37 61.18 61.18 0 0 1 13.2-12.33.8.8 0 0 1 .56-.21.68.68 0 0 1 .7.77zm-9.63-9.1l1.26-3.22c-.45-1.96-1.26-4.11-3.6-4.11-3.29 0-9.52 5.18-9.52 8.61a2.41 2.41 0 0 0 2.38 2.59c2.48-.02 7.48-2.33 9.48-3.87zm-8.75 30c-.56 1.19-2.17 3.36-2.17 4.48 0 .35.14.56.49.56 1.09.03 1.51-4.1 1.65-5.01zm12.08-33.64a2.5 2.5 0 0 0 .14.7c.49-.49 1.33-1.19 1.33-2 0-.28-.14-.7-.49-.7s-.98 1.65-.98 2z" fill="#7f604d"/><path d="M63.07 33.6a6.84 6.84 0 0 0 5.6 5.6c.56.14 2 0 2 .84a.78.78 0 0 1-.77.77 9.53 9.53 0 0 1-9.59-8.12c-1.75 4.13-5.53 9.87-10.64 9.87-3.5 0-5.46-2.73-5.46-6a14.59 14.59 0 0 1 1.17-5.27 67 67 0 0 0-11.08 6.09c-6.09 3.92-10.43 7.63-11.06 7.63a.7.7 0 0 1-.7-.7 1 1 0 0 1 .28-.63 137 137 0 0 1 20-13.51c1-.56 3.22-2 4.41-2 .84 0 1.4.28 1.4 1 0 1.75-2.38 4.27-2.38 7.63a3.4 3.4 0 0 0 3.64 3.71 4.13 4.13 0 0 0 2.38-.7c3.43-2.24 4.83-5.74 6.51-9.31.49-1 1.33-2.31 2.59-2.31 2.12.02 1.49 4.01 1.7 5.41z" fill="#7f604d"/><path d="M93.03 40.53a13.3 13.3 0 0 1-2.87.28c-2.66 0-5.81-1.61-6.51-4.34-4.48 2.24-8.82 4.34-13.93 4.34a.78.78 0 0 1-.77-.77.76.76 0 0 1 .77-.7 20.7 20.7 0 0 0 6.16-1 57.5 57.5 0 0 0 7.56-3.57c.35-3.64 2.38-7.42 5.81-9a4.86 4.86 0 0 1 2.45-.56c1.82 0 3.85 1.05 3.85 3.08a3.57 3.57 0 0 1-.42 1.47 4.88 4.88 0 0 1-1.82 1.54c-.91.56-1.82 1-2.73 1.47-1.61.91-3.22 1.89-4.9 2.73 0 2.31 2.38 3.92 4.55 3.92a10.5 10.5 0 0 0 6.58-1.89 16.85 16.85 0 0 1 1.57-1.2c.28 0 .35.14.35.42-.03 2.24-4.02 3.43-5.7 3.78zm-7.21-7.07c1.05-.49 6.09-3.43 6.72-4.2a1.29 1.29 0 0 0 .35-.84c0-.84-.91-1.12-1.61-1.12-2.9 0-5.04 3.64-5.46 6.16zM154.38 11.48a9.7 9.7 0 0 1-2 5.6c-2.52 4-7.77 8.4-11.41 11.41-1.12.91-2.38 1.82-3.43 2.8l-.84.77-.56 2a19.49 19.49 0 0 0 5.4 3.82 15.44 15.44 0 0 0 6.37 1.47.76.76 0 0 1 .77.7.78.78 0 0 1-.77.77 17.79 17.79 0 0 1-11-3.85c-.42-.35-1-.63-1.33-1l-.42 1.68c3.65 4.77 9.22 12.23 9.22 18.42 0 3.71-2.24 7.56-6.3 7.56-5.32 0-6.93-6-6.93-10.29a68.78 68.78 0 0 1 2-15.05l-1.61-1.89c-2.59 1.75-7.14 4.41-10.29 4.41-.7 0-2.31-.28-2.31-1.26 0-.63 1.89-.42 2.31-.49 3-.28 6.93-2.52 9.38-4.34a3 3 0 0 1-.28-1.33 1.54 1.54 0 0 1 1.68-1.68 4.25 4.25 0 0 1 1.68.42l.07.07 1.26-1.12c2.24-7.21 5.81-16.31 11.76-21.42a6.65 6.65 0 0 1 4.13-1.75 3.36 3.36 0 0 1 3.45 3.57zm-12.21 44.31c0-5.46-4.27-11.55-7.56-15.61l-.14.63a62.77 62.77 0 0 0-1.4 11.41c0 3.15 1.05 9.24 5.25 9.24 2.87 0 3.85-3.29 3.85-5.67zm-8.47-20a6.6 6.6 0 0 1 .28-1.12l-.07-.07a2.76 2.76 0 0 0-.7.56 3.82 3.82 0 0 0 .49.61zm10-12.39c2-1.89 8-8.33 8-11 0-.77-.28-1.54-1.19-1.54-5 0-11.55 13.58-12.81 17.85 2.02-1.76 4.05-3.51 6.01-5.33z" fill="#7f604d"/><path d="M171.78 34.02a8.41 8.41 0 0 0 .91 2.17c1.05 1.82 2.52 3.15 4.69 3.15a.76.76 0 0 1 .77.7.78.78 0 0 1-.77.77c-6.23 0-7.14-6.16-8.75-6.16s-3.71 7.56-9.87 7.56a3.48 3.48 0 0 1-3.78-3.71v-.42c-2.45 1.82-4 2.73-7.14 2.73a.7.7 0 0 1-.77-.77.75.75 0 0 1 .7-.7c3.15 0 5.81-2.24 8.12-4.2 1.68-3 5.32-6.65 9-6.65a5 5 0 0 1 4.34 2.24c2.06-.21 2.15 1.89 2.55 3.29zm-5-1.61c-.56-.91-1.19-1.75-2.31-1.75-2.94 0-7.14 4.69-7.14 7.49a1.91 1.91 0 0 0 2 2c3.21.03 5.8-5.57 7.48-7.74z" fill="#7f604d"/><path d="M208.46 50.19a24.33 24.33 0 0 1 .56 5.53 36 36 0 0 1-1 8.68c-1.26 5-5.11 8.05-9.31 8.05a5.32 5.32 0 0 1-5.44-5.57c0-7.77 7-12.74 12.67-16.8-.7-2.45-1.75-5.32-4.06-6.72-1.54 1.4-3.64 3.57-6 3.57a1.86 1.86 0 0 1-2-1.82c0-2.52 3.15-4.27 5.39-4.27a6 6 0 0 1 2.17.42c2-2 5.88-6.72 5.88-9.59 0-2.52-2.66-3.64-4.9-3.64-7.21 0-12.11 8-18.2 11.06a13.47 13.47 0 0 1-7 1.68.78.78 0 0 1-.77-.77.76.76 0 0 1 .77-.7 11.29 11.29 0 0 0 6.16-1.57 55.4 55.4 0 0 0 8.33-6.3 34.25 34.25 0 0 1 4-3.15 13.05 13.05 0 0 1 7.07-2.45c3.43 0 7.07 1.47 7.07 5.39 0 4.13-3.78 8.26-6.65 10.92a12.51 12.51 0 0 1 4.76 6.58l2.53-1.84a34.37 34.37 0 0 1 4.06-3.08.93.93 0 0 1 .56-.21.8.8 0 0 1 .77.84.6.6 0 0 1-.21.42c-.07 0-.07.07-.14.07-2.24 1.54-4.34 3.36-6.58 5zm-5 18.27c2.87-2.94 3.22-7.49 3.22-12.25a23 23 0 0 0-.42-4.41c-5 3.29-10.78 8.19-10.78 15a3.34 3.34 0 0 0 3.5 3.64 7.14 7.14 0 0 0 4.51-1.98zm-3.5-25.76h-.58c-.91 0-3.36.77-3.36 2a.39.39 0 0 0 .42.35c1.24-.04 2.64-1.65 3.55-2.35z" fill="#7f604d"/><path d="M242.55 28.21a3.57 3.57 0 0 1-.42 1.47 5.33 5.33 0 0 1-1.75 1.54c-.91.56-1.89 1-2.8 1.47-1.68.91-3.22 2-4.9 2.73.28 2.66 2 3.57 4.48 3.92.35.07.77.28.77.7a.78.78 0 0 1-.77.77c-2.66 0-5.81-1.68-6.51-4.41a102.54 102.54 0 0 0-10.71 5.48c-.63.42-4.41 3.15-4.83 3.15a.77.77 0 0 1-.77-.7.8.8 0 0 1 .21-.56 32 32 0 0 1 3.22-2.24 89.38 89.38 0 0 1 12.74-6.86c0-4.13 3.85-9.52 8.26-9.52 1.75-.02 3.78 1.03 3.78 3.06zm-3 1a1.16 1.16 0 0 0 .35-.84c0-.84-.84-1.12-1.54-1.12-3 0-5 3.64-5.53 6.16 1.04-.44 6.08-3.38 6.71-4.15z" fill="#7f604d"/><path d="M302.54 38.99c0 1.26-2.66 1.82-3.64 1.82-6.44 0-5-8.33-7.35-8.33-.63 0-1.12.63-1.47 1.12-1.4 1.89-3.5 5-5.18 6.51a2.8 2.8 0 0 1-1.82.7 2.48 2.48 0 0 1-2.31-1.68c-.84-2-1.19-4.27-2.1-6.3-.21-.49-.56-1.26-1.19-1.26-1.89 0-6 9.45-9.17 9.45a2.2 2.2 0 0 1-2.1-2.45c0-2.38 1.19-4.69 1.19-7.07 0-1-.35-1.68-1.4-1.68a3.18 3.18 0 0 0-1.61.56c-7.56 4.76-18.34 10.43-27.3 10.43a.78.78 0 0 1-.77-.77c0-.63.63-.7 1-.7 4.62-.07 9.94-2.24 14.14-4a48.7 48.7 0 0 0 7.07-3.71c1.68-1 5.74-4.34 7.63-4.48h.49c2 0 2.87 1.54 2.87 3.36a18.25 18.25 0 0 1-.84 4.41 21.67 21.67 0 0 0-.56 3.08c0 .07-.07.21-.07.28a.54.54 0 0 0 .49.56c1.47 0 6.16-9.8 9.52-9.8s3.15 9 5.32 9c1.05 0 4.69-5.53 5.39-6.51a3.93 3.93 0 0 1 2.94-1.82 2.68 2.68 0 0 1 2.24 1.26c1.89 3 .49 8.19 5.46 8.19.91 0 1.75-.56 2.66-.56.31.04.47.11.47.39zM349.65 21.88c0 1.75-4.9 1.82-6.09 1.89v.07a3 3 0 0 1-.28.7c-1.05 2.45-2.31 6.3-2.31 9a5.71 5.71 0 0 0 1.68 4.55 6.26 6.26 0 0 0 3.64 1.33c.35.07.77.28.77.7a.78.78 0 0 1-.77.77c-4.27 0-6.93-2.59-6.93-6.93a25.47 25.47 0 0 1 .63-4.55 24.43 24.43 0 0 1-2.61 3.35c-2.31 2.45-8 7.91-11.48 7.91-.56 0-1.82-.21-1.82-.91s1.75-.7 2.17-.84a15.59 15.59 0 0 0 5.33-3.04 31.06 31.06 0 0 0 9-12c-1.05.07-2.17.14-3.22.14-.7 0-2.24-.21-2.24-1.12 0-1.4 5.25-1.26 6.37-1.26.42-.91 1.54-4.55 2.73-4.55.84 0 1.05 1.4 1.05 2a8.08 8.08 0 0 1-.77 2.52 25.32 25.32 0 0 1 4 0c.31-.05 1.15-.26 1.15.27z" fill="#7f604d"/><path d="M375.27 34.02a27.21 27.21 0 0 0 4.13.21.78.78 0 0 1 .77.77.78.78 0 0 1-.77.77 27.16 27.16 0 0 1-4.55-.28c-1.4 3.71-5.53 7.07-9.31 7.07-2.94 0-4.48-2.52-4.48-5.18a9.3 9.3 0 0 1 .21-2c-4.41 3-8.61 5.39-14.07 5.39-.63 0-1.68.14-1.68-.77a.76.76 0 0 1 .77-.7 27.07 27.07 0 0 0 3.36-.28 22.14 22.14 0 0 0 6-2 21.81 21.81 0 0 0 5.32-3.29 12.7 12.7 0 0 0 1.4-1.33l.63-1a17.62 17.62 0 0 1 1.84-2.52c1.26-1.54 3.57-3.78 5.67-3.78s2.8 1.75 2.8 3.5a5.18 5.18 0 0 1 2.07 4.28 6 6 0 0 1-.11 1.14zm-2.52.91c-2.1-.7-3.92-2-3.92-4.55 0-1.47 1.12-2.24 2.73-2.38a1.42 1.42 0 0 0-1.19-.77 2.78 2.78 0 0 0-1.75.63c-2.66 1.89-5.32 6.44-5.32 9.73a2.87 2.87 0 0 0 2.94 3.08c1.95 0 5.32-2.38 6.51-5.79zm.42-1.47a4.6 4.6 0 0 0 .07-1c0-1.47-.77-2.66-2-2.66-.28 0-.42.28-.42.56a3.15 3.15 0 0 0 2.35 3.1z" fill="#7f604d"/><path d="M403.76 19.11C404.95 14.35 409.08 0 414.96 0a2.29 2.29 0 0 1 2.31 2.59c0 4.62-4 10.78-6.23 14.77s-4.13 8.12-6.79 11.83c.28 4.27 1.68 8.26 6.23 9.59a12.16 12.16 0 0 0 3.5.56.76.76 0 0 1 .77.7.78.78 0 0 1-.77.77c-6.23 0-10-3.5-11.2-9.45-2.73 3.78-7.21 10.36-12.39 10.36a4.27 4.27 0 0 1-4.48-4.34 6.29 6.29 0 0 1 .91-2.94 21.14 21.14 0 0 1-7.49 1.33.78.78 0 0 1-.77-.77.78.78 0 0 1 .77-.77 21.66 21.66 0 0 0 8.33-2 6.17 6.17 0 0 0 1.19-.56c2.24-1.68 1.89-1.75 4.76-2.66l.07-.07v.07a6.34 6.34 0 0 1 1.6-.13 5.06 5.06 0 0 1 4.69 3.36c.91-1.19 1.68-2.38 2.52-3.57a39.5 39.5 0 0 1 1.27-9.56zM398.3 34.3l.07-.07a3.26 3.26 0 0 0-3.36-3.08c-2.87 0-6.72 2.94-6.72 6a2.17 2.17 0 0 0 2.31 2.31c3.21.02 5.78-2.99 7.69-5.16zm9.59-14.63c1.26-2.24 2.45-4.55 3.64-6.86s3.5-6 3.5-8.4c0-.7-.28-1.4-1.12-1.4-3.22 0-6.72 11.27-7.56 13.93a49 49 0 0 0-2.1 9z" fill="#7f604d"/><path d="M448.56 38.22c0 1.75-3.64 2.59-5 2.59-6.3 0-7.21-6.16-8.75-6.16-1.75 0-3.78 7.56-9.87 7.56a3.51 3.51 0 0 1-3.85-3.78v-.35c-2.24 1.61-3.92 2.73-6.79 2.73-.56 0-1.12-.07-1.12-.77a.76.76 0 0 1 .77-.7c3.15 0 5.74-2.24 8.05-4.2 1.68-3.08 5.39-6.65 9.1-6.65a4.75 4.75 0 0 1 4.27 2.24 1.93 1.93 0 0 1 2 1.19 11.92 11.92 0 0 1 .63 2.1c.77 2.73 2.45 5.32 5.6 5.32 2.17 0 4.34-1.61 4.62-1.61s.34.21.34.49zm-15.68-5.81c-.56-.91-1.12-1.75-2.31-1.75-2.87 0-7.07 4.69-7.07 7.49a1.86 1.86 0 0 0 2 2c3.1.03 5.69-5.57 7.37-7.74zM499.72 38.22c0 1.75-3.64 2.59-5 2.59-6.37 0-7.21-6.16-8.82-6.16s-3.71 7.56-9.8 7.56c-2.38 0-3.85-1.33-3.85-3.71 0-4.27 5.67-10 9.94-10a4.72 4.72 0 0 1 4.34 2.24 2 2 0 0 1 2 1.19 11.78 11.78 0 0 1 .56 2.1c.63 2.59 2.73 5.32 5.6 5.32 2.31 0 4.41-1.61 4.69-1.61s.34.2.34.48zm-23.1 2c3.15 0 5.74-5.6 7.42-7.77-.56-.91-1.19-1.75-2.31-1.75-2.94 0-7.07 4.69-7.07 7.49a1.86 1.86 0 0 0 1.96 1.99zM542.63 19.11C543.82 14.35 547.95 0 553.83 0a2.29 2.29 0 0 1 2.31 2.59c0 2.31-1.12 5-2 7.07-1.19 2.66-2.8 5.11-4.2 7.7-1.89 3.43-3.57 6.86-5.67 10.15-.35.56-.7 1.12-1.12 1.68.42 2.73.63 5.39 2.73 7.49a10 10 0 0 0 7 2.66.72.72 0 0 1 .77.7.78.78 0 0 1-.77.77c-6.23 0-10-3.5-11.2-9.45-2.73 3.78-7.21 10.36-12.39 10.36a4.27 4.27 0 0 1-4.48-4.34c0-4.2 5.25-8.54 9.38-8.54a5.06 5.06 0 0 1 4.69 3.36c.91-1.19 1.68-2.38 2.52-3.57a39.4 39.4 0 0 1 1.23-9.52zm-5.46 15.19l.07-.07a3.26 3.26 0 0 0-3.36-3.08c-2.87 0-6.72 2.94-6.72 6a2.17 2.17 0 0 0 2.31 2.31c3.22.02 5.74-2.92 7.7-5.16zm9.59-14.63c1.26-2.24 2.45-4.55 3.64-6.86s3.5-6 3.5-8.4c0-.7-.28-1.4-1.12-1.4-3.15 0-6.72 11.34-7.56 13.93a49 49 0 0 0-2.1 9z" fill="#7f604d"/><path d="M571.26 27.88a2.42 2.42 0 0 1 .49 1.82c0 2.66.63 6.09 2.45 8.12 1.19 1.33 1.82 1.33 3.5 1.54.35.07.77.28.77.7a.78.78 0 0 1-.77.77c-5 0-7.56-5.18-7.84-9.59a25 25 0 0 1-9.24 7.84 16.91 16.91 0 0 1-7.84 1.75.78.78 0 0 1-.77-.77.76.76 0 0 1 .77-.7 14.1 14.1 0 0 0 6.93-1.68 21.54 21.54 0 0 0 7.42-6.8c.63-.91 1.89-3.43 3.15-3.43a1.27 1.27 0 0 1 .98.43zm-1.33-10.92c0-.7.63-1 1.26-1 1.12 0 1.68 1.47 1.68 2.45 0 .56-.28 1.05-.84 1.05-.98 0-2.1-1.58-2.1-2.52z" fill="#7f604d"/><path d="M612.38 11.69c0 6.72-12 15.54-16.8 19.6l-.91.77a16 16 0 0 1-.56 2 19.12 19.12 0 0 0 5.27 3.82 16.6 16.6 0 0 0 6.37 1.47.76.76 0 0 1 .77.7.78.78 0 0 1-.77.77c-5.18 0-8.19-1.61-12.25-4.69l-.42 1.54c3.66 4.75 9.3 12.21 9.3 18.4 0 3.71-2.31 7.56-6.3 7.56-5.32 0-7-6-7-10.29a68.84 68.84 0 0 1 2-15.05 13.12 13.12 0 0 1-1.54-1.89c-3.92 2.24-7.14 4.41-11.9 4.41a.78.78 0 0 1-.77-.77.76.76 0 0 1 .77-.7c3.71 0 7.91-2.45 10.92-4.55a3.17 3.17 0 0 1-.35-1.4 1.6 1.6 0 0 1 1.75-1.68 4.57 4.57 0 0 1 1.68.42l.14.07 1.19-1.05c2.17-7.14 5.88-16.38 11.76-21.49a6.65 6.65 0 0 1 4.05-1.78c2.31 0 3.6 1.57 3.6 3.81zm-12.21 44.19c0-5.46-4.34-11.55-7.63-15.68a2 2 0 0 1-.14.63 57.2 57.2 0 0 0-1.4 11.41c0 3.15 1.05 9.24 5.25 9.24 2.87-.02 3.92-3.24 3.92-5.6zm-9-20.72a3.83 3.83 0 0 0 .49.63l.21-.91-.21-.14zm16.1-18.13c1-1.26 2.38-2.94 2.38-4.62 0-.77-.28-1.54-1.12-1.54-5.11 0-11.48 13.58-12.88 17.85a73.35 73.35 0 0 0 11.59-11.71z" fill="#7f604d"/><path d="M631.53 28.21a3.58 3.58 0 0 1-.42 1.47 5.36 5.36 0 0 1-1.73 1.54c-.91.56-1.89 1-2.8 1.47-1.68.91-3.22 1.89-4.9 2.73.28 2.66 2 3.57 4.48 3.92.35.07.77.28.77.7a.78.78 0 0 1-.77.77 6.77 6.77 0 0 1-6.51-4.34c-4.41 2.17-8.82 4.34-13.86 4.34a.79.79 0 0 1-.84-.77.76.76 0 0 1 .77-.7 20.33 20.33 0 0 0 6.16-1 63.09 63.09 0 0 0 7.63-3.57c0-4.13 3.78-9.59 8.26-9.59 1.73-.05 3.76 1 3.76 3.03zm-3 1a1.16 1.16 0 0 0 .35-.84c0-.84-.84-1.12-1.54-1.12-3 0-5 3.64-5.53 6.16 1.04-.44 6.08-3.38 6.71-4.15z" fill="#7f604d"/><path d="M664.01 39.34a.78.78 0 0 1 .77.77.76.76 0 0 1-.77.7c-3.64 0-7.56-1.82-7.56-6 0-2.87 2-5.81 2-8.75 0-2-2.1-2.59-3.5-3.36l-.21.49c-3.36 6.21-10.96 11.46-17.19 14.69A22.2 22.2 0 0 1 626 40.82a.76.76 0 0 1-.7-.77.75.75 0 0 1 .7-.7 19.44 19.44 0 0 0 6-1c7.21-2.31 17.71-9.38 21.14-16.52-1.61-.84-3.43-2-3.43-4.06a3 3 0 0 1 3.08-2.94 3.47 3.47 0 0 1 3.43 3.57 7.23 7.23 0 0 1-.42 2.45c2.38 1 4.76 2.31 4.76 5.32s-2 6.65-2 9c-.01 2.63 3.14 4.17 5.45 4.17zm-10.15-19.53l.07-.07a5.3 5.3 0 0 0 .21-1.47c0-.56-.28-1.4-1.05-1.4a1.14 1.14 0 0 0-1.12 1c0 .89 1.26 1.52 1.89 1.94z" fill="#7f604d"/><path d="M689.7 28.21a3.55 3.55 0 0 1-.42 1.47 5.33 5.33 0 0 1-1.75 1.54c-.91.56-1.89 1-2.8 1.47-1.68.91-3.22 1.89-4.9 2.73.28 2.66 2 3.57 4.48 3.92.35.07.77.28.77.7a.78.78 0 0 1-.77.77 6.77 6.77 0 0 1-6.51-4.34c-4.41 2.17-8.82 4.34-13.86 4.34a.79.79 0 0 1-.84-.77.76.76 0 0 1 .77-.7 20.32 20.32 0 0 0 6.16-1 63 63 0 0 0 7.63-3.57c0-4.13 3.78-9.59 8.26-9.59 1.75-.05 3.78 1 3.78 3.03zm-3 1a1.16 1.16 0 0 0 .35-.84c0-.84-.84-1.12-1.54-1.12-3 0-5 3.64-5.53 6.16 1.04-.44 6.08-3.38 6.71-4.15z" fill="#7f604d"/><path d="M728.13 32.83c.84 2.94 1.4 6.51 5.25 6.51a.75.75 0 0 1 .7.7.72.72 0 0 1-.7.77c-7.7 0-6.51-9.24-8.82-9.24-1.89 0-6 9.45-9.24 9.45-1.47 0-2-1.33-2-2.59 0-2.31 1.19-4.83 1.19-6.93 0-1-.28-1.54-1.4-1.54-1.47 0-4.69 2.38-6.09 3.15-6.37 3.57-15.47 7.7-22.82 7.7a.72.72 0 0 1-.7-.77c0-.63.49-.7 1-.7 4.48-.07 10.08-2.24 14.21-4 3.92-1.61 8.33-4.48 12-6.79a4.91 4.91 0 0 1 2.73-.91 3.2 3.2 0 0 1 3.22 3.5c0 2.17-1.4 4.83-1.4 6.86 0 .35 0 .84.42.84 1.54 0 6.3-9.87 9.52-9.87 1.74.01 2.51 2.46 2.93 3.86z" fill="#7f604d"/><path d="M733.16 39.34a20.33 20.33 0 0 0 6.16-1 40.61 40.61 0 0 0 10.15-6.16 5.81 5.81 0 0 0 1.19-1c.21-.28.35-.77.56-1.12a11.53 11.53 0 0 1 2.73-3.36 5.4 5.4 0 0 1 3.15-1.26c1.12 0 3.71 1 3.71 2.24a.37.37 0 0 1-.42.42c-.84 0-1.19-1.05-2.59-1.05-3.15 0-5.67 5.32-5.67 8.05s1.75 4.06 4.34 4.34c.42.07.77.28.77.77a.72.72 0 0 1-.77.7c-2.94 0-6-1.75-6.58-4.76 0-.21-.14-.49-.14-.7a9.35 9.35 0 0 1 .07-1.4c-4.9 3.85-10.29 6.86-16.66 6.86a.72.72 0 0 1-.77-.7.78.78 0 0 1 .77-.87zm18.48 9.1c0-.63 1.33-.63 2.24-1.54 2.24-2.38.56-5.32 2.24-5.32.49 0 .91.21.91.7 0 2-.56 6-4.48 6.44-.41 0-.9 0-.9-.28z" fill="#7f604d"/><path d="M802.47 38.22c0 1.75-3.64 2.59-5 2.59-6.3 0-7.21-6.16-8.82-6.16s-3.71 7.56-9.8 7.56c-2.38 0-3.85-1.33-3.85-3.71a7.09 7.09 0 0 1 1.19-3.78c-5.6 2.52-13.65 6.09-19.74 6.09a.78.78 0 0 1-.77-.77c0-.63.63-.7 1-.7 3.85-.07 10.5-2.45 14.14-4a58.46 58.46 0 0 0 7.63-3.57l.07-.07c1.75-1.75 3.92-3.22 6.44-3.22a4.75 4.75 0 0 1 4.27 2.24 1.84 1.84 0 0 1 2 1.19 11.78 11.78 0 0 1 .56 2.1c.7 2.66 2.66 5.32 5.67 5.32 2.17 0 4.34-1.61 4.62-1.61s.39.22.39.5zm-15.68-5.81c-.56-.91-1.12-1.75-2.31-1.75-2.87 0-7.07 4.69-7.07 7.49a1.86 1.86 0 0 0 2 2c3.11.03 5.7-5.57 7.38-7.74zM810.09 37.88a2 2 0 0 1 1.89 1.82 1.48 1.48 0 0 1-1.47 1.54 1.69 1.69 0 0 1-1.89-1.89 1.13 1.13 0 0 1 .42-1 1.54 1.54 0 0 1 1.05-.47z" fill="#7f604d"/></svg>