<svg xmlns="http://www.w3.org/2000/svg" viewBox="0 0 701.55 58.56"><title>p8_s2</title><path d="M33.13 31.18a10 10 0 0 1-6.59-2.92 15 15 0 0 1-2.81-3.42c-1.76 4.42-5.18 11.89-10.76 11.89-3 0-4.39-2.32-4.39-5.06a18 18 0 0 1 .85-5.06c-2.07 1.22-5.12 2.87-7.56 2.87-.55 0-1.83-.37-1.83-1.1 0-.55 1.59-.37 2-.43 2.56-.24 6-2.26 8.17-3.72 1.46-4.64 6.89-20.8 12.87-20.8 1.89 0 2.81 1.53 2.81 3.23 0 5.43-10.37 15.37-14.27 18.48a21.23 21.23 0 0 0-1.16 6.47c0 1.53.67 3.23 2.44 3.23 2.32 0 4.39-2.13 5.73-3.84 1.89-2.44 2.56-5.43 3.66-8.3a1.56 1.56 0 0 1 1.46-1.22c1.34 0 1.77 1.28 2.14 2.32a11.65 11.65 0 0 0 1.83 3.29 7 7 0 0 0 4.45 2.68c.55.06 1.71-.12 1.71.73a.68.68 0 0 1-.75.68zM19.89 7.69a40.78 40.78 0 0 0-3.9 7c-1.16 2.56-2.38 5.06-3.42 7.69v.06c2.38-2.2 8.78-9.27 10.07-12a7.7 7.7 0 0 0 .92-3c0-.73-.31-1.53-1.1-1.53-1.05-.05-2.02 1.05-2.57 1.78z" fill="#fff"/><path d="M49.11 24.65c0 2.87-6.47 4.82-8.54 5.55l-.12.06v.37c0 2.38 1.77 3.42 3.9 3.66.3.06.67.24.67.61a.68.68 0 0 1-.67.67 5.72 5.72 0 0 1-5.73-4.21c-.06-.18 0-.61-.12-.73a30 30 0 0 1-5.19.55.68.68 0 0 1-.67-.67.68.68 0 0 1 .67-.67 22.16 22.16 0 0 0 5.3-.58c.67-3.29 3.35-7.32 7.14-7.32 1.59-.04 3.36.88 3.36 2.71zm-2.5-.06c0-.61-.67-.79-1.22-.79-2.44 0-4.27 2.87-4.76 5 1.46-.31 5.97-2.54 5.97-4.21z" fill="#fff"/><path d="M82.54 28.61c.73 2.56 1.22 5.67 4.58 5.67a.66.66 0 0 1 .61.61.63.63 0 0 1-.61.67c-6.71 0-5.67-8.05-7.69-8.05-1.65 0-5.19 8.24-8.05 8.24-1.28 0-1.77-1.16-1.77-2.26 0-2 1-4.21 1-6 0-.92-.24-1.34-1.22-1.34-1.28 0-4.09 2.07-5.31 2.75-5.55 3.11-13.48 6.71-19.89 6.71a.63.63 0 0 1-.61-.67c0-.55.43-.61.85-.61 3.9-.06 8.78-2 12.38-3.48a73.83 73.83 0 0 0 10.43-5.92 4.27 4.27 0 0 1 2.38-.79 2.79 2.79 0 0 1 2.81 3.05c0 1.89-1.22 4.21-1.22 6 0 .3 0 .73.37.73 1.34 0 5.49-8.6 8.3-8.6 1.62-.06 2.29 2.07 2.66 3.29z" fill="#fff"/><path d="M109.43 24.59a3.11 3.11 0 0 1-.37 1.28 4.65 4.65 0 0 1-1.52 1.34c-.79.49-1.65.85-2.44 1.28-1.46.79-2.81 1.65-4.27 2.38.24 2.32 1.77 3.11 3.9 3.42.31.06.67.24.67.61a.68.68 0 0 1-.67.67 5.9 5.9 0 0 1-5.67-3.78c-3.84 1.89-7.69 3.78-12.08 3.78a.69.69 0 0 1-.73-.67.66.66 0 0 1 .72-.64 17.71 17.71 0 0 0 5.37-.92 54.92 54.92 0 0 0 6.63-3.08c0-3.6 3.29-8.36 7.2-8.36 1.5 0 3.26.92 3.26 2.69zm-2.62.92a1 1 0 0 0 .3-.73c0-.73-.73-1-1.34-1-2.62 0-4.33 3.17-4.82 5.37a39.72 39.72 0 0 0 5.86-3.65z" fill="#fff"/><path d="M145.3 10.19a8.82 8.82 0 0 1-1.71 4.7c-2.14 3.17-7.26 6.83-10.49 9l-2.44 1.59s-1.16 3.9-1.28 4.33a16.07 16.07 0 0 0 4.59 3.13 14.82 14.82 0 0 0 5.6 1.32.67.67 0 0 1 .67.61.68.68 0 0 1-.67.67c-5.06 0-6.65-1.46-10.74-4l-.37 1.4c.92 1 1.65 2.2 2.5 3.29 2.56 3.36 5.37 8.24 5.37 12.57 0 3.11-1.65 6.53-5.19 6.53-4.39 0-6-5-6.16-8.66v-1.04a50.55 50.55 0 0 1 1.65-12.08c-1-1.22-2.44-2.62-2.62-4.27-4.88 2.44-14.15 6.28-19.34 6.28a.61.61 0 0 1-.67-.67.66.66 0 0 1 .61-.61 19.37 19.37 0 0 0 5.25-.92c6-1.65 14.46-5.12 19.34-8.79 1.89-5.41 4.77-12.31 9.39-16.15a6.16 6.16 0 0 1 3.6-1.53 3 3 0 0 1 3.11 3.3zm-18.12 21.17a3.94 3.94 0 0 1 .24-.79 7 7 0 0 0-.79-.61.46.46 0 0 0-.43-.3.21.21 0 0 0-.12.06 5.55 5.55 0 0 0 1.1 1.64zm1.34-4.64a13.77 13.77 0 0 1-2 1.16 4.58 4.58 0 0 1 1.34.79 18.14 18.14 0 0 1 .67-1.95zm5.92 22c0-4.7-3.6-9.82-6.41-13.42a.55.55 0 0 0-.06.31 59.5 59.5 0 0 0-1.27 10.33c0 2.56 1.1 7.63 4.51 7.63 2.5-.01 3.23-2.87 3.23-4.89zm8.53-37.68c0-.73-.18-1.59-1-1.59-3.17 0-6.53 5.73-7.81 8.17a51.12 51.12 0 0 0-2.75 5.49c3.22-2.24 11.56-7.85 11.56-12.07z" fill="#fff"/><path d="M155.61 24.26a2.11 2.11 0 0 1 .43 1.59c0 2.32.55 5.31 2.14 7.08 1 1.16 1.59 1.16 3.05 1.34.31.06.67.24.67.61a.68.68 0 0 1-.67.67c-4.39 0-6.59-4.51-6.83-8.36a21.77 21.77 0 0 1-8.05 6.83 14.74 14.74 0 0 1-6.83 1.53.68.68 0 0 1-.67-.67.66.66 0 0 1 .67-.61 12.28 12.28 0 0 0 6-1.46 18.78 18.78 0 0 0 6.45-5.91c.55-.79 1.65-3 2.75-3a1.11 1.11 0 0 1 .89.36zm-3.11-5.25c-.24 0-.37-.06-.37-.24 0-.43 4.09-4 5.06-4 .49 0 .92.24.92.61 0 .79-3.72 3.17-5.06 3.54a1.7 1.7 0 0 1-.55.11z" fill="#fff"/><path d="M161.1 34.26a17.71 17.71 0 0 0 5.37-.92 35.33 35.33 0 0 0 8.85-5.37 5 5 0 0 0 1-.92c.18-.24.31-.67.49-1a10 10 0 0 1 2.38-2.93 4.72 4.72 0 0 1 2.75-1.1c1 0 3.23.85 3.23 2a.32.32 0 0 1-.37.37c-.73 0-1-.92-2.26-.92-2.75 0-4.94 4.64-4.94 7s1.53 3.54 3.78 3.78c.37.06.67.24.67.67a.63.63 0 0 1-.67.61c-2.56 0-5.25-1.53-5.73-4.15 0-.18-.12-.43-.12-.61a8.17 8.17 0 0 1 .06-1.22c-4.27 3.35-9 6-14.52 6a.63.63 0 0 1-.67-.61.68.68 0 0 1 .7-.68z" fill="#fff"/><path d="M207.64 24.34a11.92 11.92 0 0 1 .31 2.2c.24 2.26.55 4.64 2.14 6.41a3.77 3.77 0 0 0 1.34 1c.61.24 2.38.12 2.38.92a.68.68 0 0 1-.67.67 6.31 6.31 0 0 1-4.82-2.5 14.49 14.49 0 0 1-2.62-7c-6.22 4.27-16.84 9.46-24.34 9.46a.68.68 0 0 1-.67-.67c0-.55.55-.61.92-.61 4-.12 8.6-2 12.32-3.48a42.43 42.43 0 0 0 6.16-3.23c.85-.55 1.65-1.1 2.44-1.71s2.5-2.32 3.72-2.32a1.62 1.62 0 0 1 1.39.86zm-1.28-9.58c0-.61.55-.85 1.1-.85 1 0 1.46 1.28 1.46 2.14 0 .49-.18.92-.73.92-.85-.01-1.83-1.41-1.83-2.21z" fill="#fff"/><path d="M238.26 29.65a23.77 23.77 0 0 0 3.6.18.68.68 0 0 1 .67.67.68.68 0 0 1-.67.67 23.66 23.66 0 0 1-4-.24c-1.22 3.23-4.82 6.16-8.11 6.16-2.56 0-3.9-2.2-3.9-4.51a8.14 8.14 0 0 1 .18-1.71c-3.84 2.62-7.5 4.7-12.26 4.7-.55 0-1.46.12-1.46-.67a.66.66 0 0 1 .66-.64 23.68 23.68 0 0 0 2.93-.24 19.34 19.34 0 0 0 5.22-1.76 19 19 0 0 0 4.64-2.87 10.91 10.91 0 0 0 1.21-1.13l.55-.85a15.35 15.35 0 0 1 1.65-2.26c1.1-1.34 3.11-3.29 4.94-3.29s2.44 1.53 2.44 3.05a4.52 4.52 0 0 1 1.77 3.78 5.24 5.24 0 0 1-.06.96zm-2.2.79c-1.83-.61-3.42-1.77-3.42-4 0-1.28 1-2 2.38-2.07a1.24 1.24 0 0 0-1-.67 2.43 2.43 0 0 0-1.53.55c-2.32 1.65-4.64 5.61-4.64 8.48a2.5 2.5 0 0 0 2.56 2.68c1.69.04 4.62-2.04 5.66-4.97zm.37-1.28a4 4 0 0 0 .06-.85c0-1.28-.67-2.32-1.71-2.32-.24 0-.37.24-.37.49a2.75 2.75 0 0 0 2.02 2.68z" fill="#fff"/><path d="M264.49 27.21a5.45 5.45 0 0 1 2.2 4.15c0 6.34-8.3 8.11-13.24 8.11-.49 0-1.71-.24-1.71-.92s1-.79 1.46-.79a21.08 21.08 0 0 0 5.19-.5c2.44-.61 4-1.22 5.43-3.23a4.44 4.44 0 0 0 .79-2.62c0-3.23-6-6.65-8.11-8.91-4.15 3.84-8.6 8.66-14.7 8.66a.68.68 0 0 1-.67-.67.68.68 0 0 1 .67-.67 8.68 8.68 0 0 0 2.81-.43c4-1.4 7.93-5.19 11-8.11a4.4 4.4 0 0 1-.49-2c0-2.26 2.26-5.49 4.7-5.49a1.84 1.84 0 0 1 1.89 2c0 2-2.38 4.33-3.9 5.49-.06 0-.06.06-.12.06 2.11 2.09 4.55 3.92 6.8 5.87zm-7.52-7.81v.18l.06.43c.73-.67 2.93-2.75 2.93-3.78a.49.49 0 0 0-.55-.55c-1.26 0-2.44 2.68-2.44 3.72zM305.73 32.09c0 1.83-3.54 2.93-4.94 3.23a11.61 11.61 0 0 1-2.5.24c-3.11 0-5.86-2.07-5.86-5.31a23.23 23.23 0 0 1-4.09.43c-.55 0-1.77-.37-1.77-1.1 0-.43.67-.43 1-.43a24.55 24.55 0 0 0 5.12-.61c.06-.06.06-.12.06-.24.67-3 3.66-6.41 6.89-6.41 1.59 0 3.36.92 3.36 2.68a3.38 3.38 0 0 1-.37 1.34c-.92 1.83-5.92 3.11-7.81 3.72a1.42 1.42 0 0 1-.49.12v.55c0 2.5 1.59 3.78 4 4h.06a9.56 9.56 0 0 0 5.73-1.65 14.41 14.41 0 0 1 1.28-1c.27.01.33.13.33.44zm-11-4c1.4-.3 5.73-1.83 5.73-3.48 0-.67-.67-.79-1.22-.79-2.11-.03-3.94 2.35-4.49 4.24zM339.34 29.65a23.77 23.77 0 0 0 3.6.18.68.68 0 0 1 .67.67.68.68 0 0 1-.67.67 23.67 23.67 0 0 1-4-.24c-1.22 3.23-4.82 6.16-8.11 6.16-2.56 0-3.9-2.2-3.9-4.51 0-2.75 1.59-5.43 3.29-7.44 1.1-1.34 3.11-3.29 4.94-3.29s2.44 1.53 2.44 3.05a4.52 4.52 0 0 1 1.77 3.78 5.24 5.24 0 0 1-.03.97zm-2.2.79c-1.83-.61-3.42-1.77-3.42-4 0-1.28 1-2 2.38-2.07a1.24 1.24 0 0 0-1-.67 2.43 2.43 0 0 0-1.52.55c-2.32 1.65-4.64 5.61-4.64 8.48a2.5 2.5 0 0 0 2.56 2.68c1.68.04 4.6-2.04 5.64-4.97zm.37-1.28c0-.24.06-.55.06-.85 0-1.28-.67-2.32-1.71-2.32-.24 0-.37.24-.37.49a2.75 2.75 0 0 0 2.02 2.68z" fill="#fff"/><path d="M370.69 34.96a.65.65 0 0 1-.73.61 27.92 27.92 0 0 1-5.19-.43c-1.46-.24-3.29-.49-4.27-1.22-1.89 6.53-3 8.85-4.82 14-1.77 5-3.17 10.61-6.89 10.61-1.77 0-3.05-2-3.05-4.51 0-8.72 10.74-22.88 15.5-29.71v-1.05c0-.67-.3-1.53-.85-1.53a.85.85 0 0 0-.55.24c-.73.55-7.44 6.22-10.31 7.63a14 14 0 0 1-6.56 1.58.66.66 0 0 1-.73-.67.69.69 0 0 1 .73-.67 10.11 10.11 0 0 0 5.76-1.58c3.36-1.89 8.42-6.47 10-8a4.24 4.24 0 0 1 2.5-1.34c1.1 0 2 1.28 2 3.23v.43h.06a9.5 9.5 0 0 1 4.68-1.78c2.44 0 5.31 1.4 5.31 4.27 0 3.54-4.64 8.3-8.72 8.3a13.29 13.29 0 0 0 5.41.89.73.73 0 0 1 .72.7zm-10.19-7.08c-4.51 6.89-6 8.79-8.42 12.87a56.91 56.91 0 0 0-3.84 8.72 14.33 14.33 0 0 0-.85 4.58c0 1.71.43 2.68 1.46 2.68 1.59 0 2.5-2.32 3.72-5.61 1.65-4.33 2.62-6.71 4.09-11.29 1.31-4.2 2.87-7.98 3.84-11.95zm2.32 4.64c2.62 0 8.17-2.87 8.17-7a2.58 2.58 0 0 0-2.87-2.56 9.43 9.43 0 0 0-5.15 1.87 57.47 57.47 0 0 1-1.92 7.43 6.45 6.45 0 0 0 1.77.26z" fill="#fff"/><path d="M400.4 29.65a23.78 23.78 0 0 0 3.6.18.68.68 0 0 1 .67.67.68.68 0 0 1-.67.67 23.66 23.66 0 0 1-4-.24c-1.22 3.23-4.82 6.16-8.11 6.16-2.56 0-3.9-2.2-3.9-4.51a8.29 8.29 0 0 1 .55-2.93c-5.43 2.38-12.75 5.92-18.55 5.92a.63.63 0 0 1-.61-.67.66.66 0 0 1 .59-.64 19.37 19.37 0 0 0 5.25-.92 71 71 0 0 0 14.28-5.86 24 24 0 0 1 1.77-2.38c1.1-1.34 3.11-3.29 4.94-3.29s2.44 1.53 2.44 3.05a4.52 4.52 0 0 1 1.77 3.78 5.2 5.2 0 0 1-.02 1.01zm-2.2.79c-1.83-.61-3.42-1.77-3.42-4 0-1.28 1-2 2.38-2.07a1.24 1.24 0 0 0-1-.67 2.43 2.43 0 0 0-1.53.55c-2.32 1.65-4.64 5.61-4.64 8.48a2.5 2.5 0 0 0 2.56 2.68c1.69.04 4.61-2.04 5.65-4.97zm.37-1.28c0-.24.06-.55.06-.85 0-1.28-.67-2.32-1.71-2.32-.24 0-.37.24-.37.49a2.75 2.75 0 0 0 2.02 2.68z" fill="#fff"/><path d="M426.56 34.26a.66.66 0 0 1 .61.67.66.66 0 0 1-.61.61c-3.11 0-6.59-1.53-6.59-5.12 0-2.5 1.71-5.19 1.71-7.63 0-1.77-1.83-2.26-3-3a2.75 2.75 0 0 1-.24.43c-2.07 3.48-6.53 8.6-10.37 10.19a12.73 12.73 0 0 1-4 .73.69.69 0 0 1-.73-.67.68.68 0 0 1 .67-.67 10.3 10.3 0 0 0 3-.49 10 10 0 0 0 4.15-2.68 28.79 28.79 0 0 0 5.92-7.69c-1.4-.73-3-1.77-3-3.6a2.69 2.69 0 0 1 2.75-2.5 3 3 0 0 1 2.93 3.11 6.28 6.28 0 0 1-.37 2.13c2.07.92 4.15 2 4.15 4.58s-1.22 4.82-1.71 7.32a2.06 2.06 0 0 0-.06.61c-.02 2.42 2.72 3.67 4.79 3.67zm-8.85-17c0-.18.18-1 .18-1.34s-.24-1.22-.92-1.22a1 1 0 0 0-1 .92c0 .64 1.2 1.34 1.75 1.64z" fill="#fff"/><path d="M448.28 19.03c0 1.53-4.27 1.59-5.31 1.65v.06a2.52 2.52 0 0 1-.24.61 22.39 22.39 0 0 0-2 7.87 4.67 4.67 0 0 0 1.46 3.78 6 6 0 0 0 3.35 1.26c.3.06.67.24.67.61a.68.68 0 0 1-.67.67 5.94 5.94 0 0 1-6.22-6.16 20.06 20.06 0 0 1 .49-3.84c-2.2 3.84-8.72 10-13.42 10a.68.68 0 0 1-.67-.67c0-.37.37-.55.67-.61a13.36 13.36 0 0 0 6.15-3 27.06 27.06 0 0 0 7.87-10.43c-1 .06-1.89.12-2.87.12-.55 0-1.89-.18-1.89-1 0-1.22 4.51-1.1 5.55-1.1.31-.79 1.34-4 2.38-4 .79 0 .92 1.34.92 1.89a8.71 8.71 0 0 1-.67 2 22 22 0 0 1 3.48 0c.24.05.97-.13.97.29z" fill="#fff"/><path d="M465.73 34.71c3-2 4.09-5 5.61-8.11.43-.85 1.22-2 2.26-2 1.89 0 1.34 3.42 1.53 4.7a5.89 5.89 0 0 0 4.84 4.86c.49.12 1.65 0 1.65.73a.68.68 0 0 1-.67.67 8.3 8.3 0 0 1-8.36-7.08 9.63 9.63 0 0 1-1.1 2.26c-1.77 3-4.33 6.41-8.17 6.41-3.17 0-4.7-2.68-4.7-5.55a10.27 10.27 0 0 1 .35-2.74 22.3 22.3 0 0 1-6.71 5.19 14.74 14.74 0 0 1-6.83 1.53.63.63 0 0 1-.61-.67.66.66 0 0 1 .61-.61 12.51 12.51 0 0 0 6.1-1.46 22.49 22.49 0 0 0 6.77-5.92c.55-.85 1.89-3.11 3.11-3.11a1.29 1.29 0 0 1 1.22 1.34c0 1.65-2.26 4-2.26 7a3 3 0 0 0 3.17 3.29 3.7 3.7 0 0 0 2.19-.73z" fill="#fff"/><path d="M513.31 28.61c.73 2.56 1.28 5.67 4.58 5.67a.67.67 0 0 1 .67.61.68.68 0 0 1-.67.67c-6.65 0-5.73-8.05-7.69-8.05-1.71 0-5.25 8.24-8.05 8.24-1.28 0-1.77-1.16-1.77-2.26 0-2 1-4.21 1-6 0-.79-.12-1.71-1.1-1.71-3.72 0-11 9.82-17.81 9.82-.61 0-2.32.3-2.32-.67a.67.67 0 0 1 .67-.61 15.65 15.65 0 0 0 9.52-3.66c2.13-1.59 6-5.31 8.17-6.22a5 5 0 0 1 1.83-.43 2.87 2.87 0 0 1 2.87 3.17c0 2-1.22 4.15-1.22 6 0 .3 0 .73.43.73 1.34 0 5.37-8.6 8.3-8.6 1.55-.05 2.25 2.08 2.59 3.3z" fill="#fff"/><path d="M533.86 24.26a2.11 2.11 0 0 1 .43 1.59c0 2.32.55 5.31 2.13 7.08 1 1.16 1.59 1.16 3 1.34.31.06.67.24.67.61a.68.68 0 0 1-.67.67c-4.39 0-6.59-4.51-6.83-8.36a21.77 21.77 0 0 1-8.05 6.83 14.74 14.74 0 0 1-6.83 1.53.68.68 0 0 1-.67-.67.67.67 0 0 1 .67-.61 12.28 12.28 0 0 0 6-1.46 18.78 18.78 0 0 0 6.47-5.92c.55-.79 1.65-3 2.75-3a1.11 1.11 0 0 1 .93.37zm-1.16-9.52c0-.61.55-.85 1.1-.85 1 0 1.46 1.28 1.46 2.14 0 .49-.24.92-.73.92-.85.01-1.83-1.39-1.83-2.19z" fill="#fff"/><path d="M561.68 16.66c1-4.15 4.58-16.65 9.76-16.65a2 2 0 0 1 2 2.26c0 4-3.54 9.33-5.43 12.87a95.91 95.91 0 0 1-5.92 10.31c.06.73.12 1.59.24 2.32a7.57 7.57 0 0 0 5.13 6 11 11 0 0 0 3.11.49.67.67 0 0 1 .67.61.68.68 0 0 1-.67.67 9.53 9.53 0 0 1-8.6-4.73 13.57 13.57 0 0 1-1.1-3.48c-2.38 3.29-6.34 9-10.86 9a3.7 3.7 0 0 1-3.84-3.6c-2.32 1.77-3.78 2.81-6.77 2.81a.61.61 0 0 1-.67-.67.58.58 0 0 1 .61-.61c2.93 0 5.31-2.2 7.44-4 1.28-2.75 4.39-5.19 7.56-5.19a4.56 4.56 0 0 1 4.09 2.93c.79-1 1.46-2.07 2.2-3.11a34.41 34.41 0 0 1 1.05-8.23zm-4.71 13.23l.06-.06a2.93 2.93 0 0 0-2.93-2.68c-2.56 0-5.86 2.62-5.86 5.31a1.84 1.84 0 0 0 2 2c2.73-.05 4.97-2.68 6.73-4.57zm8.36-12.75c1.16-2 2.13-4 3.17-6s3.05-5.25 3.05-7.32c0-.67-.24-1.22-1-1.22-2.81 0-5.92 9.82-6.59 12.14a38.23 38.23 0 0 0-1.83 7.81z" fill="#fff"/><path d="M591.38 29.65a7.31 7.31 0 0 0 .79 1.89 4.69 4.69 0 0 0 4.09 2.72.67.67 0 0 1 .67.61.68.68 0 0 1-.67.67c-5.43 0-6.22-5.37-7.62-5.37s-3.23 6.59-8.6 6.59a3 3 0 0 1-3.29-3.23v-.37c-2.13 1.59-3.48 2.38-6.22 2.38a.61.61 0 0 1-.67-.67.66.66 0 0 1 .61-.61c2.75 0 5.06-2 7.08-3.66 1.46-2.62 4.64-5.8 7.87-5.8a4.37 4.37 0 0 1 3.78 2c1.77-.2 1.77 1.63 2.18 2.85zm-4.33-1.39c-.49-.79-1-1.52-2-1.52-2.56 0-6.22 4.09-6.22 6.53a1.66 1.66 0 0 0 1.77 1.77c2.73-.02 4.99-4.9 6.45-6.78z" fill="#fff"/><path d="M618.47 16.66c1-4.15 4.58-16.65 9.76-16.65a2 2 0 0 1 2 2.26c0 4-3.54 9.33-5.43 12.87a95.91 95.91 0 0 1-5.92 10.31c.06.73.12 1.59.24 2.32a7.57 7.57 0 0 0 5.13 6 11 11 0 0 0 3.11.49.67.67 0 0 1 .67.61.68.68 0 0 1-.67.67 9.53 9.53 0 0 1-8.66-4.76 13.57 13.57 0 0 1-1.1-3.48c-2.38 3.29-6.34 9-10.86 9a3.7 3.7 0 0 1-3.84-3.6c-2.32 1.77-3.78 2.81-6.77 2.81a.61.61 0 0 1-.67-.67.58.58 0 0 1 .61-.61c2.93 0 5.31-2.2 7.44-4 1.28-2.75 4.39-5.19 7.56-5.19a4.56 4.56 0 0 1 4.09 2.93c.79-1 1.46-2.07 2.2-3.11a34.41 34.41 0 0 1 1.11-8.2zm-4.76 13.24l.06-.06a2.93 2.93 0 0 0-2.93-2.68c-2.56 0-5.86 2.62-5.86 5.31a1.84 1.84 0 0 0 2 2c2.83-.06 4.99-2.69 6.73-4.58zm8.36-12.75c1.16-2 2.13-4 3.17-6s3.05-5.25 3.05-7.32c0-.67-.24-1.22-1-1.22-2.81 0-5.92 9.82-6.59 12.14a38.23 38.23 0 0 0-1.83 7.81z" fill="#fff"/><path d="M649.82 24.59a3.11 3.11 0 0 1-.37 1.28 4.65 4.65 0 0 1-1.48 1.34c-.79.49-1.65.85-2.44 1.28-1.46.79-2.81 1.65-4.27 2.38.24 2.32 1.77 3.11 3.9 3.42.31.06.67.24.67.61a.68.68 0 0 1-.67.67 5.9 5.9 0 0 1-5.67-3.78c-3.84 1.89-7.69 3.78-12.08 3.78a.69.69 0 0 1-.73-.67.67.67 0 0 1 .67-.61 17.71 17.71 0 0 0 5.37-.92 54.88 54.88 0 0 0 6.61-3.11c0-3.6 3.29-8.36 7.2-8.36 1.52 0 3.29.92 3.29 2.69zm-2.62.92a1 1 0 0 0 .31-.73c0-.73-.73-1-1.34-1-2.62 0-4.33 3.17-4.82 5.37a39.69 39.69 0 0 0 5.85-3.65z" fill="#fff"/><path d="M680.14 27.21c1.4 1.22 2.26 2.32 2.26 4.27 0 4.09-4.15 6.53-7.75 7.38a23.69 23.69 0 0 1-5.49.61c-.49 0-1.71-.24-1.71-.92s1-.79 1.46-.79a21.36 21.36 0 0 0 5.19-.5c2.44-.61 4-1.22 5.43-3.23a4.43 4.43 0 0 0 .79-2.62c0-3.29-6.1-6.59-8.17-9l-.06.06c-3.29 2.93-6.65 6-10.55 8.17-5.06 2.81-10.61 4.88-16.47 4.88a.67.67 0 0 1-.67-.61.68.68 0 0 1 .67-.67 20.4 20.4 0 0 0 5.43-.67 62.23 62.23 0 0 0 7.32-2.75 49.74 49.74 0 0 0 10.92-7.2l2.55-2.36a4.15 4.15 0 0 1-.49-1.89c0-2.26 2.26-5.49 4.7-5.49a1.84 1.84 0 0 1 1.89 2c0 2.07-2.38 4.33-3.9 5.49-.06 0-.06.06-.12.06 2.13 2 4.51 3.83 6.77 5.78zm-7.5-7.87c0 .24.06.43.06.67.73-.67 2.93-2.75 2.93-3.84a.5.5 0 0 0-.55-.49c-1.29 0-2.45 2.58-2.45 3.66zM688.86 33.26a1.8 1.8 0 0 1 2 1.59 1.61 1.61 0 0 1-1.4 1.53 2.29 2.29 0 0 1-2.14-1.89 1 1 0 0 1 .73-.92 1.14 1.14 0 0 1 .81-.31zm11.59-19.64c-1.46 2.5-4.82 3-6.83 5.06-2 1.83-2.26 5.12-2.87 7.44-.24.49-.55.85-.85.85s-.49-.43-.49-.85a11.54 11.54 0 0 1 .36-2.86 7.6 7.6 0 0 1 2.26-5.49c2.62-2.56 7.44-3.42 7.44-8.17 0-2.38-1.71-4.33-4.7-4.33a7.56 7.56 0 0 0-4.7 1.83 1.11 1.11 0 0 1-.85.37.89.89 0 0 1-.85-.92 1.2 1.2 0 0 1 .3-.85 8.29 8.29 0 0 1 5.92-2.32 9.08 9.08 0 0 1 1.34.12c4.27.92 5.61 3 5.61 6.53a7.46 7.46 0 0 1-1.09 3.58z" fill="#fff"/></svg>