<svg xmlns="http://www.w3.org/2000/svg" viewBox="0 0 591.04 44.17"><title>p8_s3</title><path d="M23.33 7.54a6.38 6.38 0 0 1-1.29 3.68c-1.66 2.62-5.11 5.52-7.5 7.5-.74.6-1.56 1.2-2.25 1.84l-.55.51-.37 1.29a12.79 12.79 0 0 0 3.54 2.53 10.15 10.15 0 0 0 4.19 1 .5.5 0 0 1 .51.46.51.51 0 0 1-.51.51 11.69 11.69 0 0 1-7.22-2.53c-.28-.23-.64-.41-.87-.64l-.28 1.1c2.39 3.13 6 8.05 6 12.1 0 2.44-1.47 5-4.14 5-3.5 0-4.55-3.91-4.55-6.76a45.18 45.18 0 0 1 1.29-9.89L8.27 24c-1.7 1.15-4.69 2.9-6.76 2.9-.46 0-1.52-.18-1.52-.83 0-.41 1.24-.28 1.52-.32 2-.18 4.55-1.66 6.17-2.85a2 2 0 0 1-.18-.87 1 1 0 0 1 1.1-1.1 2.78 2.78 0 0 1 1.1.28l.83-.74C12 15.73 14.35 9.75 18.26 6.39a4.37 4.37 0 0 1 2.71-1.15 2.21 2.21 0 0 1 2.36 2.3zm-8 29.12c0-3.59-2.81-7.59-5-10.26l-.09.41a41.24 41.24 0 0 0-.92 7.5c0 2.07.69 6.07 3.45 6.07 1.89.01 2.55-2.15 2.55-3.72zM9.75 23.49a4.32 4.32 0 0 1 .18-.74 1.81 1.81 0 0 0-.46.37 2.52 2.52 0 0 0 .28.37zm6.58-8.14c1.33-1.24 5.25-5.47 5.25-7.22 0-.51-.18-1-.78-1-3.31 0-7.59 8.93-8.42 11.73 1.28-1.15 2.66-2.3 3.95-3.5z" fill="#3c1604"/><path d="M31.19 18.31a1.59 1.59 0 0 1 .32 1.2 8.43 8.43 0 0 0 1.61 5.34 2.77 2.77 0 0 0 2.3 1c.23 0 .51.18.51.46a.51.51 0 0 1-.51.51c-3.31 0-5-3.4-5.15-6.3a16.42 16.42 0 0 1-6.07 5.15 11.11 11.11 0 0 1-5.15 1.15.51.51 0 0 1-.51-.51.5.5 0 0 1 .51-.46 9.27 9.27 0 0 0 4.55-1.1 14.17 14.17 0 0 0 4.88-4.46c.41-.6 1.24-2.25 2.07-2.25a.84.84 0 0 1 .64.27zm-.87-7.18c0-.46.41-.64.83-.64.74 0 1.1 1 1.1 1.61 0 .37-.18.69-.55.69-.65 0-1.38-1.06-1.38-1.66z" fill="#3c1604"/><path d="M35.33 25.85a13.35 13.35 0 0 0 4-.69 26.7 26.7 0 0 0 6.67-4 3.8 3.8 0 0 0 .78-.69c.14-.18.23-.51.37-.74a7.59 7.59 0 0 1 1.84-2.24 3.56 3.56 0 0 1 2.07-.83c.74 0 2.44.64 2.44 1.47a.24.24 0 0 1-.28.28c-.55 0-.78-.69-1.7-.69-2.07 0-3.73 3.5-3.73 5.29s1.15 2.67 2.85 2.85c.28 0 .51.18.51.51a.47.47 0 0 1-.51.46 4.24 4.24 0 0 1-4.32-3.13c0-.14-.09-.32-.09-.46a6.19 6.19 0 0 1 0-.92c-3.22 2.53-6.76 4.51-10.95 4.51a.47.47 0 0 1-.51-.46.51.51 0 0 1 .56-.52z" fill="#3c1604"/><path d="M73.83 22.36a7.64 7.64 0 0 0 .55 1.43 3.55 3.55 0 0 0 3.13 2.07.5.5 0 0 1 .51.46.51.51 0 0 1-.51.51c-4.09 0-4.74-4-5.75-4s-2.44 5-6.44 5a2.28 2.28 0 0 1-2.53-2.44 5.21 5.21 0 0 1 .74-2.48c-3.54 1.66-9.11 4-12.93 4a.51.51 0 0 1-.51-.51c0-.37.37-.46.64-.46 2.53-.09 6.9-1.61 9.29-2.62a36.11 36.11 0 0 0 5.06-2.35 6 6 0 0 1 4.19-2.12 3.25 3.25 0 0 1 2.85 1.47c1.34-.26 1.48 1.17 1.71 2.04zm-3.31-1.06c-.32-.6-.74-1.15-1.47-1.15-1.93 0-4.69 3.08-4.69 4.92a1.22 1.22 0 0 0 1.3 1.34c2.05 0 3.85-3.64 4.86-5.11z" fill="#3c1604"/><path d="M105.02 19.55c0 .18-.18.23-.32.23a8 8 0 0 1-1.52-.23 10.87 10.87 0 0 0-1.75-.09c-4.92 0-8.19 2.81-10.95 6.63-.32.46-1.06 1.43-1.7 1.43-1.61 0-1.15-5.29-1.33-6.35 0-.23-.14-.51-.41-.51-1 0-5.25 6.17-9.39 6.17-.32 0-.74 0-.74-.51 0-.28.28-.41.51-.46a6.27 6.27 0 0 0 1.84-.41c2.35-1.06 4.69-3.63 6.53-5.47a2.59 2.59 0 0 1 1.66-1c1.38 0 1.33 2.16 1.33 3.08v3c0 .23 0 .64.32.64s1.2-1.29 1.33-1.43a22.77 22.77 0 0 1 2.53-2.62 14.12 14.12 0 0 1 8.92-3.27c.78.02 3.14.11 3.14 1.17zM142.55 20.38c1.29 2 .6 5.15 3.63 5.47.28 0 .46.18.46.46a.47.47 0 0 1-.46.51c-4.65 0-3.73-5.47-5.29-5.47-.41 0-.74.41-1 .74a31.28 31.28 0 0 1-3.36 4.28 2 2 0 0 1-1.24.46 1.62 1.62 0 0 1-1.47-1.1c-.51-1.38-.83-2.81-1.43-4.14-.14-.32-.32-.83-.74-.83-1.29 0-3.91 6.21-6.07 6.21-1 0-1.33-.87-1.33-1.7 0-1.52.78-3.17.78-4.55 0-.6-.14-1.29-.83-1.29-1.29 0-2.9 1.66-3.77 1.66a.49.49 0 0 1-.46-.41c0-1 3.22-2.58 4.28-2.58a2.16 2.16 0 0 1 2.2 2.39c0 1.47-.92 3.08-.92 4.51 0 .23 0 .55.28.55 1 0 4.19-6.49 6.26-6.49 2.39 0 2.07 6 3.54 6 1.24 0 3.31-5.47 5.47-5.47a1.76 1.76 0 0 1 1.47.79z" fill="#3c1604"/><path d="M161.78 22.36a5.53 5.53 0 0 0 .6 1.43 3.54 3.54 0 0 0 3.08 2.07.5.5 0 0 1 .51.46.51.51 0 0 1-.51.51c-4.09 0-4.69-4-5.75-4s-2.44 5-6.49 5a2.28 2.28 0 0 1-2.48-2.44v-.28a6.8 6.8 0 0 1-4.69 1.79.46.46 0 0 1-.51-.51.49.49 0 0 1 .46-.46c2.07 0 3.82-1.47 5.34-2.76 1.1-2 3.5-4.37 5.94-4.37a3.3 3.3 0 0 1 2.85 1.47c1.33-.21 1.38 1.17 1.65 2.09zm-3.27-1.06c-.37-.6-.78-1.15-1.52-1.15-1.93 0-4.69 3.08-4.69 4.92a1.26 1.26 0 0 0 1.36 1.34c2 0 3.75-3.69 4.86-5.11z" fill="#3c1604"/><path d="M177.51 18.31a1.59 1.59 0 0 1 .32 1.2 8.43 8.43 0 0 0 1.61 5.34 2.77 2.77 0 0 0 2.3 1c.23 0 .51.18.51.46a.51.51 0 0 1-.51.51c-3.31 0-5-3.4-5.15-6.3a16.42 16.42 0 0 1-6.07 5.15 11.11 11.11 0 0 1-5.15 1.15.51.51 0 0 1-.51-.51.5.5 0 0 1 .51-.46 9.27 9.27 0 0 0 4.55-1.1 14.17 14.17 0 0 0 4.88-4.46c.41-.6 1.24-2.25 2.07-2.25a.84.84 0 0 1 .64.27zm-.85-7.18c0-.46.41-.64.83-.64.74 0 1.1 1 1.1 1.61 0 .37-.18.69-.55.69-.67 0-1.38-1.06-1.38-1.66z" fill="#3c1604"/><path d="M203.55 20.49a4.1 4.1 0 0 1 1.66 3.13c0 4.78-6.26 6.12-10 6.12-.37 0-1.29-.18-1.29-.69s.74-.6 1.1-.6a15.87 15.87 0 0 0 3.91-.37 6.13 6.13 0 0 0 4.09-2.44 3.35 3.35 0 0 0 .6-2c0-2.48-4.51-5-6.12-6.72a79.4 79.4 0 0 1-8.56 7.18c-2.58 1.79-4.09 2.67-7.31 2.67a.5.5 0 0 1-.51-.46.51.51 0 0 1 .51-.51 10.35 10.35 0 0 0 5-1.56 13.33 13.33 0 0 0 1.47-1 70.35 70.35 0 0 0 6.76-5.47l1.93-1.84a3.12 3.12 0 0 1-.37-1.43c0-1.7 1.7-4.14 3.54-4.14a1.39 1.39 0 0 1 1.43 1.47c0 1.52-1.79 3.27-2.94 4.14h-.09c1.65 1.69 3.49 3.07 5.19 4.52zm-5.71-5.89v.46c.55-.51 2.25-2.07 2.25-2.85a.39.39 0 0 0-.41-.41c-.91.02-1.84 2.05-1.84 2.83zM236.76 26.36a.47.47 0 0 1-.51.46 32.1 32.1 0 0 1-5.71-.32 9 9 0 0 1-3.31-.92c-1.43 4.92-2.21 6.62-3.59 10.58-1.33 3.77-2.39 8-5.2 8-1.33 0-2.3-1.56-2.3-3.36 0-6.67 8.05-17.25 11.64-22.45a11.31 11.31 0 0 0 .09-1.24c0-.69-.23-1.66-.23-2.07s.37-1 .92-1c.92 0 1 1.15 1 1.93a3.18 3.18 0 0 1-.14 1.06c1.2-.6 2.07-1.33 3.54-1.33 1.84 0 4 1.06 4 3.27 0 2.76-3.73 6.21-6.58 6.21 1.06.6 4.55.69 5.89.69a.54.54 0 0 1 .49.49zm-9.52-5.34c-3.4 5.24-4.51 6.67-6.3 9.71a67.39 67.39 0 0 0-2.94 6.58 11.17 11.17 0 0 0-.55 3.36c0 1.33.32 2.12 1.1 2.12 1.2 0 1.89-1.75 2.81-4.23 1.2-3.27 1.89-5.06 3-8.51 1.04-3.18 2.14-6.04 2.88-9.03zm1.79 3.5c2.12 0 6.16-2.35 6.16-5.34a1.94 1.94 0 0 0-2.16-1.89 7 7 0 0 0-3.86 1.43c-.51 2.12-.83 3.82-1.43 5.61a4.58 4.58 0 0 0 1.29.16z" fill="#3c1604"/><path d="M258.43 18.49c0 2-4.55 4.09-6.21 4.78l-.28.09c.18 1.61 1.47 2.25 2.94 2.44.23 0 .51.18.51.46a.51.51 0 0 1-.51.51c-1.79 0-3.82-1.06-4.28-2.9a45.86 45.86 0 0 1-14.4 2.9.51.51 0 0 1-.51-.51.5.5 0 0 1 .51-.46 31 31 0 0 0 5.84-.64c1.75-.32 3.45-.83 5.15-1.29.83-.28 1.84-.46 2.67-.83l.6-.28c.23-2.76 2.35-6.3 5.43-6.3 1.2.03 2.54.74 2.54 2.03zm-1.79.23a.86.86 0 0 0-1-.83c-2 0-3.4 2.48-3.68 4.23 1.08-.45 4.7-1.97 4.7-3.35z" fill="#3c1604"/><path d="M279.77 25.85a.51.51 0 0 1 .51.51.5.5 0 0 1-.51.46c-2.39 0-5-1.2-5-3.91 0-1.89 1.29-3.82 1.29-5.75 0-1.29-1.38-1.7-2.3-2.21l-.14.32c-2.21 4-7.18 7.5-11.27 9.62a14.59 14.59 0 0 1-7.59 1.93.5.5 0 0 1-.46-.51.49.49 0 0 1 .46-.46 12.77 12.77 0 0 0 4-.69c4.74-1.52 11.64-6.17 13.89-10.86-1.06-.55-2.25-1.33-2.25-2.67a2 2 0 0 1 2-1.93 2.28 2.28 0 0 1 2.26 2.35 4.72 4.72 0 0 1-.28 1.61c1.56.69 3.13 1.52 3.13 3.5s-1.33 4.37-1.33 5.94c0 1.74 2.07 2.75 3.59 2.75zm-6.67-12.84a3.48 3.48 0 0 0 .14-1c0-.37-.18-.92-.69-.92a.75.75 0 0 0-.74.69c.05.55.85.96 1.29 1.24z" fill="#3c1604"/><path d="M296.19 14.35c0 1.15-3.22 1.2-4 1.24a1.94 1.94 0 0 1-.18.46 16.87 16.87 0 0 0-1.52 5.93 3.52 3.52 0 0 0 1.1 2.85 4.51 4.51 0 0 0 2.53 1c.23 0 .51.18.51.46a.51.51 0 0 1-.51.51 4.48 4.48 0 0 1-4.69-4.65 15.17 15.17 0 0 1 .37-2.9c-1.66 2.9-6.58 7.55-10.12 7.55a.51.51 0 0 1-.51-.51c0-.28.28-.41.51-.46a10.07 10.07 0 0 0 4.65-2.3 20.4 20.4 0 0 0 5.93-7.87c-.74 0-1.43.09-2.16.09-.41 0-1.43-.14-1.43-.74 0-.92 3.4-.83 4.19-.83.23-.6 1-3 1.79-3 .6 0 .69 1 .69 1.43a6.56 6.56 0 0 1-.51 1.52 16.61 16.61 0 0 1 2.62 0c.21.04.74-.1.74.22z" fill="#3c1604"/><path d="M316.98 23.23c0 .92-1.75.83-2.35.83a5 5 0 0 1-1.84-.28 6.9 6.9 0 0 1-6.07 4.23c-1.93 0-2.9-1.79-2.9-3.54a5.32 5.32 0 0 1 .14-1.2c-2.94 2-5.66 3.54-9.29 3.54-.41 0-1.06.09-1.06-.51a.5.5 0 0 1 .51-.46 14.69 14.69 0 0 0 9.62-3.68l1-.87c.87-1.75 3.17-4.69 5.29-4.69 1.29 0 1.84 1.33 1.84 2.48a3.41 3.41 0 0 1 1.33 2.85 5.66 5.66 0 0 1-.09.87 6.52 6.52 0 0 0 2.12.23c.19.02 1.75-.17 1.75.2zm-5.34 0c-1-.51-2.76-1.84-2.76-3 0-1 .92-1.43 1.75-1.47a.75.75 0 0 0-.69-.51 2.44 2.44 0 0 0-1.06.37 8.09 8.09 0 0 0-3.59 6.17 1.73 1.73 0 0 0 1.84 1.89 4.94 4.94 0 0 0 4.53-3.45zm.18-1.24c0-.64-.55-2.07-1.33-2.07-.18 0-.32.23-.32.41 0 .78 1.2 1.33 1.66 1.79zM345.18 12.56c.78-3.13 3.5-12.56 7.36-12.56a1.5 1.5 0 0 1 1.52 1.7 12.83 12.83 0 0 1-1.33 4.65c-.78 1.75-1.84 3.36-2.76 5.06-1.24 2.25-2.35 4.51-3.73 6.67-.23.37-.46.74-.74 1.1.28 1.79.41 3.54 1.79 4.92a6.54 6.54 0 0 0 4.6 1.75.47.47 0 0 1 .51.46.51.51 0 0 1-.51.51c-4.09 0-6.58-2.3-7.36-6.21-1.79 2.48-4.74 6.81-8.14 6.81a2.8 2.8 0 0 1-2.94-2.85c0-2.76 3.45-5.61 6.17-5.61a3.32 3.32 0 0 1 3.04 2.2c.6-.78 1.1-1.56 1.66-2.35a26 26 0 0 1 .86-6.25zm-3.59 10a2.14 2.14 0 0 0-2.21-2c-1.89 0-4.42 1.93-4.42 4a1.42 1.42 0 0 0 1.52 1.52c2.18-.13 3.82-2.07 5.11-3.54zm6.3-9.61c.83-1.47 1.61-3 2.39-4.51s2.3-3.91 2.3-5.52c0-.46-.18-.92-.74-.92-2.07 0-4.42 7.45-5 9.15a32.21 32.21 0 0 0-1.38 5.89z" fill="#3c1604"/><path d="M374.71 23.23c0 .92-1.75.83-2.35.83a5 5 0 0 1-1.84-.28 6.9 6.9 0 0 1-6.07 4.23c-1.93 0-2.9-1.79-2.9-3.54a5.32 5.32 0 0 1 .14-1.2c-2.94 2-5.66 3.54-9.29 3.54-.41 0-1.06.09-1.06-.51a.5.5 0 0 1 .51-.46 14.69 14.69 0 0 0 9.62-3.68l1-.87c.87-1.75 3.17-4.69 5.29-4.69 1.29 0 1.84 1.33 1.84 2.48a3.41 3.41 0 0 1 1.33 2.85 5.66 5.66 0 0 1-.09.87 6.52 6.52 0 0 0 2.12.23c.19.02 1.75-.17 1.75.2zm-5.34 0c-1-.51-2.76-1.84-2.76-3 0-1 .92-1.43 1.75-1.47a.75.75 0 0 0-.69-.51 2.44 2.44 0 0 0-1.06.37 8.09 8.09 0 0 0-3.59 6.17 1.73 1.73 0 0 0 1.84 1.89 4.94 4.94 0 0 0 4.52-3.45zm.18-1.24c0-.64-.55-2.07-1.33-2.07-.18 0-.32.23-.32.41 0 .78 1.2 1.33 1.66 1.79zM411.01 23a.51.51 0 0 1-.51.51h-1.56c.28 3.59-4.37 5.94-7.45 5.94-1.29 0-2.85-.51-2.85-2.07 0-3.36 6.3-4.37 8.74-4.6-1.15-2.35-4.83-4-6.35-5.94a27.74 27.74 0 0 1-3.91 3c-1.47.92-4.65 2.85-6.35 2.85-.32 0-1.06-.14-1.06-.6s1.1-.51 1.38-.6a18.19 18.19 0 0 0 3.73-1.7 34 34 0 0 0 5.52-4 3.14 3.14 0 0 1-.32-1.29c0-1.66 1.7-4.09 3.5-4.09a1.44 1.44 0 0 1 1.47 1.52c0 1.84-1.79 3-3 4a52.23 52.23 0 0 0 5.38 4.69 4.53 4.53 0 0 1 1.43 1.93c.46 0 1.47-.09 1.75-.09a.51.51 0 0 1 .46.54zm-3.4.69c-1.89.18-7.73 1-7.73 3.54 0 1 .87 1.29 1.7 1.29 2.43-.03 6.02-1.65 6.02-4.83zm-4-11.5a.38.38 0 0 0-.41-.37c-1 0-1.84 1.93-1.84 2.71v.32c.63-.5 2.3-1.83 2.3-2.66z" fill="#3c1604"/><path d="M422.37 18.58c0 2.16-4.88 3.63-6.44 4.19h-.09v.28c0 1.79 1.33 2.58 2.94 2.76.23 0 .51.18.51.46a.51.51 0 0 1-.51.51 4.32 4.32 0 0 1-4.33-3.17c0-.14 0-.46-.09-.55a22.62 22.62 0 0 1-3.91.41.51.51 0 0 1 0-1 16.68 16.68 0 0 0 4-.46c.51-2.48 2.53-5.52 5.38-5.52a2.29 2.29 0 0 1 2.54 2.09zm-1.89 0c0-.46-.51-.6-.92-.6-1.84 0-3.22 2.16-3.59 3.77 1.11-.26 4.51-1.92 4.51-3.26z" fill="#3c1604"/><path d="M451.44 25.9c0 .74-1.1.83-1.43 1.06a2.57 2.57 0 0 1-.6 0c-2.81 0-4-3.13-4.28-5.52a7.36 7.36 0 0 1-.83 1.7c-1.33 2.21-3.27 4.78-6.17 4.78-2.25 0-3.59-1.84-3.59-4a16.75 16.75 0 0 1 .55-3c-.83.41-1.56 1-2.39 1.38-4 2.12-9.43 4.51-14 4.51a.51.51 0 0 1-.51-.51c0-.37.37-.46.64-.46 2.9 0 6.67-1.47 9.34-2.62a26.73 26.73 0 0 0 3.59-1.89 19.47 19.47 0 0 0 1.9-1.32c.64-.46 2.3-2.07 3-2.07a1 1 0 0 1 .92 1c0 1.24-1.7 3-1.7 5.24a2.26 2.26 0 0 0 2.39 2.44 2.85 2.85 0 0 0 1.61-.46c2.21-1.43 3.13-3.91 4.23-6.17.32-.6.92-1.47 1.7-1.47s1.1 1.1 1.1 1.84c0 .55-.14 1.1-.14 1.66 0 1.7.55 4 2.67 4 .55 0 1.1-.28 1.61-.28.25-.02.39-.02.39.16zM487.73 23a.51.51 0 0 1-.51.51h-1.56c.28 3.59-4.37 5.94-7.45 5.94-1.29 0-2.85-.51-2.85-2.07 0-3.36 6.3-4.37 8.74-4.6-1.15-2.35-4.83-4-6.35-5.94a27.74 27.74 0 0 1-3.91 3c-1.47.92-4.65 2.85-6.35 2.85-.32 0-1.06-.14-1.06-.6s1.1-.51 1.38-.6a18.19 18.19 0 0 0 3.73-1.7 34 34 0 0 0 5.52-4 3.14 3.14 0 0 1-.32-1.29c0-1.66 1.7-4.09 3.5-4.09a1.44 1.44 0 0 1 1.42 1.5c0 1.84-1.79 3-3 4a52.33 52.33 0 0 0 5.38 4.69 4.53 4.53 0 0 1 1.43 1.93c.46 0 1.47-.09 1.75-.09a.51.51 0 0 1 .51.56zm-3.4.69c-1.89.18-7.73 1-7.73 3.54 0 1 .87 1.29 1.7 1.29 2.44-.03 6.03-1.65 6.03-4.83zm-4-11.5a.38.38 0 0 0-.41-.37c-1 0-1.84 1.93-1.84 2.71v.32c.63-.5 2.29-1.83 2.29-2.66z" fill="#3c1604"/><path d="M502.91 22.36a17.94 17.94 0 0 0 2.75.13.51.51 0 0 1 0 1 17.9 17.9 0 0 1-3-.18c-.92 2.44-3.63 4.65-6.12 4.65-1.93 0-2.94-1.66-2.94-3.4v-.27a3.76 3.76 0 0 1 0-.64 10.42 10.42 0 0 1 .6-1.93 14.56 14.56 0 0 1-7 1.79.51.51 0 0 1 0-1c3 0 5.61-1.24 8.14-2.67 1.32-1.95 3.06-3.35 4.44-3.35s1.84 1.15 1.84 2.3a3.41 3.41 0 0 1 1.33 2.85 4 4 0 0 1-.04.72zm-1.66.6c-1.38-.46-2.58-1.33-2.58-3 0-1 .74-1.47 1.79-1.56a.93.93 0 0 0-.78-.51 1.83 1.83 0 0 0-1.15.41 9.33 9.33 0 0 0-3.5 6.39 1.88 1.88 0 0 0 1.93 2c1.3.04 3.51-1.53 4.29-3.74zm.28-1v-.64c0-1-.51-1.75-1.29-1.75-.18 0-.28.18-.28.37a2.07 2.07 0 0 0 1.57 2.05z" fill="#3c1604"/><path d="M525.4 21.57c.6 1.93.87 4.28 3.45 4.28a.5.5 0 0 1 .51.46.51.51 0 0 1-.51.51c-5.06 0-4.28-6.07-5.8-6.07-1.29 0-3.91 6.21-6.07 6.21-1 0-1.33-.87-1.33-1.7 0-1.52.78-3.17.78-4.55 0-.6-.14-1.2-.83-1.2-1.79 0-5.2 4-10 4a.51.51 0 0 1 0-1 9.85 9.85 0 0 0 3.59-.92c1.79-.87 4.69-3.5 6.49-3.5a2.16 2.16 0 0 1 2.13 2.4c0 1.43-.92 3.13-.92 4.51 0 .23 0 .55.28.55 1 0 4.14-6.49 6.26-6.49 1.23-.02 1.7 1.59 1.97 2.51z" fill="#3c1604"/><path d="M549.6 21.67a19.94 19.94 0 0 0 2.58 3.31 2.56 2.56 0 0 0 1.66.87c.23 0 .51.18.51.46a.51.51 0 0 1-.51.51c-2.3 0-3.5-2.21-4.74-3.82-.64-.83-1.06-1.89-2.3-1.89-2.21 0-4.37 6.12-7.36 6.12-2 0-2.67-2.76-2.9-4.28-1.84 1.66-5.24 3.91-7.77 3.91a.51.51 0 1 1 0-1 4.85 4.85 0 0 0 1.79-.41 22 22 0 0 0 5.89-4v-.37a28.78 28.78 0 0 1 3.08-12.38c.64-1.2 2.16-3.31 3.73-3.31 1.38 0 1.56 1.89 1.56 2.9 0 3.77-1.79 7.36-4 10.31a23.67 23.67 0 0 1-2.48 2.76 4.27 4.27 0 0 0-.46.46c0 .92.32 3.86 1.61 3.86 2 0 4.37-6 7.45-6 1.19.05 2.06 1.11 2.66 1.99zm-9.06-11.92a23.9 23.9 0 0 0-2.71 10.35c2.3-2.58 5.8-7.68 5.8-11.32 0-.46-.09-1.52-.78-1.52-.93.01-1.94 1.8-2.31 2.49z" fill="#3c1604"/><path d="M576.6 23.23c0 .92-1.75.83-2.35.83a5 5 0 0 1-1.84-.28 6.9 6.9 0 0 1-6.07 4.23c-1.93 0-2.9-1.79-2.9-3.54a5.32 5.32 0 0 1 .14-1.2c-2.94 2-5.66 3.54-9.29 3.54-.41 0-1.06.09-1.06-.51a.5.5 0 0 1 .51-.46 14.69 14.69 0 0 0 9.62-3.68l1-.87c.87-1.75 3.17-4.69 5.29-4.69 1.29 0 1.84 1.33 1.84 2.48a3.41 3.41 0 0 1 1.33 2.85 5.66 5.66 0 0 1-.09.87 6.52 6.52 0 0 0 2.12.23c.19.02 1.75-.17 1.75.2zm-5.34 0c-1-.51-2.76-1.84-2.76-3 0-1 .92-1.43 1.75-1.47a.75.75 0 0 0-.69-.51 2.44 2.44 0 0 0-1.06.37 8.09 8.09 0 0 0-3.59 6.17 1.73 1.73 0 0 0 1.84 1.89 4.94 4.94 0 0 0 4.52-3.45zm.18-1.24c0-.64-.55-2.07-1.33-2.07-.18 0-.32.23-.32.41 0 .78 1.2 1.33 1.66 1.79zM581.48 25.07a1.36 1.36 0 0 1 1.47 1.2 1.22 1.22 0 0 1-1.06 1.15 1.73 1.73 0 0 1-1.61-1.43.72.72 0 0 1 .55-.69.86.86 0 0 1 .65-.23zm8.74-14.81c-1.1 1.89-3.63 2.3-5.15 3.82s-1.7 3.86-2.16 5.61c-.18.37-.41.64-.64.64s-.37-.32-.37-.64a8.68 8.68 0 0 1 .28-2.16 5.73 5.73 0 0 1 1.7-4.14c2-1.93 5.61-2.58 5.61-6.16a3.24 3.24 0 0 0-3.54-3.27 5.7 5.7 0 0 0-3.54 1.38.83.83 0 0 1-.64.28.67.67 0 0 1-.64-.69.91.91 0 0 1 .23-.64 6.25 6.25 0 0 1 4.44-1.8 6.91 6.91 0 0 1 1 .09c3.22.69 4.23 2.3 4.23 4.92a5.63 5.63 0 0 1-.81 2.76z" fill="#3c1604"/></svg>