<svg xmlns="http://www.w3.org/2000/svg" viewBox="0 0 277.43 24.44"><defs><style>.a{fill:#fff}</style></defs><title>p8_s3</title><path class="a" d="M15.47 12.92a.49.49 0 0 1 .52.48c0 .52-.48.76-1.44.92.36 6.12.92 9.24.92 9.56s-.28.44-.6.44c-1 0-1-2.28-1.12-3.48l-.6-6.24c-2 .4-8.24 1.32-8.24 1.48-1.64 3.68-2.36 5.08-3.12 7-.24.56-.48 1.32-1.32 1.32-.32 0-.48-.2-.48-.52s2.12-5 3.4-7.72c-.36 0-.64.08-.88.08-.84 0-1.16-.32-1.16-.64 0-.76 1.2-.56 2.68-.88 2.56-5.68 5-11.72 6.12-13a2 2 0 0 1 1.56-.88c1.8 0 1.72 3.32 1.88 4.8.24 2.44.48 4 .84 7.4l.6-.08a1.79 1.79 0 0 1 .44-.04zm-2.44.36c-.32-4.36-.68-7.08-1-9.68-.08-.64-.28-1-.6-1-.72 0-3.16 5.8-5.84 11.92 2.88-.44 4.44-.68 6.64-1.08zm35.65 6.28a.44.44 0 0 1 .44.44.44.44 0 0 1-.44.44c-3.08 0-4.8-2.8-5.56-2.8-1 0-3.88 6.6-5.88 6.6-.84 0-1.4-.92-1.76-1.56-.56-1-2.68-4.8-2.68-5.72a.6.6 0 0 1 .64-.6.94.94 0 0 1 .32.08c.72.36 1.08 1.72 1.36 2.44s1.52 4 2.24 4c1.24 0 4-6.64 5.68-6.64 1.32-.07 2.52 3.32 5.64 3.32z"/><path class="a" d="M57.68 15.96a4.18 4.18 0 0 1 .24 1.44 7.5 7.5 0 0 0 1.36 4.2 2.54 2.54 0 0 0 2 .88c.2 0 .44.16.44.4a.44.44 0 0 1-.44.44 4.22 4.22 0 0 1-3.2-1.64 11.27 11.27 0 0 1-1.52-4.84 21.8 21.8 0 0 1-5.2 3.16 11.06 11.06 0 0 1-2.8.44.44.44 0 0 1-.44-.44.44.44 0 0 1 .4-.44 6.76 6.76 0 0 0 2-.32 12.77 12.77 0 0 0 2.36-1.12c.72-.44 3.44-2.52 4.12-2.52a.62.62 0 0 1 .68.36zm-.84-6.28c0-.4.36-.56.72-.56.64 0 1 .84 1 1.36 0 .28-.16.64-.48.64-.61.05-1.24-.95-1.24-1.44z"/><path class="a" d="M75.88 10.92C76.56 8.2 78.88 0 82.28 0a1.31 1.31 0 0 1 1.32 1.48c0 2.64-2.32 6.12-3.56 8.44a63 63 0 0 1-3.88 6.76c0 .48.08 1 .16 1.52a5 5 0 0 0 3.36 4 7.25 7.25 0 0 0 2 .32.44.44 0 0 1 .44.4.44.44 0 0 1-.44.44A6.24 6.24 0 0 1 76 20.24a8.86 8.86 0 0 1-.72-2.28c-1.56 2.16-4.16 5.92-7.12 5.92a2.43 2.43 0 0 1-2.52-2.36c-1.52 1.16-2.48 1.84-4.44 1.84a.4.4 0 0 1-.44-.44.38.38 0 0 1 .4-.4c1.92 0 3.48-1.44 4.88-2.6a5.92 5.92 0 0 1 5-3.4 3 3 0 0 1 2.68 1.92c.52-.68 1-1.36 1.44-2a22.53 22.53 0 0 1 .72-5.52zm-3.12 8.68a1.92 1.92 0 0 0-1.92-1.76c-1.68 0-3.84 1.72-3.84 3.48a1.21 1.21 0 0 0 1.32 1.28c1.88-.04 3.32-1.76 4.44-3zm5.48-8.36c.76-1.28 1.4-2.6 2.08-3.92s2-3.44 2-4.8c0-.44-.16-.8-.64-.8-1.84 0-3.88 6.44-4.32 8a25 25 0 0 0-1.2 5.12z"/><path class="a" d="M101.47 21.84c0 1-2.08 1.48-2.88 1.48-3.6 0-4.12-3.52-5-3.52s-2.16 4.32-5.64 4.32a2 2 0 0 1-2.2-2.16v-.2a6.08 6.08 0 0 1-3.88 1.56c-.32 0-.64 0-.64-.44a.44.44 0 0 1 .44-.4c1.8 0 3.28-1.28 4.6-2.4 1-1.76 3.08-3.8 5.2-3.8a2.71 2.71 0 0 1 2.44 1.28 1.1 1.1 0 0 1 1.12.68 6.83 6.83 0 0 1 .36 1.2c.44 1.56 1.4 3 3.2 3a6.86 6.86 0 0 0 2.64-.92c.17.04.24.16.24.32zm-9-3.32c-.32-.52-.64-1-1.32-1-1.64 0-4 2.68-4 4.28a1.06 1.06 0 0 0 1.12 1.16c1.81 0 3.29-3.2 4.2-4.44zm29.25-2.72c0 .16-.12.2-.24.2-.44 0-.64-.6-1.52-.6-1.76 0-3.24 3-3.24 4.56a2.51 2.51 0 0 0 2.52 2.52c.24 0 .4.12.4.4a.41.41 0 0 1-.4.44c-1.88 0-3.84-1.32-3.84-3.36s1.88-5.48 4.16-5.48c.68 0 2.16.52 2.16 1.32z"/><path class="a" d="M139.16 19.44a15.53 15.53 0 0 0 2.36.12.44.44 0 0 1 .44.44.44.44 0 0 1-.44.44 15.47 15.47 0 0 1-2.6-.16c-.8 2.12-3.16 4-5.32 4a2.68 2.68 0 0 1-2.56-3 5.43 5.43 0 0 1 .36-1.92c-3.56 1.56-8.36 3.88-12.16 3.88a.41.41 0 0 1-.4-.44.43.43 0 0 1 .4-.4 12.66 12.66 0 0 0 3.44-.6 46.5 46.5 0 0 0 9.36-3.84 15.83 15.83 0 0 1 1.16-1.56c.72-.88 2-2.16 3.24-2.16s1.6 1 1.6 2a3 3 0 0 1 1.16 2.48 3.43 3.43 0 0 1-.04.72zm-1.44.52a2.77 2.77 0 0 1-2.24-2.6c0-.84.64-1.28 1.56-1.36a.81.81 0 0 0-.68-.44 1.6 1.6 0 0 0-1 .36 8.12 8.12 0 0 0-3 5.56 1.64 1.64 0 0 0 1.68 1.76c1.08 0 3-1.36 3.68-3.28zm.24-.84v-.56c0-.84-.44-1.52-1.12-1.52-.16 0-.24.16-.24.32a1.8 1.8 0 0 0 1.36 1.76z"/><path class="a" d="M166.15 17.72c1.08 1.72.52 4.48 3.16 4.76.2 0 .44.16.44.4a.44.44 0 0 1-.44.44c-4 0-3.2-4.76-4.56-4.76-.36 0-.64.36-.84.64a30.73 30.73 0 0 1-2.92 3.72 1.71 1.71 0 0 1-1.08.4 1.32 1.32 0 0 1-1.28-1c-.44-1.16-.72-2.44-1.24-3.6-.12-.28-.32-.72-.68-.72-1.08 0-3.4 5.4-5.24 5.4-.84 0-1.16-.76-1.16-1.48 0-1.28.68-2.72.68-3.8 0-.64 0-1.28-.88-1.28a8.76 8.76 0 0 0-2.4 1.28 18.48 18.48 0 0 1-3.4 1.8 8.24 8.24 0 0 1-2.8.48.45.45 0 0 1-.48-.44.44.44 0 0 1 .44-.44 8 8 0 0 0 3.16-.8c1.64-.76 4-3 5.68-3a1.84 1.84 0 0 1 1.84 2c0 1.4-.8 2.88-.8 4.12a.31.31 0 0 0 .28.32c.84 0 3.52-5.6 5.44-5.6 2.08 0 1.76 5.16 3 5.16.64 0 2.64-3.16 3.08-3.72a2.24 2.24 0 0 1 1.68-1 1.53 1.53 0 0 1 1.32.72z"/><path class="a" d="M189.11 20.17c0 .8-1.52.72-2 .72a4.32 4.32 0 0 1-1.6-.24 6 6 0 0 1-5.28 3.68c-1.68 0-2.52-1.56-2.52-3.08a4.61 4.61 0 0 1 .12-1c-2.56 1.76-4.92 3.08-8.08 3.08-.36 0-.92.08-.92-.44a.44.44 0 0 1 .44-.4 15.52 15.52 0 0 0 1.92-.16 15.44 15.44 0 0 0 6.44-3l.84-.76c.76-1.52 2.76-4.08 4.6-4.08 1.12 0 1.6 1.16 1.6 2.16a3 3 0 0 1 1.16 2.48 4.89 4.89 0 0 1-.08.76 5.65 5.65 0 0 0 1.84.2c.16-.05 1.52-.21 1.52.08zm-4.64 0c-.84-.44-2.4-1.6-2.4-2.64 0-.84.8-1.24 1.52-1.28a.65.65 0 0 0-.6-.44 2.12 2.12 0 0 0-.92.32 7 7 0 0 0-3.12 5.36 1.5 1.5 0 0 0 1.6 1.64 4.3 4.3 0 0 0 3.92-2.96zm.16-1.08c0-.56-.48-1.8-1.16-1.8-.16 0-.28.2-.28.36 0 .68 1 1.16 1.44 1.56zm28.33-2.92c0 2-3.92 2.76-5.4 3.28a.58.58 0 0 1-.28.08v.44a2.5 2.5 0 0 0 2.6 2.52c.24 0 .44.12.44.4a.44.44 0 0 1-.44.44c-1.92 0-4-1.4-3.84-3.48a14.78 14.78 0 0 1-2.64.28c-.36 0-1.2-.24-1.2-.72 0-.28.44-.28.64-.28a16.14 16.14 0 0 0 3.4-.4v-.16a6.13 6.13 0 0 1 3.08-3.88 2.78 2.78 0 0 1 1.4-.32 2 2 0 0 1 2.24 1.8zm-1.64 0c0-.4-.44-.52-.8-.52-1.44 0-2.56 1.56-3 2.8.88-.21 3.8-1.28 3.8-2.33z"/><path class="a" d="M228.47 4.64c.68-.84 2-2.08 3.12-2.08S233.35 4 233.35 5c0 1.92-1.4 4.76-2.48 6.32a23.76 23.76 0 0 1-3.76 4.24 6.21 6.21 0 0 1-.76.68c.56 2.72 2.56 6.24 5.72 6.24a.43.43 0 0 1 .4.4.41.41 0 0 1-.4.44c-3.64 0-6-2.92-6.72-6.2-3.92 3-10.68 6.2-15.56 6.2a.44.44 0 0 1-.44-.44.44.44 0 0 1 .44-.4 12.61 12.61 0 0 0 3.44-.56 34.59 34.59 0 0 0 11.88-5.8c0-.6-.16-1.2-.16-1.84a16.91 16.91 0 0 1 3.52-9.64zm1.64 6.08c.84-1.32 2.16-3.76 2.16-5.32 0-.72-.32-1.28-1.08-1.28-1.08 0-2.32 1.8-2.8 2.64a15.69 15.69 0 0 0-2.24 7.52 7.07 7.07 0 0 0 0 .92 20 20 0 0 0 3.96-4.48z"/><path class="a" d="M251.83 21.84c0 1-2.08 1.48-2.88 1.48-3.6 0-4.12-3.52-5-3.52s-2.16 4.32-5.64 4.32a2 2 0 0 1-2.2-2.16v-.2a6.08 6.08 0 0 1-3.88 1.56c-.32 0-.64 0-.64-.44a.44.44 0 0 1 .44-.4c1.8 0 3.28-1.28 4.6-2.4 1-1.76 3.08-3.8 5.2-3.8a2.71 2.71 0 0 1 2.44 1.28 1.1 1.1 0 0 1 1.12.68 6.83 6.83 0 0 1 .36 1.2c.44 1.56 1.4 3 3.2 3a6.86 6.86 0 0 0 2.64-.92c.16.04.24.16.24.32zm-9-3.32c-.32-.52-.64-1-1.32-1-1.64 0-4 2.68-4 4.28a1.06 1.06 0 0 0 1.12 1.16c1.84 0 3.28-3.2 4.24-4.44zm34.64 2.52c0 1.2-2.32 1.92-3.24 2.12a7.6 7.6 0 0 1-1.64.16 3.59 3.59 0 0 1-3.84-3.48 15.22 15.22 0 0 1-2.68.28c-.36 0-1.16-.24-1.16-.72 0-.28.44-.28.64-.28a16.08 16.08 0 0 0 3.36-.4v-.16c.44-2 2.4-4.2 4.52-4.2 1 0 2.2.6 2.2 1.76a2.22 2.22 0 0 1-.24.88c-.6 1.2-3.88 2-5.12 2.44a.94.94 0 0 1-.32.08v.36a2.48 2.48 0 0 0 2.6 2.6 6.26 6.26 0 0 0 3.76-1.08 9.41 9.41 0 0 1 .84-.64c.24 0 .32.08.32.28zm-7.2-2.64c.92-.2 3.76-1.2 3.76-2.28 0-.44-.44-.52-.8-.52-1.43 0-2.63 1.57-2.99 2.8zm1.32-5.92c-.16 0-.24 0-.24-.16 0-.28 2.68-2.6 3.32-2.6.32 0 .6.16.6.4 0 .52-2.44 2.08-3.32 2.32a1.1 1.1 0 0 1-.39.04z"/></svg>