<svg xmlns="http://www.w3.org/2000/svg" viewBox="0 0 280.63 37.51"><defs><style>.a{fill:#dd6428}</style></defs><title>p9_s8</title><path class="a" d="M14.91 28.68a.49.49 0 0 1-.4.52c-.28 0-.52-.28-.72-.44a8 8 0 0 0-1.6-1.32A14.16 14.16 0 0 0 7.03 26a4.9 4.9 0 0 0-.76.8c-.08.08-3.12 3.08-5.08 3.08a1.07 1.07 0 0 1-1.2-1.12c.24-2.36 3.28-3.88 5.68-3.88a4 4 0 0 1 .6 0s.72-.92 2.28-3.28 2.68-4.92 2.68-5.8a2.17 2.17 0 0 0-2.36-2.24 5.82 5.82 0 0 0-3.6 1.84 1.54 1.54 0 0 1-.92.44.52.52 0 0 1-.48-.52 1.68 1.68 0 0 1 .4-.8 6.26 6.26 0 0 1 4.4-2.2 3.64 3.64 0 0 1 3.92 3.48c0 2.92-4.16 8.16-5 9.2a14.45 14.45 0 0 1 4.4 1 6.16 6.16 0 0 1 2.84 2.24c.04.16.08.32.08.44zM5.47 26h-.19c-1.56 0-4 1.52-4 2.32a.29.29 0 0 0 .32.28 1 1 0 0 0 .52-.16A20.85 20.85 0 0 0 5.48 26zm11.69 1.08a1.12 1.12 0 0 1 1.08 1 .85.85 0 0 1-.84.88 1 1 0 0 1-1.08-1.08.65.65 0 0 1 .24-.6.88.88 0 0 1 .6-.2zM51.67 0c8 0 13.84 5.12 13.84 14.64 0 9-5.92 14.64-13.84 14.64-8.12 0-13.84-5.12-13.84-14.64C37.84 5.64 43.68 0 51.67 0zm0 27.35c5 0 8-4.44 8-12.72 0-8.56-3.08-12.72-8-12.72-5.08 0-8 4.48-8 12.72.01 8.61 3.04 12.73 8 12.73zm41.61-2.07h-.24a6.88 6.88 0 0 1-6.56 4c-6.4 0-9.6-4.52-9.6-10.56 0-6.44 4.24-11 10.36-11a6 6 0 0 1 6 3.68h.24l.16-1.48c.12-1.24 1-1.88 2.36-1.88s2.56.6 2.56 1.84v25.6c0 1.32-1.2 2-2.64 2s-2.64-.68-2.64-2zm-11-6.68c0 5.72 2 8.48 5.2 8.48 4 0 5.88-3.92 5.88-8.52 0-4.84-1.56-8.6-5.48-8.6-3.53 0-5.6 3.48-5.6 8.64zm40.75 8.32c0 1.24-1.16 1.88-2.56 1.88s-2.24-.64-2.32-1.88l-.12-1.52h-.24a6.46 6.46 0 0 1-6.28 3.88c-5.24 0-7.4-3.24-7.4-8.32V10.04c0-1.32 1.2-2 2.68-2s2.64.64 2.64 2v11.92c0 2.52.76 5.12 3.76 5.12 2.8 0 4.52-2.88 4.52-6.64v-10.4c0-1.32 1.2-2 2.68-2s2.64.64 2.64 2zm20.56-1.68c.6-.6 1-.8 1.44-.8a1 1 0 0 1 1.08 1 1.74 1.74 0 0 1-.56 1.2c-1.88 2.12-5 2.68-7.8 2.68-6.28 0-10.56-3.76-10.56-10.68 0-6 4-10.84 10.56-10.84 4.8 0 9 2.8 9 9.32v.2c0 1.16-.56 1.8-2.08 1.8h-12.12v.2c0 4.48 2.08 8 6 8a6.36 6.36 0 0 0 5.04-2.08zM141.71 17v-.86c0-3.8-.88-6.64-4.16-6.64-3 0-4.76 2.48-4.92 7.48zm30.92 8a.44.44 0 0 1 .44.44.44.44 0 0 1-.44.44c-3.08 0-4.8-2.8-5.56-2.8-1 0-3.88 6.6-5.88 6.6-.84 0-1.4-.92-1.76-1.56-.56-1-2.68-4.8-2.68-5.72a.6.6 0 0 1 .64-.6.94.94 0 0 1 .32.08c.72.36 1.08 1.72 1.36 2.44s1.52 4 2.24 4c1.24 0 4-6.64 5.68-6.64 1.29-.04 2.52 3.32 5.64 3.32z"/><path class="a" d="M182.91 21.6c0 1.88-4.24 3.16-5.6 3.64h-.08v.24c0 1.56 1.16 2.24 2.56 2.4.2 0 .44.16.44.4a.44.44 0 0 1-.44.44 3.75 3.75 0 0 1-3.76-2.76c0-.12 0-.4-.08-.48a19.65 19.65 0 0 1-3.4.36.44.44 0 0 1-.44-.44.44.44 0 0 1 .44-.44 14.53 14.53 0 0 0 3.48-.4c.44-2.16 2.2-4.8 4.68-4.8a2 2 0 0 1 2.2 1.84zm-1.64 0c0-.4-.44-.52-.8-.52-1.6 0-2.8 1.88-3.12 3.28.93-.22 3.93-1.68 3.93-2.8z"/><path class="a" d="M204.83 24.2c.48 1.68.8 3.72 3 3.72a.43.43 0 0 1 .4.4.41.41 0 0 1-.4.44c-4.4 0-3.72-5.28-5-5.28-1.08 0-3.4 5.4-5.28 5.4-.84 0-1.16-.76-1.16-1.48 0-1.32.68-2.76.68-4 0-.6-.16-.88-.8-.88-.84 0-2.68 1.36-3.48 1.8-3.64 2-8.84 4.4-13 4.4a.41.41 0 0 1-.4-.44c0-.36.28-.4.56-.4 2.56 0 5.76-1.28 8.12-2.28a48.31 48.31 0 0 0 6.84-3.88 2.8 2.8 0 0 1 1.56-.52 1.83 1.83 0 0 1 1.84 2c0 1.24-.8 2.76-.8 3.92 0 .2 0 .48.24.48.88 0 3.6-5.64 5.44-5.64.96.04 1.4 1.44 1.64 2.24z"/><path class="a" d="M222.35 16.36c.68-2.72 3-10.92 6.4-10.92a1.31 1.31 0 0 1 1.32 1.48c0 2.64-2.32 6.12-3.56 8.44a62.82 62.82 0 0 1-3.88 6.76c0 .48.08 1 .16 1.52a5 5 0 0 0 3.36 4 7.24 7.24 0 0 0 2 .32.44.44 0 0 1 .44.4.44.44 0 0 1-.44.44 6.25 6.25 0 0 1-5.68-3.12 8.92 8.92 0 0 1-.72-2.28c-1.56 2.16-4.16 5.92-7.12 5.92a2.43 2.43 0 0 1-2.52-2.36c-1.52 1.16-2.48 1.84-4.44 1.84a.4.4 0 0 1-.44-.44.38.38 0 0 1 .4-.4c1.92 0 3.48-1.44 4.88-2.6a5.92 5.92 0 0 1 5-3.4 3 3 0 0 1 2.68 1.92c.52-.68 1-1.36 1.44-2a22.55 22.55 0 0 1 .72-5.52zm-3.07 8.68a1.92 1.92 0 0 0-1.92-1.76c-1.68 0-3.84 1.72-3.84 3.48a1.21 1.21 0 0 0 1.32 1.28c1.83-.04 3.27-1.76 4.44-3zm5.48-8.36c.76-1.28 1.4-2.6 2.08-3.92s2-3.44 2-4.8c0-.44-.16-.8-.64-.8-1.84 0-3.88 6.44-4.32 8a25.1 25.1 0 0 0-1.2 5.12z"/><path class="a" d="M242.91 21.56a2 2 0 0 1-.24.84 3.06 3.06 0 0 1-1 .88c-.52.32-1.08.56-1.6.84-1 .52-1.84 1.08-2.8 1.56.16 1.52 1.16 2 2.56 2.24.2 0 .44.16.44.4a.44.44 0 0 1-.44.44 3.87 3.87 0 0 1-3.72-2.48c-2.52 1.24-5 2.48-7.92 2.48a.45.45 0 0 1-.48-.44.44.44 0 0 1 .44-.4 11.59 11.59 0 0 0 3.52-.6 35.94 35.94 0 0 0 4.36-2c0-2.36 2.16-5.48 4.72-5.48a2 2 0 0 1 2.16 1.72zm-1.72.6a.66.66 0 0 0 .2-.48c0-.48-.48-.64-.88-.64-1.72 0-2.84 2.08-3.16 3.52a26.06 26.06 0 0 0 3.84-2.42z"/><path class="a" d="M268.07 22.44c0 .16-.16.2-.28.2a13 13 0 0 1-1.32-.2 9.42 9.42 0 0 0-1.52-.08 10.27 10.27 0 0 0-7.48 3.28 20.1 20.1 0 0 0-2 2.48c-.32.4-.92 1.24-1.52 1.24-1.4 0-1-4.6-1.16-5.52 0-.16-.08-.4-.32-.4a1.18 1.18 0 0 0-.6.28 62.12 62.12 0 0 1-5.64 3.4 12.09 12.09 0 0 1-6.44 1.64.44.44 0 0 1-.44-.44.44.44 0 0 1 .44-.4 11.3 11.3 0 0 0 3.44-.6 31.67 31.67 0 0 0 8.16-4.6 2.77 2.77 0 0 1 1.52-.68c1.12 0 1.08 1.84 1.08 2.6v2.6c0 .2 0 .56.28.56s1-1.12 1.16-1.24a24.17 24.17 0 0 1 2.24-2.28 12 12 0 0 1 7.76-2.84c.6 0 2.64.08 2.64 1zm4.21 4.8a1.18 1.18 0 0 1 1.28 1 1.06 1.06 0 0 1-.92 1 1.5 1.5 0 0 1-1.4-1.24.63.63 0 0 1 .48-.6.75.75 0 0 1 .56-.16zm7.6-12.88c-1 1.64-3.16 2-4.48 3.32s-1.48 3.36-1.88 4.88c-.16.32-.36.56-.56.56s-.32-.28-.32-.56a7.57 7.57 0 0 1 .24-1.88 5 5 0 0 1 1.48-3.6c1.72-1.68 4.88-2.24 4.88-5.36a2.82 2.82 0 0 0-3.08-2.84 5 5 0 0 0-3.08 1.2.73.73 0 0 1-.56.24.58.58 0 0 1-.56-.6.79.79 0 0 1 .2-.56 5.44 5.44 0 0 1 3.88-1.52 6.05 6.05 0 0 1 .88.08c2.8.6 3.68 2 3.68 4.28a4.89 4.89 0 0 1-.69 2.36z"/></svg>