<svg xmlns="http://www.w3.org/2000/svg" viewBox="0 0 530.03 41.55"><defs><style>.a{fill:#3a1a0d}</style></defs><title>p9_s1</title><path class="a" d="M11.04 15.17a33.08 33.08 0 0 1-.16-3.4v-.6c0-3 0-6.68-.4-6.68s-.88.8-1.24 1.56c-1.08 2.2-1.88 4.2-3.36 7.76-.72 1.68-1.24 2.88-1.84 4.16-.48 1-1 2.12-1.68 3.68-.84 2-1.4 2.6-1.76 2.6a.64.64 0 0 1-.6-.64 1.48 1.48 0 0 1 .16-.56c.56-1.4 3.88-9 6.12-14L7.4 6.53c.8-1.76 2.12-4 3.48-4 1.12 0 1.2 1.36 1.32 5.88 0 1.16 0 3 .12 4.64v.68c0 1.32 0 2.68.52 2.68s.68-.6 1.32-1.84c1.8-3.44 3.52-6.6 5.48-10 .72-1.2 1.44-2 2.36-2 .72 0 1.2.44 1.2 2a38 38 0 0 1-.56 5.2l-.68 5.28-.12.84c-.24 1.8-.4 3.44-.52 5.4 0 1.24-.12 2.8-1 2.8-.36 0-.56-.36-.56-1.2s.64-6.08 1.52-13.24c.08-.64.16-1.36.28-2a22.47 22.47 0 0 0 .36-3c0-.2 0-.4-.24-.4-.52 0-2.56 3.44-4.72 7.84a33.91 33.91 0 0 1-3.44 5.64 1.48 1.48 0 0 1-1 .48c-.72 0-1.28-.4-1.44-2.4 0-.17-.04-.37-.04-.64zm24.92 1c0 2-3.92 2.76-5.4 3.28a.58.58 0 0 1-.28.08v.44a2.5 2.5 0 0 0 2.6 2.52c.24 0 .44.12.44.4a.44.44 0 0 1-.44.44c-1.92 0-4-1.4-3.84-3.48a14.78 14.78 0 0 1-2.64.28c-.36 0-1.2-.24-1.2-.72 0-.28.44-.28.64-.28a16.14 16.14 0 0 0 3.4-.4v-.16a6.13 6.13 0 0 1 3.08-3.88 2.78 2.78 0 0 1 1.4-.32 2 2 0 0 1 2.24 1.8zm-1.64 0c0-.4-.44-.52-.8-.52-1.44 0-2.56 1.56-3 2.8.88-.21 3.8-1.28 3.8-2.33z"/><path class="a" d="M61.23 22.52c0 .64-1 .72-1.24.92a2.27 2.27 0 0 1-.52 0c-2.44 0-3.52-2.72-3.72-4.8a6.34 6.34 0 0 1-.72 1.48c-1.16 1.92-2.84 4.16-5.36 4.16a3.19 3.19 0 0 1-3.12-3.48 14.68 14.68 0 0 1 .48-2.64c-.72.36-1.36.84-2.08 1.2-3.52 1.84-8.2 3.92-12.16 3.92a.44.44 0 0 1-.44-.44c0-.32.32-.4.56-.4 2.52 0 5.8-1.28 8.12-2.28a23.11 23.11 0 0 0 3.12-1.64 17.17 17.17 0 0 0 1.64-1.16c.56-.4 2-1.8 2.64-1.8a.85.85 0 0 1 .8.88c0 1.08-1.48 2.6-1.48 4.56a2 2 0 0 0 2.08 2.12 2.47 2.47 0 0 0 1.4-.4c1.92-1.24 2.72-3.4 3.68-5.36.28-.52.8-1.28 1.48-1.28s1 1 1 1.6c0 .48-.12 1-.12 1.44 0 1.48.48 3.44 2.32 3.44.48 0 1-.24 1.4-.24.12.04.24.04.24.2zm27.48.4a.41.41 0 0 1-.44.4 27.91 27.91 0 0 1-5-.28 7.83 7.83 0 0 1-2.88-.8c-1.24 4.28-1.92 5.76-3.12 9.2-1.16 3.28-2.08 7-4.52 7-1.16 0-2-1.36-2-2.92 0-5.8 7-15 10.12-19.52a9.79 9.79 0 0 0 .08-1.08c0-.6-.2-1.44-.2-1.8s.32-.88.8-.88c.8 0 .84 1 .84 1.68a2.76 2.76 0 0 1-.12.92 6.43 6.43 0 0 1 3.08-1.16c1.6 0 3.48.92 3.48 2.84 0 2.4-3.24 5.4-5.72 5.4.92.52 4 .6 5.12.6a.47.47 0 0 1 .48.4zm-8.28-4.64c-3 4.56-3.92 5.8-5.48 8.44a58.49 58.49 0 0 0-2.56 5.72 9.67 9.67 0 0 0-.48 2.92c0 1.16.28 1.84 1 1.84 1 0 1.64-1.52 2.44-3.68 1-2.84 1.64-4.4 2.64-7.4.81-2.76 1.72-5.24 2.41-7.84zm1.56 3c1.84 0 5.36-2 5.36-4.64A1.68 1.68 0 0 0 85.47 15a6.05 6.05 0 0 0-3.36 1.24c-.44 1.84-.72 3.32-1.24 4.88a4 4 0 0 0 1.09.2z"/><path class="a" d="M109.88 22.48a.44.44 0 0 1 .44.44.44.44 0 0 1-.44.4c-2.08 0-4.32-1-4.32-3.4 0-1.64 1.12-3.32 1.12-5 0-1.12-1.2-1.48-2-1.92l-.12.28c-1.92 3.52-6.24 6.52-9.8 8.36a12.68 12.68 0 0 1-6.6 1.68.44.44 0 0 1-.4-.44.43.43 0 0 1 .4-.4 11.09 11.09 0 0 0 3.44-.6c4.12-1.32 10.12-5.36 12.08-9.44-.92-.48-2-1.16-2-2.32a1.73 1.73 0 0 1 1.76-1.68 2 2 0 0 1 2 2 4.12 4.12 0 0 1-.24 1.4c1.36.6 2.72 1.32 2.72 3s-1.16 3.8-1.16 5.16c-.05 1.6 1.8 2.48 3.12 2.48zm-5.8-11.16a3 3 0 0 0 .12-.84c0-.32-.16-.8-.6-.8a.65.65 0 0 0-.64.6c.04.44.75.8 1.12 1.04z"/><path class="a" d="M120.36 15.92a1.39 1.39 0 0 1 .28 1 7.32 7.32 0 0 0 1.4 4.64 2.41 2.41 0 0 0 2 .88c.2 0 .44.16.44.4a.44.44 0 0 1-.44.44c-2.88 0-4.32-3-4.48-5.48a14.27 14.27 0 0 1-5.28 4.48 9.66 9.66 0 0 1-4.48 1 .44.44 0 0 1-.44-.44.44.44 0 0 1 .44-.4 8 8 0 0 0 4-1 12.3 12.3 0 0 0 4.24-3.88c.36-.52 1.08-2 1.8-2a.73.73 0 0 1 .52.36zm-.76-6.24c0-.4.36-.56.72-.56.64 0 1 .84 1 1.4 0 .32-.16.6-.48.6-.6 0-1.24-.95-1.24-1.44z"/><path class="a" d="M152.59 17.72c.84 1.32.84 4 2.36 4.6a3.1 3.1 0 0 0 .84.16c.2 0 .4.16.4.4a.44.44 0 0 1-.4.44c-4 0-3.24-4.76-4.6-4.76-.36 0-.64.36-.84.64a30.72 30.72 0 0 1-2.92 3.72 1.71 1.71 0 0 1-1.08.4 1.32 1.32 0 0 1-1.28-1c-.48-1.2-.76-2.44-1.24-3.6-.12-.28-.28-.72-.64-.72-1.12 0-3.4 5.4-5.28 5.4a1.31 1.31 0 0 1-1.2-1.44c0-1.36.72-2.84.72-4.2a.8.8 0 0 0-.8-.88c-2.44 0-7.12 6.4-11.6 6.4-.4 0-1.52.24-1.52-.44a.44.44 0 0 1 .44-.4 10.26 10.26 0 0 0 6.24-2.4c1.4-1 3.92-3.48 5.36-4.08a3.29 3.29 0 0 1 1.2-.28 1.88 1.88 0 0 1 1.88 2.08c0 1.24-.8 2.72-.8 3.92 0 .2 0 .48.24.48.92 0 3.52-5.6 5.44-5.6 2.12 0 1.8 5.16 3 5.16.64 0 2.64-3.16 3.08-3.72a2.32 2.32 0 0 1 1.72-1 1.46 1.46 0 0 1 1.28.72z"/><path class="a" d="M170.44 16.12a2 2 0 0 1-.24.84 3.06 3.06 0 0 1-1 .88c-.52.32-1.08.56-1.6.84-1 .52-1.84 1.08-2.8 1.56.16 1.52 1.16 2 2.56 2.24.2 0 .44.16.44.4a.44.44 0 0 1-.44.44 3.87 3.87 0 0 1-3.72-2.48c-2.52 1.24-5 2.48-7.92 2.48a.45.45 0 0 1-.48-.44.44.44 0 0 1 .44-.4 11.59 11.59 0 0 0 3.52-.6 35.91 35.91 0 0 0 4.36-2c0-2.36 2.16-5.48 4.72-5.48a2 2 0 0 1 2.16 1.72zm-1.72.6a.66.66 0 0 0 .2-.48c0-.48-.48-.64-.88-.64-1.72 0-2.84 2.08-3.16 3.52a26 26 0 0 0 3.83-2.4z"/><path class="a" d="M184.56 15.96a7.81 7.81 0 0 1 .2 1.44 7.15 7.15 0 0 0 1.4 4.2 2.48 2.48 0 0 0 .88.68c.4.16 1.56.08 1.56.6a.44.44 0 0 1-.44.44 4.14 4.14 0 0 1-3.16-1.64 9.5 9.5 0 0 1-1.72-4.56c-4.08 2.8-11 6.2-16 6.2a.44.44 0 0 1-.44-.44c0-.36.36-.4.6-.4 2.64-.08 5.64-1.28 8.08-2.28a27.76 27.76 0 0 0 4-2.12c.56-.36 1.08-.72 1.6-1.12s1.64-1.52 2.44-1.52a1.06 1.06 0 0 1 1 .52zm-.84-6.28c0-.4.36-.56.72-.56.64 0 1 .84 1 1.4 0 .32-.12.6-.48.6-.6 0-1.25-.95-1.25-1.44z"/><path class="a" d="M205.44 22.48a.44.44 0 0 1 .44.4.44.44 0 0 1-.44.44c-2 0-4.28-1-4.28-3.36 0-1.72 1.08-3.32 1.08-5 0-1.08-1.2-1.6-2-2h-.12a24.78 24.78 0 0 1-4.24 5.36c-1.76 1.68-3.32 3.48-5.52 4.56a4.5 4.5 0 0 1-2 .48c-.28 0-.64 0-.64-.44a.43.43 0 0 1 .4-.4 4.43 4.43 0 0 0 1.6-.36c2.44-1.08 8.32-7 9.6-9.68-.92-.48-2-1.16-2-2.32a1.73 1.73 0 0 1 1.76-1.68 2 2 0 0 1 2 1.92 3.83 3.83 0 0 1-.36 1.48h.12c1.36.6 2.72 1.32 2.72 3s-.8 3.16-1.12 4.76a1.36 1.36 0 0 0 0 .4c-.13 1.56 1.67 2.44 3 2.44zm-5.8-11.16a3 3 0 0 0 .12-.84c0-.32-.16-.8-.6-.8a.65.65 0 0 0-.64.6c.04.44.76.8 1.12 1.04z"/><path class="a" d="M225.23 20.17c0 .8-1.52.72-2 .72a4.32 4.32 0 0 1-1.6-.24 6 6 0 0 1-5.28 3.68c-1.68 0-2.52-1.56-2.52-3.08a4.61 4.61 0 0 1 .12-1c-2.56 1.76-4.92 3.08-8.08 3.08-.36 0-.92.08-.92-.44a.44.44 0 0 1 .44-.4 15.52 15.52 0 0 0 1.92-.16 15.44 15.44 0 0 0 6.44-3l.84-.76c.76-1.52 2.76-4.08 4.6-4.08 1.12 0 1.6 1.16 1.6 2.16a3 3 0 0 1 1.16 2.48 4.89 4.89 0 0 1-.08.76 5.65 5.65 0 0 0 1.84.2c.16-.05 1.52-.21 1.52.08zm-4.64 0c-.84-.44-2.4-1.6-2.4-2.64 0-.84.8-1.24 1.52-1.28a.65.65 0 0 0-.6-.44 2.12 2.12 0 0 0-.92.32 7 7 0 0 0-3.12 5.36 1.5 1.5 0 0 0 1.64 1.68 4.3 4.3 0 0 0 3.88-3zm.16-1.08c0-.56-.48-1.8-1.16-1.8-.16 0-.28.2-.28.36 0 .68 1 1.16 1.44 1.56zm31.96 3.83a.41.41 0 0 1-.44.4 27.91 27.91 0 0 1-5-.28 7.83 7.83 0 0 1-2.88-.8c-1.24 4.28-1.92 5.76-3.12 9.2-1.16 3.28-2.08 7-4.52 7-1.16 0-2-1.36-2-2.92 0-5.8 7-15 10.12-19.52a9.79 9.79 0 0 0 .08-1.08c0-.6-.2-1.44-.2-1.8s.32-.88.8-.88c.8 0 .84 1 .84 1.68a2.76 2.76 0 0 1-.12.92 6.43 6.43 0 0 1 3.08-1.16c1.6 0 3.48.92 3.48 2.84 0 2.4-3.24 5.4-5.72 5.4.92.52 4 .6 5.12.6a.47.47 0 0 1 .48.4zm-8.28-4.64c-3 4.56-3.92 5.8-5.48 8.44a58.49 58.49 0 0 0-2.56 5.72 9.67 9.67 0 0 0-.48 2.92c0 1.16.28 1.84 1 1.84 1 0 1.64-1.52 2.44-3.68 1-2.84 1.64-4.4 2.64-7.4.81-2.76 1.72-5.24 2.41-7.84zm1.56 3c1.84 0 5.36-2 5.36-4.64a1.68 1.68 0 0 0-1.88-1.64 6.05 6.05 0 0 0-3.36 1.24c-.44 1.84-.72 3.32-1.24 4.88a4 4 0 0 0 1.09.2z"/><path class="a" d="M270.87 4.64c.68-.84 2-2.08 3.12-2.08S275.75 4 275.75 5c0 1.92-1.4 4.76-2.48 6.32a23.76 23.76 0 0 1-3.76 4.24 6.21 6.21 0 0 1-.76.68c.56 2.72 2.56 6.24 5.72 6.24a.43.43 0 0 1 .4.4.41.41 0 0 1-.4.44c-3.64 0-6-2.92-6.72-6.2-3.92 3-10.68 6.2-15.56 6.2a.44.44 0 0 1-.44-.44.44.44 0 0 1 .44-.4 12.61 12.61 0 0 0 3.44-.56 34.59 34.59 0 0 0 11.88-5.8c0-.6-.16-1.2-.16-1.84a16.92 16.92 0 0 1 3.52-9.64zm1.64 6.08c.84-1.32 2.16-3.76 2.16-5.32 0-.72-.32-1.28-1.08-1.28-1.08 0-2.32 1.8-2.8 2.64a15.69 15.69 0 0 0-2.24 7.52 7.07 7.07 0 0 0 0 .92 20 20 0 0 0 3.96-4.48z"/><path class="a" d="M288.11 19.44a4.83 4.83 0 0 0 .52 1.24 3.08 3.08 0 0 0 2.68 1.8.44.44 0 0 1 .44.4.44.44 0 0 1-.44.44c-3.56 0-4.08-3.52-5-3.52s-2.12 4.32-5.64 4.32a2 2 0 0 1-2.16-2.12v-.24a5.92 5.92 0 0 1-4.08 1.56.4.4 0 0 1-.44-.44.43.43 0 0 1 .4-.4c1.8 0 3.32-1.28 4.64-2.4 1-1.72 3-3.8 5.16-3.8a2.87 2.87 0 0 1 2.48 1.28c1.16-.12 1.2 1.08 1.44 1.88zm-2.84-.92c-.32-.52-.68-1-1.32-1-1.68 0-4.08 2.68-4.08 4.28a1.09 1.09 0 0 0 1.16 1.16c1.8 0 3.28-3.2 4.24-4.44z"/><path class="a" d="M312.51 18.76c.48 1.68.84 3.72 3 3.72a.44.44 0 0 1 .44.4.44.44 0 0 1-.44.44c-4.36 0-3.76-5.28-5-5.28-1.12 0-3.44 5.4-5.28 5.4-.84 0-1.16-.76-1.16-1.48 0-1.32.68-2.76.68-4 0-.52-.08-1.12-.72-1.12-2.44 0-7.2 6.44-11.68 6.44-.4 0-1.52.2-1.52-.44a.44.44 0 0 1 .44-.4 10.26 10.26 0 0 0 6.24-2.4c1.4-1 3.92-3.48 5.36-4.08a3.29 3.29 0 0 1 1.2-.28 1.88 1.88 0 0 1 1.88 2.08c0 1.28-.8 2.72-.8 3.92 0 .2 0 .48.28.48.88 0 3.52-5.64 5.44-5.64.96.04 1.4 1.44 1.64 2.24z"/><path class="a" d="M335.31 20.17c0 .8-1.52.72-2 .72a4.32 4.32 0 0 1-1.6-.24 6 6 0 0 1-5.28 3.68c-1.68 0-2.52-1.56-2.52-3.08a4.61 4.61 0 0 1 .12-1c-2.56 1.76-4.92 3.08-8.08 3.08-.36 0-.92.08-.92-.44a.44.44 0 0 1 .44-.4 15.52 15.52 0 0 0 1.92-.16 15.44 15.44 0 0 0 6.44-3l.84-.76c.76-1.52 2.76-4.08 4.6-4.08 1.12 0 1.6 1.16 1.6 2.16a3 3 0 0 1 1.16 2.48 4.89 4.89 0 0 1-.08.76 5.65 5.65 0 0 0 1.84.2c.16-.05 1.52-.21 1.52.08zm-4.64 0c-.84-.44-2.4-1.6-2.4-2.64 0-.84.8-1.24 1.52-1.28a.65.65 0 0 0-.6-.44 2.12 2.12 0 0 0-.92.32 7 7 0 0 0-3.12 5.36 1.5 1.5 0 0 0 1.56 1.68 4.3 4.3 0 0 0 4-3zm.16-1.08c0-.56-.48-1.8-1.16-1.8-.16 0-.28.2-.28.36 0 .68 1 1.16 1.44 1.56zm29-8.17c.68-2.72 3-10.92 6.4-10.92a1.31 1.31 0 0 1 1.32 1.48 11.14 11.14 0 0 1-1.16 4c-.68 1.52-1.6 2.92-2.4 4.4-1.08 2-2 3.92-3.24 5.8-.2.32-.4.64-.64 1 .24 1.56.36 3.08 1.56 4.28a5.69 5.69 0 0 0 4 1.52.41.41 0 0 1 .44.4.44.44 0 0 1-.44.44c-3.56 0-5.72-2-6.4-5.4-1.56 2.16-4.12 5.92-7.08 5.92a2.44 2.44 0 0 1-2.56-2.48c0-2.4 3-4.88 5.36-4.88a2.89 2.89 0 0 1 2.68 1.92c.52-.68 1-1.36 1.44-2a22.58 22.58 0 0 1 .72-5.48zm-3.12 8.68a1.86 1.86 0 0 0-1.92-1.76c-1.64 0-3.84 1.68-3.84 3.44a1.24 1.24 0 0 0 1.32 1.32c1.88-.04 3.32-1.72 4.44-3zm5.48-8.36c.72-1.28 1.4-2.6 2.08-3.92s2-3.4 2-4.8c0-.4-.16-.8-.64-.8-1.8 0-3.84 6.48-4.32 8a28.05 28.05 0 0 0-1.2 5.12z"/><path class="a" d="M378.95 23.17a7.58 7.58 0 0 1-1.64.16 3.83 3.83 0 0 1-3.72-2.48c-2.56 1.28-5 2.48-8 2.48a.44.44 0 0 1-.44-.44.44.44 0 0 1 .44-.4 11.81 11.81 0 0 0 3.52-.6 32.84 32.84 0 0 0 4.32-2 6.35 6.35 0 0 1 3.32-5.16 2.78 2.78 0 0 1 1.4-.32c1 0 2.2.6 2.2 1.76a2 2 0 0 1-.24.84 2.79 2.79 0 0 1-1 .88c-.52.32-1 .56-1.56.84-.92.52-1.84 1.08-2.8 1.56a2.51 2.51 0 0 0 2.6 2.24 6 6 0 0 0 3.76-1.08 9.56 9.56 0 0 1 .88-.64c.16 0 .2.08.2.24 0 1.23-2.28 1.91-3.24 2.12zm-4.12-4a26 26 0 0 0 3.84-2.4.74.74 0 0 0 .2-.48c0-.48-.52-.64-.92-.64-1.64-.05-2.88 2.03-3.12 3.47zm32.56-.41c.52 1.64.84 3.72 3 3.72a.41.41 0 0 1 .44.4.44.44 0 0 1-.44.44c-4.32 0-3.76-5.28-5-5.28-1 0-3.44 5.4-5.24 5.4-.8 0-1.16-.76-1.16-1.44 0-1.36.64-2.68.64-4 0-.52 0-1.12-.68-1.12-1.08 0-2.6 1.44-3.28 1.44a.36.36 0 0 1-.4-.32c0-.88 2.84-2.28 3.72-2.28a1.84 1.84 0 0 1 1.84 2c0 1.4-.8 2.88-.8 4.12a.31.31 0 0 0 .28.32h.16c1.48-1.48 2.4-3.4 3.88-4.88a2.17 2.17 0 0 1 1.4-.72c1.04 0 1.4 1.36 1.64 2.2z"/><path class="a" d="M425.07 16.12a2 2 0 0 1-.24.84 3.06 3.06 0 0 1-1 .88c-.52.32-1.08.56-1.6.84-1 .52-1.84 1.08-2.8 1.56.16 1.52 1.16 2 2.56 2.24.2 0 .44.16.44.4a.44.44 0 0 1-.44.44 3.87 3.87 0 0 1-3.72-2.48c-2.52 1.24-5 2.48-7.92 2.48a.45.45 0 0 1-.48-.44.44.44 0 0 1 .44-.4 11.59 11.59 0 0 0 3.52-.6 36 36 0 0 0 4.36-2c0-2.36 2.16-5.48 4.72-5.48a2 2 0 0 1 2.16 1.72zm-1.72.6a.66.66 0 0 0 .2-.48c0-.48-.48-.64-.88-.64-1.72 0-2.84 2.08-3.16 3.52a26 26 0 0 0 3.84-2.4z"/><path class="a" d="M444.27 20.88c.08.88.08 1.8.08 2.68 0 6-2.52 13.72-6.6 17.12a4.19 4.19 0 0 1-2.52.88 3.38 3.38 0 0 1-3.52-3.6c0-3.88 4.12-8.48 7.28-11.08a15.5 15.5 0 0 1 2.76-2 .39.39 0 0 1 .4.44.37.37 0 0 1-.16.32c-3.24 2.6-9 7.72-9 12.12a2.15 2.15 0 0 0 2.2 2.44 4 4 0 0 0 3.08-1.64c3.08-3.92 4.72-9.16 5-14.88v-1c0-.52 0-2.32-.8-2.32a1.44 1.44 0 0 0-.72.28 6.54 6.54 0 0 1 .08.88c0 .4-.2 1-.68 1-.32 0-.36-.4-.36-.64a1 1 0 0 0 0-.48c-1.24 1-2.8 2.48-4.48 2.48s-2.92-.72-2.92-2.52a5.68 5.68 0 0 1 .28-1.68c-3.4 1.48-8.12 3.72-11.8 3.72a.44.44 0 0 1-.44-.44.44.44 0 0 1 .44-.4 12.38 12.38 0 0 0 3.4-.6 46.1 46.1 0 0 0 9-3.64c.68-1.36 2.16-3.12 3.84-3.12 2 0 3.12 2.44 3.48 4.08a2.18 2.18 0 0 1 1.24-.4c1.16-.08 1.36 1.12 1.44 2zm-3.48-1c-.2-1.28-1.08-3.24-2.6-3.24-1.72 0-3.28 2.8-3.28 4.32a1.37 1.37 0 0 0 1.56 1.48c1.76 0 3.08-1.48 4.32-2.56z"/><path class="a" d="M461.59 19.44a15.53 15.53 0 0 0 2.36.12.44.44 0 0 1 .44.44.44.44 0 0 1-.44.44 15.47 15.47 0 0 1-2.6-.16c-.8 2.12-3.16 4-5.32 4a2.68 2.68 0 0 1-2.56-3 5.31 5.31 0 0 1 .48-2.2c-1.8.84-3.6 1.68-5.36 2.56a40 40 0 0 0-4.08 2.2 26.71 26.71 0 0 1-2.76 1.8.44.44 0 0 1-.44-.4.45.45 0 0 1 .12-.32 16.6 16.6 0 0 1 1.84-1.28c3.56-2.36 7.56-4 11.36-5.88a11.93 11.93 0 0 1 1-1.36c.72-.88 2-2.16 3.24-2.16s1.6 1 1.6 2a3 3 0 0 1 1.16 2.48 3.43 3.43 0 0 1-.04.72zm-1.44.52a2.77 2.77 0 0 1-2.24-2.6c0-.84.64-1.28 1.56-1.36a.81.81 0 0 0-.68-.44 1.6 1.6 0 0 0-1 .36 8.12 8.12 0 0 0-3 5.56 1.64 1.64 0 0 0 1.68 1.76c1.08 0 3-1.36 3.68-3.28zm-3.6-8.56c-.16 0-.24 0-.24-.16 0-.28 2.68-2.6 3.32-2.6.32 0 .6.16.6.4 0 .52-2.44 2.08-3.32 2.32a1.1 1.1 0 0 1-.36.04zm3.84 7.72v-.56c0-.84-.44-1.52-1.12-1.52-.16 0-.24.16-.24.32a1.8 1.8 0 0 0 1.36 1.76z"/><path class="a" d="M474.43 14.48c.6 0 2.16.56 2.16 1.28 0 .16-.08.24-.28.24-.48 0-.68-.6-1.48-.6-1.76 0-3.24 3-3.24 4.56a2.43 2.43 0 0 0 2.48 2.52.47.47 0 0 1 .44.44.41.41 0 0 1-.44.4 3.69 3.69 0 0 1-3.76-2.72 1.42 1.42 0 0 1-.08-.4 5.31 5.31 0 0 1 .24-1.56 12.93 12.93 0 0 1-6.56 1.8.44.44 0 0 1-.44-.44.44.44 0 0 1 .44-.44 14.64 14.64 0 0 0 7.12-2.36c.68-1.24 1.88-2.72 3.4-2.72z"/><path class="a" d="M491.31 15.96a7.81 7.81 0 0 1 .2 1.44 7.15 7.15 0 0 0 1.4 4.2 2.48 2.48 0 0 0 .88.68c.4.16 1.56.08 1.56.6a.44.44 0 0 1-.44.44 4.14 4.14 0 0 1-3.16-1.64 9.5 9.5 0 0 1-1.72-4.56c-4.08 2.8-11 6.2-16 6.2a.44.44 0 0 1-.44-.44c0-.36.36-.4.6-.4 2.64-.08 5.64-1.28 8.08-2.28a27.76 27.76 0 0 0 4-2.12c.56-.36 1.08-.72 1.6-1.12s1.64-1.52 2.44-1.52a1.06 1.06 0 0 1 1 .52zm-.84-6.28c0-.4.36-.56.72-.56.64 0 1 .84 1 1.4 0 .32-.12.6-.48.6-.6 0-1.24-.95-1.24-1.44z"/><path class="a" d="M511.39 19.44a15.53 15.53 0 0 0 2.36.12.44.44 0 0 1 .44.44.44.44 0 0 1-.44.44 15.47 15.47 0 0 1-2.6-.16c-.8 2.12-3.16 4-5.32 4a2.68 2.68 0 0 1-2.56-3 5.33 5.33 0 0 1 .12-1.12c-2.52 1.72-4.92 3.08-8 3.08-.36 0-1 .08-1-.44a.44.44 0 0 1 .44-.4 15.52 15.52 0 0 0 1.92-.16 12.65 12.65 0 0 0 3.4-1.16 12.46 12.46 0 0 0 3-1.88 7.1 7.1 0 0 0 .8-.76l.36-.56a10 10 0 0 1 1.08-1.48c.72-.88 2-2.16 3.24-2.16s1.6 1 1.6 2a3 3 0 0 1 1.16 2.48 3.43 3.43 0 0 1 0 .72zm-1.44.52a2.77 2.77 0 0 1-2.24-2.6c0-.84.64-1.28 1.56-1.36a.81.81 0 0 0-.68-.44 1.6 1.6 0 0 0-1 .36 8.12 8.12 0 0 0-3 5.56 1.64 1.64 0 0 0 1.68 1.76c1.08 0 3-1.36 3.68-3.28zm.24-.84a2.64 2.64 0 0 0 0-.56c0-.84-.44-1.52-1.12-1.52-.16 0-.24.16-.24.32a1.8 1.8 0 0 0 1.36 1.76z"/><path class="a" d="M528.59 17.84a3.57 3.57 0 0 1 1.44 2.72c0 4.16-5.44 5.32-8.68 5.32-.32 0-1.12-.16-1.12-.6s.64-.52 1-.52a13.79 13.79 0 0 0 3.4-.32 5.33 5.33 0 0 0 3.56-2.12 2.9 2.9 0 0 0 .52-1.72c0-2.12-3.92-4.36-5.32-5.84-2.72 2.52-5.64 5.68-9.64 5.68a.44.44 0 0 1-.44-.44.44.44 0 0 1 .44-.44 5.71 5.71 0 0 0 1.84-.28c2.64-.92 5.2-3.4 7.2-5.32a2.9 2.9 0 0 1-.32-1.28c0-1.48 1.48-3.6 3.08-3.6a1.21 1.21 0 0 1 1.24 1.28c0 1.32-1.56 2.84-2.56 3.6h-.08c1.36 1.4 2.96 2.6 4.44 3.88zm-5-5.12v.4c.48-.44 1.92-1.8 1.92-2.48a.32.32 0 0 0-.36-.36c-.72 0-1.52 1.76-1.52 2.44z"/></svg>