<svg xmlns="http://www.w3.org/2000/svg" viewBox="0 0 58.32 62.84"><defs><linearGradient id="a" x1="366.46" y1="276.6" x2="430.52" y2="340.66" gradientTransform="translate(0 -255.16)" gradientUnits="userSpaceOnUse"><stop offset="0" stop-color="#eac618"/><stop offset="1" stop-color="#e06b21"/></linearGradient></defs><title>p9_s7</title><path d="M411.76 19a23.92 23.92 0 0 1-7.41 1.52c-13.84.68-22.24 10.68-22.63 21.34h-2.63a1.74 1.74 0 0 0-1.74 1.74v8.66h-2.92a1.74 1.74 0 0 0-1.75 1.74v19.58a8.14 8.14 0 0 0 8.13 8.13h42.06a8.14 8.14 0 0 0 8.13-8.13V54a1.74 1.74 0 0 0-1.74-1.74h-2.92v-8.63a1.74 1.74 0 0 0-1.74-1.74h-3a17.18 17.18 0 0 0-5.07-10.69c-5.58-4.78-5.18-6.32-3-9.2a1.75 1.75 0 0 0-1.77-3zm-7.06 5c1.34-.14 2.68-.27 4-.51-.92 3.29.72 6.26 4.06 9s5 6 5.29 9.35h-32.84c.88-10.74 8.52-17.02 19.48-17.84zm-23.87 21.38h42v6.92h-42zm46.67 28.2a4.64 4.64 0 0 1-4.64 4.64H380.8a4.64 4.64 0 0 1-4.64-4.64v-17.8h51.33v17.8z" transform="translate(-372.68 -18.87)" fill="url(#a)"/></svg>