<svg xmlns="http://www.w3.org/2000/svg" viewBox="0 0 53.48 73.17"><defs><style>.a{fill:url(#a)}</style><linearGradient id="a" x1="-338.86" y1="312.09" x2="-257.7" y2="393.24" gradientUnits="userSpaceOnUse"><stop offset="0" stop-color="#e9c51d"/><stop offset="1" stop-color="#e16c26"/></linearGradient></defs><title>p9_s5</title><path class="a" d="M42.96 48.45a9.21 9.21 0 0 1-9.25-8.31 18.33 18.33 0 0 0 6.58-9.43c.05.39.1.79.12 1.19a1.65 1.65 0 0 0 1.16 1.48 1.65 1.65 0 0 0 .49.07 1.65 1.65 0 0 0 1.3-.64 20.46 20.46 0 0 0 4.11-13.24 20.56 20.56 0 0 0-4.74-12.76 14.76 14.76 0 0 0-11.08-5.43h-.95a15 15 0 0 0-6.82-1.39A16.36 16.36 0 0 0 11.4 6.76a23.6 23.6 0 0 0-4.67 15.15 24.23 24.23 0 0 0 .23 2.68 24.45 24.45 0 0 0 2 6.84 1.65 1.65 0 0 0 1.41 1 1.65 1.65 0 0 0 1.51-.79c.2-.33.47-.76.77-1.16l.34-.43a20.25 20.25 0 0 0 4.24 7.86 15.13 15.13 0 0 0 2.57 2.28c-1.38 8.59-9.19 8.3-9.25 8.3A10.91 10.91 0 0 0 .03 59.38v12.17a1.65 1.65 0 0 0 1.65 1.65h50.17a1.65 1.65 0 0 0 1.65-1.65v-12.2a10.91 10.91 0 0 0-10.52-10.89m-32-21.15a21.68 21.68 0 0 1-.68-3.18 20.26 20.26 0 0 1-.2-2.32 20.27 20.27 0 0 1 3.94-13 13.11 13.11 0 0 1 10-5.48 12.15 12.15 0 0 1 5.67 1.25 1.69 1.69 0 0 0 .8.17l1.14-.05a11.51 11.51 0 0 1 8.63 4.28 17.25 17.25 0 0 1 4 10.72 18.05 18.05 0 0 1-1.3 7.42 19 19 0 0 0-1-2.55 17.93 17.93 0 0 0-9.2-9 1.65 1.65 0 0 0-1.3 0 1.65 1.65 0 0 0-.89.94 15.61 15.61 0 0 1-1 2.2 6.53 6.53 0 0 1-6 3.19h-1.06a15.83 15.83 0 0 0-5 1 16 16 0 0 0-4.41 2.54c-.05 0-1.5 1.32-2 1.9m4.8.14A12.65 12.65 0 0 1 18.71 26a12.54 12.54 0 0 1 4-.77h1.22a9.79 9.79 0 0 0 8.65-4.89q.27-.48.51-1a14.66 14.66 0 0 1 5.27 5.26 1.74 1.74 0 0 0 0 .29 18.73 18.73 0 0 1-3.88 10.3 9.79 9.79 0 0 1-7.49 4c-5.1 0-9.61-4.86-11-11.68m7.15 14.32a11.54 11.54 0 0 0 3.85.67 11.56 11.56 0 0 0 3.87-.67 12.45 12.45 0 0 0 6.3 8.51 10.48 10.48 0 0 1-10.16 8 10.48 10.48 0 0 1-10.16-8 12.45 12.45 0 0 0 6.3-8.51m27.3 28.1H3.57V59.35a7.61 7.61 0 0 1 7.6-7.6 12.58 12.58 0 0 0 2.56-.31 13.8 13.8 0 0 0 13 10.11 13.8 13.8 0 0 0 13.28-10.11 14.18 14.18 0 0 0 2.56.31 7.61 7.61 0 0 1 7.6 7.6z"/></svg>