<svg xmlns="http://www.w3.org/2000/svg" viewBox="0 0 50.37 50.37"><defs><style>.a{fill:#3a1a0d}.b{fill:#fff}</style></defs><title>p9_s2</title><path class="a" d="M0 0h50.37v50.37H0z"/><path class="b" d="M36.21 39.84H15.76a.77.77 0 0 1-.77-.77V11.3a.77.77 0 0 1 .77-.77h20.45a.77.77 0 0 1 .77.77v27.76a.77.77 0 0 1-.77.78zm-19.68-1.55h18.9V12.08h-18.9z"/><path class="b" d="M20.73 19.82a2.3 2.3 0 0 1-2.3-2.3 2.3 2.3 0 0 1 2.3-2.3 2.3 2.3 0 0 1 2.3 2.3 2.3 2.3 0 0 1-2.3 2.3zm0-3.06a.75.75 0 0 0-.75.75.75.75 0 0 0 .75.75.75.75 0 0 0 .8-.72.75.75 0 0 0-.8-.77z"/><path class="b" d="M19.2 18.29h-5a.77.77 0 0 1-.77-.77.77.77 0 0 1 .77-.77h5a.77.77 0 0 1 .77.77.77.77 0 0 1-.77.77zm1.53 9.19a2.3 2.3 0 0 1-2.3-2.3 2.3 2.3 0 0 1 2.3-2.3 2.3 2.3 0 0 1 2.3 2.3 2.3 2.3 0 0 1-2.3 2.3zm0-3.06a.75.75 0 0 0-.75.75.75.75 0 0 0 .75.75.75.75 0 0 0 .75-.75.75.75 0 0 0-.75-.74z"/><path class="b" d="M19.2 25.96h-5a.77.77 0 0 1-.77-.77.77.77 0 0 1 .77-.77h5a.77.77 0 0 1 .77.77.77.77 0 0 1-.77.77zm1.53 9.19a2.3 2.3 0 0 1-2.3-2.3 2.3 2.3 0 0 1 2.3-2.3 2.3 2.3 0 0 1 2.3 2.3 2.3 2.3 0 0 1-2.3 2.3zm0-3.06a.75.75 0 0 0-.75.75.75.75 0 0 0 .75.75.75.75 0 0 0 .75-.75.75.75 0 0 0-.75-.75z"/><path class="b" d="M19.2 33.62h-5a.77.77 0 0 1-.77-.77.77.77 0 0 1 .77-.77h5a.77.77 0 0 1 .77.77.77.77 0 0 1-.77.77z"/></svg>