<svg xmlns="http://www.w3.org/2000/svg" viewBox="0 0 342.67 42.06"><title>p9_s3</title><path d="M25.19 20.99a.8.8 0 0 1 .84.78c0 .85-.78 1.23-2.34 1.5.58 9.95 1.5 15 1.5 15.54s-.46.71-1 .71c-1.56 0-1.62-3.71-1.82-5.66l-1-10.14c-3.32.65-13.39 2.15-13.39 2.4-2.67 6-3.83 8.26-5.07 11.44-.39.91-.78 2.15-2.14 2.15-.52 0-.78-.32-.78-.84s3.45-8.19 5.53-12.55c-.58.06-1 .13-1.43.13-1.36 0-1.88-.52-1.88-1 0-1.24 2-.91 4.36-1.43 4.16-9.23 8.13-19 9.95-21.19a3.21 3.21 0 0 1 2.54-1.43c2.92 0 2.79 5.4 3.05 7.8.39 4 .78 6.56 1.37 12l1-.13a2.93 2.93 0 0 1 .71-.08zm-4 .59c-.52-7.09-1.1-11.51-1.62-15.73-.13-1-.46-1.62-1-1.62-1.17 0-5.14 9.43-9.49 19.37 4.68-.71 7.21-1.1 10.79-1.75zM40.76 41.08c0-.65 1-.85 1.5-.85a23.36 23.36 0 0 0 5.59-.58c2.6-.71 4.16-1.23 5.79-3.38a4.73 4.73 0 0 0 .84-2.8c0-3.57-5.92-6.31-8.71-9.56a49.15 49.15 0 0 1-5.58 4.17c-2.08 1.3-6.57 4-9 4-.46 0-1.5-.26-1.5-.91 0-.46 1.56-.65 2-.78 5.07-1.69 9-4.61 13-8.06a4 4 0 0 1-.39-1.69c0-2.41 2.34-6 4.94-6a2 2 0 0 1 2.08 2.15 5.63 5.63 0 0 1-1.56 3.38 22.82 22.82 0 0 1-2.57 2.49l-.13.13c0 .06 0 .06.06.06a37.27 37.27 0 0 0 2.93 2.54c1.43 1.17 2.86 2.34 4.22 3.58a5.85 5.85 0 0 1 2.41 4.61c0 6.24-8.52 8.45-13.52 8.45-.58-.04-2.4-.04-2.4-.95zm5.53-20.09c1.43-1.17 3.19-2.86 3.19-3.77 0-.39-.26-.52-.58-.52-1.37 0-2.6 2.73-2.6 3.84zM97.31 17.74c1.1-4.42 4.94-17.75 10.4-17.75a2.12 2.12 0 0 1 2.14 2.41c0 2.15-1 4.62-1.88 6.56-1.11 2.47-2.6 4.75-3.9 7.15-1.75 3.19-3.31 6.37-5.26 9.43-.33.52-.65 1-1 1.56.39 2.54.58 5 2.54 7a9.24 9.24 0 0 0 6.5 2.47.67.67 0 0 1 .71.65.72.72 0 0 1-.71.71c-5.79 0-9.3-3.25-10.4-8.78-2.54 3.51-6.7 9.62-11.51 9.62a4 4 0 0 1-4.16-4c0-3.9 4.88-7.93 8.71-7.93a4.7 4.7 0 0 1 4.35 3.12c.85-1.11 1.56-2.21 2.34-3.32a36.66 36.66 0 0 1 1.13-8.9zm-5.12 14.11l.06-.06a3 3 0 0 0-3.12-2.86c-2.67 0-6.24 2.73-6.24 5.59a2 2 0 0 0 2.2 2.14c2.99 0 5.33-2.73 7.1-4.81zm9-13.59c1.17-2.08 2.28-4.23 3.38-6.37s3.25-5.53 3.25-7.8c0-.65-.26-1.3-1-1.3-2.92 0-6.24 10.53-7 12.94a45.49 45.49 0 0 0-1.95 8.32z" fill="#3c1604"/><path d="M123.89 25.87a2.25 2.25 0 0 1 .46 1.69c0 2.47.58 5.66 2.28 7.54 1.1 1.23 1.69 1.23 3.25 1.43.32.06.71.26.71.65a.72.72 0 0 1-.71.71c-4.68 0-7-4.81-7.28-8.91a23.2 23.2 0 0 1-8.58 7.28 15.7 15.7 0 0 1-7.28 1.63.72.72 0 0 1-.71-.71.71.71 0 0 1 .71-.65 13.09 13.09 0 0 0 6.44-1.56 20 20 0 0 0 6.89-6.31c.58-.84 1.75-3.19 2.92-3.19a1.18 1.18 0 0 1 .9.4zm-1.24-10.14c0-.65.58-.91 1.17-.91 1 0 1.56 1.37 1.56 2.28 0 .52-.26 1-.78 1-.9-.03-1.94-1.52-1.94-2.37z" fill="#3c1604"/><path d="M129.74 36.53a18.85 18.85 0 0 0 5.72-1 37.67 37.67 0 0 0 9.43-5.72 5.42 5.42 0 0 0 1.1-1c.2-.26.33-.72.52-1a10.67 10.67 0 0 1 2.54-3.12 5 5 0 0 1 2.92-1.17c1 0 3.45.91 3.45 2.08a.34.34 0 0 1-.39.39c-.78 0-1.1-1-2.41-1-2.92 0-5.26 4.94-5.26 7.48s1.63 3.77 4 4c.39.06.71.26.71.72a.67.67 0 0 1-.71.65c-2.73 0-5.59-1.62-6.11-4.42 0-.19-.13-.45-.13-.65a8.78 8.78 0 0 1 .06-1.3c-4.55 3.58-9.55 6.37-15.47 6.37a.67.67 0 0 1-.71-.65.72.72 0 0 1 .74-.66z" fill="#3c1604"/><path d="M184.19 31.59a10.74 10.74 0 0 0 .78 2 5 5 0 0 0 4.42 2.92.71.71 0 0 1 .72.65.72.72 0 0 1-.72.71c-5.79 0-6.69-5.72-8.12-5.72s-3.45 7-9.1 7c-2.21 0-3.58-1.23-3.58-3.44a7.35 7.35 0 0 1 1-3.51c-5 2.34-12.87 5.66-18.27 5.66a.72.72 0 0 1-.71-.71c0-.52.52-.65.91-.65 3.58-.13 9.75-2.27 13.13-3.71a51.39 51.39 0 0 0 7.15-3.31l.06-.06c1.63-1.62 3.51-3 5.92-3a4.59 4.59 0 0 1 4 2.08c1.85-.16 2.04 1.86 2.41 3.09zm-4.68-1.5c-.46-.85-1-1.62-2.08-1.62-2.73 0-6.63 4.35-6.63 7a1.72 1.72 0 0 0 1.82 1.89c2.88-.05 5.42-5.18 6.84-7.26z" fill="#3c1604"/><path d="M220.19 28.99a5.8 5.8 0 0 1 2.34 4.42c0 6.76-8.84 8.65-14.11 8.65-.52 0-1.82-.26-1.82-1s1-.85 1.56-.85a22.44 22.44 0 0 0 5.53-.52c2.6-.65 4.23-1.3 5.79-3.44a4.73 4.73 0 0 0 .84-2.8c0-3.51-6.37-7-8.64-9.49a112.31 112.31 0 0 1-12.09 10.14c-3.64 2.53-5.79 3.77-10.34 3.77a.71.71 0 0 1-.71-.65.72.72 0 0 1 .71-.72 14.63 14.63 0 0 0 7.09-2.21 19 19 0 0 0 2.08-1.37 99.29 99.29 0 0 0 9.55-7.74l2.73-2.6a4.42 4.42 0 0 1-.52-2c0-2.41 2.4-5.85 5-5.85a2 2 0 0 1 2 2.08c0 2.15-2.54 4.62-4.16 5.85-.06 0-.06.06-.13.06 2.3 2.24 4.86 4.19 7.3 6.27zm-8.1-8.33v.19l.07.46c.78-.71 3.19-2.93 3.19-4a.55.55 0 0 0-.59-.58c-1.37-.07-2.67 2.84-2.67 3.93zM273.78 32.5a.72.72 0 0 1-.71.72c-.26 0-1.3 0-2.21.06.39 5.07-6.17 8.39-10.53 8.39-1.82 0-4-.71-4-2.93 0-4.75 8.91-6.17 12.35-6.5v-.06c-1.62-3.31-6.83-5.59-9-8.39a39.33 39.33 0 0 1-5.53 4.29c-2.08 1.3-6.57 4-9 4-.46 0-1.5-.2-1.5-.85s1.56-.71 2-.85a25.7 25.7 0 0 0 5.27-2.4 48.12 48.12 0 0 0 7.8-5.72 4.43 4.43 0 0 1-.46-1.82c0-2.34 2.41-5.79 4.94-5.79a2 2 0 0 1 2.08 2.15c0 2.6-2.54 4.23-4.23 5.72h-.06c2.21 2.47 5.07 4.49 7.61 6.63a6.39 6.39 0 0 1 2 2.73c.65-.06 2.08-.13 2.47-.13a.72.72 0 0 1 .71.75zm-4.81 1c-2.67.26-10.92 1.37-10.92 5 0 1.37 1.23 1.82 2.4 1.82 3.45-.02 8.52-2.36 8.52-6.84zm-5.59-16.25a.53.53 0 0 0-.58-.52c-1.37 0-2.6 2.73-2.6 3.84v.45c.84-.74 3.18-2.63 3.18-3.8z" fill="#3c1604"/><path d="M294.9 31.59a7.83 7.83 0 0 0 .84 2c1 1.69 2.34 2.92 4.36 2.92a.71.71 0 0 1 .71.65.72.72 0 0 1-.71.71c-5.79 0-6.63-5.72-8.12-5.72s-3.45 7-9.1 7c-2.21 0-3.58-1.23-3.58-3.44a7.37 7.37 0 0 1 1.5-4.16 17.1 17.1 0 0 1-7.87 1.63.67.67 0 0 1-.65-.72.67.67 0 0 1 .65-.71 20.75 20.75 0 0 0 9-2.41l1.89-1a6.22 6.22 0 0 0 .78-.58 6.84 6.84 0 0 1 4-1.37 4.48 4.48 0 0 1 4 2.08c1.78-.13 1.98 1.82 2.3 3.12zm-4.62-1.5c-.52-.85-1.1-1.62-2.15-1.62-2.73 0-6.56 4.35-6.56 7a1.72 1.72 0 0 0 1.82 1.89c2.93-.05 5.34-5.25 6.9-7.26zm4.62-11.25c.26 0 .39.2.39.52 0 1.37-2.4 2.6-3.83 2.6-2 0-2.54-1.82-3.77-1.82-1.56 0-3.32 1.88-3.9 1.88-.2 0-.33-.13-.33-.45 0-1.43 2.73-2.86 4.23-2.86 2.27 0 2.73 1.89 3.9 1.89 1.37 0 2.67-1.63 3.25-1.76z" fill="#3c1604"/><path d="M332.28 32.83c0 1.3-2.47 1.17-3.32 1.17a7 7 0 0 1-2.6-.39 9.75 9.75 0 0 1-8.58 6c-2.73 0-4.1-2.54-4.1-5a7.5 7.5 0 0 1 .2-1.69c-4.16 2.86-8 5-13.13 5-.58 0-1.5.13-1.5-.71a.71.71 0 0 1 .71-.65 25.27 25.27 0 0 0 3.12-.26 25.11 25.11 0 0 0 10.47-4.94l1.37-1.23c1.24-2.47 4.49-6.63 7.48-6.63 1.82 0 2.6 1.89 2.6 3.51a4.81 4.81 0 0 1 1.88 4 7.92 7.92 0 0 1-.13 1.23 9.19 9.19 0 0 0 3 .33c.32 0 2.53-.26 2.53.26zm-7.54 0c-1.37-.71-3.9-2.6-3.9-4.29 0-1.37 1.3-2 2.47-2.08a1.06 1.06 0 0 0-1-.71 3.44 3.44 0 0 0-1.5.52c-2.67 1.43-5.07 5.66-5.07 8.71a2.44 2.44 0 0 0 2.6 2.67 7 7 0 0 0 6.4-4.82zm.26-1.75c0-.91-.78-2.93-1.88-2.93-.26 0-.46.33-.46.58 0 1.1 1.69 1.89 2.34 2.54zM339.69 34.91a1.59 1.59 0 0 1 1.75 1.56 1.57 1.57 0 0 1-1.37 1.43 1.88 1.88 0 0 1-2.08-1.75 1.43 1.43 0 0 1 .39-1 3.09 3.09 0 0 1 1.31-.24zm1.24-13.85a1.67 1.67 0 0 1 1.75 1.43 1.57 1.57 0 0 1-1.5 1.56 1.88 1.88 0 0 1-2-1.75 1.43 1.43 0 0 1 .39-1 3.1 3.1 0 0 1 1.35-.24z" fill="#3c1604"/></svg>