<svg xmlns="http://www.w3.org/2000/svg" xmlns:xlink="http://www.w3.org/1999/xlink" viewBox="0 0 65.21 65.21"><defs><style>.a{fill:url(#a)}.b{fill:url(#b)}.c{fill:url(#c)}.d{fill:url(#d)}</style><linearGradient id="a" x1="-236.14" y1="369.68" x2="-187.67" y2="418.15" gradientUnits="userSpaceOnUse"><stop offset="0" stop-color="#e9c51d"/><stop offset="1" stop-color="#e16c26"/></linearGradient><linearGradient id="b" x1="-236.15" y1="369.68" x2="-187.67" y2="418.15" xlink:href="#a"/><linearGradient id="c" x1="-209.1" y1="342.64" x2="-160.63" y2="391.11" xlink:href="#a"/><linearGradient id="d" x1="-209.1" y1="342.64" x2="-160.63" y2="391.11" xlink:href="#a"/></defs><title>p9_s11</title><path class="a" d="M15.9 65.2a2.72 2.72 0 0 1-1-.21l-3.62-1.5a2.75 2.75 0 0 1-1.61-3.18c.19-.77.4-1.56.61-2.35a18.27 18.27 0 0 1-3-3l-2.35.61a2.75 2.75 0 0 1-3.18-1.61l-1.5-3.62a2.75 2.75 0 0 1 1.11-3.39l2.09-1.23a18.25 18.25 0 0 1 0-4.24l-2.09-1.23a2.75 2.75 0 0 1-1.11-3.39l1.5-3.62a2.75 2.75 0 0 1 3.18-1.61l2.35.61a18.21 18.21 0 0 1 3-3c-.21-.79-.42-1.58-.61-2.35a2.75 2.75 0 0 1 1.61-3.18l3.62-1.5a2.75 2.75 0 0 1 3.39 1.11c.41.68.82 1.38 1.23 2.09a18.16 18.16 0 0 1 4.24 0c.41-.71.82-1.41 1.23-2.09a2.75 2.75 0 0 1 3.39-1.11l3.62 1.5a2.75 2.75 0 0 1 1.61 3.18c-.19.77-.4 1.56-.61 2.35a18.28 18.28 0 0 1 3 3l2.35-.61a2.75 2.75 0 0 1 3.18 1.61l1.5 3.62a2.75 2.75 0 0 1-1.11 3.39l-2.09 1.23a18.24 18.24 0 0 1 0 4.24l2.09 1.23a2.75 2.75 0 0 1 1.11 3.39l-1.5 3.62a2.75 2.75 0 0 1-3.18 1.61L36 54.96a18.27 18.27 0 0 1-3 3c.21.79.42 1.58.61 2.35A2.75 2.75 0 0 1 32 63.49l-3.62 1.5a2.75 2.75 0 0 1-3.39-1.11c-.41-.69-.83-1.39-1.23-2.09a18.25 18.25 0 0 1-4.24 0c-.41.71-.82 1.41-1.23 2.09a2.75 2.75 0 0 1-2.35 1.32m-3.39-4.34l3.33 1.38c.39-.65.79-1.33 1.18-2a2.73 2.73 0 0 1 2.64-1.36 15.34 15.34 0 0 0 3.78 0 2.73 2.73 0 0 1 2.7 1.35c.39.67.78 1.35 1.18 2l3.34-1.35c-.18-.74-.38-1.5-.59-2.25a2.73 2.73 0 0 1 1-2.87 15.29 15.29 0 0 0 2.67-2.67 2.73 2.73 0 0 1 2.87-1l2.26.59 1.38-3.33-2-1.18a2.73 2.73 0 0 1-1.35-2.7 15.27 15.27 0 0 0 0-3.78 2.73 2.73 0 0 1 1.35-2.7l2-1.18-1.38-3.33-2.25.59a2.73 2.73 0 0 1-2.87-1 15.29 15.29 0 0 0-2.67-2.67 2.73 2.73 0 0 1-1-2.87c.2-.76.4-1.51.59-2.26l-3.33-1.38c-.39.66-.79 1.33-1.18 2a2.72 2.72 0 0 1-2.7 1.35 15.28 15.28 0 0 0-3.78 0 2.73 2.73 0 0 1-2.7-1.35c-.39-.68-.79-1.35-1.18-2l-3.33 1.38c.19.74.38 1.5.59 2.25a2.72 2.72 0 0 1-1 2.87 15.34 15.34 0 0 0-2.67 2.67 2.73 2.73 0 0 1-2.87 1l-2.25-.59-1.38 3.33 2 1.18a2.72 2.72 0 0 1 1.35 2.7 15.27 15.27 0 0 0 0 3.78 2.73 2.73 0 0 1-1.35 2.7l-2 1.18 1.38 3.33 2.25-.59a2.73 2.73 0 0 1 2.87 1 15.24 15.24 0 0 0 2.67 2.67 2.73 2.73 0 0 1 1 2.87c-.2.75-.4 1.51-.59 2.25"/><path class="b" d="M21.6 53.56a9.93 9.93 0 0 1-3.81-.76 9.88 9.88 0 0 1-5.38-5.38 10 10 0 0 1 5.38-13 10 10 0 0 1 13 5.38 10 10 0 0 1-5.38 13 9.94 9.94 0 0 1-3.81.76m0-17a7 7 0 0 0-2.68.54 7 7 0 0 0-3.8 9.18 7 7 0 0 0 3.8 3.8 7 7 0 0 0 5.38 0 7 7 0 0 0 3.8-9.2 7 7 0 0 0-6.5-4.34"/><path class="c" d="M50.07 33.13h-2.85a2.33 2.33 0 0 1-2.29-2c-.07-.5-.15-1-.22-1.54a13.69 13.69 0 0 1-2.52-1l-1.25.94a2.33 2.33 0 0 1-3-.23l-2-2a2.32 2.32 0 0 1-.23-3l.94-1.25a13.7 13.7 0 0 1-1-2.52l-1.54-.22a2.33 2.33 0 0 1-2-2.29v-2.85a2.33 2.33 0 0 1 2-2.29l1.54-.22a13.47 13.47 0 0 1 1-2.52l-.95-1.26a2.32 2.32 0 0 1 .23-3l2-2a2.32 2.32 0 0 1 3-.23l1.25.94a13.7 13.7 0 0 1 2.52-1c.07-.52.14-1 .22-1.54a2.33 2.33 0 0 1 2.29-2h2.85a2.33 2.33 0 0 1 2.29 2c.07.5.15 1 .22 1.54a13.7 13.7 0 0 1 2.52 1l1.25-.94a2.32 2.32 0 0 1 3 .23l2 2a2.33 2.33 0 0 1 .23 3l-.94 1.25a13.66 13.66 0 0 1 1 2.52l1.54.22a2.33 2.33 0 0 1 2 2.29v2.85a2.33 2.33 0 0 1-2 2.29l-1.54.22a13.7 13.7 0 0 1-1 2.52l.94 1.25a2.32 2.32 0 0 1-.23 3l-2 2a2.32 2.32 0 0 1-3 .23l-1.25-.94a13.51 13.51 0 0 1-2.52 1c-.07.52-.14 1-.22 1.54a2.33 2.33 0 0 1-2.29 2m-2.45-2.77h2.09c.07-.46.13-.92.19-1.39a2.31 2.31 0 0 1 1.68-1.93 10.77 10.77 0 0 0 2.46-1 2.31 2.31 0 0 1 2.55.18l1.12.85 1.45-1.45-.85-1.12a2.3 2.3 0 0 1-.18-2.55 10.8 10.8 0 0 0 1-2.46 2.31 2.31 0 0 1 1.93-1.68l1.39-.19v-2.05l-1.39-.19a2.31 2.31 0 0 1-1.93-1.68 10.77 10.77 0 0 0-1-2.46 2.31 2.31 0 0 1 .18-2.55l.85-1.12-1.45-1.48-1.12.85a2.31 2.31 0 0 1-2.55.18 10.79 10.79 0 0 0-2.46-1 2.31 2.31 0 0 1-1.68-1.93c-.06-.47-.12-.93-.19-1.39h-2.05c-.07.46-.13.92-.19 1.39a2.31 2.31 0 0 1-1.68 1.93 10.79 10.79 0 0 0-2.46 1 2.3 2.3 0 0 1-2.55-.18l-1.12-.85-1.45 1.45.85 1.12a2.3 2.3 0 0 1 .18 2.55 10.8 10.8 0 0 0-1 2.46 2.31 2.31 0 0 1-1.93 1.68l-1.39.19v2.05l1.39.19a2.31 2.31 0 0 1 1.93 1.68 10.76 10.76 0 0 0 1 2.46 2.31 2.31 0 0 1-.18 2.55l-.85 1.12 1.45 1.45 1.12-.85a2.3 2.3 0 0 1 2.55-.18 10.82 10.82 0 0 0 2.46 1 2.31 2.31 0 0 1 1.68 1.93c.06.47.12.93.19 1.39"/><path class="d" d="M48.64 22.47a5.92 5.92 0 0 1-5.91-5.91 5.92 5.92 0 0 1 5.91-5.91 5.92 5.92 0 0 1 5.91 5.91 5.92 5.92 0 0 1-5.91 5.91m0-9.19a3.29 3.29 0 0 0-3.28 3.28 3.29 3.29 0 0 0 3.28 3.28 3.29 3.29 0 0 0 3.28-3.28 3.29 3.29 0 0 0-3.28-3.28"/></svg>