<svg xmlns="http://www.w3.org/2000/svg" viewBox="0 0 835.63 41.67"><title>p9_s4</title><path d="M30.1 32.5a.72.72 0 0 1-.71.72c-.26 0-1.3 0-2.21.06.38 5.07-6.18 8.38-10.52 8.38-1.82 0-4-.71-4-2.93 0-4.75 8.91-6.17 12.35-6.5v-.06c-1.63-3.31-6.83-5.59-9-8.39a39.27 39.27 0 0 1-5.54 4.34c-2.08 1.3-6.57 4-9 4-.46 0-1.5-.2-1.5-.85s1.56-.71 2-.85a25.7 25.7 0 0 0 5.27-2.4 48.08 48.08 0 0 0 7.8-5.72 4.43 4.43 0 0 1-.46-1.82c0-2.34 2.41-5.79 4.94-5.79a2 2 0 0 1 2.08 2.15c0 2.6-2.54 4.23-4.23 5.72h-.08c2.21 2.47 5.07 4.49 7.6 6.63a6.39 6.39 0 0 1 2 2.73c.65-.06 2.08-.13 2.47-.13a.72.72 0 0 1 .74.71zm-4.81 1c-2.63.23-10.92 1.34-10.92 4.98 0 1.37 1.23 1.82 2.41 1.82 3.44 0 8.51-2.34 8.51-6.83zm-5.63-16.28a.53.53 0 0 0-.58-.52c-1.36 0-2.6 2.73-2.6 3.84v.45c.88-.71 3.18-2.6 3.18-3.77z" fill="#fff"/><path d="M46.15 26.26c0 3.06-6.89 5.14-9.1 5.92l-.13.06v.39c0 2.54 1.88 3.64 4.16 3.9.32.06.71.26.71.65a.72.72 0 0 1-.71.71 6.1 6.1 0 0 1-6.11-4.49c-.06-.19 0-.65-.13-.78a31.93 31.93 0 0 1-5.53.58.72.72 0 0 1-.71-.72.72.72 0 0 1 .71-.71 23.6 23.6 0 0 0 5.66-.65c.71-3.51 3.58-7.8 7.6-7.8 1.7.01 3.58.99 3.58 2.94zm-2.67-.06c0-.65-.71-.84-1.3-.84-2.6 0-4.55 3.06-5.07 5.33 1.55-.34 6.38-2.68 6.38-4.5z" fill="#fff"/><path d="M86.97 27.62c0 .26-.26.33-.46.33a21.23 21.23 0 0 1-2.15-.33 15.34 15.34 0 0 0-2.47-.13c-4.94 0-8.65 2-12.16 5.33a32.67 32.67 0 0 0-3.25 4c-.52.65-1.5 2-2.47 2-2.27 0-1.62-7.48-1.89-9-.06-.26-.13-.65-.52-.65a1.93 1.93 0 0 0-1 .46 100.78 100.78 0 0 1-9.17 5.53 19.64 19.64 0 0 1-10.47 2.67.72.72 0 0 1-.72-.71.71.71 0 0 1 .72-.65 18.37 18.37 0 0 0 5.59-1c4.54-1.35 9.48-4.6 13.32-7.35a4.51 4.51 0 0 1 2.47-1.1c1.82 0 1.75 3 1.75 4.23v4.23c0 .33 0 .91.46.91.26 0 1.69-1.82 1.89-2a39.22 39.22 0 0 1 3.64-3.71A19.58 19.58 0 0 1 82.66 26c1 0 4.31.12 4.31 1.62zM127.14 31.2a6.21 6.21 0 0 0 5.14 5.2c.52.13 1.82 0 1.82.78a.72.72 0 0 1-.71.71 8.84 8.84 0 0 1-8.91-7.54 11.76 11.76 0 0 1-1.17 2.41c-1.82 3.19-4.62 6.83-8.65 6.83-3.51 0-5.07-2.79-5.07-5.92 0-1.69 1-8.32 3.12-8.32a1.08 1.08 0 0 1 1.17 1.1c0 1.5-2.15 4.16-2.15 7.15 0 2.21.78 4 3.25 4a3.83 3.83 0 0 0 2.21-.65c3.19-2.15 4.29-5.4 5.92-8.65.39-.84 1.3-2.15 2.41-2.15 1.95.04 1.43 3.75 1.62 5.05z" fill="#fff"/><path d="M179.79 28.79c1.37 2.15 1.37 6.44 3.84 7.48a5.07 5.07 0 0 0 1.36.26c.33.06.65.26.65.65a.71.71 0 0 1-.65.71c-6.56 0-5.27-7.74-7.48-7.74-.58 0-1 .58-1.37 1-1.17 1.56-3.38 4.88-4.75 6a2.78 2.78 0 0 1-1.75.65 2.14 2.14 0 0 1-2.08-1.56c-.78-2-1.23-4-2-5.85-.19-.46-.46-1.17-1-1.17-1.82 0-5.53 8.78-8.58 8.78a2.13 2.13 0 0 1-2-2.34c0-2.21 1.17-4.62 1.17-6.83a1.3 1.3 0 0 0-1.3-1.43c-4 0-11.57 10.4-18.85 10.4-.65 0-2.47.39-2.47-.71a.71.71 0 0 1 .72-.65 16.67 16.67 0 0 0 10.14-3.9c2.28-1.69 6.37-5.66 8.71-6.63a5.33 5.33 0 0 1 2-.46c2 0 3.06 1.56 3.06 3.38 0 2-1.3 4.42-1.3 6.37 0 .32 0 .78.39.78 1.5 0 5.72-9.1 8.84-9.1 3.45 0 2.93 8.39 4.94 8.39 1 0 4.29-5.14 5-6a3.77 3.77 0 0 1 2.8-1.69 2.38 2.38 0 0 1 1.96 1.21z" fill="#fff"/><path d="M216.97 35.49c0 1.63-3.38 2.41-4.68 2.41-5.85 0-6.7-5.72-8.13-5.72-1.62 0-3.51 7-9.17 7a3.26 3.26 0 0 1-3.58-3.51v-.33c-2.08 1.5-3.64 2.54-6.31 2.54-.52 0-1-.06-1-.71a.71.71 0 0 1 .72-.65c2.93 0 5.33-2.08 7.48-3.9 1.56-2.86 5-6.18 8.45-6.18a4.41 4.41 0 0 1 4 2.08 1.79 1.79 0 0 1 1.82 1.1 11.17 11.17 0 0 1 .58 2c.71 2.54 2.27 4.94 5.2 4.94 2 0 4-1.5 4.29-1.5s.33.17.33.43zm-14.56-5.37c-.52-.85-1-1.62-2.15-1.62-2.67 0-6.57 4.35-6.57 7a1.72 1.72 0 0 0 1.82 1.89c2.94-.08 5.34-5.27 6.9-7.27zM249.86 25.67c0 .26-.19.33-.39.33-.71 0-1-1-2.47-1-2.86 0-5.27 4.94-5.27 7.41s1.76 3.84 4.1 4.1c.39.06.65.2.65.65a.67.67 0 0 1-.65.71c-3.06 0-6.24-2.15-6.24-5.46s3.06-8.91 6.76-8.91c1.1.03 3.51.87 3.51 2.17z" fill="#fff"/><path d="M278.2 31.59a25.3 25.3 0 0 0 3.84.19.72.72 0 0 1 .71.71.72.72 0 0 1-.71.72 25.16 25.16 0 0 1-4.23-.26c-1.3 3.45-5.13 6.57-8.65 6.57-2.73 0-4.16-2.34-4.16-4.81a8.83 8.83 0 0 1 .58-3.12c-5.79 2.54-13.59 6.31-19.76 6.31a.67.67 0 0 1-.65-.71.7.7 0 0 1 .65-.65 20.6 20.6 0 0 0 5.59-1 75.59 75.59 0 0 0 15.25-6.23 25.6 25.6 0 0 1 1.89-2.53c1.17-1.43 3.31-3.51 5.27-3.51s2.6 1.63 2.6 3.25a4.81 4.81 0 0 1 1.88 4 5.6 5.6 0 0 1-.1 1.07zm-2.34.84c-2-.65-3.64-1.88-3.64-4.23 0-1.36 1-2.08 2.54-2.21a1.32 1.32 0 0 0-1.11-.71 2.59 2.59 0 0 0-1.62.58c-2.47 1.75-4.94 6-4.94 9a2.66 2.66 0 0 0 2.73 2.86c1.84.04 4.93-2.17 6.04-5.29zm.39-1.36c0-.26.06-.58.06-.91 0-1.37-.72-2.47-1.82-2.47-.26 0-.39.26-.39.52a2.93 2.93 0 0 0 2.15 2.86z" fill="#fff"/><path d="M309.98 30.48c.84 2.73 1.23 6 4.88 6a.71.71 0 0 1 .71.65.72.72 0 0 1-.71.71c-7.15 0-6-8.58-8.19-8.58-1.82 0-5.52 8.78-8.58 8.78-1.37 0-1.89-1.23-1.89-2.4 0-2.15 1.1-4.49 1.1-6.44 0-.84-.19-1.69-1.17-1.69-2.54 0-7.35 5.66-14.17 5.66a.72.72 0 0 1-.72-.72.72.72 0 0 1 .72-.71 13.92 13.92 0 0 0 5.07-1.3c2.53-1.24 6.63-4.94 9.17-4.94 2 0 3.06 1.56 3.06 3.38 0 2-1.3 4.42-1.3 6.37 0 .32 0 .78.39.78 1.43 0 5.85-9.17 8.84-9.17 1.75.05 2.4 2.32 2.79 3.62z" fill="#fff"/><path d="M337.66 41.66c-1.89 0-4.1-.65-4.1-2.86a4.52 4.52 0 0 1 1.82-3.32c2.47-2.15 7.15-2.79 10.34-3.25-1.56-3.31-6.24-5.59-8.58-8.32a100.44 100.44 0 0 1-12.08 10.21c-3.58 2.53-5.72 3.77-10.27 3.77a.73.73 0 0 1-.78-.65.72.72 0 0 1 .72-.72 14.63 14.63 0 0 0 7.09-2.21c5.33-3.06 9.95-7.54 14.43-11.7a3.56 3.56 0 0 1-.58-1.82c0-2.54 2.27-6 5-6a2 2 0 0 1 2 2.08c0 2.15-2.54 4.62-4.1 5.85-.06 0-.06.06-.13.06 2.34 2.21 4.81 4.1 7.21 6.24a7.58 7.58 0 0 1 2.08 2.92c.65-.06 2.08-.13 2.47-.13a.72.72 0 0 1 .72.71.72.72 0 0 1-.72.72c-.26 0-1.17 0-2.08.06.47 4.82-6.22 8.36-10.46 8.36zm8.39-7.74v-.39c-2.73.26-10.79 1.37-10.79 5.07 0 1.3 1.3 1.69 2.41 1.69 3.32.01 8.39-2.53 8.39-6.36zm-8.39-13.32a2.44 2.44 0 0 0 .06.71c.78-.71 3.12-2.93 3.12-4a.55.55 0 0 0-.58-.58c-1.35-.03-2.6 2.77-2.6 3.87z" fill="#fff"/><path d="M368.48 36.98c3.19-2.15 4.35-5.33 6-8.65.46-.91 1.3-2.15 2.41-2.15 2 0 1.43 3.64 1.63 5a6.28 6.28 0 0 0 5.2 5.2c.52.13 1.76 0 1.76.78a.72.72 0 0 1-.72.71 8.84 8.84 0 0 1-8.91-7.54 10.29 10.29 0 0 1-1.19 2.43c-1.89 3.19-4.62 6.83-8.71 6.83-3.38 0-5-2.86-5-5.92a20.59 20.59 0 0 1 1.3-5.59 27.8 27.8 0 0 1-7.48 4.35 12 12 0 0 1-4.55.78.72.72 0 0 1-.72-.72.71.71 0 0 1 .65-.71 11.42 11.42 0 0 0 3.25-.58 17.24 17.24 0 0 0 3.83-1.82c1.17-.65 5.66-4 6.7-4a1.3 1.3 0 0 1 1.3 1.43c0 1.75-2.41 4.23-2.41 7.41a3.21 3.21 0 0 0 3.38 3.51 3.94 3.94 0 0 0 2.28-.75z" fill="#fff"/><path d="M402.35 7.54c1.1-1.36 3.19-3.38 5.07-3.38 2.08 0 2.86 2.41 2.86 4.1 0 4.62-4.42 12.87-7.22 16.51l-1.4 1.75c-.65.91-1.24 1.89-2 2.73 1.5 3.58 4.1 7.28 8.39 7.28a.71.71 0 0 1 .72.65.72.72 0 0 1-.72.71c-4.62 0-7.93-2.93-9.82-7-4.16 4.68-7.35 7-13.78 7a.71.71 0 0 1-.65-.71.7.7 0 0 1 .65-.65 14.51 14.51 0 0 0 5.52-.91c2.8-1.17 5.72-4 7.54-6.44a21.37 21.37 0 0 1-1-6c.15-5.24 2.65-11.61 5.84-15.64zm3.19 10.14c1.24-2.21 3-6.24 3-8.71 0-1.1-.46-2.27-1.75-2.27a2.52 2.52 0 0 0-1.5.58c-4 2.86-6.63 11.25-6.63 15.93a16.65 16.65 0 0 0 .46 4 84.75 84.75 0 0 0 6.41-9.53z" fill="#fff"/><path d="M431.4 20.28c0 1.63-4.55 1.69-5.66 1.75v.06a2.7 2.7 0 0 1-.26.65 23.82 23.82 0 0 0-2.14 8.38 5 5 0 0 0 1.56 4 6.38 6.38 0 0 0 3.58 1.36c.32.06.71.26.71.65a.72.72 0 0 1-.71.71 6.33 6.33 0 0 1-6.63-6.57 21.42 21.42 0 0 1 .52-4.1c-2.34 4.1-9.29 10.66-14.3 10.66a.72.72 0 0 1-.72-.71c0-.39.39-.59.72-.65a14.22 14.22 0 0 0 6.59-3.19 28.82 28.82 0 0 0 8.36-11.16c-1 .06-2 .13-3.05.13-.58 0-2-.2-2-1 0-1.3 4.81-1.17 5.92-1.17.32-.85 1.43-4.23 2.54-4.23.84 0 1 1.43 1 2a9.22 9.22 0 0 1-.71 2.15 23.52 23.52 0 0 1 3.71 0c.23.02.97-.18.97.28z" fill="#fff"/><path d="M455.39 31.59a25.28 25.28 0 0 0 3.83.19.72.72 0 0 1 .71.71.72.72 0 0 1-.71.72 25.16 25.16 0 0 1-4.22-.26c-1.3 3.45-5.13 6.57-8.65 6.57-2.73 0-4.16-2.34-4.16-4.81a8.68 8.68 0 0 1 .2-1.82c-4.09 2.8-8 5-13.07 5-.59 0-1.56.13-1.56-.71a.71.71 0 0 1 .71-.65 25.28 25.28 0 0 0 3.12-.26 20.59 20.59 0 0 0 5.53-1.89 20.27 20.27 0 0 0 4.94-3.06 11.69 11.69 0 0 0 1.3-1.2l.58-.91a16.29 16.29 0 0 1 1.76-2.4c1.17-1.43 3.31-3.51 5.26-3.51s2.6 1.63 2.6 3.25a4.81 4.81 0 0 1 1.88 4 5.64 5.64 0 0 1-.05 1.04zm-2.34.84c-2-.65-3.64-1.88-3.64-4.23 0-1.36 1-2.08 2.54-2.21a1.32 1.32 0 0 0-1.11-.71 2.59 2.59 0 0 0-1.62.58c-2.47 1.75-4.94 6-4.94 9a2.66 2.66 0 0 0 2.73 2.86c1.81.04 4.93-2.17 6.04-5.29zm.39-1.36a4.27 4.27 0 0 0 .07-.91c0-1.37-.71-2.47-1.82-2.47-.26 0-.39.26-.39.52a2.93 2.93 0 0 0 2.14 2.86z" fill="#fff"/><path d="M483.27 36.53a.71.71 0 0 1 .65.72.7.7 0 0 1-.65.65c-3.31 0-7-1.62-7-5.46 0-2.67 1.82-5.52 1.82-8.12 0-1.89-2-2.41-3.25-3.19a2.93 2.93 0 0 1-.26.46c-2.21 3.71-7 9.17-11.05 10.85a13.56 13.56 0 0 1-4.29.78.74.74 0 0 1-.78-.72.72.72 0 0 1 .71-.71 11 11 0 0 0 3.25-.52 10.62 10.62 0 0 0 4.42-2.86 30.68 30.68 0 0 0 6.31-8.19c-1.5-.78-3.18-1.89-3.18-3.83a2.87 2.87 0 0 1 2.92-2.67 3.21 3.21 0 0 1 3.12 3.32 6.7 6.7 0 0 1-.39 2.27c2.21 1 4.42 2.15 4.42 4.88s-1.3 5.14-1.82 7.8a2.23 2.23 0 0 0-.06.65c-.03 2.48 2.9 3.89 5.11 3.89zm-9.42-18.14c0-.19.19-1 .19-1.43s-.26-1.3-1-1.3a1.05 1.05 0 0 0-1 1c-.01.69 1.22 1.41 1.8 1.73z" fill="#fff"/><path d="M515.25 35.49c0 1.63-3.38 2.41-4.68 2.41-5.85 0-6.7-5.72-8.12-5.72-1.62 0-3.51 7-9.17 7a3.26 3.26 0 0 1-3.62-3.5v-.33c-2.08 1.5-3.64 2.54-6.31 2.54-.52 0-1-.06-1-.71a.71.71 0 0 1 .71-.65c2.93 0 5.33-2.08 7.47-3.9 1.56-2.86 5-6.18 8.45-6.18a4.41 4.41 0 0 1 4 2.08 1.79 1.79 0 0 1 1.82 1.1 11.21 11.21 0 0 1 .58 2c.71 2.54 2.27 4.94 5.2 4.94 2 0 4-1.5 4.29-1.5s.38.16.38.42zm-14.59-5.37c-.52-.85-1-1.62-2.14-1.62-2.67 0-6.57 4.35-6.57 7a1.72 1.72 0 0 0 1.82 1.89c2.95-.08 5.36-5.27 6.89-7.27zM555.09 17.74c1.11-4.42 4.94-17.75 10.4-17.75a2.12 2.12 0 0 1 2.14 2.41c0 2.15-1 4.62-1.88 6.56-1.1 2.47-2.6 4.75-3.9 7.15-1.75 3.19-3.31 6.37-5.26 9.43-.33.52-.65 1-1 1.56.39 2.54.58 5 2.54 7a9.24 9.24 0 0 0 6.5 2.47.67.67 0 0 1 .71.65.72.72 0 0 1-.71.71c-5.79 0-9.29-3.25-10.4-8.78-2.54 3.51-6.7 9.62-11.51 9.62a4 4 0 0 1-4.16-4c0-3.9 4.88-7.93 8.71-7.93a4.7 4.7 0 0 1 4.36 3.12c.84-1.11 1.56-2.21 2.34-3.32a36.66 36.66 0 0 1 1.12-8.9zm-5.07 14.11l.07-.06a3 3 0 0 0-3.12-2.86c-2.67 0-6.24 2.73-6.24 5.59a2 2 0 0 0 2.14 2.15c2.99-.01 5.33-2.74 7.15-4.82zm8.91-13.59c1.17-2.08 2.27-4.23 3.38-6.37s3.25-5.53 3.25-7.8c0-.65-.26-1.3-1-1.3-2.93 0-6.24 10.53-7 12.94a45.57 45.57 0 0 0-2 8.32z" fill="#fff"/><path d="M586.16 37.63a12.34 12.34 0 0 1-2.67.26c-2.47 0-5.39-1.5-6-4-4.16 2.08-8.19 4-12.94 4a.72.72 0 0 1-.71-.71.71.71 0 0 1 .71-.65 19.2 19.2 0 0 0 5.72-1 53.35 53.35 0 0 0 7-3.31c.33-3.38 2.21-6.89 5.4-8.39a4.51 4.51 0 0 1 2.27-.52c1.69 0 3.58 1 3.58 2.86a3.31 3.31 0 0 1-.39 1.37 4.53 4.53 0 0 1-1.69 1.43c-.85.52-1.69.91-2.54 1.36-1.5.85-3 1.76-4.55 2.54 0 2.15 2.21 3.64 4.22 3.64a9.76 9.76 0 0 0 6.09-1.74 15.62 15.62 0 0 1 1.43-1c.26 0 .33.13.33.39.01 2.04-3.7 3.15-5.26 3.47zm-6.7-6.56c1-.46 5.65-3.19 6.24-3.9a1.2 1.2 0 0 0 .32-.78c0-.78-.84-1-1.5-1-2.65-.04-4.66 3.34-5.05 5.68zM642.71 32.5a.72.72 0 0 1-.71.72c-.26 0-1.3 0-2.21.06.39 5.07-6.18 8.39-10.53 8.39-1.82 0-4-.71-4-2.93 0-4.75 8.91-6.17 12.35-6.5v-.06c-1.62-3.31-6.82-5.59-9-8.39a39.32 39.32 0 0 1-5.53 4.33c-2.08 1.3-6.57 4-9 4-.46 0-1.5-.2-1.5-.85s1.56-.71 2-.85a25.69 25.69 0 0 0 5.26-2.4 48 48 0 0 0 7.8-5.72 4.43 4.43 0 0 1-.46-1.82c0-2.34 2.41-5.79 4.94-5.79a2 2 0 0 1 2.08 2.15c0 2.6-2.54 4.23-4.23 5.72h-.07c2.21 2.47 5.07 4.49 7.61 6.63a6.4 6.4 0 0 1 2 2.73c.65-.06 2.08-.13 2.47-.13a.72.72 0 0 1 .73.71zm-4.81 1c-2.67.26-10.92 1.37-10.92 5 0 1.37 1.24 1.82 2.41 1.82 3.44-.02 8.51-2.36 8.51-6.85zm-5.59-16.25a.53.53 0 0 0-.58-.52c-1.37 0-2.6 2.73-2.6 3.84v.45c.84-.74 3.18-2.63 3.18-3.8z" fill="#fff"/><path d="M660.2 36.98c3.19-2.15 4.36-5.33 6-8.65.46-.91 1.3-2.15 2.41-2.15 2 0 1.43 3.64 1.63 5a6.28 6.28 0 0 0 5.2 5.2c.52.13 1.76 0 1.76.78a.72.72 0 0 1-.72.71 8.85 8.85 0 0 1-8.91-7.54 10.29 10.29 0 0 1-1.17 2.41c-1.88 3.19-4.62 6.83-8.71 6.83-3.38 0-5-2.86-5-5.92a20.6 20.6 0 0 1 1.3-5.59 27.79 27.79 0 0 1-7.47 4.35 12 12 0 0 1-4.55.78.72.72 0 0 1-.71-.72.71.71 0 0 1 .65-.71 11.42 11.42 0 0 0 3.25-.58 17.25 17.25 0 0 0 3.83-1.82c1.17-.65 5.66-4 6.7-4a1.3 1.3 0 0 1 1.3 1.43c0 1.75-2.4 4.23-2.4 7.41a3.21 3.21 0 0 0 3.38 3.51 3.94 3.94 0 0 0 2.23-.73z" fill="#fff"/><path d="M676.31 36.53a18.85 18.85 0 0 0 5.72-1 37.66 37.66 0 0 0 9.42-5.72 5.37 5.37 0 0 0 1.1-1c.2-.26.33-.72.52-1a10.69 10.69 0 0 1 2.54-3.12 5 5 0 0 1 2.92-1.17c1 0 3.45.91 3.45 2.08a.34.34 0 0 1-.39.39c-.78 0-1.1-1-2.4-1-2.93 0-5.27 4.94-5.27 7.48s1.63 3.77 4 4c.39.06.71.26.71.72a.67.67 0 0 1-.71.65c-2.73 0-5.59-1.62-6.11-4.42 0-.19-.13-.45-.13-.65a8.78 8.78 0 0 1 .06-1.3c-4.55 3.58-9.56 6.37-15.47 6.37a.67.67 0 0 1-.71-.65.72.72 0 0 1 .75-.66z" fill="#fff"/><path d="M729.29 26.19c0 2.86-6.43 5.79-8.78 6.76l-.39.13c.26 2.27 2.08 3.19 4.16 3.44.32.06.71.26.71.65a.72.72 0 0 1-.71.71c-2.54 0-5.4-1.5-6-4.1-6.11 2.21-13.91 4.1-20.35 4.1a.72.72 0 0 1-.72-.71.71.71 0 0 1 .72-.65 43.93 43.93 0 0 0 8.25-.91c2.47-.45 4.88-1.17 7.28-1.82 1.17-.39 2.6-.65 3.77-1.17l.85-.39c.32-3.9 3.31-8.91 7.67-8.91 1.65.01 3.54.99 3.54 2.87zm-2.54.33a1.22 1.22 0 0 0-1.36-1.17c-2.8 0-4.81 3.51-5.2 6 1.47-.74 6.56-2.88 6.56-4.83z" fill="#fff"/><path d="M771.02 38.8a4.6 4.6 0 0 1 1.88-3.32c2.47-2.15 7.22-2.73 10.4-3.19-1.49-3.25-6.3-5.72-8.64-8.39a44.64 44.64 0 0 1-11 7.54 5.36 5.36 0 0 1 .52 1.89c.32 5.07-6.18 8.32-10.53 8.32-1.82 0-4-.71-4-2.93 0-4.35 7.47-6.37 11.12-7.8-2.08-2.47-6-5-7.54-7l-.06.06c-3.51 3.14-7.18 6.44-11.27 8.71-5.39 3-11.37 5.2-17.62 5.2a.67.67 0 0 1-.65-.71.7.7 0 0 1 .65-.65 22.19 22.19 0 0 0 5.85-.71 41.72 41.72 0 0 0 7.8-2.93 61.6 61.6 0 0 0 11.57-7.67l2.73-2.6a4.42 4.42 0 0 1-.52-2c0-2.41 2.4-5.85 5-5.85a2 2 0 0 1 2 2.08c0 2.73-2.67 4.23-4.22 5.92 2.21 2.47 4.88 4.29 7.41 6.44l.84.85a38.16 38.16 0 0 0 10.92-7.38 4.68 4.68 0 0 1-.52-2.08c0-2.41 2.41-5.85 5-5.85a2 2 0 0 1 2 2.08c0 2.15-2.54 4.62-4.16 5.85-.07 0-.07.06-.13.06 2.28 2.21 4.88 4.16 7.28 6.24a7.13 7.13 0 0 1 2.08 2.92c.65-.06 2.08-.13 2.47-.13a.72.72 0 0 1 .71.71.72.72 0 0 1-.71.72c-.26 0-1.3 0-2.21.06.71 5.14-6.11 8.39-10.34 8.39-1.84.01-4.11-.64-4.11-2.85zm-9.29-6.5c-3.25 1.23-10.34 3.51-10.34 6.18 0 1.37 1.24 1.82 2.41 1.82 3.31 0 8.38-2.6 8.38-6.44a3.57 3.57 0 0 0-.46-1.56zm-8-11.7a2.42 2.42 0 0 0 .07.71c.78-.71 3.12-2.93 3.12-4a.55.55 0 0 0-.58-.58c-1.38-.03-2.61 2.77-2.61 3.87zm29.93 13.39v-.39c-2.73.26-10.86 1.3-10.86 5 0 1.3 1.3 1.69 2.4 1.69 3.29.01 8.46-2.53 8.46-6.3zm-8.52-13.33v.19l.06.46c.78-.71 3.12-2.93 3.12-4a.52.52 0 0 0-.59-.58c-1.32-.03-2.61 2.83-2.61 3.94z" fill="#fff"/><path d="M815.22 32.82c0 1.1-1.82 1.17-2.6 1.17a9.44 9.44 0 0 1-3.31-.32 9.59 9.59 0 0 1-8.52 5.92c-2.86 0-4.16-2.47-4.16-5a10.07 10.07 0 0 1 .91-3.9 20.4 20.4 0 0 1-9.95 2.54.67.67 0 0 1-.65-.72.65.65 0 0 1 .71-.71c4.1 0 7.93-1.75 11.44-3.77 1.24-1.82 3.83-4.49 6.17-4.49 1.88 0 2.67 1.82 2.67 3.45a4.9 4.9 0 0 1 1.88 4 7.92 7.92 0 0 1-.13 1.23 8.84 8.84 0 0 0 2.93.39c.52 0 1-.13 1.56-.13.2.02 1.05.08 1.05.34zm-7.54 0c-1.24-.39-3.9-2.86-3.9-4.29a2.22 2.22 0 0 1 2.47-2c-.2-.39-.46-.78-1-.78a4.1 4.1 0 0 0-1.49.52c-2.73 1.5-5.07 5.66-5.07 8.78a2.39 2.39 0 0 0 2.54 2.67 7.13 7.13 0 0 0 6.43-4.9zm.26-1.75c0-.91-.78-2.93-1.89-2.93-.33 0-.46.33-.46.58 0 1.17 1.69 1.89 2.34 2.54zM822.11 35.42a1.92 1.92 0 0 1 2.08 1.7 1.72 1.72 0 0 1-1.5 1.63 2.44 2.44 0 0 1-2.28-2 1 1 0 0 1 .78-1 1.22 1.22 0 0 1 .92-.33zm12.35-20.93c-1.56 2.67-5.13 3.25-7.28 5.4-2.08 2-2.4 5.46-3.05 7.93-.26.52-.58.91-.91.91s-.52-.46-.52-.91a12.32 12.32 0 0 1 .39-3.06 8.1 8.1 0 0 1 2.4-5.85c2.79-2.73 7.93-3.64 7.93-8.71 0-2.54-1.82-4.62-5-4.62a8.06 8.06 0 0 0-5 1.95 1.18 1.18 0 0 1-.91.39.94.94 0 0 1-.91-1 1.29 1.29 0 0 1 .33-.91 8.84 8.84 0 0 1 6.31-2.47 9.75 9.75 0 0 1 1.43.13c4.55 1 6 3.25 6 7a8 8 0 0 1-1.21 3.82z" fill="#fff"/></svg>