<svg xmlns="http://www.w3.org/2000/svg" xmlns:xlink="http://www.w3.org/1999/xlink" viewBox="0 0 74.75 79.31"><defs><style>.a{fill:url(#a)}.b{fill:url(#b)}</style><linearGradient id="a" x1="-84.24" y1="135.07" x2="-2.65" y2="215.93" gradientTransform="translate(0 179.37)" gradientUnits="userSpaceOnUse"><stop offset="0" stop-color="#e9c51d"/><stop offset="1" stop-color="#e16c26"/></linearGradient><linearGradient id="b" x1="-74.39" y1="125.12" x2="7.2" y2="205.99" xlink:href="#a"/></defs><title>p9_s9</title><path class="a" d="M38.85 9.77a1.82 1.82 0 0 0-1.3-.55 1.82 1.82 0 0 0-1.31.54L9.03 37.63a1.82 1.82 0 0 0-.52 1.27v38.59a1.82 1.82 0 0 0 1.8 1.77h18.56a1.82 1.82 0 0 0 1.82-1.82V57.57H44.2v19.91a1.82 1.82 0 0 0 1.85 1.78h18.56a1.82 1.82 0 0 0 1.82-1.82V38.89a1.81 1.81 0 0 0-.51-1.27zm23.94 65.9H47.87V55.76a1.82 1.82 0 0 0-1.82-1.82H28.9a1.82 1.82 0 0 0-1.82 1.82v19.91H12.16v-36l25.39-26 25.25 26z"/><path class="b" d="M74.24 36.83L38.72.55a1.83 1.83 0 0 0-1.3-.55 1.82 1.82 0 0 0-1.3.56L17.84 19.5V7.26a1.82 1.82 0 0 0-1.82-1.82 1.82 1.82 0 0 0-1.83 1.82v16L.51 37.46a1.82 1.82 0 0 0 .05 2.57 1.82 1.82 0 0 0 2.57-.05L37.42 4.43l34.21 34.94a1.82 1.82 0 0 0 2.57 0 1.82 1.82 0 0 0 .04-2.54z"/></svg>