<?xml version="1.0" standalone="no"?>
<!DOCTYPE svg PUBLIC "-//W3C//DTD SVG 1.1//EN" "http://www.w3.org/Graphics/SVG/1.1/DTD/svg11.dtd" >
<svg xmlns="http://www.w3.org/2000/svg">
<metadata></metadata>
<defs>
<font id="naturasanslight" horiz-adv-x="1210" >
<font-face units-per-em="2048" ascent="1577" descent="-471" />
<missing-glyph horiz-adv-x="450" />
<glyph unicode="&#xfb01;" horiz-adv-x="909" d="M37 973q0 12 9 20t22 8h120q0 132 29.5 234.5t72.5 159.5t99 93.5t101.5 48t87.5 11.5q104 0 163 -26q31 -14 31 -39q0 -18 -10.5 -27.5t-26.5 -9.5q-19 0 -55 16q-51 23 -107 23q-290 0 -290 -379v-105h217q30 0 30 -28q0 -29 -30 -29h-217v-903q0 -19 -13.5 -30 t-33.5 -11q-21 0 -34.5 10.5t-13.5 30.5v903h-120q-14 0 -22.5 8t-8.5 21zM651 41v938q0 20 13 30.5t34 10.5q20 0 33.5 -11t13.5 -30v-938q0 -20 -13 -30.5t-34 -10.5q-20 0 -33.5 11t-13.5 30z" />
<glyph unicode="&#xfb02;" horiz-adv-x="946" d="M37 973q0 12 9 20t22 8h120q0 132 29.5 234.5t72.5 159.5t99 93.5t101.5 48t87.5 11.5q78 0 133 -16q16 8 28 8q19 0 31 -10.5t12 -30.5v-1458q0 -20 -13 -30.5t-34 -10.5q-20 0 -33.5 11t-13.5 30v1417q-4 0 -8 4q-51 23 -107 23q-290 0 -290 -379v-105h217q30 0 30 -28 q0 -29 -30 -29h-217v-903q0 -19 -13.5 -30t-33.5 -11q-21 0 -34.5 10.5t-13.5 30.5v903h-120q-14 0 -22.5 8t-8.5 21z" />
<glyph horiz-adv-x="0" />
<glyph horiz-adv-x="682" />
<glyph unicode=" "  horiz-adv-x="450" />
<glyph unicode="&#x09;" horiz-adv-x="450" />
<glyph unicode="&#xa0;" horiz-adv-x="450" />
<glyph unicode="!" horiz-adv-x="503" d="M184 49q0 24 18 42t50 18q33 0 50 -18t17 -42q0 -26 -17 -43.5t-50 -17.5q-32 0 -50 18t-18 43zM203 1405q0 23 13.5 36t35.5 13q49 0 49 -49q0 -68 -4 -174l-16 -799q0 -12 -8.5 -20.5t-20.5 -8.5q-13 0 -21 8.5t-8 20.5l-16 795q-4 106 -4 178z" />
<glyph unicode="&#x22;" horiz-adv-x="555" d="M104 1407q0 22 13.5 34.5t34.5 12.5q47 0 47 -47q0 -40 -6 -115l-15 -221q0 -12 -7 -20.5t-19 -8.5q-27 0 -27 29l-14 221q-7 88 -7 115zM356 1407q0 23 13 35t34 12q48 0 48 -47q0 -27 -7 -115l-14 -221q0 -12 -7.5 -20.5t-19.5 -8.5q-26 0 -26 29l-15 221q-6 75 -6 115 z" />
<glyph unicode="#" horiz-adv-x="1357" d="M66 483q0 29 30 29h252l68 430h-240q-14 0 -22.5 8t-8.5 21q0 12 9 20t22 8h250l63 410q7 45 48 45q43 0 43 -35q0 -5 -5 -30l-61 -390h416l63 410q7 45 47 45q43 0 43 -35q0 -10 -4 -30l-61 -390h244q30 0 30 -28q0 -29 -30 -29h-252l-68 -430h240q30 0 30 -29 q0 -12 -8.5 -20t-21.5 -8h-250l-64 -410q-7 -45 -47 -45q-43 0 -43 35q0 11 4 31l62 389h-416l-63 -410q-7 -45 -48 -45q-43 0 -43 35q0 6 5 31l61 389h-244q-30 0 -30 28zM438 512h414l68 430h-414z" />
<glyph unicode="$" horiz-adv-x="1144" d="M94 231q0 16 11.5 27.5t29.5 11.5q28 0 51 -34q118 -162 387 -162q59 0 115 12t107 38t89 63t60.5 91t22.5 119q0 75 -34.5 129t-124 98t-239.5 72q-108 20 -184 47t-137.5 69t-92 105t-30.5 148q0 166 119.5 264.5t312.5 106.5v190q0 15 10 24t25 9t25 -9t10 -24v-190 q118 -5 220.5 -44t153.5 -104q13 -18 13 -37q0 -18 -10.5 -28.5t-28.5 -10.5q-26 0 -45 29q-53 79 -139.5 110t-204.5 31q-152 0 -238 -51q-145 -87 -145 -244q0 -44 11.5 -81t29.5 -64t50 -49.5t62.5 -38t77.5 -29.5t85 -23t95 -20q226 -46 331.5 -136.5t105.5 -242.5 q0 -157 -122 -266t-323 -119v-184q0 -33 -35 -33q-34 0 -34 33v184q-146 6 -255.5 52.5t-168.5 119.5q-19 22 -19 41z" />
<glyph unicode="%" horiz-adv-x="1611" d="M72 1096q0 165 93 267.5t236 102.5q149 0 239.5 -93t90.5 -261q0 -166 -92 -267.5t-238 -101.5q-150 0 -239.5 92t-89.5 261zM162 1096q0 -149 65.5 -227t173.5 -78q110 0 175 87t65 234q0 151 -65.5 229t-174.5 78q-110 0 -174.5 -88t-64.5 -235zM246 8q0 14 12 31 l1014 1391q19 24 39 24q17 0 29 -10.5t12 -22.5t-13 -30l-1013 -1391q-17 -25 -39 -25q-17 0 -29 10.5t-12 22.5zM881 342q0 166 91.5 267.5t237.5 101.5q147 0 238.5 -92.5t91.5 -260.5q0 -165 -93.5 -267.5t-236.5 -102.5q-151 0 -240 92.5t-89 261.5zM971 342 q0 -151 65 -229t174 -78q110 0 175 88t65 235q0 149 -66 227.5t-174 78.5q-110 0 -174.5 -87.5t-64.5 -234.5z" />
<glyph unicode="&#x26;" horiz-adv-x="1388" d="M135 373q0 243 314 389q-121 135 -165 217.5t-44 175.5q0 137 118 228.5t291 91.5q66 0 131.5 -16t123.5 -48t94 -88t36 -127q0 -49 -9.5 -88.5t-35.5 -85t-80 -90t-135 -86.5q-24 -12 -54 -26t-73.5 -33.5t-71.5 -32.5l482 -514q84 121 84 286q0 19 -4 43q-2 16 -2 23 q0 18 10.5 29.5t30.5 11.5q51 0 51 -92q0 -83 -29.5 -181.5t-89.5 -175.5l115 -123q16 -19 16 -32q0 -11 -8.5 -20t-26.5 -9q-26 0 -55 33l-96 98q-83 -77 -204 -116.5t-237 -39.5q-232 0 -354.5 108t-122.5 290zM240 387q0 -91 30.5 -162t83.5 -113t119 -63.5t141 -21.5 q116 0 219 41t173 114l-519 539q-247 -114 -247 -334zM340 1163q0 -86 42 -167.5t155 -202.5q110 51 204 104q65 36 107.5 74.5t61.5 78.5t25.5 72.5t6.5 73.5q0 100 -77.5 163.5t-215.5 63.5q-133 0 -221 -69.5t-88 -190.5z" />
<glyph unicode="'" horiz-adv-x="303" d="M104 1407q0 22 13.5 34.5t34.5 12.5q47 0 47 -47q0 -40 -6 -115l-15 -221q0 -12 -7 -20.5t-19 -8.5q-27 0 -27 29l-14 221q-7 88 -7 115z" />
<glyph unicode="(" horiz-adv-x="518" d="M123 627q0 267 70.5 504t191.5 417q21 29 43 29q10 0 19.5 -7t9.5 -18t-8 -24q-115 -188 -169.5 -408t-54.5 -493t54.5 -493t169.5 -408q8 -13 8 -25q0 -11 -9.5 -18t-19.5 -7q-22 0 -43 29q-262 352 -262 922z" />
<glyph unicode=")" horiz-adv-x="518" d="M61 -299q0 10 9 25q115 188 169 408t54 493t-54 493t-169 408q-9 15 -9 24q0 11 9.5 18t19.5 7q22 0 43 -29q262 -352 262 -921q0 -267 -70.5 -504.5t-191.5 -417.5q-21 -29 -43 -29q-10 0 -19.5 7t-9.5 18z" />
<glyph unicode="*" horiz-adv-x="667" d="M49 1257q0 15 10.5 26t30.5 11q12 0 50.5 -17t89 -40.5t79.5 -32.5l6 4q0 39 -9 127t-9 105q0 15 10 25t27 10t27 -10t10 -25q0 -17 -9.5 -105t-9.5 -127l6 -4q29 9 79.5 32.5t89.5 40.5t51 17q20 0 30 -11t10 -26q0 -23 -28 -34q-19 -7 -103.5 -25.5t-117.5 -28.5l-2 -6 q20 -26 77.5 -90.5t67.5 -81.5q10 -15 10 -28q0 -14 -11 -22.5t-24 -8.5q-17 0 -28 14t-54.5 90t-66.5 107h-8q-23 -31 -66.5 -107t-54.5 -90t-29 -14q-13 0 -24 8.5t-11 22.5q0 11 11 28q10 17 67.5 81.5t77.5 90.5l-2 6q-33 10 -117.5 28.5t-103.5 25.5q-29 11 -29 34z " />
<glyph unicode="+" horiz-adv-x="1157" d="M102 668q0 12 9 21t22 9h414v394q0 13 8.5 21.5t22.5 8.5q12 0 21 -8.5t9 -21.5v-394h416q14 0 22.5 -8.5t8.5 -21.5q0 -12 -9 -21.5t-22 -9.5h-416v-395q0 -14 -8.5 -22.5t-21.5 -8.5q-12 0 -21.5 9t-9.5 22v395h-414q-13 0 -22 8.5t-9 22.5z" />
<glyph unicode="," horiz-adv-x="323" d="M104 -254q0 1 7 57q10 75 10 201q0 12 -1 32t-1 27q0 46 43 46t43 -46q0 -143 -51 -319q-6 -25 -27 -25q-23 0 -23 27z" />
<glyph unicode="-" horiz-adv-x="929" d="M102 586q0 12 9 21t22 9h664q13 0 21.5 -8t8.5 -22q0 -12 -8.5 -21.5t-21.5 -9.5h-664q-13 0 -22 8.5t-9 22.5z" />
<glyph unicode="." horiz-adv-x="323" d="M94 49q0 24 18 42t50 18q33 0 50 -18t17 -42q0 -26 -17 -43.5t-50 -17.5q-32 0 -50 18t-18 43z" />
<glyph unicode="/" horiz-adv-x="610" d="M-72 -197q0 10 6 25l625 1688q9 24 37 24q14 0 24.5 -8t10.5 -21q0 -9 -6 -24l-625 -1688q-9 -24 -37 -24q-14 0 -24.5 7.5t-10.5 20.5z" />
<glyph unicode="0" horiz-adv-x="1404" d="M111 715q0 216 74 389.5t209.5 272t307.5 98.5q270 0 431 -197.5t161 -542.5q0 -215 -75 -388.5t-210.5 -272.5t-306.5 -99q-271 0 -431 197.5t-160 542.5zM221 715q0 -330 126.5 -506t354.5 -176q220 0 351 190.5t131 511.5q0 335 -127 508.5t-355 173.5 q-222 0 -351.5 -187.5t-129.5 -514.5z" />
<glyph unicode="1" horiz-adv-x="585" d="M25 1370q0 12 8.5 20.5t19.5 8.5q88 4 209 37q52 14 66 14q49 0 49 -51v-1354q0 -45 -47 -45q-22 0 -34.5 12.5t-12.5 32.5v1341q-33 -14 -100 -29.5t-122 -15.5q-36 0 -36 29z" />
<glyph unicode="2" horiz-adv-x="1153" d="M74 63q0 31 28 66q58 75 185 198.5t256 233.5q74 63 104.5 90t86 78t78 77.5t56 70.5t46.5 77.5t23.5 76t10.5 87.5q0 143 -87.5 222t-264.5 79q-253 0 -379 -180q-21 -33 -47 -33q-17 0 -27 10t-10 25q0 19 17 43q63 86 182 138.5t262 52.5q215 0 338 -95.5t123 -259.5 q0 -56 -14 -108t-45.5 -103t-66 -93.5t-93.5 -97t-108 -96t-128 -106.5q-7 -5 -10 -8q-120 -99 -254.5 -226.5t-179.5 -185.5v-6h864q18 0 28.5 -10.5t10.5 -28.5q0 -19 -11 -31t-28 -12h-907q-39 0 -39 55z" />
<glyph unicode="3" d="M78 197q0 15 12 25.5t31 10.5q28 0 55 -36q123 -166 381 -166q197 0 316.5 102t119.5 264q0 44 -8 83.5t-35.5 87.5t-72 83t-125.5 60t-189 28l-80 2q-13 0 -21.5 8.5t-8.5 22.5q0 12 8.5 21.5t21.5 9.5h92q377 0 377 311q0 139 -91 222t-263 83q-242 0 -358 -166 q-20 -32 -47 -32q-17 0 -27 9.5t-10 24.5q0 21 16 43q65 82 178 129.5t246 47.5q211 0 337 -106t126 -263q0 -52 -19.5 -103.5t-57 -97t-100 -79t-141.5 -44.5v-6q70 -8 133 -35t114.5 -71t81.5 -111t30 -147q0 -193 -154 -315t-391 -122q-158 0 -277.5 47.5t-181.5 129.5 q-18 24 -18 45z" />
<glyph unicode="4" horiz-adv-x="1220" d="M57 403q0 22 17 50q59 92 209 292q174 233 508 656q25 31 43 42t45 11q38 0 51.5 -18t13.5 -50v-950h193q34 0 34 -35q0 -15 -9.5 -25.5t-24.5 -10.5h-193v-320q0 -45 -47 -45q-22 0 -34.5 12.5t-12.5 32.5v320h-744q-25 0 -37 11t-12 27zM139 436h711v572q0 275 8 385 h-4q-60 -95 -211 -291l-317 -406q-104 -135 -187 -254v-6z" />
<glyph unicode="5" horiz-adv-x="1181" d="M78 197q0 15 12 25.5t31 10.5q28 0 55 -36q123 -166 381 -166q199 0 317.5 111.5t118.5 293.5q0 178 -102 283.5t-291 105.5q-101 0 -182.5 -25t-167.5 -89q-26 -19 -47 -19q-40 0 -35 51l68 652q4 51 59 51h713q18 0 28.5 -10.5t10.5 -28.5q0 -19 -11 -31t-28 -12h-705 l-70 -600h3q136 121 368 121q234 0 365 -121.5t131 -327.5q0 -198 -154.5 -329.5t-390.5 -131.5q-158 0 -277.5 47.5t-181.5 129.5q-18 24 -18 45z" />
<glyph unicode="6" horiz-adv-x="1269" d="M111 737q0 121 25 231t76 202.5t122 160.5t169 106t212 38q122 0 228.5 -41t164.5 -117q14 -20 14 -39t-11 -30t-30 -11q-29 0 -49 31q-58 87 -134.5 119t-186.5 32q-100 0 -183 -36t-141 -100t-98 -153t-59 -193t-19 -222q0 -95 2 -154h6q33 119 105.5 200.5 t164.5 117.5t201 36q223 0 356.5 -128.5t133.5 -327.5q0 -142 -71.5 -253.5t-190 -171t-261.5 -59.5q-175 0 -294.5 85.5t-182.5 236.5q-69 166 -69 440zM258 426q0 -127 68 -227q55 -80 139.5 -125t185.5 -45q189 0 305.5 119.5t116.5 297.5q0 191 -101.5 300.5 t-291.5 109.5q-233 0 -356 -190q-66 -104 -66 -240z" />
<glyph unicode="7" horiz-adv-x="1040" d="M25 1403q0 19 10.5 31t27.5 12h908q45 0 45 -39q0 -15 -19 -47q-429 -659 -610 -1325q-10 -41 -51 -41q-47 0 -47 43q0 25 12 61q55 180 125 350t159 334t162.5 285.5t182.5 290.5v6h-867q-38 0 -38 39z" />
<glyph unicode="8" horiz-adv-x="1275" d="M90 385q0 131 103.5 243t273.5 136v8q-130 27 -211.5 113t-81.5 209q0 162 133.5 271.5t337.5 109.5q214 0 342.5 -100.5t128.5 -270.5q0 -119 -81 -209t-212 -119v-8q176 -34 269.5 -135t93.5 -240q0 -129 -72.5 -225t-196.5 -144.5t-282 -48.5q-253 0 -399 107.5 t-146 302.5zM197 387q0 -93 34 -163.5t95 -112t138.5 -62t170.5 -20.5q92 0 170.5 21.5t140.5 64.5t97.5 114.5t35.5 163.5q0 160 -117.5 252t-320.5 92t-323.5 -95t-120.5 -255zM276 1096q0 -99 51 -169.5t132 -103t182 -32.5q76 0 142.5 19t118.5 56t82 98t30 140 q0 87 -32 151t-86.5 99t-117 51t-133.5 16q-70 0 -134 -19t-117.5 -57t-85.5 -102.5t-32 -146.5z" />
<glyph unicode="9" horiz-adv-x="1265" d="M94 991q0 212 147.5 348t364.5 136q180 0 301.5 -86t184.5 -238t63 -438q0 -121 -25 -231t-76 -202.5t-122 -160.5t-169 -106t-212 -38q-121 0 -227.5 43.5t-165.5 120.5q-15 21 -15 39q0 19 11 30t30 11q29 0 49 -31q58 -87 136.5 -122t185.5 -35q100 0 183 36 t141.5 100t99 153t59.5 193t19 222q0 95 -2 154h-6q-49 -177 -175 -265.5t-294 -88.5q-223 0 -354.5 128.5t-131.5 327.5zM199 1004q0 -191 100.5 -300.5t290.5 -109.5q191 0 305.5 123t114.5 307q0 133 -68 233q-54 78 -140.5 121t-189.5 43q-188 0 -300.5 -119 t-112.5 -298z" />
<glyph unicode=":" horiz-adv-x="421" d="M143 49q0 24 18 42t50 18q33 0 50.5 -18t17.5 -42q0 -25 -17.5 -43t-50.5 -18q-32 0 -50 18t-18 43zM143 743q0 24 18 42t50 18q33 0 50.5 -18t17.5 -42q0 -25 -17.5 -43t-50.5 -18q-32 0 -50 18t-18 43z" />
<glyph unicode=";" horiz-adv-x="421" d="M143 743q0 24 18 42t50 18q33 0 50.5 -18t17.5 -42q0 -25 -17.5 -43t-50.5 -18q-32 0 -50 18t-18 43zM154 -254q0 9 6 57q10 75 10 201q0 12 -1 32t-1 27q0 46 43 46t43 -46q0 -143 -51 -319q-6 -25 -27 -25q-22 0 -22 27z" />
<glyph unicode="&#x3c;" horiz-adv-x="735" d="M41 592q0 18 18 33l512 415q16 13 33 13q12 0 20.5 -8t8.5 -19q0 -15 -17 -29l-503 -403l505 -410q15 -12 15 -26q0 -10 -8 -18.5t-21 -8.5q-18 0 -33 12l-512 416q-18 15 -18 33z" />
<glyph unicode="=" horiz-adv-x="1095" d="M102 483q0 12 9 21.5t22 9.5h830q13 0 21.5 -8.5t8.5 -22.5q0 -12 -8.5 -21t-21.5 -9h-830q-14 0 -22.5 8.5t-8.5 21.5zM102 852q0 12 9 21.5t22 9.5h830q13 0 21.5 -8.5t8.5 -22.5q0 -12 -8.5 -21.5t-21.5 -9.5h-830q-13 0 -22 8.5t-9 22.5z" />
<glyph unicode="&#x3e;" horiz-adv-x="735" d="M102 158q0 14 17 28l504 404l-506 409q-15 12 -15 27q0 10 8 18.5t21 8.5q17 0 33 -13l512 -415q18 -15 18 -33t-18 -33l-512 -416q-15 -12 -33 -12q-12 0 -20.5 8t-8.5 19z" />
<glyph unicode="?" horiz-adv-x="1013" d="M49 1241q0 19 17 43q62 85 179 138t244 53q202 0 326.5 -94t124.5 -261q0 -78 -35.5 -148.5t-95 -129t-154.5 -127.5q-98 -71 -132.5 -127.5t-37.5 -153.5q0 -33 -26 -33q-24 0 -27 29q-2 16 -2 35q0 95 39 165.5t133 143.5q134 102 185 177t51 179q0 136 -94.5 212.5 t-254.5 76.5q-105 0 -199.5 -45.5t-156.5 -134.5q-21 -33 -47 -33q-17 0 -27 10t-10 25zM393 49q0 24 18 42t50 18q33 0 50 -18t17 -42q0 -26 -17 -43.5t-50 -17.5q-32 0 -50 18t-18 43z" />
<glyph unicode="@" horiz-adv-x="1787" d="M164 573q0 160 59 305t159.5 248.5t238.5 164.5t290 61q206 0 367.5 -84.5t253.5 -243t92 -365.5q0 -70 -19.5 -139t-55.5 -128.5t-95.5 -96.5t-132.5 -37q-76 0 -131 41.5t-68 128.5h-8q-30 -80 -101.5 -130t-181.5 -50q-136 0 -220.5 89t-84.5 238q0 158 93.5 256.5 t236.5 98.5q47 0 91.5 -12.5t89.5 -48t67 -91.5h8l2 101q0 34 41 34q17 0 31 -9t14 -25l-8 -381q-3 -203 137 -203q55 0 97 34t65.5 89.5t35 116.5t11.5 124q0 290 -173.5 462.5t-453.5 172.5q-136 0 -257 -54.5t-208.5 -149t-138.5 -229t-51 -288.5q0 -156 46.5 -284 t130 -214t199.5 -132.5t253 -46.5q127 0 225.5 22t185.5 80q18 12 33 12q10 0 18.5 -6t8.5 -18q0 -15 -21 -29q-169 -119 -450 -119q-156 0 -289.5 52.5t-228.5 147t-149 232.5t-54 303zM623 584q0 -135 59.5 -212t165.5 -77q117 0 189.5 83t72.5 218q0 137 -66 212t-190 75 q-101 0 -166 -84t-65 -215z" />
<glyph unicode="A" horiz-adv-x="1300" d="M25 29q0 15 8 34q112 269 302 707.5t283 636.5q8 17 15.5 26.5t24.5 17t42 7.5q54 0 74 -51l494 -1337q8 -19 8 -37q0 -19 -13.5 -30t-35.5 -11q-18 0 -34 9.5t-22 25.5l-159 442h-725q-39 -93 -72 -177.5t-61 -159.5t-41 -107q-13 -33 -45 -33q-43 0 -43 37zM313 530 h678l-309 861h-8q-51 -129 -96 -232z" />
<glyph unicode="B" horiz-adv-x="1329" d="M197 55v1307q0 33 19 55.5t54 26.5q78 10 246 10q109 0 196 -8.5t169 -31.5t136 -61t87 -100t33 -145q0 -129 -86 -218.5t-246 -103.5v-8q195 -9 298 -111t103 -253q0 -276 -256 -367q-106 -39 -364 -39h-340q-28 0 -38.5 12t-10.5 35zM295 66h291q244 0 340 38 q180 72 180 306q0 178 -115.5 256.5t-392.5 78.5h-303v-679zM295 803h258q95 0 167.5 8.5t134 30t100.5 56.5t61 88.5t22 125.5q0 55 -16.5 98.5t-42.5 73t-68.5 50.5t-85 33t-101.5 19t-108.5 9t-115.5 2q-98 0 -205 -8v-586z" />
<glyph unicode="C" horiz-adv-x="1398" d="M94 725q0 339 187 544.5t483 205.5q193 0 329.5 -63t198.5 -159q13 -19 13 -36q0 -18 -13 -30.5t-35 -12.5q-29 0 -57 43q-64 92 -166 146t-270 54q-259 0 -409 -189.5t-150 -502.5q0 -316 149.5 -504t401.5 -188q88 0 160.5 17t126 49.5t91.5 67t74 81.5q29 39 54 39 q18 0 27 -10t9 -25q0 -14 -14 -35q-31 -46 -74.5 -85.5t-107 -76.5t-152.5 -58.5t-194 -21.5q-305 0 -483.5 199.5t-178.5 550.5z" />
<glyph unicode="D" horiz-adv-x="1456" d="M197 55v1307q0 33 19 55.5t54 26.5q92 10 334 10q382 0 570 -190.5t188 -538.5q0 -337 -208 -527t-593 -190h-315q-28 0 -38.5 12t-10.5 35zM295 66h274q341 0 511.5 168t170.5 491q0 439 -274 594q-139 78 -387 78q-199 0 -295 -8v-1323z" />
<glyph unicode="E" horiz-adv-x="1243" d="M197 55v1309q0 40 25.5 61t68.5 21h811q13 0 22 -9.5t9 -21.5q0 -13 -8.5 -22t-22.5 -9h-807v-589h700q13 0 22 -8.5t9 -22.5q0 -12 -9 -21.5t-22 -9.5h-700v-663h829q15 0 24 -8.5t9 -22.5q0 -12 -10 -21.5t-23 -9.5h-878q-28 0 -38.5 12t-10.5 35z" />
<glyph unicode="F" horiz-adv-x="1114" d="M197 45v1319q0 40 25.5 61t68.5 21h760q13 0 21.5 -9.5t8.5 -21.5q0 -14 -8.5 -22.5t-21.5 -8.5h-756v-604h600q14 0 22.5 -8.5t8.5 -21.5q0 -12 -9 -21.5t-22 -9.5h-600v-674q0 -20 -13.5 -32.5t-35.5 -12.5q-23 0 -36 12t-13 33z" />
<glyph unicode="G" horiz-adv-x="1505" d="M94 725q0 226 89 397.5t244.5 262t354.5 90.5q188 0 326.5 -70t204.5 -166q12 -18 12 -35q0 -15 -11.5 -28t-31.5 -13q-29 0 -53 39q-55 91 -167 153t-280 62q-265 0 -421 -189t-156 -503q0 -318 152 -505t405 -187q255 0 391.5 143.5t140.5 421.5v14h-387q-30 0 -30 29 q0 12 8.5 20.5t21.5 8.5h449q20 0 29.5 -11t9.5 -26v-8q0 -313 -167.5 -481.5t-465.5 -168.5q-306 0 -487 199t-181 551z" />
<glyph unicode="H" horiz-adv-x="1480" d="M197 45v1364q0 20 13.5 32.5t35.5 12.5q23 0 36 -12t13 -33v-629h891v629q0 20 13.5 32.5t35.5 12.5q23 0 36 -12t13 -33v-1364q0 -20 -13.5 -32.5t-35.5 -12.5q-23 0 -36 12t-13 33v674h-891v-674q0 -20 -13.5 -32.5t-35.5 -12.5q-23 0 -36 12t-13 33z" />
<glyph unicode="I" horiz-adv-x="491" d="M197 45v1364q0 20 13.5 32.5t35.5 12.5q23 0 36 -12t13 -33v-1364q0 -20 -13.5 -32.5t-35.5 -12.5q-23 0 -36 12t-13 33z" />
<glyph unicode="J" horiz-adv-x="1089" d="M37 207q0 16 11.5 27.5t29.5 11.5q31 0 55 -37q60 -89 136 -130.5t200 -41.5q166 0 262 97.5t96 283.5v991q0 20 14 32.5t36 12.5q23 0 36 -12t13 -33v-983q0 -94 -28 -173.5t-83 -141t-144 -96.5t-204 -35q-142 0 -250.5 52t-163.5 132q-16 21 -16 43z" />
<glyph unicode="K" horiz-adv-x="1288" d="M197 45v1364q0 20 13.5 32.5t35.5 12.5q23 0 36 -12t13 -33v-651h6q506 409 782 667q32 29 56 29q15 0 27 -9.5t12 -25.5q0 -18 -21 -39q-51 -52 -308.5 -258.5t-467.5 -369.5l821 -674q19 -16 19 -37q0 -41 -47 -41q-32 0 -80 41l-793 664h-6v-660q0 -20 -13.5 -32.5 t-35.5 -12.5q-23 0 -36 12t-13 33z" />
<glyph unicode="L" horiz-adv-x="1134" d="M197 55v1354q0 20 13.5 32.5t35.5 12.5q23 0 36 -12t13 -33v-1339h741q15 0 24 -8.5t9 -22.5q0 -12 -10 -21.5t-23 -9.5h-790q-28 0 -38.5 12t-10.5 35z" />
<glyph unicode="M" horiz-adv-x="1742" d="M197 45v1350q0 28 20 43.5t51 15.5q33 0 50 -11.5t34 -35.5q35 -50 218 -406.5t309 -611.5h4q8 15 66 130.5t143.5 285t154.5 301.5q103 201 148 293q12 27 30 41t50 14q71 0 71 -57v-1352q0 -21 -13 -33t-36 -12q-22 0 -35.5 12.5t-13.5 32.5v1317h-6 q-74 -171 -131 -279q-211 -419 -389 -747q-20 -39 -66 -39q-40 0 -57 33q-64 120 -220 426.5t-221 427.5q-75 143 -90 178h-6q8 -120 8 -293v-1024q0 -45 -37 -45q-36 0 -36 45z" />
<glyph unicode="N" horiz-adv-x="1519" d="M197 45v1354q0 28 20 41.5t51 13.5q28 0 44.5 -9.5t33.5 -31.5q34 -39 296.5 -420t477.5 -702q93 -141 129 -197h6q-6 126 -6 271v1044q0 45 37 45t37 -45v-1354q0 -55 -66 -55q-61 0 -94 51q-195 296 -774 1129q-104 154 -121 188h-6q8 -117 8 -278v-1045q0 -45 -37 -45 q-36 0 -36 45z" />
<glyph unicode="O" horiz-adv-x="1564" d="M94 725q0 226 89 397.5t244.5 262t354.5 90.5q150 0 276 -51t217.5 -145.5t143 -236.5t51.5 -317q0 -170 -52.5 -311.5t-144 -237t-218 -148.5t-273.5 -53q-151 0 -277.5 51t-217.5 145.5t-142 236.5t-51 317zM205 725q0 -320 155 -506t422 -186q263 0 420.5 189 t157.5 503q0 318 -157 505t-421 187q-265 0 -421 -189t-156 -503z" />
<glyph unicode="P" horiz-adv-x="1251" d="M197 45v1315q0 33 19 55.5t54 26.5q102 12 336 12q127 0 228.5 -23.5t178.5 -72t119 -130t42 -190.5q0 -428 -582 -428h-297v-565q0 -20 -13.5 -32.5t-35.5 -12.5q-23 0 -36 12t-13 33zM295 668h309q234 0 350.5 88.5t116.5 279.5q0 82 -24 145t-64.5 103.5t-100.5 66 t-127 36t-149 10.5q-186 0 -311 -11v-718z" />
<glyph unicode="Q" horiz-adv-x="1564" d="M94 725q0 226 89 397.5t244.5 262t354.5 90.5q150 0 276 -51t217.5 -145.5t143 -236.5t51.5 -317q0 -214 -80 -379t-220 -257t-320 -105v-7l504 -184q51 -19 51 -47q0 -45 -51 -45q-31 0 -72 18l-551 258q-289 18 -463 215.5t-174 532.5zM205 725q0 -320 155 -506 t422 -186q263 0 420.5 189t157.5 503q0 318 -157 505t-421 187q-265 0 -421 -189t-156 -503z" />
<glyph unicode="R" horiz-adv-x="1335" d="M197 45v1315q0 33 19 55.5t54 26.5q102 12 320 12q606 0 606 -391q0 -358 -405 -412q170 -261 397 -573q16 -22 16 -39q0 -39 -53 -39q-30 0 -53 33q-146 206 -393 612q-20 -2 -62 -2q-217 0 -348 2v-600q0 -20 -13.5 -32.5t-35.5 -12.5q-23 0 -36 12t-13 33zM295 705 q146 -5 348 -5q222 0 337.5 86t115.5 275q0 94 -40 161.5t-111.5 104.5t-156 53.5t-188.5 16.5q-180 0 -305 -11v-681z" />
<glyph unicode="S" horiz-adv-x="1216" d="M90 205q0 15 12.5 26t30.5 11q28 0 55 -37q129 -174 416 -174q80 0 154 21.5t134.5 62.5t97 108.5t36.5 151.5q0 59 -20.5 105.5t-68.5 87.5t-131.5 72.5t-205.5 53.5q-116 21 -197.5 48.5t-148 72t-99 110.5t-32.5 156q0 183 140 288.5t358 105.5q140 0 262 -41.5 t180 -116.5q14 -20 14 -39q0 -41 -41 -41q-29 0 -49 31q-57 86 -149.5 118.5t-221.5 32.5q-153 0 -254 -59q-155 -91 -155 -260q0 -47 12.5 -85.5t31.5 -66.5t53.5 -52t66 -39.5t83.5 -30.5t91 -24t102 -22q243 -48 357 -142.5t114 -254.5q0 -173 -142.5 -290.5 t-373.5 -117.5q-171 0 -301 51t-192 134q-19 25 -19 45z" />
<glyph unicode="T" horiz-adv-x="1122" d="M0 1415q0 12 9 21.5t22 9.5h1061q13 0 21.5 -9.5t8.5 -21.5q0 -14 -8.5 -22.5t-21.5 -8.5h-484v-1339q0 -20 -13.5 -32.5t-35.5 -12.5q-23 0 -36 12t-13 33v1339h-479q-13 0 -22 9t-9 22z" />
<glyph unicode="U" horiz-adv-x="1435" d="M164 567v842q0 20 13.5 32.5t35.5 12.5q23 0 36 -12t13 -33v-862q0 -111 25.5 -201.5t78.5 -162t143 -111t212 -39.5q210 0 337.5 131t127.5 371v878q0 20 12 30.5t31 10.5q43 0 43 -41v-872q0 -111 -32.5 -210t-96.5 -180t-172.5 -128.5t-249.5 -47.5q-557 0 -557 592z " />
<glyph unicode="V" horiz-adv-x="1259" d="M12 1413q0 18 14.5 29.5t36.5 11.5q42 0 54 -35l409 -1157l72 -205h6q267 653 377 932q112 284 174 428q15 37 47 37q45 0 45 -37q0 -16 -8 -35q-449 -1072 -584 -1349q-22 -45 -71 -45q-53 0 -72 47l-492 1341q-8 19 -8 37z" />
<glyph unicode="W" horiz-adv-x="2019" d="M45 1411q0 43 49 43q46 0 56 -37l346 -1349h6q134 371 422 1325q16 53 80 53q35 0 49.5 -14t21.5 -41q208 -784 369 -1323h6q199 578 348 1077l78 266q13 43 49 43q49 0 49 -37q0 -17 -8 -41l-108 -329q-211 -642 -359 -1014q-19 -45 -67 -45q-59 0 -74 49 q-217 671 -371 1327h-6q-41 -166 -111 -397q-198 -633 -319 -932q-19 -47 -74 -47q-53 0 -67 47l-359 1339q-6 27 -6 37z" />
<glyph unicode="X" horiz-adv-x="1226" d="M33 35q0 19 20 45q235 304 516 637l-497 669q-13 18 -13 31q0 15 13.5 26t33.5 11q42 0 68 -39l459 -631l153 193q144 182 320 444q23 33 49 33q15 0 29 -7.5t14 -25.5q0 -19 -20 -45q-179 -245 -510 -639l506 -669q12 -17 12 -31q0 -15 -13.5 -26t-33.5 -11 q-42 0 -68 39l-467 631l-151 -193q-176 -226 -330 -444q-23 -33 -49 -33q-16 0 -28.5 9t-12.5 26z" />
<glyph unicode="Y" horiz-adv-x="1126" d="M0 1417q0 17 12.5 27t30.5 10q40 0 63 -39l465 -772q273 437 314 508q43 76 77 137t48.5 87t25.5 44q21 35 51 35q15 0 27 -8t12 -25q0 -15 -18 -45q-94 -156 -249 -395t-259 -387v-549q0 -20 -13.5 -32.5t-35.5 -12.5q-23 0 -36 12t-13 33v549l-490 790q-12 19 -12 33z " />
<glyph unicode="Z" horiz-adv-x="1198" d="M57 47q0 20 21 47l926 1282v8h-871q-13 0 -22 9t-9 22t9 22t22 9h946q47 0 47 -37q0 -20 -18 -47l-928 -1284v-8h885q13 0 22 -9t9 -22t-9 -22t-22 -9h-963q-45 0 -45 39z" />
<glyph unicode="[" horiz-adv-x="622" d="M164 -205v1673q0 24 10.5 36t38.5 12h315q14 0 23.5 -8.5t9.5 -20.5q0 -29 -33 -29h-270v-1663h272q31 0 31 -28q0 -12 -9 -20.5t-22 -8.5h-307q-27 0 -43 15t-16 42z" />
<glyph unicode="\" horiz-adv-x="681" d="M20 1511q0 13 10.5 21t24.5 8q28 0 37 -24l625 -1688q6 -15 6 -25q0 -13 -10.5 -20.5t-24.5 -7.5q-28 0 -37 24l-624 1688q-7 17 -7 24z" />
<glyph unicode="]" horiz-adv-x="622" d="M61 -233q0 28 33 28h271v1663h-273q-14 0 -22.5 8t-8.5 21q0 12 9 20.5t22 8.5h307q27 0 43.5 -15.5t16.5 -42.5v-1673q0 -23 -10.5 -35t-38.5 -12h-316q-14 0 -23.5 8.5t-9.5 20.5z" />
<glyph unicode="^" horiz-adv-x="1001" d="M102 981q0 11 13 27l362 434q12 12 31 12t31 -12l348 -434q12 -15 12 -27q0 -8 -6 -14t-16 -6q-15 0 -27 12l-348 391l-350 -391q-12 -12 -25 -12q-25 0 -25 20z" />
<glyph unicode="_" horiz-adv-x="1146" d="M72 -80q0 12 8.5 21.5t21.5 9.5h942q14 0 22.5 -8.5t8.5 -22.5q0 -12 -9 -21.5t-22 -9.5h-942q-13 0 -21.5 8.5t-8.5 22.5z" />
<glyph unicode="`" horiz-adv-x="989" d="M350 1417q0 20 12.5 30.5t32.5 10.5q27 0 47 -20l222 -226q12 -12 12 -22t-7.5 -16.5t-17.5 -6.5q-12 0 -26 11l-248 196q-27 22 -27 43z" />
<glyph unicode="a" d="M74 498q0 243 139 394.5t358 151.5q80 0 145.5 -23.5t109.5 -63.5t72.5 -82t47.5 -91h6v195q0 20 13 30.5t34 10.5q20 0 34 -11t14 -30v-938q0 -20 -13.5 -30.5t-34.5 -10.5q-20 0 -33.5 11t-13.5 30v215h-6q-30 -77 -78 -133.5t-104.5 -87.5t-113 -45.5t-115.5 -14.5 q-215 0 -338 144.5t-123 378.5zM176 498q0 -217 100.5 -343t274.5 -126q122 0 215.5 65.5t142.5 173.5t49 240q0 136 -41.5 243.5t-130.5 173.5t-215 66q-176 0 -285.5 -137t-109.5 -356z" />
<glyph unicode="b" horiz-adv-x="1243" d="M164 41v1458q0 20 13 30.5t34 10.5q20 0 33.5 -11t13.5 -30v-735h6q120 280 424 280q146 0 256.5 -71.5t167.5 -192t57 -270.5q0 -241 -140.5 -388t-366.5 -147q-280 0 -398 269h-6v-203q0 -20 -13 -30.5t-34 -10.5q-20 0 -33.5 11t-13.5 30zM252 508q0 -134 48.5 -242 t142.5 -172.5t219 -64.5q181 0 293 132.5t112 346.5q0 213 -108 348t-285 135q-131 0 -228.5 -66t-145.5 -174t-48 -243z" />
<glyph unicode="c" horiz-adv-x="1036" d="M74 506q0 149 61.5 271.5t177.5 194.5t265 72q120 0 221 -39t155 -118q13 -19 13 -35q0 -15 -11.5 -28t-31.5 -13q-30 0 -54 39q-46 76 -116.5 109.5t-175.5 33.5q-183 0 -292.5 -137t-109.5 -350q0 -209 102.5 -342t284.5 -133q187 0 316 137q29 33 49 33q13 0 23 -9 t10 -22q0 -11 -13 -27q-146 -168 -389 -168q-153 0 -264.5 70t-166 189t-54.5 272z" />
<glyph unicode="d" horiz-adv-x="1243" d="M74 508q0 241 141 388.5t367 147.5q279 0 397 -270h6v725q0 20 13 30.5t34 10.5q20 0 33.5 -11t13.5 -30v-1458q0 -20 -13 -30.5t-34 -10.5q-20 0 -33.5 11t-13.5 30v213h-6q-120 -279 -424 -279q-146 0 -256.5 71t-167.5 191.5t-57 270.5zM176 510q0 -213 107.5 -347 t285.5 -134q196 0 309 137t113 344q0 134 -48 242.5t-142 173.5t-219 65q-181 0 -293.5 -133.5t-112.5 -347.5z" />
<glyph unicode="e" horiz-adv-x="1110" d="M74 492q0 242 134 397t359 155q197 0 323 -119t126 -331v-23q0 -25 -15 -41t-45 -16h-780v-22q0 -203 100 -332t279 -129q111 0 190 31.5t148 103.5q29 29 49 29q14 0 22.5 -8.5t8.5 -22.5q0 -12 -10 -25q-148 -164 -412 -164q-220 0 -348.5 139.5t-128.5 377.5zM180 569 h744v21q0 104 -29 183t-79.5 125.5t-113.5 69.5t-137 23q-161 0 -264.5 -111t-120.5 -311z" />
<glyph unicode="f" horiz-adv-x="526" d="M37 973q0 12 9 20t22 8h120q0 132 29.5 234.5t72.5 159.5t99 93.5t101.5 48t87.5 11.5q104 0 163 -26q31 -14 31 -39q0 -18 -10.5 -27.5t-26.5 -9.5q-19 0 -55 16q-51 23 -107 23q-290 0 -290 -379v-105h217q30 0 30 -28q0 -29 -30 -29h-217v-903q0 -19 -13.5 -30 t-33.5 -11q-21 0 -34.5 10.5t-13.5 30.5v903h-120q-14 0 -22.5 8t-8.5 21z" />
<glyph unicode="g" horiz-adv-x="1222" d="M74 506q0 242 136.5 390t360.5 148q81 0 149 -24t113.5 -64t76 -83t48.5 -91h7v197q0 20 13 30.5t34 10.5q20 0 33.5 -11t13.5 -30v-924q0 -245 -146 -383.5t-389 -138.5q-132 0 -235 35t-152 84q-33 33 -33 55q0 14 12 23.5t27 9.5q19 0 35 -16q127 -138 344 -138 q210 0 326.5 117.5t116.5 331.5v219h-7q-30 -76 -78.5 -132.5t-106 -87.5t-114.5 -45t-116 -14q-216 0 -342.5 146t-126.5 385zM176 506q0 -222 103.5 -349.5t279.5 -127.5q183 0 297.5 138t114.5 339q0 136 -44 244t-135 174.5t-217 66.5q-180 0 -289.5 -135t-109.5 -350z " />
<glyph unicode="h" horiz-adv-x="1173" d="M166 41v1458q0 20 13 30.5t34 10.5q20 0 33.5 -11t13.5 -30v-698h8q49 121 146.5 182t218.5 61q399 0 399 -407v-596q0 -20 -13 -30.5t-34 -10.5q-20 0 -33.5 11t-13.5 30v592q0 356 -309 356q-161 0 -265 -115.5t-104 -302.5v-530q0 -20 -13 -30.5t-34 -10.5 q-20 0 -33.5 11t-13.5 30z" />
<glyph unicode="i" horiz-adv-x="421" d="M143 1415q0 22 18 37.5t50 15.5t50 -15.5t18 -37.5q0 -23 -18 -39t-50 -16t-50 16t-18 39zM164 41v938q0 20 13 30.5t34 10.5q20 0 33.5 -11t13.5 -30v-938q0 -20 -13 -30.5t-34 -10.5q-20 0 -33.5 11t-13.5 30z" />
<glyph unicode="j" horiz-adv-x="421" d="M-76 -414q0 12 8 19.5t19 7.5q6 0 22.5 -3t30.5 -3q42 0 70 14q90 41 90 199v1157q0 20 13 30.5t34 10.5q20 0 33.5 -11t13.5 -30v-1018q0 -151 -27 -227q-44 -126 -141 -162q-41 -16 -90 -16q-33 0 -51 6q-25 7 -25 26zM141 1415q0 22 18 37.5t50 15.5q33 0 50 -15.5 t17 -37.5q0 -24 -17 -39.5t-50 -15.5q-32 0 -50 16t-18 39z" />
<glyph unicode="k" horiz-adv-x="978" d="M154 41v1458q0 20 13 30.5t34 10.5q20 0 33.5 -11t13.5 -30v-940h4l246 178q242 177 344 262q24 21 43 21q15 0 27 -10.5t12 -26.5q0 -23 -29 -43q-72 -54 -153 -110.5t-128.5 -88.5t-147.5 -97t-134 -87l596 -489q18 -14 18 -31q0 -16 -11.5 -26.5t-31.5 -10.5 q-29 0 -65 31l-586 491h-4v-481q0 -20 -13 -30.5t-34 -10.5q-20 0 -33.5 11t-13.5 30z" />
<glyph unicode="l" horiz-adv-x="421" d="M164 41v1458q0 20 13 30.5t34 10.5q20 0 33.5 -11t13.5 -30v-1458q0 -20 -13 -30.5t-34 -10.5q-20 0 -33.5 11t-13.5 30z" />
<glyph unicode="m" horiz-adv-x="1781" d="M164 41v938q0 20 13 30.5t34 10.5q20 0 33.5 -11t13.5 -30v-166h6q36 113 125 172t195 59q135 0 222.5 -62.5t117.5 -170.5h10q44 115 130 174t202 59q187 0 279.5 -104t92.5 -303v-596q0 -20 -13 -30.5t-34 -10.5q-20 0 -33.5 11t-13.5 30v592q0 73 -13.5 133t-44 112.5 t-88 81.5t-138.5 29q-141 0 -226.5 -99.5t-85.5 -275.5v-573q0 -20 -13 -30.5t-34 -10.5q-20 0 -33.5 11t-13.5 30v592q0 58 -7.5 107.5t-27 96.5t-49.5 79.5t-79 52.5t-113 20q-142 0 -231 -110.5t-89 -296.5v-541q0 -20 -13 -30.5t-34 -10.5q-20 0 -33.5 11t-13.5 30z" />
<glyph unicode="n" horiz-adv-x="1173" d="M164 41v938q0 20 13 30.5t34 10.5q20 0 33.5 -11t13.5 -30v-178h8q49 121 146.5 182t218.5 61q399 0 399 -407v-596q0 -20 -13 -30.5t-34 -10.5q-20 0 -33.5 11t-13.5 30v592q0 356 -309 356q-161 0 -265 -115.5t-104 -302.5v-530q0 -20 -13 -30.5t-34 -10.5 q-20 0 -33.5 11t-13.5 30z" />
<glyph unicode="o" horiz-adv-x="1179" d="M74 504q0 123 41.5 225.5t112 171t164 106t198.5 37.5q143 0 259 -62t186.5 -185t70.5 -287q0 -163 -70.5 -286.5t-186.5 -186t-259 -62.5q-142 0 -258 60.5t-187 182.5t-71 286zM180 504q0 -113 32.5 -204.5t89 -150t130.5 -89.5t158 -31q176 0 292.5 130t116.5 351 q0 226 -117 353.5t-292 127.5q-176 0 -293 -132t-117 -355z" />
<glyph unicode="p" horiz-adv-x="1243" d="M164 -406v1385q0 20 13 30.5t34 10.5q20 0 33.5 -11t13.5 -30v-215h6q120 280 424 280q146 0 256.5 -71.5t167.5 -192t57 -270.5q0 -241 -140.5 -388t-366.5 -147q-280 0 -398 269h-6v-650q0 -40 -47 -40q-20 0 -33.5 10.5t-13.5 29.5zM252 508q0 -134 48.5 -242 t142.5 -172.5t219 -64.5q181 0 293 132.5t112 346.5q0 213 -107.5 348t-285.5 135q-131 0 -228.5 -66t-145.5 -174t-48 -243z" />
<glyph unicode="q" horiz-adv-x="1245" d="M74 508q0 241 141 388.5t367 147.5q279 0 397 -270h6v205q0 20 13 30.5t34 10.5q20 0 33.5 -11t13.5 -30v-1385q0 -40 -47 -40q-20 0 -33.5 10.5t-13.5 29.5v660h-6q-120 -279 -424 -279q-146 0 -256.5 71t-167.5 191.5t-57 270.5zM176 510q0 -213 108 -347t285 -134 q196 0 309 137t113 344q0 134 -48 242.5t-142 173.5t-219 65q-181 0 -293.5 -133.5t-112.5 -347.5z" />
<glyph unicode="r" horiz-adv-x="790" d="M164 41v938q0 20 13 30.5t34 10.5q20 0 33.5 -11t13.5 -30v-174h2q51 122 146.5 180.5t197.5 58.5q86 0 144 -26q30 -13 30 -39q0 -18 -10.5 -27.5t-26.5 -9.5q-19 0 -55 16q-51 23 -106 23q-85 0 -153.5 -44.5t-113.5 -121.5q-55 -95 -55 -219v-555q0 -20 -13 -30.5 t-34 -10.5q-20 0 -33.5 11t-13.5 30z" />
<glyph unicode="s" horiz-adv-x="946" d="M74 139q0 19 12 29t31 10q29 0 49 -26q46 -60 125 -92.5t180 -32.5q77 0 143.5 24.5t112 79t45.5 129.5q0 56 -22.5 92t-92.5 66t-196 49q-179 28 -273 95.5t-94 195.5q0 132 108.5 209t274.5 77q106 0 199 -29.5t137 -82.5q16 -19 16 -35q0 -39 -41 -39q-29 0 -49 29 q-76 106 -264 106q-54 0 -105 -12t-95.5 -36t-71.5 -68t-27 -101q0 -99 80.5 -148.5t241.5 -76.5q189 -32 275.5 -99.5t86.5 -185.5q0 -123 -108 -207t-285 -84q-129 0 -228.5 35.5t-148.5 93.5q-16 19 -16 35z" />
<glyph unicode="t" horiz-adv-x="800" d="M33 973q0 12 8.5 20t21.5 8h158v291q0 17 12.5 28t34.5 11q20 0 33.5 -11t13.5 -28v-291h367q31 0 31 -28q0 -13 -8.5 -21t-22.5 -8h-367v-653q0 -137 55.5 -194.5t153.5 -57.5q82 0 144 22q35 13 39 13q30 0 30 -29q0 -17 -35 -31q-78 -30 -184 -30q-68 0 -119 14 t-92.5 47t-63.5 95.5t-22 152.5v651h-158q-30 0 -30 29z" />
<glyph unicode="u" horiz-adv-x="1173" d="M143 383v596q0 20 13 30.5t34 10.5q20 0 34 -11t14 -30v-592q0 -356 309 -356q161 0 264.5 115.5t103.5 302.5v530q0 20 13.5 30.5t34.5 10.5q20 0 33.5 -11t13.5 -30v-938q0 -20 -13 -30.5t-34 -10.5q-20 0 -34 11t-14 30v178h-8q-49 -121 -146 -182.5t-218 -61.5 q-201 0 -300.5 104.5t-99.5 303.5z" />
<glyph unicode="v" horiz-adv-x="931" d="M8 979q0 19 13.5 30t35.5 11q37 0 49 -35l273 -727q15 -39 72 -197h6l209 494q42 97 73 178t56 150t39 104q13 33 45 33q45 0 45 -37q0 -14 -9 -35q-178 -426 -417 -915q-12 -24 -24.5 -34.5t-37.5 -10.5q-45 0 -63 45l-357 909q-8 19 -8 37z" />
<glyph unicode="w" horiz-adv-x="1509" d="M33 977q0 19 13.5 31t35.5 12q39 0 49 -37l215 -760l47 -166h6q195 513 322 930q11 33 51 33q47 0 55 -33q117 -461 265 -930h6l125 373q79 231 161 545q12 45 50 45q21 0 32 -10t11 -25q0 -9 -9 -41q-146 -465 -319 -905q-20 -51 -70 -51q-49 0 -63 45 q-157 444 -252 866h-8q-134 -452 -310 -866q-19 -45 -65 -45q-50 0 -64 45l-276 905q-8 27 -8 39z" />
<glyph unicode="x" horiz-adv-x="948" d="M33 33q0 15 22 43q225 262 377 426l-358 450q-15 21 -15 33q0 15 12.5 25t30.5 10q22 0 35.5 -9t30.5 -30l324 -420l81 96q158 188 248 330q20 33 49 33q14 0 27.5 -8t13.5 -25q0 -15 -22 -43q-116 -145 -185 -224.5t-180 -199.5l377 -452q14 -16 14 -33q0 -15 -12.5 -25 t-30.5 -10q-34 0 -65 39l-340 422l-86 -103q-183 -220 -260 -325q-23 -33 -47 -33q-14 0 -27.5 8t-13.5 25z" />
<glyph unicode="y" horiz-adv-x="950" d="M8 979q0 19 13.5 30t35.5 11q40 0 52 -35l286 -731q68 -175 74 -193h6l64 148q161 369 223 532q25 65 90 246q13 33 43 33q44 0 47 -37q0 -16 -8 -35q-107 -253 -328 -731q-201 -438 -301 -625q-21 -38 -51 -38q-16 0 -27.5 10t-11.5 26q0 23 18 50q131 204 193 323 l-35 76l-373 903q-10 23 -10 37z" />
<glyph unicode="z" horiz-adv-x="948" d="M66 49q0 20 18 43l680 844v8h-647q-14 0 -22.5 8t-8.5 21q0 28 31 28h714q48 0 48 -34q0 -22 -21 -49l-680 -844v-8h660q30 0 30 -29t-30 -29h-727q-22 0 -33.5 11.5t-11.5 29.5z" />
<glyph unicode="{" horiz-adv-x="659" d="M61 629q0 23 27 28q51 10 76 25q28 18 45.5 43t25 55t9.5 52.5t2 52.5v364q0 119 67.5 193t202.5 74h53q13 0 21 -7t8 -18q0 -25 -27 -25h-45q-93 0 -139.5 -47t-46.5 -164v-329q0 -254 -184 -293v-8q97 -20 140.5 -88.5t43.5 -204.5v-334q0 -117 46.5 -164t139.5 -47h45 q27 0 27 -25q0 -24 -29 -24h-53q-135 0 -202.5 73.5t-67.5 192.5v369q0 42 -3.5 71t-23 68t-55.5 63q-25 15 -76 25q-27 5 -27 29z" />
<glyph unicode="|" horiz-adv-x="487" d="M205 -348v1888q0 17 11 27t28 10q39 0 39 -37v-1888q0 -17 -11 -27t-28 -10q-39 0 -39 37z" />
<glyph unicode="}" horiz-adv-x="659" d="M61 -238q0 25 27 25h45q93 0 139.5 47t46.5 164v334q0 131 49.5 203t135.5 90v8q-97 20 -141 88.5t-44 204.5v329q0 117 -46.5 164t-139.5 47h-45q-27 0 -27 25q0 11 8 18t21 7h53q135 0 203 -74t68 -193v-364q0 -30 2 -52.5t9.5 -52.5t25 -55t45.5 -43q26 -15 75 -25 q27 -5 27 -28q0 -24 -27 -29q-49 -10 -75 -25q-36 -24 -55.5 -63t-23 -68t-3.5 -71v-369q0 -119 -68 -192.5t-203 -73.5h-53q-29 0 -29 24z" />
<glyph unicode="~" horiz-adv-x="1073" d="M102 651q0 11 13 37q79 150 229 150q56 0 102.5 -16t120.5 -64q57 -37 95 -53.5t81 -16.5q103 0 170 123q14 25 31 25q11 0 19 -6.5t8 -16.5q0 -11 -13 -37q-82 -149 -229 -149q-56 0 -102.5 16t-120.5 64q-56 37 -94 53t-82 16q-103 0 -170 -123q-14 -24 -31 -24 q-11 0 -19 6t-8 16z" />
<glyph unicode="&#xa1;" horiz-adv-x="503" d="M184 958q0 26 17.5 44t50.5 18q32 0 49.5 -18.5t17.5 -43.5q0 -24 -17.5 -41.5t-49.5 -17.5q-33 0 -50.5 17.5t-17.5 41.5zM203 -399q0 68 4 174l16 798q0 12 8.5 20.5t20.5 8.5q13 0 21 -8.5t8 -20.5l16 -794q4 -106 4 -178q0 -23 -13.5 -36.5t-35.5 -13.5 q-23 0 -36 13.5t-13 36.5z" />
<glyph unicode="&#xa2;" horiz-adv-x="1116" d="M94 506q0 143 57 262t168 193t256 79v185q0 32 35 32t35 -32v-185q235 -19 328 -155q12 -18 12 -35q0 -15 -11.5 -28t-31.5 -13q-29 0 -53 39q-47 77 -118 112t-175 35q-183 0 -292 -138t-109 -351q0 -137 44 -244t132.5 -171t210.5 -64q94 0 170.5 29t144.5 102 q28 32 49 32q13 0 23 -8.5t10 -21.5q0 -12 -12 -27q-118 -135 -336 -153v-183q0 -33 -35 -33t-35 33v183q-223 6 -345 152t-122 374z" />
<glyph unicode="&#xa3;" d="M61 43q0 15 10 26t25 11h125q43 122 58.5 213t15.5 194q0 76 -21 183h-131q-30 0 -30 28q0 12 8.5 20.5t21.5 8.5h121q-45 196 -45 315q0 195 130.5 314t334.5 119q116 0 231.5 -39.5t169.5 -108.5q13 -18 13 -33q0 -18 -10.5 -28.5t-28.5 -10.5q-24 0 -45 29 q-98 135 -334 135q-174 0 -267.5 -100.5t-93.5 -257.5q0 -41 4.5 -88.5t9 -79t13 -87t12.5 -79.5h445q14 0 22.5 -8t8.5 -21q0 -28 -31 -28h-436q8 -82 8 -123q0 -120 -17 -221.5t-69 -245.5h805q34 0 34 -35q0 -15 -9.5 -26t-24.5 -11h-998q-16 0 -25.5 9t-9.5 26z" />
<glyph unicode="&#xa6;" horiz-adv-x="487" d="M205 -348v713q0 17 10.5 26.5t28.5 9.5q39 0 39 -36v-713q0 -17 -11 -27t-28 -10q-39 0 -39 37zM205 827v713q0 17 11 27t28 10q39 0 39 -37v-713q0 -17 -10.5 -26.5t-28.5 -9.5q-39 0 -39 36z" />
<glyph unicode="&#xa7;" horiz-adv-x="1114" d="M94 580q0 111 70 196.5t192 128.5q-180 86 -180 260q0 143 117.5 226.5t286.5 83.5q118 0 224.5 -35t151.5 -90q17 -20 17 -33q0 -39 -41 -39q-30 0 -49 27q-85 118 -305 118q-137 0 -228.5 -63t-91.5 -178q0 -102 79.5 -157.5t242.5 -96.5q243 -62 341.5 -151t98.5 -249 q0 -111 -70 -196.5t-190 -128.5q178 -83 178 -254q0 -144 -117.5 -230t-285.5 -86q-119 0 -231 35t-157 90q-16 19 -16 33q0 39 41 39q30 0 49 -27q42 -59 126.5 -88.5t189.5 -29.5q135 0 227 66t92 181q0 43 -15.5 77t-41 58.5t-68.5 46t-88 36t-108 30.5q-243 62 -342 151 t-99 249zM176 588q0 -80 33.5 -135t123 -102.5t249.5 -86.5q41 -10 114 -35q108 33 175 107t67 184q0 80 -33.5 135t-123 102.5t-249.5 86.5q-68 17 -114 35q-108 -33 -175 -107t-67 -184z" />
<glyph unicode="&#xa8;" horiz-adv-x="831" d="M129 1282q0 22 18 37.5t50 15.5t49.5 -15.5t17.5 -37.5q0 -23 -17.5 -39t-49.5 -16t-50 16t-18 39zM557 1282q0 22 18 37.5t50 15.5t49.5 -15.5t17.5 -37.5q0 -23 -17.5 -39t-49.5 -16t-50 16t-18 39z" />
<glyph unicode="&#xa9;" horiz-adv-x="1853" d="M201 725q0 159 58 299t156.5 238.5t232 155.5t280.5 57q148 0 281.5 -57t231 -155.5t155 -238.5t57.5 -299q0 -158 -58.5 -298.5t-156.5 -239t-231 -155.5t-279 -57q-153 0 -288 57t-231.5 155.5t-152 238.5t-55.5 299zM270 725q0 -146 51.5 -274.5t139.5 -219 t209.5 -142.5t257.5 -52q133 0 253.5 52t209 142.5t140.5 219t52 274.5q0 196 -87 354t-236.5 246t-331.5 88q-134 0 -255 -52t-210 -142t-141 -218.5t-52 -275.5zM584 723q0 173 97.5 278t248.5 105q98 0 167.5 -31.5t102.5 -81.5q8 -11 8 -24q0 -29 -30 -29q-17 0 -35 27 q-65 94 -213 94q-126 0 -198.5 -92t-72.5 -246q0 -156 72 -247t195 -91q142 0 221 102q19 25 35 25q11 0 17.5 -7t6.5 -16q0 -11 -10 -24q-93 -125 -270 -125q-156 0 -249 101.5t-93 281.5z" />
<glyph unicode="&#xaa;" horiz-adv-x="921" d="M102 1069q0 172 100 278.5t257 106.5q91 0 156.5 -39.5t97.5 -101.5h6v96q0 35 39 35q18 0 29.5 -9t11.5 -26v-657q0 -35 -41 -35q-16 0 -27.5 9.5t-11.5 25.5v112h-6q-42 -86 -119 -125t-160 -39q-155 0 -243.5 101t-88.5 268zM188 1069q0 -149 68 -234t188 -85 q126 0 202.5 94t76.5 233q0 145 -66 236.5t-198 91.5q-120 0 -195.5 -93.5t-75.5 -242.5z" />
<glyph unicode="&#xab;" horiz-adv-x="843" d="M92 530q0 13 25 45l258 330q11 15 26 15q12 0 19.5 -7t7.5 -16q0 -12 -10 -27l-234 -333l234 -349q10 -15 10 -26q0 -9 -7.5 -16t-19.5 -7q-15 0 -26 15l-260 329q-23 29 -23 47zM436 530q0 13 25 45l258 330q11 15 26 15q12 0 19.5 -7t7.5 -16q0 -12 -10 -27l-234 -333 l234 -349q10 -15 10 -26q0 -9 -7.5 -16t-19.5 -7q-15 0 -26 15l-260 329q-23 29 -23 47z" />
<glyph unicode="&#xac;" horiz-adv-x="1126" d="M102 852q0 12 9 21.5t22 9.5h819q19 0 30 -10t11 -27v-363q0 -13 -8.5 -21.5t-21.5 -8.5q-12 0 -21.5 8.5t-9.5 21.5v338h-799q-13 0 -22 8.5t-9 22.5z" />
<glyph unicode="&#xad;" horiz-adv-x="929" d="M102 586q0 12 9 21t22 9h664q13 0 21.5 -8t8.5 -22q0 -12 -8.5 -21.5t-21.5 -9.5h-664q-13 0 -22 8.5t-9 22.5z" />
<glyph unicode="&#xae;" horiz-adv-x="1124" d="M123 1024q0 194 128 322.5t312 128.5t311 -128.5t127 -322.5q0 -128 -59.5 -232t-160 -161.5t-218.5 -57.5q-188 0 -314 128t-126 323zM172 1024q0 -176 113 -293t278 -117q162 0 275.5 117.5t113.5 292.5q0 177 -112.5 293.5t-276.5 116.5q-163 0 -277 -117t-114 -293z M412 825v398q0 24 26 28q40 4 101 4q78 0 130 -30t52 -95q0 -54 -32 -86t-85 -38q85 -128 111 -164q6 -9 6 -19q0 -9 -7.5 -14.5t-17.5 -5.5q-14 0 -26 16q-39 55 -111 180h-98v-174q0 -22 -25 -22q-10 0 -17 6t-7 16zM461 1030h84q64 0 94.5 23.5t30.5 76.5q0 49 -37 71 t-96 22q-36 0 -76 -4v-189z" />
<glyph unicode="&#xb0;" horiz-adv-x="696" d="M86 1217q0 107 78 182.5t188 75.5q117 0 191.5 -74.5t74.5 -183.5q0 -107 -78 -183t-188 -76q-117 0 -191.5 75t-74.5 184zM152 1217q0 -87 55 -146t145 -59q88 0 144.5 59.5t56.5 145.5q0 87 -55.5 145.5t-145.5 58.5q-88 0 -144 -59t-56 -145z" />
<glyph unicode="&#xb2;" horiz-adv-x="794" d="M61 598q0 20 23 47q93 113 272 266q70 60 105.5 94t73 78.5t52.5 85t15 86.5q0 84 -50.5 132.5t-156.5 48.5q-140 0 -225 -119q-17 -23 -37 -23q-12 0 -20.5 8t-8.5 21q0 19 21 43q41 49 116.5 82t153.5 33q136 0 214.5 -59.5t78.5 -161.5q0 -78 -50 -149t-149 -161 q-45 -42 -98 -86q-183 -155 -256 -235v-4h527q13 0 21.5 -8.5t8.5 -22.5q0 -15 -8.5 -25t-21.5 -10h-566q-35 0 -35 39z" />
<glyph unicode="&#xb3;" horiz-adv-x="854" d="M82 684q0 14 10 23.5t25 9.5q20 0 39 -25q78 -96 229 -96q119 0 189.5 57.5t70.5 153.5q0 27 -4.5 51t-20.5 54t-42.5 51.5t-75 36t-113.5 14.5h-51q-11 0 -18 7t-7 19q0 10 7.5 17.5t17.5 7.5h51q232 0 232 186q0 84 -53 132.5t-156 48.5q-147 0 -217 -105 q-15 -20 -33 -20q-13 0 -22 8t-9 20q0 16 12 31q40 55 112.5 85t154.5 30q136 0 216.5 -65.5t80.5 -168.5q0 -65 -47.5 -121.5t-131.5 -72.5v-6q87 -20 145 -77t58 -153q0 -125 -97 -198.5t-251 -73.5q-94 0 -171.5 30.5t-117.5 77.5q-12 15 -12 31z" />
<glyph unicode="&#xb4;" horiz-adv-x="968" d="M338 1188q0 12 12 24l221 226q20 20 43 20q20 0 32.5 -10.5t12.5 -30.5q0 -21 -26 -43l-248 -196q-14 -11 -25 -11q-8 0 -15 5.5t-7 15.5z" />
<glyph unicode="&#xb6;" horiz-adv-x="1361" d="M123 987q0 200 141.5 329.5t386.5 129.5h451q63 0 63 -47v-1811q0 -14 -12.5 -24t-28.5 -10q-19 0 -30 9.5t-11 24.5v1805h-184v-1805q0 -14 -12.5 -24t-28.5 -10q-19 0 -30 9.5t-11 24.5v1805h-176v-822q0 -13 -11.5 -24.5t-25.5 -11.5q-222 0 -351.5 125.5 t-129.5 326.5z" />
<glyph unicode="&#xb7;" horiz-adv-x="380" d="M123 672q0 24 17.5 41.5t49.5 17.5q33 0 50.5 -17.5t17.5 -41.5q0 -26 -17.5 -44t-50.5 -18q-32 0 -49.5 18.5t-17.5 43.5z" />
<glyph unicode="&#xb8;" horiz-adv-x="931" d="M422 -389q0 13 12 45q19 55 19 115q0 12 -2 33t-2 28q0 45 40 45q43 0 43 -45q0 -137 -61 -223q-13 -19 -27 -19q-22 0 -22 21z" />
<glyph unicode="&#xb9;" horiz-adv-x="528" d="M72 1411q0 10 7.5 16.5t16.5 6.5q95 7 164 26q21 6 35 6q20 0 34.5 -11t14.5 -32v-833q0 -15 -12 -25t-29 -10t-29 10t-12 25v821q-70 -20 -160 -20q-30 0 -30 20z" />
<glyph unicode="&#xba;" horiz-adv-x="937" d="M102 1075q0 174 106 276.5t261 102.5q158 0 262.5 -100.5t104.5 -274.5q0 -175 -104.5 -277t-262.5 -102q-157 0 -262 100t-105 275zM188 1075q0 -155 80.5 -240t200.5 -85q121 0 201 88.5t80 240.5q0 155 -80.5 240.5t-200.5 85.5q-121 0 -201 -89t-80 -241z" />
<glyph unicode="&#xbb;" horiz-adv-x="843" d="M72 162q0 11 10 26l233 334l-233 348q-10 15 -10 27q0 9 7 16t19 7q16 0 27 -15l260 -330q23 -29 23 -47q0 -13 -25 -45l-258 -329q-11 -15 -27 -15q-12 0 -19 7t-7 16zM416 162q0 11 10 26l233 334l-233 348q-10 15 -10 27q0 9 7 16t19 7q16 0 27 -15l260 -330 q23 -29 23 -47q0 -13 -25 -45l-258 -329q-11 -15 -27 -15q-12 0 -19 7t-7 16z" />
<glyph unicode="&#xbc;" horiz-adv-x="1671" d="M102 1411q0 10 7.5 16.5t17.5 6.5q95 7 164 26q21 6 35 6q20 0 34.5 -11t14.5 -32v-833q0 -15 -12 -25t-29 -10t-29 10t-12 25v821q-70 -20 -160 -20q-31 0 -31 20zM172 -98q0 13 10 28l1047 1540q13 21 35 21q15 0 27 -9t12 -22q0 -12 -11 -28l-1046 -1541 q-12 -20 -35 -20q-15 0 -27 9t-12 22zM860 254q0 22 12 41q34 54 129 178q147 198 310 406q27 34 61 34q55 0 55 -45v-585h111q13 0 21 -8.5t8 -20.5q0 -14 -8 -23.5t-21 -9.5h-111v-184q0 -16 -11 -26.5t-30 -10.5q-18 0 -29 10.5t-11 26.5v184h-449q-19 0 -28 10.5 t-9 22.5zM930 283h416v266q0 215 6 303h-4q-54 -80 -117 -166l-191 -254l-110 -143v-6z" />
<glyph unicode="&#xbd;" horiz-adv-x="1681" d="M102 1411q0 10 7.5 16.5t17.5 6.5q95 7 164 26q21 6 35 6q20 0 34.5 -11t14.5 -32v-833q0 -15 -12 -25t-29 -10t-29 10t-12 25v821q-70 -20 -160 -20q-31 0 -31 20zM145 -98q0 12 11 28l1046 1540q13 21 35 21q15 0 27 -9t12 -22t-10 -28l-1047 -1541q-12 -20 -35 -20 q-15 0 -27 9t-12 22zM948 47q0 20 23 47q93 113 272 266q69 60 105.5 94t73.5 78.5t52 85.5t15 87q0 84 -50.5 132t-156.5 48q-140 0 -225 -119q-17 -23 -37 -23q-12 0 -20.5 8t-8.5 21q0 18 21 43q41 49 116.5 82t153.5 33q136 0 214.5 -59.5t78.5 -161.5q0 -81 -53 -154.5 t-160 -167.5l-84 -74q-183 -155 -256 -235v-4h526q14 0 22.5 -9t8.5 -22q0 -15 -9 -25t-22 -10h-565q-35 0 -35 39z" />
<glyph unicode="&#xbe;" horiz-adv-x="1828" d="M102 684q0 14 10 23.5t25 9.5q20 0 39 -25q78 -96 230 -96q119 0 189.5 57.5t70.5 153.5q0 27 -4.5 51t-20.5 54t-42.5 51.5t-75 36t-113.5 14.5h-52q-24 0 -24 26q0 11 7 18t17 7h52q231 0 231 186q0 84 -53 132.5t-156 48.5q-147 0 -217 -105q-15 -20 -33 -20 q-13 0 -21.5 8t-8.5 20q0 16 12 31q40 55 112 85t154 30q136 0 216.5 -65.5t80.5 -168.5q0 -65 -47 -121.5t-131 -72.5v-6q87 -20 145 -77t58 -153q0 -125 -97.5 -198.5t-251.5 -73.5q-94 0 -171 30t-117 78q-13 16 -13 31zM362 -98q0 12 11 28l1046 1540q13 21 35 21 q15 0 27 -9t12 -22t-10 -28l-1047 -1541q-12 -20 -35 -20q-15 0 -27 9t-12 22zM1020 254q0 22 12 41q34 54 129 178q166 224 309 406q27 34 62 34q55 0 55 -45v-585h111q13 0 20.5 -8.5t7.5 -20.5q0 -14 -7.5 -23.5t-20.5 -9.5h-111v-184q0 -16 -11 -26.5t-30 -10.5 q-18 0 -29.5 11t-11.5 26v184h-448q-19 0 -28 10.5t-9 22.5zM1090 283h415v266q0 215 6 303h-4q-66 -97 -116 -166l-191 -254l-110 -143v-6z" />
<glyph unicode="&#xbf;" horiz-adv-x="1013" d="M74 -115q0 114 70 208t214 198q98 71 132.5 127t37.5 153q0 33 27 33q24 0 27 -29q2 -16 2 -34q0 -95 -39 -166t-133 -144q-134 -102 -185 -177t-51 -179q0 -136 94 -211.5t254 -75.5q105 0 200 46t157 135q20 32 47 32q17 0 27 -9.5t10 -24.5q0 -19 -17 -43 q-62 -85 -179.5 -138t-244.5 -53q-203 0 -326.5 92.5t-123.5 259.5zM485 958q0 26 17.5 44t50.5 18q32 0 50 -18.5t18 -43.5q0 -24 -18 -41.5t-50 -17.5q-33 0 -50.5 17.5t-17.5 41.5z" />
<glyph unicode="&#xc0;" horiz-adv-x="1300" d="M25 29q0 15 8 34q112 269 302 707.5t283 636.5q8 17 15.5 26.5t24.5 17t42 7.5q54 0 74 -51l494 -1337q8 -19 8 -37q0 -19 -13.5 -30t-35.5 -11q-18 0 -34 9.5t-22 25.5l-159 442h-725q-39 -93 -72 -177.5t-61 -159.5t-41 -107q-13 -33 -45 -33q-43 0 -43 37zM313 530 h678l-309 861h-8q-51 -129 -96 -232zM463 1827q0 20 12.5 30.5t32.5 10.5q26 0 47 -21l221 -225q12 -12 12 -23q0 -10 -7 -16t-17 -6q-14 0 -27 10l-248 197q-26 22 -26 43z" />
<glyph unicode="&#xc1;" horiz-adv-x="1300" d="M25 29q0 15 8 34q112 269 302 707.5t283 636.5q8 17 15.5 26.5t24.5 17t42 7.5q54 0 74 -51l494 -1337q8 -19 8 -37q0 -19 -13.5 -30t-35.5 -11q-18 0 -34 9.5t-22 25.5l-159 442h-725q-39 -93 -72 -177.5t-61 -159.5t-41 -107q-13 -33 -45 -33q-43 0 -43 37zM313 530 h678l-309 861h-8q-51 -129 -96 -232zM592 1597q0 13 12 25l221 225q21 21 43 21q20 0 32.5 -10.5t12.5 -30.5q0 -21 -26 -43l-248 -197q-13 -10 -25 -10q-22 0 -22 20z" />
<glyph unicode="&#xc2;" horiz-adv-x="1300" d="M25 29q0 15 8 34q112 269 302 707.5t283 636.5q8 17 15.5 26.5t24.5 17t42 7.5q54 0 74 -51l494 -1337q8 -19 8 -37q0 -19 -13.5 -30t-35.5 -11q-18 0 -34 9.5t-22 25.5l-159 442h-725q-39 -93 -72 -177.5t-61 -159.5t-41 -107q-13 -33 -45 -33q-43 0 -43 37zM313 530 h678l-309 861h-8q-51 -129 -96 -232zM422 1597q0 13 12 25l238 209q12 12 30 12q19 0 31 -12l225 -209q13 -13 13 -25q0 -20 -23 -20q-12 0 -24 10l-228 168l-227 -168q-13 -10 -25 -10q-22 0 -22 20z" />
<glyph unicode="&#xc3;" horiz-adv-x="1300" d="M25 29q0 15 8 34q112 269 302 707.5t283 636.5q8 17 15.5 26.5t24.5 17t42 7.5q54 0 74 -51l494 -1337q8 -19 8 -37q0 -19 -13.5 -30t-35.5 -11q-18 0 -34 9.5t-22 25.5l-159 442h-725q-39 -93 -72 -177.5t-61 -159.5t-41 -107q-13 -33 -45 -33q-43 0 -43 37zM313 530 h678l-309 861h-8q-51 -129 -96 -232zM395 1636q0 11 11 33q55 109 159 109q41 0 77.5 -11.5t90.5 -44.5q62 -39 107 -39q35 0 56.5 17.5t43.5 58.5q10 21 27 21q11 0 17.5 -6.5t6.5 -14.5q0 -13 -10 -33q-55 -108 -160 -108q-41 0 -77 11t-91 44q-64 39 -104 39 q-63 0 -103 -76q-10 -20 -26 -20q-11 0 -18 6t-7 14z" />
<glyph unicode="&#xc4;" horiz-adv-x="1300" d="M25 29q0 15 8 34q112 269 302 707.5t283 636.5q8 17 15.5 26.5t24.5 17t42 7.5q54 0 74 -51l494 -1337q8 -19 8 -37q0 -19 -13.5 -30t-35.5 -11q-18 0 -34 9.5t-22 25.5l-159 442h-725q-39 -93 -72 -177.5t-61 -159.5t-41 -107q-13 -33 -45 -33q-43 0 -43 37zM313 530 h678l-309 861h-8q-51 -129 -96 -232zM410 1692q0 22 17.5 37.5t49.5 15.5t50 -15.5t18 -37.5q0 -23 -18 -39.5t-50 -16.5t-49.5 16.5t-17.5 39.5zM838 1692q0 22 17.5 37.5t49.5 15.5t50 -15.5t18 -37.5q0 -23 -18 -39.5t-50 -16.5t-49.5 16.5t-17.5 39.5z" />
<glyph unicode="&#xc5;" horiz-adv-x="1300" d="M25 29q0 15 8 34q112 269 302 707.5t283 636.5q8 17 15.5 26.5t24.5 17t42 7.5q54 0 74 -51l494 -1337q8 -19 8 -37q0 -19 -13.5 -30t-35.5 -11q-18 0 -34 9.5t-22 25.5l-159 442h-725q-39 -93 -72 -177.5t-61 -159.5t-41 -107q-13 -33 -45 -33q-43 0 -43 37zM313 530 h678l-309 861h-8q-51 -129 -96 -232zM524 1696q0 73 50.5 122.5t123.5 49.5q76 0 124 -49t48 -123q0 -73 -50 -122.5t-122 -49.5q-80 0 -127 48.5t-47 123.5zM580 1696q0 -56 31.5 -91.5t86.5 -35.5q50 0 83.5 36t33.5 91q0 54 -31.5 90.5t-85.5 36.5q-51 0 -84.5 -36.5 t-33.5 -90.5z" />
<glyph unicode="&#xc6;" horiz-adv-x="2017" d="M6 29q0 15 17 41q139 220 442 680.5t432 644.5q35 51 94 51h885q13 0 22 -9.5t9 -21.5q0 -13 -8.5 -22t-22.5 -9h-807v-589h700q13 0 22 -8.5t9 -22.5q0 -12 -9 -21.5t-22 -9.5h-700v-663h829q15 0 24 -8.5t9 -22.5q0 -12 -10 -21.5t-23 -9.5h-878q-28 0 -38.5 12 t-10.5 35v410h-598q-164 -253 -283 -447q-17 -26 -45 -26q-17 0 -28 10t-11 27zM412 526h559v858h-15z" />
<glyph unicode="&#xc7;" horiz-adv-x="1398" d="M94 725q0 339 187 544.5t483 205.5q193 0 329.5 -63t198.5 -159q13 -19 13 -36q0 -18 -13 -30.5t-35 -12.5q-29 0 -57 43q-64 92 -166 146t-270 54q-259 0 -409 -189.5t-150 -502.5q0 -316 149.5 -504t401.5 -188q88 0 160.5 17t126 49.5t91.5 67t74 81.5q29 39 54 39 q18 0 27 -10t9 -25q0 -14 -14 -35q-31 -46 -74.5 -85.5t-107 -76.5t-152.5 -58.5t-194 -21.5q-305 0 -483.5 199.5t-178.5 550.5zM692 -389q0 10 13 45q18 52 18 115q0 12 -2 33t-2 28q0 45 41 45q43 0 43 -45q0 -136 -62 -223q-13 -19 -26 -19q-23 0 -23 21z" />
<glyph unicode="&#xc8;" horiz-adv-x="1243" d="M197 55v1309q0 40 25.5 61t68.5 21h811q13 0 22 -9.5t9 -21.5q0 -13 -8.5 -22t-22.5 -9h-807v-589h700q13 0 22 -8.5t9 -22.5q0 -12 -9 -21.5t-22 -9.5h-700v-663h829q15 0 24 -8.5t9 -22.5q0 -12 -10 -21.5t-23 -9.5h-878q-28 0 -38.5 12t-10.5 35zM463 1827 q0 20 12.5 30.5t32.5 10.5q26 0 47 -21l221 -225q12 -12 12 -23q0 -10 -7 -16t-17 -6q-14 0 -27 10l-248 197q-26 22 -26 43z" />
<glyph unicode="&#xc9;" horiz-adv-x="1243" d="M197 55v1309q0 40 25.5 61t68.5 21h811q13 0 22 -9.5t9 -21.5q0 -13 -8.5 -22t-22.5 -9h-807v-589h700q13 0 22 -8.5t9 -22.5q0 -12 -9 -21.5t-22 -9.5h-700v-663h829q15 0 24 -8.5t9 -22.5q0 -12 -10 -21.5t-23 -9.5h-878q-28 0 -38.5 12t-10.5 35zM578 1597q0 13 12 25 l221 225q21 21 43 21q20 0 32.5 -10.5t12.5 -30.5q0 -21 -27 -43l-247 -197q-13 -10 -25 -10q-22 0 -22 20z" />
<glyph unicode="&#xca;" horiz-adv-x="1243" d="M197 55v1309q0 40 25.5 61t68.5 21h811q13 0 22 -9.5t9 -21.5q0 -13 -8.5 -22t-22.5 -9h-807v-589h700q13 0 22 -8.5t9 -22.5q0 -12 -9 -21.5t-22 -9.5h-700v-663h829q15 0 24 -8.5t9 -22.5q0 -12 -10 -21.5t-23 -9.5h-878q-28 0 -38.5 12t-10.5 35zM422 1597q0 13 12 25 l238 209q12 12 30 12q19 0 31 -12l225 -209q13 -13 13 -25q0 -20 -23 -20q-12 0 -24 10l-228 168l-227 -168q-13 -10 -25 -10q-22 0 -22 20z" />
<glyph unicode="&#xcb;" horiz-adv-x="1243" d="M197 55v1309q0 40 25.5 61t68.5 21h811q13 0 22 -9.5t9 -21.5q0 -13 -8.5 -22t-22.5 -9h-807v-589h700q13 0 22 -8.5t9 -22.5q0 -12 -9 -21.5t-22 -9.5h-700v-663h829q15 0 24 -8.5t9 -22.5q0 -12 -10 -21.5t-23 -9.5h-878q-28 0 -38.5 12t-10.5 35zM385 1692 q0 22 18 37.5t50 15.5t49.5 -15.5t17.5 -37.5q0 -23 -17.5 -39.5t-49.5 -16.5t-50 16.5t-18 39.5zM813 1692q0 22 18 37.5t50 15.5t49.5 -15.5t17.5 -37.5q0 -23 -17.5 -39.5t-49.5 -16.5t-50 16.5t-18 39.5z" />
<glyph unicode="&#xcc;" horiz-adv-x="491" d="M18 1827q0 20 12.5 30.5t32.5 10.5q27 0 48 -21l221 -225q12 -12 12 -23q0 -10 -7.5 -16t-17.5 -6q-13 0 -26 10l-248 197q-27 22 -27 43zM197 45v1364q0 20 13.5 32.5t35.5 12.5q23 0 36 -12t13 -33v-1364q0 -20 -13.5 -32.5t-35.5 -12.5q-23 0 -36 12t-13 33z" />
<glyph unicode="&#xcd;" horiz-adv-x="491" d="M166 1597q0 13 12 25l221 225q21 21 43 21q20 0 32.5 -10.5t12.5 -30.5q0 -21 -26 -43l-248 -197q-12 -10 -25 -10q-22 0 -22 20zM197 45v1364q0 20 13.5 32.5t35.5 12.5q23 0 36 -12t13 -33v-1364q0 -20 -13.5 -32.5t-35.5 -12.5q-23 0 -36 12t-13 33z" />
<glyph unicode="&#xce;" horiz-adv-x="491" d="M-29 1597q0 12 13 25l237 209q12 12 31 12t31 -12l225 -209q12 -12 12 -25q0 -20 -22 -20q-12 0 -25 10l-227 168l-228 -168q-12 -10 -24 -10q-23 0 -23 20zM197 45v1364q0 20 13.5 32.5t35.5 12.5q23 0 36 -12t13 -33v-1364q0 -20 -13.5 -32.5t-35.5 -12.5q-23 0 -36 12 t-13 33z" />
<glyph unicode="&#xcf;" horiz-adv-x="491" d="M-35 1692q0 22 18 37.5t50 15.5t49.5 -15.5t17.5 -37.5q0 -23 -17.5 -39.5t-49.5 -16.5t-50 16.5t-18 39.5zM197 45v1364q0 20 13.5 32.5t35.5 12.5q23 0 36 -12t13 -33v-1364q0 -20 -13.5 -32.5t-35.5 -12.5q-23 0 -36 12t-13 33zM393 1692q0 22 18 37.5t50 15.5 t49.5 -15.5t17.5 -37.5q0 -23 -17.5 -39.5t-49.5 -16.5t-50 16.5t-18 39.5z" />
<glyph unicode="&#xd1;" horiz-adv-x="1519" d="M197 45v1354q0 28 20 41.5t51 13.5q28 0 44.5 -9.5t33.5 -31.5q34 -39 296.5 -420t477.5 -702q93 -141 129 -197h6q-6 126 -6 271v1044q0 45 37 45t37 -45v-1354q0 -55 -66 -55q-61 0 -94 51q-195 296 -774 1129q-104 154 -121 188h-6q8 -117 8 -278v-1045q0 -45 -37 -45 q-36 0 -36 45zM489 1636q0 11 11 33q55 109 159 109q41 0 77.5 -11.5t90.5 -44.5q62 -39 107 -39q35 0 56.5 17.5t43.5 58.5q10 21 27 21q11 0 17.5 -6.5t6.5 -14.5q0 -13 -10 -33q-55 -108 -160 -108q-41 0 -76.5 11t-90.5 44q-64 39 -105 39q-34 0 -57.5 -18t-44.5 -58 q-10 -20 -27 -20q-11 0 -18 6t-7 14z" />
<glyph unicode="&#xd2;" horiz-adv-x="1564" d="M94 725q0 226 89 397.5t244.5 262t354.5 90.5q150 0 276 -51t217.5 -145.5t143 -236.5t51.5 -317q0 -170 -52.5 -311.5t-144 -237t-218 -148.5t-273.5 -53q-151 0 -277.5 51t-217.5 145.5t-142 236.5t-51 317zM205 725q0 -320 155 -506t422 -186q263 0 420.5 189 t157.5 503q0 318 -157 505t-421 187q-265 0 -421 -189t-156 -503zM588 1827q0 20 12.5 30.5t32.5 10.5q26 0 47 -21l221 -225q12 -12 12 -23q0 -10 -7 -16t-17 -6q-14 0 -27 10l-248 197q-26 22 -26 43z" />
<glyph unicode="&#xd3;" horiz-adv-x="1564" d="M94 725q0 226 89 397.5t244.5 262t354.5 90.5q150 0 276 -51t217.5 -145.5t143 -236.5t51.5 -317q0 -170 -52.5 -311.5t-144 -237t-218 -148.5t-273.5 -53q-151 0 -277.5 51t-217.5 145.5t-142 236.5t-51 317zM205 725q0 -320 155 -506t422 -186q263 0 420.5 189 t157.5 503q0 318 -157 505t-421 187q-265 0 -421 -189t-156 -503zM692 1597q0 12 13 25l221 225q21 21 43 21q20 0 32.5 -10.5t12.5 -30.5q0 -21 -27 -43l-248 -197q-13 -10 -24 -10q-23 0 -23 20z" />
<glyph unicode="&#xd4;" horiz-adv-x="1564" d="M94 725q0 226 89 397.5t244.5 262t354.5 90.5q150 0 276 -51t217.5 -145.5t143 -236.5t51.5 -317q0 -170 -52.5 -311.5t-144 -237t-218 -148.5t-273.5 -53q-151 0 -277.5 51t-217.5 145.5t-142 236.5t-51 317zM205 725q0 -320 155 -506t422 -186q263 0 420.5 189 t157.5 503q0 318 -157 505t-421 187q-265 0 -421 -189t-156 -503zM524 1597q0 12 13 25l237 209q12 12 31 12t31 -12l225 -209q12 -12 12 -25q0 -20 -22 -20q-13 0 -25 10l-227 168l-228 -168q-12 -10 -24 -10q-23 0 -23 20z" />
<glyph unicode="&#xd5;" horiz-adv-x="1564" d="M94 725q0 226 89 397.5t244.5 262t354.5 90.5q150 0 276 -51t217.5 -145.5t143 -236.5t51.5 -317q0 -170 -52.5 -311.5t-144 -237t-218 -148.5t-273.5 -53q-151 0 -277.5 51t-217.5 145.5t-142 236.5t-51 317zM205 725q0 -320 155 -506t422 -186q263 0 420.5 189 t157.5 503q0 318 -157 505t-421 187q-265 0 -421 -189t-156 -503zM524 1636q0 11 11 33q55 109 159 109q41 0 77.5 -11.5t90.5 -44.5q62 -39 107 -39q35 0 56.5 17.5t43.5 58.5q11 21 27 21q11 0 17.5 -6.5t6.5 -14.5q0 -13 -10 -33q-55 -108 -160 -108q-41 0 -77 11t-91 44 q-64 39 -104 39q-63 0 -103 -76q-10 -20 -26 -20q-11 0 -18 6t-7 14z" />
<glyph unicode="&#xd6;" horiz-adv-x="1564" d="M94 725q0 226 89 397.5t244.5 262t354.5 90.5q150 0 276 -51t217.5 -145.5t143 -236.5t51.5 -317q0 -170 -52.5 -311.5t-144 -237t-218 -148.5t-273.5 -53q-151 0 -277.5 51t-217.5 145.5t-142 236.5t-51 317zM205 725q0 -320 155 -506t422 -186q263 0 420.5 189 t157.5 503q0 318 -157 505t-421 187q-265 0 -421 -189t-156 -503zM518 1692q0 22 18 37.5t50 15.5t49.5 -15.5t17.5 -37.5q0 -23 -17.5 -39.5t-49.5 -16.5t-50 16.5t-18 39.5zM946 1692q0 22 18 37.5t50 15.5t49.5 -15.5t17.5 -37.5q0 -23 -17.5 -39.5t-49.5 -16.5t-50 16.5 t-18 39.5z" />
<glyph unicode="&#xd7;" horiz-adv-x="997" d="M102 299q0 14 15 29l336 336l-338 340q-13 13 -13 24q0 9 10 18t23 9q16 0 29 -13l334 -335l333 335q13 13 31 13q11 0 21 -6.5t10 -16.5q0 -14 -14 -28l-338 -338l342 -338q12 -12 12 -25q0 -10 -9 -18.5t-22 -8.5q-17 0 -30 13l-338 334l-332 -334q-13 -13 -29 -13 q-12 0 -22.5 6.5t-10.5 16.5z" />
<glyph unicode="&#xd8;" horiz-adv-x="1564" d="M94 725q0 226 89 397.5t244.5 262t354.5 90.5q245 0 418 -132l96 130q15 22 37 22q15 0 25 -8t10 -21q0 -12 -12 -28l-103 -138q217 -207 217 -575q0 -170 -52.5 -311.5t-144 -237t-218 -148.5t-273.5 -53q-250 0 -420 129l-94 -127q-15 -22 -37 -22q-15 0 -24.5 8 t-9.5 21q0 12 12 28l100 135q-215 205 -215 578zM205 725q0 -324 155 -508l793 1063q-149 137 -371 137q-265 0 -421 -189t-156 -503zM410 166q148 -133 372 -133q263 0 420.5 189t157.5 503q0 315 -158 506z" />
<glyph unicode="&#xd9;" horiz-adv-x="1435" d="M164 567v842q0 20 13.5 32.5t35.5 12.5q23 0 36 -12t13 -33v-862q0 -111 25.5 -201.5t78.5 -162t143 -111t212 -39.5q210 0 337.5 131t127.5 371v878q0 20 12 30.5t31 10.5q43 0 43 -41v-872q0 -111 -32.5 -210t-96.5 -180t-172.5 -128.5t-249.5 -47.5q-557 0 -557 592z M514 1827q0 20 12.5 30.5t32.5 10.5q26 0 47 -21l221 -225q13 -13 13 -23t-7.5 -16t-17.5 -6q-15 0 -27 10l-247 197q-27 22 -27 43z" />
<glyph unicode="&#xda;" horiz-adv-x="1435" d="M164 567v842q0 20 13.5 32.5t35.5 12.5q23 0 36 -12t13 -33v-862q0 -111 25.5 -201.5t78.5 -162t143 -111t212 -39.5q210 0 337.5 131t127.5 371v878q0 20 12 30.5t31 10.5q43 0 43 -41v-872q0 -111 -32.5 -210t-96.5 -180t-172.5 -128.5t-249.5 -47.5q-557 0 -557 592z M639 1597q0 13 12 25l221 225q21 21 43 21q20 0 33 -11t13 -30q0 -21 -27 -43l-248 -197q-12 -10 -24 -10q-23 0 -23 20z" />
<glyph unicode="&#xdb;" horiz-adv-x="1435" d="M164 567v842q0 20 13.5 32.5t35.5 12.5q23 0 36 -12t13 -33v-862q0 -111 25.5 -201.5t78.5 -162t143 -111t212 -39.5q210 0 337.5 131t127.5 371v878q0 20 12 30.5t31 10.5q43 0 43 -41v-872q0 -111 -32.5 -210t-96.5 -180t-172.5 -128.5t-249.5 -47.5q-557 0 -557 592z M463 1597q0 13 12 25l238 209q12 12 30 12q19 0 31 -12l225 -209q13 -13 13 -25q0 -20 -23 -20q-11 0 -24 10l-228 168l-227 -168q-12 -10 -25 -10q-22 0 -22 20z" />
<glyph unicode="&#xdc;" horiz-adv-x="1435" d="M164 567v842q0 20 13.5 32.5t35.5 12.5q23 0 36 -12t13 -33v-862q0 -111 25.5 -201.5t78.5 -162t143 -111t212 -39.5q210 0 337.5 131t127.5 371v878q0 20 12 30.5t31 10.5q43 0 43 -41v-872q0 -111 -32.5 -210t-96.5 -180t-172.5 -128.5t-249.5 -47.5q-557 0 -557 592z M449 1692q0 22 17.5 37.5t49.5 15.5t50 -15.5t18 -37.5q0 -23 -18 -39.5t-50 -16.5t-49.5 16.5t-17.5 39.5zM877 1692q0 22 17.5 37.5t49.5 15.5t50 -15.5t18 -37.5q0 -23 -18 -39.5t-50 -16.5t-49.5 16.5t-17.5 39.5z" />
<glyph unicode="&#xdf;" horiz-adv-x="1280" d="M164 41v979q0 130 34.5 230t85.5 156t120.5 91.5t129 47t121.5 11.5q72 0 139.5 -14.5t128 -45.5t105.5 -76t71.5 -109t26.5 -140q0 -135 -82.5 -234t-228.5 -120v-6q176 -24 275.5 -132.5t99.5 -268.5q0 -85 -28.5 -161.5t-84 -138.5t-146 -98.5t-204.5 -36.5 q-89 0 -167.5 17.5t-123.5 48.5q-20 12 -20 33q0 16 10.5 25.5t24.5 9.5q17 0 51 -21q97 -61 229 -61q73 0 133.5 19.5t101 53.5t68.5 80t40.5 97t12.5 108q0 200 -114 296.5t-322 96.5h-26q-14 0 -22.5 8t-8.5 21q0 12 9 20.5t22 8.5h59q193 0 279 108q69 84 69 227 q0 110 -54.5 187t-138.5 111t-188 34q-177 0 -285 -119t-108 -342v-1001q0 -19 -13.5 -30t-33.5 -11q-21 0 -34 10.5t-13 30.5z" />
<glyph unicode="&#xe0;" d="M74 498q0 243 139 394.5t358 151.5q80 0 145.5 -23.5t109.5 -63.5t72.5 -82t47.5 -91h6v195q0 20 13 30.5t34 10.5q20 0 34 -11t14 -30v-938q0 -20 -13.5 -30.5t-34.5 -10.5q-20 0 -33.5 11t-13.5 30v215h-6q-30 -77 -78 -133.5t-104.5 -87.5t-113 -45.5t-115.5 -14.5 q-215 0 -338 144.5t-123 378.5zM176 498q0 -217 100.5 -343t274.5 -126q122 0 215.5 65.5t142.5 173.5t49 240q0 136 -41.5 243.5t-130.5 173.5t-215 66q-176 0 -285.5 -137t-109.5 -356zM365 1417q0 20 12.5 30.5t32.5 10.5q27 0 47 -20l221 -226q12 -12 12 -22t-7.5 -16.5 t-16.5 -6.5q-13 0 -27 11l-248 196q-26 22 -26 43z" />
<glyph unicode="&#xe1;" d="M74 498q0 243 139 394.5t358 151.5q80 0 145.5 -23.5t109.5 -63.5t72.5 -82t47.5 -91h6v195q0 20 13 30.5t34 10.5q20 0 34 -11t14 -30v-938q0 -20 -13.5 -30.5t-34.5 -10.5q-20 0 -33.5 11t-13.5 30v215h-6q-30 -77 -78 -133.5t-104.5 -87.5t-113 -45.5t-115.5 -14.5 q-215 0 -338 144.5t-123 378.5zM176 498q0 -217 100.5 -343t274.5 -126q122 0 215.5 65.5t142.5 173.5t49 240q0 136 -41.5 243.5t-130.5 173.5t-215 66q-176 0 -285.5 -137t-109.5 -356zM487 1188q0 11 13 24l221 226q20 20 43 20q20 0 32.5 -10.5t12.5 -30.5 q0 -21 -27 -43l-247 -196q-14 -11 -25 -11q-8 0 -15.5 5.5t-7.5 15.5z" />
<glyph unicode="&#xe2;" d="M74 498q0 243 139 394.5t358 151.5q80 0 145.5 -23.5t109.5 -63.5t72.5 -82t47.5 -91h6v195q0 20 13 30.5t34 10.5q20 0 34 -11t14 -30v-938q0 -20 -13.5 -30.5t-34.5 -10.5q-20 0 -33.5 11t-13.5 30v215h-6q-30 -77 -78 -133.5t-104.5 -87.5t-113 -45.5t-115.5 -14.5 q-215 0 -338 144.5t-123 378.5zM176 498q0 -217 100.5 -343t274.5 -126q122 0 215.5 65.5t142.5 173.5t49 240q0 136 -41.5 243.5t-130.5 173.5t-215 66q-176 0 -285.5 -137t-109.5 -356zM309 1188q0 11 13 24l237 209q13 13 31 13t31 -13l225 -209q12 -12 12 -24 q0 -10 -7 -15.5t-15 -5.5q-11 0 -25 11l-227 168l-228 -168q-14 -11 -24 -11q-8 0 -15.5 5.5t-7.5 15.5z" />
<glyph unicode="&#xe3;" d="M74 498q0 243 139 394.5t358 151.5q80 0 145.5 -23.5t109.5 -63.5t72.5 -82t47.5 -91h6v195q0 20 13 30.5t34 10.5q20 0 34 -11t14 -30v-938q0 -20 -13.5 -30.5t-34.5 -10.5q-20 0 -33.5 11t-13.5 30v215h-6q-30 -77 -78 -133.5t-104.5 -87.5t-113 -45.5t-115.5 -14.5 q-215 0 -338 144.5t-123 378.5zM176 498q0 -217 100.5 -343t274.5 -126q122 0 215.5 65.5t142.5 173.5t49 240q0 136 -41.5 243.5t-130.5 173.5t-215 66q-176 0 -285.5 -137t-109.5 -356zM281 1227q0 13 10 33q55 108 160 108q42 0 77.5 -11t89.5 -44q62 -39 107 -39 q35 0 56.5 17.5t43.5 58.5q10 20 27 20q11 0 18 -6t7 -14q0 -11 -11 -33q-55 -109 -159 -109q-41 0 -76.5 11t-91.5 45q-64 39 -105 39q-34 0 -57.5 -18t-44.5 -58q-10 -21 -27 -21q-11 0 -17.5 6.5t-6.5 14.5z" />
<glyph unicode="&#xe4;" d="M74 498q0 243 139 394.5t358 151.5q80 0 145.5 -23.5t109.5 -63.5t72.5 -82t47.5 -91h6v195q0 20 13 30.5t34 10.5q20 0 34 -11t14 -30v-938q0 -20 -13.5 -30.5t-34.5 -10.5q-20 0 -33.5 11t-13.5 30v215h-6q-30 -77 -78 -133.5t-104.5 -87.5t-113 -45.5t-115.5 -14.5 q-215 0 -338 144.5t-123 378.5zM176 498q0 -217 100.5 -343t274.5 -126q122 0 215.5 65.5t142.5 173.5t49 240q0 136 -41.5 243.5t-130.5 173.5t-215 66q-176 0 -285.5 -137t-109.5 -356zM299 1282q0 22 18 37.5t50 15.5t49.5 -15.5t17.5 -37.5q0 -23 -17.5 -39t-49.5 -16 t-50 16t-18 39zM727 1282q0 22 18 37.5t50 15.5t49.5 -15.5t17.5 -37.5q0 -23 -17.5 -39t-49.5 -16t-50 16t-18 39z" />
<glyph unicode="&#xe5;" d="M74 498q0 243 139 394.5t358 151.5q80 0 145.5 -23.5t109.5 -63.5t72.5 -82t47.5 -91h6v195q0 20 13 30.5t34 10.5q20 0 34 -11t14 -30v-938q0 -20 -13.5 -30.5t-34.5 -10.5q-20 0 -33.5 11t-13.5 30v215h-6q-30 -77 -78 -133.5t-104.5 -87.5t-113 -45.5t-115.5 -14.5 q-215 0 -338 144.5t-123 378.5zM176 498q0 -217 100.5 -343t274.5 -126q122 0 215.5 65.5t142.5 173.5t49 240q0 136 -41.5 243.5t-130.5 173.5t-215 66q-176 0 -285.5 -137t-109.5 -356zM420 1313q0 73 50.5 122.5t123.5 49.5q76 0 124 -49t48 -123q0 -73 -50 -122.5 t-122 -49.5q-80 0 -127 48.5t-47 123.5zM475 1313q0 -56 31.5 -91.5t87.5 -35.5q50 0 83.5 36t33.5 91q0 54 -31.5 90.5t-85.5 36.5q-51 0 -85 -36.5t-34 -90.5z" />
<glyph unicode="&#xe6;" horiz-adv-x="1984" d="M74 498q0 243 139 394.5t358 151.5q80 0 146 -23t110.5 -62t73.5 -81t47 -90h6v191q0 20 13 30.5t34 10.5q20 0 34 -11t14 -30v-191h8q17 49 47.5 92.5t75.5 81.5t112 60t146 22q197 0 322.5 -119t125.5 -331v-23q0 -57 -59 -57h-778v-22q0 -202 104 -331.5t283 -129.5 q109 0 183 31t144 104q29 29 49 29q14 0 22.5 -8.5t8.5 -22.5q0 -12 -10 -25q-148 -164 -387 -164q-280 0 -391 254h-6v-188q0 -20 -13.5 -30.5t-34.5 -10.5q-20 0 -33.5 11t-13.5 30v209h-6q-30 -77 -77 -132.5t-103.5 -85.5t-113.5 -43.5t-119 -13.5q-215 0 -338 144.5 t-123 378.5zM176 498q0 -217 100.5 -343t274.5 -126q122 0 214.5 65t140.5 172.5t48 239.5q0 102 -23.5 188.5t-70 153.5t-120.5 105t-169 38q-176 0 -285.5 -137t-109.5 -356zM1053 569h741v21q0 104 -29 183t-79.5 125.5t-113 69.5t-136.5 23q-162 0 -265 -110t-118 -312z " />
<glyph unicode="&#xe7;" horiz-adv-x="1036" d="M74 506q0 149 61.5 271.5t177.5 194.5t265 72q120 0 221 -39t155 -118q13 -19 13 -35q0 -15 -11.5 -28t-31.5 -13q-30 0 -54 39q-46 76 -116.5 109.5t-175.5 33.5q-183 0 -292.5 -137t-109.5 -350q0 -209 102.5 -342t284.5 -133q187 0 316 137q29 33 49 33q13 0 23 -9 t10 -22q0 -11 -13 -27q-146 -168 -389 -168q-153 0 -264.5 70t-166 189t-54.5 272zM494 -389q0 13 12 45q18 52 18 115q0 12 -2 33t-2 28q0 45 41 45q43 0 43 -45q0 -137 -61 -223q-13 -19 -27 -19q-22 0 -22 21z" />
<glyph unicode="&#xe8;" horiz-adv-x="1110" d="M74 492q0 242 134 397t359 155q197 0 323 -119t126 -331v-23q0 -25 -15 -41t-45 -16h-780v-22q0 -203 100 -332t279 -129q111 0 190 31.5t148 103.5q29 29 49 29q14 0 22.5 -8.5t8.5 -22.5q0 -12 -10 -25q-148 -164 -412 -164q-220 0 -348.5 139.5t-128.5 377.5zM180 569 h744v21q0 104 -29 183t-79.5 125.5t-113.5 69.5t-137 23q-161 0 -264.5 -111t-120.5 -311zM375 1417q0 20 12.5 30.5t32.5 10.5q27 0 47 -20l221 -226q12 -12 12 -22t-7.5 -16.5t-16.5 -6.5q-13 0 -27 11l-248 196q-26 22 -26 43z" />
<glyph unicode="&#xe9;" horiz-adv-x="1110" d="M74 492q0 242 134 397t359 155q197 0 323 -119t126 -331v-23q0 -25 -15 -41t-45 -16h-780v-22q0 -203 100 -332t279 -129q111 0 190 31.5t148 103.5q29 29 49 29q14 0 22.5 -8.5t8.5 -22.5q0 -12 -10 -25q-148 -164 -412 -164q-220 0 -348.5 139.5t-128.5 377.5zM180 569 h744v21q0 104 -29 183t-79.5 125.5t-113.5 69.5t-137 23q-161 0 -264.5 -111t-120.5 -311zM463 1188q0 12 12 24l221 226q20 20 43 20q20 0 32.5 -10.5t12.5 -30.5q0 -21 -26 -43l-248 -196q-14 -11 -25 -11q-8 0 -15 5.5t-7 15.5z" />
<glyph unicode="&#xea;" horiz-adv-x="1110" d="M74 492q0 242 134 397t359 155q197 0 323 -119t126 -331v-23q0 -25 -15 -41t-45 -16h-780v-22q0 -203 100 -332t279 -129q111 0 190 31.5t148 103.5q29 29 49 29q14 0 22.5 -8.5t8.5 -22.5q0 -12 -10 -25q-148 -164 -412 -164q-220 0 -348.5 139.5t-128.5 377.5zM180 569 h744v21q0 104 -29 183t-79.5 125.5t-113.5 69.5t-137 23q-161 0 -264.5 -111t-120.5 -311zM297 1188q0 12 12 24l238 209q13 13 31 13q17 0 30 -13l226 -209q12 -12 12 -24q0 -10 -7 -15.5t-16 -5.5q-10 0 -24 11l-228 168l-227 -168q-14 -11 -25 -11q-8 0 -15 5.5t-7 15.5z " />
<glyph unicode="&#xeb;" horiz-adv-x="1110" d="M74 492q0 242 134 397t359 155q197 0 323 -119t126 -331v-23q0 -25 -15 -41t-45 -16h-780v-22q0 -203 100 -332t279 -129q111 0 190 31.5t148 103.5q29 29 49 29q14 0 22.5 -8.5t8.5 -22.5q0 -12 -10 -25q-148 -164 -412 -164q-220 0 -348.5 139.5t-128.5 377.5zM180 569 h744v21q0 104 -29 183t-79.5 125.5t-113.5 69.5t-137 23q-161 0 -264.5 -111t-120.5 -311zM289 1282q0 22 17.5 37.5t49.5 15.5t50 -15.5t18 -37.5q0 -23 -18 -39t-50 -16t-49.5 16t-17.5 39zM717 1282q0 22 17.5 37.5t49.5 15.5t50 -15.5t18 -37.5q0 -23 -18 -39t-50 -16 t-49.5 16t-17.5 39z" />
<glyph unicode="&#xec;" horiz-adv-x="421" d="M-33 1417q0 20 12.5 30.5t32.5 10.5q27 0 47 -20l222 -226q12 -12 12 -22t-7.5 -16.5t-17.5 -6.5q-12 0 -26 11l-248 196q-27 22 -27 43zM164 41v938q0 20 13 30.5t34 10.5q20 0 33.5 -11t13.5 -30v-938q0 -20 -13 -30.5t-34 -10.5q-20 0 -33.5 11t-13.5 30z" />
<glyph unicode="&#xed;" horiz-adv-x="421" d="M117 1188q0 12 12 24l221 226q20 20 43 20q20 0 32.5 -10.5t12.5 -30.5q0 -21 -26 -43l-248 -196q-14 -11 -25 -11q-8 0 -15 5.5t-7 15.5zM164 41v938q0 20 13 30.5t34 10.5q20 0 33.5 -11t13.5 -30v-938q0 -20 -13 -30.5t-34 -10.5q-20 0 -33.5 11t-13.5 30z" />
<glyph unicode="&#xee;" horiz-adv-x="421" d="M-61 1188q0 12 12 24l237 209q13 13 31 13t31 -13l225 -209q12 -12 12 -24q0 -10 -7 -15.5t-15 -5.5q-11 0 -25 11l-227 168l-227 -168q-14 -11 -25 -11q-8 0 -15 5.5t-7 15.5zM164 41v938q0 20 13 30.5t34 10.5q20 0 33.5 -11t13.5 -30v-938q0 -20 -13 -30.5t-34 -10.5 q-20 0 -33.5 11t-13.5 30z" />
<glyph unicode="&#xef;" horiz-adv-x="421" d="M-70 1282q0 22 18 37.5t50 15.5t50 -15.5t18 -37.5q0 -23 -18 -39t-50 -16t-50 16t-18 39zM164 41v938q0 20 13 30.5t34 10.5q20 0 33.5 -11t13.5 -30v-938q0 -20 -13 -30.5t-34 -10.5q-20 0 -33.5 11t-13.5 30zM358 1282q0 22 18 37.5t50 15.5t50 -15.5t18 -37.5 q0 -23 -18 -39t-50 -16t-50 16t-18 39z" />
<glyph unicode="&#xf1;" horiz-adv-x="1173" d="M164 41v938q0 20 13 30.5t34 10.5q20 0 33.5 -11t13.5 -30v-178h8q49 121 146.5 182t218.5 61q399 0 399 -407v-596q0 -20 -13 -30.5t-34 -10.5q-20 0 -33.5 11t-13.5 30v592q0 356 -309 356q-161 0 -265 -115.5t-104 -302.5v-530q0 -20 -13 -30.5t-34 -10.5 q-20 0 -33.5 11t-13.5 30zM303 1227q0 13 10 33q55 108 160 108q42 0 78 -11t90 -44q62 -39 107 -39q35 0 56.5 17.5t43.5 58.5q10 20 26 20q11 0 18 -6t7 -14q0 -13 -10 -33q-55 -109 -160 -109q-41 0 -76.5 11t-91.5 45q-64 39 -104 39q-63 0 -103 -76q-10 -21 -26 -21 q-11 0 -18 6.5t-7 14.5z" />
<glyph unicode="&#xf2;" horiz-adv-x="1179" d="M74 504q0 123 41.5 225.5t112 171t164 106t198.5 37.5q143 0 259 -62t186.5 -185t70.5 -287q0 -163 -70.5 -286.5t-186.5 -186t-259 -62.5q-142 0 -258 60.5t-187 182.5t-71 286zM180 504q0 -113 32.5 -204.5t89 -150t130.5 -89.5t158 -31q176 0 292.5 130t116.5 351 q0 226 -117 353.5t-292 127.5q-176 0 -293 -132t-117 -355zM401 1417q0 20 12.5 30.5t32.5 10.5q28 0 48 -20l221 -226q12 -12 12 -22t-7.5 -16.5t-17.5 -6.5q-12 0 -26 11l-248 196q-27 22 -27 43z" />
<glyph unicode="&#xf3;" horiz-adv-x="1179" d="M74 504q0 123 41.5 225.5t112 171t164 106t198.5 37.5q143 0 259 -62t186.5 -185t70.5 -287q0 -163 -70.5 -286.5t-186.5 -186t-259 -62.5q-142 0 -258 60.5t-187 182.5t-71 286zM180 504q0 -113 32.5 -204.5t89 -150t130.5 -89.5t158 -31q176 0 292.5 130t116.5 351 q0 226 -117 353.5t-292 127.5q-176 0 -293 -132t-117 -355zM512 1188q0 12 12 24l221 226q20 20 43 20q20 0 33 -11t13 -30q0 -21 -27 -43l-248 -196q-14 -11 -24 -11q-9 0 -16 5.5t-7 15.5z" />
<glyph unicode="&#xf4;" horiz-adv-x="1179" d="M74 504q0 123 41.5 225.5t112 171t164 106t198.5 37.5q143 0 259 -62t186.5 -185t70.5 -287q0 -163 -70.5 -286.5t-186.5 -186t-259 -62.5q-142 0 -258 60.5t-187 182.5t-71 286zM180 504q0 -113 32.5 -204.5t89 -150t130.5 -89.5t158 -31q176 0 292.5 130t116.5 351 q0 226 -117 353.5t-292 127.5q-176 0 -293 -132t-117 -355zM332 1188q0 12 12 24l238 209q13 13 30 13q18 0 31 -13l225 -209q13 -13 13 -24q0 -10 -7.5 -15.5t-15.5 -5.5q-10 0 -24 11l-228 168l-227 -168q-14 -11 -25 -11q-8 0 -15 5.5t-7 15.5z" />
<glyph unicode="&#xf5;" horiz-adv-x="1179" d="M74 504q0 123 41.5 225.5t112 171t164 106t198.5 37.5q143 0 259 -62t186.5 -185t70.5 -287q0 -163 -70.5 -286.5t-186.5 -186t-259 -62.5q-142 0 -258 60.5t-187 182.5t-71 286zM180 504q0 -113 32.5 -204.5t89 -150t130.5 -89.5t158 -31q176 0 292.5 130t116.5 351 q0 226 -117 353.5t-292 127.5q-176 0 -293 -132t-117 -355zM295 1227q0 13 10 33q55 108 160 108q42 0 78 -11t90 -44q62 -39 106 -39q35 0 57.5 18t43.5 58q10 20 26 20q11 0 18 -6t7 -14q0 -13 -10 -33q-55 -109 -160 -109q-41 0 -76.5 11t-91.5 45q-64 39 -104 39 q-63 0 -103 -76q-10 -21 -27 -21q-11 0 -17.5 6.5t-6.5 14.5z" />
<glyph unicode="&#xf6;" horiz-adv-x="1179" d="M74 504q0 123 41.5 225.5t112 171t164 106t198.5 37.5q143 0 259 -62t186.5 -185t70.5 -287q0 -163 -70.5 -286.5t-186.5 -186t-259 -62.5q-142 0 -258 60.5t-187 182.5t-71 286zM180 504q0 -113 32.5 -204.5t89 -150t130.5 -89.5t158 -31q176 0 292.5 130t116.5 351 q0 226 -117 353.5t-292 127.5q-176 0 -293 -132t-117 -355zM313 1282q0 22 18 37.5t50 15.5t50 -15.5t18 -37.5q0 -23 -18 -39t-50 -16t-50 16t-18 39zM741 1282q0 22 18 37.5t50 15.5t50 -15.5t18 -37.5q0 -23 -18 -39t-50 -16t-50 16t-18 39z" />
<glyph unicode="&#xf7;" horiz-adv-x="1116" d="M102 668q0 12 9 21t22 9h850q14 0 22.5 -8.5t8.5 -21.5q0 -12 -9 -21.5t-22 -9.5h-850q-13 0 -22 8.5t-9 22.5zM489 293q0 24 18 41.5t50 17.5q33 0 50.5 -17.5t17.5 -41.5q0 -26 -17.5 -44t-50.5 -18q-32 0 -50 18.5t-18 43.5zM489 1042q0 24 18 42t50 18q33 0 50.5 -18 t17.5 -42q0 -25 -17.5 -43t-50.5 -18q-32 0 -50 18t-18 43z" />
<glyph unicode="&#xf8;" horiz-adv-x="1179" d="M74 504q0 123 41.5 225.5t112 171t164 106t198.5 37.5q170 0 301 -90l74 99q18 22 34 22q14 0 23.5 -7t9.5 -19q0 -13 -12 -29l-80 -105q79 -69 122.5 -172.5t43.5 -232.5q0 -163 -70.5 -286.5t-186.5 -186t-259 -62.5q-170 0 -303 88l-74 -96q-18 -22 -35 -22 q-14 0 -23.5 7t-9.5 19t13 29l78 102q-162 149 -162 402zM180 504q0 -212 105 -336l561 731q-106 92 -256 92q-176 0 -293 -132t-117 -355zM330 121q109 -92 260 -92q176 0 292.5 130t116.5 351q0 215 -108 342z" />
<glyph unicode="&#xf9;" horiz-adv-x="1173" d="M143 383v596q0 20 13 30.5t34 10.5q20 0 34 -11t14 -30v-592q0 -356 309 -356q161 0 264.5 115.5t103.5 302.5v530q0 20 13.5 30.5t34.5 10.5q20 0 33.5 -11t13.5 -30v-938q0 -20 -13 -30.5t-34 -10.5q-20 0 -34 11t-14 30v178h-8q-49 -121 -146 -182.5t-218 -61.5 q-201 0 -300.5 104.5t-99.5 303.5zM342 1417q0 20 12.5 30.5t32.5 10.5q27 0 47 -20l221 -226q13 -13 13 -22q0 -10 -7.5 -16.5t-17.5 -6.5q-13 0 -27 11l-247 196q-27 22 -27 43z" />
<glyph unicode="&#xfa;" horiz-adv-x="1173" d="M143 383v596q0 20 13 30.5t34 10.5q20 0 34 -11t14 -30v-592q0 -356 309 -356q161 0 264.5 115.5t103.5 302.5v530q0 20 13.5 30.5t34.5 10.5q20 0 33.5 -11t13.5 -30v-938q0 -20 -13 -30.5t-34 -10.5q-20 0 -34 11t-14 30v178h-8q-49 -121 -146 -182.5t-218 -61.5 q-201 0 -300.5 104.5t-99.5 303.5zM496 1188q0 12 12 24l221 226q20 20 43 20q20 0 32.5 -10.5t12.5 -30.5q0 -21 -26 -43l-248 -196q-14 -11 -25 -11q-8 0 -15 5.5t-7 15.5z" />
<glyph unicode="&#xfb;" horiz-adv-x="1173" d="M143 383v596q0 20 13 30.5t34 10.5q20 0 34 -11t14 -30v-592q0 -356 309 -356q161 0 264.5 115.5t103.5 302.5v530q0 20 13.5 30.5t34.5 10.5q20 0 33.5 -11t13.5 -30v-938q0 -20 -13 -30.5t-34 -10.5q-20 0 -34 11t-14 30v178h-8q-49 -121 -146 -182.5t-218 -61.5 q-201 0 -300.5 104.5t-99.5 303.5zM307 1188q0 12 12 24l238 209q13 13 31 13q17 0 30 -13l226 -209q12 -12 12 -24q0 -10 -7 -15.5t-15 -5.5q-11 0 -25 11l-227 168l-228 -168q-14 -11 -24 -11q-8 0 -15.5 5.5t-7.5 15.5z" />
<glyph unicode="&#xfc;" horiz-adv-x="1173" d="M143 383v596q0 20 13 30.5t34 10.5q20 0 34 -11t14 -30v-592q0 -356 309 -356q161 0 264.5 115.5t103.5 302.5v530q0 20 13.5 30.5t34.5 10.5q20 0 33.5 -11t13.5 -30v-938q0 -20 -13 -30.5t-34 -10.5q-20 0 -34 11t-14 30v178h-8q-49 -121 -146 -182.5t-218 -61.5 q-201 0 -300.5 104.5t-99.5 303.5zM297 1282q0 22 18 37.5t50 15.5t49.5 -15.5t17.5 -37.5q0 -23 -17.5 -39t-49.5 -16t-50 16t-18 39zM725 1282q0 22 18 37.5t50 15.5t49.5 -15.5t17.5 -37.5q0 -23 -17.5 -39t-49.5 -16t-50 16t-18 39z" />
<glyph unicode="&#xff;" horiz-adv-x="950" d="M8 979q0 19 13.5 30t35.5 11q40 0 52 -35l286 -731q68 -175 74 -193h6l64 148q161 369 223 532q25 65 90 246q13 33 43 33q44 0 47 -37q0 -16 -8 -35q-107 -253 -328 -731q-201 -438 -301 -625q-21 -38 -51 -38q-16 0 -27.5 10t-11.5 26q0 23 18 50q131 204 193 323 l-35 76l-373 903q-10 23 -10 37zM209 1282q0 22 17.5 37.5t49.5 15.5t50 -15.5t18 -37.5q0 -23 -18 -39t-50 -16t-49.5 16t-17.5 39zM637 1282q0 22 18 37.5t50 15.5t49.5 -15.5t17.5 -37.5q0 -23 -17.5 -39t-49.5 -16t-50 16t-18 39z" />
<glyph unicode="&#x152;" horiz-adv-x="2402" d="M94 725q0 226 89 397.5t244.5 262t354.5 90.5q396 0 566 -326h8v215q0 40 25.5 61t68.5 21h811q13 0 22 -9.5t9 -21.5q0 -13 -9 -22t-22 -9h-807v-589h700q14 0 22.5 -8.5t8.5 -22.5q0 -12 -9 -21.5t-22 -9.5h-700v-663h830q15 0 23.5 -8.5t8.5 -22.5q0 -12 -9.5 -21.5 t-22.5 -9.5h-879q-28 0 -38.5 12t-10.5 35v254h-8q-84 -165 -228.5 -249.5t-337.5 -84.5q-151 0 -277.5 51t-217.5 145.5t-142 236.5t-51 317zM205 725q0 -320 155 -506t422 -186t422.5 183t155.5 509q0 329 -155.5 510.5t-422.5 181.5q-265 0 -421 -189t-156 -503z" />
<glyph unicode="&#x153;" horiz-adv-x="2027" d="M74 504q0 123 41.5 225.5t112 171t164 106t198.5 37.5q162 0 279.5 -80t172.5 -243h9q54 159 164.5 241t269.5 82q197 0 322.5 -119t125.5 -331v-23q0 -57 -59 -57h-780v-22q0 -203 100 -332t279 -129q110 0 189 31.5t148 103.5q29 29 50 29q13 0 21.5 -8.5t8.5 -22.5 q0 -12 -10 -25q-148 -164 -412 -164q-322 0 -424 308h-8q-57 -153 -173.5 -230.5t-272.5 -77.5q-142 0 -258 60.5t-187 182.5t-71 286zM180 504q0 -113 32.5 -204.5t89 -150t130.5 -89.5t158 -31q178 0 293.5 126t115.5 355q0 232 -116 356.5t-293 124.5q-176 0 -293 -132 t-117 -355zM1098 569h743v21q0 104 -29 183t-79.5 125.5t-113 69.5t-136.5 23q-161 0 -264.5 -111t-120.5 -311z" />
<glyph unicode="&#x178;" horiz-adv-x="1126" d="M0 1417q0 17 12.5 27t30.5 10q40 0 63 -39l465 -772q273 437 314 508q43 76 77 137t48.5 87t25.5 44q21 35 51 35q15 0 27 -8t12 -25q0 -15 -18 -45q-94 -156 -249 -395t-259 -387v-549q0 -20 -13.5 -32.5t-35.5 -12.5q-23 0 -36 12t-13 33v549l-490 790q-12 19 -12 33z M293 1692q0 22 17.5 37.5t49.5 15.5t50 -15.5t18 -37.5q0 -23 -18 -39.5t-50 -16.5t-49.5 16.5t-17.5 39.5zM721 1692q0 22 17.5 37.5t49.5 15.5t50 -15.5t18 -37.5q0 -23 -18 -39.5t-50 -16.5t-49.5 16.5t-17.5 39.5z" />
<glyph unicode="&#x2c6;" horiz-adv-x="997" d="M252 1188q0 12 12 24l238 209q13 13 30 13q18 0 31 -13l225 -209q13 -13 13 -24q0 -10 -7.5 -15.5t-15.5 -5.5q-10 0 -24 11l-228 168l-227 -168q-14 -11 -25 -11q-8 0 -15 5.5t-7 15.5z" />
<glyph unicode="&#x2dc;" horiz-adv-x="1064" d="M233 1227q0 11 11 33q55 108 159 108q42 0 78 -11t90 -44q62 -39 107 -39q35 0 56.5 17.5t43.5 58.5q10 20 27 20q24 0 24 -20q0 -13 -10 -33q-55 -109 -160 -109q-41 0 -76 11t-91 45q-64 39 -105 39q-34 0 -57.5 -18t-44.5 -58q-11 -21 -27 -21q-11 0 -18 6.5t-7 14.5z " />
<glyph unicode="&#x2000;" horiz-adv-x="934" />
<glyph unicode="&#x2001;" horiz-adv-x="1868" />
<glyph unicode="&#x2002;" horiz-adv-x="934" />
<glyph unicode="&#x2003;" horiz-adv-x="1868" />
<glyph unicode="&#x2004;" horiz-adv-x="622" />
<glyph unicode="&#x2005;" horiz-adv-x="467" />
<glyph unicode="&#x2006;" horiz-adv-x="311" />
<glyph unicode="&#x2007;" horiz-adv-x="311" />
<glyph unicode="&#x2008;" horiz-adv-x="233" />
<glyph unicode="&#x2009;" horiz-adv-x="373" />
<glyph unicode="&#x200a;" horiz-adv-x="103" />
<glyph unicode="&#x2010;" horiz-adv-x="929" d="M102 586q0 12 9 21t22 9h664q13 0 21.5 -8t8.5 -22q0 -12 -8.5 -21.5t-21.5 -9.5h-664q-13 0 -22 8.5t-9 22.5z" />
<glyph unicode="&#x2011;" horiz-adv-x="929" d="M102 586q0 12 9 21t22 9h664q13 0 21.5 -8t8.5 -22q0 -12 -8.5 -21.5t-21.5 -9.5h-664q-13 0 -22 8.5t-9 22.5z" />
<glyph unicode="&#x2012;" horiz-adv-x="929" d="M102 586q0 12 9 21t22 9h664q13 0 21.5 -8t8.5 -22q0 -12 -8.5 -21.5t-21.5 -9.5h-664q-13 0 -22 8.5t-9 22.5z" />
<glyph unicode="&#x2013;" horiz-adv-x="1200" d="M102 586q0 12 9 21t22 9h934q14 0 22.5 -8.5t8.5 -21.5q0 -12 -9 -21.5t-22 -9.5h-934q-13 0 -22 8.5t-9 22.5z" />
<glyph unicode="&#x2014;" horiz-adv-x="1480" d="M-29 555v61h1538v-61h-1538z" />
<glyph unicode="&#x2018;" horiz-adv-x="264" d="M72 1110q0 144 51 320q6 24 27 24q22 0 22 -27q0 -9 -6 -57q-10 -75 -10 -201q0 -12 1 -32t1 -27q0 -45 -43 -45t-43 45z" />
<glyph unicode="&#x2019;" horiz-adv-x="264" d="M92 1092q0 9 6 57q11 83 11 201q0 12 -1.5 32t-1.5 27q0 45 44 45q43 0 43 -45q0 -140 -52 -319q-6 -25 -26 -25q-23 0 -23 27z" />
<glyph unicode="&#x201a;" horiz-adv-x="280" d="M90 -254q0 9 6 57q10 75 10 201q0 12 -1 32t-1 27q0 46 43 46t43 -46q0 -143 -51 -319q-6 -25 -26 -25q-23 0 -23 27z" />
<glyph unicode="&#x201c;" horiz-adv-x="491" d="M72 1110q0 144 51 320q6 24 27 24q22 0 22 -27q0 -9 -6 -57q-10 -75 -10 -201q0 -12 1 -32t1 -27q0 -45 -43 -45t-43 45zM299 1110q0 144 51 320q6 24 27 24q22 0 22 -27q0 -9 -6 -57q-10 -75 -10 -201q0 -12 1 -32t1 -27q0 -45 -43 -45t-43 45z" />
<glyph unicode="&#x201d;" horiz-adv-x="491" d="M92 1092q0 9 6 57q11 83 11 201q0 12 -1.5 32t-1.5 27q0 45 44 45q43 0 43 -45q0 -140 -52 -319q-6 -25 -26 -25q-23 0 -23 27zM319 1092q0 1 7 57q10 75 10 201q0 12 -1 32t-1 27q0 45 43 45t43 -45q0 -143 -51 -319q-6 -25 -27 -25q-23 0 -23 27z" />
<glyph unicode="&#x201e;" horiz-adv-x="507" d="M90 -254q0 9 6 57q10 75 10 201q0 12 -1 32t-1 27q0 46 43 46t43 -46q0 -143 -51 -319q-6 -25 -26 -25q-23 0 -23 27zM317 -254q0 1 7 57q10 75 10 201q0 12 -1 32t-1 27q0 46 43 46t43 -46q0 -143 -51 -319q-6 -25 -27 -25q-23 0 -23 27z" />
<glyph unicode="&#x2022;" horiz-adv-x="622" d="M143 674q0 69 49 118.5t119 49.5q69 0 118.5 -49.5t49.5 -118.5q0 -70 -49.5 -119t-118.5 -49q-71 0 -119.5 49t-48.5 119z" />
<glyph unicode="&#x2026;" horiz-adv-x="970" d="M94 49q0 24 18 42t50 18q33 0 50 -18t17 -42q0 -26 -17 -43.5t-50 -17.5q-32 0 -50 18t-18 43zM418 49q0 24 17.5 42t49.5 18q33 0 50.5 -18t17.5 -42q0 -25 -17.5 -43t-50.5 -18q-32 0 -49.5 18t-17.5 43zM741 49q0 24 18 42t50 18q33 0 50.5 -18t17.5 -42 q0 -25 -17.5 -43t-50.5 -18q-32 0 -50 18t-18 43z" />
<glyph unicode="&#x202f;" horiz-adv-x="373" />
<glyph unicode="&#x2039;" horiz-adv-x="499" d="M92 530q0 18 23 48l260 327q11 15 26 15q12 0 19.5 -7t7.5 -16q0 -12 -10 -27l-234 -333l234 -349q10 -15 10 -26q0 -9 -7.5 -16t-19.5 -7q-15 0 -26 15l-260 329q-23 29 -23 47z" />
<glyph unicode="&#x203a;" horiz-adv-x="499" d="M72 162q0 11 10 26l233 334l-233 348q-10 15 -10 27q0 9 7 16t19 7q16 0 27 -15l260 -330q23 -29 23 -47q0 -17 -23 -47l-260 -327q-11 -15 -27 -15q-12 0 -19 7t-7 16z" />
<glyph unicode="&#x205f;" horiz-adv-x="467" />
<glyph unicode="&#x20ac;" horiz-adv-x="1314" d="M61 547q0 12 9 20t22 8h146q-9 71 -9 150q0 53 7 121h-144q-31 0 -31 28q0 12 9 20.5t22 8.5h152q23 138 82 249t139.5 180.5t174 106t191.5 36.5q281 0 402 -160q16 -22 16 -43q0 -14 -11 -25.5t-28 -11.5q-27 0 -49 31q-63 84 -140.5 118.5t-191.5 34.5 q-58 0 -117.5 -18.5t-119 -59.5t-109 -99.5t-88 -146t-55.5 -192.5h485q14 0 22.5 -8t8.5 -21q0 -28 -31 -28h-491q-6 -59 -6 -121q0 -83 6 -150h368q31 0 31 -28q0 -13 -8.5 -21t-22.5 -8h-360q37 -244 161.5 -364.5t307.5 -120.5q208 0 346 141q32 35 55 35 q14 0 25.5 -9.5t11.5 -23.5q0 -21 -16 -37q-70 -79 -188 -121.5t-238 -42.5q-103 0 -193 31.5t-165.5 95t-129 170t-75.5 246.5h-152q-14 0 -22.5 8t-8.5 21z" />
<glyph unicode="&#x2122;" horiz-adv-x="1458" d="M41 1423q0 23 20 23h480q20 0 20 -21q0 -22 -20 -22h-207v-596q0 -13 -9 -22t-24 -9t-24 9t-9 22v596h-207q-20 0 -20 20zM705 805v604q0 39 49 39q32 0 53 -25q38 -48 221 -444l217 434q17 35 62 35q49 0 49 -39v-602q0 -13 -9 -22t-24 -9t-24 9t-9 22v424q0 150 2 164 h-6q-24 -56 -47 -101l-188 -360q-13 -23 -35 -23q-25 0 -35 23l-203 418l-18 43h-6q2 -25 2 -164v-426q0 -29 -27 -29q-24 0 -24 29z" />
<glyph unicode="&#x25fc;" horiz-adv-x="1024" d="M0 0v1024h1024v-1024h-1024z" />
</font>
</defs>
</svg>
