<?xml version="1.0" standalone="no"?>
<!DOCTYPE svg PUBLIC "-//W3C//DTD SVG 1.1//EN" "http://www.w3.org/Graphics/SVG/1.1/DTD/svg11.dtd" >
<svg>
<metadata>
Created by FontForge 20090622 at Tue Apr 25 14:24:40 2017
 By deploy user
Copyright (c) 2014 by Natura. All rights reserved.
</metadata>
<defs>
<font id="NaturaScript" horiz-adv-x="519" >
  <font-face 
    font-family="Natura Script"
    font-weight="400"
    font-stretch="normal"
    units-per-em="1000"
    panose-1="3 5 4 1 4 3 7 1 11 3"
    ascent="800"
    descent="-200"
    x-height="189"
    cap-height="534"
    bbox="-159 -482 1174 755"
    underline-thickness="50"
    underline-position="-50"
    unicode-range="U+0020-U+2665"
  />
<missing-glyph horiz-adv-x="500" 
d="M52 0v561h396v-561h-396zM408 520h-293l293 -448v448zM92 488v-448h292z" />
    <glyph glyph-name="s_b" unicode="sb" horiz-adv-x="973" 
d="M819 231q13 0 21 -9q4 -5 14 -29q13 -34 30 -54q33 -38 73 -43q1 0 7.5 -0.5t10 -1t7 -3t3.5 -7.5q0 -11 -11 -11q-60 0 -108 46q-31 29 -46 56q-80 -194 -177 -194q-34 0 -53 23.5t-19 58.5q0 36 15 90q-92 -71 -180 -82q4 -54 -50 -91t-111 -37q-25 0 -44 10.5
t-19 33.5q0 26 21 46t54.5 30.5t60 16t53.5 7.5l-1 1q-28 42 -94 92q-28 21 -42 38q-55 -48 -84 -66q-99 -62 -139 -62q-23 0 -23 13q0 4 5.5 6.5t14.5 4.5l10 2q44 16 81 37q54 31 120 88q-6 13 -6 28q0 29 24 59t52 30q14 0 22.5 -9.5t8.5 -23.5q0 -11 -3.5 -21t-12 -20
t-14.5 -16t-18 -16.5t-16 -14.5h-1q13 -15 75.5 -66.5t71.5 -80.5q39 6 76 23t58.5 32t62.5 47q2 5 6 17q111 319 203 319q23 0 34.5 -15.5t11.5 -38.5q0 -27 -18 -61.5t-43.5 -66t-59.5 -66t-59 -56.5l-50 -42q-23 -67 -23 -117q0 -21 10.5 -37t30.5 -16q44 0 93 64
q11 14 20.5 32t14.5 32l13 37l12 34q8 20 24 20zM799 487q-19 0 -42 -30q-52 -69 -116 -231q47 42 56 52q84 93 106 138q14 28 14 47q0 24 -18 24zM243 261l9 8l14 12.5t12 12.5t10.5 14t3.5 11q0 8 -9 8q-14 0 -27 -22t-13 -37v-7zM247 -36q43 0 86 28.5t43 69.5v6
q-167 -16 -167 -77q0 -27 38 -27z" />
    <glyph glyph-name=".notdef" horiz-adv-x="500" 
d="M52 0v561h396v-561h-396zM408 520h-293l293 -448v448zM92 488v-448h292z" />
    <glyph glyph-name=".null" horiz-adv-x="0" 
 />
    <glyph glyph-name="nonmarkingreturn" horiz-adv-x="333" 
 />
    <glyph glyph-name="space" unicode=" " horiz-adv-x="350" 
 />
    <glyph glyph-name="exclam" unicode="!" horiz-adv-x="353" 
d="M151 167q-10 -22 -15 -22q-7 0 -7 9q0 13 14 77q4 20 9.5 52.5t8.5 46.5q1 5 5.5 32.5t7.5 44t9 38.5t13.5 33.5t15.5 11.5q18 0 18 -21q0 -13 -3 -20q-26 -135 -76 -282zM98 41q6 3 13 3q12 0 19.5 -7.5t7.5 -16.5q0 -7 -6.5 -15t-14.5 -8q-10 0 -19.5 8.5t-9.5 18.5
q0 14 10 17z" />
    <glyph glyph-name="quotedbl" unicode="&#x22;" horiz-adv-x="298" 
d="M123 411q-5 -12 -8 -12q-6 0 -10.5 30t-4.5 60q0 29 18 29q17 0 17 -26q0 -30 -12 -81zM186 411q-5 -12 -8 -12q-6 0 -10.5 29t-4.5 59q0 31 18 31q17 0 17 -26q0 -30 -12 -81z" />
    <glyph glyph-name="numbersign" unicode="#" horiz-adv-x="348" 
d="M297 215q1 -2 1 -5q0 -15 -49 -21q-5 -1 -7 -1q-19 -47 -20 -53q36 0 36 -14q0 -6 -6.5 -8t-19.5 -2t-20 -2q-19 -55 -26 -58q-1 -1 -3 -1q-7 0 -7 15q0 16 9 43q-8 -1 -24 -1.5t-20 -1.5q-3 -9 -5.5 -18.5l-4 -15.5t-3.5 -12.5l-3 -10l-2 -7t-2 -5.5t-2.5 -3.5t-2.5 -2
t-3 -0.5q-9 0 -9 22q0 11 8 51q-8 0 -21 -1.5t-23 -1.5q-18 0 -18 7q0 6 9 9.5t30 6.5l28 4q9 42 10 46q-30 -3 -41 -3q-23 1 -23 14q0 8 9 10.5t30 4t32 3.5q5 14 9 29t6 21.5t5 13t5.5 8t7.5 1.5q13 0 13 -18q0 -12 -12 -51q3 1 53 7l4 11q15 39 21 49.5t13 10.5
q10 0 10 -14q0 -5 -16 -53l26 3q15 0 18 -5zM147 130q12 2 47 4q7 21 11 32t6 18q-10 -1 -28 -4t-23 -4z" />
    <glyph glyph-name="dollar" unicode="$" horiz-adv-x="340" 
d="M281 190q9 -19 9 -40q0 -42 -30 -79t-72 -45v-13v-10v-12.5t-0.5 -12.5t-1.5 -13t-3 -10t-5.5 -7.5t-8.5 -2.5q-16 0 -16 34q0 1 0.5 14t0.5 29q-58 2 -98 37q-6 7 -6 12q0 12 17 12t51.5 -12.5t54.5 -12.5q38 0 59 23t21 57q0 72 -89 94q-40 9 -74 46.5t-34 78.5
q0 62 60 95q20 11 34 12v41q0 49 19 49q16 0 16 -38q0 -4 -0.5 -10t-1 -17.5t-0.5 -21.5q19 0 49 -9.5t30 -23.5q0 -12 -19 -12q-12 0 -32 7.5t-29 7.5q-34 0 -62 -24.5t-28 -53.5q0 -27 21 -49t39.5 -31t47.5 -20q60 -22 81 -69z" />
    <glyph glyph-name="percent" unicode="%" horiz-adv-x="508" 
d="M365 195q10 8 27 8q66 0 66 -100q0 -40 -22.5 -77t-51.5 -37q-30 0 -44 29.5t-14 68.5q0 79 39 108zM92 453q10 8 27 8q66 0 66 -101q0 -39 -21 -76.5t-51 -37.5t-45 30.5t-15 68.5q0 74 39 108zM53 7q0 8 31 46q20 24 59 77t73 93l156 201q34 43 48 43q10 0 10 -13
q0 -6 -5 -14q-5 -11 -66.5 -87.5t-66.5 -85.5l-64 -82.5l-58.5 -75.5l-47.5 -59q-3 -3 -11 -13.5t-12 -15t-10.5 -11t-12.5 -9t-12 -2.5q-11 0 -11 8zM403 24q24 13 24 75q0 72 -35 72q-17 0 -28 -18.5t-11 -53.5q0 -33 9.5 -55.5t28.5 -22.5q6 0 12 3zM130 282q24 14 24 74
q0 32 -9.5 52t-26.5 20t-27.5 -19t-10.5 -55q0 -32 9.5 -54t27.5 -22q8 0 13 4z" />
    <glyph glyph-name="ampersand" unicode="&#x26;" horiz-adv-x="537" 
d="M226 260q11 -16 41.5 -50t42.5 -49l20.5 -28t25.5 -33q50 31 86 81q12 18 22 18q8 0 8 -11q0 -3 -8 -19q-35 -52 -88 -94q42 -46 78 -59q33 -13 33 -20q0 -5 -6.5 -9t-16.5 -4q-48 0 -111 75q-93 -63 -175 -63q-47 0 -87.5 24.5t-40.5 75.5q0 49 50 105l70 81
q-22 31 -40 60q-17 25 -17 56q0 39 36 76.5t90 37.5q29 0 47 -17t18 -46q0 -65 -94 -166q2 -2 16 -22zM170 25q44 0 75 12.5t87 47.5l-16 22q-23 29 -64.5 75.5t-64.5 75.5q-63 -67 -81 -98.5t-18 -59.5q0 -33 21.5 -54t60.5 -21zM146 403q0 -32 46 -96l20 22q60 67 60 111
q0 19 -12 29t-30 10q-33 0 -58.5 -24.5t-25.5 -51.5z" />
    <glyph glyph-name="quotesingle" unicode="'" horiz-adv-x="235" 
d="M122 414q-2 -12 -8 -12q-4 0 -9 30.5t-5 56.5q0 32 18 32q17 0 17 -21q0 -44 -13 -86z" />
    <glyph glyph-name="parenleft" unicode="(" horiz-adv-x="245" 
d="M87 259q-5 -35 -5 -84q0 -56 20 -129t49 -125q5 -9 14 -23l14.5 -23t5.5 -12q-3 -14 -8 -14q-17 0 -46 44q-81 120 -81 295q0 70 14 122q7 62 50.5 136t66.5 74q11 0 11 -14q0 -6 -32 -57q-61 -95 -73 -190z" />
    <glyph glyph-name="parenright" unicode=")" horiz-adv-x="245" 
d="M158 121q5 35 5 84q0 56 -20 129t-49 125q-5 9 -14 23l-14.5 23t-5.5 12q4 14 8 14q17 0 46 -44q81 -120 81 -295q0 -70 -14 -122q-7 -62 -50.5 -136t-66.5 -74q-11 0 -11 14q0 6 32 57q61 95 73 190z" />
    <glyph glyph-name="asterisk" unicode="*" horiz-adv-x="363" 
d="M311 373q2 -4 2 -6q0 -18 -67 -24l-15 -2l-22 -4l19 -28q30 -46 30 -52q0 -4 -4 -4q-7 0 -30 27t-39 52l-30 -42q-37 -55 -46 -55q-6 0 -6 9q0 18 45 83l-24 -2q-30 -3 -44 -3q-30 0 -30 14q0 4 2 7t7.5 4.5t10.5 2t17 1.5l48 6l30 4q-6 10 -15.5 24.5t-12.5 18.5
q-18 28 -18 38q0 9 9 9q7 0 13.5 -8t30.5 -46l11 -17q36 52 53.5 70.5t28.5 18.5q9 0 9 -9q0 -2 -1 -4q-9 -15 -36 -53l-26 -35q4 0 18 2l31 4q24 4 41 4q7 0 10 -5z" />
    <glyph glyph-name="plus" unicode="+" horiz-adv-x="458" 
d="M220 73q-7 17 -7 69q0 28 -2 88q-125 -4 -135 -5q-10 0 -18 6t-8 14q0 15 37 19q47 3 124 4q0 17 -2 58t-2 66q0 41 21 41q24 0 24 -52q0 -44 -2 -112h36q76 0 95 -4q27 -7 27 -16t-17 -15q-4 -2 -132 -3h-10v-39q0 -14 1 -32t1 -39q0 -59 -18 -59q-9 0 -13 11z" />
    <glyph glyph-name="comma" unicode="," horiz-adv-x="259" 
d="M121 -59q-9 -9 -15 -9q-6 2 -6 7q1 7 8 21t9 20t3 24t5 27.5t16 9.5q18 0 18 -19q0 -20 -13 -46.5t-25 -34.5z" />
    <glyph glyph-name="hyphen" unicode="-" horiz-adv-x="446" 
d="M326 143q20 0 20 -10q0 -14 -20 -14q-205 -4 -211 -4q-15 0 -15 12q0 13 25 14q46 2 174 2h27z" />
    <glyph glyph-name="period" unicode="." horiz-adv-x="248" 
d="M106 37q6 6 15 6q11 0 19 -8.5t8 -17.5q0 -8 -5.5 -15t-15.5 -7q-27 0 -27 27q0 11 6 15z" />
    <glyph glyph-name="slash" unicode="/" horiz-adv-x="389" 
d="M50 -27v2q0 11 22 43q17 24 46.5 77t56.5 92l123 201q2 2 9.5 12.5t13.5 18t10 7.5q8 0 8 -14q0 -6 -1 -9q-4 -11 -53 -86.5t-53 -85.5l-68 -110.5t-67 -107.5q-2 -2 -7 -10.5t-8 -12.5l-7.5 -10t-9 -9t-8.5 -4q-6 0 -7 6z" />
    <glyph glyph-name="zero" unicode="0" horiz-adv-x="412" 
d="M257 424q57 0 86 -52t29 -110q0 -71 -34 -150q-27 -62 -77.5 -108.5t-108.5 -46.5q-53 0 -82.5 39t-29.5 95q0 37 8.5 79.5t25 86.5t46 79.5t66.5 51.5q4 12 10 12q16 24 61 24zM261 365l-24 3q-50 0 -87.5 -46t-57.5 -106q-20 -64 -20 -112t21.5 -82t55.5 -34
q37 0 78 31t62 64q52 84 52 175q0 40 -16.5 84t-55.5 54q-10 0 -13 1q1 -1 6.5 -3.5t8 -4t5 -4.5t2.5 -7q0 -13 -17 -13z" />
    <glyph glyph-name="one" unicode="1" horiz-adv-x="311" 
d="M251 446q6 -2 6 -9l-5 -17q-29 -92 -45 -159q-22 -57 -37 -130q-3 -9 -8.5 -34t-11 -46.5t-12.5 -44t-14.5 -36t-13.5 -13.5q-15 0 -15 14q0 9 3 20t8.5 27.5l7.5 22.5l48 174.5l52 187.5q-17 -24 -78 -78q-2 -2 -12.5 -14t-16.5 -18t-15 -12.5t-16 -6.5q-9 3 -9 11
q0 2 1 5t3.5 6.5t5 6.5l7 8t7.5 8l9 9l9 9t10 9t10 9l30 31.5t49 47t33 16.5q7 0 10 -4z" />
    <glyph glyph-name="two" unicode="2" horiz-adv-x="429" 
d="M403 12q0 -1 0.5 -4t0.5 -5q0 -13 -10 -13q-4 0 -18 11q-17 18 -40 33q-18 11 -49.5 20.5t-54.5 13.5t-25 2q-10 -8 -19 -20q-9 -9 -24 -22t-48 -34t-55 -21q-30 0 -30 28q4 42 48.5 69.5t93.5 27.5l15 -1q18 23 57 82q29 44 48 86t19 59q0 27 -17 41.5t-42 14.5
q-38 0 -90 -46q-15 -11 -23 -11q-12 0 -12 13q0 5 10 20q51 55 110 55q40 0 69 -24t29 -63q0 -69 -124 -230q65 -8 110 -26q57 -29 71 -56zM84 9q15 7 36 22.5t34 26.5l14 12h-6q-29 0 -64 -21.5t-35 -36.5q0 -7 8 -7q6 0 13 4z" />
    <glyph glyph-name="three" unicode="3" horiz-adv-x="367" 
d="M274 220q43 -24 43 -79q0 -78 -62 -128.5t-143 -50.5q-87 0 -90 27q0 12 15 12q9 0 34.5 -5t38.5 -5q65 0 119.5 40.5t54.5 107.5q0 26 -15.5 45.5t-40.5 19.5q-16 0 -41.5 -8t-37.5 -8q-18 0 -18 10q0 6 3.5 9.5t12.5 6.5t10 3q19 9 45 24q81 48 81 125q0 24 -15.5 36.5
t-36.5 12.5q-19 0 -43 -9t-34 -22q-7 -9 -20 -17.5t-23 -8.5q-5 0 -9.5 4.5t-4.5 10.5q0 17 23 30l2 1q55 42 109 42q38 0 62 -19.5t24 -55.5q0 -43 -23.5 -76.5t-74.5 -66.5q4 1 13 1q26 0 42 -9z" />
    <glyph glyph-name="four" unicode="4" horiz-adv-x="383" 
d="M334 143q10 -7 10 -13q0 -7 -3.5 -9.5t-8 -3.5t-5.5 -1q-3 0 -18 -1l-38.5 -2.5t-42.5 -3.5q-44 -178 -71 -178q-11 0 -11 12q0 11 8 30q38 115 41 134q-58 -6 -103 -6t-45 32q0 5 5 22q6 13 12 28.5t20 54.5l30 81q2 5 13.5 37.5t15.5 41.5l1 1q10 19 18 19
q5 0 8.5 -5.5t3.5 -10.5q0 -11 -8 -30.5t-9 -23.5q-2 -9 -33 -92q-36 -103 -41 -113q-1 -1 -1 -4q0 -8 12 -8q65 0 110 5l42 138l2 5q1 6 6.5 13t11.5 7q10 0 10 -17q0 -4 -1.5 -10t-1.5 -9l-1 -5l-34 -118q54 6 81 6q9 0 15 -3z" />
    <glyph glyph-name="five" unicode="5" horiz-adv-x="387" 
d="M169 322q-4 -11 -18 -53.5t-15 -50.5q-2 -10 -2 -12q0 -9 8 -9q1 0 9 2q65 15 79 15q42 0 67.5 -24t25.5 -60q0 -26 -12.5 -55t-29.5 -48q-38 -42 -83.5 -58.5t-111.5 -16.5q-20 0 -38 6.5t-18 19.5q0 9 10 9q5 0 20.5 -3t25.5 -3q50 0 89 12t60.5 29.5t35.5 38.5
t18 36.5t4 27.5q0 31 -22 45.5t-49 14.5q-17 0 -29 -2.5t-27 -8.5t-24 -8q-14 -4 -24 -4q-25 0 -25 25q0 20 23.5 81t27.5 77q31 108 53 108q11 0 12 -9q0 -6 -7 -31q24 2 59.5 5.5l60.5 6t39 2.5q16 0 16 -8q0 -18 -68 -25l-119 -13q-19 -54 -21 -59z" />
    <glyph glyph-name="six" unicode="6" horiz-adv-x="366" 
d="M149 240q42 17 80 17q43 0 70 -20t27 -55q0 -56 -55 -105.5t-128 -69.5q-13 -4 -27 -4q-18 0 -31.5 8t-18.5 16l-4 8q-4 11 -4 25q0 13 4 30t8 29t11 28t8 20q-4 -4 -9 -8.5t-7.5 -6.5t-6 -4t-5.5 -3t-5 -1q-7 0 -11 3.5t-4 5.5v5q0 11 22 30t46 32q58 150 103 245
q6 22 18 22q11 0 11 -17q0 -12 -6.5 -28t-17.5 -37t-14 -29q-9 -21 -26.5 -67t-27.5 -69zM275 124q21 27 21 54q0 24 -17 39t-46 15q-48 0 -102 -34q-2 -3 -4.5 -10l-3.5 -10q-1 -2 -8 -18.5t-11.5 -28.5t-9 -29.5t-4.5 -29.5q0 -36 37 -36t78.5 26.5t69.5 61.5z" />
    <glyph glyph-name="seven" unicode="7" horiz-adv-x="328" 
d="M282 390q12 -1 19 -9.5t7 -19.5q0 -7 -4 -19q-6 -14 -66 -122h55q6 0 14 -4.5t8 -10.5q0 -13 -29 -13h-4l-61 -4l-110 -200q-17 -30 -28 -30q-5 0 -8.5 5t-3.5 11q0 5 3 11.5t9 17l9 15.5l95 170q-34 0 -53 0.5t-29 2.5t-12.5 4.5t-2.5 7.5q0 14 27 14q2 0 5.5 -0.5
t4.5 -0.5q28 2 77 3l44 78l9 17.5t11 23t4 17.5t-10 8q-103 0 -213 -27q-4 -1 -9 -1q-11 0 -11 10q0 8 4.5 14.5t8.5 8.5l4 3l1 1h2q144 20 207 20q12 0 26 -2z" />
    <glyph glyph-name="eight" unicode="8" horiz-adv-x="357" 
d="M309 126q3 -15 3 -28q0 -52 -47.5 -93t-112.5 -41q-47 0 -82 28.5t-35 75.5q0 48 38 99t82 82q-70 27 -70 84q0 46 47 91t100 45q10 0 10 -6q0 -3 -1 -5t-3 -3.5t-4 -2.5t-5.5 -2.5t-5.5 -2.5q8 0 16.5 -2.5l13.5 -4t5 -2.5q47 -22 47 -67q0 -70 -96 -119
q83 -54 100 -126zM125 372q-7 -15 -8 -29q0 -49 50 -69q7 -2 15 -7q50 26 71 49.5t23 51.5q0 26 -18.5 43.5t-56.5 17.5q-50 0 -76 -57zM259 42q20 31 20 63q0 69 -98 129q-52 -35 -80.5 -77.5t-30.5 -79.5q0 -34 22.5 -57.5t66.5 -23.5q71 0 100 46z" />
    <glyph glyph-name="nine" unicode="9" horiz-adv-x="336" 
d="M305 338q-4 -77 -43 -223q-44 -161 -133 -161q-27 0 -44 10q-20 12 -36.5 30t-16.5 32q0 15 13 15q6 0 20 -14q30 -39 64 -39q71 0 112 161q28 125 33 150q-65 -73 -113 -73q-42 0 -63.5 20.5t-21.5 51.5q0 41 41 99.5t85 58.5q29 0 53 -30t31 -73q4 5 8 5q11 0 11 -20z
M266 325q0 25 -20.5 61t-46.5 36q-27 0 -59 -41.5t-32 -82.5q0 -17 15 -31t36 -14q38 0 107 72z" />
    <glyph glyph-name="colon" unicode=":" horiz-adv-x="272" 
d="M106 43q8 4 20 4q13 0 20 -7t7 -17q0 -6 -6 -14t-15 -8q-14 0 -23 8t-9 19q0 8 6 15zM125 256q8 4 20 4q11 0 19 -7t8 -15q0 -9 -6.5 -16.5t-16.5 -7.5q-13 0 -21.5 8.5t-8.5 18.5q0 7 6 15z" />
    <glyph glyph-name="semicolon" unicode=";" horiz-adv-x="288" 
d="M121 -69q-9 -9 -16 -9q-5 3 -5 8q0 8 8 23t9 17q1 4 2 23.5t5 29t15 9.5q20 0 20 -20q0 -21 -13 -45t-25 -36zM141 240q8 5 20 5t19.5 -7t7.5 -16q0 -8 -6.5 -16t-16.5 -8q-13 0 -22 8.5t-9 18.5q0 8 7 15z" />
    <glyph glyph-name="less" unicode="&#x3c;" horiz-adv-x="471" 
d="M383 462l-205 -200l199 -201l-55 -56l-258 257l264 257z" />
    <glyph glyph-name="equal" unicode="=" horiz-adv-x="421" 
d="M85 105q-11 0 -20 4.5t-9 10.5q0 21 30 21q8 -1 23 -1q4 0 37 1t69 1q41 0 71.5 1l45.5 1.5t17 0.5q22 0 22 -16q0 -17 -40 -21t-150 -4h-27q-56 0 -69 1zM335 270q11 0 20.5 -5t9.5 -12q0 -18 -28 -18q-5 0 -40.5 -1.5t-90.5 -1.5q-40 0 -71 -1l-46 -1.5t-16 -0.5
q-10 0 -16.5 5.5t-6.5 12.5q0 19 38 21q87 3 183 3q52 0 64 -1z" />
    <glyph glyph-name="greater" unicode="&#x3e;" horiz-adv-x="471" 
d="M92 62l206 200l-200 201l56 56l257 -257l-264 -257z" />
    <glyph glyph-name="question" unicode="?" horiz-adv-x="368" 
d="M326 420q0 -30 -18 -59q-13 -23 -56 -46.5t-56 -36.5q-11 -10 -19.5 -27t-12 -30t-8.5 -35.5t-7 -29.5q-7 -14 -14 -14q-8 0 -8 14q-1 11 6 47q3 56 37 90q13 13 48 33.5t54.5 43t19.5 57.5q0 30 -20.5 50.5t-56.5 20.5q-46 0 -77 -30q-4 -6 -14 -6q-14 0 -14 15
q0 9 5 14q33 38 97 38q8 0 22 -2q51 -11 71.5 -36.5t20.5 -70.5zM104 34q5 5 14 5q14 0 23 -8t9 -18q0 -8 -6.5 -16.5t-16.5 -8.5q-13 0 -24 10t-11 21t12 15z" />
    <glyph glyph-name="at" unicode="@" horiz-adv-x="526" 
d="M478 0h-266q-68 0 -116 48t-48 116v250q0 59 50.5 111.5t113.5 52.5h115q63 0 107 -49.5t44 -106.5v-184q0 -32 -27 -58t-61 -26h-88q-31 0 -58.5 26t-27.5 57v89q0 34 26 59t58 25h100v17q0 27 -20.5 51t-45.5 24h-120q-33 0 -58 -28.5t-25 -59.5v-246q0 -31 25.5 -61
t57.5 -30h264v-77zM402 247v71q0 9 -7.5 18t-16.5 9h-67q-8 0 -16.5 -9.5t-8.5 -17.5v-71q0 -8 8.5 -17t16.5 -9h67q9 0 16.5 8.5t7.5 17.5z" />
    <glyph glyph-name="A" unicode="A" horiz-adv-x="500" 
d="M406 260q4 1 11 1q13 0 13 -12q0 -17 -36 -23q4 -67 10 -125t9.5 -85.5t3.5 -28.5q-1 -11 -15 -11q-5 0 -9 3t-6.5 9t-4.5 12.5t-3.5 16t-2 16t-1.5 16.5t-1 14l-15 156q-19 -4 -73 -13l-93.5 -15.5t-39.5 -8.5q-75 -168 -78 -176q-12 -27 -23 -31q-5 -2 -10 -2
q-12 0 -12 13q0 15 85 193q-18 -2 -22 -2q-29 0 -29 16q0 9 7 12t28 5.5t32 4.5l37 84l37 84l31 69t28 57.5t20 31.5q18 22 39 22q13 0 21.5 -8t13.5 -24.5t7 -28t3.5 -33.5t1.5 -26q3 -32 10 -88.5t11 -96.5zM336 248l20 4q-7 96 -25 242q-3 25 -15 25q-16 0 -106 -207
l-18 -41q-15 -33 -22 -50q110 17 166 27z" />
    <glyph glyph-name="B" unicode="B" horiz-adv-x="490" 
d="M411 525q57 -20 57 -94q0 -28 -17 -62q-32 -64 -144 -93q10 2 28 2q42 0 63 -15q44 -28 44 -78q0 -25 -13 -48t-37 -41t-43.5 -29.5t-46.5 -23.5q-87 -40 -180 -40h-8q-19 -68 -44 -68q-11 0 -11 13q0 4 1 7q4 7 9 21t12 29q-81 14 -81 47q0 9 8 9q7 0 35.5 -11.5
t48.5 -13.5l38.5 111.5l28.5 82.5q-15 0 -15 8q0 14 27 24q19 58 39.5 111.5t34.5 96.5q-58 -31 -73 -31q-12 0 -12 10q0 13 26 27.5t98 39.5q52 18 79 18q25 0 48 -9zM411 205q-16 46 -105 46q-30 0 -67 -8.5t-46 -9.5q-40 -128 -68 -200h11q32 0 94 14q81 19 132 59t51 83
q0 6 -2 16zM434 409q3 13 3 26q0 35 -25 53t-51 18q-37 0 -77 -20q-70 -196 -77 -213q115 33 154 54q60 34 73 82z" />
    <glyph glyph-name="C" unicode="C" horiz-adv-x="536" 
d="M483 109q33 29 42 30q11 0 11 -9q0 -14 -26 -40q-37 -31 -65.5 -49t-81 -34.5t-114.5 -16.5q-100 0 -149.5 55t-49.5 140q0 77 54 167q46 77 102.5 115t107.5 38q39 0 74.5 -19t35.5 -42q0 -8 -8 -8q-9 0 -22 11q-36 27 -78 27q-58 0 -118 -54q-44 -44 -71 -93
q-41 -73 -41 -148q0 -29 7 -54t24 -49.5t52 -39t86 -14.5q123 0 228 87z" />
    <glyph glyph-name="D" unicode="D" horiz-adv-x="516" 
d="M505 374q1 -8 1 -26q0 -99 -66 -186q-25 -33 -52 -55.5t-74 -46.5q-95 -50 -225 -64l-4.5 -13t-5.5 -15t-5 -11.5t-7 -9.5t-8 -3q-13 0 -13 16q0 10 9 33q-5 -1 -14 -1q-36 0 -36 15q0 9 8 12t25.5 3.5t26.5 2.5l140 416l17 55q-17 -5 -56 -20.5t-49 -15.5q-18 0 -18 18
q0 10 24 20q3 1 17 6q99 36 163 36q82 0 137.5 -41t64.5 -125zM315 95q71 41 114.5 110t43.5 148q0 68 -48 111t-124 43q-20 0 -41 -3q-32 -117 -159 -476q136 16 214 67z" />
    <glyph glyph-name="E" unicode="E" horiz-adv-x="486" 
d="M437 546q1 0 6.5 -1.5t8 -2.5t6 -3.5t3.5 -6.5q0 -14 -26 -14q-10 0 -35.5 2.5t-39.5 2.5q-58 0 -112 -9q-7 0 -11 -11q-7 -18 -55 -229l1 -1q2 1 10 1l9 2q68 9 130 9h1q13 1 41 1q47 0 47 -13q0 -5 -5.5 -8t-19.5 -5t-28.5 -3.5t-41 -4l-47.5 -4.5h-8q-14 -1 -52 -6
t-47 -5v-1q-26 -110 -48 -190v-1l10 1q40 5 116.5 16t118.5 16q1 0 10 1.5t13 1.5q33 0 33 -18q0 -12 -49 -12q-5 -2 -22 -3.5t-19 -2.5h-7q-32 -6 -87.5 -12t-78.5 -10q-42 -9 -46 -9q-13 -44 -25 -44q-4 0 -8 4.5t-4 11.5q0 5 4 19v2l-1 -1q-20 -4 -25 -4q-12 0 -12 13
q0 17 46 24l1 1v2l1 2l46 192h-6q-9 0 -9 7q0 15 22 22l37 150q4 18 13 52t10 44l1 1h-1q-14 -3 -44 -6q-15 0 -15 10q0 5 3 8.5t21 8.5t52 10q72 10 143 10q50 0 71 -7z" />
    <glyph glyph-name="F" unicode="F" horiz-adv-x="379" 
d="M405 561h9q15 0 15 -7q0 -12 -33 -21l-85 -16l-101 -13q-1 -2 -58 -234q13 0 51 4l67.5 7t29.5 1q6 0 20.5 0.5t21.5 0.5q45 0 45 -15q0 -5 -7 -8t-21.5 -5t-29.5 -3t-39.5 -3t-42.5 -4q-11 -1 -34.5 -4l-43 -5.5t-26.5 -2.5q-48 -201 -62 -235q-10 -27 -19 -27
q-4 0 -8 4.5t-4 11.5q0 6 2.5 15l6 21.5t5.5 20.5l45 187q-15 0 -15 10q0 13 23 21l35 146l23 94q-21 3 -21 15q0 18 38 22q44 5 95.5 10t83.5 8.5t34 3.5z" />
    <glyph glyph-name="G" unicode="G" horiz-adv-x="528" 
d="M479 204q0 -72 -71.5 -143t-172.5 -71q-91 0 -138.5 57t-47.5 136q0 82 54 169q47 77 104 115t107 38q40 0 75.5 -19t35.5 -43q0 -8 -9 -8q-11 0 -22 8q-36 27 -79 27q-59 0 -117 -55q-33 -29 -68 -91q-44 -77 -44 -146q0 -27 6.5 -51.5t22 -49.5t49 -40t81.5 -15
q78 0 139.5 56.5t65.5 116.5q0 17 -3 25q-66 -20 -119 -20q-24 0 -47.5 8t-23.5 28q0 23 26.5 34t58.5 11q12 0 48 -3q49 -7 73 -28q1 0 6 2t10.5 3.5t11.5 1.5q17 0 17 -11q0 -5 -26 -15q-4 -2 -7 -3q2 -9 4 -24zM304 230h12q20 0 49 3t48 7l19 3q-28 15 -80 15
q-24 0 -44.5 -5.5t-20.5 -13.5q0 -9 17 -9z" />
    <glyph glyph-name="H" unicode="H" horiz-adv-x="525" 
d="M525 516q10 -4 10 -13q0 -1 -0.5 -4t-0.5 -5q-1 -12 -29 -102.5t-29 -97.5q-72 -250 -73 -252q-18 -58 -32 -65q-3 -2 -7 -2q-12 0 -12 13t11 43q10 29 24.5 85t27.5 95q-8 0 -12 -1l-166 -5q-27 0 -66 -1.5t-44 -1.5q-27 -103 -29 -153q0 -9 1.5 -19t3 -18t3.5 -14.5
t4 -9.5l1 -3q0 -6 -15 -6q-34 0 -34 66q0 49 28 156q-40 0 -40 19q0 12 10.5 15t39.5 3q6 19 16 53.5l16 55l14.5 48.5t15 44t14 32t14.5 23.5t14 7.5q9 0 9 -13q0 -15 -20 -72q-8 -22 -13.5 -39.5l-14 -45.5l-17.5 -57q-3 -7 -6 -20t-5 -18q4 -1 11 -1q12 0 42.5 1t46.5 1
q24 1 65.5 2.5t72.5 2.5t50 1q12 40 31 109t31 107q16 56 35 56h3z" />
    <glyph glyph-name="I" unicode="I" horiz-adv-x="256" 
d="M275 532q6 -4 6 -13q0 -10 -17 -51l-86.5 -215.5t-82.5 -213.5q-2 -4 -8 -20t-11.5 -25t-11.5 -9q-14 0 -14 20t77 210l97 239l6 15.5t6.5 16t6 14.5t6.5 14t6.5 10t7 7.5t6.5 2.5q2 0 6 -2z" />
    <glyph glyph-name="J" unicode="J" horiz-adv-x="457" 
d="M510 516h7q20 0 20 -8q0 -15 -49 -21q-4 0 -24 -2l-60 -6q-2 -12 -56 -283q-31 -156 -112 -205q-35 -21 -69 -21q-54 0 -100.5 46.5t-46.5 102.5q0 23 15 24q11 1 17 -21q12 -48 39 -82.5t72 -34.5q113 0 156 205l32 190q4 24 13 74h-2q-105 -7 -138 -7q-27 0 -40 7.5
t-13 17.5q0 9 11 9q6 0 23 -2.5t28 -2.5q35 0 77 4t47 4q38 2 87 6.5t66 5.5z" />
    <glyph glyph-name="K" unicode="K" horiz-adv-x="470" 
d="M437 24q3 -2 3 -5q0 -6 -8 -12t-22 -6q-49 -1 -112 37q-84 49 -165 140l-35 -144q0 -2 -1.5 -8t-2.5 -9.5t-2.5 -10t-3 -10.5l-3.5 -9.5t-4.5 -9l-5 -7t-5.5 -5t-6 -1.5q-4 0 -9 3.5t-5 10.5q0 10 9 42q8 31 22 92.5t24 99.5q-17 20 -17 31q0 17 31 32q37 178 40 191
q0 1 2.5 11.5l4 16.5t5.5 14.5t9 12.5t12 4q11 0 11 -22q0 -12 -20 -100t-22 -99l128 87q25 16 57.5 39.5t50.5 35t26 11.5q16 0 16 -15q0 -9 -12 -17q-13 -8 -68 -46l-94 -63q-71 -47 -114 -80l-8 -36q43 -57 117 -122q22 -20 48 -34.5t47.5 -21.5t39 -11t29.5 -5z" />
    <glyph glyph-name="L" unicode="L" horiz-adv-x="489" 
d="M416 94q20 4 34 4q17 0 17 -9q0 -6 -11 -12t-32 -11.5l-42 -10.5l-51.5 -12t-50.5 -12q-134 -34 -166 -38q-5 -1 -15 -1q-43 0 -43 44q0 17 7 41q37 121 70.5 220l41.5 123q8 26 13.5 40.5t15.5 29t21 14.5q16 0 16 -14q0 -4 -19 -46q-13 -28 -24.5 -60t-25.5 -79.5
t-24 -75.5l-20.5 -59.5l-23.5 -70.5q-11 -44 -11 -45q0 -23 19 -23q9 0 53 9.5l92.5 20.5t56.5 13q85 18 102 20z" />
    <glyph glyph-name="M" unicode="M" horiz-adv-x="690" 
d="M326 189q0 2 -0.5 7t-0.5 8q-4 36 -4 85v16q0 167 -10 167q-5 0 -14.5 -12t-16.5 -27q-22 -45 -84 -194q-29 -68 -46 -104l-42 -92q-27 -65 -44 -65q-15 3 -15 16q0 6 4 14q28 70 153 349l28 63q45 100 87 100q20 0 25.5 -27.5t7.5 -119.5q0 -8 1 -50t2 -66v-17
q0 -67 13 -67q6 0 12 8.5t18 31.5l3 6l137 250q29 49 59 49t30 -49q0 -39 -14 -130l-17 -132l-3 -21q-9 -66 -13 -135q0 -70 -24 -70q-14 0 -14 30q0 22 38 331q5 39 7 51q9 61 9 75q0 10 -6 10q-10 0 -43.5 -56t-74.5 -140q-54 -108 -86 -141q-12 -12 -26 -12q-31 0 -36 60
z" />
    <glyph glyph-name="N" unicode="N" horiz-adv-x="541" 
d="M555 467l-3 -11l-27 -81q-22 -63 -50 -156q-38 -122 -58 -171q-6 -16 -18 -29.5t-25 -13.5q-12 0 -21 7t-17 26.5t-11.5 30t-11.5 41.5q-3 13 -4 17l-42 164l-40 153q-5 19 -11 19q-7 0 -69 -221q-2 -6 -7 -26q-9 -33 -39 -125q-6 -16 -21 -69q-10 -44 -27 -44
q-14 0 -14 20q0 4 2 10l43 150l75 258q0 1 1 3.5t1 3.5q26 95 57 95q21 0 34 -39t48 -188l14 -59q15 -63 34 -121.5t27 -58.5q10 0 32 67q5 14 22 66t26 82q45 137 62 197q9 40 29 40q7 0 11 -4.5t4 -8.5q0 -8 -6 -24z" />
    <glyph glyph-name="O" unicode="O" horiz-adv-x="567" 
d="M542 385q5 -17 5 -39q0 -38 -16.5 -88.5t-46.5 -93.5q-49 -71 -121.5 -124t-153.5 -53q-29 0 -55 8.5t-50.5 27t-39 54.5t-14.5 86q0 85 66 183q45 67 85.5 109t62.5 53.5t37 11.5q16 0 35.5 -15t21.5 -40q24 10 55 10q96 0 129 -90zM512 317q2 12 2 23q0 46 -26.5 75
t-66.5 29q-23 0 -47 -8q-44 -14 -66 -37q-7 -7 -13 -7q-12 0 -12 14q0 7 5.5 15t11.5 13l5 4q20 13 35 19q-2 2 -6.5 7.5t-7.5 8.5t-7.5 5.5t-9.5 2.5q-18 0 -43.5 -15t-43.5 -32q-4 -3 -14.5 -15.5t-29.5 -38.5t-37 -55q-57 -93 -57 -168q0 -136 137 -136q24 0 40 5
q73 20 152 99.5t99 191.5z" />
    <glyph glyph-name="P" unicode="P" horiz-adv-x="369" 
d="M200 500q49 24 105 24q50 0 82 -22t32 -60q0 -36 -19 -66t-52 -52t-63.5 -37t-68.5 -30t-51 -22l-90 -267q-11 -31 -23 -31q-4 0 -8 5t-4 14q0 6 18 60l67 201q-4 -1 -10 -1q-9 0 -19.5 5t-10.5 11q0 11 54 24l26.5 80l24 68.5t11.5 34.5l9 30q-24 -12 -46 -29
q-8 -6 -18 -17.5t-17.5 -18.5t-13.5 -7t-10.5 2.5t-6 5t-3 6t-1.5 5.5v1q0 15 37 38q7 4 29.5 20.5t39.5 24.5zM352 377q25 31 25 61q0 26 -18.5 42.5t-51.5 16.5q-26 0 -56 -10q-15 -50 -74 -217q126 44 175 107z" />
    <glyph glyph-name="Q" unicode="Q" horiz-adv-x="561" 
d="M529 381q2 -20 2 -34q0 -106 -61 -190q-20 -28 -40 -51l34 -39t36 -42q6 -7 15 -26q0 -7 -10 -7q-11 0 -28.5 16t-69.5 74q-98 -96 -200 -96q-61 0 -110 40t-49 130q0 82 65 179q53 79 105 126q44 41 73 41q15 0 29 -8q12 11 36.5 19t45.5 8q103 0 127 -140zM498 313
q1 10 1 31q0 60 -25 105t-77 45q-26 0 -60 -16q11 -20 11 -31q-1 -8 -7 -8q-8 0 -19 12.5t-22 12.5q-34 0 -78 -42q-52 -52 -86 -107q-50 -80 -50 -160q0 -66 37.5 -101t92.5 -35q24 0 40 5q59 18 128 82q-55 55 -58 62q-7 11 -7 23q0 19 15 19q10 0 21 -14l54 -65
q78 87 89 182z" />
    <glyph glyph-name="R" unicode="R" horiz-adv-x="467" 
d="M448 12q4 -1 4 -5q0 -6 -8 -12t-22 -6q-55 0 -112 37q-87 55 -161 139q-6 -17 -18 -55l-20 -61.5l-18 -50.5t-17.5 -40.5t-13.5 -13.5q-3 0 -7.5 5t-4.5 13q0 6 3 15l8 23l8 23l57 172q-21 31 -21 43q0 9 7 13.5t39 16.5l60 179l9 30q-22 -12 -46 -30q-8 -6 -18 -17.5
t-17 -18.5t-13 -7t-10.5 2.5t-6.5 5.5t-3.5 6.5t-1.5 5.5v1q0 17 35.5 42t86.5 44.5t89 19.5q50 0 82.5 -22t32.5 -60q0 -109 -254 -205l-14 -41q51 -77 148 -144q55 -39 109 -45q5 -1 10 -0.5t11 0t8 -1.5zM261 495q-17 -54 -72 -215q198 70 198 165q0 26 -19 43t-52 17
q-25 0 -55 -10z" />
    <glyph glyph-name="S" unicode="S" horiz-adv-x="522" 
d="M234 -11q-66 9 -127 41q-77 37 -77 61q0 9 14 9q8 0 16.5 -4t19 -11t12.5 -8q92 -60 198 -60q62 0 109 28t47 76q0 45 -40 66t-117 35q-104 18 -144.5 38.5t-40.5 67.5q0 50 46.5 94.5t111 68t122.5 23.5q33 0 60 -9l2 -1q3 -1 7.5 -3t9 -5t7.5 -7t3 -8q0 -9 -8 -9
q-5 0 -15.5 3.5t-17.5 4.5q-24 4 -51 4q-57 0 -117 -25q-124 -53 -124 -125q0 -28 22.5 -43t70.5 -25q127 -25 175 -49q74 -36 74 -95q0 -55 -53.5 -95.5t-144.5 -40.5q-24 0 -50 3z" />
    <glyph glyph-name="T" unicode="T" horiz-adv-x="383" 
d="M467 508q26 0 26 -9q0 -20 -74 -22l-114 -2q-1 -7 -6 -16q-3 -7 -32.5 -92l-67.5 -192.5l-56 -156.5q-15 -41 -31 -41q-14 0 -14 13q0 2 20 59l125 354q21 60 26 72h-6q-15 0 -40 -1t-37 -1q-43 0 -67 3.5t-31.5 9t-7.5 15.5q0 14 15 14q3 0 31.5 -4t38.5 -4
q39 0 154 0.5t148 0.5z" />
    <glyph glyph-name="U" unicode="U" horiz-adv-x="510" 
d="M500 351q-22 -72 -41.5 -122.5t-45 -98.5t-54 -76.5t-66.5 -46t-84 -17.5q-77 0 -119 64q-30 46 -30 116q0 39 30 180q4 20 18 71.5t20 65.5q1 2 3 7.5t3 8.5t4 6.5t7 5.5t10 2q12 0 12 -17q0 -8 -5 -26q-68 -230 -68 -308q0 -58 32.5 -98t84.5 -40q134 0 198 170
q41 110 70 218q0 1 7 32.5t13.5 45t17.5 13.5q18 0 18 -25q0 -17 -35 -131z" />
    <glyph glyph-name="V" unicode="V" horiz-adv-x="446" 
d="M218 29q13 15 25 33t20 32l23 41.5t26 45.5q119 209 155 285q0 1 2.5 6t5 8l6 7.5t9 7t11.5 2.5t10.5 -4t4.5 -8q0 -1 -5 -14q-6 -14 -46.5 -91.5t-50.5 -94.5q-119 -206 -140 -239q-37 -56 -60 -66q-7 -3 -14 -3q-9 0 -16 4.5t-13.5 14.5t-12 22t-11 32.5t-9.5 40
l-10 50l-11 57.5l-12 67.5t-14 74.5q-20 96 -20 123v4q0 12 0.5 18t5.5 12.5t14 6.5q12 0 22 -55q63 -426 95 -426q4 0 10 6z" />
    <glyph glyph-name="W" unicode="W" horiz-adv-x="636" 
d="M361 362q12 -12 15 -44.5t3 -119.5q0 -166 26 -166q11 0 26 26q36 62 117.5 223.5l92.5 182.5q25 47 42 47q13 0 13 -11q0 -4 -2 -12q-4 -10 -47 -92.5t-47 -93.5l-127 -241q-38 -74 -78 -74q-20 0 -29.5 11t-17 71.5t-7.5 184.5q0 21 -0.5 32.5t-1.5 18t-3 8.5t-5 2
q-13 0 -39 -45q-94 -163 -135 -228q-27 -44 -64 -44q-43 0 -43 64q0 99 45 234q13 39 38 100.5t34 74.5q11 17 20 19q19 0 19 -23q0 -17 -19 -50q-3 -6 -13 -24t-13.5 -25.5t-12.5 -30t-20 -53.5q-44 -126 -44 -204q0 -39 18 -39q12 0 33.5 30.5t64.5 103.5l33.5 57.5t33 56
l26.5 41t27 32t22 9.5t19 -9z" />
    <glyph glyph-name="X" unicode="X" horiz-adv-x="546" 
d="M491 12q5 -7 5 -11q0 -12 -16 -12q-13 0 -34 24q-106 120 -185 225q-105 -133 -164 -202l-3 -3q-33 -41 -52 -41q-18 0 -18 13q0 4 8 15t16 20l9 9q47 49 91 103l92 115l-14 19q-98 132 -108 149q-15 26 -15 40q0 15 14 15q12 0 38 -41q21 -33 85 -118l25 -33
q28 34 64.5 83.5t59.5 77.5q37 47 51 47q6 0 9.5 -4t3.5 -8q0 -5 -4 -11t-16.5 -22.5l-34 -44.5l-33.5 -44l-47 -61q-24 -32 -34 -43l57.5 -76t81.5 -102q46 -51 68 -78z" />
    <glyph glyph-name="Y" unicode="Y" horiz-adv-x="381" 
d="M409 538q13 -2 13 -9t-16 -29q-97 -133 -141 -217q5 -9 5 -17t-5.5 -13t-10.5 -6t-7 -1q-16 -35 -45 -92.5t-36 -76.5q-6 -18 -29 -64q-13 -41 -31 -41q-12 0 -12 15q0 28 132 290l-50 71q-65 86 -86 127q-10 12 -10 27q0 7 4 14.5t11 7.5q5 0 11.5 -6.5t11 -13t10 -16
t6.5 -10.5q63 -108 111 -163q20 29 46.5 73l43.5 71q0 1 6 11t13.5 20l16.5 21.5t19 19t19 7.5z" />
    <glyph glyph-name="Z" unicode="Z" horiz-adv-x="487" 
d="M147 1q59 5 141 17q26 3 72.5 10t62.5 9q32 5 40 1q3 -2 3.5 -5.5t-2 -9t-9.5 -10.5q-5 -5 -28 -11q-11 -2 -109 -13.5t-110 -12.5q-117 -11 -118 -11q-20 0 -30.5 10.5t-8.5 23.5q1 18 96 140q161 212 190 265q10 24 -1 24h-4q-10 -1 -43.5 -6.5t-51.5 -7.5
q-56 -9 -125 -16q-15 -3 -26.5 -0.5t-19 7t-7.5 7.5q0 9 6.5 12t27.5 7q6 1 9 2q42 8 135 20q57 5 123 14q17 2 27.5 -6t4.5 -26q-10 -28 -62 -101l-145 -206l-76 -106q-14 -22 15 -22q9 0 23 1z" />
    <glyph glyph-name="bracketleft" unicode="[" horiz-adv-x="354" 
d="M278 -78h-162v728h162v-78h-78v-572h78v-78z" />
    <glyph glyph-name="backslash" unicode="\" horiz-adv-x="389" 
d="M339 -7q0 -3 -2 -4.5t-3 -1.5h-2q-4 1 -8.5 4t-9 9l-7.5 10t-8 12.5t-7 10.5q-24 36 -67 107.5l-68 110.5q-4 10 -53 85.5t-53 86.5q-1 3 -1 9q0 14 8 14q4 0 10 -7.5t13.5 -18t9.5 -12.5l123 -201q27 -39 56.5 -92t46.5 -77q22 -32 22 -43v-2z" />
    <glyph glyph-name="bracketright" unicode="]" horiz-adv-x="354" 
d="M80 650h162v-728h-162v78h78v572h-78v78z" />
    <glyph glyph-name="asciicircum" unicode="^" horiz-adv-x="281" 
d="M238 181q6 -7 6 -15q0 -7 -6 -7q-5 0 -16 8t-28.5 24t-23.5 21q-18 18 -22 18q-10 -3 -30 -21l-26.5 -23.5t-23.5 -20t-10 -5.5q-4 0 -6 1.5t-2 2.5v2q0 20 84 92q8 6 11 6h3q3 0 38.5 -32t51.5 -51z" />
    <glyph glyph-name="underscore" unicode="_" horiz-adv-x="487" 
d="M475 -108q26 -7 26 -16t-20 -11q4 0 -108 -4l-228.5 -8t-123.5 -4q-8 0 -15.5 7t-7.5 15q0 16 38 20q67 5 335 5q85 0 104 -4z" />
    <glyph glyph-name="grave" unicode="`" horiz-adv-x="162" 
d="M122 280q-18 5 -50.5 27t-32.5 31q0 10 15 10q11 0 47 -29.5t36 -35.5q0 -4 -7 -4q-5 0 -8 1z" />
    <glyph glyph-name="a" unicode="a" horiz-adv-x="381" 
d="M387 45q6 0 6 -7q0 -17 -26 -27t-46 -10q-40 0 -66 22t-39 44t-21 22q-7 0 -20 -17t-26.5 -37t-38.5 -37t-55 -17q-26 0 -40.5 14t-14.5 39q0 46 48 94.5t94 48.5q41 0 62 -32q20 2 28 -17q4 -10 8 -30q7 -30 29 -53t51 -23q15 0 30.5 6t25.5 11.5t11 5.5zM35 39
q0 -29 28 -29q20 0 39 18.5t41.5 53.5t25.5 39q-15 25 -33 25q-31 0 -66 -38t-35 -69z" />
    <glyph glyph-name="b" unicode="b" horiz-adv-x="511" 
d="M381 232q16 0 25.5 -13.5t13 -31t14.5 -37.5t28 -31q15 -9 39.5 -11.5t27.5 -4.5q2 -1 2 -4q0 -13 -23 -13q-73 0 -116 72q-1 1 -4.5 8t-3.5 8v2q-19 -39 -31.5 -61.5t-37.5 -59t-53.5 -55t-60.5 -18.5q-35 0 -54 23.5t-19 59.5t14 83q-80 -47 -124 -47q-9 0 -19.5 5
t-10.5 12q0 4 6.5 6t16 2h10.5q27 2 65.5 21t67.5 40l11 31.5l15.5 43l18 48t22 52l24.5 49t27.5 46.5t29 36.5t32 26t32.5 8.5q21 0 33.5 -15t12.5 -37q0 -2 -0.5 -5t-0.5 -4q-3 -26 -17.5 -54t-27 -44.5t-35.5 -44.5q-79 -93 -153 -152q-20 -53 -20 -106q0 -21 10 -37
t30 -16q69 0 137 138q6 11 14.5 35t9.5 26q8 20 22 20zM356 488q-20 0 -42 -30q-25 -34 -62.5 -110.5t-57.5 -129.5v-1q33 31 92.5 99.5t73.5 96.5q14 30 14 49q0 26 -18 26z" />
    <glyph glyph-name="c" unicode="c" horiz-adv-x="215" 
d="M107 22h14q22 0 45.5 11t39 22t17.5 11q4 0 4 -6q0 -28 -41.5 -43.5t-79.5 -15.5q-37 0 -66.5 23.5t-29.5 60.5q0 42 32 89.5t72 47.5q16 0 35 -9.5t19 -23.5q0 -5 -6 -5q-4 0 -15 7.5t-23 7.5q-30 0 -55.5 -40.5t-25.5 -73.5q0 -27 18.5 -45t45.5 -18z" />
    <glyph glyph-name="d" unicode="d" horiz-adv-x="456" 
d="M455 33q7 0 7 -5q0 -13 -20.5 -19.5t-37.5 -6.5q-38 0 -71.5 21.5t-52.5 55.5q-12 21 -19 57q-61 -83 -95 -111q-43 -37 -83 -37q-27 0 -45 17t-18 44q0 45 44 84t90 39q21 0 40.5 -14t26.5 -34l12 16.5l13 18.5l11 16v19q0 49 22 138.5t65.5 170.5t90.5 81q33 0 33 -37
q0 -23 -11.5 -55.5t-20 -50.5t-32.5 -60.5t-25 -44.5q-3 -5 -30.5 -57.5t-44.5 -78.5l-22 -33q7 -47 20 -75t46 -49q18 -12 37 -16q1 0 2 -1q14 -2 22 -2q10 0 27 4.5t19 4.5zM420 541q-21 0 -46.5 -45.5t-38.5 -83t-23 -70.5q-26 -84 -30 -128l52 89q11 19 52 98
q50 91 50 120q0 20 -16 20zM87 20q21 0 44.5 14.5t33.5 24.5t32 35l1 1q-2 20 -15.5 32t-32.5 12q-32 0 -64 -27t-32 -59q0 -15 9 -24t24 -9z" />
    <glyph glyph-name="e" unicode="e" horiz-adv-x="290" 
d="M296 65q6 0 6 -7q0 -20 -27 -33.5t-54 -19.5q-19 -4 -41 -4q-40 0 -68 24t-28 63q-38 -7 -67 -7q-9 0 -19 5t-10 13q0 7 16 7q37 0 84 10q1 1 1 4q9 39 42 72t71 33q21 0 38 -12t17 -32q0 -8 -6 -22q-4 -8 -15 -16t-29 -15.5t-28.5 -11.5t-32.5 -11t-23 -7q-6 -2 -8 -2
v-9q0 -60 65 -65h1q56 0 94 27q1 1 6 5l9.5 7.5t5.5 3.5zM196 194q-24 0 -45 -22t-29 -48q26 6 60 22.5t34 34.5q0 13 -20 13z" />
    <glyph glyph-name="f" unicode="f" horiz-adv-x="398" 
d="M407 471q22 0 36 -14t14 -36q0 -30 -15.5 -61.5t-50 -67.5t-55.5 -56t-67.5 -57.5t-50.5 -41.5l-13 -11q-2 -10 -8 -28q89 -67 166 -67q24 0 35 1q1 0 3 0.5t4 0.5q9 0 9 -5q0 -9 -8.5 -14t-18.5 -5q-117 0 -198 59l-6 -22q36 -48 59 -81.5t48 -87t25 -94.5
q0 -43 -24.5 -75.5t-65.5 -32.5q-35 0 -59 25t-32.5 56t-8.5 66q0 91 28 215q-18 20 -22 27q-4 -2 -32.5 -19t-40.5 -23t-34.5 -13.5t-40.5 -7.5q-33 0 -33 18q0 4 6.5 5.5t16 1.5h10.5q58 5 134 62q-4 8 -4 19q0 24 24 24q10 0 24 -6l1 -1l18 16q69 221 168 306
q29 25 59 25zM228 -294q28 0 42 25t14 55q0 87 -109 224l-2 -9q-20 -106 -20 -163q0 -27 5.5 -54.5t23.5 -52.5t46 -25zM219 174q105 89 166 167q34 44 34 66t-16 22q-33 0 -75 -52.5t-70 -109t-39 -93.5zM155 82q4 -6 7 -9l3 13l-3 2z" />
    <glyph glyph-name="g" unicode="g" horiz-adv-x="412" 
d="M419 59q5 -3 5 -7q0 -6 -4 -10t-7.5 -5.5t-9.5 -3.5l-6 -2q-71 -22 -117 -49q0 -44 -13 -105q-24 -115 -67 -196q-14 -25 -25.5 -43.5t-29.5 -40.5t-39.5 -34.5t-45.5 -13.5q-40 0 -65 23.5t-25 62.5q1 85 84 175q120 132 200 182q1 10 1 29q0 55 -17 56q-10 0 -21 -7
q1 -5 2 -11.5t1 -7.5q0 -10 -5 -19t-12 -9q-9 0 -9 24v6q-3 -2 -24 -19.5t-29.5 -23.5t-25.5 -13.5t-30 -7.5q-78 0 -78 64q0 56 41 105.5t78 49.5q33 0 55 -33t32 -70q13 10 31 10q19 0 27.5 -22t8.5 -86q5 3 29.5 16.5t37 19.5t31 12.5t30.5 6.5q6 0 11 -3zM84 23
q12 0 23.5 3t25.5 13l19 13.5t22 19.5l18 17q-6 28 -24 54.5t-44 26.5q-25 0 -53 -34.5t-28 -73.5t41 -39zM130 -378q113 145 123 343q-52 -37 -129 -118q-64 -68 -93.5 -114.5t-29.5 -91.5q0 -25 13.5 -42t40.5 -17q43 0 75 40z" />
    <glyph glyph-name="h" unicode="h" horiz-adv-x="543" 
d="M526 25q29 0 29 -7q0 -9 -13 -13.5t-24 -4.5q-23 0 -44.5 19.5t-35.5 43.5t-31.5 43.5t-32.5 19.5q-17 0 -37.5 -21t-38 -46t-41 -46t-45.5 -21q-27 0 -42.5 29.5t-20.5 63.5q-97 -85 -169 -85q-9 0 -19.5 5t-10.5 13q0 3 4 5q1 0 13 1t27.5 3t23.5 5q59 20 129 85v4
q0 64 18.5 141t48.5 132q14 26 36 49t45 23q35 0 35 -65q0 -63 -32.5 -130.5t-80.5 -121.5q-5 -6 -19 -19.5t-20 -20.5q-1 -22 8 -53t27 -31t44.5 32.5t57.5 65t60 32.5q21 0 41 -20.5t33.5 -44.5t34 -44.5t42.5 -20.5zM286 426q-21 0 -50 -54q-56 -100 -59 -225
q47 52 86.5 122.5t39.5 123.5q0 33 -17 33z" />
    <glyph glyph-name="i" unicode="i" horiz-adv-x="368" 
d="M218 367q0 14 18 14q11 0 17.5 -11.5t6.5 -23.5q0 -15 -12 -15q-10 0 -20 13t-10 23zM224 218q7 0 13 -6q7 -7 7 -27q0 -17 6 -49q18 -90 83 -90q9 0 23 4.5t20 4.5q4 0 4 -5q0 -12 -17 -18t-33 -6q-51 0 -80.5 42t-31.5 95q-13 -30 -43 -64t-61 -58q-61 -48 -127 -48
q-37 0 -37 16q0 7 19 7q42 0 69 11q45 18 88 61t63 88q11 26 18 34q12 8 17 8z" />
    <glyph glyph-name="j" unicode="j" horiz-adv-x="287" 
d="M74 337q-9 4 -16.5 13t-7.5 18q0 15 20 15q8 0 17 -12t9 -25t-11 -13q-7 0 -11 4zM298 59q4 -3 4 -7q0 -14 -28 -22q-78 -26 -118 -50q-4 -94 -22 -162.5t-56 -139.5q-69 -129 -146 -132q-45 0 -68 25t-23 65q0 42 23.5 90t56.5 85q100 110 210 180q0 2 0.5 8t0.5 9
q-2 61 -12 119q-1 9 -7.5 30.5t-6.5 26.5q0 6 4.5 13t12.5 7q19 0 24 -36q4 -33 9 -162l49 25q63 30 82 30q7 0 11 -2zM3 -382q54 57 87 150t39 195q-1 0 -51 -40q-93 -73 -148 -149.5t-55 -135.5q0 -60 52 -60q39 0 76 40z" />
    <glyph glyph-name="k" unicode="k" horiz-adv-x="543" 
d="M540 25q15 0 15 -7q0 -16 -47 -16q-96 0 -159 36q-28 15 -28 34q0 18 37 22t37 20q0 13 -16 13q-19 0 -41 -21t-39.5 -46.5t-41 -46.5t-45.5 -21q-27 0 -43 30.5t-19 62.5q-6 -4 -28 -20t-34 -24t-32 -19t-37.5 -16t-34.5 -5q-34 0 -34 18q0 3 4 5t29 2q20 2 35 7
q57 18 129 84v4q0 64 18.5 141.5t48.5 132.5q14 26 36.5 49t44.5 23q35 0 35 -65q0 -63 -32 -130.5t-81 -121.5q-32 -34 -39 -40q4 -85 35 -85q14 0 34.5 21t39 46t44 46t49.5 21q17 0 29 -12t12 -28q0 -21 -15.5 -32t-32.5 -14t-17 -4q-1 -2 -1 -3q0 -8 34 -23
q50 -20 96 -20q9 0 27.5 1t27.5 1zM288 426q-22 0 -52 -53q-56 -100 -59 -226q48 51 89 121.5t41 123.5q0 34 -19 34z" />
    <glyph glyph-name="l" unicode="l" horiz-adv-x="345" 
d="M333 24q1 0 7 0.5t12 0.5h12t10 -2t4 -5q0 -17 -38 -17q-111 0 -159 106q-97 -114 -193 -114q-38 0 -38 17q0 6 11 6q51 0 77 11q64 25 132 109q-16 46 -16 89q0 60 25.5 128t63.5 115q42 52 78 52q22 0 33 -20t11 -44q0 -94 -112 -253q-3 -5 -10 -14l-10 -13
q-21 -32 -30 -43q45 -109 130 -109zM311 481q-10 0 -23 -9q-43 -29 -72.5 -107t-29.5 -138q0 -34 7 -62q1 1 8 11q49 62 92.5 140t43.5 131q0 34 -26 34z" />
    <glyph glyph-name="m" unicode="m" horiz-adv-x="588" 
d="M445 159q21 0 32 -18q9 -14 15 -45.5t17.5 -50.5t39.5 -21h6q7 0 20 4t19 4t6 -5q0 -12 -18.5 -19t-33.5 -7q-38 0 -55 23q-16 21 -29 65q-9 25 -14 28q-3 3 -8 3q-10 0 -21 -16q-2 -3 -20 -28t-31 -41t-22 -24q-12 -10 -27 -10q-22 0 -32 24q-4 11 -14 42.5t-17 47.5
q-8 18 -16 18q-11 0 -34.5 -33.5t-50.5 -67.5t-47 -34q-14 0 -21.5 10.5t-7.5 25.5q0 17 8 50.5t8 49.5q0 28 -17 28q-15 0 -44.5 -18t-37.5 -18q-10 0 -10 8q0 11 23 27t40 23t30 7q23 0 34.5 -15.5t11.5 -38.5q0 -17 -9.5 -50.5t-9.5 -50.5q0 -7 6 -7q8 0 32.5 35t53.5 70
t50 35q18 0 30 -20t16.5 -44.5t12 -44.5t17.5 -20q7 0 23 19t34.5 46t19.5 28q19 26 42 26z" />
    <glyph glyph-name="n" unicode="n" horiz-adv-x="392" 
d="M398 32q6 0 6 -5q0 -12 -18.5 -19t-33.5 -7q-38 0 -55 23q-6 8 -11.5 18.5t-8 17.5l-7.5 22t-6 19q-11 32 -22 32t-34.5 -33.5t-50.5 -67.5t-47 -34q-29 0 -29 37q0 17 8.5 50.5t8.5 48.5q0 28 -18 28q-15 0 -44.5 -18t-37.5 -18q-10 0 -10 9q0 15 37 35.5t56 20.5
q22 0 34.5 -15t12.5 -37q0 -16 -10 -49.5t-10 -48.5q0 -12 6 -12q1 0 2 1h2l6 6q9 9 34.5 45.5t50 62.5t41.5 26q26 0 43 -55q2 -8 6.5 -29.5t8 -31t15.5 -19.5t31 -11h6q6 0 19 4t19 4z" />
    <glyph glyph-name="o" unicode="o" horiz-adv-x="284" 
d="M296 86q0 -5 -4.5 -9t-9.5 -4h-26q-30 0 -52 5q-15 -42 -51 -72.5t-80 -30.5q-30 0 -46.5 23t-16.5 54q0 59 52 120q43 53 81 53q20 0 30.5 -16t10.5 -37q29 -15 29 -50q0 -9 -2 -21q7 -3 35 -5q14 -1 36 -1q14 0 14 -9zM82 5q34 0 60 24t36 57q-25 8 -41 25.5t-16 36.5
q0 15 11 23t26 8q-6 11 -15 11t-23 -8q-32 -17 -55 -58t-23 -78q0 -41 40 -41zM183 110q1 5 1 14q0 10 -8.5 19.5t-20.5 9.5q-7 0 -7 -10q0 -11 11 -21t24 -12z" />
    <glyph glyph-name="p" unicode="p" horiz-adv-x="337" 
d="M250 234q87 0 87 -60q0 -57 -49 -96.5t-115 -62.5q-54 -19 -76 -18q-39 -149 -106 -291q-21 -43 -35 -43q-7 0 -11.5 5t-4.5 12t17 30q28 36 59 126t49 163q-9 2 -19 8.5t-10 14.5q0 7 8 7q1 0 28 -3q28 111 27 129q-3 -1 -14.5 -8t-20.5 -11t-14 -4q-12 0 -12 12
q0 17 66 50q0 3 0.5 9t0.5 9q0 8 -2.5 22t-2.5 21t6.5 14t13.5 7q21 0 21 -41q0 -13 -3 -25q58 24 112 24zM104 26q41 2 96 28t77 57q23 31 23 56q0 35 -46 35q-54 0 -122 -31q0 -9 -11 -62q-9 -53 -17 -83z" />
    <glyph glyph-name="q" unicode="q" horiz-adv-x="553" 
d="M551 73q14 0 14 -10q0 -13 -27 -22q-106 -37 -181.5 -93t-163.5 -152q-51 -56 -59 -68q-25 -142 -33 -160q-5 -11 -16 -20t-22 -9q-15 0 -23 12t-8 27q0 46 75 154q36 153 94 310q-63 -42 -127 -42q-26 0 -45 17t-19 43q0 15 6 27q20 48 70.5 88t99.5 40q42 0 65 -47
q13 37 34 37q25 0 25 -39q0 -28 -41 -69q0 -3 1 -9.5t1 -9.5q0 -17 -10 -17q-9 0 -16 15l-2 -2q-57 -136 -96 -289q8 8 16.5 17.5l19 20.5l16.5 17q73 78 142.5 129t157.5 87q40 17 52 17zM80 26q25 0 68.5 18.5t66.5 36.5l18 46q-13 59 -51 59q-36 0 -86 -43.5t-50 -79.5
q0 -16 9.5 -26.5t24.5 -10.5zM66 -420q13 0 24 72l-11.5 -19t-14 -26t-5.5 -19q0 -8 7 -8zM277 161q-4 0 -9 -11.5t-5 -16.5q0 -4 2 -10q19 19 19 28q0 10 -7 10z" />
    <glyph glyph-name="r" unicode="r" horiz-adv-x="409" 
d="M354 184q67 0 67 -25q0 -5 -7 -5q-8 0 -33 5q-12 2 -38 2q-75 0 -132 -37.5t-106 -106.5q-22 -31 -37 -31q-16 0 -22.5 27.5t-6 67t-0.5 43.5q-2 11 -9 11q-6 0 -17 -10t-18 -10t-7 9q0 13 18.5 30t32.5 17q29 0 29 -67q0 -11 0.5 -32.5t0.5 -32.5q0 -14 7 -14q2 0 8.5 7
t13 15t7.5 9q31 37 55 57q85 71 194 71z" />
    <glyph glyph-name="s" unicode="s" horiz-adv-x="402" 
d="M194 -62q-37 0 -37 14q0 13 23 13q49 0 86 9q35 10 53.5 19.5t35.5 32.5q13 17 13 43q0 24 -23 48.5t-59.5 53t-51.5 45.5q-47 -40 -85 -64q-99 -62 -138 -62q-23 0 -23 14q0 3 5.5 5.5t14.5 4.5t10 2q90 30 200 124q-6 13 -6 26q0 30 23.5 61t52.5 31q14 0 23 -9.5
t9 -23.5q0 -24 -24 -52q-9 -10 -40 -37l-2 -2q0 -1 1 -1q6 -6 13.5 -12.5l17 -14.5l14.5 -12q44 -36 65 -55q37 -32 37 -71q0 -45 -37.5 -76t-82 -42.5t-88.5 -11.5zM242 268v-7q49 40 49 58q0 8 -9 8q-14 0 -27 -22t-13 -37z" />
    <glyph glyph-name="t" unicode="t" horiz-adv-x="398" 
d="M296 23q26 0 52.5 10.5t41.5 21.5l16 11q4 0 4 -6q0 -25 -41.5 -41t-72.5 -16q-49 0 -78.5 25.5t-29.5 73.5q0 16 9 63q-25 -44 -92 -103t-109 -59q-26 0 -26 13q0 4 6 6.5t15 4t10 1.5q33 9 77 44q82 63 129 171q-32 -2 -47 -2q-31 0 -31 16q0 18 91 18q25 65 39 65
t14 -28q0 -12 -10 -36h57q16 0 16 -4q0 -22 -87 -27l-1 -1q-2 -6 -6.5 -18t-5.5 -14q-24 -68 -24 -107q0 -40 22 -61t62 -21z" />
    <glyph glyph-name="u" unicode="u" horiz-adv-x="364" 
d="M239 117q-23 -56 -63 -99t-89 -43q-38 0 -57.5 25t-19.5 64q0 32 13 81t35 49q17 0 17 -18q0 -8 -16 -47t-16 -67q0 -25 13 -41t37 -16q19 0 33 10t25.5 20.5t22 27.5t14.5 24t15.5 32.5t13.5 28.5q17 33 37 33q25 0 25 -41q0 -6 -1.5 -18.5t-1.5 -19.5q0 -34 13 -58.5
t44 -24.5q7 0 20 3t19 3q4 0 4 -4q0 -11 -16 -17.5t-29 -6.5q-41 0 -64 37t-28 83z" />
    <glyph glyph-name="v" unicode="v" horiz-adv-x="293" 
d="M273 178q0 -22 -96 -154q-32 -44 -57 -44q-23 0 -43 35q-67 120 -67 146q0 14 15 14q2 0 8 -2q7 -3 13 -11.5t8.5 -14.5t7 -19t5.5 -15q0 -1 4 -11t6.5 -17t7.5 -18.5t9.5 -19.5l9 -16t9.5 -12.5t9 -4.5q23 0 93 121q3 4 10.5 18.5t12.5 21.5q10 14 24 14q11 0 11 -11z
" />
    <glyph glyph-name="w" unicode="w" horiz-adv-x="378" 
d="M368 78q0 -36 -22 -63.5t-57 -27.5q-31 0 -53 28.5t-28 62.5q-23 -39 -56 -71.5t-67 -32.5q-40 0 -57.5 36t-17.5 80q0 31 14 78.5t36 47.5q16 0 16 -19q0 -7 -19 -51q-16 -43 -16 -75q0 -25 10.5 -45.5t33.5 -20.5q15 0 30 10q13 9 22.5 17.5t18 22t11.5 19.5t12 26
t11 25q8 16 19 16q18 0 22 -24q4 -30 22 -65t41 -35q21 0 35 24t14 46q0 47 -28 85q-16 21 -16 22q0 5 7 5q26 0 44 -45t18 -76z" />
    <glyph glyph-name="x" unicode="x" horiz-adv-x="284" 
d="M156 85q61 -61 91 -66q1 0 8.5 -0.5t13 -1.5t5.5 -4q0 -7 -11.5 -10.5t-19.5 -3.5q-17 0 -52 23.5t-54 42.5l-13 -13l-25 -26l-27 -26.5t-26.5 -23t-15.5 -8.5q-6 0 -6 7q0 6 5.5 16.5t13 20.5t19 23.5t19.5 21.5l18.5 19l12.5 13q-6 9 -33 32.5t-48 46t-21 34.5
q0 17 19 17q7 0 14 -7q16 -16 18 -19q36 -44 56 -65l16 -18q67 71 95 96q18 15 27 15q14 0 14 -18q0 -7 -5 -14t-18.5 -18.5t-16.5 -14.5q-25 -23 -73 -71z" />
    <glyph glyph-name="y" unicode="y" horiz-adv-x="461" 
d="M468 61q13 0 13 -12q0 -2 -2 -6q-5 -9 -23 -14q-88 -26 -177 -86l-4 -20q-8 -47 -14 -73.5t-17.5 -73t-25.5 -77t-33.5 -65.5t-47 -60.5t-61.5 -42.5q-22 -12 -48 -12q-40 0 -62 31t-22 73q0 92 103 183q90 80 202 147q15 88 24 216q-111 -129 -177 -129q-71 0 -71 126
q0 53 21 53q19 0 19 -37q0 -10 -2 -29.5t-2 -29.5q0 -55 40 -55q15 0 51 20l31 23q21 18 63 76q6 11 19 24q7 9 21 9q27 0 27 -42q0 -8 -11 -85l-18 -120q153 88 184 88zM34 -445q4 0 14 2q64 16 111 93q23 36 41 87.5t25.5 87t18.5 95.5q-17 -13 -50 -36l-58.5 -42
t-46.5 -39q-43 -39 -76.5 -87.5t-33.5 -93.5q0 -27 14.5 -47t40.5 -20z" />
    <glyph glyph-name="z" unicode="z" horiz-adv-x="619" 
d="M616 60q15 0 15 -10q0 -2 -2 -6q-6 -7 -25 -15q-71 -25 -92 -35q-96 -45 -172 -94q-7 -4 -46 -33l-6 -5q8 -33 8 -76q0 -66 -15 -124q-13 -52 -50 -83.5t-83 -31.5q-36 0 -56.5 24t-20.5 55q0 52 30.5 102t64 79.5t84.5 66.5q-19 66 -57 90q-1 -1 -9.5 -9t-11.5 -10
t-11 -9t-13 -9.5t-12 -6.5t-13.5 -5.5t-13.5 -1.5q-29 0 -29 26t24.5 43t51.5 17q14 0 31 -5q29 27 56.5 67.5t27.5 68.5t-23 40.5t-53 12.5q-78 0 -143 -70q-1 -1 -12 -15t-19 -20.5t-16 -6.5q-7 0 -12 5t-5 12q0 20 32 47.5t64 47.5q55 33 114 33q45 0 77.5 -18.5
t32.5 -60.5q0 -65 -95 -155q2 -2 10 -9.5t10 -9t8 -7.5t7.5 -8.5t6.5 -8t7 -9.5l5 -10t5.5 -12.5t5.5 -13.5q91 67 287 150q35 16 51 16zM153 -424q36 0 64 28q46 47 46 175q0 37 -5 62q-155 -103 -155 -213q0 -23 13.5 -37.5t36.5 -14.5zM117 -59q16 0 49 33h-6
q-14 0 -32 -8t-18 -20q0 -5 7 -5z" />
    <glyph glyph-name="braceleft" unicode="{" horiz-adv-x="357" 
d="M209 422q6 -60 6 -61q0 -44 -28 -75q-8 -10 -21 -18t-21 -11.5t-27.5 -11t-25.5 -10.5q11 -7 36 -20.5t34.5 -21.5t19.5 -28.5t10 -49.5q0 -14 -1 -38.5t-1 -33.5q0 -25 9 -42q7 -15 26.5 -29t36.5 -13q3 0 15 2.5t18 2.5q12 0 12 -11q0 -19 -41 -19q-39 0 -71.5 33
t-32.5 74q0 6 1 24.5t1 28.5q0 54 -25 72q-7 5 -34 18t-41 26.5t-14 31.5q0 12 9 18t28 10t25 7q40 17 44 21q23 22 23 55q0 12 -3.5 36t-3.5 37q0 37 28.5 73t59.5 36q11 0 27 -5.5t16 -14.5q0 -11 -19 -11q-6 0 -13.5 0.5t-9.5 0.5q-22 0 -37.5 -22t-15.5 -49q0 -2 0.5 -6
t0.5 -6z" />
    <glyph glyph-name="bar" unicode="|" horiz-adv-x="136" 
d="M55 -83q-5 5 -5 24q0 12 1 40.5t1 40.5q0 14 -0.5 43t-0.5 47q0 147 4 323q0 4 0.5 13.5t1 18t2 17t5 13.5t8.5 5q9 0 11.5 -10t2.5 -34t-1.5 -91t-1.5 -86v-16q-1 -46 -1 -102.5t-0.5 -95.5t-2.5 -76q0 -78 -18 -78q-3 0 -6 4z" />
    <glyph glyph-name="braceright" unicode="}" horiz-adv-x="360" 
d="M147 423v9q0 28 -15 51t-37 23q-3 0 -10 -0.5t-13 -0.5q-20 0 -20 11q0 9 17 14t29 5q32 0 60.5 -34.5t28.5 -71.5q0 -13 -3.5 -37.5t-3.5 -36.5q0 -35 24 -56q4 -4 44 -21q6 -3 24.5 -7t28 -10t9.5 -18q0 -18 -14 -31.5t-41 -26.5t-34 -18q-25 -18 -25 -74
q0 -9 0.5 -24.5t0.5 -21.5q0 -42 -31 -77t-68 -35q-12 0 -30 6.5t-18 15.5q0 8 11 8q6 0 18 -2.5t15 -2.5q16 -1 36 13t27 29q9 19 9 42q0 10 -1.5 39.5t-1.5 43.5q0 25 11 43t22 26t35 21t33 19l-26 10t-26.5 11t-20.5 11t-19 15q-31 35 -31 79q0 21 6 61z" />
    <glyph glyph-name="asciitilde" unicode="~" horiz-adv-x="282" 
d="M225 147h1q6 0 6 -8q0 -15 -20.5 -27.5t-38.5 -12.5q-16 0 -33 14t-25 14q-14 0 -35.5 -14.5t-24.5 -14.5q-5 0 -5 7q0 16 23 30t42 14q20 0 36.5 -14.5t23.5 -14.5q12 0 30 13.5t20 13.5z" />
    <glyph glyph-name="exclamdown" unicode="&#xa1;" horiz-adv-x="253" 
d="M96 128q10 22 15 22q7 0 7 -9q0 -13 -14 -77q-4 -20 -9.5 -52.5t-8.5 -46.5q-1 -5 -5.5 -32.5t-7.5 -44t-9 -38.5t-13.5 -33.5t-15.5 -11.5q-18 0 -18 21q0 12 3 20q26 135 76 282zM149 254q-6 -3 -13 -3q-12 0 -19.5 7.5t-7.5 16.5q0 7 6.5 15t14.5 8q10 0 19.5 -8.5
t9.5 -18.5q0 -14 -10 -17z" />
    <glyph glyph-name="cent" unicode="&#xa2;" horiz-adv-x="502" 
d="M305 -6h-6v-76h-76v76q-70 2 -119.5 50.5t-49.5 127.5v227q0 74 45 125t124 54v76h76v-76h4q70 0 115.5 -48t45.5 -120h-85q0 35 -22.5 61t-57.5 27v-424q37 0 58.5 26.5t21.5 64.5h85q0 -79 -45.5 -125t-113.5 -46zM223 74v424q-39 0 -61 -29.5t-22 -70.5v-218
q0 -49 22.5 -77.5t60.5 -28.5z" />
    <glyph glyph-name="sterling" unicode="&#xa3;" horiz-adv-x="484" 
d="M173 286l55 6l2 21q20 204 125 204q19 0 41 -9t22 -21q0 -10 -9 -10q-7 0 -20.5 6.5t-14.5 6.5q-2 0 -6 0.5t-7 0.5q-22 0 -37.5 -11.5t-25 -36.5t-14 -42.5t-9.5 -52.5t-6 -43q-2 -8 -2 -10l53 4q16 1 48 1q47 0 47 -10q0 -9 -17 -13t-66 -7.5t-70 -5.5
q-9 -60 -12 -103.5t-4.5 -61t-10.5 -38.5q37 -20 52 -26q37 -15 72 -15q15 0 35 4.5t28 4.5q6 0 8 -1q4 -3 4 -9q0 -3 -4 -8.5t-19.5 -11.5t-39.5 -6q-16 0 -31.5 1.5t-27.5 4t-24.5 7t-19.5 7.5t-16.5 8t-13 7.5l-10.5 7.5l-7 4q-18 -25 -52.5 -45t-70.5 -20q-17 0 -32.5 8
t-15.5 28q0 19 13.5 33.5t33 21.5t35 10t25.5 4q35 0 54 -6q2 0 3.5 10.5t3 31.5l3 41.5t3 51l2.5 49.5q-87 -13 -103 -13q-40 0 -40 8q0 18 90 33zM196 55q-2 0 -7 0.5t-8 0.5q-31 0 -64.5 -13.5t-33.5 -25.5q0 -13 17 -13q25 0 52.5 16t43.5 35z" />
    <glyph glyph-name="currency" unicode="&#xa4;" horiz-adv-x="449" 
d="M362 95l-69 68q-33 -18 -73 -18q-38 0 -69 16l-65 -66l-53 53l62 62q-26 37 -26 84t25 83l-61 61l53 53l64 -65q30 17 70 17q39 0 74 -19l68 67l52 -53l-65 -65q23 -38 23 -79q0 -43 -24 -80l66 -66zM289 294q0 32 -19.5 53.5t-49.5 21.5t-50 -21.5t-20 -53.5
q0 -31 20 -52.5t50 -21.5t49.5 21.5t19.5 52.5z" />
    <glyph glyph-name="yen" unicode="&#xa5;" horiz-adv-x="493" 
d="M109 572l139 -274l136 274h81v-30l-131 -249h84v-65h-118l-12 -23v-16h130v-65h-130v-124h-84v124h-121v65h121v16l-12 23h-109v65h75l-130 249v30h81z" />
    <glyph glyph-name="brokenbar" unicode="&#xa6;" horiz-adv-x="298" 
d="M191 654v-292h-85v292h85zM191 210v-292h-85v292h85z" />
    <glyph glyph-name="section" unicode="&#xa7;" horiz-adv-x="499" 
d="M209 -70h79q34 0 56 19.5t22 49.5q0 34 -21.5 49.5t-75.5 26.5l-78 16q-72 15 -111.5 47.5t-39.5 98.5q0 51 35 101q-30 32 -30 83q0 66 47 111.5t114 45.5h81q73 0 119 -47t46 -121h-85q0 38 -22 63t-55 25h-84q-32 0 -53.5 -18t-21.5 -50q0 -26 18 -38.5t68 -23.5
l98 -22q144 -33 144 -168q0 -49 -29 -88q26 -32 26 -80q0 -62 -49 -111t-116 -49h-89q-61 0 -112 47t-51 121h84q0 -40 26 -64t60 -24zM194 285q-33 7 -53 14q-15 -22 -15 -57q0 -33 20 -45t78 -25l88 -20q25 -5 50 -15q10 19 10 46q0 36 -22.5 55.5t-77.5 30.5z" />
    <glyph glyph-name="dieresis" unicode="&#xa8;" horiz-adv-x="259" 
d="M167 367q0 14 18 14q11 0 17.5 -11.5t6.5 -23.5q0 -15 -12 -15q-10 0 -20 13t-10 23zM50 367q0 14 18 14q11 0 17.5 -11.5t6.5 -23.5q0 -15 -12 -15q-10 0 -20 13t-10 23z" />
    <glyph glyph-name="copyright" unicode="&#xa9;" horiz-adv-x="632" 
d="M234 64h164q47 0 85 45t38 97v160q0 52 -38.5 97t-86.5 45h-160q-50 0 -87.5 -44.5t-37.5 -97.5v-160q0 -53 37 -97.5t86 -44.5zM344 124h-46q-38 0 -67 27.5t-29 70.5v121q0 40 26.5 69t69.5 29h44q41 0 67 -31.5t26 -73.5h-65q0 18 -10.5 31t-25.5 13h-24
q-16 0 -28 -10.5t-12 -30.5v-106q0 -44 36 -44h30q14 0 24 13t10 30h65q0 -44 -27 -76t-64 -32zM382 -6h-132q-96 0 -155 65.5t-59 148.5v155q0 83 59 149t155 66h132q96 0 155 -66t59 -149v-155q0 -83 -59 -148.5t-155 -65.5z" />
    <glyph glyph-name="ordfeminine" unicode="&#xaa;" horiz-adv-x="309" 
d="M126 719h56l84 -207v-12h-56l-15 42h-83l-14 -42h-55v12zM153 659l-25 -72h51z" />
    <glyph glyph-name="guillemotleft" unicode="&#xab;" horiz-adv-x="366" 
d="M193 7q15 -16 15 -26q0 -6 -5 -6q-6 0 -30 21l-40 33l-22.5 17l-23 17t-18.5 15t-14 14.5t-5 11.5q0 8 16 21q130 106 137 106q5 0 5 -7q0 -6 -25 -35t-37 -36l-30 -24.5t-20.5 -17.5t-9.5 -8q3 -2 9.5 -8t20.5 -17.5l30 -24.5q37 -35 47 -46zM302 7q14 -15 14 -26
q0 -6 -4 -6q-6 0 -13 5.5t-58 48.5q-10 8 -35 26t-36 29t-11 20q0 7 16 21q130 106 137 106q4 0 4 -6q0 -11 -14 -26l-48 -46l-28.5 -24.5l-20.5 -17.5t-10 -8q3 -2 10 -8l20.5 -17.5l28.5 -24.5q38 -35 48 -46z" />
    <glyph glyph-name="logicalnot" unicode="&#xac;" horiz-adv-x="537" 
d="M453 326v-238h-75v160h-294v78h369z" />
    <glyph glyph-name="uni00AD" unicode="&#xad;" horiz-adv-x="446" 
d="M326 143q20 0 20 -10q0 -14 -20 -14q-205 -4 -211 -4q-15 0 -15 12q0 13 25 14q46 2 174 2h27z" />
    <glyph glyph-name="registered" unicode="&#xae;" horiz-adv-x="436" 
d="M168 243h101q28 0 54.5 32.5t26.5 63.5v90q0 31 -27 64t-56 33h-97q-31 0 -57.5 -32.5t-26.5 -64.5v-90q0 -34 26.5 -65t55.5 -31zM258 191h-79q-64 0 -107.5 47.5t-43.5 102.5v86q0 55 43.5 103t107.5 48h79q63 0 106.5 -48t43.5 -103v-86q0 -55 -43 -102.5t-107 -47.5z
M198 356v-70h-51v197h95q21 0 40 -18.5t19 -40.5q0 -38 -40 -59l40 -67v-12h-51l-37 70h-15zM198 445v-50h22q11 0 19.5 7.5t8.5 18.5q0 10 -8 17t-18 7h-24z" />
    <glyph glyph-name="macron" unicode="&#xaf;" horiz-adv-x="482" 
d="M320 622h-231v68h231v-68z" />
    <glyph glyph-name="degree" unicode="&#xb0;" horiz-adv-x="426" 
d="M184 572q10 6 34 6q86 0 86 -82q0 -31 -27 -61.5t-66 -30.5t-58.5 24.5t-19.5 55.5q0 60 51 88zM235 435q15 5 24 22t9 37q0 24 -13 40.5t-37 16.5q-23 0 -38 -15t-15 -44q0 -24 13.5 -42t37.5 -18q10 0 19 3z" />
    <glyph glyph-name="plusminus" unicode="&#xb1;" horiz-adv-x="563" 
d="M318 483v-160h161v-75h-161v-171h161v-77h-395v77h160v171h-160v75h160v160h74z" />
    <glyph glyph-name="twosuperior" unicode="&#xb2;" horiz-adv-x="308" 
d="M248 262q10 -10 10 -14q0 -24 -149 -24h-8h-10h-11t-11.5 1.5t-9 3.5t-7 6t-2.5 9q0 11 11 22q50 49 103 119q16 21 16 33q0 10 -8 17t-20 7t-30.5 -12.5t-26.5 -14.5q-20 0 -20 14q0 18 27.5 32t46.5 14q24 0 43 -15t22 -39q0 -25 -26 -60q-44 -58 -90 -104h5
q1 0 2 -0.5t2 -0.5q55 0 128 6h2q2 1 4 1q1 0 3 -0.5t4 -0.5z" />
    <glyph glyph-name="threesuperior" unicode="&#xb3;" horiz-adv-x="259" 
d="M184 363q25 -14 25 -51q0 -45 -35.5 -67.5t-81.5 -22.5q-37 0 -42 21q0 15 15 15q5 0 17 -2.5t18 -2.5q34 0 56.5 18.5t22.5 39.5q0 1 -3 16l-1 1q-3 11 -15 11q-6 0 -20 -4t-19 -4q-18 0 -18 16q0 11 15 14l4 3l10.5 6t6.5 3q38 25 38 53q0 18 -17 18q-16 0 -33 -14v-1
q-16 -14 -26 -14q-6 -1 -10 3.5t-4 10.5q0 11 14 22h2q24 22 58 22q25 0 36.5 -13t11.5 -31q0 -35 -33 -63q1 -1 8 -3z" />
    <glyph glyph-name="acute" unicode="&#xb4;" horiz-adv-x="198" 
d="M65 273q-3 -1 -9 -1t-6 4q0 6 36 35.5t47 29.5q15 0 15 -10q0 -9 -32.5 -31t-50.5 -27z" />
    <glyph glyph-name="paragraph" unicode="&#xb6;" horiz-adv-x="483" 
d="M270 572v-572h-77v293q-56 11 -94.5 43.5t-38.5 92.5q0 65 53 104t125 39h32zM418 572v-572h-78v572h78z" />
    <glyph glyph-name="periodcentered" unicode="&#xb7;" horiz-adv-x="248" 
d="M106 138q6 6 15 6q11 0 19 -8.5t8 -17.5q0 -8 -5.5 -15t-15.5 -7q-27 0 -27 27q0 11 6 15z" />
    <glyph glyph-name="cedilla" unicode="&#xb8;" horiz-adv-x="151" 
d="M65 -112q-13 0 -13 4t5 6.5l13.5 6.5t13.5 9q13 14 16.5 34t4.5 31t11 11q13 0 13 -10q0 -18 -3.5 -35.5t-19 -35.5t-41.5 -21z" />
    <glyph glyph-name="onesuperior" unicode="&#xb9;" horiz-adv-x="172" 
d="M113 480q9 -4 9 -15q0 -2 -0.5 -5t-0.5 -4q-5 -13 -9.5 -51t-4.5 -50l-18 -124q-3 -33 -21 -33q-7 -1 -12.5 4.5t-5.5 13.5q0 4 2 10v2q0 2 1.5 8t1.5 10q22 160 24 162q0 18 4 31q-5 -5 -15 -5q-14 0 -14 15v2.5v2t0.5 2t1.5 2.5t3.5 3t6.5 4.5t9.5 5.5t13.5 7h2
q6 4 15 4q3 0 7 -2z" />
    <glyph glyph-name="ordmasculine" unicode="&#xba;" horiz-adv-x="287" 
d="M99 634v-50q0 -14 10.5 -25.5t22.5 -11.5h23q13 0 23 11.5t10 25.5v50q0 14 -10 26t-23 12h-23q-12 0 -22.5 -12t-10.5 -26zM45 574v70q0 28 23 53t51 25h50q28 0 50.5 -25t22.5 -53v-70q0 -27 -22.5 -52.5t-50.5 -25.5h-50q-28 0 -51 25.5t-23 52.5z" />
    <glyph glyph-name="guillemotright" unicode="&#xbb;" horiz-adv-x="367" 
d="M174 6l47 46q22 17 40.5 33t19.5 17q-4 2 -10.5 8.5t-20 18t-29.5 23.5q-37 35 -47 46q-15 16 -15 26q0 6 5 6q7 0 137 -106q16 -11 16 -21q0 -8 -10.5 -18.5t-37 -29.5t-35.5 -27q-68 -53 -70 -54q-5 0 -5 6q0 10 15 26zM65 6l32 32l21 20.5t17 14.5l11.5 9t12.5 9.5
l14 10.5q-2 2 -12 9.5l-19 14.5t-30 26t-47 46q-12 11 -15 26q0 6 5 6q7 0 137 -106q14 -10 17 -21q0 -8 -10.5 -18.5t-37 -30l-35.5 -26.5q-64 -52 -67 -53q-2 -1 -4 -1q-5 0 -5 6q0 10 15 26z" />
    <glyph glyph-name="onequarter" unicode="&#xbc;" horiz-adv-x="613" 
d="M552 163q11 -2 11 -15t-12 -16t-62 -3q-4 -9 -7 -20t-5 -15q-3 -10 -5.5 -17.5l-3.5 -10.5t-2 -5t-1.5 -3.5t-0.5 -3.5q-12 -26 -23 -26q-15 0 -15 23q4 9 26 72v3q-23 -3 -54 -3q-36 0 -36 27q0 8 4 16l39 104q18 66 36 66q5 0 10.5 -4.5t5.5 -11.5t-4 -14v-2
q-6 -14 -7 -21q-2 -7 -14.5 -36.5t-30.5 -89.5h4q14 0 30 1t27 1q5 19 11 38t8.5 28l4.5 16l2 3q1 5 6.5 11t12.5 6q13 -1 13 -17q0 -6 -2 -12v-6q-10 -21 -18 -63q1 0 3 2q12 1 37 1q6 0 12 -3zM58 33q0 -8 11 -8q6 0 12 2.5t12.5 9t10.5 11t12 15t11 13.5l47.5 59
l58.5 75.5l64 82.5q5 9 66.5 85.5t66.5 87.5q5 8 5 14q0 13 -10 13q-14 0 -48 -43l-156 -201q-34 -40 -73 -93t-59 -77q-31 -38 -31 -46zM113 501q8 -4 8 -13l-2 -11q-2 -8 -7 -51.5t-7 -49.5q-2 -7 -6 -38l-7.5 -58.5t-2.5 -27.5q-6 -33 -21 -33q-18 0 -18 18q0 7 1 10v2
q0 3 1.5 9.5t1.5 8.5q23 160 23 162q0 1 2 12.5t2 18.5q-4 -5 -13 -5q-7 0 -11.5 5t-4.5 9q0 5 1 8t4.5 5.5t6 4t11 5.5l14.5 7h1q5 4 16 4q3 0 7 -2z" />
    <glyph glyph-name="onehalf" unicode="&#xbd;" horiz-adv-x="605" 
d="M58 14q0 -8 11 -8q6 0 12 2.5t12.5 9t10.5 11t12 15t11 13.5l47.5 59l58.5 75.5l64 82.5q5 9 66.5 85.5t66.5 87.5q5 8 5 14q0 13 -10 13q-14 0 -48 -43l-156 -201q-34 -40 -73 -93t-59 -77q-31 -38 -31 -46zM545 54q10 -10 10 -14q0 -24 -149 -24h-8h-10h-11t-11.5 1.5
t-9 3.5t-7 6t-2.5 9q0 11 11 22q50 49 103 119q16 21 16 33q0 10 -8 17t-20 7t-30.5 -12.5t-26.5 -14.5q-20 0 -20 14q0 18 27.5 32t46.5 14q24 0 43 -15t22 -39q0 -25 -26 -60q-44 -58 -90 -104h5l2 -1h2q54 0 128 6h2q2 1 4 1t4 -1h3zM113 480q9 -4 9 -15q0 -2 -0.5 -5
t-0.5 -4q-5 -13 -9.5 -51t-4.5 -50l-18 -124q-3 -33 -21 -33q-7 -1 -12.5 4.5t-5.5 13.5q0 4 2 10v2q0 2 1.5 8t1.5 10q22 160 24 162q0 18 4 31q-5 -5 -15 -5q-14 0 -14 15v2.5v2t0.5 2t1.5 2.5t3.5 3t6.5 4.5t9.5 5.5t13.5 7h2q6 4 15 4q3 0 7 -2z" />
    <glyph glyph-name="threequarters" unicode="&#xbe;" horiz-adv-x="672" 
d="M610 133q12 -2 12 -16q-2 -12 -17 -15l-9 -1q-8 -1 -22 -1.5t-27 -0.5l-7 -22.5l-6.5 -20t-5 -16t-4.5 -13.5t-4.5 -10.5t-4.5 -8.5t-4.5 -5.5t-5.5 -3.5t-6 -1q-6 0 -10.5 5t-4.5 12q0 14 6 21q0 1 3.5 11l8.5 23.5t7 22.5v3q-22 -3 -54 -3q-35 0 -35 27q0 8 4 16
l39 104q10 33 18 49h1q6 17 17 17q5 0 10.5 -4.5t5.5 -11.5q0 -6 -3 -14v-2q-6 -13 -15.5 -40t-14.5 -39q-8 -39 -24 -68h6q10 0 26.5 1t29.5 1q15 55 25 82v3q7 17 20 17q6 0 10 -5.5t4 -11.5t-2 -12l-2 -6q-12 -47 -18 -63q3 0 5 2q12 1 36 1q8 0 12 -3zM120 7q0 -8 11 -8
q6 0 12 2.5t12.5 9t10.5 11t12 15t11 13.5l47.5 59l58.5 75.5l64 82.5q5 9 66.5 85.5t66.5 87.5q5 8 5 14q0 13 -10 13q-14 0 -48 -43l-156 -201q-34 -40 -73 -93t-59 -77q-31 -38 -31 -46zM184 363q25 -14 25 -51q0 -45 -35.5 -67.5t-81.5 -22.5q-37 0 -42 21q0 15 15 15
q5 0 17 -2.5t18 -2.5q34 0 56.5 18.5t22.5 39.5q0 1 -3 16l-1 1q-3 11 -15 11q-6 0 -20 -4t-19 -4q-18 0 -18 16q0 11 15 14l4 3l10.5 6t6.5 3q38 25 38 53q0 18 -17 18q-16 0 -33 -14v-1q-16 -14 -26 -14q-6 -1 -10 3.5t-4 10.5q0 11 14 22h2q24 22 58 22q25 0 36.5 -13
t11.5 -31q0 -35 -33 -63q1 -1 8 -3z" />
    <glyph glyph-name="questiondown" unicode="&#xbf;" horiz-adv-x="343" 
d="M-8 -105q0 30 18 59q13 23 56 46.5t56 36.5q11 10 19.5 27t12 30t8.5 35.5t7 29.5q7 14 14 14q8 0 8 -14q1 -11 -6 -47q-3 -56 -37 -90q-13 -13 -48 -33.5t-54.5 -43t-19.5 -57.5q0 -30 20.5 -50.5t56.5 -20.5q46 0 77 30q4 6 14 6q14 0 14 -15q0 -9 -5 -14
q-33 -38 -97 -38q-8 0 -22 2q-51 11 -71.5 36.5t-20.5 70.5zM214 281q-5 -5 -14 -5q-14 0 -23 8t-9 18q0 8 6.5 16.5t16.5 8.5q13 0 24 -10t11 -21q0 -10 -12 -15z" />
    <glyph glyph-name="Agrave" unicode="&#xc0;" horiz-adv-x="490" 
d="M406 260q4 1 11 1q13 0 13 -12q0 -17 -36 -23q4 -67 10 -125t9.5 -85.5t3.5 -28.5q-1 -11 -15 -11q-5 0 -9 3t-6.5 9t-4.5 12.5t-3.5 16t-2 16t-1.5 16.5t-1 14l-15 156q-19 -4 -73 -13l-93.5 -15.5t-39.5 -8.5q-75 -168 -78 -176q-12 -27 -23 -31q-5 -2 -10 -2
q-12 0 -12 13q0 15 85 193q-18 -2 -22 -2q-29 0 -29 16q0 9 7 12t28 5.5t32 4.5l37 84l37 84l31 69t28 57.5t20 31.5q18 22 39 22q13 0 21.5 -8t13.5 -24.5t7 -28t3.5 -33.5t1.5 -26q3 -32 10 -88.5t11 -96.5zM336 248l20 4q-7 96 -25 242q-3 25 -15 25q-16 0 -106 -207
l-18 -41q-15 -33 -22 -50q110 17 166 27zM357 606q-18 5 -50.5 27t-32.5 31q0 10 15 10q11 0 47 -29.5t36 -35.5q0 -4 -7 -4q-5 0 -8 1z" />
    <glyph glyph-name="Aacute" unicode="&#xc1;" horiz-adv-x="490" 
d="M406 260q4 1 11 1q13 0 13 -12q0 -17 -36 -23q4 -67 10 -125t9.5 -85.5t3.5 -28.5q-1 -11 -15 -11q-5 0 -9 3t-6.5 9t-4.5 12.5t-3.5 16t-2 16t-1.5 16.5t-1 14l-15 156q-19 -4 -73 -13l-93.5 -15.5t-39.5 -8.5q-75 -168 -78 -176q-12 -27 -23 -31q-5 -2 -10 -2
q-12 0 -12 13q0 15 85 193q-18 -2 -22 -2q-29 0 -29 16q0 9 7 12t28 5.5t32 4.5l37 84l37 84l31 69t28 57.5t20 31.5q18 22 39 22q13 0 21.5 -8t13.5 -24.5t7 -28t3.5 -33.5t1.5 -26q3 -32 10 -88.5t11 -96.5zM336 248l20 4q-7 96 -25 242q-3 25 -15 25q-16 0 -106 -207
l-18 -41q-15 -33 -22 -50q110 17 166 27zM293 601q-3 -1 -9 -1t-6 4q0 6 36 35.5t47 29.5q15 0 15 -10q0 -9 -32.5 -31t-50.5 -27z" />
    <glyph glyph-name="Acircumflex" unicode="&#xc2;" horiz-adv-x="490" 
d="M406 260q4 1 11 1q13 0 13 -12q0 -17 -36 -23q4 -67 10 -125t9.5 -85.5t3.5 -28.5q-1 -11 -15 -11q-5 0 -9 3t-6.5 9t-4.5 12.5t-3.5 16t-2 16t-1.5 16.5t-1 14l-15 156q-19 -4 -73 -13l-93.5 -15.5t-39.5 -8.5q-75 -168 -78 -176q-12 -27 -23 -31q-5 -2 -10 -2
q-12 0 -12 13q0 15 85 193q-18 -2 -22 -2q-29 0 -29 16q0 9 7 12t28 5.5t32 4.5l37 84l37 84l31 69t28 57.5t20 31.5q18 22 39 22q13 0 21.5 -8t13.5 -24.5t7 -28t3.5 -33.5t1.5 -26q3 -32 10 -88.5t11 -96.5zM336 248l20 4q-7 96 -25 242q-3 25 -15 25q-16 0 -106 -207
l-18 -41q-15 -33 -22 -50q110 17 166 27zM416 607q6 -5 6 -10t-6 -5q-13 0 -63 31q-20 12 -21 12q-8 -2 -28 -14q-45 -28 -56 -28q-3 0 -5 1t-2 2v1q0 13 78 61q7 4 11 4h2q3 0 36 -21t48 -34z" />
    <glyph glyph-name="Atilde" unicode="&#xc3;" horiz-adv-x="490" 
d="M406 260q4 1 11 1q13 0 13 -12q0 -17 -36 -23q4 -67 10 -125t9.5 -85.5t3.5 -28.5q-1 -11 -15 -11q-5 0 -9 3t-6.5 9t-4.5 12.5t-3.5 16t-2 16t-1.5 16.5t-1 14l-15 156q-19 -4 -73 -13l-93.5 -15.5t-39.5 -8.5q-75 -168 -78 -176q-12 -27 -23 -31q-5 -2 -10 -2
q-12 0 -12 13q0 15 85 193q-18 -2 -22 -2q-29 0 -29 16q0 9 7 12t28 5.5t32 4.5l37 84l37 84l31 69t28 57.5t20 31.5q18 22 39 22q13 0 21.5 -8t13.5 -24.5t7 -28t3.5 -33.5t1.5 -26q3 -32 10 -88.5t11 -96.5zM336 248l20 4q-7 96 -25 242q-3 25 -15 25q-16 0 -106 -207
l-18 -41q-15 -33 -22 -50q110 17 166 27zM420 648h1q6 0 6 -8q0 -15 -20.5 -27.5t-38.5 -12.5q-16 0 -33 14t-25 14q-14 0 -35.5 -14.5t-24.5 -14.5q-5 0 -5 7q0 16 23 30t42 14q20 0 36.5 -14.5t23.5 -14.5q12 0 30 13.5t20 13.5z" />
    <glyph glyph-name="Adieresis" unicode="&#xc4;" horiz-adv-x="490" 
d="M406 260q4 1 11 1q13 0 13 -12q0 -17 -36 -23q4 -67 10 -125t9.5 -85.5t3.5 -28.5q-1 -11 -15 -11q-5 0 -9 3t-6.5 9t-4.5 12.5t-3.5 16t-2 16t-1.5 16.5t-1 14l-15 156q-19 -4 -73 -13l-93.5 -15.5t-39.5 -8.5q-75 -168 -78 -176q-12 -27 -23 -31q-5 -2 -10 -2
q-12 0 -12 13q0 15 85 193q-18 -2 -22 -2q-29 0 -29 16q0 9 7 12t28 5.5t32 4.5l37 84l37 84l31 69t28 57.5t20 31.5q18 22 39 22q13 0 21.5 -8t13.5 -24.5t7 -28t3.5 -33.5t1.5 -26q3 -32 10 -88.5t11 -96.5zM336 248l20 4q-7 96 -25 242q-3 25 -15 25q-16 0 -106 -207
l-18 -41q-15 -33 -22 -50q110 17 166 27zM360 634q0 14 18 14q11 0 17.5 -11.5t6.5 -23.5q0 -15 -12 -15q-10 0 -20 13t-10 23zM243 634q0 14 18 14q11 0 17.5 -11.5t6.5 -23.5q0 -15 -12 -15q-10 0 -20 13t-10 23z" />
    <glyph glyph-name="AE" unicode="&#xc6;" horiz-adv-x="619" 
d="M578 55q11 0 11 -10q0 -14 -24 -23q-13 -5 -92 -19t-87 -11q-12 -2 -40 -4q-1 -19 -4 -24t-10 -5q-20 0 -20 29q7 47 8.5 75t1.5 67.5t2 83.5q-23 0 -84 -3t-71 -3l-53 -119.5t-40 -92.5q-12 -33 -33 -33q-13 0 -13 14q0 6 7 22l96 208q-10 -1 -25 -1q-45 0 -45 19
q0 3 1 5.5t4 4t6 2.5t8.5 2t10 1h11.5h13h14.5h15.5l33.5 76l33.5 76.5l27 58.5t26.5 52.5t17.5 27.5q18 22 39 22q35 0 40 -65q158 11 169 11q21 0 21 -8q0 -10 -38 -18t-68 -10q-19 -1 -38.5 -3t-30.5 -3t-14 -1q0 -55 -5 -205l15 2q37 3 78.5 7.5t67.5 8t33 3.5
q15 0 15 -13q0 -10 -19 -16t-44 -9t-26 -3l-121 -13l-11 -199q7 1 58 10t102.5 17t69.5 9zM311 246l14 2q0 44 4.5 106t4.5 83q0 72 -17 72q-6 0 -15.5 -13.5t-24.5 -44t-26.5 -56.5l-33 -76.5l-33.5 -77.5q34 2 73 3t54 2z" />
    <glyph glyph-name="Ccedilla" unicode="&#xc7;" horiz-adv-x="536" 
d="M224 -123q-6 -7 -21 -7q-9 0 -9 8q0 5 11 13.5t22 21t11 28.5q0 6 -2 15.5t-2 17.5q0 10 3 16q-94 4 -140.5 58.5t-46.5 136.5q0 77 54 167q46 77 102.5 115t107.5 38q39 0 74.5 -19t35.5 -42q0 -8 -8 -8q-9 0 -22 11q-36 27 -78 27q-58 0 -118 -54q-44 -44 -71 -93
q-41 -73 -41 -148q0 -29 7 -54t24 -49.5t52 -39t86 -14.5q123 0 228 87q33 29 42 30q11 0 11 -9q0 -14 -26 -40q-53 -45 -107.5 -70.5t-135.5 -28.5q13 -10 13 -29q0 -57 -56 -85z" />
    <glyph glyph-name="Egrave" unicode="&#xc8;" horiz-adv-x="486" 
d="M437 546q1 0 6.5 -1.5t8 -2.5t6 -3.5t3.5 -6.5q0 -14 -26 -14q-10 0 -35.5 2.5t-39.5 2.5q-58 0 -112 -9q-7 0 -11 -11q-7 -18 -55 -229l1 -1q2 1 10 1l9 2q68 9 130 9h1q13 1 41 1q47 0 47 -13q0 -5 -5.5 -8t-19.5 -5t-28.5 -3.5t-41 -4l-47.5 -4.5h-8q-14 -1 -52 -6
t-47 -5v-1q-26 -110 -48 -190v-1l10 1q40 5 116.5 16t118.5 16q1 0 10 1.5t13 1.5q33 0 33 -18q0 -12 -49 -12q-5 -2 -22 -3.5t-19 -2.5h-7q-32 -6 -87.5 -12t-78.5 -10q-42 -9 -46 -9q-13 -44 -25 -44q-4 0 -8 4.5t-4 11.5q0 5 4 19v2l-1 -1q-20 -4 -25 -4q-12 0 -12 13
q0 17 46 24l1 1v2l1 2l46 192h-6q-9 0 -9 7q0 15 22 22l37 150q4 18 13 52t10 44l1 1h-1q-14 -3 -44 -6q-15 0 -15 10q0 5 3 8.5t21 8.5t52 10q72 10 143 10q50 0 71 -7zM351 576q-18 5 -50.5 27t-32.5 31q0 10 15 10q11 0 47 -29.5t36 -35.5q0 -4 -7 -4q-5 0 -8 1z" />
    <glyph glyph-name="Eacute" unicode="&#xc9;" horiz-adv-x="486" 
d="M437 546q1 0 6.5 -1.5t8 -2.5t6 -3.5t3.5 -6.5q0 -14 -26 -14q-10 0 -35.5 2.5t-39.5 2.5q-58 0 -112 -9q-7 0 -11 -11q-7 -18 -55 -229l1 -1q2 1 10 1l9 2q68 9 130 9h1q13 1 41 1q47 0 47 -13q0 -5 -5.5 -8t-19.5 -5t-28.5 -3.5t-41 -4l-47.5 -4.5h-8q-14 -1 -52 -6
t-47 -5v-1q-26 -110 -48 -190v-1l10 1q40 5 116.5 16t118.5 16q1 0 10 1.5t13 1.5q33 0 33 -18q0 -12 -49 -12q-5 -2 -22 -3.5t-19 -2.5h-7q-32 -6 -87.5 -12t-78.5 -10q-42 -9 -46 -9q-13 -44 -25 -44q-4 0 -8 4.5t-4 11.5q0 5 4 19v2l-1 -1q-20 -4 -25 -4q-12 0 -12 13
q0 17 46 24l1 1v2l1 2l46 192h-6q-9 0 -9 7q0 15 22 22l37 150q4 18 13 52t10 44l1 1h-1q-14 -3 -44 -6q-15 0 -15 10q0 5 3 8.5t21 8.5t52 10q72 10 143 10q50 0 71 -7zM292 594q-3 -1 -9 -1t-6 4q0 6 36 35.5t47 29.5q15 0 15 -10q0 -9 -32.5 -31t-50.5 -27z" />
    <glyph glyph-name="Ecircumflex" unicode="&#xca;" horiz-adv-x="486" 
d="M437 546q1 0 6.5 -1.5t8 -2.5t6 -3.5t3.5 -6.5q0 -14 -26 -14q-10 0 -35.5 2.5t-39.5 2.5q-58 0 -112 -9q-7 0 -11 -11q-7 -18 -55 -229l1 -1q2 1 10 1l9 2q68 9 130 9h1q13 1 41 1q47 0 47 -13q0 -5 -5.5 -8t-19.5 -5t-28.5 -3.5t-41 -4l-47.5 -4.5h-8q-14 -1 -52 -6
t-47 -5v-1q-26 -110 -48 -190v-1l10 1q40 5 116.5 16t118.5 16q1 0 10 1.5t13 1.5q33 0 33 -18q0 -12 -49 -12q-5 -2 -22 -3.5t-19 -2.5h-7q-32 -6 -87.5 -12t-78.5 -10q-42 -9 -46 -9q-13 -44 -25 -44q-4 0 -8 4.5t-4 11.5q0 5 4 19v2l-1 -1q-20 -4 -25 -4q-12 0 -12 13
q0 17 46 24l1 1v2l1 2l46 192h-6q-9 0 -9 7q0 15 22 22l37 150q4 18 13 52t10 44l1 1h-1q-14 -3 -44 -6q-15 0 -15 10q0 5 3 8.5t21 8.5t52 10q72 10 143 10q50 0 71 -7zM419 603q6 -5 6 -10t-6 -5q-13 0 -63 31q-20 12 -21 12q-8 -2 -28 -14q-45 -28 -56 -28q-3 0 -5 1
t-2 2v1q0 13 78 61q7 4 11 4h2q3 0 36 -21t48 -34z" />
    <glyph glyph-name="Edieresis" unicode="&#xcb;" horiz-adv-x="486" 
d="M437 546q1 0 6.5 -1.5t8 -2.5t6 -3.5t3.5 -6.5q0 -14 -26 -14q-10 0 -35.5 2.5t-39.5 2.5q-58 0 -112 -9q-7 0 -11 -11q-7 -18 -55 -229l1 -1q2 1 10 1l9 2q68 9 130 9h1q13 1 41 1q47 0 47 -13q0 -5 -5.5 -8t-19.5 -5t-28.5 -3.5t-41 -4l-47.5 -4.5h-8q-14 -1 -52 -6
t-47 -5v-1q-26 -110 -48 -190v-1l10 1q40 5 116.5 16t118.5 16q1 0 10 1.5t13 1.5q33 0 33 -18q0 -12 -49 -12q-5 -2 -22 -3.5t-19 -2.5h-7q-32 -6 -87.5 -12t-78.5 -10q-42 -9 -46 -9q-13 -44 -25 -44q-4 0 -8 4.5t-4 11.5q0 5 4 19v2l-1 -1q-20 -4 -25 -4q-12 0 -12 13
q0 17 46 24l1 1v2l1 2l46 192h-6q-9 0 -9 7q0 15 22 22l37 150q4 18 13 52t10 44l1 1h-1q-14 -3 -44 -6q-15 0 -15 10q0 5 3 8.5t21 8.5t52 10q72 10 143 10q50 0 71 -7zM374 639q0 14 18 14q11 0 17.5 -11.5t6.5 -23.5q0 -15 -12 -15q-10 0 -20 13t-10 23zM257 639
q0 14 18 14q11 0 17.5 -11.5t6.5 -23.5q0 -15 -12 -15q-10 0 -20 13t-10 23z" />
    <glyph glyph-name="Igrave" unicode="&#xcc;" horiz-adv-x="263" 
d="M275 532q6 -4 6 -13q0 -10 -17 -51l-86.5 -215.5t-82.5 -213.5q-2 -4 -8 -20t-11.5 -25t-11.5 -9q-14 0 -14 20t77 210l97 239l6 15.5t6.5 16t6 14.5t6.5 14t6.5 10t7 7.5t6.5 2.5q2 0 6 -2zM283 568q-18 5 -50.5 27t-32.5 31q0 10 15 10q11 0 47 -29.5t36 -35.5
q0 -4 -7 -4q-5 0 -8 1z" />
    <glyph glyph-name="Iacute" unicode="&#xcd;" horiz-adv-x="263" 
d="M275 532q-4 2 -6 2q-3 0 -6.5 -2.5t-7 -7.5t-6.5 -10t-6.5 -14t-6 -14.5t-6.5 -16l-6 -15.5l-97 -239q-77 -190 -77 -210t14 -20q6 0 11.5 9t11.5 25t8 20q19 53 82.5 213.5l86.5 215.5q17 41 17 51q0 9 -6 13zM265 579q-3 -1 -9 -1t-6 4q0 6 36 35.5t47 29.5
q15 0 15 -10q0 -9 -32.5 -31t-50.5 -27z" />
    <glyph glyph-name="Icircumflex" unicode="&#xce;" horiz-adv-x="263" 
d="M275 532q-4 2 -6 2q-3 0 -6.5 -2.5t-7 -7.5t-6.5 -10t-6.5 -14t-6 -14.5t-6.5 -16l-6 -15.5l-97 -239q-77 -190 -77 -210t14 -20q6 0 11.5 9t11.5 25t8 20q19 53 82.5 213.5l86.5 215.5q17 41 17 51q0 9 -6 13zM363 595q6 -5 6 -10t-6 -5q-13 0 -63 31q-20 12 -21 12
q-8 -2 -28 -14q-45 -28 -56 -28q-3 0 -5 1t-2 2v1q0 13 78 61q7 4 11 4h2q3 0 36 -21t48 -34z" />
    <glyph glyph-name="Idieresis" unicode="&#xcf;" horiz-adv-x="263" 
d="M275 532q-4 2 -6 2q-3 0 -6.5 -2.5t-7 -7.5t-6.5 -10t-6.5 -14t-6 -14.5t-6.5 -16l-6 -15.5l-97 -239q-77 -190 -77 -210t14 -20q6 0 11.5 9t11.5 25t8 20q19 53 82.5 213.5l86.5 215.5q17 41 17 51q0 9 -6 13zM311 633q0 14 18 14q11 0 17.5 -11.5t6.5 -23.5
q0 -15 -12 -15q-10 0 -20 13t-10 23zM194 633q0 14 18 14q11 0 17.5 -11.5t6.5 -23.5q0 -15 -12 -15q-10 0 -20 13t-10 23z" />
    <glyph glyph-name="Ntilde" unicode="&#xd1;" horiz-adv-x="541" 
d="M552 456l3 11q6 16 6 24q0 4 -4 8.5t-11 4.5q-20 0 -29 -40q-17 -60 -62 -197q-9 -30 -26 -82t-22 -66q-22 -67 -32 -67q-8 0 -27 58.5t-34 121.5l-14 59q-35 149 -48 188t-34 39q-31 0 -57 -95q0 -1 -1 -3.5t-1 -3.5l-75 -258l-43 -150q-2 -6 -2 -10q0 -20 14 -20
q17 0 27 44q15 53 21 69q30 92 39 125q5 20 7 26q62 221 69 221q6 0 11 -19l40 -153l42 -164q1 -4 4 -17q8 -31 11.5 -41.5t11.5 -30t17 -26.5t21 -7q13 0 25 13.5t18 29.5q20 49 58 171q28 93 50 156zM497 604h1q6 0 6 -8q0 -15 -20.5 -27.5t-38.5 -12.5q-16 0 -33 14
t-25 14q-14 0 -35.5 -14.5t-24.5 -14.5q-5 0 -5 7q0 16 23 30t42 14q20 0 36.5 -14.5t23.5 -14.5q12 0 30 13.5t20 13.5z" />
    <glyph glyph-name="Ograve" unicode="&#xd2;" horiz-adv-x="567" 
d="M542 385q5 -17 5 -39q0 -38 -16.5 -88.5t-46.5 -93.5q-49 -71 -121.5 -124t-153.5 -53q-29 0 -55 8.5t-50.5 27t-39 54.5t-14.5 86q0 85 66 183q45 67 85.5 109t62.5 53.5t37 11.5q16 0 35.5 -15t21.5 -40q24 10 55 10q96 0 129 -90zM512 317q2 12 2 23q0 46 -26.5 75
t-66.5 29q-23 0 -47 -8q-44 -14 -66 -37q-7 -7 -13 -7q-12 0 -12 14q0 7 5.5 15t11.5 13l5 4q20 13 35 19q-2 2 -6.5 7.5t-7.5 8.5t-7.5 5.5t-9.5 2.5q-18 0 -43.5 -15t-43.5 -32q-4 -3 -14.5 -15.5t-29.5 -38.5t-37 -55q-57 -93 -57 -168q0 -136 137 -136q24 0 40 5
q73 20 152 99.5t99 191.5zM411 543q-18 5 -50.5 27t-32.5 31q0 10 15 10q11 0 47 -29.5t36 -35.5q0 -4 -7 -4q-5 0 -8 1z" />
    <glyph glyph-name="Oacute" unicode="&#xd3;" horiz-adv-x="567" 
d="M542 385q5 -17 5 -39q0 -38 -16.5 -88.5t-46.5 -93.5q-49 -71 -121.5 -124t-153.5 -53q-29 0 -55 8.5t-50.5 27t-39 54.5t-14.5 86q0 85 66 183q45 67 85.5 109t62.5 53.5t37 11.5q16 0 35.5 -15t21.5 -40q24 10 55 10q96 0 129 -90zM512 317q2 12 2 23q0 46 -26.5 75
t-66.5 29q-23 0 -47 -8q-44 -14 -66 -37q-7 -7 -13 -7q-12 0 -12 14q0 7 5.5 15t11.5 13l5 4q20 13 35 19q-2 2 -6.5 7.5t-7.5 8.5t-7.5 5.5t-9.5 2.5q-18 0 -43.5 -15t-43.5 -32q-4 -3 -14.5 -15.5t-29.5 -38.5t-37 -55q-57 -93 -57 -168q0 -136 137 -136q24 0 40 5
q73 20 152 99.5t99 191.5zM373 539q-3 -1 -9 -1t-6 4q0 6 36 35.5t47 29.5q15 0 15 -10q0 -9 -32.5 -31t-50.5 -27z" />
    <glyph glyph-name="Ocircumflex" unicode="&#xd4;" horiz-adv-x="567" 
d="M542 385q5 -17 5 -39q0 -38 -16.5 -88.5t-46.5 -93.5q-49 -71 -121.5 -124t-153.5 -53q-29 0 -55 8.5t-50.5 27t-39 54.5t-14.5 86q0 85 66 183q45 67 85.5 109t62.5 53.5t37 11.5q16 0 35.5 -15t21.5 -40q24 10 55 10q96 0 129 -90zM512 317q2 12 2 23q0 46 -26.5 75
t-66.5 29q-23 0 -47 -8q-44 -14 -66 -37q-7 -7 -13 -7q-12 0 -12 14q0 7 5.5 15t11.5 13l5 4q20 13 35 19q-2 2 -6.5 7.5t-7.5 8.5t-7.5 5.5t-9.5 2.5q-18 0 -43.5 -15t-43.5 -32q-4 -3 -14.5 -15.5t-29.5 -38.5t-37 -55q-57 -93 -57 -168q0 -136 137 -136q24 0 40 5
q73 20 152 99.5t99 191.5zM433 564q6 -5 6 -10t-6 -5q-13 0 -63 31q-20 12 -21 12q-8 -2 -28 -14q-45 -28 -56 -28q-3 0 -5 1t-2 2v1q0 13 78 61q7 4 11 4h2q3 0 36 -21t48 -34z" />
    <glyph glyph-name="Otilde" unicode="&#xd5;" horiz-adv-x="567" 
d="M542 385q5 -17 5 -39q0 -38 -16.5 -88.5t-46.5 -93.5q-49 -71 -121.5 -124t-153.5 -53q-29 0 -55 8.5t-50.5 27t-39 54.5t-14.5 86q0 85 66 183q45 67 85.5 109t62.5 53.5t37 11.5q16 0 35.5 -15t21.5 -40q24 10 55 10q96 0 129 -90zM512 317q2 12 2 23q0 46 -26.5 75
t-66.5 29q-23 0 -47 -8q-44 -14 -66 -37q-7 -7 -13 -7q-12 0 -12 14q0 7 5.5 15t11.5 13l5 4q20 13 35 19q-2 2 -6.5 7.5t-7.5 8.5t-7.5 5.5t-9.5 2.5q-18 0 -43.5 -15t-43.5 -32q-4 -3 -14.5 -15.5t-29.5 -38.5t-37 -55q-57 -93 -57 -168q0 -136 137 -136q24 0 40 5
q73 20 152 99.5t99 191.5zM495 600h1q6 0 6 -8q0 -15 -20.5 -27.5t-38.5 -12.5q-16 0 -33 14t-25 14q-14 0 -35.5 -14.5t-24.5 -14.5q-5 0 -5 7q0 16 23 30t42 14q20 0 36.5 -14.5t23.5 -14.5q12 0 30 13.5t20 13.5z" />
    <glyph glyph-name="Odieresis" unicode="&#xd6;" horiz-adv-x="567" 
d="M542 385q5 -17 5 -39q0 -38 -16.5 -88.5t-46.5 -93.5q-49 -71 -121.5 -124t-153.5 -53q-29 0 -55 8.5t-50.5 27t-39 54.5t-14.5 86q0 85 66 183q45 67 85.5 109t62.5 53.5t37 11.5q16 0 35.5 -15t21.5 -40q24 10 55 10q96 0 129 -90zM512 317q2 12 2 23q0 46 -26.5 75
t-66.5 29q-23 0 -47 -8q-44 -14 -66 -37q-7 -7 -13 -7q-12 0 -12 14q0 7 5.5 15t11.5 13l5 4q20 13 35 19q-2 2 -6.5 7.5t-7.5 8.5t-7.5 5.5t-9.5 2.5q-18 0 -43.5 -15t-43.5 -32q-4 -3 -14.5 -15.5t-29.5 -38.5t-37 -55q-57 -93 -57 -168q0 -136 137 -136q24 0 40 5
q73 20 152 99.5t99 191.5zM426 579q0 14 18 14q11 0 17.5 -11.5t6.5 -23.5q0 -15 -12 -15q-10 0 -20 13t-10 23zM309 579q0 14 18 14q11 0 17.5 -11.5t6.5 -23.5q0 -15 -12 -15q-10 0 -20 13t-10 23z" />
    <glyph glyph-name="multiply" unicode="&#xd7;" horiz-adv-x="392" 
d="M333 75q-3 -4 -7 -4q-6 0 -27 16q-1 1 -38.5 32.5t-47.5 37.5q-3 2 -10.5 8t-10.5 9q-66 -69 -88 -89t-30 -20t-8 9q0 14 21 40.5t78 86.5l-70 69q-2 2 -11.5 10.5t-13 12.5l-9.5 11t-8.5 12.5t-2.5 11.5q0 17 18 20q18 0 39 -29q17 -23 32 -40.5l29 -32.5l20 -21
q69 72 97.5 98.5t39.5 26.5q7 0 12 -6.5t5 -14.5q0 -6 -10.5 -17t-46.5 -46l-70 -70q29 -29 55 -51q5 -5 16 -13.5t18 -15l14.5 -13.5t11.5 -13t4 -11q0 -3 -1 -4z" />
    <glyph glyph-name="Ugrave" unicode="&#xd9;" horiz-adv-x="510" 
d="M500 351q-22 -72 -41.5 -122.5t-45 -98.5t-54 -76.5t-66.5 -46t-84 -17.5q-77 0 -119 64q-30 46 -30 116q0 39 30 180q4 20 18 71.5t20 65.5q1 2 3 7.5t3 8.5t4 6.5t7 5.5t10 2q12 0 12 -17q0 -8 -5 -26q-68 -230 -68 -308q0 -58 32.5 -98t84.5 -40q134 0 198 170
q41 110 70 218q0 1 7 32.5t13.5 45t17.5 13.5q18 0 18 -25q0 -17 -35 -131zM374 544q-18 5 -50.5 27t-32.5 31q0 10 15 10q11 0 47 -29.5t36 -35.5q0 -4 -7 -4q-5 0 -8 1z" />
    <glyph glyph-name="Uacute" unicode="&#xda;" horiz-adv-x="510" 
d="M500 351q-22 -72 -41.5 -122.5t-45 -98.5t-54 -76.5t-66.5 -46t-84 -17.5q-77 0 -119 64q-30 46 -30 116q0 39 30 180q4 20 18 71.5t20 65.5q1 2 3 7.5t3 8.5t4 6.5t7 5.5t10 2q12 0 12 -17q0 -8 -5 -26q-68 -230 -68 -308q0 -58 32.5 -98t84.5 -40q134 0 198 170
q41 110 70 218q0 1 7 32.5t13.5 45t17.5 13.5q18 0 18 -25q0 -17 -35 -131zM321 566q-3 -1 -9 -1t-6 4q0 6 36 35.5t47 29.5q15 0 15 -10q0 -9 -32.5 -31t-50.5 -27z" />
    <glyph glyph-name="Ucircumflex" unicode="&#xdb;" horiz-adv-x="510" 
d="M500 351q-22 -72 -41.5 -122.5t-45 -98.5t-54 -76.5t-66.5 -46t-84 -17.5q-77 0 -119 64q-30 46 -30 116q0 39 30 180q4 20 18 71.5t20 65.5q1 2 3 7.5t3 8.5t4 6.5t7 5.5t10 2q12 0 12 -17q0 -8 -5 -26q-68 -230 -68 -308q0 -58 32.5 -98t84.5 -40q134 0 198 170
q41 110 70 218q0 1 7 32.5t13.5 45t17.5 13.5q18 0 18 -25q0 -17 -35 -131zM420 563q6 -5 6 -10t-6 -5q-13 0 -63 31q-20 12 -21 12q-8 -2 -28 -14q-45 -28 -56 -28q-3 0 -5 1t-2 2v1q0 13 78 61q7 4 11 4h2q3 0 36 -21t48 -34z" />
    <glyph glyph-name="Udieresis" unicode="&#xdc;" horiz-adv-x="510" 
d="M500 351q-22 -72 -41.5 -122.5t-45 -98.5t-54 -76.5t-66.5 -46t-84 -17.5q-77 0 -119 64q-30 46 -30 116q0 39 30 180q4 20 18 71.5t20 65.5q1 2 3 7.5t3 8.5t4 6.5t7 5.5t10 2q12 0 12 -17q0 -8 -5 -26q-68 -230 -68 -308q0 -58 32.5 -98t84.5 -40q134 0 198 170
q41 110 70 218q0 1 7 32.5t13.5 45t17.5 13.5q18 0 18 -25q0 -17 -35 -131zM368 585q0 14 18 14q11 0 17.5 -11.5t6.5 -23.5q0 -15 -12 -15q-10 0 -20 13t-10 23zM251 585q0 14 18 14q11 0 17.5 -11.5t6.5 -23.5q0 -15 -12 -15q-10 0 -20 13t-10 23z" />
    <glyph glyph-name="Yacute" unicode="&#xdd;" horiz-adv-x="381" 
d="M409 538q13 -2 13 -9t-16 -29q-97 -133 -141 -217q5 -9 5 -17t-5.5 -13t-10.5 -6t-7 -1q-16 -35 -45 -92.5t-36 -76.5q-6 -18 -29 -64q-13 -41 -31 -41q-12 0 -12 15q0 28 132 290l-50 71q-65 86 -86 127q-10 12 -10 27q0 7 4 14.5t11 7.5q5 0 11.5 -6.5t11 -13t10 -16
t6.5 -10.5q63 -108 111 -163q20 29 46.5 73l43.5 71q0 1 6 11t13.5 20l16.5 21.5t19 19t19 7.5zM217 546q-3 -1 -9 -1t-6 4q0 6 36 35.5t47 29.5q15 0 15 -10q0 -9 -32.5 -31t-50.5 -27z" />
    <glyph glyph-name="agrave" unicode="&#xe0;" horiz-adv-x="381" 
d="M387 45q6 0 6 -7q0 -17 -26 -27t-46 -10q-40 0 -66 22t-39 44t-21 22q-7 0 -20 -17t-26.5 -37t-38.5 -37t-55 -17q-26 0 -40.5 14t-14.5 39q0 46 48 94.5t94 48.5q41 0 62 -32q20 2 28 -17q4 -10 8 -30q7 -30 29 -53t51 -23q15 0 30.5 6t25.5 11.5t11 5.5zM35 39
q0 -29 28 -29q20 0 39 18.5t41.5 53.5t25.5 39q-15 25 -33 25q-31 0 -66 -38t-35 -69zM171 280q-18 5 -50.5 27t-32.5 31q0 10 15 10q11 0 47 -29.5t36 -35.5q0 -4 -7 -4q-5 0 -8 1z" />
    <glyph glyph-name="aacute" unicode="&#xe1;" horiz-adv-x="381" 
d="M387 45q6 0 6 -7q0 -17 -26 -27t-46 -10q-40 0 -66 22t-39 44t-21 22q-7 0 -20 -17t-26.5 -37t-38.5 -37t-55 -17q-26 0 -40.5 14t-14.5 39q0 46 48 94.5t94 48.5q41 0 62 -32q20 2 28 -17q4 -10 8 -30q7 -30 29 -53t51 -23q15 0 30.5 6t25.5 11.5t11 5.5zM35 39
q0 -29 28 -29q20 0 39 18.5t41.5 53.5t25.5 39q-15 25 -33 25q-31 0 -66 -38t-35 -69zM93 273q-3 -1 -9 -1t-6 4q0 6 36 35.5t47 29.5q15 0 15 -10q0 -9 -32.5 -31t-50.5 -27z" />
    <glyph glyph-name="acircumflex" unicode="&#xe2;" horiz-adv-x="381" 
d="M387 45q6 0 6 -7q0 -17 -26 -27t-46 -10q-40 0 -66 22t-39 44t-21 22q-7 0 -20 -17t-26.5 -37t-38.5 -37t-55 -17q-26 0 -40.5 14t-14.5 39q0 46 48 94.5t94 48.5q41 0 62 -32q20 2 28 -17q4 -10 8 -30q7 -30 29 -53t51 -23q15 0 30.5 6t25.5 11.5t11 5.5zM35 39
q0 -29 28 -29q20 0 39 18.5t41.5 53.5t25.5 39q-15 25 -33 25q-31 0 -66 -38t-35 -69zM236 263q6 -5 6 -10t-6 -5q-13 0 -63 31q-20 12 -21 12q-8 -2 -28 -14q-45 -28 -56 -28q-3 0 -5 1t-2 2v1q0 13 78 61q7 4 11 4h2q3 0 36 -21t48 -34z" />
    <glyph glyph-name="atilde" unicode="&#xe3;" horiz-adv-x="381" 
d="M387 45q6 0 6 -7q0 -17 -26 -27t-46 -10q-40 0 -66 22t-39 44t-21 22q-7 0 -20 -17t-26.5 -37t-38.5 -37t-55 -17q-26 0 -40.5 14t-14.5 39q0 46 48 94.5t94 48.5q41 0 62 -32q20 2 28 -17q4 -10 8 -30q7 -30 29 -53t51 -23q15 0 30.5 6t25.5 11.5t11 5.5zM35 39
q0 -29 28 -29q20 0 39 18.5t41.5 53.5t25.5 39q-15 25 -33 25q-31 0 -66 -38t-35 -69zM254 319h1q6 0 6 -8q0 -15 -20.5 -27.5t-38.5 -12.5q-16 0 -33 14t-25 14q-14 0 -35.5 -14.5t-24.5 -14.5q-5 0 -5 7q0 16 23 30t42 14q20 0 36.5 -14.5t23.5 -14.5q12 0 30 13.5
t20 13.5z" />
    <glyph glyph-name="adieresis" unicode="&#xe4;" horiz-adv-x="381" 
d="M387 45q6 0 6 -7q0 -17 -26 -27t-46 -10q-40 0 -66 22t-39 44t-21 22q-7 0 -20 -17t-26.5 -37t-38.5 -37t-55 -17q-26 0 -40.5 14t-14.5 39q0 46 48 94.5t94 48.5q41 0 62 -32q20 2 28 -17q4 -10 8 -30q7 -30 29 -53t51 -23q15 0 30.5 6t25.5 11.5t11 5.5zM35 39
q0 -29 28 -29q20 0 39 18.5t41.5 53.5t25.5 39q-15 25 -33 25q-31 0 -66 -38t-35 -69zM214 300q0 14 18 14q11 0 17.5 -11.5t6.5 -23.5q0 -15 -12 -15q-10 0 -20 13t-10 23zM97 300q0 14 18 14q11 0 17.5 -11.5t6.5 -23.5q0 -15 -12 -15q-10 0 -20 13t-10 23z" />
    <glyph glyph-name="ae" unicode="&#xe6;" horiz-adv-x="432" 
d="M438 65q6 0 6 -7q0 -20 -27 -33.5t-54 -19.5q-19 -4 -36 -4q-25 0 -45.5 9t-33.5 22t-22 26t-16.5 22t-13.5 9q-8 0 -20.5 -17l-26 -37t-39 -37t-54.5 -17q-26 0 -41 14.5t-15 40.5q0 45 48.5 93t94.5 48q40 0 61 -32q21 1 29 -19q11 38 43 68.5t68 30.5q21 0 38 -12
t17 -32q0 -8 -6 -22q-4 -8 -15 -16t-29 -15.5t-28.5 -11.5t-32.5 -11t-23 -7q-6 -2 -8 -2v-9q0 -60 66 -65q56 0 94 27q1 1 6 5l9.5 7.5t5.5 3.5zM35 39q0 -29 28 -29q31 0 74 60q5 7 15 24.5t17 26.5q-15 25 -33 25q-30 0 -65.5 -38t-35.5 -69zM338 194q-24 0 -45 -22
t-29 -48q26 6 60 22.5t34 34.5q0 13 -20 13z" />
    <glyph glyph-name="ccedilla" unicode="&#xe7;" horiz-adv-x="215" 
d="M107 22h14q22 0 45.5 11t39 22t17.5 11q4 0 4 -6q0 -28 -41.5 -43.5t-79.5 -15.5q-37 0 -66.5 23.5t-29.5 60.5q0 42 32 89.5t72 47.5q16 0 35 -9.5t19 -23.5q0 -5 -6 -5q-4 0 -15 7.5t-23 7.5q-30 0 -55.5 -40.5t-25.5 -73.5q0 -27 18.5 -45t45.5 -18zM65 -112
q-13 0 -13 4t5 6.5l13.5 6.5t13.5 9q13 14 16.5 34t4.5 31t11 11q13 0 13 -10q0 -18 -3.5 -35.5t-19 -35.5t-41.5 -21z" />
    <glyph glyph-name="egrave" unicode="&#xe8;" horiz-adv-x="290" 
d="M296 65q6 0 6 -7q0 -20 -27 -33.5t-54 -19.5q-19 -4 -41 -4q-40 0 -68 24t-28 63q-38 -7 -67 -7q-9 0 -19 5t-10 13q0 7 16 7q37 0 84 10q1 1 1 4q9 39 42 72t71 33q21 0 38 -12t17 -32q0 -8 -6 -22q-4 -8 -15 -16t-29 -15.5t-28.5 -11.5t-32.5 -11t-23 -7q-6 -2 -8 -2
v-9q0 -60 65 -65h1q56 0 94 27q1 1 6 5l9.5 7.5t5.5 3.5zM196 194q-24 0 -45 -22t-29 -48q26 6 60 22.5t34 34.5q0 13 -20 13zM204 277q-18 5 -50.5 27t-32.5 31q0 10 15 10q11 0 47 -29.5t36 -35.5q0 -4 -7 -4q-5 0 -8 1z" />
    <glyph glyph-name="eacute" unicode="&#xe9;" horiz-adv-x="290" 
d="M296 65q6 0 6 -7q0 -20 -27 -33.5t-54 -19.5q-19 -4 -41 -4q-40 0 -68 24t-28 63q-38 -7 -67 -7q-9 0 -19 5t-10 13q0 7 16 7q37 0 84 10q1 1 1 4q9 39 42 72t71 33q21 0 38 -12t17 -32q0 -8 -6 -22q-4 -8 -15 -16t-29 -15.5t-28.5 -11.5t-32.5 -11t-23 -7q-6 -2 -8 -2
v-9q0 -60 65 -65h1q56 0 94 27q1 1 6 5l9.5 7.5t5.5 3.5zM196 194q-24 0 -45 -22t-29 -48q26 6 60 22.5t34 34.5q0 13 -20 13zM164 273q-3 -1 -9 -1t-6 4q0 6 36 35.5t47 29.5q15 0 15 -10q0 -9 -32.5 -31t-50.5 -27z" />
    <glyph glyph-name="ecircumflex" unicode="&#xea;" horiz-adv-x="290" 
d="M296 65q6 0 6 -7q0 -20 -27 -33.5t-54 -19.5q-19 -4 -41 -4q-40 0 -68 24t-28 63q-38 -7 -67 -7q-9 0 -19 5t-10 13q0 7 16 7q37 0 84 10q1 1 1 4q9 39 42 72t71 33q21 0 38 -12t17 -32q0 -8 -6 -22q-4 -8 -15 -16t-29 -15.5t-28.5 -11.5t-32.5 -11t-23 -7q-6 -2 -8 -2
v-9q0 -60 65 -65h1q56 0 94 27q1 1 6 5l9.5 7.5t5.5 3.5zM196 194q-24 0 -45 -22t-29 -48q26 6 60 22.5t34 34.5q0 13 -20 13zM285 317q6 -5 6 -10t-6 -5q-13 0 -63 31q-20 12 -21 12q-8 -2 -28 -14q-45 -28 -56 -28q-3 0 -5 1t-2 2v1q0 13 78 61q7 4 11 4h2q3 0 36 -21
t48 -34z" />
    <glyph glyph-name="edieresis" unicode="&#xeb;" horiz-adv-x="290" 
d="M296 65q6 0 6 -7q0 -20 -27 -33.5t-54 -19.5q-19 -4 -41 -4q-40 0 -68 24t-28 63q-38 -7 -67 -7q-9 0 -19 5t-10 13q0 7 16 7q37 0 84 10q1 1 1 4q9 39 42 72t71 33q21 0 38 -12t17 -32q0 -8 -6 -22q-4 -8 -15 -16t-29 -15.5t-28.5 -11.5t-32.5 -11t-23 -7q-6 -2 -8 -2
v-9q0 -60 65 -65h1q56 0 94 27q1 1 6 5l9.5 7.5t5.5 3.5zM196 194q-24 0 -45 -22t-29 -48q26 6 60 22.5t34 34.5q0 13 -20 13zM237 329q0 14 18 14q11 0 17.5 -11.5t6.5 -23.5q0 -15 -12 -15q-10 0 -20 13t-10 23zM120 329q0 14 18 14q11 0 17.5 -11.5t6.5 -23.5
q0 -15 -12 -15q-10 0 -20 13t-10 23z" />
    <glyph glyph-name="igrave" unicode="&#xec;" horiz-adv-x="368" 
d="M224 218q7 0 13 -6q7 -7 7 -27q0 -17 6 -49q18 -90 83 -90q9 0 23 4.5t20 4.5q4 0 4 -5q0 -12 -17 -18t-33 -6q-51 0 -80.5 42t-31.5 95q-13 -30 -43 -64t-61 -58q-61 -48 -127 -48q-37 0 -37 16q0 7 19 7q42 0 69 11q45 18 88 61t63 88q11 26 18 34q12 8 17 8zM260 280
q-18 5 -50.5 27t-32.5 31q0 10 15 10q11 0 47 -29.5t36 -35.5q0 -4 -7 -4q-5 0 -8 1z" />
    <glyph glyph-name="iacute" unicode="&#xed;" horiz-adv-x="368" 
d="M224 218q7 0 13 -6q7 -7 7 -27q0 -17 6 -49q18 -90 83 -90q9 0 23 4.5t20 4.5q4 0 4 -5q0 -12 -17 -18t-33 -6q-51 0 -80.5 42t-31.5 95q-13 -30 -43 -64t-61 -58q-61 -48 -127 -48q-37 0 -37 16q0 7 19 7q42 0 69 11q45 18 88 61t63 88q11 26 18 34q12 8 17 8zM206 273
q-3 -1 -9 -1t-6 4q0 6 36 35.5t47 29.5q15 0 15 -10q0 -9 -32.5 -31t-50.5 -27z" />
    <glyph glyph-name="icircumflex" unicode="&#xee;" horiz-adv-x="368" 
d="M224 218q7 0 13 -6q7 -7 7 -27q0 -17 6 -49q18 -90 83 -90q9 0 23 4.5t20 4.5q4 0 4 -5q0 -12 -17 -18t-33 -6q-51 0 -80.5 42t-31.5 95q-13 -30 -43 -64t-61 -58q-61 -48 -127 -48q-37 0 -37 16q0 7 19 7q42 0 69 11q45 18 88 61t63 88q11 26 18 34q12 8 17 8zM305 295
q6 -5 6 -10t-6 -5q-13 0 -63 31q-20 12 -21 12q-8 -2 -28 -14q-45 -28 -56 -28q-3 0 -5 1t-2 2v1q0 13 78 61q7 4 11 4h2q3 0 36 -21t48 -34z" />
    <glyph glyph-name="idieresis" unicode="&#xef;" horiz-adv-x="368" 
d="M224 218q7 0 13 -6q7 -7 7 -27q0 -17 6 -49q18 -90 83 -90q9 0 23 4.5t20 4.5q4 0 4 -5q0 -12 -17 -18t-33 -6q-51 0 -80.5 42t-31.5 95q-13 -30 -43 -64t-61 -58q-61 -48 -127 -48q-37 0 -37 16q0 7 19 7q42 0 69 11q45 18 88 61t63 88q11 26 18 34q12 8 17 8zM264 337
q0 14 18 14q11 0 17.5 -11.5t6.5 -23.5q0 -15 -12 -15q-10 0 -20 13t-10 23zM147 337q0 14 18 14q11 0 17.5 -11.5t6.5 -23.5q0 -15 -12 -15q-10 0 -20 13t-10 23z" />
    <glyph glyph-name="ntilde" unicode="&#xf1;" horiz-adv-x="392" 
d="M398 32q6 0 6 -5q0 -12 -18.5 -19t-33.5 -7q-38 0 -55 23q-6 8 -11.5 18.5t-8 17.5l-7.5 22t-6 19q-11 32 -22 32t-34.5 -33.5t-50.5 -67.5t-47 -34q-29 0 -29 37q0 17 8.5 50.5t8.5 48.5q0 28 -18 28q-15 0 -44.5 -18t-37.5 -18q-10 0 -10 9q0 15 37 35.5t56 20.5
q22 0 34.5 -15t12.5 -37q0 -16 -10 -49.5t-10 -48.5q0 -12 6 -12q1 0 2 1h2l6 6q9 9 34.5 45.5t50 62.5t41.5 26q26 0 43 -55q2 -8 6.5 -29.5t8 -31t15.5 -19.5t31 -11h6q6 0 19 4t19 4zM287 299h1q6 0 6 -8q0 -15 -20.5 -27.5t-38.5 -12.5q-16 0 -33 14t-25 14
q-14 0 -35.5 -14.5t-24.5 -14.5q-5 0 -5 7q0 16 23 30t42 14q20 0 36.5 -14.5t23.5 -14.5q12 0 30 13.5t20 13.5z" />
    <glyph glyph-name="ograve" unicode="&#xf2;" horiz-adv-x="284" 
d="M296 86q0 -5 -4.5 -9t-9.5 -4h-26q-30 0 -52 5q-15 -42 -51 -72.5t-80 -30.5q-30 0 -46.5 23t-16.5 54q0 59 52 120q43 53 81 53q20 0 30.5 -16t10.5 -37q29 -15 29 -50q0 -9 -2 -21q7 -3 35 -5q14 -1 36 -1q14 0 14 -9zM82 5q34 0 60 24t36 57q-25 8 -41 25.5t-16 36.5
q0 15 11 23t26 8q-6 11 -15 11t-23 -8q-32 -17 -55 -58t-23 -78q0 -41 40 -41zM183 110q1 5 1 14q0 10 -8.5 19.5t-20.5 9.5q-7 0 -7 -10q0 -11 11 -21t24 -12zM201 273q-18 5 -50.5 27t-32.5 31q0 10 15 10q11 0 47 -29.5t36 -35.5q0 -4 -7 -4q-5 0 -8 1z" />
    <glyph glyph-name="oacute" unicode="&#xf3;" horiz-adv-x="284" 
d="M296 86q0 -5 -4.5 -9t-9.5 -4h-26q-30 0 -52 5q-15 -42 -51 -72.5t-80 -30.5q-30 0 -46.5 23t-16.5 54q0 59 52 120q43 53 81 53q20 0 30.5 -16t10.5 -37q29 -15 29 -50q0 -9 -2 -21q7 -3 35 -5q14 -1 36 -1q14 0 14 -9zM82 5q34 0 60 24t36 57q-25 8 -41 25.5t-16 36.5
q0 15 11 23t26 8q-6 11 -15 11t-23 -8q-32 -17 -55 -58t-23 -78q0 -41 40 -41zM183 110q1 5 1 14q0 10 -8.5 19.5t-20.5 9.5q-7 0 -7 -10q0 -11 11 -21t24 -12zM123 273q-3 -1 -9 -1t-6 4q0 6 36 35.5t47 29.5q15 0 15 -10q0 -9 -32.5 -31t-50.5 -27z" />
    <glyph glyph-name="ocircumflex" unicode="&#xf4;" horiz-adv-x="284" 
d="M296 86q0 -5 -4.5 -9t-9.5 -4h-26q-30 0 -52 5q-15 -42 -51 -72.5t-80 -30.5q-30 0 -46.5 23t-16.5 54q0 59 52 120q43 53 81 53q20 0 30.5 -16t10.5 -37q29 -15 29 -50q0 -9 -2 -21q7 -3 35 -5q14 -1 36 -1q14 0 14 -9zM82 5q34 0 60 24t36 57q-25 8 -41 25.5t-16 36.5
q0 15 11 23t26 8q-6 11 -15 11t-23 -8q-32 -17 -55 -58t-23 -78q0 -41 40 -41zM183 110q1 5 1 14q0 10 -8.5 19.5t-20.5 9.5q-7 0 -7 -10q0 -11 11 -21t24 -12zM237 278q6 -5 6 -10t-6 -5q-13 0 -63 31q-20 12 -21 12q-8 -2 -28 -14q-45 -28 -56 -28q-3 0 -5 1t-2 2v1
q0 13 78 61q7 4 11 4h2q3 0 36 -21t48 -34z" />
    <glyph glyph-name="otilde" unicode="&#xf5;" horiz-adv-x="284" 
d="M296 86q0 -5 -4.5 -9t-9.5 -4h-26q-30 0 -52 5q-15 -42 -51 -72.5t-80 -30.5q-30 0 -46.5 23t-16.5 54q0 59 52 120q43 53 81 53q20 0 30.5 -16t10.5 -37q29 -15 29 -50q0 -9 -2 -21q7 -3 35 -5q14 -1 36 -1q14 0 14 -9zM82 5q34 0 60 24t36 57q-25 8 -41 25.5t-16 36.5
q0 15 11 23t26 8q-6 11 -15 11t-23 -8q-32 -17 -55 -58t-23 -78q0 -41 40 -41zM183 110q1 5 1 14q0 10 -8.5 19.5t-20.5 9.5q-7 0 -7 -10q0 -11 11 -21t24 -12zM243 316h1q6 0 6 -8q0 -15 -20.5 -27.5t-38.5 -12.5q-16 0 -33 14t-25 14q-14 0 -35.5 -14.5t-24.5 -14.5
q-5 0 -5 7q0 16 23 30t42 14q20 0 36.5 -14.5t23.5 -14.5q12 0 30 13.5t20 13.5z" />
    <glyph glyph-name="odieresis" unicode="&#xf6;" horiz-adv-x="284" 
d="M296 86q0 -5 -4.5 -9t-9.5 -4h-26q-30 0 -52 5q-15 -42 -51 -72.5t-80 -30.5q-30 0 -46.5 23t-16.5 54q0 59 52 120q43 53 81 53q20 0 30.5 -16t10.5 -37q29 -15 29 -50q0 -9 -2 -21q7 -3 35 -5q14 -1 36 -1q14 0 14 -9zM82 5q34 0 60 24t36 57q-25 8 -41 25.5t-16 36.5
q0 15 11 23t26 8q-6 11 -15 11t-23 -8q-32 -17 -55 -58t-23 -78q0 -41 40 -41zM183 110q1 5 1 14q0 10 -8.5 19.5t-20.5 9.5q-7 0 -7 -10q0 -11 11 -21t24 -12zM181 314q0 14 18 14q11 0 17.5 -11.5t6.5 -23.5q0 -15 -12 -15q-10 0 -20 13t-10 23zM64 314q0 14 18 14
q11 0 17.5 -11.5t6.5 -23.5q0 -15 -12 -15q-10 0 -20 13t-10 23z" />
    <glyph glyph-name="divide" unicode="&#xf7;" horiz-adv-x="453" 
d="M378 252q25 -7 25 -17t-19 -10q3 0 -72 -3l-153 -6t-80 -3q-14 0 -21.5 7t-7.5 15q0 15 33.5 19t148.5 4q118 0 146 -6zM198 373q1 0 3.5 2t4.5 2q9 0 17.5 -10.5t8.5 -20.5q0 -14 -13 -14q-8 0 -17 7t-10 16q0 13 6 18zM210 133q1 4 9 4q9 0 17 -10t8 -20q0 -15 -14 -15
q-9 0 -18 8.5t-9 18.5q0 9 7 14z" />
    <glyph glyph-name="ugrave" unicode="&#xf9;" horiz-adv-x="364" 
d="M239 117q-23 -56 -63 -99t-89 -43q-38 0 -57.5 25t-19.5 64q0 32 13 81t35 49q17 0 17 -18q0 -8 -16 -47t-16 -67q0 -25 13 -41t37 -16q19 0 33 10t25.5 20.5t22 27.5t14.5 24t15.5 32.5t13.5 28.5q17 33 37 33q25 0 25 -41q0 -6 -1.5 -18.5t-1.5 -19.5q0 -34 13 -58.5
t44 -24.5q7 0 20 3t19 3q4 0 4 -4q0 -11 -16 -17.5t-29 -6.5q-41 0 -64 37t-28 83zM233 239q-18 5 -50.5 27t-32.5 31q0 10 15 10q11 0 47 -29.5t36 -35.5q0 -4 -7 -4q-5 0 -8 1z" />
    <glyph glyph-name="uacute" unicode="&#xfa;" horiz-adv-x="364" 
d="M239 117q-23 -56 -63 -99t-89 -43q-38 0 -57.5 25t-19.5 64q0 32 13 81t35 49q17 0 17 -18q0 -8 -16 -47t-16 -67q0 -25 13 -41t37 -16q19 0 33 10t25.5 20.5t22 27.5t14.5 24t15.5 32.5t13.5 28.5q17 33 37 33q25 0 25 -41q0 -6 -1.5 -18.5t-1.5 -19.5q0 -34 13 -58.5
t44 -24.5q7 0 20 3t19 3q4 0 4 -4q0 -11 -16 -17.5t-29 -6.5q-41 0 -64 37t-28 83zM161 234q-3 -1 -9 -1t-6 4q0 6 36 35.5t47 29.5q15 0 15 -10q0 -9 -32.5 -31t-50.5 -27z" />
    <glyph glyph-name="ucircumflex" unicode="&#xfb;" horiz-adv-x="364" 
d="M239 117q-23 -56 -63 -99t-89 -43q-38 0 -57.5 25t-19.5 64q0 32 13 81t35 49q17 0 17 -18q0 -8 -16 -47t-16 -67q0 -25 13 -41t37 -16q19 0 33 10t25.5 20.5t22 27.5t14.5 24t15.5 32.5t13.5 28.5q17 33 37 33q25 0 25 -41q0 -6 -1.5 -18.5t-1.5 -19.5q0 -34 13 -58.5
t44 -24.5q7 0 20 3t19 3q4 0 4 -4q0 -11 -16 -17.5t-29 -6.5q-41 0 -64 37t-28 83zM254 256q6 -5 6 -10t-6 -5q-13 0 -63 31q-20 12 -21 12q-8 -2 -28 -14q-45 -28 -56 -28q-3 0 -5 1t-2 2v1q0 13 78 61q7 4 11 4h2q3 0 36 -21t48 -34z" />
    <glyph glyph-name="udieresis" unicode="&#xfc;" horiz-adv-x="364" 
d="M239 117q-23 -56 -63 -99t-89 -43q-38 0 -57.5 25t-19.5 64q0 32 13 81t35 49q17 0 17 -18q0 -8 -16 -47t-16 -67q0 -25 13 -41t37 -16q19 0 33 10t25.5 20.5t22 27.5t14.5 24t15.5 32.5t13.5 28.5q17 33 37 33q25 0 25 -41q0 -6 -1.5 -18.5t-1.5 -19.5q0 -34 13 -58.5
t44 -24.5q7 0 20 3t19 3q4 0 4 -4q0 -11 -16 -17.5t-29 -6.5q-41 0 -64 37t-28 83zM210 296q0 14 18 14q11 0 17.5 -11.5t6.5 -23.5q0 -15 -12 -15q-10 0 -20 13t-10 23zM93 296q0 14 18 14q11 0 17.5 -11.5t6.5 -23.5q0 -15 -12 -15q-10 0 -20 13t-10 23z" />
    <glyph glyph-name="yacute" unicode="&#xfd;" horiz-adv-x="461" 
d="M468 61q13 0 13 -12q0 -2 -2 -6q-5 -9 -23 -14q-88 -26 -177 -86l-4 -20q-8 -47 -14 -73.5t-17.5 -73t-25.5 -77t-33.5 -65.5t-47 -60.5t-61.5 -42.5q-22 -12 -48 -12q-40 0 -62 31t-22 73q0 92 103 183q90 80 202 147q15 88 24 216q-111 -129 -177 -129q-71 0 -71 126
q0 53 21 53q19 0 19 -37q0 -10 -2 -29.5t-2 -29.5q0 -55 40 -55q15 0 51 20l31 23q21 18 63 76q6 11 19 24q7 9 21 9q27 0 27 -42q0 -8 -11 -85l-18 -120q153 88 184 88zM34 -445q4 0 14 2q64 16 111 93q23 36 41 87.5t25.5 87t18.5 95.5q-17 -13 -50 -36l-58.5 -42
t-46.5 -39q-43 -39 -76.5 -87.5t-33.5 -93.5q0 -27 14.5 -47t40.5 -20zM157 269q-3 -1 -9 -1t-6 4q0 6 36 35.5t47 29.5q15 0 15 -10q0 -9 -32.5 -31t-50.5 -27z" />
    <glyph glyph-name="ydieresis" unicode="&#xff;" horiz-adv-x="461" 
d="M468 61q13 0 13 -12q0 -2 -2 -6q-5 -9 -23 -14q-88 -26 -177 -86l-4 -20q-8 -47 -14 -73.5t-17.5 -73t-25.5 -77t-33.5 -65.5t-47 -60.5t-61.5 -42.5q-22 -12 -48 -12q-40 0 -62 31t-22 73q0 92 103 183q90 80 202 147q15 88 24 216q-111 -129 -177 -129q-71 0 -71 126
q0 53 21 53q19 0 19 -37q0 -10 -2 -29.5t-2 -29.5q0 -55 40 -55q15 0 51 20l31 23q21 18 63 76q6 11 19 24q7 9 21 9q27 0 27 -42q0 -8 -11 -85l-18 -120q153 88 184 88zM34 -445q4 0 14 2q64 16 111 93q23 36 41 87.5t25.5 87t18.5 95.5q-17 -13 -50 -36l-58.5 -42
t-46.5 -39q-43 -39 -76.5 -87.5t-33.5 -93.5q0 -27 14.5 -47t40.5 -20zM210 367q0 14 18 14q11 0 17.5 -11.5t6.5 -23.5q0 -15 -12 -15q-10 0 -20 13t-10 23zM93 367q0 14 18 14q11 0 17.5 -11.5t6.5 -23.5q0 -15 -12 -15q-10 0 -20 13t-10 23z" />
    <glyph glyph-name="Itilde" unicode="&#x128;" horiz-adv-x="263" 
d="M275 532q-4 2 -6 2q-3 0 -6.5 -2.5t-7 -7.5t-6.5 -10t-6.5 -14t-6 -14.5t-6.5 -16l-6 -15.5l-97 -239q-77 -190 -77 -210t14 -20q6 0 11.5 9t11.5 25t8 20q19 53 82.5 213.5l86.5 215.5q17 41 17 51q0 9 -6 13zM365 632h1q6 0 6 -8q0 -15 -20.5 -27.5t-38.5 -12.5
q-16 0 -33 14t-25 14q-14 0 -35.5 -14.5t-24.5 -14.5q-5 0 -5 7q0 16 23 30t42 14q20 0 36.5 -14.5t23.5 -14.5q12 0 30 13.5t20 13.5z" />
    <glyph glyph-name="itilde" unicode="&#x129;" horiz-adv-x="368" 
d="M224 218q7 0 13 -6q7 -7 7 -27q0 -17 6 -49q18 -90 83 -90q9 0 23 4.5t20 4.5q4 0 4 -5q0 -12 -17 -18t-33 -6q-51 0 -80.5 42t-31.5 95q-13 -30 -43 -64t-61 -58q-61 -48 -127 -48q-37 0 -37 16q0 7 19 7q42 0 69 11q45 18 88 61t63 88q11 26 18 34q12 8 17 8zM308 333
h1q6 0 6 -8q0 -15 -20.5 -27.5t-38.5 -12.5q-16 0 -33 14t-25 14q-14 0 -35.5 -14.5t-24.5 -14.5q-5 0 -5 7q0 16 23 30t42 14q20 0 36.5 -14.5t23.5 -14.5q12 0 30 13.5t20 13.5z" />
    <glyph glyph-name="dotlessi" unicode="&#x131;" horiz-adv-x="368" 
d="M224 218q7 0 13 -6q7 -7 7 -27q0 -17 6 -49q18 -90 83 -90q9 0 23 4.5t20 4.5q4 0 4 -5q0 -12 -17 -18t-33 -6q-51 0 -80.5 42t-31.5 95q-13 -30 -43 -64t-61 -58q-61 -48 -127 -48q-37 0 -37 16q0 7 19 7q42 0 69 11q45 18 88 61t63 88q11 26 18 34q12 8 17 8z" />
    <glyph glyph-name="Nacute" unicode="&#x143;" horiz-adv-x="541" 
d="M552 456l3 11q6 16 6 24q0 4 -4 8.5t-11 4.5q-20 0 -29 -40q-17 -60 -62 -197q-9 -30 -26 -82t-22 -66q-22 -67 -32 -67q-8 0 -27 58.5t-34 121.5l-14 59q-35 149 -48 188t-34 39q-31 0 -57 -95q0 -1 -1 -3.5t-1 -3.5l-75 -258l-43 -150q-2 -6 -2 -10q0 -20 14 -20
q17 0 27 44q15 53 21 69q30 92 39 125q5 20 7 26q62 221 69 221q6 0 11 -19l40 -153l42 -164q1 -4 4 -17q8 -31 11.5 -41.5t11.5 -30t17 -26.5t21 -7q13 0 25 13.5t18 29.5q20 49 58 171q28 93 50 156zM353 553q-3 -1 -9 -1t-6 4q0 6 36 35.5t47 29.5q15 0 15 -10
q0 -9 -32.5 -31t-50.5 -27z" />
    <glyph glyph-name="nacute" unicode="&#x144;" horiz-adv-x="392" 
d="M398 32q6 0 6 -5q0 -12 -18.5 -19t-33.5 -7q-38 0 -55 23q-6 8 -11.5 18.5t-8 17.5l-7.5 22t-6 19q-11 32 -22 32t-34.5 -33.5t-50.5 -67.5t-47 -34q-29 0 -29 37q0 17 8.5 50.5t8.5 48.5q0 28 -18 28q-15 0 -44.5 -18t-37.5 -18q-10 0 -10 9q0 15 37 35.5t56 20.5
q22 0 34.5 -15t12.5 -37q0 -16 -10 -49.5t-10 -48.5q0 -12 6 -12q1 0 2 1h2l6 6q9 9 34.5 45.5t50 62.5t41.5 26q26 0 43 -55q2 -8 6.5 -29.5t8 -31t15.5 -19.5t31 -11h6q6 0 19 4t19 4zM190 261q-3 -1 -9 -1t-6 4q0 6 36 35.5t47 29.5q15 0 15 -10q0 -9 -32.5 -31
t-50.5 -27z" />
    <glyph glyph-name="OE" unicode="&#x152;" horiz-adv-x="703" 
d="M660 278h8q14 0 14 -12q0 -11 -10 -15q-25 -10 -152 -24q-42 -101 -142 -179q73 7 240 38q14 2 43 4q10 0 10 -10q0 -7 -6 -12.5t-19.5 -9.5t-27 -6.5t-36.5 -6t-40 -7.5l-157 -24q-55 -5 -65 -5h-6q-56 -26 -102 -26q-28 0 -54 8t-51.5 26.5t-41 54.5t-15.5 85
q0 87 67 184q26 38 46 62.5t31 36t32 30.5q47 43 76 43q16 0 35 -14.5t19 -40.5q14 5 20.5 7t19 3.5t24.5 2t47 2.5t75 5t77 8t46 5q18 0 18 -8q0 -18 -79 -29.5t-105 -11.5q48 -39 48 -101q0 -39 -14 -80q111 16 127 17zM453 174q62 89 62 161q0 47 -27.5 75.5t-69.5 28.5
q-22 0 -38 -6q-34 -11 -47 -17t-26 -19q-7 -6 -13 -6q-9 0 -9 11q0 7 5.5 14.5t10.5 11.5l5 4q11 8 35 20q-4 3 -9 9.5t-11 10.5t-14 4q-31 0 -80 -44q-46 -40 -89 -110q-52 -85 -52 -164q0 -69 39 -105.5t95 -36.5q44 0 111 39.5t122 118.5z" />
    <glyph glyph-name="oe" unicode="&#x153;" horiz-adv-x="386" 
d="M392 59q6 0 6 -7q0 -20 -27 -33.5t-54 -19.5q-19 -4 -41 -4q-65 0 -89 52q-20 -31 -50.5 -51.5t-63.5 -20.5q-30 0 -46.5 23t-16.5 54q0 59 52 120q43 53 81 53q20 0 30.5 -16t10.5 -37q12 -6 19 -16q17 27 42.5 45t52.5 18q21 0 38 -12t17 -32q0 -8 -6 -22
q-11 -22 -53 -42t-74 -22q-2 0 -5 0.5t-4 0.5v-9q0 -60 65 -65h1q56 0 94 27q1 1 6 5l9.5 7.5t5.5 3.5zM82 5q33 0 60.5 26.5t37.5 60.5q-59 18 -59 56q0 15 11 23t26 8q-6 11 -15 11t-23 -8q-32 -17 -55 -58t-23 -78q0 -41 40 -41zM292 188q-24 0 -45.5 -24t-29.5 -51
q31 -5 63 17.5t32 44.5q0 13 -20 13zM185 116q0 9 -2 13q-10 24 -28 24q-7 0 -7 -10q0 -11 11.5 -18t25.5 -9z" />
    <glyph glyph-name="Utilde" unicode="&#x168;" horiz-adv-x="510" 
d="M500 351q-22 -72 -41.5 -122.5t-45 -98.5t-54 -76.5t-66.5 -46t-84 -17.5q-77 0 -119 64q-30 46 -30 116q0 39 30 180q4 20 18 71.5t20 65.5q1 2 3 7.5t3 8.5t4 6.5t7 5.5t10 2q12 0 12 -17q0 -8 -5 -26q-68 -230 -68 -308q0 -58 32.5 -98t84.5 -40q134 0 198 170
q41 110 70 218q0 1 7 32.5t13.5 45t17.5 13.5q18 0 18 -25q0 -17 -35 -131zM434 607h1q6 0 6 -8q0 -15 -20.5 -27.5t-38.5 -12.5q-16 0 -33 14t-25 14q-14 0 -35.5 -14.5t-24.5 -14.5q-5 0 -5 7q0 16 23 30t42 14q20 0 36.5 -14.5t23.5 -14.5q12 0 30 13.5t20 13.5z" />
    <glyph glyph-name="utilde" unicode="&#x169;" horiz-adv-x="364" 
d="M239 117q-23 -56 -63 -99t-89 -43q-38 0 -57.5 25t-19.5 64q0 32 13 81t35 49q17 0 17 -18q0 -8 -16 -47t-16 -67q0 -25 13 -41t37 -16q19 0 33 10t25.5 20.5t22 27.5t14.5 24t15.5 32.5t13.5 28.5q17 33 37 33q25 0 25 -41q0 -6 -1.5 -18.5t-1.5 -19.5q0 -34 13 -58.5
t44 -24.5q7 0 20 3t19 3q4 0 4 -4q0 -11 -16 -17.5t-29 -6.5q-41 0 -64 37t-28 83zM300 333h1q6 0 6 -8q0 -15 -20.5 -27.5t-38.5 -12.5q-16 0 -33 14t-25 14q-14 0 -35.5 -14.5t-24.5 -14.5q-5 0 -5 7q0 16 23 30t42 14q20 0 36.5 -14.5t23.5 -14.5q12 0 30 13.5t20 13.5z
" />
    <glyph glyph-name="Ycircumflex" unicode="&#x176;" horiz-adv-x="381" 
d="M409 538q13 -2 13 -9t-16 -29q-97 -133 -141 -217q5 -9 5 -17t-5.5 -13t-10.5 -6t-7 -1q-16 -35 -45 -92.5t-36 -76.5q-6 -18 -29 -64q-13 -41 -31 -41q-12 0 -12 15q0 28 132 290l-50 71q-65 86 -86 127q-10 12 -10 27q0 7 4 14.5t11 7.5q5 0 11.5 -6.5t11 -13t10 -16
t6.5 -10.5q63 -108 111 -163q20 29 46.5 73l43.5 71q0 1 6 11t13.5 20l16.5 21.5t19 19t19 7.5zM327 583q6 -5 6 -10t-6 -5q-13 0 -63 31q-20 12 -21 12q-8 -2 -28 -14q-45 -28 -56 -28q-3 0 -5 1t-2 2v1q0 13 78 61q7 4 11 4h2q3 0 36 -21t48 -34z" />
    <glyph glyph-name="ycircumflex" unicode="&#x177;" horiz-adv-x="461" 
d="M468 61q13 0 13 -12q0 -2 -2 -6q-5 -9 -23 -14q-88 -26 -177 -86l-4 -20q-8 -47 -14 -73.5t-17.5 -73t-25.5 -77t-33.5 -65.5t-47 -60.5t-61.5 -42.5q-22 -12 -48 -12q-40 0 -62 31t-22 73q0 92 103 183q90 80 202 147q15 88 24 216q-111 -129 -177 -129q-71 0 -71 126
q0 53 21 53q19 0 19 -37q0 -10 -2 -29.5t-2 -29.5q0 -55 40 -55q15 0 51 20l31 23q21 18 63 76q6 11 19 24q7 9 21 9q27 0 27 -42q0 -8 -11 -85l-18 -120q153 88 184 88zM34 -445q4 0 14 2q64 16 111 93q23 36 41 87.5t25.5 87t18.5 95.5q-17 -13 -50 -36l-58.5 -42
t-46.5 -39q-43 -39 -76.5 -87.5t-33.5 -93.5q0 -27 14.5 -47t40.5 -20zM262 329q6 -5 6 -10t-6 -5q-13 0 -63 31q-20 12 -21 12q-8 -2 -28 -14q-45 -28 -56 -28q-3 0 -5 1t-2 2v1q0 13 78 61q7 4 11 4h2q3 0 36 -21t48 -34z" />
    <glyph glyph-name="Ydieresis" unicode="&#x178;" horiz-adv-x="381" 
d="M409 538q13 -2 13 -9t-16 -29q-97 -133 -141 -217q5 -9 5 -17t-5.5 -13t-10.5 -6t-7 -1q-16 -35 -45 -92.5t-36 -76.5q-6 -18 -29 -64q-13 -41 -31 -41q-12 0 -12 15q0 28 132 290l-50 71q-65 86 -86 127q-10 12 -10 27q0 7 4 14.5t11 7.5q5 0 11.5 -6.5t11 -13t10 -16
t6.5 -10.5q63 -108 111 -163q20 29 46.5 73l43.5 71q0 1 6 11t13.5 20l16.5 21.5t19 19t19 7.5zM283 590q0 14 18 14q11 0 17.5 -11.5t6.5 -23.5q0 -15 -12 -15q-10 0 -20 13t-10 23zM166 590q0 14 18 14q11 0 17.5 -11.5t6.5 -23.5q0 -15 -12 -15q-10 0 -20 13t-10 23z" />
    <glyph glyph-name="circumflex" unicode="&#x2c6;" horiz-adv-x="281" 
d="M225 295q6 -5 6 -10t-6 -5q-13 0 -63 31q-20 12 -21 12q-8 -2 -28 -14q-45 -28 -56 -28q-3 0 -5 1t-2 2v1q0 13 78 61q7 4 11 4h2q3 0 36 -21t48 -34z" />
    <glyph glyph-name="caron" unicode="&#x2c7;" horiz-adv-x="482" 
d="M372 706l-108 -106h-30l-108 106l44 41l79 -75l77 75z" />
    <glyph glyph-name="breve" unicode="&#x2d8;" horiz-adv-x="482" 
d="M300 722h65q0 -52 -34 -87t-90 -35t-90.5 34.5t-34.5 87.5h65q0 -23 17 -40.5t43 -17.5q23 0 41 17t18 41z" />
    <glyph glyph-name="dotaccent" unicode="&#x2d9;" horiz-adv-x="482" 
d="M298 657q0 -23 -16.5 -40t-39.5 -17t-39.5 17t-16.5 40t16.5 40t39.5 17t39.5 -17t16.5 -40z" />
    <glyph glyph-name="ring" unicode="&#x2da;" horiz-adv-x="482" 
d="M310 666q0 -27 -19 -46.5t-47 -19.5t-47 19.5t-19 46.5q0 28 19 48t47 20t47 -20t19 -48zM266 667q0 24 -22 24q-21 0 -21 -24q0 -23 21 -23q22 0 22 23z" />
    <glyph glyph-name="ogonek" unicode="&#x2db;" horiz-adv-x="442" 
d="M321 0l-74 -78q-9 -10 -9 -30v-9q0 -19 24 -19h56v-64h-80q-28 0 -50.5 20t-22.5 48v30q0 17 6.5 29t28.5 34l38 39h83z" />
    <glyph glyph-name="tilde" unicode="&#x2dc;" horiz-adv-x="282" 
d="M225 333h1q6 0 6 -8q0 -15 -20.5 -27.5t-38.5 -12.5q-16 0 -33 14t-25 14q-14 0 -35.5 -14.5t-24.5 -14.5q-5 0 -5 7q0 16 23 30t42 14q20 0 36.5 -14.5t23.5 -14.5q12 0 30 13.5t20 13.5z" />
    <glyph glyph-name="hungarumlaut" unicode="&#x2dd;" horiz-adv-x="482" 
d="M185 755l47 -48l-114 -109l-47 47zM352 755l47 -48l-113 -109l-48 47z" />
    <glyph glyph-name="Ygrave" unicode="&#x1ef2;" horiz-adv-x="381" 
d="M409 538q13 -2 13 -9t-16 -29q-97 -133 -141 -217q5 -9 5 -17t-5.5 -13t-10.5 -6t-7 -1q-16 -35 -45 -92.5t-36 -76.5q-6 -18 -29 -64q-13 -41 -31 -41q-12 0 -12 15q0 28 132 290l-50 71q-65 86 -86 127q-10 12 -10 27q0 7 4 14.5t11 7.5q5 0 11.5 -6.5t11 -13t10 -16
t6.5 -10.5q63 -108 111 -163q20 29 46.5 73l43.5 71q0 1 6 11t13.5 20l16.5 21.5t19 19t19 7.5zM273 546q-18 5 -50.5 27t-32.5 31q0 10 15 10q11 0 47 -29.5t36 -35.5q0 -4 -7 -4q-5 0 -8 1z" />
    <glyph glyph-name="ygrave" unicode="&#x1ef3;" horiz-adv-x="461" 
d="M468 61q13 0 13 -12q0 -2 -2 -6q-5 -9 -23 -14q-88 -26 -177 -86l-4 -20q-8 -47 -14 -73.5t-17.5 -73t-25.5 -77t-33.5 -65.5t-47 -60.5t-61.5 -42.5q-22 -12 -48 -12q-40 0 -62 31t-22 73q0 92 103 183q90 80 202 147q15 88 24 216q-111 -129 -177 -129q-71 0 -71 126
q0 53 21 53q19 0 19 -37q0 -10 -2 -29.5t-2 -29.5q0 -55 40 -55q15 0 51 20l31 23q21 18 63 76q6 11 19 24q7 9 21 9q27 0 27 -42q0 -8 -11 -85l-18 -120q153 88 184 88zM34 -445q4 0 14 2q64 16 111 93q23 36 41 87.5t25.5 87t18.5 95.5q-17 -13 -50 -36l-58.5 -42
t-46.5 -39q-43 -39 -76.5 -87.5t-33.5 -93.5q0 -27 14.5 -47t40.5 -20zM203 293q-18 5 -50.5 27t-32.5 31q0 10 15 10q11 0 47 -29.5t36 -35.5q0 -4 -7 -4q-5 0 -8 1z" />
    <glyph glyph-name="endash" unicode="&#x2013;" horiz-adv-x="367" 
d="M342 137q20 0 20 -10q0 -14 -20 -14q-315 -3 -321 -3q-15 0 -15 12q0 13 25 14q23 1 284 1h27z" />
    <glyph glyph-name="emdash" unicode="&#x2014;" horiz-adv-x="705" 
d="M709 149q20 0 20 -10q0 -14 -20 -14q-702 -3 -708 -3q-15 0 -15 12q0 13 25 14q23 1 671 1h27z" />
    <glyph glyph-name="quoteleft" unicode="&#x2018;" horiz-adv-x="248" 
d="M127 500q9 9 17 9q4 -2 4 -7q0 -4 -5.5 -21t-6.5 -27q0 -2 0.5 -10t0 -11.5t-2 -9t-5.5 -8t-11 -3.5q-18 0 -18 15q0 19 7.5 40.5t19.5 32.5z" />
    <glyph glyph-name="quoteright" unicode="&#x2019;" horiz-adv-x="249" 
d="M121 417q-10 -8 -15 -8q-6 1 -6 7q0 5 5.5 21.5t6.5 25.5v8v9t0.5 7.5t1.5 7t3 5.5t5 4t8 1q19 0 19 -18q0 -42 -28 -70z" />
    <glyph glyph-name="quotesinglbase" unicode="&#x201a;" horiz-adv-x="249" 
d="M121 -57q-10 -8 -15 -8q-6 1 -6 7q0 5 5.5 21.5t6.5 25.5v8v9t0.5 7.5t1.5 7t3 5.5t5 4t8 1q19 0 19 -18q0 -42 -28 -70z" />
    <glyph glyph-name="quotedblleft" unicode="&#x201c;" horiz-adv-x="332" 
d="M127 500q9 9 17 9q4 -2 4 -7q0 -4 -5.5 -21t-6.5 -27q0 -2 0.5 -10t0 -11.5t-2 -9t-5.5 -8t-11 -3.5q-18 0 -18 15q0 19 7.5 40.5t19.5 32.5zM211 500q9 9 15 9q6 -2 6 -7q0 -4 -5.5 -21t-6.5 -27q0 -1 0.5 -9.5t0 -12t-2 -9.5t-5.5 -8.5t-11 -2.5q-19 0 -19 19
q0 17 8.5 37.5t19.5 31.5z" />
    <glyph glyph-name="quotedblright" unicode="&#x201d;" horiz-adv-x="332" 
d="M121 417q-10 -8 -15 -8q-6 1 -6 7q0 5 5.5 21.5t6.5 25.5v8v9t0.5 7.5t1.5 7t3 5.5t5 4t8 1q19 0 19 -18q0 -42 -28 -70zM205 417q-10 -8 -17 -8q-4 2 -4 7t5.5 21.5t6.5 25.5v10v10t0.5 8t2.5 7.5t5.5 4.5t9.5 2q18 0 18 -13q0 -48 -27 -75z" />
    <glyph glyph-name="quotedblbase" unicode="&#x201e;" horiz-adv-x="332" 
d="M121 -53q-10 -8 -15 -8q-6 1 -6 7q0 5 5.5 21.5t6.5 25.5v8v9t0.5 7.5t1.5 7t3 5.5t5 4t8 1q19 0 19 -18q0 -42 -28 -70zM205 -53q-10 -8 -17 -8q-4 2 -4 7t5.5 21.5t6.5 25.5v10v10t0.5 8t2.5 7.5t5.5 4.5t9.5 2q18 0 18 -13q0 -48 -27 -75z" />
    <glyph glyph-name="bullet" unicode="&#x2022;" horiz-adv-x="201" 
d="M68 219q16 11 32 11q22 0 36.5 -14.5t14.5 -30.5q0 -17 -15 -33t-38 -16q-20 0 -34 16t-14 34q0 17 18 33z" />
    <glyph glyph-name="ellipsis" unicode="&#x2026;" horiz-adv-x="644" 
d="M106 37q6 6 15 6q11 0 19 -8.5t8 -17.5q0 -8 -5.5 -15t-15.5 -7q-27 0 -27 27q0 11 6 15zM304 37q6 6 15 6q11 0 19 -8.5t8 -17.5q0 -8 -5.5 -15t-15.5 -7q-27 0 -27 27q0 11 6 15zM502 37q6 6 15 6q11 0 19 -8.5t8 -17.5q0 -8 -5.5 -15t-15.5 -7q-27 0 -27 27q0 11 6 15
z" />
    <glyph glyph-name="perthousand" unicode="&#x2030;" horiz-adv-x="701" 
d="M365 195q10 8 27 8q66 0 66 -100q0 -40 -22.5 -77t-51.5 -37q-30 0 -44 29.5t-14 68.5q0 79 39 108zM552 195q10 8 27 8q66 0 66 -100q0 -40 -22.5 -77t-51.5 -37q-30 0 -44 29.5t-14 68.5q0 79 39 108zM92 453q10 8 27 8q66 0 66 -101q0 -39 -21 -76.5t-51 -37.5
t-45 30.5t-15 68.5q0 74 39 108zM53 7q0 8 31 46q20 24 59 77t73 93l156 201q34 43 48 43q10 0 10 -13q0 -6 -5 -14q-5 -11 -66.5 -87.5t-66.5 -85.5l-64 -82.5l-58.5 -75.5l-47.5 -59q-3 -3 -11 -13.5t-12 -15t-10.5 -11t-12.5 -9t-12 -2.5q-11 0 -11 8zM403 24
q24 13 24 75q0 72 -35 72q-17 0 -28 -18.5t-11 -53.5q0 -33 9.5 -55.5t28.5 -22.5q6 0 12 3zM590 24q24 14 24 75q0 72 -35 72q-17 0 -28 -18.5t-11 -53.5q0 -33 9.5 -55.5t28.5 -22.5q6 0 12 3zM130 282q24 14 24 74q0 32 -9.5 52t-26.5 20t-27.5 -19t-10.5 -55
q0 -32 9.5 -54t27.5 -22q8 0 13 4z" />
    <glyph glyph-name="fraction" unicode="&#x2044;" horiz-adv-x="250" 
d="M-53 14q0 8 31 46q20 24 59 77t73 93l156 201q34 43 48 43q10 0 10 -13q0 -6 -5 -14q-5 -11 -66.5 -87.5t-66.5 -85.5l-64 -82.5l-58.5 -75.5l-47.5 -59q-3 -3 -11 -13.5t-12 -15t-10.5 -11t-12.5 -9t-12 -2.5q-11 0 -11 8z" />
    <glyph glyph-name="Euro" unicode="&#x20ac;" horiz-adv-x="536" 
d="M444 66v-2l1 -2q0 -6 -7 -13q-49 -43 -127 -43q-83 0 -137 48t-72 127q-36 -3 -50 -3q-42 0 -42 16q0 10 11 13.5t39 4t38 1.5q-1 7 -1 21q0 18 1 26q-11 -2 -26 -2q-33 3 -33 16q0 8 2.5 12t18 8.5t46.5 4.5q19 81 81.5 131t138.5 50q66 0 102 -40q9 -9 9 -16
q0 -9 -11 -9q-2 0 -15 5q-44 28 -90 28q-59 0 -113 -43.5t-66 -104.5q175 9 197 9q21 0 21 -9q0 -14 -48.5 -22t-90.5 -9q-15 -1 -47 -4t-41 -4v-46l111 10t88 8q25 0 25 -12q0 -9 -27 -15.5t-65 -10t-43 -4.5q-15 -1 -46 -4.5t-36 -3.5q15 -70 64.5 -109t104.5 -39
q21 0 38.5 3t25.5 6t25.5 11l24.5 11q6 3 12 3q9 0 9 -3z" />
    <glyph glyph-name="minus" unicode="&#x2212;" horiz-adv-x="487" 
d="M411 248q26 -7 26 -16t-20 -11q4 0 -79 -4l-170.5 -8t-94.5 -4q-8 0 -15.5 7t-7.5 15q0 16 38 20q68 5 219 5q85 0 104 -4z" />
    <glyph glyph-name="heart" unicode="&#x2665;" horiz-adv-x="656" 
d="M605 390q0 -3 0.5 -9.5t0.5 -9.5q0 -87 -76 -190q-63 -86 -130 -140q-12 -10 -36.5 -28.5t-35.5 -27.5q19 -16 22 -33q0 -10 -9 -10q-13 0 -40 24q-1 -1 -21.5 -12l-44.5 -23.5t-27 -14.5q-14 -4 -20 -4q-13 0 -13 9q0 8 18.5 20.5t44.5 27t35 21.5q-1 0 -9.5 9.5
l-20.5 22.5t-17 19q-176 187 -176 303q0 17 3 35q7 34 38.5 60t66.5 26q22 0 51 -12q24 -10 40 -26.5t33 -44.5t24 -38q0 -1 2 -4t5.5 -6t7.5 -3q10 0 19 18q64 138 170 138q50 0 71 -30t24 -67zM539 260q27 52 27 103q0 36 -15.5 59.5t-43.5 23.5q-8 0 -12 -1
q-26 -5 -44.5 -16t-28.5 -22t-30 -39l-30 -54q-18 -29 -40 -29q-19 0 -36.5 21.5t-29.5 47t-37 47t-58 21.5q-35 0 -54 -23t-19 -61q0 -56 57 -147t158 -184q6 5 24 17.5t24 17.5q71 58 132 133q32 39 56 85z" />
    <glyph glyph-name="c.medx1by1" horiz-adv-x="388" 
d="M325 85q0 -56 63 -63q10 -2 10 -10q0 -11 -10 -11q-39 0 -67.5 23.5t-28.5 61.5q0 6 2 18l-14 -6q-9 -4 -50.5 -25.5t-64.5 -31.5q-92 -40 -167 -40q-10 0 -10 11q0 10 10 10q58 0 110 20q107 41 195 95q14 32 39 58.5t54 26.5q14 0 34 -9.5t20 -22.5q0 -6 -6 -6
q-4 0 -15 7.5t-23 7.5q-30 0 -55.5 -40.5t-25.5 -73.5z" />
    <glyph glyph-name="c.medx5y1" horiz-adv-x="403" 
d="M411 222q14 0 34 -10t20 -22q0 -6 -7 -6q-4 0 -15 7.5t-22 7.5q-30 0 -55.5 -40.5t-25.5 -73.5q0 -56 62 -63q11 -2 11 -11q0 -10 -11 -10q-33 0 -60.5 18.5t-33.5 49.5q0 1 -1 5t-1 5q0 15 3 28q-167 -75 -240 -121q-67 -45 -69 -45q-11 0 -11 10q0 5 3 8t12 9l20 13.5
l14 9.5q39 26 84.5 50t106.5 53l89 43q14 32 39 58.5t54 26.5z" />
    <glyph glyph-name="c.finx1" horiz-adv-x="441" 
d="M333 22h14q23 0 46 11t38 22t16 11h3l3 -6q0 -15 -17 -27.5t-35 -20.5q-24 -11 -57 -11q-60 0 -87 31q-21 25 -21 47q0 13 1 20q-128 -98 -238 -98q-11 0 -11 10q0 11 11 11q46 0 88 15q35 13 85 44.5t77 58.5q15 32 39 57t53 25q14 0 33.5 -10t19.5 -22q0 -6 -6 -6
t-16 7.5t-21 7.5q-31 0 -56.5 -41t-25.5 -73q0 -27 18.5 -45t45.5 -18z" />
    <glyph glyph-name="c.finx3" horiz-adv-x="363" 
d="M255 22h14q22 0 45.5 11t39 22t17.5 11q4 0 4 -6q0 -14 -17 -27.5t-35 -20.5q-27 -11 -57 -11q-45 0 -76.5 21t-31.5 64q0 15 5 32q-78 -45 -164 -45q-11 0 -11 11t11 11q31 0 65 9.5t55.5 19.5t58.5 30q14 27 36.5 47.5t48.5 20.5q14 0 33.5 -10t19.5 -23q0 -5 -6 -5
t-16 7.5t-22 7.5q-30 0 -55.5 -40.5t-25.5 -73.5q0 -27 18.5 -45t45.5 -18z" />
    <glyph glyph-name="c.finx4" horiz-adv-x="308" 
d="M199 22h15q22 0 45.5 11t38.5 22t17 11q5 0 5 -6q0 -14 -17.5 -27.5t-35.5 -20.5q-24 -11 -57 -11q-43 0 -75.5 21t-32.5 62q0 14 5 32q-49 0 -84 9l-27 7h-2q-6 4 -6 10q0 10 11 10q4 0 6 -1q46 -12 79 -12q12 0 32 2q37 81 91 81q14 0 33.5 -10t19.5 -22q0 -6 -6 -6
q-5 0 -15.5 7.5t-21.5 7.5q-31 0 -56 -41t-25 -74q0 -27 18 -44.5t45 -17.5z" />
    <glyph glyph-name="c.finx1b" horiz-adv-x="497" 
d="M389 22h14q23 0 46 11t38 22t16 11h3l3 -6q0 -15 -14 -25q-42 -34 -107 -34q-38 0 -67 24t-29 61q0 6 2 18l-13 -6q-3 -2 -26 -14l-28 -14.5l-26 -12.5t-28.5 -13t-26.5 -11.5t-29 -11t-27.5 -8t-30.5 -7l-29 -3.5t-31 -2q-11 0 -11 11q0 10 11 10q58 0 110 20
q104 40 194 95q14 32 39 58.5t54 26.5q15 0 34.5 -9.5t19.5 -22.5q0 -6 -6 -6q-4 0 -15 7.5t-23 7.5q-30 0 -55.5 -40.5t-25.5 -73.5q0 -27 18.5 -45t45.5 -18z" />
    <glyph glyph-name="c.finx5" horiz-adv-x="512" 
d="M403 22h15q21 0 45 11t39.5 22t16.5 11q5 0 5 -6q0 -12 -15 -25q-36 -34 -95 -34q-57 0 -87 31q-21 23 -21 47q0 15 3 28q-18 -9 -59 -27.5t-64.5 -30l-57 -29t-59.5 -34.5q-67 -45 -69 -45q-11 0 -11 10q0 5 3 8q11 11 46 32q39 26 84.5 50t106.5 53l89 43
q14 32 39 58.5t54 26.5q14 0 34 -10t20 -22q0 -6 -7 -6q-5 0 -15.5 7.5t-21.5 7.5q-30 0 -55.5 -40.5t-25.5 -73.5q0 -27 18 -45t45 -18z" />
    <glyph glyph-name="d.iniy1" horiz-adv-x="421" 
d="M257 175q0 62 18 136q9 36 21 73t33 87t49 81.5t57 31.5q33 0 33 -37q0 -34 -29 -101q-8 -17 -18 -35.5l-22.5 -40l-19.5 -34.5q-73 -132 -81 -145q-10 -16 -16 -24q0 -2 2 -14l2.5 -15t2.5 -13.5t3.5 -14.5l4.5 -12.5t6 -14t8 -12t10 -11.5q39 -38 100 -38q11 0 11 -10
q0 -11 -11 -11q-66 0 -106.5 35t-53.5 100l-27.5 -37.5t-29.5 -36t-38 -39.5t-38 -23.5t-44 -11.5q-27 0 -45.5 17.5t-18.5 44.5q0 44 44.5 83t89.5 39q22 0 41 -13.5t26 -34.5l12 16.5l13 18.5zM282 214l52 89q18 32 52 98q50 91 50 120q0 20 -16 20q-43 0 -108 -199
q-24 -79 -30 -128zM87 20q21 0 43.5 13.5t34.5 25.5t32 35l1 1q-1 19 -15 31.5t-33 12.5q-32 0 -64 -27t-32 -59q0 -15 9 -24t24 -9z" />
    <glyph glyph-name="d.medx1y1" horiz-adv-x="511" 
d="M347 175q0 62 18 136q9 36 21 73t32.5 87t48.5 81.5t58 31.5q33 0 33 -37q0 -23 -11 -55t-20.5 -51.5t-31.5 -58.5l-26 -46l-22 -41.5l-24.5 -45.5t-23.5 -40t-27 -42q2 -28 4 -38q6 -35 28.5 -62.5t55.5 -36.5q26 -8 51 -8q11 0 11 -10q0 -11 -11 -11q-98 0 -142 78
q-10 19 -18 57q-24 -33 -36 -48t-38.5 -44t-52 -42.5t-51.5 -13.5t-44 16.5t-19 42.5q-33 -25 -55 -35.5t-56 -10.5q-11 0 -11 11q0 10 10 10q8 0 15.5 1t15.5 4t14 5t14.5 8t12.5 8t13.5 9.5l12 9.5l13 10.5t11.5 9.5q16 35 51 60t73 25q21 0 40.5 -14t26.5 -34l12 16.5
l13 18.5zM372 214l52 89q11 19 52 98q50 91 50 120q0 20 -16 20q-21 0 -46.5 -45.5t-38.5 -83t-23 -70.5q-26 -84 -30 -128zM177 20q21 0 44.5 14.5t33.5 24.5t32 35l1 1q-2 19 -15.5 31.5t-32.5 12.5q-33 0 -64.5 -27.5t-31.5 -59.5t33 -32z" />
    <glyph glyph-name="d.medx3y1" horiz-adv-x="494" 
d="M330 175q0 62 18 136q9 36 21 73t33 87t49 81.5t57 31.5q33 0 33 -37q0 -19 -5 -40t-18 -48.5l-19.5 -40.5t-26 -46.5t-20.5 -35.5l-28.5 -54t-35.5 -64t-33 -51q7 -113 89 -137q26 -8 50 -8q11 0 11 -10q0 -11 -11 -11q-66 0 -106.5 35t-53.5 100l-27.5 -37.5t-29.5 -36
t-38 -39.5t-38 -23.5t-44 -11.5q-27 0 -45.5 17.5t-18.5 44.5q0 22 13 42q-56 -19 -107 -19q-11 0 -11 11t11 11q54 0 119 28q14 5 17 8l13 10.5t10 7.5l7.5 5t9 5t11 4.5t17.5 5.5l1 1v-1q12 3 23 3q22 0 41 -13.5t26 -34.5l12 16.5l13 18.5zM355 214l52 89q18 32 52 98
q50 91 50 120q0 20 -16 20q-45 0 -108 -199q-24 -79 -30 -128zM160 20q21 0 44.5 14.5t33.5 24.5t32 35l1 1q-1 19 -15 31.5t-33 12.5q-32 0 -64 -27t-32 -59q0 -15 9 -24t24 -9z" />
    <glyph glyph-name="d.medx4y1" horiz-adv-x="474" 
d="M520 547q0 -23 -11.5 -55.5t-20 -50.5t-32.5 -60.5t-25 -44.5l-22 -41.5l-24.5 -45.5t-23.5 -40t-27 -42q8 -113 88 -137q26 -8 51 -8q11 0 11 -10q0 -11 -11 -11q-66 0 -106.5 35t-53.5 100q-61 -83 -95 -111q-43 -37 -83 -37q-27 0 -45 17t-18 44q0 31 28 67
q-42 0 -104 16h-1q-7 5 -7 10q0 10 11 10q5 0 7 -1q40 -12 81 -12q21 0 40 3q35 30 79 30q21 0 40.5 -14t26.5 -34l12 16.5l13 18.5l11 16q0 62 18 136q9 36 21 73t32.5 87t48.5 81.5t58 31.5q33 0 33 -37zM334 214l52 89q11 19 52 98q50 91 50 120q0 20 -16 20
q-21 0 -46.5 -45.5t-38.5 -83t-23 -70.5q-26 -84 -30 -128zM139 20q21 0 44.5 14.5t33.5 24.5t32 35l1 1q-2 20 -15.5 32t-32.5 12q-32 0 -64 -27t-32 -59q0 -15 9 -24t24 -9z" />
    <glyph glyph-name="d.medx1by1" horiz-adv-x="674" 
d="M511 175q-6 44 17 140.5t68.5 182.5t91.5 86q33 0 33 -37q0 -18 -5.5 -39.5t-17.5 -47.5l-20 -42t-24.5 -45.5l-20.5 -36.5q-8 -14 -24.5 -46t-30 -55.5t-27.5 -43.5l-15 -24q5 -72 39 -107q38 -38 99 -38q11 0 11 -10q0 -11 -11 -11q-64 0 -106.5 36t-52.5 99
q-61 -83 -95 -111q-43 -37 -83 -37q-28 0 -45.5 17.5t-17.5 45.5q0 17 11 39q-1 -1 -27.5 -12.5t-32.5 -13.5t-30.5 -12.5t-34.5 -13.5t-32 -11t-35 -11l-31 -7.5t-33.5 -6t-29.5 -1.5q-11 0 -11 11q0 10 15 10q63 1 201 57q92 38 111 52l10 9q25 19 47 26q16 6 35 6
q20 0 41.5 -14.5t25.5 -33.5q13 17 37 51zM535 214q41 64 105 187q2 4 11 20.5t13.5 26.5l11.5 24.5t10 26.5t3 22q0 20 -16 20q-20 0 -45.5 -45.5t-39.5 -83.5t-23 -70q-24 -78 -30 -128zM341 20q21 0 44 14t34 25t32 35l1 1q-2 19 -15.5 31.5t-32.5 12.5
q-32 0 -64.5 -27.5t-32.5 -58.5q0 -15 9.5 -24t24.5 -9z" />
    <glyph glyph-name="d.medx5y1" horiz-adv-x="666" 
d="M713 547q0 -34 -29 -101q-8 -17 -18 -35.5l-22.5 -40l-19.5 -34.5q-73 -132 -81 -145q-10 -16 -16 -24q0 -3 2 -14.5t2.5 -15t2.5 -13.5t3.5 -14.5l4.5 -13t6 -13.5t8 -11.5t10 -11.5q39 -38 100 -38q11 0 11 -10q0 -11 -11 -11q-66 0 -106.5 35t-53.5 100l-27.5 -37.5
t-29.5 -36t-38 -39.5t-38 -23.5t-44 -11.5q-27 0 -45.5 17.5t-18.5 44.5q0 18 13 42q-141 -65 -208 -106l-20 -14t-32 -21.5t-18 -9.5q-4 0 -7.5 3t-3.5 7q0 9 50 40q45 31 106 61l109 53q5 3 24 11.5t28 14.5q3 1 7.5 5t6.5 6q19 16 44 24q17 6 35 6q22 0 41 -13.5
t26 -34.5l12 16.5l13 18.5l11 16q0 62 18 136q9 36 21 73t33 87t49 81.5t57 31.5q33 0 33 -37zM527 214l52 89q18 32 52 98q50 91 50 120q0 20 -16 20q-43 0 -108 -199q-24 -79 -30 -128zM332 20q21 0 43.5 13.5t34.5 25.5t32 35l1 1q-1 19 -15 31.5t-33 12.5q-32 0 -64 -27
t-32 -59q0 -14 9 -23.5t24 -9.5z" />
    <glyph glyph-name="d.finx1" horiz-adv-x="546" 
d="M558 547q0 -18 -5 -39t-18 -49l-19.5 -41t-25.5 -47t-20 -35l-52 -97q-2 -4 -10 -18t-13 -21q-8 -11 -22 -33q6 -45 19.5 -74t45.5 -50q18 -11 38 -16q1 0 2 -1q14 -2 22 -2q10 0 26.5 4.5t18.5 4.5q7 0 7 -5q0 -13 -20 -19.5t-37 -6.5q-38 0 -72.5 21.5t-52.5 55.5
q-11 19 -19 57q-60 -83 -93 -111q-44 -37 -84 -37q-27 0 -44 16.5t-19 42.5q-25 -18 -35 -24.5t-30 -14t-42 -7.5q-16 0 -16 11q0 10 11 10q9 0 18 2t16 4t16.5 7.5t14.5 8t15.5 10.5t13.5 10.5l14 11.5t13 11q17 36 51.5 60.5t72.5 24.5q22 0 41 -14t26 -34l12 16.5
l13 18.5l11 16v19q0 49 22.5 138.5t66 170.5t89.5 81q33 0 33 -37zM177 20q50 0 110 74l2 1q-2 20 -16 32t-33 12q-32 0 -64 -27.5t-32 -58.5q0 -14 9 -23.5t24 -9.5zM510 541q-16 0 -34 -24.5t-33.5 -62.5t-25 -64t-15.5 -48q-24 -78 -30 -128q41 64 105 187q2 4 11 20.5
t13.5 26.5l11.5 24.5t10 26.5t3 22q0 20 -16 20z" />
    <glyph glyph-name="d.finx3" horiz-adv-x="529" 
d="M541 547q0 -18 -5.5 -39.5t-18 -48l-20 -42t-25 -46l-20.5 -35.5t-30.5 -57.5t-44.5 -78.5l-21 -33q3 -31 5 -38q14 -45 45.5 -75t75.5 -30q11 0 28 4.5t18 4.5q7 0 7 -5q0 -13 -20.5 -19.5t-37.5 -6.5q-38 0 -72 21.5t-52 55.5q-12 22 -19 57q-61 -83 -95 -111
q-43 -37 -83 -37q-27 0 -45 17t-18 44q0 23 13 43q-56 -19 -107 -19q-11 0 -11 11t11 11q54 0 119 28q14 5 17 8l13.5 10.5l13.5 10.5t12 7t18 7l11 3l1 1v-1q11 3 23 3q22 0 41 -13.5t26 -34.5l12 16.5l13 18.5l11 16q0 62 18 136q9 36 21 73t33 87t49 81.5t57 31.5
q33 0 33 -37zM493 541q-21 0 -46.5 -45.5t-38.5 -83t-23 -70.5q-26 -84 -30 -128q50 86 52 89q18 32 52 98q50 91 50 120q0 20 -16 20zM160 20q21 0 44.5 14.5t33.5 24.5t32 35l1 1q-1 19 -15 31.5t-33 12.5q-32 0 -64 -27t-32 -59q0 -15 9 -24t24 -9z" />
    <glyph glyph-name="d.finx4" horiz-adv-x="507" 
d="M507 33q6 0 6 -5q0 -13 -20 -19.5t-37 -6.5q-38 0 -72.5 21.5t-52.5 55.5q-11 19 -19 57q-60 -83 -93 -111q-44 -37 -84 -37q-27 0 -45.5 17.5t-18.5 44.5t28 66q-32 0 -77 9l-26 7h-2q-6 6 -6 10q0 10 11 10q4 0 6 -1q39 -12 81 -12q20 0 39 3q41 30 80 30
q22 0 41 -13.5t26 -34.5l12 16.5l13 18.5l11 16v19q0 49 22.5 138.5t66 170.5t89.5 81q33 0 33 -37q0 -23 -11.5 -55.5t-20 -50.5t-32 -60.5t-24.5 -44.5l-52 -97q-2 -4 -10 -18t-13 -21q-8 -11 -22 -33q6 -45 19.5 -74t45.5 -50q18 -11 38 -16q1 0 2 -1q14 -2 22 -2
q10 0 26.5 4.5t19.5 4.5zM471 541q-16 0 -34 -24.5t-33.5 -62.5t-25 -64t-15.5 -48q-24 -78 -30 -128q41 64 105 187q2 4 11 20.5t13.5 26.5l11.5 24.5t10 26.5t3 22q0 20 -16 20zM248 94l2 1q-2 20 -16 32t-33 12q-32 0 -64 -27.5t-32 -58.5q0 -14 9 -23.5t24 -9.5
q50 0 110 74z" />
    <glyph glyph-name="d.finx1b" horiz-adv-x="710" 
d="M712 33q4 0 4 -5q0 -13 -20.5 -19.5t-37.5 -6.5q-37 0 -71.5 22t-52.5 55q-12 22 -19 57l-27.5 -37.5t-29.5 -36t-38 -39.5t-38 -23.5t-44 -11.5q-27 0 -45.5 17.5t-18.5 44.5q0 14 12 40l-97 -42t-88.5 -29.5t-101.5 -17.5q-11 0 -11 11q0 10 15 10q70 1 202 57
q84 33 111 52q1 1 5.5 5t7.5 6q19 16 44 24q17 6 35 6q21 0 40.5 -14t26.5 -34l12 16.5l13 18.5l11 16q0 62 18 136q9 36 21 73t33 87t49 81.5t57 31.5q33 0 33 -37q0 -19 -5 -40t-18 -48.5l-19.5 -40.5t-26 -46.5t-20.5 -35.5q-3 -5 -30.5 -57.5t-44.5 -78.5l-21 -33
q2 -27 5 -38q11 -43 44.5 -74t76.5 -31q11 0 27.5 4.5t21.5 4.5zM674 541q-21 0 -46.5 -45.5t-38.5 -83t-23 -70.5q-24 -79 -30 -128l52 89q18 32 52 98q50 91 50 120q0 20 -16 20zM341 20q21 0 44.5 14.5t33.5 24.5t32 35l1 1q-1 19 -15 31.5t-33 12.5q-32 0 -64 -27
t-32 -59q0 -15 9 -24t24 -9z" />
    <glyph glyph-name="d.finx5" horiz-adv-x="700" 
d="M699 33q7 0 7 -5q0 -13 -20 -19.5t-37 -6.5q-38 0 -72.5 21.5t-52.5 55.5q-11 19 -19 57q-60 -83 -93 -111q-44 -37 -84 -37q-27 0 -45.5 17.5t-18.5 44.5q0 18 13 42q-153 -71 -208 -106q-67 -45 -69 -45q-11 0 -11 10q0 5 3 8q5 5 24.5 18t21.5 14q45 31 106 61l110 53
q6 3 24.5 11.5t27.5 14.5q2 1 11 10q23 18 46 25q17 6 35 6q22 0 41 -13.5t26 -34.5l36 51q0 62 18 136q9 36 21 73t33 87t49 81.5t57 31.5q33 0 33 -37q0 -19 -5.5 -40.5t-17.5 -47t-20.5 -42t-25 -45t-20.5 -36.5q-47 -90 -54 -101q-13 -27 -20 -35q-8 -11 -22 -33
q7 -87 65 -124q18 -11 38 -16q1 0 2 -1q14 -2 21 -2q11 0 28 4.5t18 4.5zM441 94l2 1q-2 20 -16 32t-33 12q-32 0 -64 -27t-32 -59q0 -14 9 -23.5t24 -9.5q50 0 110 74zM664 541q-43 0 -108 -199q-24 -79 -30 -128q43 71 105 187q49 92 49 120q0 20 -16 20z" />
    <glyph glyph-name="e.iniy1" horiz-adv-x="180" 
d="M202 225q22 0 39 -12t17 -33q0 -14 -10 -26.5t-28 -21t-33 -14t-36.5 -12t-27.5 -8.5q-4 -2 -7 -2q0 -2 -0.5 -5.5t-0.5 -5.5q0 -28 18 -44.5t47 -18.5q11 -2 11 -10q0 -11 -11 -11q-38 0 -68 25t-28 62q-38 -7 -66 -7q-9 0 -19.5 5t-10.5 13q0 7 16 7q38 0 85 10
q0 1 1 4q23 71 77 97q8 8 35 8zM122 124q25 4 60 21.5t35 35.5q0 13 -20 13q-25 0 -45 -21.5t-30 -48.5z" />
    <glyph glyph-name="e.medx1y1" horiz-adv-x="291" 
d="M314 225q21 0 37.5 -12t16.5 -32q0 -9 -6 -21q-5 -9 -25 -22q-8 -5 -22.5 -12t-17.5 -9q-8 -5 -32 -18.5t-38 -20.5q5 -48 64 -56q11 -2 11 -10q0 -11 -11 -11q-31 0 -57.5 17t-35.5 45q-42 -21 -65.5 -31t-61 -20.5t-71.5 -10.5q-12 0 -12 11q0 10 11 10q46 0 88 15
q41 15 109 51q0 47 36 92t82 45zM229 106q14 7 52 30t44 30q5 5 5 12q0 16 -22 16q-29 0 -50.5 -28t-28.5 -60z" />
    <glyph glyph-name="e.medx3y1" horiz-adv-x="180" 
d="M203 225q21 0 38 -12t17 -33q0 -8 -3.5 -15t-10.5 -14t-14.5 -13t-19 -11.5t-20 -10t-21.5 -9.5t-19.5 -7t-18 -6t-13.5 -5l-2 -1v-6q0 -53 64 -60q11 -2 11 -10q0 -11 -11 -11q-33 0 -60 19t-34 50q0 1 -0.5 6t-1.5 6q-50 -9 -85 -9q-11 0 -11 11t11 11q47 0 87 10
q9 45 41.5 82.5t75.5 37.5zM119 112q24 5 61 27.5t37 41.5q0 13 -20 13q-28 0 -49.5 -26t-28.5 -56z" />
    <glyph glyph-name="e.medx1by1" horiz-adv-x="405" 
d="M427 225q21 0 38 -12t17 -32q0 -48 -135 -104l-6 -2q5 -46 64 -53q11 -2 11 -10q0 -11 -11 -11q-31 0 -58.5 17t-34.5 46q-174 -63 -313 -63q-11 0 -11 11q0 10 11 10q52 0 127 14q26 5 112 28q5 2 26.5 7.5t31.5 10.5l13 6q4 50 37.5 93.5t80.5 43.5zM342 102
q1 0 12.5 5.5t18 9l18.5 10t19.5 11.5t16 12t12.5 13.5t4 12.5q0 18 -21 18q-30 0 -52.5 -29.5t-27.5 -62.5z" />
    <glyph glyph-name="e.medx5y1" horiz-adv-x="315" 
d="M338 225q21 0 37.5 -12t16.5 -32q0 -9 -6 -21q-5 -9 -25 -22q-8 -5 -22.5 -12t-17.5 -9q-6 -4 -31 -18.5t-39 -20.5q5 -48 64 -56q11 -2 11 -10q0 -11 -11 -11q-30 0 -58 17.5t-35 45.5q-124 -59 -153 -78q-67 -45 -69 -45q-11 0 -11 10q0 5 3 8t11.5 9l20 13.5l14.5 9.5
q59 41 182 98q0 47 36.5 91.5t81.5 44.5zM253 106q14 7 52 30t44 30q5 5 5 12q0 16 -22 16q-29 0 -50.5 -28t-28.5 -60z" />
    <glyph glyph-name="e.finx1" horiz-adv-x="401" 
d="M413 59q0 -15 -16.5 -27t-32.5 -18t-32 -9q-19 -4 -41 -4q-30 0 -58 17t-35 45q-41 -20 -65.5 -31t-62 -21t-71.5 -10q-11 0 -11 11q0 10 11 10q46 0 88 15q44 16 108 51q4 41 26 76.5t57 52.5q8 8 35 8q21 0 38 -12t17 -32q0 -9 -6 -21q-6 -11 -26 -22q-6 -4 -12.5 -7.5
l-14.5 -7.5l-12 -6q-61 -35 -70 -39q0 -24 20 -40t45 -16q55 0 94 27q1 1 6.5 5l10 7.5t5.5 3.5q5 0 5 -6zM307 194q-28 0 -50.5 -28.5t-27.5 -59.5q14 7 52 30t44 30q5 5 5 12q0 16 -23 16z" />
    <glyph glyph-name="e.finx3" horiz-adv-x="291" 
d="M297 65q6 0 6 -7q0 -25 -53 -46q-7 -2 -28 -7q-19 -4 -41 -4q-36 0 -66 23t-30 58q-50 -9 -86 -9q-11 0 -11 11t11 11q47 0 88 10q8 45 40.5 82.5t75.5 37.5q21 0 38 -12t17 -32q0 -21 -29.5 -42t-56.5 -32t-53 -18l-3 -1q0 -29 18.5 -47.5t47.5 -18.5q55 0 94 27
q1 1 6 5l9.5 7.5t5.5 3.5zM198 194q-28 0 -49.5 -26t-28.5 -56q25 6 61.5 28.5t36.5 41.5q0 12 -20 12z" />
    <glyph glyph-name="e.finx1b" horiz-adv-x="515" 
d="M521 65q6 0 6 -7q0 -20 -27 -33.5t-54 -19.5q-19 -4 -41 -4q-31 0 -59 17.5t-35 45.5q-174 -63 -313 -63q-10 0 -10 11q0 10 10 10q52 0 127 14q26 5 112 28q2 1 24.5 7t33.5 11l14 6q0 47 36 92t82 45q22 0 38.5 -12t16.5 -33q0 -19 -29 -42.5t-55.5 -37t-51.5 -23.5
l-6 -2q3 -23 22.5 -38t43.5 -15q56 0 94 27q1 1 6 5l9.5 7.5t5.5 3.5zM421 194q-30 0 -51.5 -29t-28.5 -63q2 1 9.5 4.5l12.5 6l14.5 7t16 8.5l14.5 9t13.5 9.5t11 9.5t8 10t2.5 10q0 18 -22 18z" />
    <glyph glyph-name="e.finx5" horiz-adv-x="426" 
d="M432 65q6 0 6 -7q0 -35 -81 -53q-19 -4 -41 -4q-31 0 -58.5 17t-34.5 46l-52 -23q-66 -32 -102 -55q-67 -45 -69 -45q-11 0 -11 10q0 5 3 8q11 11 46 32q65 43 182 98q4 41 26 76.5t57 51.5q8 8 35 8q21 0 37.5 -11.5t16.5 -31.5q0 -8 -6 -22q-4 -8 -25 -22l-39 -21
q-4 -2 -30 -17t-41 -22q3 -24 22 -40t44 -16q55 0 94 27q1 0 6 4l10 8zM332 194q-29 0 -50.5 -28t-28.5 -60q85 45 97 60q5 5 5 12q0 16 -23 16z" />
    <glyph glyph-name="f.iniy1" horiz-adv-x="365" 
d="M407 471q22 0 36 -14t14 -37q0 -37 -28 -80q-37 -59 -163 -163q-47 -39 -49 -40l-12 -11l-8 -28q37 -37 77 -55q45 -21 91 -21q11 0 11 -10q0 -11 -11 -11q-85 0 -157 55l-9.5 6.5t-9.5 7.5l-6 -24q131 -171 131 -263q0 -43 -24.5 -75.5t-65.5 -32.5q-27 0 -47.5 14
t-31 36.5t-15.5 47t-5 49.5q0 91 28 215l-23 27q-93 -63 -147 -63q-33 0 -33 18q0 4 6.5 5.5t16 1.5h10.5q58 5 134 62q-4 8 -4 19q0 24 24 24q10 0 24 -6l1 -1l18 16q69 221 168 306q29 25 59 25zM228 -294q28 0 41.5 25t13.5 56q0 90 -108 223l-2 -9q-20 -106 -20 -163
q0 -27 5.5 -54.5t23.5 -52.5t46 -25zM219 174q58 50 86 76q33 31 73.5 81.5t40.5 75.5q0 22 -17 22q-47 0 -105 -94.5t-78 -160.5zM155 82q4 -6 7 -9q2 12 4 16l-1 1q-4 -2 -10 -8z" />
    <glyph glyph-name="f.medx1y1" horiz-adv-x="402" 
d="M445 471q24 0 37.5 -14.5t13.5 -39.5q0 -27 -16 -58t-51.5 -67.5l-56.5 -56.5t-67.5 -58t-48.5 -40l-13 -11q-2 -10 -8 -28q10 -13 35.5 -31t40.5 -24q49 -21 91 -21q11 0 11 -10q0 -11 -11 -11q-52 0 -90 15.5t-85 51.5l-6 -22q36 -48 59 -81.5t48 -87t25 -94.5
q0 -43 -24.5 -75.5t-65.5 -32.5q-35 0 -59 25t-32.5 56t-8.5 66q0 91 28 215q-18 20 -22 27q-4 -3 -20 -12t-21 -11.5t-19 -10t-21 -10t-19.5 -7.5t-22.5 -7t-22.5 -3.5t-24.5 -1.5q-11 0 -11 11q0 10 11 10q63 0 156 65q-5 10 -5 20q0 24 25 24q10 0 24 -6l2 -1l17 15
q66 219 168 307q29 25 59 25zM266 -294q28 0 42 25t14 55q0 87 -109 224q0 -3 -2 -9q-20 -91 -20 -163q0 -27 5.5 -54.5t23.5 -52.5t46 -25zM257 174q105 89 166 167q34 44 34 66t-16 22q-33 0 -75 -53t-69 -108.5t-40 -93.5zM200 88l-7 -6q4 -6 7 -9l3 13z" />
    <glyph glyph-name="f.medx3y1" horiz-adv-x="376" 
d="M418 471q22 0 36 -14t14 -36q0 -39 -28 -81q-48 -70 -212 -173l-1 -3q-4 -16 -20 -68q37 -37 77 -53q51 -21 91 -21q11 0 11 -10q0 -11 -11 -11q-17 0 -31 1t-29 5l-22.5 6t-23.5 10.5t-20 11l-24.5 15.5l-25.5 16l-6 -23l9 -12q37 -49 57 -78.5t41.5 -79t21.5 -90.5
q0 -42 -22.5 -74.5t-62.5 -32.5q-34 0 -57.5 24t-33 54t-10.5 64v19q0 91 26 197q-40 48 -42 70l-6 -3q-56 -28 -115 -28q-11 0 -11 11t11 11q34 0 74.5 15t66 30t65.5 42q67 190 154 264q29 25 59 25zM238 -294q28 0 40.5 24.5t12.5 55.5q0 86 -106 220l-1 -5
q-20 -108 -20 -163q0 -27 5.5 -54.5t23 -52.5t45.5 -25zM242 207q106 74 144 114q45 47 45 82q0 26 -17 26q-31 0 -69.5 -46t-63.5 -93t-39 -83zM184 114l9 31l-31 -18q9 0 22 -13zM154 97q0 -9 18 -27l3 13l-5 5q-1 1 -4 3.5t-5.5 4t-3.5 1.5l-1 1q-1 0 -2 -1z" />
    <glyph glyph-name="f.medx4y1" horiz-adv-x="329" 
d="M372 471q24 0 37.5 -15t13.5 -39q0 -28 -19.5 -60.5t-42.5 -56.5t-64 -54.5t-60.5 -43.5l-54.5 -35l-1 -3q-4 -16 -20 -68q42 -38 77 -53q49 -21 91 -21q11 0 11 -10q0 -11 -11 -11q-77 0 -143 44q-4 2 -11 6t-12.5 7.5t-9.5 7.5l-6 -23q15 -16 41 -54q88 -124 88 -206
q0 -42 -22.5 -74.5t-62.5 -32.5q-34 0 -57.5 24t-33 54t-10.5 64v18q0 85 26 198q-2 3 -12.5 15.5t-15.5 19.5t-10 18.5t-5 20.5q0 6 3 11q-10 -1 -21.5 0.5t-19 3t-20.5 5t-19 4.5h-1q-7 5 -7 10q0 10 11 10q5 0 7 -1q42 -12 63 -12q36 0 88 35q65 194 156 272q29 25 59 25
zM192 -294q28 0 40.5 24.5t12.5 55.5q0 86 -106 220l-1 -5q-20 -112 -20 -170q0 -43 18 -84t56 -41zM192 198q14 10 41 32l41 33q111 82 111 140q0 26 -17 26q-34 0 -68.5 -43t-59.5 -91q-39 -73 -48 -97zM138 114l9 31q-27 -15 -32 -17q16 -8 23 -14zM108 97q0 -9 18 -27
l3 13q-1 2 -9 8t-9 6l-1 1q-1 0 -2 -1z" />
    <glyph glyph-name="f.medx1by1" horiz-adv-x="571" 
d="M614 471q24 0 37.5 -15t13.5 -39q0 -36 -28 -77q-40 -60 -172 -147l-40 -26l-21 -71q12 -13 35.5 -29t40.5 -23q51 -22 91 -22q11 0 11 -10q0 -11 -11 -11q-18 0 -32 1t-28 5l-22.5 6.5t-22.5 10t-20.5 11.5l-24.5 15l-26 16l-6 -23q9 -9 23.5 -29.5l17.5 -24.5
q88 -115 88 -206q0 -42 -22 -74.5t-63 -32.5q-49 0 -74 44t-27 98v18q0 88 27 198q-1 2 -8.5 10t-10 11.5l-8 11t-8 12.5t-5 12t-3.5 13q-76 -38 -168 -70.5t-149 -32.5q-11 0 -11 11q0 10 10 10q34 0 86 15q80 22 170 62t147 82q67 192 154 265q31 25 59 25zM434 -294
q28 0 40.5 24.5t12.5 55.5q0 85 -105 220q-1 -2 -1 -5q-21 -118 -21 -170q0 -42 18.5 -83.5t55.5 -41.5zM437 205q121 85 161 135q29 36 29 63q0 26 -17 26q-34 0 -68.5 -43t-59.5 -91q-37 -69 -45 -90zM380 114q6 22 10 32q-2 -2 -15 -10t-17 -9q13 -4 22 -13zM350 97
q0 -9 18 -27q2 10 4 13q-1 1 -13 10q-2 5 -7 5z" />
    <glyph glyph-name="f.medx5y1" horiz-adv-x="558" 
d="M601 471q24 0 37.5 -15t13.5 -39q0 -36 -28 -77q-40 -60 -172 -147l-40 -26l-21 -71q12 -12 36 -28.5t40 -23.5q51 -22 91 -22q11 0 11 -10q0 -11 -11 -11q-18 0 -32 1t-28 5l-22.5 6.5t-22.5 10t-20.5 11.5l-24.5 15l-26 16l-6 -23q7 -7 14 -16.5l15 -20.5t12 -17
q88 -115 88 -206q0 -42 -22 -74.5t-63 -32.5q-49 0 -74 44t-27 98v18q0 88 27 198q-1 2 -8.5 10t-10 11.5l-8 11t-8 12.5t-5 12t-3.5 13l-74 -35.5l-88 -42.5t-71 -40q-67 -45 -70 -45q-11 0 -11 10q0 5 3 8t12 9l20 13.5l14 9.5q48 33 147 80.5t117 57.5q4 2 28 15t36 21
l22 15q64 191 154 266q31 25 59 25zM421 -294q28 0 40.5 24.5t12.5 55.5q0 85 -105 220q-1 -2 -1 -5q-21 -118 -21 -170q0 -42 18.5 -83.5t55.5 -41.5zM424 205q121 85 161 135q29 36 29 63q0 26 -17 26q-34 0 -68.5 -43t-59.5 -91q-37 -69 -45 -90zM367 114q6 22 10 32
q-2 -2 -15 -10t-17 -9q13 -4 22 -13zM337 97q0 -9 18 -27q3 10 4 13q-1 1 -13 10q-2 5 -7 5z" />
    <glyph glyph-name="f.finx1" horiz-adv-x="436" 
d="M445 471q22 0 36 -14t14 -37q0 -38 -29.5 -82t-62 -73.5t-83 -71.5t-65.5 -56l-12 -11l-8 -28q68 -50 129 -62q30 -5 37 -5q24 0 35 1q1 0 3 0.5t4 0.5q9 0 9 -8q-8 -16 -27 -16q-113 0 -199 59q-4 -13 -5 -22q131 -171 131 -263q0 -43 -24.5 -75.5t-65.5 -32.5
q-52 0 -75.5 45t-23.5 102q0 100 28 215l-23 27q-93 -63 -169 -63q-11 0 -11 11q0 10 11 10q63 0 156 65q-5 10 -5 20q0 24 25 24q6 0 15.5 -3.5t10.5 -3.5l17 15q65 219 168 307q29 25 59 25zM266 -294q28 0 41.5 25t13.5 56q0 90 -108 223l-2 -9q-20 -106 -20 -163
q0 -27 5.5 -54.5t23.5 -52.5t46 -25zM257 174q116 101 166 167q34 47 34 66q0 22 -17 22q-33 0 -75 -52.5t-69.5 -109t-38.5 -93.5zM193 82l6 -9q1 3 4 13l-3 2z" />
    <glyph glyph-name="f.finx3" horiz-adv-x="409" 
d="M418 471q24 0 37 -15t13 -39q0 -28 -19 -60.5t-43 -57t-62.5 -54t-60.5 -44t-55 -34.5q-10 -28 -21 -71l12 -8q16 -12 25 -17q25 -16 62 -28t64 -12q30 0 35 1q1 0 3 0.5t3 0.5q10 0 10 -8q-1 -1 -1 -2q-7 -14 -27 -14q-103 0 -185 51l-7 5h-1l-1 1l-6 -23l25 -32
q104 -137 104 -229q0 -42 -22.5 -74t-62.5 -32q-50 0 -75 44t-27 98v18q0 88 27 198q-1 1 -10 11.5t-12 14.5t-9 13t-8.5 16.5t-3.5 14.5q-65 -31 -121 -31q-10 0 -10 11t11 11q36 0 78 16.5t60.5 27.5t67.5 43q65 188 154 264q29 25 59 25zM237 -294q28 0 40.5 24.5
t12.5 55.5q0 85 -105 220q0 -1 -0.5 -2.5t-0.5 -2.5q-21 -105 -21 -170q0 -42 18.5 -83.5t55.5 -41.5zM241 207l54.5 38t57.5 45t57.5 60t19.5 53q0 26 -17 26q-34 0 -68.5 -43t-59.5 -91q-36 -70 -44 -88zM183 114q5 14 10 32q0 -1 -7 -5l-14.5 -8.5t-9.5 -5.5
q13 -5 21 -13zM171 70l4 13q-14 14 -18 14h-3v-2q0 -2 3.5 -7t8 -10.5t5.5 -7.5z" />
    <glyph glyph-name="f.finx4" horiz-adv-x="360" 
d="M372 471q22 0 36 -14t14 -37q0 -40 -28 -80q-45 -66 -212 -173l-1 -3q-4 -16 -20 -68q87 -65 163 -65q30 0 35 1q1 0 3 0.5t4 0.5q9 0 9 -5q0 -9 -8.5 -14t-18.5 -5q-60 0 -101 12t-92 44h-1l-1 1l-6 -23l9 -12q37 -49 57 -78.5t41.5 -79t21.5 -90.5q0 -42 -22.5 -74.5
t-62.5 -32.5q-52 0 -77 47.5t-25 104.5q0 98 27 206q-43 52 -43 73q0 6 3 12q-13 -1 -25 0.5t-31 6.5t-24 6h-1q-7 3 -7 10q0 10 11 10q4 0 6 -1q36 -12 64 -12q36 0 88 35q64 193 156 272q29 25 59 25zM192 -294q28 0 40.5 24.5t12.5 55.5q0 86 -106 220l-1 -5
q-20 -108 -20 -163q0 -27 5.5 -54.5t23 -52.5t45.5 -25zM192 198q14 10 41 32l41 33q111 85 111 140q0 26 -18 26q-31 0 -71 -48.5t-64.5 -96.5t-39.5 -86zM138 114l9 31q-27 -15 -32 -17q16 -8 23 -14zM126 70l3 13l-5 5q-9 9 -13 9l-1 1q-2 0 -2 -2q0 -8 18 -26z" />
    <glyph glyph-name="f.finx1b" horiz-adv-x="604" 
d="M614 471q24 0 37.5 -15t13.5 -39q0 -36 -28 -77q-39 -58 -171 -147q-4 -2 -18.5 -11.5l-22.5 -14.5l-21 -71q1 -1 3 -2.5t4.5 -3t3.5 -2.5q62 -42 114 -52q30 -5 37 -5q30 0 36 1q1 0 3 0.5t3 0.5q9 0 9 -6q0 -18 -27 -18q-56 0 -97 11t-88 40l-7 5h-1l-1 1l-6 -23
l25 -32q103 -136 103 -228q0 -42 -22 -74.5t-63 -32.5q-49 0 -74 44t-27 98v18q0 88 27 198q-1 2 -8.5 10t-10 11.5l-8 11t-8 12.5t-5 12t-3.5 13q-78 -39 -168.5 -71t-148.5 -32q-11 0 -11 11q0 10 11 10q29 0 85 15q163 46 293 128l24 16q67 192 154 265q31 25 59 25z
M434 -294q28 0 40.5 24.5t12.5 55.5q0 85 -105 220q-1 -2 -1 -5q-21 -118 -21 -170q0 -42 18.5 -83.5t55.5 -41.5zM438 205q3 2 20.5 14.5l25.5 18.5l26.5 19.5t28.5 23t26 23.5t25 25.5l18.5 24.5t14 25.5t4.5 23.5q0 26 -17 26q-34 0 -68.5 -43t-59.5 -91q-37 -69 -44 -90
zM380 114l10 32q-2 -2 -15 -10t-17 -9q14 -5 22 -13zM368 70l4 13q-14 14 -18 14h-3v-2q0 -2 7 -12t10 -13z" />
    <glyph glyph-name="f.finx5" horiz-adv-x="592" 
d="M-11 -49q0 5 3 8q6 6 46 32q49 32 146.5 80t116.5 58q56 30 86 51q66 192 154 266q29 25 60 25q23 0 36.5 -15t13.5 -39q0 -34 -28 -77q-39 -58 -164 -142q-39 -24 -48 -31l-21 -71q1 -1 3 -2.5t4.5 -3t3.5 -2.5q61 -42 115 -52q27 -5 36 -5q30 0 36 1q1 0 3 0.5t3 0.5
q10 0 10 -8q-1 -1 -1 -2q-7 -14 -27 -14q-103 0 -185 51l-7 5h-1l-1 1l-6 -23l25 -32q103 -136 103 -228q0 -42 -22 -74.5t-63 -32.5q-49 0 -74 44t-27 98v18q0 88 27 198q-2 2 -9 10t-9.5 11.5l-8 11t-8 12.5t-5 12t-3.5 13q-24 -12 -74 -35t-88 -42.5t-71 -40.5
q-67 -45 -69 -45q-11 0 -11 10zM420 -294q28 0 40.5 24.5t12.5 55.5q0 85 -105 220q-1 -2 -1 -5q-21 -118 -21 -170q0 -42 18.5 -83.5t55.5 -41.5zM423 205q114 79 154 125q36 42 36 73q0 26 -17 26q-34 0 -68.5 -43t-59.5 -91q-37 -69 -45 -90zM366 114l10 32l-31 -19
q13 -5 21 -13zM337 95q0 -2 7 -12t10 -13l4 13q-14 14 -18 14h-3v-2z" />
    <glyph glyph-name="g.iniy5" horiz-adv-x="215" 
d="M244 114q32 0 34 -52q2 -46 2 -69q0 -119 -44.5 -241t-119.5 -183q-27 -24 -63 -24q-41 0 -65 26t-24 67q0 52 36.5 112t88.5 110q43 41 57 52q56 50 69 50q11 0 11 -12q0 -4 -6 -8q-27 -19 -75 -65q-149 -142 -149 -236q0 -27 15 -45t42 -18q42 0 78 43q111 143 124 371
q0 5 0.5 13.5t0.5 12.5q0 58 -20 58q-8 0 -18 -6q2 -14 2 -21q0 -26 -17 -26q-9 0 -9 28q-3 -2 -19 -15t-23 -18t-21 -13.5t-25.5 -12t-23.5 -3.5q-74 0 -74 63q0 46 37 100t81 54q33 0 56 -32t31 -70q17 10 31 10zM83 23q16 0 33 7.5t24.5 12.5t29 24t22.5 20
q-4 28 -23 54.5t-44 26.5q-29 0 -55 -38t-26 -70q0 -37 39 -37z" />
    <glyph glyph-name="g.medx1y5" horiz-adv-x="416" 
d="M419 -60q-2 -2 -11.5 -8.5t-25 -20t-36.5 -34.5q-31 -31 -50.5 -52.5t-46 -55.5t-40.5 -67t-14 -63q0 -27 15 -43.5t42 -16.5q46 0 77 40q113 145 126 373q0 5 0.5 13.5t0.5 12.5q0 58 -20 58q-6 0 -18 -7q2 -14 2 -22q0 -24 -17 -24q-9 0 -9 28q-3 -2 -19 -15.5t-23 -18
l-21 -13t-26 -12t-25 -3.5q-72 0 -72 62q0 14 3 26q-109 -76 -201 -76q-22 0 -22 11q0 10 10 10q27 0 48 4q37 6 84.5 28.5t76.5 47.5l19 17q14 32 42 59.5t58 27.5q33 0 56 -32t31 -70q17 10 31 10q32 0 34 -52q2 -46 2 -69q0 -118 -45.5 -241.5t-119.5 -184.5
q-25 -22 -63 -22q-40 0 -64 25.5t-24 65.5q0 66 55.5 141.5t127.5 134.5q56 50 69 50q11 0 11 -12q0 -5 -8 -10zM283 23q16 0 33 7.5t24.5 12.5t29 24t22.5 20q-4 29 -22.5 55t-43.5 26q-30 0 -56 -38t-26 -70q0 -37 39 -37z" />
    <glyph glyph-name="g.medx3y5" horiz-adv-x="346" 
d="M374 113q29 0 34 -52q2 -22 2 -67q0 -118 -45 -242t-119 -185q-28 -22 -64 -22q-39 0 -63 25.5t-24 64.5q0 66 55.5 142.5t126.5 134.5q1 1 13 10.5l21.5 17.5t20.5 15t14 7q10 0 10 -11q0 -5 -4 -8q-225 -181 -225 -303q0 -28 14.5 -44t41.5 -16q46 0 76 40
q113 142 126 371q1 9 1 26q0 59 -18 59q-10 0 -20 -7q2 -14 2 -22q0 -24 -17 -24q-9 0 -9 16v5l-1 7q-2 -1 -11 -9t-11.5 -10l-11 -9t-12.5 -9.5l-12 -7.5t-13.5 -7t-13 -5t-15 -4t-14.5 -1q-71 0 -71 62q0 30 15 62q-79 -40 -154 -40q-11 0 -11 11t11 11q75 0 176 58
q39 53 81 53q32 0 55.5 -32.5t31.5 -69.5q13 9 31 9zM213 23q11 0 22 3t18.5 6.5t19 12t16.5 13l17 15.5t15 14q-5 30 -22 55.5t-44 25.5q-31 0 -56 -37.5t-25 -70.5q0 -37 39 -37z" />
    <glyph glyph-name="g.medx4y5" horiz-adv-x="299" 
d="M299 -38q11 0 11 -11q0 -6 -5 -9q-19 -13 -76 -65q-148 -134 -148 -236q0 -28 14.5 -45.5t41.5 -17.5q44 0 79 42q109 138 122 372q0 5 0.5 13.5t0.5 12.5q0 58 -20 58q-6 0 -18 -7q2 -14 2 -22q0 -24 -17 -24q-10 0 -10 28q-2 -2 -15.5 -13t-18.5 -14.5l-17.5 -12.5
t-20.5 -12t-19 -6.5t-21 -3.5q-74 0 -74 63q0 26 17 64q-18 0 -27 1q-28 1 -61 8l-23 7h-2q-6 6 -6 10q0 10 11 10q4 0 6 -1q40 -12 81 -12q11 0 35 2q39 65 88 65q33 0 54.5 -31t32.5 -71q13 10 31 10q29 0 34 -52q2 -22 2 -67q0 -121 -43.5 -246t-117.5 -181
q-31 -23 -65 -23q-40 0 -65 25.5t-25 66.5q0 53 36.5 113.5t88.5 110.5q31 31 74.5 66t52.5 35zM166 23q13 0 24.5 3.5t24.5 12t19.5 13.5t21.5 18.5t18 16.5q-4 29 -22.5 55t-43.5 26q-30 0 -55.5 -38t-25.5 -70q0 -37 39 -37z" />
    <glyph glyph-name="h.medx1y1" horiz-adv-x="543" 
d="M394 155q29 0 58 -42q42 -59 56 -72q17 -16 36 -19q11 -2 11 -10q0 -11 -11 -11q-14 0 -26.5 4.5t-24.5 15.5t-18 17.5t-18.5 24l-15.5 21.5q-2 3 -9.5 13.5t-11 14.5t-11.5 8.5t-18 4.5q-20 0 -46.5 -33.5t-56 -66.5t-57.5 -33q-49 0 -63 93q-36 -32 -83.5 -58.5
t-85.5 -26.5q-11 0 -11 11t11 11q16 0 39 9q66 28 128 86v8q0 64 18.5 139.5t48.5 129.5q14 26 36 49t45 23q34 0 34 -63q0 -108 -87 -224q-24 -32 -54 -60l-10 -10q-1 -23 8 -53.5t27 -30.5t44.5 32.5t57.5 65t60 32.5zM305 426q-21 0 -50 -54q-56 -100 -59 -225
q47 52 86.5 122.5t39.5 123.5q0 33 -17 33z" />
    <glyph glyph-name="h.medx3y1" horiz-adv-x="497" 
d="M347 155q20 0 40.5 -21t41.5 -52t33 -42q16 -14 36 -18q11 -2 11 -11q0 -10 -11 -10q-27 0 -50.5 19.5t-37 42.5t-31.5 42.5t-35 19.5q-20 0 -45.5 -32l-53.5 -64t-55 -32q-65 0 -70 113q-64 -37 -121 -37q-11 0 -11 11t11 11q43 0 93 24q18 9 27 15q2 63 20 135t47 125
q14 26 36 49t45 23q34 0 34 -63q0 -52 -20 -104q-40 -108 -132 -171q0 -30 8.5 -66.5t28.5 -36.5q14 0 34 20.5t37.5 44.5t42.5 44.5t47 20.5zM258 426q-21 0 -50 -54q-53 -95 -58 -216l11 9q83 67 109 189q5 22 5 39q0 33 -17 33z" />
    <glyph glyph-name="i.medx1y1" horiz-adv-x="354" 
d="M274 306q-10 0 -20 13t-10 23q0 14 18 14q11 0 17.5 -11.5t6.5 -23.5q0 -15 -12 -15zM249 192q8 0 14 -6q7 -7 7 -26q0 -77 35 -116q12 -13 20.5 -16t29.5 -6q11 -2 11 -10q0 -11 -11 -11q-50 0 -79.5 42t-32.5 95q-51 -72 -132 -112q-50 -25 -112 -25q-11 0 -11 11
q0 10 11 10q58 0 99 24q64 36 106 97q1 2 8 12.5l11.5 17t12 13t13.5 6.5z" />
    <glyph glyph-name="i.medx2y1" horiz-adv-x="354" 
d="M274 306q-11 0 -21 13t-10 23q0 14 18 14q11 0 18 -11.5t7 -22.5q0 -16 -12 -16zM249 192q5 0 10 -3q5 -2 7.5 -7.5t3 -9.5t0.5 -11.5v-9.5q6 -72 34 -107q8 -9 16.5 -13.5t13 -5.5t21.5 -3q11 -2 11 -10q0 -11 -11 -11q-51 0 -80 41.5t-32 95.5q-19 -28 -85 -65.5
t-102 -42.5q-47 -5 -58 -5q-10 0 -10 11t10 11q51 0 100 22q65 29 105 78q2 2 9 11.5l12 16t12 12t13 5.5z" />
    <glyph glyph-name="i.medx3y1" horiz-adv-x="316" 
d="M236 306q-11 0 -21 13t-10 23q0 14 18 14q11 0 18 -11.5t7 -22.5q0 -16 -12 -16zM210 194q11 0 16 -9q3 -6 6 -36q8 -75 34 -105q3 -4 6 -6.5l5.5 -4.5t6.5 -3.5t5 -2.5t6.5 -2t6.5 -1t7.5 -1t7.5 -1q11 -2 11 -10q0 -11 -11 -11q-49 0 -80 41q-14 18 -25 56t-13 65
q-63 -53 -130 -79q-31 -11 -70 -11q-11 0 -11 11t10 11q26 0 50 8q25 8 59 28q4 3 29 20.5t45.5 30t28.5 12.5z" />
    <glyph glyph-name="i.medx1by1" 
d="M439 306q-10 0 -20 13t-10 23q0 14 18 14q11 0 17.5 -11.5t6.5 -23.5q0 -15 -12 -15zM407 198q18 0 23 -13q1 -3 5 -36q8 -75 35 -105q10 -12 22 -17q3 -1 14 -2.5t18 -4t7 -8.5q0 -11 -11 -11q-47 0 -79 41q-16 21 -29 55t-14 59q-88 -60 -201 -107.5t-198 -47.5
q-11 0 -11 11q0 10 15 10q68 2 202 57q48 20 101 53q22 14 40 28q2 1 16.5 13.5t25 18.5t19.5 6z" />
    <glyph glyph-name="i.medx5y1" horiz-adv-x="537" 
d="M457 306q-10 0 -20 13t-10 23q0 14 18 14q11 0 17.5 -11.5t6.5 -23.5q0 -15 -12 -15zM426 198q16 0 22 -13q1 -3 5 -36q4 -69 35 -105q10 -12 22 -17q3 -1 14 -2.5t18 -4t7 -8.5q0 -11 -10 -11q-49 0 -80 41q-16 21 -29 55t-14 59l-245 -115q-66 -32 -102 -55
q-67 -45 -69 -45q-11 0 -11 10q0 5 3 8q4 4 46 32q29 20 107 63l198 104q75 40 83 40z" />
    <glyph glyph-name="i.finx1" horiz-adv-x="393" 
d="M274 306q-10 0 -20.5 13.5t-10.5 23.5q0 13 18 13q11 0 18 -11.5t7 -22.5q0 -16 -12 -16zM401 30q4 0 4 -6q0 -12 -16.5 -17.5t-32.5 -5.5q-52 0 -81 41t-32 96q-50 -70 -133 -112q-50 -25 -112 -25q-10 0 -10 11q0 10 10 10q58 0 100 24q63 35 106 97q1 1 10.5 17.5
t17.5 24.5t17 8t13 -6q6 -6 8 -36q9 -130 88 -130q9 0 22.5 4.5t20.5 4.5z" />
    <glyph glyph-name="i.finx2" horiz-adv-x="393" 
d="M274 306q-10 0 -20.5 13.5t-10.5 23.5q0 13 18 13q11 0 18 -12t7 -23q0 -15 -12 -15zM401 30q4 0 4 -6q0 -12 -16.5 -17.5t-32.5 -5.5q-52 0 -81 41t-32 96q-3 -5 -24 -23q-117 -90 -221 -90q-10 0 -10 11t10 11q51 0 100 23q67 30 105 78q2 2 9 11.5l12 16t12.5 12
t12.5 5.5t10 -3q5 -2 7.5 -7.5t3 -9.5t0.5 -12v-10q9 -130 88 -130q9 0 22.5 4.5t20.5 4.5z" />
    <glyph glyph-name="i.finx3" horiz-adv-x="355" 
d="M236 306q-10 0 -20.5 13.5t-10.5 23.5q0 13 18 13q11 0 18 -12t7 -23q0 -15 -12 -15zM363 30q4 0 4 -6q0 -12 -16.5 -17.5t-32.5 -5.5q-50 0 -81 41q-14 18 -25 56t-13 65q-104 -90 -200 -90q-11 0 -11 11t11 11q22 0 49 9q31 10 59 28q6 3 29.5 19.5t44.5 29.5t29 13
q13 0 17 -9q1 -2 2 -9t2 -16t1 -11q3 -26 7 -44t13 -39.5t26.5 -33t42.5 -11.5q10 0 23 4.5t19 4.5z" />
    <glyph glyph-name="i.finx1b" horiz-adv-x="558" 
d="M566 30q4 0 4 -5q0 -12 -16.5 -18t-32.5 -6q-38 0 -66 26t-40.5 59t-17.5 71q-73 -56 -195.5 -106t-202.5 -50q-11 0 -11 11q0 10 15 10q67 1 202 57q45 19 100 53l40 27q2 2 16.5 14t25 18.5t19.5 6.5q16 0 23 -13q3 -5 6 -36q12 -128 88 -128q9 0 22.5 4.5t20.5 4.5z
M439 306q-10 0 -20.5 13.5t-10.5 23.5q0 13 18 13q11 0 18 -11.5t7 -22.5q0 -16 -12 -16z" />
    <glyph glyph-name="i.finx5" horiz-adv-x="577" 
d="M458 306q-10 0 -20.5 13.5t-10.5 23.5q0 13 18 13q11 0 18 -11.5t7 -22.5q0 -16 -12 -16zM585 30q4 0 4 -6q0 -12 -16.5 -17.5t-32.5 -5.5q-38 0 -66 26t-40.5 59t-17.5 71q-16 -8 -72 -34q-144 -67 -172 -82q-99 -52 -103 -55q-67 -45 -69 -45q-11 0 -11 10q0 5 3 8
q4 4 46 32q43 29 90.5 55.5t121.5 63.5t94 48q4 2 23.5 13t35.5 19t23 8q17 0 23 -13q1 -1 5 -36q12 -128 88 -128q9 0 22.5 4.5t20.5 4.5z" />
    <glyph glyph-name="j.iniy5" horiz-adv-x="71" 
d="M131 212q14 0 19 -13q8 -23 8 -86q0 -70 -12 -161q-30 -206 -89 -303q-20 -33 -38 -52t-45 -32q-22 -10 -46 -10q-39 0 -62 28t-23 66q0 85 69 175q35 46 81 84q57 45 70 53q5 3 8 3q4 0 7.5 -3.5t3.5 -7.5t-3 -7l-11 -8q-48 -37 -76 -65q-119 -114 -119 -210
q0 -32 12.5 -54t39.5 -22q14 0 19 1q20 4 34 11t27 23.5t16.5 21.5t17.5 29q37 62 62.5 182.5t25.5 214.5q0 63 -8 96q0 1 -3.5 10.5t-3.5 14.5q0 7 6 14t13 7zM89 328q-10 0 -22 12t-12 22q0 15 19 15q10 0 18 -12t8 -23q0 -14 -11 -14z" />
    <glyph glyph-name="j.medx1y5" horiz-adv-x="262" 
d="M277 328q-10 0 -22 12t-12 22q0 15 19 15q10 0 18.5 -12.5t8.5 -23.5q0 -13 -12 -13zM322 211q11 0 16 -12q9 -27 9 -86q0 -70 -12 -161q-9 -67 -15.5 -105t-23.5 -94t-43 -97q-42 -68 -89 -90q-23 -11 -48 -11q-41 0 -61.5 32t-20.5 75q0 75 67 163q50 65 153 136
q4 3 8 3q10 0 10 -10q0 -5 -3 -8l-1 -1q-82 -66 -88 -72q-52 -49 -83.5 -104t-31.5 -100q0 -83 54 -83q5 0 15 2q34 7 55 29t47 66q40 68 60 180t20 219q0 66 -8 82q-61 -68 -140 -115.5t-157 -47.5q-23 0 -23 11q0 10 11 10q16 0 48 4q38 6 84 29q81 40 160 132
q21 24 31 24z" />
    <glyph glyph-name="j.medx3y5" horiz-adv-x="183" 
d="M198 328q-10 0 -22 12t-12 22q0 15 19 15q10 0 18.5 -12.5t8.5 -23.5q0 -13 -12 -13zM241 211q3 0 5.5 -0.5t4.5 -1.5t3.5 -3t2.5 -4t2 -4.5t1.5 -4.5t1.5 -5.5t1 -5t0.5 -5t0.5 -4.5q4 -27 4 -60q0 -63 -13 -161q-26 -198 -85 -302q-33 -58 -83 -84q-22 -11 -52 -11
q-41 0 -61.5 30.5t-20.5 72.5q0 80 68 165q62 78 154 138q5 3 8 3q10 0 10 -10q0 -5 -3 -8l-1 -1q-82 -66 -88 -72q-53 -50 -84.5 -103.5t-31.5 -96.5q0 -86 55 -86q3 0 7.5 0.5t6.5 0.5q34 8 55 29t47 67q39 70 60 183.5t21 214.5q0 63 -8 82q-36 -39 -114 -69
q-56 -22 -115 -22q-10 0 -10 11t10 11q71 0 138 37q29 16 46 31l16 16t24.5 22.5t16.5 9.5z" />
    <glyph glyph-name="j.medx1by5" horiz-adv-x="365" 
d="M345 362q0 6 6 10.5t13 4.5q10 0 18.5 -12t8.5 -23q0 -14 -12 -14q-10 0 -22 12t-12 22zM425 211q24 0 24 -98q0 -70 -12 -161q-15 -104 -34.5 -179t-58.5 -137q-30 -49 -82 -73q-19 -8 -46 -8q-35 0 -57 24t-22 69q0 48 15.5 86.5t48.5 85.5q35 48 85 88q53 42 71 53
q5 3 8 3q11 0 11 -11q0 -5 -4 -8q-7 -5 -86 -69q-53 -48 -86 -107t-33 -108q0 -75 53 -75q23 0 41 7t33.5 25.5t21 26.5t19.5 33q39 69 60.5 181.5t21.5 213.5q0 62 -7 91q-72 -54 -203.5 -108.5t-207.5 -54.5q-11 0 -11 11q0 10 15 10q70 2 201 57q56 23 116 58
q36 22 64 47q4 3 11 9.5t11 9.5q10 8 19 8z" />
    <glyph glyph-name="j.medx5y5" horiz-adv-x="395" 
d="M410 328q-10 0 -22 12t-12 22q0 15 19 15q10 0 18.5 -12.5t8.5 -23.5q0 -13 -12 -13zM453 212q14 0 18 -13q9 -27 9 -86q0 -70 -12 -161q-30 -207 -85 -297q-40 -69 -87 -89q-22 -11 -51 -11q-38 0 -58 31t-20 72q0 82 69 165q70 85 151 138q5 3 8 3q10 0 10 -10
q0 -5 -3 -8l-1 -1q-76 -61 -87 -72q-117 -112 -117 -206q0 -30 12 -55t39 -25q41 0 67 23.5t50 67.5q38 68 61 187.5t23 223.5q0 59 -8 75q-11 -2 -45 -18q-31 -13 -91 -41l-133 -64q-66 -32 -102 -55q-67 -45 -70 -45q-11 0 -11 10q0 5 3 8q5 5 24.5 18t21.5 14
q32 23 68.5 42.5t92.5 45.5t73 35q128 62 146 78q25 20 35 20z" />
    <glyph glyph-name="j.finx1" horiz-adv-x="478" 
d="M277 328q-10 0 -22 12t-12 22q0 15 19 15q10 0 18.5 -12.5t8.5 -23.5q0 -13 -12 -13zM475 61q15 0 15 -11q0 -2 -2 -6q-7 -9 -26 -14q-53 -15 -125 -55q0 -7 -2 -23q-23 -177 -84 -293q-23 -44 -59 -74t-79 -30q-37 0 -59 31t-22 69q0 76 56 154t141 131q66 40 82 48
q0 12 2.5 44t2.5 50q0 66 -8 82q-61 -68 -140 -115.5t-157 -47.5q-23 0 -23 11q0 10 11 10q27 0 48 4q36 6 84 29q80 39 160 132q21 24 31 24q11 0 16 -12q9 -26 9 -86q0 -53 -5 -98q0 -2 -0.5 -5t-0.5 -5q104 56 134 56zM114 -411q73 0 115 85q60 121 78 283
q-12 -8 -46 -28.5t-51 -34.5q-147 -113 -147 -237q0 -27 13 -47.5t38 -20.5z" />
    <glyph glyph-name="j.finx3" horiz-adv-x="399" 
d="M199 328q-10 0 -22 12t-12 22q0 14 18 14q10 0 18.5 -11.5t8.5 -22.5q0 -14 -11 -14zM397 61q14 0 14 -10q0 -3 -2 -7q-7 -9 -25 -14q-49 -14 -125 -55q-10 -76 -16.5 -116t-25.5 -102.5t-46 -105.5q-25 -40 -61 -68.5t-76 -28.5t-60.5 31.5t-20.5 74.5q0 73 55.5 149
t141.5 130q71 44 82 49q5 55 5 101q0 59 -8 75q-14 -18 -49 -38t-64 -31q-56 -22 -115 -22q-11 0 -11 11t11 11q66 0 138 37q22 10 46 31l16 16t24.5 22.5t16.5 9.5q3 0 5.5 -0.5t4.5 -1.5t3.5 -3t2.5 -4t2 -4.5t1.5 -4.5t1.5 -5.5t1 -5t0.5 -5t0.5 -4.5q3 -20 3 -60
q0 -90 -6 -108q112 56 135 56zM35 -413q70 0 118 93q55 105 76 277q-71 -43 -98 -63q-147 -113 -147 -236q0 -28 12.5 -49.5t38.5 -21.5z" />
    <glyph glyph-name="j.finx1b" horiz-adv-x="580" 
d="M379 328q-10 0 -22 12t-12 22q0 15 19 15q10 0 18.5 -12.5t8.5 -23.5q0 -13 -12 -13zM577 61q15 0 15 -11q0 -2 -2 -6q-8 -9 -26 -14q-49 -14 -125 -55q-32 -215 -104 -329q-22 -36 -55.5 -63t-70.5 -27t-55.5 29.5t-18.5 67.5q0 80 55 157.5t140 129.5q5 3 25 14
l36.5 20.5t20.5 13.5q5 45 5 80q0 60 -7 96q-76 -55 -205 -109t-207 -54q-10 0 -10 11q0 10 14 10q70 1 202 57q56 23 116 58q29 17 86 66q10 8 19 8q24 0 24 -98q0 -18 -5 -98q0 -1 -0.5 -4.5t-0.5 -5.5q104 56 134 56zM211 -409q55 0 105 81q32 49 58.5 130.5t34.5 154.5
q-12 -8 -46 -28.5t-51 -34.5q-65 -50 -106 -113t-41 -126q0 -25 11.5 -44.5t34.5 -19.5z" />
    <glyph glyph-name="j.finx5" horiz-adv-x="611" 
d="M411 328q-10 0 -22 12t-12 22q0 15 19 15q10 0 18 -12t8 -23q0 -14 -11 -14zM609 61q14 0 14 -10q0 -3 -2 -7q-7 -9 -25 -14q-49 -14 -125 -55q-29 -212 -91 -320q-24 -42 -60 -71t-76 -29q-39 0 -59 30.5t-20 71.5q0 76 56 153t141 130q56 35 82 48q5 57 5 104
q0 56 -8 72q-16 -3 -66 -27q-68 -30 -204 -96q-66 -32 -102 -55q-67 -45 -69 -45q-11 0 -11 10q0 5 3 8q5 5 24.5 18t21.5 14q41 28 106 61l193 94q66 33 81 46q25 20 35 20q14 0 19 -13q8 -23 8 -86l-6 -108q104 56 135 56zM247 -413q67 0 114 89q60 113 80 281
q-71 -43 -98 -63q-147 -113 -147 -237q0 -26 13 -48t38 -22z" />
    <glyph glyph-name="k.iniy1" horiz-adv-x="524" 
d="M354 67q0 -9 35 -24q53 -21 136 -21q11 0 11 -10q0 -11 -11 -11q-57 0 -96 7t-80 30q-28 17 -28 33q0 12 11.5 17.5t25 6t25 4.5t11.5 15q0 13 -16 13q-19 0 -40.5 -21t-39 -46.5t-41.5 -46.5t-46 -21q-47 0 -62 93q-108 -84 -165 -84q-34 0 -34 18q0 3 3 5q4 2 29 2
q20 2 36 7q51 17 129 84v9q0 64 18.5 139.5t47.5 129.5q14 26 36.5 49t44.5 23q35 0 35 -65q0 -126 -113 -252q-12 -14 -38 -40q-1 -23 8 -54t27 -31q14 0 34.5 21t39 46t44.5 46t49 21q16 0 28 -11.5t12 -28.5q0 -21 -15 -32t-32 -14t-18 -4zM288 426q-24 0 -52 -53
q-57 -104 -59 -226q47 51 88 121.5t41 123.5q0 34 -18 34z" />
    <glyph glyph-name="k.medx1y1" horiz-adv-x="543" 
d="M374 66q0 -8 34 -23q53 -21 137 -21q10 0 10 -10q0 -11 -10 -11q-111 0 -177 37q-28 16 -28 33q0 13 11.5 18t25.5 5t25.5 4.5t11.5 15.5q0 13 -16 13q-19 0 -41 -21t-39.5 -46.5t-41 -46.5t-45.5 -21q-48 0 -63 93q-107 -84 -165 -84q-15 0 -15 11q0 8 11 10q20 3 35 8
q60 22 132 86v9q0 64 18.5 140t48.5 130q14 26 36.5 49t44.5 23q34 0 34 -63q0 -79 -42.5 -155t-108.5 -139q-1 -23 8 -54t27 -31q14 0 34.5 21t39 46t44.5 46t49 21q17 0 28.5 -11.5t11.5 -27.5q0 -22 -15 -33t-31.5 -14t-17.5 -4q-1 -2 -1 -3zM307 426q-22 0 -52 -53
q-56 -100 -59 -227q47 51 88 122.5t41 124.5q0 33 -18 33z" />
    <glyph glyph-name="k.medx3y1" horiz-adv-x="507" 
d="M338 66q0 -8 34 -23q53 -21 137 -21q10 0 10 -10q0 -11 -10 -11q-112 0 -177 37q-28 16 -28 33q0 16 18.5 20t37 7t18.5 16t-16 13q-19 0 -41 -21t-39.5 -46.5t-41 -46.5t-45.5 -21t-37.5 22.5t-21 46.5t-6.5 47q-70 -35 -132 -35q-10 0 -10 11t10 11q73 0 132 36
q2 65 20 137.5t47 126.5q14 26 36 49t44 23q36 0 36 -67q0 -82 -45 -155q-54 -86 -108 -120q0 -29 8.5 -64.5t27.5 -35.5q14 0 34.5 21t39 46t44.5 46t49 21q17 0 29 -12t12 -28q0 -21 -15.5 -32t-32 -14t-17.5 -4zM271 426q-22 0 -52 -53q-54 -97 -59 -220
q49 42 89.5 111.5t40.5 127.5q0 34 -19 34z" />
    <glyph glyph-name="k.medx1by1" horiz-adv-x="694" 
d="M525 66q0 -8 34 -23q53 -21 136 -21q11 0 11 -10q0 -11 -11 -11q-58 0 -97 7t-79 30q-28 16 -28 33q0 12 11.5 17.5t25 6t25 4.5t11.5 15q0 13 -16 13q-19 0 -40.5 -21t-38.5 -46.5t-41 -46.5t-46 -21q-19 0 -32.5 14.5t-20 37t-9.5 43t-3 37.5q-67 -47 -159 -85
t-159 -38q-11 0 -11 11q0 10 11 10q34 0 85 15q138 39 234 115q4 60 21.5 127.5t44.5 115.5q14 26 36.5 49t44.5 23q35 0 35 -65q0 -70 -44 -137.5t-109 -118.5q0 -121 36 -121q14 0 34.5 21t39 46t44.5 46t49 21q17 0 28.5 -11.5t11.5 -27.5q0 -21 -15 -32.5t-32 -14.5
t-17 -4zM456 426q-22 0 -50 -53q-47 -86 -57 -196q49 45 86.5 104t37.5 113q0 32 -17 32z" />
    <glyph glyph-name="k.medx5y1" horiz-adv-x="641" 
d="M471 67q0 -9 35 -24q53 -21 136 -21q11 0 11 -10q0 -11 -11 -11q-59 0 -97 7t-79 30q-28 17 -28 33t18 20t36.5 7t18.5 16t-16 13q-19 0 -40.5 -21t-39 -46.5t-41.5 -46.5t-46 -21q-64 0 -64 126q-91 -50 -199 -130l-59 -45q-4 -2 -6 -2q-11 0 -11 10q0 5 3 8q9 9 41 33
q100 74 232 153q10 149 66 250q14 26 36.5 49t44.5 23q34 0 34 -63q0 -94 -69 -191q-29 -40 -83 -82q0 -106 35 -106q14 0 34.5 21t39 46t44.5 46t49 21q17 0 29 -12t12 -28q0 -21 -15 -31.5t-32 -14t-18 -4.5zM403 426q-22 0 -50 -53q-50 -93 -57 -211q51 39 87.5 106
t36.5 126q0 32 -17 32z" />
    <glyph glyph-name="k.finx1" horiz-adv-x="561" 
d="M558 25q15 0 15 -7q0 -16 -46 -16q-95 0 -159 36q-8 4 -17.5 13.5t-10.5 16.5v3q0 16 18 20t36.5 7t18.5 16t-16 13q-19 0 -40.5 -21t-39 -46.5t-41 -46.5t-45.5 -21q-49 0 -63 93q-108 -84 -165 -84q-15 0 -15 11q0 8 11 10q20 3 35 8q60 22 132 86v9q0 65 18.5 140
t48.5 130q14 26 36 49t44 23q35 0 35 -65q0 -77 -43 -153t-108 -139q-1 -23 8 -54t27 -31q14 0 35 21t39 46t44 46t49 21q17 0 28.5 -11.5t11.5 -27.5q0 -21 -15 -32t-32 -14.5t-18 -4.5l-1 -2q0 -9 35 -24q50 -20 95 -20q9 0 27.5 1t27.5 1zM307 426q-24 0 -52 -53
q-57 -104 -59 -227q47 52 88 122.5t41 123.5q0 34 -18 34z" />
    <glyph glyph-name="k.finx3" horiz-adv-x="526" 
d="M523 25q15 0 15 -6q0 -17 -47 -17q-96 0 -159 36q-28 16 -28 33q0 16 18.5 20t37 7t18.5 16t-16 13q-19 0 -41 -21t-39.5 -46.5t-41 -46.5t-45.5 -21q-32 0 -47 37.5t-17 78.5q-70 -35 -133 -35q-10 0 -10 11t10 11q71 0 132 36q2 65 20 137.5t47 126.5q14 26 36 49
t44 23q36 0 36 -67q0 -82 -45 -155q-54 -86 -108 -120q0 -29 8.5 -64.5t27.5 -35.5q14 0 34.5 21t39 46t44.5 46t49 21q17 0 29 -12t12 -28q0 -21 -15.5 -32t-32 -14t-17.5 -4l-1 -3q0 -8 34 -23q50 -20 95 -20q10 0 28.5 1t27.5 1zM271 426q-22 0 -52 -53q-54 -97 -59 -220
q49 42 89.5 111.5t40.5 127.5q0 34 -19 34z" />
    <glyph glyph-name="k.finx1b" horiz-adv-x="713" 
d="M710 25q15 0 15 -7q0 -16 -47 -16q-96 0 -159 36q-8 4 -17 13t-11 17v3q0 16 18.5 20t37 7t18.5 16t-16 13q-19 0 -41 -21t-39.5 -46.5t-41.5 -46.5t-45 -21q-19 0 -32.5 14.5t-19.5 37t-9 42.5t-3 38q-67 -47 -159.5 -85t-159.5 -38q-11 0 -11 11q0 10 11 10q33 0 86 15
q139 39 233 115q4 60 21.5 127.5t44.5 115.5q14 26 36.5 49t44.5 23q35 0 35 -65q0 -48 -17 -85t-53 -89q-29 -40 -83 -82q0 -121 36 -121q14 0 34.5 21t39 46t44.5 46t49 21q17 0 29 -12t12 -28q0 -21 -15.5 -32t-32.5 -14t-17 -4l-1 -3q0 -8 34 -23q50 -20 96 -20
q9 0 27.5 1t27.5 1zM457 426q-21 0 -51 -53q-46 -84 -57 -196q50 44 87 102.5t37 114.5q0 32 -16 32z" />
    <glyph glyph-name="k.finx5" horiz-adv-x="659" 
d="M265 152q4 60 21 127.5t44 115.5q14 26 36.5 49t44.5 23q35 0 35 -65q0 -49 -17 -86t-53 -88q-28 -40 -82 -81v-14q0 -12 1 -26.5t4 -35t11 -33.5t19 -13q14 0 34.5 21t39 46t44.5 46t49 21q17 0 29 -12t12 -28q0 -21 -14.5 -32t-32 -14t-18.5 -4l-1 -2q0 -9 34 -24
q46 -20 96 -20q9 0 27.5 1t27.5 1q15 0 15 -7q0 -16 -47 -16q-68 0 -105 12q-21 6 -53 24q-29 16 -29 34q0 8 12 16q6 4 22.5 5.5t28 5.5t11.5 15q0 13 -16 13q-19 0 -41 -21t-39.5 -46.5t-41.5 -46.5t-45 -21q-25 0 -40.5 26.5t-19.5 53.5t-4 53q-27 -15 -56.5 -34.5
l-44.5 -30l-52.5 -38.5l-45.5 -34l-59 -45q-4 -2 -6 -2q-11 0 -11 10q0 5 3 8q9 9 41 33q146 109 232 160zM403 426q-22 0 -50 -53q-46 -83 -58 -195q50 44 87.5 102.5t37.5 114.5q0 31 -17 31z" />
    <glyph glyph-name="l.finx5" horiz-adv-x="579" 
d="M546 24q1 0 7 0.5t12 0.5h12t10 -2t4 -5q0 -17 -38 -17q-69 0 -113.5 42t-61.5 113q-29 -22 -62 -40.5t-86.5 -44.5t-66.5 -33q-56 -28 -94 -52l-28 -19.5t-35 -23.5q-4 -2 -6 -2q-11 0 -11 10q0 5 3 8q4 4 46 32q46 31 220 120q69 36 114 70q0 5 -2 21t-2 25
q0 60 25 126.5t63 114.5q42 52 78 52q22 0 33.5 -20.5t11.5 -43.5q0 -9 -1 -13q-6 -49 -52 -127q-37 -65 -123 -139q14 -61 50.5 -107t92.5 -46zM524 481q-32 0 -70 -66q-56 -101 -56 -188q0 -15 1 -23q62 53 98 112q54 85 54 133q0 32 -27 32z" />
    <glyph glyph-name="m.iniy1" horiz-adv-x="555" 
d="M446 159q21 0 32 -18q9 -15 16.5 -46.5t20.5 -50.5t42 -22q10 -2 10 -10q0 -11 -10 -11q-34 0 -55.5 18.5t-27.5 41t-13.5 41t-18.5 18.5q-10 0 -21 -16q-59 -81 -73 -93q-12 -10 -27 -10q-22 0 -32 24q-3 10 -13.5 41.5t-17.5 48.5q-8 18 -16 18q-11 0 -34.5 -33.5
t-50.5 -67.5t-47 -34q-29 0 -29 37q0 17 8.5 50.5t8.5 48.5q0 28 -18 28q-15 0 -44.5 -18t-37.5 -18q-10 0 -10 9q0 15 37 35.5t56 20.5q22 0 34.5 -15t12.5 -37q0 -16 -10 -49.5t-10 -48.5q0 -12 6 -12q8 0 33 35.5t54.5 70.5t48.5 35q18 0 29.5 -20.5t16.5 -44.5t13 -44.5
t18 -20.5q11 0 31 30t44 59.5t44 29.5z" />
    <glyph glyph-name="m.medx1y1" horiz-adv-x="793" 
d="M684 159q20 0 31 -18q5 -7 21 -56.5t38 -58.5q4 -2 21 -4q10 -2 10 -10q0 -11 -10 -11q-34 0 -55.5 18.5t-27.5 41t-13.5 41t-18.5 18.5q-10 0 -21 -16q-2 -3 -20 -28t-31 -41t-22 -24q-12 -10 -27 -10q-22 0 -32 24q-6 15 -15.5 45t-15.5 45q-8 18 -16 18
q-11 0 -34.5 -33.5t-50.5 -67.5t-47 -34q-14 0 -22 11t-8 25q0 17 9 52.5t9 52.5q0 22 -20 22t-55.5 -25t-70 -55t-80.5 -55t-84 -25q-2 0 -7.5 -0.5t-10 -0.5t-9.5 1t-8 3.5t-3 7.5q0 10 11 10q79 0 156 60l40 33l53.5 43t40.5 26q17 7 30 7q22 0 34.5 -15t12.5 -37
q0 -16 -10 -49.5t-10 -48.5q0 -12 6 -12q9 0 33 35t53 70t50 35q18 0 30 -20t16.5 -44.5t12 -44.5t17.5 -20q7 0 23 19t34.5 46t19.5 28q20 26 43 26z" />
    <glyph glyph-name="m.medx3y1" horiz-adv-x="694" 
d="M584 159q21 0 32 -18q9 -14 16.5 -46t20.5 -51t42 -22q11 -2 11 -10q0 -11 -11 -11q-34 0 -55 18.5t-27 41t-13.5 41t-18.5 18.5q-10 0 -21 -16q-53 -75 -73 -93q-12 -10 -27 -10q-22 0 -32 24q-4 11 -14 42.5t-17 47.5q-8 18 -17 18q-11 0 -34 -33.5t-50 -67.5t-47 -34
q-29 0 -29 37q0 17 8.5 49.5t8.5 45.5q0 32 -22 32q-12 0 -60 -32q-41 -28 -85 -45q-33 -12 -70 -12q-12 0 -12 11t11 11q37 0 79 20q8 4 62.5 40t79.5 36q22 0 34 -14.5t12 -36.5q0 -18 -10 -53t-10 -50q0 -8 7 -8q8 0 32 35t53.5 70t50.5 35q18 0 29.5 -20t16 -44.5
t12.5 -44.5t18 -20q7 0 23 19t34.5 46t19.5 28q20 26 42 26z" />
    <glyph glyph-name="m.medx1by1" horiz-adv-x="890" 
d="M780 159q21 0 32 -18q5 -8 20.5 -57t37.5 -58q4 -2 21 -4q11 -2 11 -10q0 -11 -11 -11q-34 0 -55 18.5t-27 41t-14 41t-18 18.5q-11 0 -31.5 -30t-45 -59.5t-44.5 -29.5q-22 0 -32 24q-6 13 -15 44t-16 46q-8 18 -17 18q-11 0 -34 -33.5t-50 -67.5t-47 -34
q-14 0 -21.5 11t-7.5 25q0 17 8 50.5t8 49.5q0 24 -20 24q-9 0 -23 -8l-64 -39q-198 -110 -326 -110q-11 0 -11 11q0 10 15 10q65 1 203 57q43 17 100 53q5 3 30.5 21.5t46 30t32.5 12.5h7q20 0 30.5 -13.5t10.5 -34.5q0 -20 -10.5 -58t-10.5 -53q0 -8 7 -8q8 0 32 35
t53.5 70t50.5 35q17 0 29 -20t16.5 -44.5t12.5 -44.5t18 -20q7 0 23 19t34.5 46t19.5 28q20 26 42 26z" />
    <glyph glyph-name="m.medx5y1" horiz-adv-x="882" 
d="M772 159q21 0 32 -18q5 -8 20 -57t38 -58q4 -2 21 -4q11 -2 11 -10q0 -11 -11 -11q-34 0 -55.5 18.5t-27 41t-13.5 41t-19 18.5q-7 0 -20 -16l-25 -32q-4 -5 -14 -19.5t-18 -24t-17 -17.5q-12 -10 -26 -10q-23 0 -33 24q-6 14 -14.5 44.5t-15.5 45.5q-8 18 -17 18
t-25.5 -21t-33 -46.5t-37 -46.5t-35.5 -21t-22.5 10.5t-7.5 25.5q0 18 8.5 52t8.5 51q0 20 -20 20q-9 0 -23 -7q-47 -21 -193 -97q-71 -37 -118 -67q-67 -45 -70 -45q-11 0 -11 10q0 5 3 8q3 4 12 10l20 13l14 9q44 30 112 66l145 78q10 5 27.5 16t32.5 19t29 14q20 8 33 8
q38 0 38 -42q0 -20 -10.5 -59t-10.5 -55q0 -7 7 -7q8 0 32.5 35t53.5 70t49 35q22 0 35 -32.5t21.5 -64.5t20.5 -32q7 0 22.5 19t34.5 46t20 28q20 26 42 26z" />
    <glyph glyph-name="m.finx1" horiz-adv-x="826" 
d="M832 32q6 0 6 -5q0 -12 -18.5 -19t-33.5 -7q-38 0 -55 23q-19 25 -29 65q-7 23 -14 28q-3 3 -8 3q-7 0 -20 -16l-25 -32q-4 -5 -14 -19.5t-18 -24t-17 -17.5q-12 -10 -26 -10q-23 0 -33 24q-6 13 -15 44t-16 46q-8 18 -16 18q-9 0 -25.5 -21t-33 -46.5t-37 -46.5
t-35.5 -21q-14 0 -22 10.5t-8 24.5q0 18 9 53.5t9 52.5q0 22 -21 22q-20 0 -55.5 -25t-70 -55t-80 -55t-83.5 -25q-1 0 -7.5 -0.5t-11 -0.5t-9.5 1t-8 3.5t-3 7.5q0 10 11 10q77 0 156 60q7 5 45.5 38t68 52t50.5 19q22 0 34.5 -15t12.5 -37q0 -18 -10 -51.5t-10 -51.5
q0 -7 7 -7q8 0 32.5 35t53.5 70t49 35q22 0 35 -32.5t21.5 -64.5t20.5 -32q7 0 22.5 19t34.5 46t20 28q20 26 42 26q21 0 32 -18q9 -14 14.5 -45.5t17.5 -50.5t40 -21h6q6 0 19 4t19 4z" />
    <glyph glyph-name="m.finx3" horiz-adv-x="727" 
d="M733 32q6 0 6 -5q0 -12 -18.5 -19t-33.5 -7q-38 0 -55 23q-19 26 -30 65q-8 25 -13 28q-3 3 -8 3q-10 0 -21 -16q-2 -3 -20 -28t-31 -41t-22 -24q-12 -10 -27 -10q-22 0 -32 24q-4 11 -14 42.5t-17 47.5q-8 18 -17 18q-8 0 -24.5 -21t-33 -46.5t-37 -46.5t-36.5 -21
q-29 0 -29 37q0 17 8.5 49.5t8.5 45.5q0 32 -22 32q-16 0 -60 -32q-41 -28 -85 -45q-33 -12 -70 -12q-12 0 -12 11t11 11q37 0 79 20q8 4 62.5 40t79.5 36q22 0 34 -14.5t12 -36.5q0 -18 -9.5 -52.5t-9.5 -51.5q0 -7 6 -7q8 0 32.5 35t53.5 70t50 35q18 0 29.5 -20t16 -44.5
t12.5 -44.5t18 -20q7 0 23 19t34.5 46t19.5 28q19 26 42 26q21 0 32 -18q9 -14 15 -45.5t17.5 -50.5t39.5 -21h6q7 0 20 4t19 4z" />
    <glyph glyph-name="m.finx1b" horiz-adv-x="922" 
d="M928 32q6 0 6 -5q0 -12 -18.5 -19t-33.5 -7q-31 0 -50 18.5t-24.5 41t-12.5 41t-18 18.5q-10 0 -21 -16q-59 -80 -74 -93q-12 -10 -26 -10q-23 0 -33 24q-6 14 -14.5 44.5t-15.5 45.5q-8 18 -17 18t-25.5 -21t-33 -46.5t-37 -46.5t-35.5 -21q-14 0 -22 10t-8 25
q0 17 8.5 50.5t8.5 50.5q0 24 -20 24q-9 0 -23 -8q-237 -149 -390 -149q-11 0 -11 11q0 10 15 10q68 1 202 57q48 20 101 53q5 3 30.5 21.5t46 30t32.5 12.5h7q20 0 30.5 -13.5t10.5 -34.5q0 -13 -12 -63q-4 -14 -8 -44q0 -1 -0.5 -2t-0.5 -2q0 -8 7 -8q8 0 32 35t53.5 70
t50.5 35q17 0 28.5 -20t16.5 -44.5t13 -44.5t18 -20q4 0 12.5 8t19 21.5t18 24.5l17 24.5t10.5 14.5q20 26 42 26q21 0 32 -18q9 -14 15 -47t18.5 -51.5t44.5 -18.5q7 0 19.5 4t18.5 4z" />
    <glyph glyph-name="m.finx5" horiz-adv-x="914" 
d="M920 32q6 0 6 -5q0 -12 -18.5 -19t-33.5 -7q-38 0 -55 23q-19 25 -29 65q-5 23 -13 28q-5 3 -8 3q-10 0 -21 -16q-52 -74 -74 -93q-12 -10 -26 -10q-23 0 -33 24q-6 14 -14.5 44.5t-15.5 45.5q-8 18 -17 18t-25.5 -21t-33 -46.5t-37 -46.5t-35.5 -21t-22.5 10.5
t-7.5 25.5q0 18 8.5 52t8.5 51q0 20 -19 20q-10 0 -24 -7q-71 -33 -209 -107q-65 -33 -102 -57q-67 -45 -70 -45q-11 0 -11 10q0 5 3 8q4 4 46 32q50 35 129 76q24 12 68 36.5l60 33.5q79 43 87 47q18 8 34 8q39 0 39 -42q0 -20 -10.5 -59t-10.5 -54q0 -8 7 -8q8 0 32 35
t53.5 70t50.5 35q17 0 28.5 -20t16.5 -44.5t13 -44.5t18 -20q4 0 12.5 8t19 21.5l18.5 24.5l17 24.5t10 14.5q20 26 42 26q21 0 32 -18q9 -14 15 -47t18.5 -51.5t44.5 -18.5q7 0 19.5 4t18.5 4z" />
    <glyph glyph-name="n.iniy1" horiz-adv-x="366" 
d="M250 170q12 0 21.5 -11t12.5 -19.5t8 -24.5q1 -2 6.5 -20l7 -23t8.5 -18t13 -17.5t16.5 -9.5t23.5 -5q11 0 11 -10q0 -11 -11 -11q-37 0 -60.5 20.5t-31 45.5t-16 45.5t-18.5 20.5t-33.5 -33.5t-51 -67.5t-46.5 -34q-14 0 -21.5 11t-7.5 25q0 17 8 50.5t8 49.5
q0 28 -17 28q-15 0 -45 -18t-37 -18q-10 0 -10 8q0 15 37 36t56 21q22 0 34 -14.5t12 -36.5q0 -18 -10 -53t-10 -50q0 -8 7 -8q1 0 2 1h2q19 18 49 61t48 61t35 18z" />
    <glyph glyph-name="n.medx1y1" horiz-adv-x="605" 
d="M489 170q25 0 42 -55q1 -3 4 -14t4 -15t4.5 -13.5t6 -13.5l7 -11.5t9 -11t10.5 -7.5t13.5 -5.5t16.5 -1.5q11 0 11 -10q0 -11 -11 -11q-30 0 -51.5 13.5t-31 33t-16 39t-13 33t-14.5 13.5q-11 0 -34.5 -33.5t-50.5 -67.5t-47 -34q-29 0 -29 37q0 17 8.5 50.5t8.5 48.5
q0 28 -18 28q-20 0 -56 -25t-71 -55.5t-81 -55.5t-84 -25q-2 0 -8 -0.5t-10 -0.5t-9 1t-8 3.5t-3 7.5q0 10 11 10q79 0 156 60l40 33l53.5 43t40.5 26q17 7 30 7q22 0 34.5 -15t12.5 -37q0 -16 -10 -49.5t-10 -48.5q0 -12 7 -12q8 0 32.5 35.5t53.5 70.5t50 35z" />
    <glyph glyph-name="n.medx3y1" horiz-adv-x="504" 
d="M387 170q27 0 43 -55q1 -4 6 -21t7 -22.5t8 -18t12.5 -17.5t17.5 -9.5t24 -4.5q11 0 11 -10q0 -11 -11 -11q-37 0 -61 20.5t-31 45.5t-15.5 45.5t-18.5 20.5q-11 0 -34.5 -33.5t-50.5 -67.5t-47 -34q-29 0 -29 37q0 17 8.5 50.5t8.5 48.5q0 26 -18 26q-14 0 -47.5 -22
t-79 -43.5t-91.5 -21.5q-11 0 -11 11t11 11q36 0 78 20q14 7 43 27t55 34.5t43 14.5q22 0 34.5 -15t12.5 -37q0 -16 -10 -49.5t-10 -48.5q0 -12 6 -12q9 0 33.5 35.5t53.5 70.5t49 35z" />
    <glyph glyph-name="n.medx1by1" horiz-adv-x="699" 
d="M583 170q26 0 43 -55q1 -3 4.5 -15.5t4.5 -17t5 -15t7.5 -15l9 -12t11.5 -10.5t14.5 -5.5t18.5 -2.5t10 -10q0 -11 -10 -11q-37 0 -61 20.5t-31 45.5t-15.5 45.5t-18.5 20.5q-11 0 -34 -33.5t-50.5 -67.5t-47.5 -34q-29 0 -29 37q0 17 8.5 50.5t8.5 48.5q0 22 -20 22
q-9 0 -25.5 -8t-37 -21.5t-24.5 -15.5q-196 -110 -326 -110q-10 0 -10 11q0 10 14 10q71 1 203 57q51 21 171 97q20 13 39 13q21 0 33.5 -14t12.5 -36q0 -16 -10 -50t-10 -48q0 -12 6 -12q9 0 33.5 35.5t53.5 70.5t49 35z" />
    <glyph glyph-name="n.medx5y1" horiz-adv-x="701" 
d="M585 170q27 0 43 -55q2 -5 6 -21t6.5 -22.5t8.5 -18.5t12.5 -17t17 -9.5t24.5 -4.5q10 0 10 -10q0 -11 -10 -11q-37 0 -61 20.5t-31 45.5t-15.5 45.5t-18.5 20.5q-11 0 -34 -33.5t-50.5 -67.5t-47.5 -34q-14 0 -21.5 10.5t-7.5 25.5q0 17 8 50.5t8 49.5q0 22 -19 22
q-10 0 -30 -8t-49 -23.5t-30 -15.5q-165 -79 -235 -123q-67 -45 -69 -45q-11 0 -11 10q0 5 3 8q6 6 46 32q35 24 124 70l217 114q21 12 40 12q21 0 32.5 -13t11.5 -34q0 -16 -10 -50.5t-10 -48.5q0 -12 6 -12q1 0 3 1h1q18 18 48 61t49 61q18 18 35 18z" />
    <glyph glyph-name="n.finx1" horiz-adv-x="631" 
d="M637 32q6 0 6 -5q0 -12 -18.5 -19t-33.5 -7q-38 0 -55 23q-12 17 -24 50.5t-15 40.5q-8 18 -17 18t-25.5 -21t-33 -46.5t-37 -46.5t-35.5 -21q-14 0 -22 10t-8 25q0 17 8.5 50.5t8.5 50.5q0 28 -18 28q-20 0 -56 -25t-71 -55.5t-81 -55.5t-83 -25q-1 0 -7.5 -0.5
t-11 -0.5t-9.5 1t-8 3.5t-3 7.5q0 10 11 10q77 0 156 60l45 38.5t68.5 52t51.5 18.5t34 -14.5t12 -36.5q0 -17 -10 -52t-10 -51q0 -8 7 -8q8 0 32.5 35.5t54 70.5t49.5 35q25 0 42 -55q2 -7 7 -29.5t8.5 -31.5t15.5 -19t30 -11h6q7 0 20 4t19 4z" />
    <glyph glyph-name="n.finx3" horiz-adv-x="530" 
d="M536 32q6 0 6 -5q0 -12 -18.5 -19t-33.5 -7q-38 0 -55 23q-15 21 -34 77q-1 2 -2.5 7t-2.5 7q-8 18 -17 18t-25.5 -21t-33 -46.5t-37 -46.5t-35.5 -21q-14 0 -22 10t-8 25q0 17 8.5 50.5t8.5 50.5q0 26 -18 26q-12 0 -35.5 -13.5t-48 -30t-61 -30t-72.5 -13.5
q-12 0 -12 11t11 11q37 0 79 20q7 3 61.5 39.5t78.5 36.5q22 0 34.5 -14.5t12.5 -36.5q0 -17 -10 -51.5t-10 -52.5q0 -7 7 -7q8 0 32.5 35.5t54 70.5t49.5 35q26 0 42 -55q2 -7 7 -29.5t8.5 -31.5t15.5 -19t30 -11h6q7 0 20 4t19 4z" />
    <glyph glyph-name="n.finx1b" horiz-adv-x="725" 
d="M731 32q6 0 6 -5q0 -12 -18.5 -19t-33.5 -7q-38 0 -55 23q-9 12 -15.5 27t-13 34.5t-10.5 29.5q-8 18 -16 18q-11 0 -34 -33.5t-50.5 -67.5t-47.5 -34q-29 0 -29 37q0 17 8.5 50.5t8.5 48.5q0 22 -19 22q-9 0 -25.5 -8t-37.5 -21.5t-25 -15.5q-75 -42 -134 -65
q-119 -45 -192 -45q-10 0 -10 11q0 10 14 10q73 1 203 57q51 21 171 97q20 13 39 13q21 0 33.5 -13.5t12.5 -35.5q0 -16 -10 -50t-10 -49q0 -12 6 -12q9 0 33.5 35.5t53.5 70.5t49 35q26 0 43 -55q2 -8 5 -24.5t6 -25t8.5 -19.5t16 -16t25.5 -6h6q7 0 19 4t19 4z" />
    <glyph glyph-name="n.finx5" horiz-adv-x="728" 
d="M734 32q6 0 6 -5q0 -12 -18.5 -19t-33.5 -7q-38 0 -55 23q-21 26 -34 77q-1 3 -5 14q-8 18 -17 18t-25.5 -21t-33 -46.5t-37 -46.5t-35.5 -21q-14 0 -22 10t-8 25q0 17 8.5 50.5t8.5 50.5q0 22 -20 22t-112 -48l-128 -64q-35 -18 -103 -58l-20 -14t-32 -21.5t-18 -9.5
q-11 0 -11 10q0 5 3 8q4 4 46 32q32 22 112 64l101.5 52t128.5 68q21 12 40 12q20 0 31.5 -12.5t11.5 -32.5q0 -17 -10 -53t-10 -52q0 -8 7 -8q8 0 32.5 35.5t54 70.5t49.5 35q26 0 42 -55q2 -7 7 -29.5t8.5 -31.5t15.5 -19t30 -11h6q7 0 20 4t19 4z" />
    <glyph glyph-name="o.iniy3" horiz-adv-x="272" 
d="M214 114q0 -11 -1 -16q19 -3 59 -3q11 0 11 -11t-11 -11q-39 0 -65 4q-15 -41 -54 -71t-79 -30q-30 0 -47 22t-17 52q0 58 54 122q44 54 81 54q20 0 30 -14.5t10 -35.5q29 -19 29 -62zM84 3q23 0 52 24t41 58q-56 19 -56 65q0 31 39 34q-6 11 -17 11q-12 0 -25 -9
q-29 -21 -52.5 -62.5t-23.5 -76.5q0 -19 11.5 -31.5t30.5 -12.5zM150 150q0 -31 33 -44q0 2 0.5 6.5t0.5 7.5q0 16 -8 27t-20 11q-6 0 -6 -8z" />
    <glyph glyph-name="o.medx1y3" horiz-adv-x="472" 
d="M414 114q0 -11 -1 -16q19 -3 59 -3q11 0 11 -11t-11 -11q-39 0 -65 4q-15 -41 -54 -71t-79 -30q-30 0 -47 22t-17 52q0 14 3 28q-55 -38 -101 -57.5t-100 -19.5q-24 0 -24 11q0 10 11 10q16 0 48 4q38 6 85 29q56 28 76 47q1 1 9 8t11 11l9 14q14 23 27 37q44 54 81 54
q20 0 30 -14.5t10 -35.5q29 -19 29 -62zM284 3q23 0 52 24t41 58q-56 19 -56 65q0 31 39 34q-6 11 -17 11q-12 0 -25 -9q-29 -21 -52.5 -62.5t-23.5 -76.5q0 -19 11.5 -31.5t30.5 -12.5zM350 150q0 -31 33 -44q1 5 1 14q0 16 -8 27t-20 11q-6 0 -6 -8z" />
    <glyph glyph-name="o.medx3y3" horiz-adv-x="400" 
d="M342 114q0 -11 -1 -16q19 -3 59 -3q11 0 11 -11t-11 -11q-39 0 -65 4q-15 -41 -54 -71t-79 -30q-30 0 -47 22t-17 52v6q0 7 1 14q5 23 13 42q-70 -39 -153 -39q-11 0 -11 11t11 11q74 0 177 58q22 32 48.5 52.5t48.5 20.5q20 0 30 -14.5t10 -35.5q29 -19 29 -62zM212 3
q23 0 52 24t41 58q-56 19 -56 65q0 31 39 34q-6 11 -17 11q-12 0 -25 -9q-29 -21 -52.5 -62.5t-23.5 -76.5q0 -19 11.5 -31.5t30.5 -12.5zM278 150q0 -31 33 -44q0 2 0.5 6.5t0.5 7.5q0 16 -8 27t-20 11q-6 0 -6 -8z" />
    <glyph glyph-name="o.medx4y3" horiz-adv-x="352" 
d="M294 114q0 -11 -1 -16q19 -3 59 -3q11 0 11 -11t-11 -11q-39 0 -65 4q-15 -41 -54 -71t-79 -30q-30 0 -47 22t-17 52q0 32 16 66q-17 0 -26 1q-34 2 -59 8l-25 7h-2q-6 6 -6 10q0 10 11 10q4 0 6 -1q45 -12 78 -12q19 0 38 3q14 19 23 30q44 54 81 54q20 0 30 -14.5
t10 -35.5q29 -19 29 -62zM164 3q23 0 52 24t41 58q-56 19 -56 65q0 31 39 34q-6 11 -17 11q-12 0 -25 -9q-29 -21 -52.5 -62.5t-23.5 -76.5q0 -19 11.5 -31.5t30.5 -12.5zM230 150q0 -31 33 -44q0 2 0.5 6.5t0.5 7.5q0 16 -8 27t-20 11q-6 0 -6 -8z" />
    <glyph glyph-name="o.medx1by3" horiz-adv-x="557" 
d="M499 114q0 -11 -1 -16q19 -3 59 -3q11 0 11 -11t-11 -11q-39 0 -65 4q-15 -41 -54 -71t-79 -30q-30 0 -47 22t-17 52q0 24 9 48q-4 -2 -38.5 -17.5t-45 -19.5t-42 -17t-48.5 -18l-42.5 -12t-46.5 -10t-41 -3q-10 0 -10 11q0 10 10 10q34 0 86 15q119 34 234 96
q12 18 29 39q44 54 81 54q20 0 30 -14.5t10 -35.5q29 -19 29 -62zM369 3q23 0 52 24t41 58q-56 19 -56 65q0 31 39 34q-5 11 -17 11t-25 -9q-29 -21 -52.5 -62.5t-23.5 -76.5q0 -19 11.5 -31.5t30.5 -12.5zM435 150q0 -31 33 -44q0 2 0.5 6.5t0.5 7.5q0 16 -8 27t-20 11
q-6 0 -6 -8z" />
    <glyph glyph-name="o.medx5y3" horiz-adv-x="555" 
d="M497 114q0 -11 -1 -16q19 -3 59 -3q11 0 11 -11t-11 -11q-39 0 -65 4q-15 -41 -54 -71t-79 -30q-30 0 -47 22t-17 52q0 28 12 55l-134 -64q-66 -32 -102 -55q-67 -45 -69 -45q-11 0 -11 10q0 5 3 8q4 4 46 32q40 26 86 50.5t108 53.5l90 43q16 24 25 34q44 54 81 54
q20 0 30 -14.5t10 -35.5q29 -19 29 -62zM367 3q23 0 52 24t41 58q-56 19 -56 65q0 31 39 34q-5 11 -17 11t-25 -9q-29 -21 -52.5 -62.5t-23.5 -76.5q0 -19 11.5 -31.5t30.5 -12.5zM433 150q0 -31 33 -44q0 2 0.5 6.5t0.5 7.5q0 16 -8 27t-20 11q-6 0 -6 -8z" />
    <glyph glyph-name="o.finx1" horiz-adv-x="484" 
d="M457 83q1 0 6 0.5t10 0.5h10.5t9 -1.5t3.5 -3.5q0 -18 -51 -18q-24 0 -40 6q-14 -38 -52.5 -65t-79.5 -27q-30 0 -46.5 23t-16.5 54q0 12 3 26q-56 -38 -102 -57.5t-100 -19.5q-23 0 -23 11q0 10 11 10q16 0 48 4q35 5 85 28.5t76 47.5l21 19q18 35 51 68.5t64 33.5
q19 0 29.5 -16.5t10.5 -37.5q29 -17 29 -62q0 -7 -2 -19q14 -5 46 -5zM282 5q32 0 60.5 21.5t37.5 52.5q-21 11 -40.5 30t-19.5 36q0 15 11.5 23t26.5 9q-6 11 -15 11t-23 -8q-31 -16 -54.5 -57.5t-23.5 -76.5q0 -19 10.5 -30t29.5 -11zM384 103v3q0 13 -8.5 29t-20.5 16
q-7 0 -7 -9q0 -8 6.5 -15t16.5 -14t13 -10z" />
    <glyph glyph-name="o.finx3" horiz-adv-x="411" 
d="M407 84q16 0 16 -5q0 -18 -40 -18q-37 0 -51 5q-14 -38 -52 -64.5t-79 -26.5q-31 0 -47.5 22.5t-16.5 54.5q0 27 14 60q-71 -39 -153 -39q-10 0 -10 11t11 11q75 0 176 58q17 26 44 47.5t51 21.5q20 0 30.5 -16t10.5 -37q29 -19 29 -62q0 -7 -2 -19q17 -6 45 -6q4 0 12 1
t12 1zM311 103v3q0 13 -8.5 29t-20.5 16q-7 0 -7 -9q0 -8 6.5 -15t16.5 -14t13 -10zM208 4q32 0 61 22t38 53q-16 5 -38 28t-22 38t11.5 23t26.5 8q-6 12 -15 12q-7 0 -23 -8q-31 -17 -54.5 -58t-23.5 -77q0 -41 39 -41z" />
    <glyph glyph-name="o.finx4" horiz-adv-x="349" 
d="M321 58q1 0 6.5 0.5t10.5 0.5h10.5t9 -1.5t3.5 -3.5q0 -18 -40 -18q-35 0 -51 6q-14 -38 -52.5 -65t-79.5 -27q-30 0 -46.5 23t-16.5 54q0 43 30 89q-17 0 -25 1q-40 4 -60 8l-11 3.5t-13 3.5h-2q-6 6 -6 10q0 10 11 10q4 0 6 -1q45 -12 79 -12q32 0 39 3q2 1 4 5
q13 18 37 34.5t44 16.5t30.5 -16.5t10.5 -37.5q29 -18 29 -62q0 -7 -2 -19q14 -5 45 -5zM146 -20q32 0 61 21.5t37 52.5q-2 2 -6 4q-17 10 -35 28.5t-18 33.5t11.5 23t26.5 9q-5 11 -14 11q-10 0 -24 -8q-32 -18 -55 -57.5t-23 -76.5q0 -41 39 -41zM249 79v3q0 13 -8.5 29
t-20.5 16q-7 0 -7 -10q0 -9 12.5 -21t23.5 -17z" />
    <glyph glyph-name="o.finx1b" horiz-adv-x="568" 
d="M540 83q1 0 6.5 0.5t10.5 0.5h10.5t9 -1.5t3.5 -3.5q0 -18 -51 -18q-24 0 -40 6q-14 -39 -52.5 -65.5t-79.5 -26.5q-30 0 -46.5 23t-16.5 54q0 22 8 46l-3 -2q-8 -3 -45.5 -19.5t-52.5 -22.5l-49 -19t-55 -18.5t-48.5 -10.5t-50.5 -5q-10 0 -10 11q0 10 10 10q34 0 86 15
q121 34 235 96q19 33 49.5 61.5t58.5 28.5q19 0 29.5 -15t10.5 -35v-4q30 -19 30 -62q0 -7 -2 -19q13 -5 45 -5zM366 5q32 0 61 22t36 52q-60 34 -60 67q0 14 11.5 22t27.5 9q-6 11 -15 11t-23 -8q-31 -17 -54.5 -57.5t-23.5 -76.5q0 -41 40 -41zM468 103v2q0 13 -9 29.5
t-21 16.5q-7 0 -7 -9q0 -5 2.5 -9.5t7.5 -9t9 -7.5l10.5 -7.5t7.5 -5.5z" />
    <glyph glyph-name="o.finx5" horiz-adv-x="569" 
d="M541 83q1 0 6.5 0.5t10.5 0.5h10.5t9 -1.5t3.5 -3.5q0 -18 -51 -18q-24 0 -40 6q-14 -39 -52.5 -65.5t-79.5 -26.5q-30 0 -46.5 23t-16.5 55q0 26 11 53l-135 -65q-66 -32 -102 -55q-67 -45 -69 -45q-11 0 -11 10q0 5 3 8q3 4 12 10l20 13l14 9q40 27 85.5 51t110 54
t90.5 43q15 28 46.5 56t58.5 28q18 0 28.5 -15t10.5 -35v-4q30 -19 30 -62q0 -7 -2 -19q14 -5 45 -5zM367 5q32 0 61 22t36 52q-59 35 -59 67q0 14 11.5 22t26.5 9q-5 11 -15 11q-9 0 -23 -8q-31 -17 -54.5 -57.5t-23.5 -76.5q0 -41 40 -41zM469 103v2q0 13 -9 29.5
t-21 16.5q-7 0 -7 -9q0 -5 2.5 -9.5t7.5 -9t9 -7.5l10.5 -7.5t7.5 -5.5z" />
    <glyph glyph-name="p.iniy1" horiz-adv-x="337" 
d="M337 22q11 0 11 -11q0 -10 -11 -10q-79 0 -124 7q-55 9 -72 20q-14 -48 -25.5 -82.5t-27.5 -78.5l-25 -69l-12 -35t-13 -36.5t-12.5 -31t-15 -29.5t-16 -21t-20.5 -16.5t-24 -4.5q-21 0 -35.5 21.5t-14.5 51.5q0 35 15 81t31.5 82t52.5 95t52 83l58 84l44 63q2 18 2 27
q0 8 -2.5 24.5t-2.5 20.5q0 6 6 14t14 8q21 0 21 -42q0 -14 -3 -23q6 3 18 9.5l18.5 10t18 6.5t22.5 3q34 0 60.5 -18.5t26.5 -52.5q0 -45 -48 -90t-95 -45q27 -15 128 -15zM79 -69q7 23 21 63.5t24 72t17 60.5l-57.5 -87l-46 -69.5t-33.5 -54.5q-12 -21 -26.5 -53
t-25.5 -61l-12 -29q-12 -36 -12 -73q0 -46 24 -46q18 0 30.5 21.5t30.5 70.5q48 132 66 185zM152 55q13 -4 28 -4q40 0 87 35.5t47 80.5q0 20 -13.5 30.5t-33.5 10.5q-46 0 -84 -31q-25 -103 -31 -122z" />
    <glyph glyph-name="p.medx1y1" horiz-adv-x="473" 
d="M473 22q10 0 10 -10q0 -11 -10 -11q-48 0 -90 6q-56 9 -70 20q-14 -48 -26 -83l-28 -78.5l-25 -68.5q-4 -10 -12 -35t-12.5 -36l-12.5 -31t-15 -30t-16.5 -21.5t-20.5 -16t-24 -4.5q-21 0 -35.5 22t-14.5 53q0 29 9 64.5t28.5 76l37 74t48 79.5l46.5 70.5t47.5 68.5
t37.5 53q0 3 1 9t1 10q0 9 -4.5 18t-11.5 9q-14 0 -31 -22q-74 -99 -142 -153t-138 -54q-11 0 -11 11t11 11h8q34 0 78.5 24.5t78.5 58.5q19 19 54 64t62.5 73.5t45.5 28.5q31 0 31 -60q0 2 12.5 9t32 14t33.5 7q34 0 60.5 -19t26.5 -53q0 -45 -48 -87.5t-103 -46.5
q28 -14 101 -14zM183 -255q43 114 67 185l21.5 63.5l24 71.5t17.5 61l-57.5 -86l-46.5 -69.5t-34 -55.5q-18 -29 -38 -78t-25 -65q-13 -39 -13 -73q0 -46 23 -46q18 0 30.5 21.5t30.5 70.5zM322 54q15 -4 29 -4q40 0 87.5 35t47.5 81q0 20 -14 30.5t-34 10.5q-47 0 -85 -31
q-15 -78 -31 -122z" />
    <glyph glyph-name="p.medx3y1" horiz-adv-x="444" 
d="M443 22q12 0 12 -11q0 -10 -12 -10q-36 0 -85 7q-56 9 -70 20q-14 -48 -26 -83l-28 -78.5l-25 -68.5l-12 -35t-13 -36.5t-12.5 -31t-15 -29.5t-16 -21t-20.5 -16.5t-24 -4.5q-22 0 -36 21.5t-14 52.5q0 29 9 64.5t29 77l36.5 73.5t48 80l46 70t47.5 68.5l38 53.5v18
q0 25 -14 25q-5 0 -9 -4q-2 -1 -25 -20l-47 -37.5l-52.5 -39t-44.5 -28.5q-48 -24 -107 -26q-12 0 -12 11t12 11q50 -1 94 25q67 38 164 131q24 22 41 22q14 0 23 -14.5t9 -38.5v-7h1q0 1 12 8.5t31.5 14.5t34.5 7q33 0 60 -18.5t27 -51.5q0 -44 -47 -90t-96 -46
q31 -15 88 -15zM225 -69l21.5 63.5l24 71.5t17.5 61l-57.5 -86l-46.5 -69.5t-34 -55.5q-18 -29 -38 -78t-25 -65q-14 -39 -14 -75q0 -44 24 -44q18 0 30.5 21.5t30.5 70.5q49 129 67 185zM297 55q15 -4 29 -4q39 0 86.5 34.5t47.5 80.5q0 20 -13.5 31t-33.5 11
q-47 0 -85 -31q-20 -90 -31 -122z" />
    <glyph glyph-name="p.medx4y1" horiz-adv-x="466" 
d="M466 22q11 0 11 -11q0 -10 -11 -10q-42 0 -87 7q-56 9 -72 20q-14 -48 -25.5 -82.5t-27.5 -78.5l-25 -69q-3 -9 -9.5 -27l-10 -28l-9.5 -26t-10.5 -25.5t-11 -21.5t-13 -19t-14.5 -14t-16.5 -10t-18.5 -3q-21 0 -35.5 21.5t-14.5 51.5t8.5 65t29 77l36 73t48 81l46 69.5
l48.5 69.5l37 53q1 7 1 19q0 25 -13 25q-2 0 -20.5 -15t-50 -38t-60.5 -38q-38 -22 -95 -22q-17 0 -54.5 7.5t-37.5 17.5q0 11 10 11q1 0 3.5 -0.5t3.5 -0.5q33 -12 72 -12q25 0 42 4q61 13 160 108q22 22 40 22q32 0 32 -60h1q-1 1 11 8t31.5 14.5t36.5 7.5q32 0 59 -18.5
t27 -51.5q0 -46 -47 -90t-100 -44q29 -17 95 -17zM245 -69q7 23 21 63.5t24 72t17 60.5q-118 -180 -136 -211q-10 -16 -21.5 -40.5t-19.5 -44l-15.5 -38t-8.5 -20.5q-12 -36 -12 -73q0 -46 24 -46q18 0 30.5 21.5t30.5 70.5q48 132 66 185zM318 55q13 -4 28 -4q40 0 87 35.5
t47 80.5q0 20 -13.5 30.5t-33.5 10.5q-46 0 -84 -31q-26 -107 -31 -122z" />
    <glyph glyph-name="p.medx1by1" horiz-adv-x="649" 
d="M649 22q4 0 7.5 -3.5t3.5 -7.5t-3.5 -7.5t-7.5 -3.5q-45 0 -86 6q-56 9 -71 20q-14 -48 -25.5 -82.5t-27.5 -78.5l-25 -69l-12 -35t-13 -36.5t-12.5 -31t-15 -29.5t-16 -21t-20.5 -16.5t-24 -4.5q-21 0 -35.5 21.5t-14.5 52.5q0 29 9 64.5t29 77l37.5 75t48.5 81l47 71.5
l48.5 70t37.5 54q0 29 -13 29q-4 -1 -48 -30l-35.5 -24.5l-35 -23.5l-33.5 -20.5t-44 -24.5q-182 -94 -300 -94q-11 0 -11 9q0 12 11 12q83 0 196.5 48.5t203.5 118.5q8 6 32.5 28.5t42.5 34t34 11.5q30 0 30 -45v-8q2 1 9 6l11 8q28 17 58 17q34 0 60.5 -18.5t26.5 -52.5
q0 -46 -48.5 -90.5t-94.5 -44.5q23 -13 89 -13zM430 -71q7 23 21 63.5t24 72t17 60.5l-58 -88l-45.5 -68t-33.5 -55q-12 -21 -26.5 -53l-26.5 -61l-11 -29q-12 -36 -12 -73q0 -46 24 -46q17 0 29.5 21.5t30.5 70.5zM503 53q13 -4 28 -4q40 0 87 35.5t47 80.5
q0 20 -13.5 30.5t-33.5 10.5q-46 0 -84 -31q-25 -103 -31 -122z" />
    <glyph glyph-name="p.medx5y1" horiz-adv-x="640" 
d="M639 22q11 0 11 -11t-11 -11q-28 0 -82 8q-47 8 -70 24q-2 -4 -16 -54q-13 -41 -35 -101l-29 -79q-5 -13 -14.5 -41l-14.5 -42t-14.5 -34.5t-18.5 -30.5t-22 -18t-28 -8q-21 0 -35.5 21.5t-14.5 52.5q0 29 8.5 64t29.5 77.5l36.5 73.5t48 81l45 69.5t48.5 70t37 52.5
q0 2 0.5 6.5t0.5 5.5q0 22 -12 22q-5 0 -12.5 -3.5t-17 -9t-12.5 -7.5q-36 -19 -66 -38l-147.5 -84t-159.5 -92q-70 -45 -72 -45q-11 0 -11 11q0 7 50 40q33 22 109.5 66l150.5 85.5t84 47.5l45.5 28.5t49.5 30.5t27 11q27 0 27 -42v-5q1 0 3 1.5l6 4.5t9 6q28 17 60 17
q33 0 60 -19t27 -53q0 -44 -47.5 -89t-98.5 -45q24 -15 88 -15zM423 -69l22 63t25 73t17 60q-104 -153 -137 -211q-33 -56 -65 -143q-13 -39 -13 -73q0 -46 24 -46q17 0 31 22.5t31 69.5q64 181 65 185zM497 55q13 -4 28 -4q39 0 86.5 35t47.5 81q0 20 -13.5 30.5
t-33.5 10.5q-45 0 -85 -31q-15 -77 -30 -122z" />
    <glyph glyph-name="p.finx1" horiz-adv-x="538" 
d="M544 206q10 -13 10 -32q0 -22 -16 -58q-25 -42 -98 -82.5t-147 -40.5l-69 -196q-3 -9 -9.5 -27l-10 -28l-9.5 -26t-10.5 -25.5t-11 -21.5t-13 -19t-14.5 -14t-16.5 -10t-18.5 -3q-21 0 -35.5 21.5t-14.5 52.5q0 111 148 337q24 37 102 117q8 30 8 51q0 20 -13 20
q-8 0 -21 -15q-157 -207 -285 -207q-12 0 -12 10q0 12 12 12h10q34 2 67.5 18.5t69.5 52t56 58.5t58 72q11 13 16 20q27 27 41 27q31 0 31 -45q0 -23 -3 -48q72 57 132 57q49 0 66 -28zM273 24q14 35 28 83q-31 -26 -51 -60q-37 -52 -85 -132q-33 -57 -64 -143
q-13 -41 -13 -74q0 -45 24 -45q18 0 30.5 21.5t30.5 70.5l67 185q16 50 24 70q-17 8 -17 19q0 7 10 7q4 0 16 -2zM493 111q24 35 24 60q0 33 -38 33q-57 0 -139 -63q-11 -48 -36 -119q139 19 189 89z" />
    <glyph glyph-name="p.finx3" horiz-adv-x="520" 
d="M526 205q10 -14 10 -37q-3 -60 -76.5 -114t-164.5 -61q-15 0 -18 -4q-2 -3 -3 -8q-10 -32 -20.5 -61.5l-23.5 -65l-22 -60.5l-12 -35l-12.5 -35.5t-12 -31.5t-14.5 -29.5t-16.5 -21.5t-20.5 -16t-24 -5q-22 0 -36.5 21t-14.5 52q1 118 149 338q46 67 100 118q6 36 6 46
q0 29 -14 29q-6 0 -10 -4q-125 -102 -159 -118q-56 -27 -119 -28q-10 0 -10 11q0 10 10 10q57 0 113 31q62 35 148 121q22 22 41 22q15 0 23.5 -16t8.5 -40q0 -16 -4 -36q30 20 43 28t39 17.5t50 9.5q45 0 66 -27zM256 25l28 83q-24 -28 -49 -64q-41 -58 -85 -132
q-18 -30 -38.5 -79.5t-24.5 -63.5q-14 -37 -14 -74q0 -45 24 -45q18 0 30.5 21.5t30.5 70.5l67 185q3 10 12.5 35t11.5 38q-19 7 -19 20q0 4 4 5q2 0 22 -2v2zM475 109q25 36 25 61q0 32 -38 32q-56 0 -141 -63q-10 -49 -33 -119q134 18 187 89z" />
    <glyph glyph-name="p.finx4" horiz-adv-x="542" 
d="M314 150q0 3 2.5 20t2.5 26q0 29 -14 29q-2 0 -20 -15t-49 -37.5t-60 -37.5q-31 -18 -88 -18q-23 0 -61.5 5.5t-38.5 18.5q0 11 11 11q5 0 6 -1q37 -13 80 -13q22 0 44 5q57 12 150 105q22 22 40 22q15 0 24 -15.5t9 -40.5q0 -16 -4 -36l44.5 28.5t39.5 18t47 8.5
q35 0 56 -17t21 -47q-3 -53 -70.5 -110t-170.5 -65q-15 0 -19 -6q-1 -2 -2 -6q-13 -41 -36 -103l-31 -84q-5 -13 -14 -40.5t-14.5 -41.5t-15 -35t-18.5 -31t-22 -18t-28 -8q-21 0 -35.5 21.5t-14.5 52.5q0 117 147 337q42 62 102 118zM304 109q-15 -15 -50 -64
q-41 -58 -85 -132q-18 -31 -38.5 -80.5t-24.5 -62.5q-14 -37 -14 -74q0 -45 24 -45q17 0 30 22t31 70q8 23 30.5 82t36.5 103q13 41 25 70q-19 11 -19 23q0 4 4 5q5 0 21 -2q1 1 1 2q6 15 15.5 44t12.5 39zM494 110q25 36 25 61q0 32 -38 32q-55 0 -140 -63
q-10 -49 -33 -119q58 7 102 28q61 28 84 61z" />
    <glyph glyph-name="p.finx1b" horiz-adv-x="725" 
d="M731 207q10 -14 10 -33q0 -27 -16 -57q-22 -41 -88 -78.5t-136 -43.5q-11 0 -15 -1.5t-8 -10.5q-10 -31 -20.5 -60.5l-23.5 -65.5l-22 -61l-12 -35.5l-12.5 -36t-12.5 -31.5t-14.5 -29.5t-16 -21.5t-20.5 -15.5t-24 -4.5q-21 0 -35.5 21.5t-14.5 52.5q0 119 148 337
q42 62 103 119l6 44q0 22 -13 22q-5 0 -10 -5l-49.5 -34l-44 -30.5t-40 -25t-52.5 -28.5q-170 -94 -300 -94q-10 0 -10 10q0 11 10 11q87 0 199 49t201 118l32.5 28.5t43.5 34.5t33 11q31 0 31 -48q0 -16 -4 -36q26 18 40.5 27t40 18.5t50.5 9.5q48 0 66 -27zM462 27
q22 61 27 79q-37 -41 -50 -60q-43 -60 -84 -132q-33 -56 -65 -143q-13 -39 -13 -73q0 -46 24 -46q17 0 31 22.5t31 69.5q42 113 65 185q20 60 26 70q-18 10 -18 22q0 5 4 6q1 0 21 -2q0 1 1 2zM680 111q25 36 25 61q0 32 -38 32q-56 0 -141 -63q-12 -55 -33 -119
q138 19 187 89z" />
    <glyph glyph-name="p.finx5" horiz-adv-x="721" 
d="M726 210q11 -16 11 -38q-3 -60 -77.5 -114t-164.5 -61q-2 0 -6 0.5t-5 0t-3.5 -2t-4 -4.5t-3.5 -8q-9 -27 -31.5 -87t-35.5 -100l-12 -35t-13 -36.5l-12 -31t-15 -30t-16.5 -21t-20.5 -16t-24 -4.5q-21 0 -35.5 21.5t-14.5 52.5q0 110 149 337q32 49 103 122q5 20 7 43
q0 22 -13 22q-10 0 -29 -10t-46 -26.5t-34 -20.5l-188.5 -108.5l-143 -85t-48.5 -28.5q-10 0 -10 10q0 9 50 41q38 25 189 111.5t157 89.5q17 9 45.5 27l48 29.5t28.5 11.5q26 0 26 -43q0 -8 -2 -21.5t-2 -15.5q65 56 134 56q40 0 62 -27zM456 29q1 4 12 33t15 44
q-62 -64 -123 -171.5t-76 -163.5q-14 -37 -14 -73q0 -46 25 -46q17 0 30 22t31 70q53 143 92 258q-18 9 -18 22q0 5 9 5q11 0 17 -1v1zM676 113q24 35 24 61q0 33 -38 33q-65 0 -140 -64q-24 -90 -34 -117q43 0 103 27q61 27 85 60z" />
    <glyph glyph-name="q.iniy5" horiz-adv-x="343" 
d="M343 -38q10 0 10 -11q0 -5 -4 -8q-157 -128 -215 -215q-24 -140 -33 -160q-5 -10 -16.5 -19.5t-21.5 -9.5q-15 0 -23 12t-8 27q0 46 75 154q36 153 94 310q-63 -42 -127 -42q-26 0 -45 17t-19 43q0 15 6 27q20 48 70.5 88t99.5 40q42 0 65 -47q13 37 34 37q25 0 25 -39
q0 -28 -41 -69q0 -3 1 -9.5t1 -9.5q0 -17 -10 -17q-9 0 -16 15l-2 -2q-53 -124 -96 -291q71 95 188 176q5 3 8 3zM80 26q25 0 68.5 18.5t66.5 36.5l18 46q-13 59 -51 59q-36 0 -86 -43.5t-50 -79.5q0 -16 9.5 -26.5t24.5 -10.5zM66 -420q13 0 24 72l-11.5 -19t-14 -26
t-5.5 -19q0 -8 7 -8zM277 161q-4 0 -9 -11.5t-5 -16.5q0 -4 2 -10q19 19 19 28q0 10 -7 10z" />
    <glyph glyph-name="q.medx1y5" horiz-adv-x="537" 
d="M537 -38q10 0 10 -11q0 -4 -3 -7q-41 -29 -73 -60q-110 -105 -142 -156q-1 -4 -8.5 -46.5t-14 -73.5t-11.5 -40q-15 -29 -38 -29q-15 0 -23 12t-8 27q0 46 75 154q36 153 94 310q-63 -42 -126 -42q-27 0 -45.5 17t-18.5 43q0 9 1 14q-105 -73 -195 -73h-4.5h-5t-4.5 0.5
t-5 1.5t-3 3.5t-1 5.5q0 10 10 10q27 0 48 4q40 6 85 29q47 23 73 45q17 15 23 21q24 27 27 30q62 64 126 64q42 0 65 -47q13 37 34 37q26 0 26 -38q0 -28 -42 -70q0 -3 1 -9.5t1 -9.5q0 -17 -10 -17q-9 0 -16 15l-2 -2q-53 -124 -96 -291q84 104 188 176q5 3 8 3zM471 161
q-3 0 -6 -5.5t-5 -13.5l-3 -9l2 -10l15 15q4 8 4 12q0 11 -7 11zM274 26q25 0 68.5 18.5t66.5 36.5q15 37 19 46q-13 59 -51 59q-37 0 -87 -43.5t-50 -79.5q0 -16 9.5 -26.5t24.5 -10.5zM261 -420q12 0 23 72q-2 -5 -10.5 -19t-14 -25.5t-5.5 -19.5t7 -8z" />
    <glyph glyph-name="q.medx3y5" horiz-adv-x="458" 
d="M458 -38q10 0 10 -11q0 -3 -2 -7l-2 -1q-15 -10 -76 -66l-24 -23l-26 -24.5t-23 -23l-24.5 -26t-21 -25t-20.5 -27.5q-24 -140 -33 -160q-5 -10 -16.5 -19.5t-21.5 -9.5q-15 0 -23 12t-8 27q0 46 75 154q36 153 94 310q-63 -42 -127 -42q-26 0 -45 17t-19 43q0 21 16 47
q-74 -34 -142 -34q-11 0 -11 11t11 11q65 0 137 37q32 15 42 22q4 3 11 10t11 10q55 41 101 41q42 0 65 -47q13 37 34 37q25 0 25 -39q0 -28 -41 -69q0 -3 1 -9.5t1 -9.5q0 -17 -10 -17q-8 0 -16 15l-2 -2q-53 -124 -96 -291q68 93 188 176q4 3 8 3zM195 26q24 0 68 18.5
t67 36.5l18 46q-13 59 -51 59q-36 0 -86 -43.5t-50 -79.5q0 -16 9.5 -26.5t24.5 -10.5zM181 -420q13 0 24 72l-11.5 -19t-14 -26t-5.5 -19q0 -8 7 -8zM392 161q-4 0 -9 -11.5t-5 -16.5q0 -4 2 -10q19 19 19 28q0 10 -7 10z" />
    <glyph glyph-name="q.medx4y5" horiz-adv-x="416" 
d="M427 -49q0 -4 -5 -9q-10 -9 -34.5 -28.5t-36.5 -31.5q-113 -111 -143 -154q-24 -133 -29 -148q-14 -41 -43 -41q-14 0 -22 12.5t-8 28.5q0 42 40 101q33 46 34 51q2 5 7 29l20 72q33 114 67 209q-25 -17 -61 -29.5t-65 -12.5q-26 0 -45 17t-19 43q0 20 21 56
q-41 0 -109 16h-1q-7 7 -7 10q0 4 3.5 7t7.5 3q5 0 7 -1q45 -12 79 -12q21 0 40 3q27 30 63.5 51.5t71.5 21.5q42 0 65 -47q13 37 34 37q25 0 25 -39q0 -28 -41 -69q0 -3 0.5 -9.5t0.5 -9.5q0 -17 -9 -17t-16 15l-2 -2h-1q-54 -130 -95 -291q91 102 188 176q3 3 7 3
q11 0 11 -11zM154 26q26 0 67 18t68 37q1 5 18 46q-13 59 -51 59q-36 0 -86 -43.5t-50 -79.5q0 -16 9.5 -26.5t24.5 -10.5zM140 -420q13 0 24 72l-11.5 -19t-14 -26t-5.5 -19q0 -8 7 -8zM351 161q-4 0 -15 -28l3 -10q19 19 19 28q0 10 -7 10z" />
    <glyph glyph-name="q.medx1by5" horiz-adv-x="627" 
d="M627 -38q10 0 10 -11q0 -5 -4 -8q-154 -124 -215 -215q-24 -133 -29 -148q-14 -41 -43 -41q-14 0 -22 12.5t-8 28.5q0 46 75 152q31 137 93 310q-25 -17 -61 -29.5t-65 -12.5q-26 0 -45 17t-19 43q0 17 11 39l-3 -1q-15 -6 -54.5 -24t-61.5 -26q-123 -47 -187 -47
q-11 0 -11 11q0 10 15 10q70 1 202 57q26 10 72 32t58 31l11.5 12t11.5 11q58 50 112 50q42 0 65 -47q13 37 34 37q25 0 25 -39q0 -28 -41 -69q0 -3 0.5 -9.5t0.5 -9.5q0 -17 -9 -17t-16 15l-2 -2h-1q-54 -130 -95 -291q69 94 188 176q5 3 8 3zM364 26q26 0 67 18t68 37
q1 5 18 46q-13 59 -51 59q-36 0 -86 -43.5t-50 -79.5q0 -16 9.5 -26.5t24.5 -10.5zM350 -420q13 0 24 72l-11.5 -19t-14 -26t-5.5 -19q0 -8 7 -8zM561 161q-4 0 -15 -28l3 -10q19 19 19 28q0 10 -7 10z" />
    <glyph glyph-name="q.medx5y5" horiz-adv-x="625" 
d="M625 -38q10 0 10 -11q0 -3 -2 -7l-2 -1q-15 -10 -76 -66q-5 -5 -28 -26.5t-32 -31l-26.5 -27t-29.5 -33t-22 -31.5q-2 -8 -12 -65t-18 -83q-2 -8 -4 -12q-5 -11 -16 -20t-22 -9q-15 0 -23 12t-8 27q0 48 75 154q36 153 94 310q-63 -42 -125 -42q-27 0 -46.5 17t-19.5 43
q0 14 15 46l-135 -65q-66 -32 -102 -55l-20 -14t-32 -21.5t-18 -9.5q-4 0 -7.5 3t-3.5 7q0 9 49 40q40 27 88.5 52.5t116.5 57t93 44.5q26 29 62 50t70 21q42 0 65 -48q13 37 34 37q25 0 25 -38q0 -31 -41 -70q0 -3 1 -9.5t1 -9.5q0 -17 -10 -17q-9 0 -16 15l-2 -2
q-53 -124 -96 -291q68 93 188 176q5 3 8 3zM559 161q-4 0 -9 -12t-5 -16t2 -10q19 19 19 28q0 10 -7 10zM362 26q24 0 68.5 19t66.5 36q15 37 19 46q-13 59 -51 59q-37 0 -87 -43.5t-50 -79.5q0 -15 9.5 -26t24.5 -11zM349 -420q4 0 7.5 6t6 16t4.5 19t3 18.5t2 12.5
q-30 -43 -30 -64q0 -8 7 -8z" />
    <glyph glyph-name="q.finx1" horiz-adv-x="748" 
d="M746 73q14 0 14 -11q0 -12 -28 -21q-117 -41 -219 -123q-46 -37 -125 -122q-3 -4 -15 -16t-17 -17.5t-13 -15.5t-14 -19q-13 -73 -19 -100q-9 -45 -10 -48q-15 -41 -43 -41q-14 0 -22 11.5t-8 26.5q0 42 40 104l10 15l16 23.5t8 12.5q2 5 7 29l20 72q33 114 67 209
q-25 -17 -61 -29.5t-65 -12.5q-26 0 -45 17.5t-19 43.5q0 9 1 13q-103 -73 -195 -73q-23 0 -23 11q0 10 11 10q16 0 48 4q38 6 84 29q49 24 76 47q2 2 11 9t12 12q16 20 24 28q64 64 127 64q43 0 64 -47q16 37 34 37q26 0 26 -38q0 -28 -42 -70q2 -12 2 -19q0 -17 -9 -17
q-11 0 -16 15l-3 -2q-52 -123 -95 -289l16 17.5l19.5 20.5l16.5 17q143 153 299 216q40 17 53 17zM274 26q26 0 67.5 18t68.5 37q7 22 18 46q-13 59 -51 59q-37 0 -87 -44t-50 -80q0 -15 9.5 -25.5t24.5 -10.5zM261 -420q5 0 8.5 6t6 16t4 18.5t3 19.5t1.5 12
q-2 -4 -10.5 -19t-14 -26.5t-5.5 -18.5q0 -8 7 -8zM472 161q-6 0 -15 -28q2 -6 2 -10q19 14 19 27q0 11 -6 11z" />
    <glyph glyph-name="q.finx3" horiz-adv-x="669" 
d="M666 73q15 0 15 -11q0 -12 -28 -21q-117 -41 -219 -123q-46 -37 -125 -122q-3 -4 -15 -16t-17 -17.5t-13 -15.5t-14 -19q-2 -8 -9 -48t-13.5 -70.5t-11.5 -41.5q-14 -29 -38 -29q-14 0 -22 11.5t-8 26.5q0 50 74 155q36 153 94 310q-63 -42 -126 -42q-27 0 -46 17t-19 43
q0 21 16 47q-68 -34 -142 -34q-11 0 -11 11t11 11q68 0 138 37l13 6.5l16 8t12 7.5q4 3 11 10t11 10q55 41 101 41q42 0 65 -47q13 37 34 37q26 0 26 -38q0 -28 -42 -70q2 -12 2 -19q0 -17 -10 -17q-8 0 -16 15l-2 -2q-57 -136 -96 -289q8 9 26.5 27.5t26.5 27.5
q145 155 299 216q48 17 52 17zM195 26q25 0 68.5 18.5t66.5 36.5q15 37 19 46q-13 59 -51 59q-37 0 -87 -43.5t-50 -79.5q0 -16 9.5 -26.5t24.5 -10.5zM182 -420q12 0 23 72q-2 -5 -10.5 -19t-14 -25.5t-5.5 -19.5t7 -8zM392 161q-3 0 -6 -5.5t-6 -13.5l-2 -9l2 -10
q3 2 8.5 8t6.5 7q4 8 4 12q0 11 -7 11z" />
    <glyph glyph-name="q.finx4" horiz-adv-x="627" 
d="M625 73q14 0 14 -10q0 -13 -27 -22q-106 -37 -183 -94t-162 -151q-5 -6 -19 -20t-23.5 -25t-16.5 -23q-24 -133 -29 -148q-14 -41 -43 -41q-14 0 -22 12.5t-8 28.5q0 46 75 152q31 137 93 310q-25 -17 -61 -29.5t-65 -12.5q-26 0 -45 17t-19 43q0 20 21 56q-43 0 -109 16
h-1q-7 3 -7 10q0 10 11 10q5 0 7 -1q45 -12 79 -12q21 0 40 3q27 30 63.5 51.5t71.5 21.5q42 0 65 -47q13 37 34 37q25 0 25 -39q0 -28 -41 -69q0 -3 0.5 -9.5t0.5 -9.5q0 -17 -9 -17t-16 15l-2 -2h-1q-57 -139 -95 -289q8 8 16.5 17.5l19 20.5l16.5 17q73 78 142 128.5
t158 87.5q40 17 52 17zM154 26q26 0 67 18t68 37q1 5 18 46q-13 59 -51 59q-36 0 -86 -43.5t-50 -79.5q0 -16 9.5 -26.5t24.5 -10.5zM140 -420q13 0 24 72l-11.5 -19t-14 -26t-5.5 -19q0 -8 7 -8zM351 161q-4 0 -15 -28l3 -10q19 19 19 28q0 10 -7 10z" />
    <glyph glyph-name="q.finx1b" horiz-adv-x="836" 
d="M834 73q14 0 14 -10q0 -13 -27 -22q-117 -41 -219 -123q-46 -37 -125 -122q-3 -4 -15 -16t-17 -17.5t-13 -15.5t-14 -19q-2 -9 -8.5 -48t-13.5 -70t-12 -42q-14 -29 -38 -29q-15 0 -23 12t-8 27q0 46 75 154q36 153 94 310q-63 -42 -126 -42q-27 0 -46 17t-19 43
q0 17 12 39q-3 0 -4 -1q-64 -30 -100 -45t-98 -33.5t-105 -18.5q-10 0 -10 11q0 10 14 10q70 1 202 57q111 47 130 63l11.5 12t11.5 11q58 50 112 50q42 0 65 -47q13 37 34 37q26 0 26 -38q0 -28 -42 -70q2 -12 2 -19q0 -17 -10 -17q-8 0 -16 15l-2 -2q-57 -136 -96 -289
l26 27l26 28q141 154 300 216q48 17 52 17zM363 26q25 0 68.5 18.5t66.5 36.5q15 37 19 46q-13 59 -51 59q-37 0 -87 -43.5t-50 -79.5q0 -16 9.5 -26.5t24.5 -10.5zM350 -420q12 0 23 72q-2 -5 -10.5 -19t-14 -25.5t-5.5 -19.5t7 -8zM560 161q-3 0 -6 -5.5t-6 -13.5l-2 -9
l2 -10q3 2 8.5 8t6.5 7q4 8 4 12q0 11 -7 11z" />
    <glyph glyph-name="q.finx5" horiz-adv-x="835" 
d="M832 73q15 0 15 -11q0 -12 -28 -21q-117 -41 -219 -123q-46 -37 -125 -122q-3 -4 -15 -16t-17 -17.5t-13 -15.5t-14 -19q-2 -8 -9 -48t-13.5 -70.5t-11.5 -41.5q-14 -29 -38 -29q-14 0 -22 12t-8 26q0 53 74 155q36 153 94 310q-63 -42 -126 -42q-27 0 -46 17t-19 43
q0 14 15 46l-135 -65q-55 -25 -102 -55q-67 -45 -69 -45q-11 0 -11 10q0 5 3 8q4 4 46 32t90 53t113.5 56l93.5 45q26 29 62 49.5t70 20.5q42 0 65 -47q16 37 34 37q26 0 26 -38q0 -28 -42 -70q2 -12 2 -19q0 -17 -10 -17q-8 0 -16 15l-2 -2q-51 -123 -96 -289
q8 9 26.5 27.5t26.5 27.5q146 156 299 216q48 17 52 17zM361 26q25 0 68.5 18.5t66.5 36.5q15 37 19 46q-13 59 -51 59q-37 0 -87 -43.5t-50 -79.5q0 -16 9.5 -26.5t24.5 -10.5zM348 -420q12 0 23 72q-2 -5 -10.5 -19t-14 -25.5t-5.5 -19.5t7 -8zM558 161q-3 0 -6 -5.5
t-6 -13.5l-2 -9l2 -10q3 2 8.5 8t6.5 7q4 8 4 12q0 11 -7 11z" />
    <glyph glyph-name="r.iniy1" horiz-adv-x="451" 
d="M374 82q0 -27 25 -43.5t54 -16.5q10 0 10 -11q0 -10 -10 -10q-43 0 -75.5 21.5t-32.5 62.5q0 21 14 63t14 62q0 8 -3 15t-9.5 12t-11 8t-14 7.5t-12.5 6.5q-1 -2 -2.5 -4t-1.5 -3q-56 -96 -175 -188q-50 -38 -98 -53q-32 -10 -59 -10q-37 0 -37 18q0 7 33 7q50 4 110 38
q47 27 114 94t90 115q-49 26 -49 59q0 17 13.5 29t31.5 12q21 0 34.5 -15t13.5 -36q0 -18 -6 -35q32 -14 50 -30.5t18 -44.5q0 -25 -13 -67t-15 -53q-1 -3 -1 -10zM280 328q0 -11 28 -27q0 1 1.5 10t1.5 12q0 20 -15 20q-6 0 -11 -4.5t-5 -10.5z" />
    <glyph glyph-name="r.medx1y1" horiz-adv-x="432" 
d="M355 82q0 -26 25 -43t53 -17q11 0 11 -10q0 -11 -11 -11q-43 0 -75 21.5t-32 62.5q0 21 13.5 63t13.5 63q0 27 -51 49l-3 1q-29 -59 -106 -134l-31 -30.5t-35.5 -34t-31.5 -24.5t-40 -25q-24 -12 -51 -12q-16 0 -16 11q0 10 10 10q22 0 40 9q46 20 131 106t109 136
q-49 26 -49 58q0 18 13 30t31 12q20 0 34.5 -14t14.5 -34q0 -15 -9 -37l3 -1q32 -14 50 -30.5t18 -45.5q0 -25 -13 -67t-15 -52q-1 -3 -1 -10zM261 328q0 -3 1.5 -6.5t5.5 -6.5l6.5 -5t7.5 -5t6 -4l1 1q3 10 3 21q0 20 -15 20q-6 0 -11 -4.5t-5 -10.5z" />
    <glyph glyph-name="r.medx3y1" horiz-adv-x="368" 
d="M291 82q0 -27 25 -43.5t54 -16.5q10 0 10 -11q0 -10 -10 -10q-43 0 -75.5 21.5t-32.5 62.5q0 21 14 63t14 62q0 10 -5.5 18.5t-11 12t-18 10t-15.5 8.5q-1 -2 -2.5 -4t-1.5 -3q-29 -48 -77.5 -98.5t-92.5 -68.5q-27 -12 -66 -12q-12 0 -12 11t11 11q28 0 50 8
q35 12 68 44q71 69 97 126q-49 26 -49 59q0 17 13.5 29t31.5 12q21 0 34.5 -15t13.5 -36q0 -18 -6 -35q32 -14 50 -30.5t18 -44.5q0 -25 -13 -67t-15 -53q-1 -3 -1 -10zM197 328q0 -11 28 -27q0 1 1.5 10t1.5 12q0 20 -15 20q-6 0 -11 -4.5t-5 -10.5z" />
    <glyph glyph-name="r.medx1by1" horiz-adv-x="540" 
d="M463 82q0 -26 25 -43t53 -17q11 0 11 -11q0 -10 -11 -10q-43 0 -75.5 22t-32.5 63q0 20 14 62t14 63q0 8 -3 14.5t-9.5 11.5t-11 8t-14 7.5t-12.5 6.5l-3 -7q-63 -115 -245 -209q-81 -42 -165 -42q-10 0 -10 11q0 10 10 10q43 0 86 15q84 27 175.5 95.5t126.5 140.5
q-49 26 -49 58q0 18 13 30t31 12q21 0 35 -15t14 -36q0 -18 -6 -35q32 -14 50 -30.5t18 -45.5q0 -24 -14.5 -68.5t-14.5 -60.5zM369 328q0 -3 1.5 -6.5t5.5 -6.5l6.5 -5t7.5 -5t6 -4l1 1q3 10 3 21q0 20 -15 20q-6 0 -11 -4.5t-5 -10.5z" />
    <glyph glyph-name="r.medx5y1" horiz-adv-x="560" 
d="M484 81q0 -26 25 -42.5t53 -16.5q10 0 10 -11q0 -10 -10 -10q-43 0 -75.5 21.5t-32.5 62.5q0 21 14 63t14 62q0 8 -3 15t-9.5 12t-11 8t-14 7.5t-12.5 6.5q-3 -7 -11 -19q-36 -61 -127 -128q-38 -28 -116.5 -67.5t-108.5 -58.5q-67 -45 -69 -45q-11 0 -11 10q0 5 3 8
q4 4 46 32q39 26 107 61t120 69.5t94 83.5q33 38 47 68q-49 26 -49 59q0 17 13.5 29t31.5 12q21 0 34.5 -15t13.5 -36q0 -18 -6 -35q21 -9 34 -17t24 -23.5t11 -35.5q0 -24 -14.5 -69t-14.5 -61zM417 301q0 1 1.5 10t1.5 12q0 20 -14 20q-6 0 -11 -4.5t-5 -10.5
q0 -7 9.5 -15t17.5 -12z" />
    <glyph glyph-name="r.finx1" horiz-adv-x="587" 
d="M532 184q67 0 67 -25q0 -5 -7 -5q-8 0 -33 5q-12 2 -38 2q-75 0 -131.5 -37.5t-106.5 -106.5q-22 -31 -37 -31q-16 0 -22 28t-6 67t-1 43q-2 11 -9 11q-6 0 -28 -21l-47.5 -46t-61.5 -46t-67 -21q-16 0 -16 11q0 8 11 10q30 4 40 9q12 6 26 15t24 16.5t25.5 22l22.5 21.5
l23.5 23.5l20.5 20.5q21 21 36 21q29 0 29 -67q0 -11 0.5 -32.5t0.5 -32.5q0 -14 7 -14q2 0 8.5 7t13 15t7.5 9q31 37 55 57q85 71 194 71z" />
    <glyph glyph-name="r.finx3" horiz-adv-x="523" 
d="M468 184q67 0 67 -25q0 -5 -7 -5q-8 0 -33 5q-12 2 -38 2q-75 0 -131.5 -37.5t-106.5 -106.5q-25 -31 -37 -31q-16 0 -22.5 27.5t-6 67t-0.5 43.5q-2 11 -9 11t-15 -8q-30 -27 -64 -42q-27 -12 -66 -12q-11 0 -11 11t11 11q29 0 50 8q30 11 68 47q21 21 36 21
q29 0 29 -67q0 -11 0.5 -32.5t0.5 -32.5q0 -14 7 -14q2 0 8.5 7t13 15t7.5 9q31 37 55 57q85 71 194 71z" />
    <glyph glyph-name="r.finx4" horiz-adv-x="544" 
d="M79 113q-13 0 -26.5 3t-31 8.5t-25.5 7.5h-1q-7 3 -7 10q0 10 11 10q5 0 7 -1q53 -16 69 -16q27 0 60 15.5t41 15.5q27 0 27 -46q0 -14 0.5 -41t0.5 -40q0 -10 4 -13l3 -1q2 0 8.5 7t13 15t7.5 9q37 42 64.5 63.5t71.5 41.5q51 23 114 23q66 0 66 -25q0 -5 -7 -5
q-8 0 -33 5q-12 2 -38 2q-102 0 -187 -82q-18 -18 -50 -62q-25 -31 -38 -31q-15 0 -21.5 27t-7 68.5t-0.5 42.5q-2 11 -11 11q-6 0 -18 -6q-29 -16 -66 -16z" />
    <glyph glyph-name="r.finx1b" horiz-adv-x="694" 
d="M640 184q66 0 66 -25q0 -5 -7 -5q-6 0 -18 2.5t-15 2.5q-12 2 -38 2q-102 0 -187 -82q-18 -18 -50 -62q-25 -31 -38 -31q-16 0 -22 28t-6 67t-1 43q-2 10 -8 10t-15 -7q-79 -53 -141 -85q-78 -41 -161 -41q-11 0 -11 11q0 10 11 10q41 0 86 15q82 26 204 115q21 17 38 17
q27 0 27 -65v-65q0 -14 7 -14q2 0 8.5 7t13 15t7.5 9q36 40 56 57q85 71 194 71z" />
    <glyph glyph-name="r.finx5" horiz-adv-x="750" 
d="M695 184q67 0 67 -25q0 -5 -7 -5q-8 0 -33 5q-12 2 -38 2q-75 0 -132 -37.5t-106 -106.5q-22 -31 -37 -31q-16 0 -22 27t-6.5 68.5t-0.5 42.5q-2 13 -12 13q-12 0 -138.5 -65t-159.5 -86q-67 -45 -70 -45q-11 0 -11 10q0 5 3 8q8 7 46 32q41 28 106 61l198 102
q32 16 41 16q26 0 26 -52q0 -14 0.5 -40t0.5 -39q0 -9 4 -13l3 -1q2 0 8.5 7t13 15t7.5 9q36 41 63.5 63t72.5 42q50 23 113 23z" />
    <glyph glyph-name="s.medx1y3" horiz-adv-x="546" 
d="M513 72q5 -52 -50.5 -90.5t-110.5 -38.5q-63 0 -63 44q0 27 28 51q38 33 159 50q-14 29 -67 71.5t-65 56.5q-102 -98 -186 -157q-46 -33 -77.5 -45.5t-80.5 -12.5q-12 0 -12 10q0 11 11 11q50 0 109 34l31 19.5l28 19t30 23l26.5 21.5t28.5 25l25 22.5l27.5 26t25.5 23.5
q-9 14 -9 28q0 31 23.5 62t53.5 31q14 0 22.5 -9t8.5 -23q0 -40 -63 -90l-1 -1h-1q20 -19 58.5 -51t52.5 -45q21 -18 32 -45q20 2 38 2q11 0 11 -11t-11 -11q-18 0 -32 -1zM352 -36q43 0 86 28.5t43 69.5v6q-22 -2 -44.5 -6t-53 -12.5t-49.5 -24t-19 -35.5q0 -26 37 -26z
M392 327q-14 0 -27 -22.5t-13 -37.5q0 -8 1 -11q48 44 48 62q0 9 -9 9z" />
    <glyph glyph-name="s.medx3y3" horiz-adv-x="441" 
d="M409 72q6 -53 -49.5 -91t-110.5 -38q-26 0 -45 10.5t-19 33.5q0 26 29 51q37 32 160 50q-13 29 -67.5 72.5t-65.5 55.5q-80 -77 -119 -103q-62 -40 -123 -40q-11 0 -11 11t11 11q26 0 47 7q66 23 180 133q-8 16 -8 32q0 29 24 59.5t53 30.5q14 0 22.5 -9t8.5 -23
q0 -41 -64 -90l-1 -1h-1q21 -20 63.5 -55.5l48.5 -40.5q22 -19 32 -45q20 2 38 2q11 0 11 -11t-11 -11q-19 0 -33 -1zM249 -36q43 0 86.5 29t43.5 69v6q-22 -2 -45 -6t-53.5 -12.5t-49.5 -24t-19 -35.5q0 -26 37 -26zM288 327q-14 0 -27 -23t-13 -38v-3l1 -7q48 44 48 62
q0 9 -9 9z" />
    <glyph glyph-name="s.medx1by3" horiz-adv-x="644" 
d="M610 72q8 -54 -47 -91.5t-112 -37.5q-26 0 -45 10.5t-19 33.5q0 26 29 51q39 34 159 51q-14 29 -67 71t-65 56l-1 -1q-114 -101 -173 -134q-144 -80 -271 -80q-10 0 -10 11q0 10 10 10q52 0 90 11q30 8 120 45q88 38 178 118l42 40q-8 16 -8 31q0 29 24 59.5t53 30.5
q14 0 22.5 -9t8.5 -23q0 -19 -9 -34t-30.5 -34t-25.5 -23l111 -96q22 -19 32 -45q20 2 38 2q11 0 11 -11t-11 -11q-20 0 -34 -1zM451 -36q44 0 87 28t42 71v6q-22 -2 -45 -6.5t-53 -13t-49 -24t-19 -35.5q0 -26 37 -26zM491 327q-14 0 -27 -22.5t-13 -37.5q0 -8 1 -11
q48 44 48 62q0 9 -9 9z" />
    <glyph glyph-name="s.finx1" horiz-adv-x="499" 
d="M363 234q21 -20 63.5 -55.5l48.5 -40.5q36 -33 36 -68q0 -37 -22 -64.5t-57 -41.5t-69.5 -20.5t-68.5 -6.5q-8 0 -18 4t-10 11q0 13 24 13q54 0 85 8q62 15 89 53q13 17 13 43q0 24 -24 50.5t-61.5 55.5t-47.5 40q-112 -104 -186 -156q-47 -33 -78.5 -45.5t-80.5 -12.5
q-11 0 -11 10q0 11 11 11q50 0 109 34q13 7 32 21q84 61 147 119l42 40q-8 16 -8 31q0 29 24 59.5t53 30.5q14 0 22.5 -9t8.5 -23q0 -41 -64 -90q-1 0 -1 -0.5t-1 -0.5zM392 327q-14 0 -27.5 -23t-13.5 -38v-3l1 -7q49 45 49 62q0 9 -9 9z" />
    <glyph glyph-name="s.finx3" horiz-adv-x="395" 
d="M259 234q21 -20 63.5 -55.5l48.5 -40.5q36 -33 36 -68q0 -37 -22 -64.5t-57 -41.5t-69.5 -20.5t-68.5 -6.5q-8 0 -18 4t-10 11q0 13 24 13q54 0 85 8q62 15 89 53q13 17 13 43q0 24 -24 50.5t-61.5 56t-47.5 39.5q-1 -1 -28 -26.5t-33 -30t-30 -24.5t-36 -26l-33.5 -17
t-40.5 -14.5t-40 -3.5q-11 0 -11 11t11 11q25 0 46 7q31 11 67 36.5t56.5 44l56.5 52.5q-8 16 -8 32q0 29 24 59.5t53 30.5q14 0 22.5 -9t8.5 -23q0 -41 -64 -90q-1 0 -1 -0.5t-1 -0.5zM287 327q-14 0 -27 -23t-13 -38v-3l1 -7q48 44 48 62q0 9 -9 9z" />
    <glyph glyph-name="s.finx1b" horiz-adv-x="599" 
d="M463 234l34.5 -31l41.5 -35t35 -30q37 -32 37 -70q0 -46 -38 -77.5t-89 -43.5q-41 -10 -90 -10q-8 0 -18 4t-10 11q0 13 24 13q53 0 85 8q62 15 89 53q13 17 13 43q0 24 -25 51t-61.5 55.5t-47.5 40.5l-1 -1q-2 -2 -17.5 -15.5t-19 -17t-17.5 -15.5t-20 -16.5t-18 -14.5
t-20 -15.5l-19 -13.5t-21.5 -14l-20.5 -12q-144 -80 -270 -80q-11 0 -11 10q0 11 11 11q51 0 89 11q30 8 120 45q38 16 92 52t87 66l42 40q-8 16 -8 31q0 29 24 59.5t53 30.5q14 0 22.5 -9t8.5 -23q0 -41 -64 -90q-1 0 -1 -0.5t-1 -0.5zM491 327q-14 0 -27 -22.5t-13 -37.5
q0 -2 0.5 -5.5t0.5 -5.5q48 44 48 63q0 8 -9 8z" />
    <glyph glyph-name="s.finx5" horiz-adv-x="548" 
d="M412 234l34.5 -31l41.5 -35t35 -30q37 -32 37 -70q0 -46 -38 -77.5t-89 -43.5q-41 -10 -90 -10q-8 0 -18 4t-10 11q0 13 24 13q54 0 85 8q62 15 89 53q13 17 13 43q0 24 -25 51t-61.5 55.5t-47.5 40.5q-84 -68 -144 -112l-54.5 -38l-68.5 -44t-56 -36q-67 -45 -69 -45
q-11 0 -11 10q0 5 3 8q4 4 46 32l176 118q68 48 164 127q-8 16 -8 31q0 29 24 59.5t53 30.5q14 0 22.5 -9t8.5 -23q0 -41 -64 -90l-1 -1h-1zM400 267q0 -2 0.5 -5.5t0.5 -5.5q48 44 48 63q0 8 -9 8q-14 0 -27 -22.5t-13 -37.5z" />
    <glyph glyph-name="t.iniy1" horiz-adv-x="288" 
d="M319 276q16 0 16 -4q0 -22 -87 -27v-1q-3 -8 -4 -10q-33 -77 -33 -128q0 -45 24 -65q19 -16 52 -19q11 -2 11 -10q0 -11 -11 -11q-46 0 -72.5 26.5t-26.5 72.5q0 16 9 65q-20 -31 -37 -49q-107 -113 -164 -113q-26 0 -26 13q0 4 6 6.5t15 4t10 1.5q31 8 76 44
q84 66 129 171q-30 -2 -46 -2q-32 0 -32 16q0 18 91 18q1 2 6 15t9.5 22.5t11 18.5t12.5 9q15 0 15 -28q0 -8 -11 -36h57z" />
    <glyph glyph-name="t.medx1y1" horiz-adv-x="314" 
d="M342 276q16 0 16 -4q0 -22 -87 -27v-1q-3 -8 -4 -10q-33 -74 -33 -129q0 -41 24 -62q18 -16 55 -21q11 -2 11 -10q0 -11 -11 -11q-45 0 -73.5 28t-28.5 73q0 23 8 63q-31 -54 -99 -109t-121 -55q-11 0 -11 11q0 8 11 10q43 6 101 50q82 63 129 171q-32 -2 -47 -2
q-31 0 -31 16q0 18 91 18q25 65 39 65q15 0 15 -31q0 -7 -11 -33h57z" />
    <glyph glyph-name="t.medx3y1" horiz-adv-x="313" 
d="M342 276q16 0 16 -4q0 -22 -87 -27v-1q-37 -76 -37 -139q0 -42 23 -62q19 -15 56 -21q11 -2 11 -10q0 -11 -11 -11q-45 0 -73.5 27.5t-28.5 71.5q0 24 11 81l-19 -17q-102 -91 -204 -91q-11 0 -11 11t11 11q61 0 117 34q83 52 113 114q-32 -2 -47 -2q-31 0 -31 16
q0 18 91 18q25 65 39 65t14 -28q0 -12 -10 -36h57z" />
    <glyph glyph-name="t.medx1by1" horiz-adv-x="506" 
d="M535 276q16 0 16 -4q0 -22 -87 -27v-1q-37 -81 -37 -139q0 -42 23 -62q17 -15 57 -21q10 -2 10 -10q0 -11 -10 -11q-46 0 -75 28t-29 73q0 17 12 79q-70 -70 -195.5 -125t-220.5 -55q-11 0 -11 11q0 10 15 10q54 1 147 33q194 65 258 162q11 18 13 26q-30 -2 -46 -2
q-31 0 -31 16q0 18 91 18q25 65 39 65t14 -28q0 -12 -10 -36q8 1 17.5 1t21.5 -0.5t18 -0.5z" />
    <glyph glyph-name="t.medx5y1" horiz-adv-x="497" 
d="M526 276q16 0 16 -4q0 -22 -87 -27v-1l-4 -10q-33 -74 -33 -129q0 -41 24 -62q18 -16 55 -21q11 -2 11 -10q0 -11 -11 -11q-45 0 -73.5 28t-28.5 73q0 8 11 79q-45 -45 -143 -96l-61.5 -29.5l-72 -36t-59.5 -33.5l-20 -14t-32 -21.5t-18 -9.5q-4 0 -7.5 3t-3.5 7t4 8
q6 6 45 32q46 31 138.5 77.5t112.5 57.5q55 30 86 61q23 23 38 56q-32 -2 -47 -2q-31 0 -31 17t91 17q25 65 39 65q15 0 15 -31q0 -7 -11 -33h57z" />
    <glyph glyph-name="t.finx1" horiz-adv-x="420" 
d="M318 23q28 0 52.5 10t39.5 21.5t17 11.5h3q2 0 2 -6q0 -26 -41 -41.5t-72 -15.5q-49 0 -78.5 26t-29.5 73q0 12 3.5 34t4.5 29q-31 -54 -99 -109t-121 -55q-11 0 -11 11q0 8 11 10q43 6 101 50q82 63 129 171q-32 -2 -47 -2q-31 0 -31 17t91 17q25 65 39 65q15 0 15 -31
q0 -7 -11 -33h57q16 0 16 -4q0 -22 -87 -27v-1l-4 -10q-33 -74 -33 -129q0 -39 22.5 -60.5t61.5 -21.5z" />
    <glyph glyph-name="t.finx3" horiz-adv-x="420" 
d="M318 23q26 0 52.5 10.5t41.5 21.5l16 11q4 0 4 -6q0 -25 -41.5 -41t-72.5 -16q-48 0 -77.5 25t-29.5 72q0 24 11 81l-19 -17q-102 -91 -204 -91q-11 0 -11 11t11 11q61 0 117 34q74 46 100 88q5 8 13 26q-32 -2 -47 -2q-31 0 -31 16q0 18 91 18q25 65 39 65t14 -28
q0 -12 -10 -36h57q16 0 16 -4q0 -22 -87 -27v-1q-37 -76 -37 -139q0 -39 22.5 -60.5t61.5 -21.5z" />
    <glyph glyph-name="t.finx1b" horiz-adv-x="613" 
d="M511 23q28 0 52.5 10t39.5 21.5t17 11.5h3q2 0 2 -6q0 -25 -41.5 -41t-71.5 -16q-48 0 -78 25.5t-30 72.5q0 23 11 80q-70 -70 -195.5 -125t-220.5 -55q-11 0 -11 11q0 10 15 10q49 1 147 33q155 50 234 132q16 16 25 30q5 8 13 26q-32 -2 -47 -2q-31 0 -31 16
q0 18 91 18q25 65 39 65t14 -28q0 -12 -10 -36q5 1 15 1q52 0 55 -1q3 -2 3 -4q0 -22 -87 -27v-1q-13 -28 -25 -70t-12 -69q0 -39 22.5 -60.5t61.5 -21.5z" />
    <glyph glyph-name="t.finx5" horiz-adv-x="604" 
d="M502 23q28 0 52.5 10t39.5 21.5t17 11.5h3q2 0 2 -6q0 -26 -41 -41.5t-72 -15.5q-48 0 -78 25.5t-30 72.5q0 23 11 80q-45 -45 -143 -96l-61.5 -29.5l-72 -36t-59.5 -33.5q-67 -45 -70 -45q-11 0 -11 10q0 5 3 8q4 4 46 32q45 31 136.5 76.5t114.5 58.5q60 34 86 61
q23 23 38 56q-32 -2 -47 -2q-31 0 -31 16q0 18 91 18q25 65 39 65t14 -28q0 -12 -10 -36q5 1 15 1q52 0 55 -1q3 -2 3 -4q0 -22 -87 -27v-1q-13 -28 -25 -70t-12 -69q0 -39 22.5 -60.5t61.5 -21.5z" />
    <glyph glyph-name="u.iniy1" horiz-adv-x="375" 
d="M255 181q13 0 18.5 -13t6 -37.5t0.5 -26.5q4 -31 26 -53t53 -27q2 0 7.5 -1t9.5 -1.5t7.5 -3t3.5 -6.5q0 -11 -11 -11q-52 0 -90 32t-47 84q-4 -13 -18 -37q-60 -105 -133 -105q-38 0 -58 26t-20 65q0 31 13 79.5t35 48.5q18 0 18 -17q0 -9 -16.5 -46.5t-16.5 -63.5
q0 -62 50 -62q20 0 34 10q14 9 25.5 20.5t21 27t15 25.5t15.5 31.5t14 28.5q15 33 37 33z" />
    <glyph glyph-name="u.medx1y1" horiz-adv-x="579" 
d="M295 4q19 0 35 11q12 8 22.5 18.5t17.5 18.5t15.5 23t12 22.5l12.5 26l12 24.5q16 33 37 33q14 0 19 -13t5.5 -37.5t0.5 -26.5q4 -31 26.5 -52.5t53.5 -27.5q2 0 7.5 -1t9 -1.5t7 -3t3.5 -6.5q0 -11 -11 -11q-53 0 -90 32t-47 84q-3 -12 -18 -37q-62 -105 -134 -105
q-37 0 -57 26.5t-20 64.5q0 23 6 45q-37 -47 -110 -85q-49 -25 -112 -25q-10 0 -10 11q0 10 10 10q59 0 100 24q75 43 111 97q33 51 51 51q9 0 14.5 -6.5t5.5 -15.5q0 -11 -18.5 -49t-18.5 -65q0 -24 14 -39t38 -15z" />
    <glyph glyph-name="u.medx3y1" horiz-adv-x="529" 
d="M245 4q19 0 35 11q12 8 22.5 18.5t17.5 18.5t15.5 23t12 22.5l12.5 26l12 24.5q16 33 37 33q14 0 19 -13t5.5 -37.5t0.5 -26.5q4 -31 26.5 -52.5t53.5 -27.5q2 0 7.5 -1t9 -1.5t7 -3t3.5 -6.5q0 -11 -11 -11q-53 0 -90 32t-47 84q-3 -12 -18 -37q-62 -105 -134 -105
q-37 0 -57 26.5t-20 64.5q0 18 20 86q-44 -39 -115 -67q-29 -12 -70 -12q-11 0 -11 11t10 11q21 0 50 9q31 10 59 28q6 3 30 19.5t45 29.5t28 13q20 0 20 -22q0 -11 -18.5 -49t-18.5 -65q0 -24 14 -39t38 -15z" />
    <glyph glyph-name="u.medx1by1" horiz-adv-x="709" 
d="M425 5q21 0 35 10q12 7 22.5 17.5t17.5 19.5t15.5 24t12.5 23l12.5 26l11.5 24q17 32 36 32q11 0 17 -9.5t7 -21t1 -27t1 -19.5q4 -31 26 -53t53 -27q2 0 7.5 -1t9.5 -1.5t7.5 -3t3.5 -6.5q0 -11 -11 -11q-52 0 -90 32t-47 84q-23 -55 -63 -98t-89 -43q-36 0 -57 25
t-21 62q0 10 2 21t5.5 24.5t4.5 20.5q-9 -4 -26 -14.5t-26 -15.5q-190 -98 -305 -98q-10 0 -10 11q0 10 14 10q73 1 203 57q46 20 78 41q15 9 41 29q3 2 18.5 15t28 21.5t19.5 8.5q9 0 14.5 -6.5t5.5 -15.5q0 -11 -18.5 -49t-18.5 -65q0 -24 14 -38.5t38 -14.5z" />
    <glyph glyph-name="u.medx5y1" horiz-adv-x="664" 
d="M544 181q13 0 18 -13t5.5 -37t0.5 -27q4 -30 27 -52.5t53 -27.5q2 0 7.5 -1t9.5 -1.5t7.5 -3t3.5 -6.5q0 -11 -11 -11q-52 0 -90 32t-47 84q-23 -55 -63 -98t-89 -43q-36 0 -57 24.5t-21 61.5q0 36 17 75q-64 -28 -158 -87q-36 -23 -75.5 -51.5l-59 -43t-23.5 -14.5
q-10 0 -10 10q0 5 4 9q155 123 286 193l17 10q17 10 27.5 14.5t18.5 4.5q20 0 20 -15q0 -10 -17 -46t-17 -63q0 -24 14 -38.5t38 -14.5q20 0 34 10q8 5 15 11t13.5 13.5l11.5 13t11 15t9.5 14.5t9 16.5l7.5 15.5t8 17.5t8 16.5q17 33 37 33z" />
    <glyph glyph-name="u.finx1" horiz-adv-x="569" 
d="M577 25q4 0 4 -4q0 -11 -16 -17.5t-29 -6.5q-41 0 -64 37t-28 83q-3 -12 -18 -37q-63 -105 -134 -105q-35 0 -56.5 25.5t-21.5 61.5q0 21 7 49q-37 -47 -110 -85q-49 -25 -112 -25q-11 0 -11 11q0 10 11 10q59 0 100 24q30 17 62 44t49 53q33 51 51 51q9 0 14.5 -6.5
t5.5 -15.5q0 -11 -18.5 -49t-18.5 -65q0 -24 14 -39t38 -15q19 0 35 11q10 7 19 14.5t17 18l13 17t12 20.5t10 19.5t11 22.5l10 21q17 33 37 33q24 0 24 -40q0 -7 -1.5 -19t-1.5 -19q0 -34 13.5 -59t44.5 -25q7 0 19 3t19 3z" />
    <glyph glyph-name="u.finx3" 
d="M527 25q4 0 4 -4q0 -11 -16 -17.5t-29 -6.5q-41 0 -64 37t-28 83q-23 -55 -63.5 -98.5t-89.5 -43.5q-35 0 -56 25.5t-21 61.5q0 25 21 90q-96 -79 -186 -79q-11 0 -11 11t11 11q23 0 50 9q31 10 59 28q5 3 29 19.5t45 29.5t28 13q9 0 15 -6t6 -15q0 -10 -18.5 -49
t-18.5 -66q0 -25 13.5 -39.5t38.5 -14.5q18 0 34 11q15 10 26 21t21.5 27.5l15 24t15.5 31.5t14 29q16 33 37 33q25 0 25 -41q0 -6 -1.5 -18.5t-1.5 -19.5q0 -34 13 -58.5t44 -24.5q6 0 19 3t20 3z" />
    <glyph glyph-name="u.finx1b" horiz-adv-x="698" 
d="M703 25q7 0 7 -4q0 -7 -6 -11.5t-14.5 -7.5t-10.5 -4q-4 -1 -13 -1q-42 0 -65.5 36.5t-27.5 83.5q-3 -12 -18 -37q-63 -104 -134 -104q-36 0 -57 25t-21 62q0 10 2 21t5.5 24.5t4.5 20.5q-9 -4 -26 -14.5t-26 -15.5q-187 -98 -304 -98q-11 0 -11 11q0 10 14 10
q73 1 203 57q46 20 78 41q15 9 41 29q3 2 18.5 15t28 21.5t19.5 8.5q9 0 14.5 -6.5t5.5 -15.5q0 -11 -18.5 -49t-18.5 -65q0 -24 14 -38.5t38 -14.5q21 0 35 10q12 7 22.5 17.5t17.5 19.5t15.5 24t12.5 23l12.5 26l11.5 24q17 32 37 32q24 0 24 -40q0 -6 -1.5 -18t-1.5 -18
q0 -34 13.5 -60t44.5 -26q6 0 18 3t17 3z" />
    <glyph glyph-name="u.finx5" horiz-adv-x="653" 
d="M362 167q0 -11 -17.5 -46.5t-17.5 -62.5q0 -24 14 -38.5t39 -14.5q20 0 34 10q12 8 22.5 18.5t17 18t16 24.5t12 22l13 27l11.5 24q16 32 37 32q25 0 25 -40q0 -7 -1.5 -20t-1.5 -19q0 -34 13 -58.5t44 -24.5q7 0 19 3t18 3t6 -4q0 -17 -31 -23q-4 -1 -13 -1
q-42 0 -65.5 36.5t-27.5 83.5q-23 -55 -63.5 -98t-89.5 -43q-35 0 -56 25t-21 61q0 39 17 75q-64 -28 -158 -87q-36 -23 -75.5 -51.5l-59 -43t-23.5 -14.5q-10 0 -10 10q0 5 4 9q147 116 288 192q3 2 17 10.5t25 14t19 5.5q20 0 20 -15z" />
    <glyph glyph-name="w.finx1" horiz-adv-x="522" 
d="M472 199q27 0 44.5 -44.5t17.5 -76.5q0 -35 -22.5 -63t-56.5 -28q-31 0 -51.5 27.5t-29.5 63.5q-63 -103 -122 -103q-36 0 -55 28t-19 66q0 24 6 48q-42 -57 -95 -90q-26 -16 -43 -21t-47 -5q-11 0 -11 11q0 10 11 10q39 0 76 24q44 29 91 97q33 51 51 51t18 -23
q0 -12 -13.5 -47t-13.5 -57q0 -23 10.5 -42.5t31.5 -19.5q14 0 31 11q14 9 23.5 18.5t17 21t11.5 20t11 25l11 25.5q7 15 20 15q19 0 23 -23q6 -32 22 -66t40 -34q21 0 35 24t14 46q0 47 -28 84q0 1 -7.5 10t-8.5 11v3q0 3 7 3z" />
    <glyph glyph-name="w.finx3" horiz-adv-x="468" 
d="M417 199q28 0 45.5 -44t17.5 -77q0 -35 -22.5 -63t-56.5 -28q-31 0 -51.5 27.5t-29.5 63.5q-63 -103 -122 -103q-13 0 -22 4q-51 18 -51 87q0 45 15 72q-68 -65 -140 -65q-12 0 -12 11t11 11q48 0 85 28q7 5 21.5 21.5t28 28.5t24.5 12q20 0 20 -24q0 -8 -12 -41.5
t-12 -54.5q0 -22 10.5 -41t31.5 -19q15 0 31 11q13 9 23 18t17.5 21t11.5 19t12 25.5l11 25.5q8 16 19 16q19 0 23 -24q4 -30 21 -64.5t41 -34.5q21 0 35.5 24t14.5 47q0 19 -8 44t-20 39q-1 1 -5.5 6l-8 9t-3.5 6v3z" />
    </font>
</defs>
</svg>
