<?xml version="1.0" standalone="no"?>
<!DOCTYPE svg PUBLIC "-//W3C//DTD SVG 1.1//EN" "http://www.w3.org/Graphics/SVG/1.1/DTD/svg11.dtd" >
<svg xmlns="http://www.w3.org/2000/svg">
<metadata></metadata>
<defs>
<font id="naturasansbold" horiz-adv-x="1300" >
<font-face units-per-em="2048" ascent="1577" descent="-471" />
<missing-glyph horiz-adv-x="438" />
<glyph unicode="&#xfb01;" horiz-adv-x="1214" d="M25 983q0 26 18 38t57 15l84 4q7 114 39.5 207t91 164.5t151 110.5t212.5 39q110 0 201 -31q82 -28 82 -80q0 -31 -18.5 -47.5t-49.5 -18.5q-39 0 -72 21q-89 57 -155 57q-50 0 -88 -18.5t-61 -50t-37 -78.5t-19.5 -97t-5.5 -112v-62h143q74 0 74 -59q0 -57 -74 -57h-143 v-836q0 -49 -38 -74.5t-98 -25.5q-59 0 -97 25.5t-38 74.5v836l-84 6q-41 3 -58 13.5t-17 35.5zM788 92v866q0 49 39 76t97 27q59 0 97 -27t38 -76v-866q0 -49 -37.5 -74.5t-97.5 -25.5q-59 0 -97.5 25.5t-38.5 74.5z" />
<glyph unicode="&#xfb02;" horiz-adv-x="1193" d="M25 983q0 26 18 38t57 15l84 4q7 114 39.5 207t91 164.5t151 110.5t212.5 39q93 0 186 -27q24 6 54 6q58 0 91 -26t33 -76v-1346q0 -49 -37.5 -74.5t-97.5 -25.5q-59 0 -97 25.5t-38 74.5v1342q-60 28 -106 28q-50 0 -88 -18.5t-61 -50t-37 -78.5t-19.5 -97t-5.5 -112 v-62h135q74 0 74 -59q0 -57 -74 -57h-135v-836q0 -49 -38 -74.5t-98 -25.5q-59 0 -97 25.5t-38 74.5v836l-84 6q-41 3 -58 13.5t-17 35.5z" />
<glyph horiz-adv-x="0" />
<glyph horiz-adv-x="682" />
<glyph unicode=" "  horiz-adv-x="438" />
<glyph unicode="&#x09;" horiz-adv-x="438" />
<glyph unicode="&#xa0;" horiz-adv-x="438" />
<glyph unicode="!" horiz-adv-x="651" d="M172 104q0 54 43 86.5t111 32.5t110.5 -32.5t42.5 -86.5q0 -55 -42.5 -87.5t-110.5 -32.5t-111 32.5t-43 87.5zM180 1356q0 55 38.5 87t109.5 32q64 0 104.5 -32t40.5 -87q0 -47 -10 -135l-84 -775q-2 -22 -16 -34.5t-37 -12.5t-38 12.5t-16 34.5l-82 777q-10 88 -10 133 z" />
<glyph unicode="&#x22;" horiz-adv-x="772" d="M92 1372q0 90 115 90q57 0 87 -24t30 -64q0 -33 -13 -98l-47 -248q-5 -25 -16.5 -38t-38.5 -13q-46 0 -57 51l-50 254q-10 40 -10 90zM449 1372q0 90 114 90q57 0 87 -24t30 -64q0 -38 -12 -98l-47 -248q-5 -25 -17 -38t-39 -13q-46 0 -57 51l-49 254q-10 40 -10 90z" />
<glyph unicode="#" horiz-adv-x="1505" d="M53 479q0 27 15 43.5t41 16.5h219l59 372h-199q-55 0 -55 56q0 27 14.5 43t40.5 16h218l49 315q17 113 133 113q50 0 81 -21t31 -61q0 -21 -8 -67l-45 -279h309l54 315q17 113 123 113q50 0 81 -21t31 -61q0 -21 -8 -67l-45 -279h205q55 0 55 -55q0 -27 -14.5 -43.5 t-40.5 -16.5h-223l-58 -372h201q55 0 55 -56q0 -27 -14.5 -43t-40.5 -16h-219l-51 -328q-17 -112 -134 -112q-50 0 -81 21t-31 61q0 21 8 67l47 291h-303l-51 -328q-17 -112 -133 -112q-50 0 -81.5 21t-31.5 61q0 21 8 67l45 291h-200q-56 0 -56 55zM571 539h306l61 372 h-309z" />
<glyph unicode="$" horiz-adv-x="1214" d="M94 248q0 30 20.5 50.5t53.5 20.5q44 0 100 -65q58 -67 143.5 -103t180.5 -36q140 0 220.5 65t80.5 168q0 105 -74 165t-231 97q-92 21 -156.5 41t-131.5 54t-107.5 76t-66.5 106.5t-26 146.5q0 169 118 275t308 127v178q0 35 25 52t63 17q39 0 63.5 -17t24.5 -52v-178 q101 -11 186 -42t134 -77q39 -39 39 -76q0 -30 -19 -46.5t-51 -16.5q-29 0 -50 13.5t-67 57.5q-53 50 -124.5 73.5t-141.5 23.5q-115 0 -192 -52q-94 -65 -94 -182q0 -50 18 -90t45.5 -66.5t72.5 -49t86.5 -35.5t100.5 -27q127 -30 212.5 -64t146.5 -81.5t88.5 -109.5 t27.5 -145q0 -183 -115.5 -290t-318.5 -129v-189q0 -67 -88 -67q-39 0 -63.5 16.5t-24.5 50.5v187q-133 9 -236 52.5t-155 110.5q-25 32 -25 62z" />
<glyph unicode="%" horiz-adv-x="1615" d="M59 1096q0 165 94.5 266.5t237.5 101.5q152 0 242 -91.5t90 -260.5q0 -166 -93 -266.5t-239 -100.5q-154 0 -243 90.5t-89 260.5zM244 27q0 22 20 51l948 1337q26 39 68 39q29 0 53.5 -14t24.5 -37q0 -21 -21 -51l-948 -1338q-26 -39 -67 -39q-29 0 -53.5 14.5 t-24.5 37.5zM270 1098q0 -153 29.5 -212t91.5 -59t91.5 68t29.5 217q0 105 -14.5 165.5t-40 82.5t-66.5 22q-62 0 -91.5 -68t-29.5 -216zM893 336q0 165 93 265.5t239 100.5q154 0 242.5 -90t88.5 -260q0 -165 -94 -266.5t-237 -101.5q-152 0 -242 91.5t-90 260.5zM1104 336 q0 -105 14.5 -165.5t40 -82.5t66.5 -22q62 0 91.5 68t29.5 216q0 153 -29.5 212t-91.5 59t-91.5 -68t-29.5 -217z" />
<glyph unicode="&#x26;" horiz-adv-x="1497" d="M123 360q0 141 85.5 236t254.5 170q-130 117 -177.5 194.5t-47.5 174.5q0 153 127 246.5t315 93.5q76 0 146.5 -17t133 -51.5t100.5 -96.5t38 -143q0 -59 -20 -109t-59 -90.5t-81 -70.5t-102 -63l-144 -78l412 -408q31 71 31 207q0 24 -5 59q-2 16 -2 35q0 33 22.5 56.5 t61.5 23.5q88 0 88 -135q0 -192 -96 -346l117 -115q39 -39 39 -67q0 -25 -18.5 -45.5t-57.5 -20.5q-41 0 -90 49l-80 82q-93 -82 -213 -119t-235 -37q-261 0 -402 97.5t-141 287.5zM391 403q0 -153 88.5 -241t210.5 -88q218 0 338 143q-76 76 -238.5 233.5t-246.5 243.5 q-82 -50 -117 -119.5t-35 -171.5zM489 1155q0 -93 35.5 -165t110.5 -161q30 15 74 45q98 67 128.5 140.5t30.5 177.5q0 83 -50.5 133.5t-133.5 50.5q-82 0 -138.5 -59.5t-56.5 -161.5z" />
<glyph unicode="'" horiz-adv-x="415" d="M92 1372q0 90 115 90q57 0 87 -24t30 -64q0 -33 -13 -98l-47 -248q-5 -25 -16.5 -38t-38.5 -13q-46 0 -57 51l-50 254q-10 40 -10 90z" />
<glyph unicode="(" horiz-adv-x="634" d="M111 625q0 156 29.5 298.5t81 255t111.5 199.5t132 156q39 39 67 39q22 0 38 -11.5t16 -33.5q0 -19 -19 -43q-76 -103 -133 -319.5t-57 -540.5t57 -541t133 -320q19 -24 19 -43q0 -22 -16 -33.5t-38 -11.5q-28 0 -67 39q-72 69 -132 156t-111.5 199.5t-81 255.5 t-29.5 299z" />
<glyph unicode=")" horiz-adv-x="634" d="M49 -279q0 19 19 43q76 103 133 320t57 541t-57 540.5t-133 319.5q-19 24 -19 43q0 22 15.5 33.5t37.5 11.5q29 0 68 -39q72 -69 132 -156t111.5 -199.5t81 -255t29.5 -298.5t-29.5 -299t-81 -255.5t-111.5 -199.5t-132 -156q-39 -39 -68 -39q-22 0 -37.5 11.5 t-15.5 33.5z" />
<glyph unicode="*" horiz-adv-x="692" d="M41 1227q0 36 22.5 61t59.5 25q31 0 98.5 -53t91.5 -64l9 6q-3 26 -30.5 99t-27.5 96q0 37 23 57.5t59 20.5t59 -20.5t23 -57.5q0 -23 -27 -96t-30 -99l8 -6q24 11 91.5 64t98.5 53q37 0 59.5 -25t22.5 -61q0 -35 -27.5 -56.5t-78.5 -21.5q-16 0 -47 1t-56.5 1t-48.5 -2 l-2 -10q19 -19 77.5 -59t78.5 -64q22 -25 22 -55q0 -33 -23 -54.5t-59 -21.5q-47 0 -71 47q-14 26 -33 90t-33 90h-8q-14 -26 -33.5 -90t-32.5 -90q-24 -47 -71 -47q-36 0 -59 21.5t-23 54.5q0 30 22 55q20 24 78.5 64t77.5 59l-2 10q-20 3 -44.5 3t-56.5 -1.5t-51 -1.5 q-51 0 -78.5 21.5t-27.5 56.5z" />
<glyph unicode="+" horiz-adv-x="1179" d="M90 672q0 67 78 67h352v344q0 42 17 60t53 18q69 0 69 -78v-344h353q42 0 60 -16t18 -51q0 -32 -19.5 -50t-58.5 -18h-353v-344q0 -42 -16.5 -60t-52.5 -18q-70 0 -70 78v344h-352q-42 0 -60 16.5t-18 51.5z" />
<glyph unicode="," horiz-adv-x="446" d="M92 -242q0 21 4 64q8 98 8 168q0 18 -2 60t-2 56q0 61 31.5 97.5t93.5 36.5q60 0 87.5 -32.5t27.5 -86.5q0 -119 -147 -371q-21 -33 -54 -33q-47 0 -47 41z" />
<glyph unicode="-" horiz-adv-x="937" d="M90 580q0 32 21 52.5t59 20.5h598q80 0 80 -73q0 -32 -21 -53t-59 -21h-598q-80 0 -80 74z" />
<glyph unicode="." horiz-adv-x="497" d="M82 115q0 58 47 93.5t121 35.5t120 -35.5t46 -93.5q0 -60 -46 -95.5t-120 -35.5t-121 36t-47 95z" />
<glyph unicode="/" horiz-adv-x="630" d="M-82 -188q0 22 8 43l584 1620q12 35 30 50t50 15q28 0 48.5 -14.5t20.5 -40.5q0 -19 -8 -43l-585 -1618q-12 -35 -30.5 -50.5t-49.5 -15.5q-27 0 -47.5 14.5t-20.5 39.5z" />
<glyph unicode="0" horiz-adv-x="1437" d="M98 725q0 228 82.5 400t224 261t320.5 89q277 0 445.5 -195t168.5 -555q0 -171 -48 -313.5t-132 -237.5t-198.5 -147t-247.5 -52q-281 0 -448 194t-167 556zM397 725q0 -334 75.5 -492.5t240.5 -158.5q327 0 327 651q0 332 -75.5 491.5t-239.5 159.5q-328 0 -328 -651z " />
<glyph unicode="1" horiz-adv-x="724" d="M12 1343q0 53 78 58q82 5 197 33q81 20 112 20q63 0 96 -29t33 -73v-1260q0 -49 -39 -74.5t-100 -25.5q-59 0 -97 25.5t-38 74.5v1227q-86 -27 -166 -27q-76 0 -76 51z" />
<glyph unicode="2" horiz-adv-x="1167" d="M61 104q0 63 43 115q60 74 133.5 146.5t243.5 230.5q56 51 91.5 86t82 91t73 104.5t46 113t19.5 131.5q0 112 -65.5 183t-168.5 71q-156 0 -254 -114q-44 -53 -71 -74t-56 -21q-30 0 -49.5 15.5t-19.5 44.5q0 35 30 78q59 76 171 123t259 47q238 0 377 -96t139 -267 q0 -57 -15.5 -110.5t-40 -96t-65.5 -88.5t-80 -81t-96 -81q-30 -24 -258 -200t-278 -224v-8h711q67 0 92.5 -25.5t25.5 -82.5q0 -107 -118 -107h-793q-64 0 -86.5 26t-22.5 70z" />
<glyph unicode="3" horiz-adv-x="1220" d="M66 186q0 33 21.5 55.5t57.5 22.5q31 0 54.5 -17t54.5 -54q106 -119 281 -119q134 0 215 93t81 241q0 61 -18.5 113.5t-57 97t-107.5 69.5t-161 25h-59q-78 0 -78 51q0 55 78 55h70q76 0 133 22t87.5 54t48.5 76.5t23 79.5t5 73q0 115 -62.5 183.5t-165.5 68.5 q-82 0 -142 -28t-114 -88q-34 -37 -48.5 -52t-33.5 -26t-39 -11q-29 0 -49 17t-20 47q0 39 35 80q62 76 173 118t240 42q234 0 372 -95t138 -254q0 -109 -71 -195.5t-228 -123.5v-8q56 -12 104 -31.5t93 -50t76.5 -70.5t50 -95.5t18.5 -121.5q0 -140 -77.5 -244.5 t-210.5 -157.5t-302 -53q-143 0 -255.5 33t-172.5 98q-38 44 -38 80z" />
<glyph unicode="4" horiz-adv-x="1308" d="M45 438q0 49 41 113q143 200 225 311q161 217 373 494q36 48 79 73t118 25q89 0 134.5 -36.5t45.5 -96.5v-799h102q59 0 84 -23t25 -71q0 -43 -27 -68.5t-82 -25.5h-102v-242q0 -49 -39 -74.5t-100 -25.5q-59 0 -97.5 25.5t-38.5 74.5v242h-632q-109 0 -109 104zM219 522 h567v295q0 314 13 498h-8q-27 -40 -185 -258l-190 -260q-23 -31 -96.5 -130t-100.5 -137v-8z" />
<glyph unicode="5" horiz-adv-x="1193" d="M66 186q0 33 21.5 55.5t57.5 22.5q31 0 54.5 -17t54.5 -54q106 -119 281 -119q80 0 139.5 30t93.5 82.5t50 117t16 140.5q0 135 -73.5 221.5t-199.5 86.5q-74 0 -136.5 -19.5t-143.5 -77.5q-31 -20 -64 -20q-35 0 -57.5 19t-18.5 61l54 590q7 72 50 106.5t103 34.5h615 q66 0 92 -26t26 -83q0 -106 -118 -106h-648l-49 -426h8q124 110 340 110q239 0 374.5 -123t135.5 -341t-156.5 -347t-435.5 -129q-143 0 -255.5 33t-172.5 98q-38 44 -38 80z" />
<glyph unicode="6" horiz-adv-x="1314" d="M98 678q0 362 176 579.5t469 217.5q268 0 390 -119q41 -41 41 -78q0 -29 -21.5 -49.5t-52.5 -20.5q-28 0 -51.5 15.5t-73.5 62.5q-55 52 -106.5 71t-125.5 19q-115 0 -198.5 -83t-124.5 -220t-41 -311v-31h8q55 101 153.5 151t209.5 50q236 0 361.5 -123.5t125.5 -333.5 q0 -141 -76 -256.5t-204.5 -179.5t-280.5 -64q-187 0 -318 90.5t-194 235.5q-66 155 -66 377zM403 444q0 -112 37 -198q70 -172 236 -172q126 0 202 102t76 260q0 176 -61.5 275.5t-192.5 99.5q-164 0 -247 -152q-50 -92 -50 -215z" />
<glyph unicode="7" horiz-adv-x="1081" d="M12 1337q0 56 27 82.5t94 26.5h815q121 0 121 -94q0 -68 -45 -127q-108 -142 -192 -286.5t-142.5 -289t-97.5 -270t-76 -277.5q-24 -102 -141 -102q-63 0 -96 27t-33 71q0 19 6 43q38 130 96 259t116.5 230.5t140.5 216.5t143 192t149 182v10h-766q-119 0 -119 106z" />
<glyph unicode="8" horiz-adv-x="1314" d="M78 385q0 156 109 260t268 129v8q-145 20 -224 105t-79 209q0 164 145.5 271.5t368.5 107.5q235 0 372.5 -93.5t137.5 -267.5q0 -122 -77.5 -208t-224.5 -118v-8q363 -68 363 -377q0 -132 -76.5 -230t-207.5 -148t-298 -50q-269 0 -423 106t-154 304zM358 397 q0 -165 82.5 -244t214.5 -79q62 0 115 19.5t95.5 58t66.5 103t24 148.5q0 145 -79.5 231.5t-214.5 86.5q-137 0 -220.5 -89.5t-83.5 -234.5zM414 1098q0 -133 72 -208t176 -75q107 0 179 73t72 212q0 79 -21 135t-58.5 85.5t-78.5 42.5t-89 13q-49 0 -92 -15t-80 -46.5 t-58.5 -87t-21.5 -129.5z" />
<glyph unicode="9" d="M82 983q0 213 155 352.5t392 139.5q186 0 317 -87t193 -229q38 -89 50.5 -175.5t12.5 -199.5q0 -238 -82 -422.5t-229.5 -285.5t-337.5 -101q-124 0 -227 29.5t-162 85.5q-41 41 -41 78q0 29 21.5 49.5t52.5 20.5q28 0 51.5 -15.5t73.5 -62.5q54 -49 105 -67.5t124 -18.5 q112 0 197.5 83t129.5 222t44 311v41h-9q-54 -100 -149 -148t-205 -48q-223 0 -350 122t-127 326zM362 1016q0 -363 244 -363q92 0 159 50.5t99.5 131t32.5 179.5q0 110 -35 198q-66 164 -233 164q-123 0 -195 -101t-72 -259z" />
<glyph unicode=":" horiz-adv-x="595" d="M131 115q0 58 47 93.5t121 35.5t120 -35.5t46 -93.5q0 -60 -46 -95.5t-120 -35.5t-121 36t-47 95zM131 741q0 58 47 93.5t121 35.5t120 -35.5t46 -93.5q0 -60 -46 -95.5t-120 -35.5t-121 36t-47 95z" />
<glyph unicode=";" horiz-adv-x="595" d="M131 741q0 58 47 93.5t121 35.5t120 -35.5t46 -93.5q0 -60 -46 -95.5t-120 -35.5t-121 36t-47 95zM156 -242q0 21 4 64q8 98 8 168q0 18 -2 60t-2 56q0 61 31.5 97.5t93.5 36.5q59 0 86.5 -32.5t27.5 -86.5q0 -119 -147 -371q-21 -33 -53 -33q-47 0 -47 41z" />
<glyph unicode="&#x3c;" horiz-adv-x="800" d="M33 590q0 22 9 38t32 36l501 411q40 31 66 31q29 0 49.5 -18.5t20.5 -43.5q0 -31 -37 -63l-486 -379l486 -401q37 -29 37 -64q0 -25 -20.5 -43t-49.5 -18q-28 0 -66 30l-501 410q-23 20 -32 36t-9 38z" />
<glyph unicode="=" horiz-adv-x="1118" d="M90 496q0 67 78 67h782q42 0 60 -16t18 -51q0 -32 -19.5 -50t-58.5 -18h-782q-42 0 -60 16.5t-18 51.5zM90 844q0 67 78 67h782q42 0 60 -16t18 -51q0 -32 -19.5 -50t-58.5 -18h-782q-42 0 -60 16.5t-18 51.5z" />
<glyph unicode="&#x3e;" horiz-adv-x="800" d="M90 137q0 32 37 64l485 379l-485 401q-37 29 -37 63q0 25 20.5 43.5t49.5 18.5q25 0 65 -31l502 -409q23 -20 32 -36t9 -38t-9 -38t-32 -36l-502 -412q-38 -30 -65 -30q-29 0 -49.5 18t-20.5 43z" />
<glyph unicode="?" horiz-adv-x="1073" d="M37 1229q0 37 31 76q60 76 171.5 123t254.5 47q145 0 260 -37.5t186.5 -116t71.5 -188.5q0 -127 -76.5 -224t-261.5 -221q-91 -60 -137 -111.5t-52 -115.5q-6 -62 -49 -62q-30 0 -43 33q-8 19 -8 100q0 112 36 181t148 176q78 74 114 134.5t36 137.5q0 90 -59 152.5 t-177 62.5q-147 0 -247 -114q-46 -53 -73.5 -74t-56.5 -21t-49 17t-20 45zM293 104q0 54 42.5 86.5t110.5 32.5t111 -32.5t43 -86.5q0 -55 -43 -87.5t-111 -32.5t-110.5 32.5t-42.5 87.5z" />
<glyph unicode="@" horiz-adv-x="1861" d="M147 584q0 227 103.5 408t287 281.5t414.5 100.5q160 0 299.5 -49t242 -138.5t161.5 -223.5t59 -295q0 -62 -12.5 -123.5t-40.5 -120.5t-67.5 -103.5t-98.5 -72t-129 -27.5q-33 0 -64.5 6.5t-67.5 22t-64 47.5t-42 78h-10q-28 -72 -90 -120t-158 -48q-158 0 -238.5 100 t-80.5 262q0 169 96 276t248 107q68 0 122.5 -32t80.5 -89h8l4 46q12 61 84 61q38 0 60 -15.5t22 -45.5l-6 -420q-1 -98 26 -135t72 -37q176 0 176 362q0 132 -31.5 240t-86 181.5t-130 123.5t-161.5 73t-183 23q-123 0 -234.5 -50.5t-195 -139t-133 -219.5t-49.5 -283 q0 -145 37.5 -270t108.5 -219t181.5 -147.5t247.5 -53.5q118 0 201 23t168 77q51 31 72 31q26 0 41.5 -14.5t15.5 -34.5q0 -26 -22 -43q-80 -64 -213 -94.5t-273 -30.5q-158 0 -294.5 49.5t-240.5 143.5t-163.5 241t-59.5 330zM737 575q0 -141 45.5 -210.5t122.5 -69.5 q95 0 145 78t50 202q0 297 -182 297q-84 0 -132.5 -81t-48.5 -216z" />
<glyph unicode="A" horiz-adv-x="1372" d="M10 61q0 25 17 66l510 1221q45 106 194 106q130 0 166 -106l434 -1215q10 -29 10 -49q0 -41 -36 -66.5t-99 -25.5q-131 0 -168 108l-108 320h-621l-127 -338q-19 -51 -40 -70.5t-58 -19.5q-32 0 -53 18t-21 51zM352 539h539l-250 741h-10l-86 -227z" />
<glyph unicode="B" horiz-adv-x="1413" d="M184 127v1155q0 62 36 101t102 53q82 18 290 18q74 0 141 -6t140 -20t131.5 -40.5t106 -64t74 -95t26.5 -128.5q0 -126 -97 -208t-257 -93v-8q206 -20 309.5 -111.5t103.5 -247.5q0 -291 -305 -383q-141 -41 -393 -41h-277q-131 0 -131 119zM459 106h153q198 0 291 60 q111 72 111 254q0 158 -86.5 230.5t-282.5 72.5h-186v-617zM459 821h143q172 0 263 64.5t91 218.5q0 138 -88.5 195t-265.5 57q-70 0 -143 -6v-529z" />
<glyph unicode="C" horiz-adv-x="1384" d="M82 733q0 168 54.5 308.5t149 234.5t222 146.5t272.5 52.5q177 0 301.5 -53t182.5 -128q26 -36 26 -71q0 -29 -21.5 -50.5t-58.5 -21.5q-32 0 -59 19.5t-57 56.5q-66 81 -136 115t-170 34q-190 0 -298.5 -174t-108.5 -467q0 -305 111.5 -483t308.5 -178q105 0 187.5 36.5 t152.5 118.5q27 32 48.5 48t47.5 16q25 0 45 -14t21 -41q0 -37 -33 -78q-152 -185 -504 -185q-314 0 -499 198t-185 560z" />
<glyph unicode="D" horiz-adv-x="1519" d="M184 127v1157q0 62 36.5 102t101.5 52q88 16 292 16q136 0 255.5 -23.5t225 -77t181 -133.5t119 -199.5t43.5 -268.5q0 -186 -61 -329t-172 -233.5t-261.5 -136t-335.5 -45.5h-293q-131 0 -131 119zM459 106h155q120 0 213 34.5t164.5 108.5t109.5 199t38 297 q0 398 -226 537q-120 74 -307 74q-98 0 -147 -4v-1246z" />
<glyph unicode="E" horiz-adv-x="1284" d="M184 127v1153q0 166 183 166h751q74 0 74 -60q0 -28 -19.5 -43.5t-54.5 -15.5h-659v-504h563q74 0 74 -59q0 -28 -19.5 -43.5t-54.5 -15.5h-563v-578h678q73 0 73 -59q0 -28 -19 -44t-54 -16h-822q-131 0 -131 119z" />
<glyph unicode="F" horiz-adv-x="1181" d="M184 92v1188q0 166 183 166h720q74 0 74 -60q0 -28 -19.5 -43.5t-54.5 -15.5h-628v-520h489q74 0 74 -59q0 -28 -19.5 -44t-54.5 -16h-489v-596q0 -49 -39.5 -74.5t-100.5 -25.5q-59 0 -97 25.5t-38 74.5z" />
<glyph unicode="G" horiz-adv-x="1523" d="M82 727q0 225 92 395.5t254.5 261.5t370.5 91q183 0 316 -53t192 -132q26 -36 26 -71q0 -29 -21.5 -50.5t-58.5 -21.5q-32 0 -59 19.5t-57 56.5q-66 81 -143 117t-185 36q-203 0 -315.5 -175.5t-112.5 -471.5q0 -299 111 -477t296 -178q373 0 373 483v27h-311 q-74 0 -74 59q0 28 19.5 43.5t54.5 15.5h477q32 0 53.5 -7.5t30.5 -20.5t11.5 -24t2.5 -25v-29q0 -289 -166.5 -455t-470.5 -166q-208 0 -367 89t-249 260.5t-90 402.5z" />
<glyph unicode="H" horiz-adv-x="1548" d="M184 92v1262q0 49 39.5 74.5t100.5 25.5q59 0 97 -25.5t38 -74.5v-549h631v549q0 49 39 74.5t100 25.5q59 0 97 -25.5t38 -74.5v-1262q0 -49 -39 -74.5t-100 -25.5q-59 0 -97 25.5t-38 74.5v594h-631v-594q0 -49 -39.5 -74.5t-100.5 -25.5q-59 0 -97 25.5t-38 74.5z" />
<glyph unicode="I" horiz-adv-x="643" d="M184 92v1262q0 49 39.5 74.5t100.5 25.5q59 0 97 -25.5t38 -74.5v-1262q0 -49 -39.5 -74.5t-100.5 -25.5q-59 0 -97 25.5t-38 74.5z" />
<glyph unicode="J" horiz-adv-x="1224" d="M37 229q0 30 21.5 50t54.5 20q30 0 51 -16.5t59 -65.5q109 -143 285 -143q138 0 210.5 96t72.5 279v905q0 49 39 74.5t100 25.5q59 0 97 -25.5t38 -74.5v-836q0 -270 -147 -406.5t-412 -136.5q-171 0 -288 58.5t-167 142.5q-14 23 -14 53z" />
<glyph unicode="K" horiz-adv-x="1368" d="M184 92v1262q0 49 39.5 74.5t100.5 25.5q59 0 97 -25.5t38 -74.5v-576h8q228 174 641 621q49 55 106 55q28 0 50 -16t22 -47q0 -33 -43 -76q-178 -181 -565 -498l573 -624q62 -66 62 -109q0 -40 -34 -66t-95 -26q-69 0 -112 25.5t-93 80.5l-512 586h-8v-592 q0 -49 -39.5 -74.5t-100.5 -25.5q-59 0 -97 25.5t-38 74.5z" />
<glyph unicode="L" horiz-adv-x="1193" d="M184 127v1227q0 49 39.5 74.5t100.5 25.5q59 0 97 -25.5t38 -74.5v-1227h608q74 0 74 -59q0 -28 -19.5 -44t-54.5 -16h-752q-131 0 -131 119z" />
<glyph unicode="M" horiz-adv-x="1789" d="M184 59v1256q0 64 50.5 101.5t140.5 37.5q137 0 184 -102q42 -89 104.5 -245.5t135.5 -345t98 -251.5h8q45 101 207 481q83 203 156 357q26 54 67 80t113 26q65 0 111.5 -30t46.5 -87v-1245q0 -49 -39.5 -74.5t-100.5 -25.5q-59 0 -97 25.5t-38 74.5v633q0 392 12 512h-8 q-61 -171 -102 -266q-180 -429 -264 -592q-26 -50 -60.5 -75t-87.5 -25q-57 0 -92.5 21.5t-60.5 72.5q-66 134 -250 618q-50 133 -86 246h-10q6 -217 6 -504v-674q0 -33 -19.5 -50t-52.5 -17q-32 0 -52 17t-20 50z" />
<glyph unicode="N" horiz-adv-x="1552" d="M184 59v1270q0 56 43.5 90.5t124.5 34.5q120 0 185 -100q115 -174 302 -475.5t244 -391.5q83 -131 138 -235h10q-6 217 -6 450v684q0 33 19 50.5t52 17.5q32 0 52 -17.5t20 -50.5v-1269q0 -56 -40 -90.5t-120 -34.5q-125 0 -190 100q-88 133 -177.5 274.5t-196 312.5 t-175.5 279q-74 116 -137 236h-10q6 -218 6 -449v-686q0 -33 -19.5 -50t-52.5 -17q-32 0 -52 17t-20 50z" />
<glyph unicode="O" horiz-adv-x="1581" d="M82 725q0 170 53.5 311t147.5 237t224.5 149t283.5 53q154 0 283.5 -49.5t224 -142.5t147.5 -236t53 -322q0 -170 -53.5 -311.5t-148 -237t-224.5 -148.5t-282 -53q-157 0 -286.5 49.5t-224 142.5t-146.5 236t-52 322zM381 725q0 -323 107.5 -487t302.5 -164t302 167.5 t107 483.5q0 322 -108 486.5t-301 164.5q-196 0 -303 -168t-107 -483z" />
<glyph unicode="P" horiz-adv-x="1339" d="M184 92v1192q0 62 36.5 102t101.5 52q88 16 311 16q106 0 199 -15t174 -48t138.5 -82.5t90.5 -122t33 -162.5q0 -144 -76.5 -245.5t-233.5 -149.5q-122 -37 -333 -37h-166v-500q0 -49 -39.5 -74.5t-100.5 -25.5q-59 0 -97 25.5t-38 74.5zM459 690h155q195 0 285 80.5 t90 257.5q0 328 -379 328q-62 0 -151 -6v-660z" />
<glyph unicode="Q" horiz-adv-x="1581" d="M82 725q0 170 53.5 311t147.5 237t224.5 149t283.5 53q154 0 283.5 -50.5t224 -144.5t147.5 -236.5t53 -318.5q0 -310 -163 -501.5t-433 -227.5v-8l453 -162q45 -15 69.5 -35t24.5 -51q0 -37 -24.5 -56.5t-61.5 -19.5q-55 0 -119 33l-553 285q-278 30 -444 225t-166 518z M381 725q0 -323 107.5 -487t302.5 -164t302 167.5t107 483.5q0 322 -108 486.5t-301 164.5q-196 0 -303 -168t-107 -483z" />
<glyph unicode="R" horiz-adv-x="1396" d="M184 92v1190q0 117 138 154q71 18 278 18q110 0 203 -12t177.5 -41t143 -74.5t93 -116t34.5 -161.5q0 -141 -86.5 -240t-255.5 -143q143 -223 351 -533q18 -29 18 -55q0 -37 -32.5 -61.5t-96.5 -24.5q-67 0 -108.5 25t-75.5 79q-150 234 -314 529q-25 -2 -69 -2 q-51 0 -123 4v-535q0 -49 -39.5 -74.5t-100.5 -25.5q-59 0 -97 25.5t-38 74.5zM459 725q47 -4 141 -4q204 0 290.5 83.5t86.5 246.5q0 89 -27.5 150t-81 94.5t-120.5 47t-158 13.5q-58 0 -131 -6v-625z" />
<glyph unicode="S" horiz-adv-x="1226" d="M86 223q0 31 21.5 52.5t54.5 21.5q25 0 46.5 -15.5t53.5 -52.5q59 -72 148 -109.5t190 -37.5q143 0 226 69t83 177q0 112 -76 175t-239 101q-78 19 -135 36t-118.5 43t-103 58t-76.5 75.5t-52 102t-17 130.5q0 131 71 229t190.5 147.5t269.5 49.5q132 0 246 -36.5 t173 -95.5q41 -41 41 -77q0 -32 -19 -50t-52 -18q-29 0 -51 14.5t-70 61.5q-54 53 -128 77.5t-147 24.5q-133 0 -213 -65q-81 -68 -81 -181q0 -53 18.5 -95t46.5 -69.5t75 -50.5t89.5 -36.5t103.5 -28.5q261 -64 375.5 -157t114.5 -263q0 -217 -150.5 -331.5t-408.5 -114.5 q-160 0 -286.5 48t-186.5 126q-27 34 -27 65z" />
<glyph unicode="T" horiz-adv-x="1191" d="M0 1386q0 28 19.5 44t54.5 16h1044q74 0 74 -60q0 -28 -19.5 -43.5t-54.5 -15.5h-385v-1235q0 -49 -39 -74.5t-100 -25.5q-59 0 -97 25.5t-38 74.5v1235h-385q-74 0 -74 59z" />
<glyph unicode="U" horiz-adv-x="1513" d="M160 569v785q0 49 39 74.5t100 25.5q59 0 97 -25.5t38 -74.5v-856q0 -201 82.5 -314.5t253.5 -113.5q70 0 128.5 24.5t105.5 74t73.5 132t26.5 191.5v866q0 46 35 71t92 25q56 0 89.5 -25t33.5 -71v-793q0 -131 -35 -237.5t-105 -186t-183 -123t-261 -43.5 q-294 0 -452 154t-158 440z" />
<glyph unicode="V" horiz-adv-x="1261" d="M0 1352q0 43 37.5 72.5t99.5 29.5q69 0 105.5 -27t52.5 -81l313 -998l56 -178h10q70 190 250 723q17 49 72.5 224t82.5 245q19 49 43 70.5t60 21.5q34 0 57 -16.5t23 -48.5q0 -27 -15 -70q-271 -724 -479 -1221q-22 -52 -65 -79t-121 -27q-72 0 -115.5 30.5t-58.5 75.5 l-392 1178q-16 46 -16 76z" />
<glyph unicode="W" horiz-adv-x="2037" d="M33 1352q0 42 37 72t100 30q71 0 108.5 -27t49.5 -81l272 -1184h10q150 559 281 1149q14 65 59 100t117 35q77 0 117.5 -33.5t52.5 -101.5q161 -814 238 -1149h12q179 618 252 891q65 245 84 311q13 49 37.5 69.5t62.5 20.5q33 0 57.5 -18t24.5 -50q0 -20 -14 -71 q-38 -134 -109 -342q-165 -500 -295 -854q-24 -66 -66.5 -96.5t-123.5 -30.5t-120.5 33t-64.5 106q-32 91 -107.5 434t-113.5 604h-8q-1 -7 -41 -206q-75 -350 -215 -842q-18 -65 -62.5 -97t-129.5 -32q-79 0 -131.5 36.5t-69.5 104.5l-293 1167q-8 31 -8 52z" />
<glyph unicode="X" horiz-adv-x="1261" d="M20 53q0 30 21 60q38 60 189 241.5t276 323.5l-434 620q-21 32 -21 62q0 39 37 66.5t100 27.5q65 0 102 -25t77 -83l325 -480l156 215q69 94 209 301q17 24 28.5 37t32.5 24t47 11q32 0 55 -16.5t23 -48.5q0 -29 -20 -58q-75 -113 -457 -549l448 -635q21 -31 21 -61 q0 -39 -37 -66.5t-100 -27.5q-65 0 -101.5 25t-76.5 83l-340 496l-162 -227q-66 -90 -211 -308q-17 -25 -27.5 -37t-32 -23t-49.5 -11q-32 0 -55 16t-23 47z" />
<glyph unicode="Y" horiz-adv-x="1214" d="M-12 1358q0 41 35.5 68.5t95.5 27.5q68 0 106.5 -23t71.5 -79l381 -647q111 187 190 333q114 210 172 332q21 43 45.5 63.5t65.5 20.5q29 0 52.5 -15t23.5 -48q0 -18 -15 -52q-56 -117 -481 -747v-500q0 -49 -39 -74.5t-100 -25.5q-59 0 -97 25.5t-38 74.5v490l-447 710 q-22 33 -22 66z" />
<glyph unicode="Z" horiz-adv-x="1226" d="M45 94q0 36 35 92l786 1129v8h-719q-73 0 -73 61q0 28 19 45t54 17h883q135 0 135 -92q0 -45 -30 -88l-787 -1127v-8h744q73 0 73 -61q0 -28 -19 -45t-54 -17h-951q-96 0 -96 86z" />
<glyph unicode="[" horiz-adv-x="712" d="M152 -174v1548q0 166 182 166h256q39 0 56.5 -12t17.5 -41q0 -53 -74 -53h-193v-1620h193q39 0 56.5 -12.5t17.5 -41.5q0 -53 -74 -53h-307q-131 0 -131 119z" />
<glyph unicode="\" horiz-adv-x="692" d="M4 1485q0 26 20.5 40.5t49.5 14.5q32 0 50 -15t30 -50l583 -1620q8 -21 8 -43q0 -25 -20 -39.5t-47 -14.5q-31 0 -49.5 15.5t-30.5 50.5l-586 1618q-8 24 -8 43z" />
<glyph unicode="]" horiz-adv-x="712" d="M49 -240q0 54 74 54h192v1620h-192q-39 0 -56.5 12t-17.5 41q0 53 74 53h307q131 0 131 -119v-1548q0 -166 -182 -166h-256q-39 0 -56.5 12t-17.5 41z" />
<glyph unicode="^" horiz-adv-x="1079" d="M90 963q0 21 23 51l286 364q63 76 144 76q39 0 68.5 -13t42 -25.5t32.5 -37.5l281 -364q22 -28 22 -51q0 -20 -15 -32.5t-40 -12.5q-29 0 -57 28l-351 301l-323 -301q-28 -28 -58 -28q-25 0 -40 12.5t-15 32.5z" />
<glyph unicode="_" horiz-adv-x="1142" d="M59 -96q0 47 56 47h913q30 0 42.5 -11.5t12.5 -35.5q0 -47 -55 -47h-913q-56 0 -56 47z" />
<glyph unicode="`" horiz-adv-x="1071" d="M338 1464q0 42 34 67t74 25q68 0 119 -63l185 -236q16 -19 16 -34q0 -14 -12 -24.5t-31 -10.5q-23 0 -47 14l-277 178q-61 38 -61 84z" />
<glyph unicode="a" d="M61 512q0 250 145 407.5t374 157.5q100 0 181.5 -47.5t119.5 -130.5h12l8 68q6 46 38.5 70t86.5 24t88.5 -25t34.5 -71v-877q0 -45 -37 -70.5t-94 -25.5q-112 0 -121 96l-10 98h-13q-48 -103 -126 -157t-207 -54q-159 0 -269 71.5t-160.5 190.5t-50.5 275zM340 520 q0 -210 68.5 -316t183.5 -106q142 0 217.5 116.5t75.5 301.5q0 101 -15 181t-47 141t-85.5 94t-127.5 33q-125 0 -197.5 -122t-72.5 -323z" />
<glyph unicode="b" horiz-adv-x="1323" d="M152 86v1352q0 49 38 75.5t97 26.5q60 0 97.5 -26.5t37.5 -75.5v-566h12q41 91 127.5 148t208.5 57q120 0 214.5 -40.5t155 -113.5t91.5 -171t31 -215q0 -248 -148 -405t-383 -157q-230 0 -307 193h-12l-9 -80q-9 -96 -120 -96q-58 0 -94.5 24t-36.5 70zM416 528 q0 -129 27 -225t91.5 -155.5t161.5 -59.5q135 0 211 120.5t76 321.5q0 215 -70.5 325t-195.5 110q-99 0 -168.5 -61t-101 -157.5t-31.5 -218.5z" />
<glyph unicode="c" horiz-adv-x="1069" d="M61 524q0 116 38.5 217.5t108 175.5t172.5 117t226 43q249 0 371 -125q29 -29 29 -61q0 -26 -18.5 -46t-53.5 -20q-21 0 -42 11t-32.5 22t-32.5 33q-49 52 -95.5 72t-110.5 20q-128 0 -203.5 -125t-75.5 -319q0 -212 75.5 -336.5t221.5 -124.5q145 0 244 104q41 41 73 41 q24 0 40 -14t16 -35q0 -25 -29 -61q-122 -138 -371 -138q-251 0 -401 141.5t-150 407.5z" />
<glyph unicode="d" horiz-adv-x="1323" d="M61 516q0 248 146.5 404.5t380.5 156.5q108 0 188.5 -47.5t112.5 -122.5h12v531q0 49 38 75.5t97 26.5q60 0 97.5 -26.5t37.5 -75.5v-1350q0 -45 -37 -70.5t-94 -25.5q-111 0 -120 96l-11 98h-12q-95 -211 -346 -211q-236 0 -363 150t-127 391zM340 522q0 -209 71 -321.5 t195 -112.5q99 0 168.5 59.5t101 155t31.5 217.5q0 97 -15 175t-47 140t-88 96t-132 34q-133 0 -209 -123.5t-76 -319.5z" />
<glyph unicode="e" horiz-adv-x="1136" d="M61 522q0 115 37.5 216t106 176.5t171 119t226.5 43.5q95 0 176.5 -28t146 -84.5t101.5 -150t37 -214.5v-10q0 -46 -25 -69t-82 -23h-620v-11q0 -179 80.5 -294t226.5 -115q84 0 142.5 23.5t115.5 80.5q41 41 74 41q24 0 39.5 -13.5t15.5 -35.5q0 -25 -29 -61 q-122 -138 -399 -138q-247 0 -394 143.5t-147 403.5zM340 604h465v43q0 78 -10 136.5t-33 106t-66 72.5t-104 25q-116 0 -181 -96.5t-71 -286.5z" />
<glyph unicode="f" horiz-adv-x="702" d="M25 991q0 26 18 38t57 15l84 5q7 111 39.5 202.5t91 161.5t151 109t212.5 39q110 0 201 -31q82 -28 82 -80q0 -31 -18.5 -47.5t-49.5 -18.5q-39 0 -72 21q-89 57 -155 57q-50 0 -88 -18.5t-61 -50t-37 -78.5t-19.5 -97t-5.5 -112v-53h184q74 0 74 -60q0 -57 -74 -57h-184 v-844q0 -49 -38 -74.5t-98 -25.5q-59 0 -97 25.5t-38 74.5v844l-84 6q-41 3 -58 13.5t-17 35.5z" />
<glyph unicode="g" d="M61 516q0 247 149 404t380 157q95 0 175 -45t116 -125h12l6 60q9 94 119 94q58 0 94.5 -24t36.5 -70v-815q0 -303 -155.5 -463t-442.5 -160q-113 0 -212.5 28t-156.5 68q-61 41 -61 86q0 25 19 44.5t50 19.5q38 0 76 -33q131 -111 295 -111q150 0 234 104t84 292v149h-13 q-44 -93 -125 -147t-188 -54q-123 0 -218 41t-154.5 114t-89.5 170.5t-30 215.5zM340 524q0 -216 67.5 -326t184.5 -110q139 0 216 121t77 307q0 96 -15 175t-46.5 142t-85.5 97.5t-126 34.5q-126 0 -199 -121t-73 -320z" />
<glyph unicode="h" horiz-adv-x="1255" d="M152 92v1348q0 49 37.5 74.5t97.5 25.5q59 0 97 -25.5t38 -74.5v-535h12q38 80 116.5 126t188.5 46q194 0 285.5 -111.5t91.5 -314.5v-559q0 -49 -38.5 -74.5t-98.5 -25.5q-59 0 -96 25.5t-37 74.5v610q0 52 -9 96t-29.5 83t-60 61.5t-94.5 22.5q-105 0 -168 -96 t-63 -244v-533q0 -49 -37.5 -74.5t-97.5 -25.5q-59 0 -97 25.5t-38 74.5z" />
<glyph unicode="i" horiz-adv-x="581" d="M131 1376q0 55 44.5 89t115.5 34t115.5 -34t44.5 -89q0 -57 -44.5 -91t-115.5 -34t-115.5 34t-44.5 91zM156 92v866q0 49 38.5 76t96.5 27q59 0 97 -27t38 -76v-866q0 -49 -37.5 -74.5t-97.5 -25.5q-59 0 -97 25.5t-38 74.5z" />
<glyph unicode="j" horiz-adv-x="581" d="M-143 -416q0 22 16 35.5t39 13.5q13 0 31.5 -3t29.5 -3q46 0 88 23q54 31 74.5 101t20.5 194v1013q0 49 38.5 76t96.5 27q59 0 97 -27t38 -76v-665q0 -143 -16 -268.5t-39 -194.5q-63 -185 -219 -260q-80 -41 -189 -41q-28 0 -57 6q-49 10 -49 49zM131 1376q0 55 44.5 89 t115.5 34q72 0 116 -34t44 -89q0 -57 -44 -91t-116 -34q-71 0 -115.5 34t-44.5 91z" />
<glyph unicode="k" horiz-adv-x="1087" d="M141 92v1348q0 49 37.5 74.5t97.5 25.5q59 0 97.5 -25.5t38.5 -74.5v-832h6q56 39 168 133q162 141 264 240q50 48 76 64t55 16q26 0 43.5 -13t17.5 -38q0 -18 -13 -38.5t-26.5 -33.5t-41.5 -37q-162 -135 -347 -264l416 -485q37 -40 37 -76t-35.5 -60t-91.5 -24 q-91 0 -141 61l-381 467h-6v-428q0 -49 -38 -74.5t-98 -25.5q-59 0 -97 25.5t-38 74.5z" />
<glyph unicode="l" horiz-adv-x="573" d="M152 92v1346q0 49 38 75.5t97 26.5q60 0 97.5 -26.5t37.5 -75.5v-1346q0 -49 -37.5 -74.5t-97.5 -25.5q-59 0 -97 25.5t-38 74.5z" />
<glyph unicode="m" horiz-adv-x="1830" d="M152 92v873q0 45 37 70.5t94 25.5q110 0 116 -96l4 -68h9q35 81 113.5 130.5t187.5 49.5q108 0 196.5 -46.5t116.5 -133.5h10q38 87 121.5 133.5t179.5 46.5q166 0 260.5 -89.5t94.5 -256.5v-639q0 -49 -38 -74.5t-98 -25.5q-59 0 -97 25.5t-38 74.5v649q0 106 -34.5 165 t-120.5 59q-91 0 -150 -85t-59 -225v-563q0 -49 -37.5 -74.5t-97.5 -25.5q-59 0 -97.5 25.5t-38.5 74.5v647q0 107 -34.5 166.5t-120.5 59.5q-89 0 -149 -85.5t-60 -224.5v-563q0 -49 -37.5 -74.5t-97.5 -25.5q-59 0 -97 25.5t-38 74.5z" />
<glyph unicode="n" horiz-adv-x="1257" d="M152 92v873q0 46 36.5 71t92.5 25q109 0 118 -96l7 -74h12q36 86 120 136t201 50q194 0 286.5 -111.5t92.5 -314.5v-559q0 -49 -38.5 -74.5t-98.5 -25.5q-59 0 -96 25.5t-37 74.5v610q0 52 -9 96t-30 83t-61 61.5t-95 22.5q-105 0 -168 -96t-63 -244v-533 q0 -49 -37.5 -74.5t-97.5 -25.5q-59 0 -97 25.5t-38 74.5z" />
<glyph unicode="o" horiz-adv-x="1202" d="M61 516q0 249 148.5 405t392.5 156q256 0 397.5 -143t141.5 -399q0 -249 -147.5 -404.5t-393.5 -155.5q-254 0 -396.5 143t-142.5 398zM340 518q0 -236 64.5 -343t195.5 -107q126 0 194 120.5t68 343.5q0 239 -66 346t-196 107q-125 0 -192.5 -124t-67.5 -343z" />
<glyph unicode="p" horiz-adv-x="1323" d="M152 -344v1309q0 45 37 70.5t94 25.5q112 0 118 -96l7 -107h12q46 101 133 160t219 59q159 0 271 -71.5t165.5 -191.5t53.5 -277q0 -248 -146.5 -405t-380.5 -157q-109 0 -189.5 44t-111.5 118h-12v-481q0 -49 -38 -75.5t-97 -26.5q-60 0 -97.5 26.5t-37.5 75.5zM416 528 q0 -93 15 -169.5t47 -139t88 -97t132 -34.5q134 0 209.5 120.5t75.5 321.5q0 215 -70.5 325t-195.5 110q-98 0 -168 -63.5t-101.5 -160t-31.5 -213.5z" />
<glyph unicode="q" horiz-adv-x="1325" d="M61 516q0 248 148 404.5t383 156.5q226 0 307 -188h12l9 76q9 96 120 96q58 0 94.5 -24t36.5 -70v-1311q0 -49 -38.5 -75.5t-96.5 -26.5q-60 0 -97.5 26.5t-37.5 75.5v524h-12q-41 -91 -127.5 -148t-208.5 -57q-159 0 -272 71.5t-166.5 192t-53.5 277.5zM340 522 q0 -215 70.5 -324.5t195.5 -109.5q99 0 168.5 61t101 157t31.5 218q0 129 -27 225t-91.5 156t-161.5 60q-135 0 -211 -121t-76 -322z" />
<glyph unicode="r" horiz-adv-x="925" d="M152 92v873q0 45 37 70.5t94 25.5q112 0 118 -96l7 -105h12q26 76 77.5 126.5t106 70.5t113.5 20q74 0 125 -18q84 -29 84 -94q0 -42 -25 -67.5t-63 -25.5q-12 0 -24.5 3t-20.5 6t-23 9t-22 9q-58 21 -111 21q-116 0 -172 -101q-41 -75 -41 -235v-492q0 -49 -38.5 -74.5 t-98.5 -25.5q-59 0 -97 25.5t-38 74.5z" />
<glyph unicode="s" horiz-adv-x="1005" d="M74 158q0 25 17 43t48 18q30 0 53.5 -13t65.5 -46q95 -74 225 -74q109 0 168.5 44.5t59.5 111.5q0 68 -53.5 104t-178.5 62q-193 40 -294 116.5t-101 216.5q0 153 117.5 244.5t304.5 91.5q106 0 195.5 -25.5t142.5 -66.5q43 -35 43 -76q0 -27 -18.5 -43t-47.5 -16 q-27 0 -50.5 13t-70.5 50q-79 62 -202 62q-81 0 -140 -43q-61 -48 -61 -121q0 -23 4.5 -41.5t16.5 -33.5t22 -26t32.5 -21t34.5 -15.5t42 -13t42 -10t46 -9.5q214 -42 309.5 -117.5t95.5 -212.5q0 -147 -129 -237t-336 -90q-236 0 -364 106q-39 34 -39 68z" />
<glyph unicode="t" horiz-adv-x="886" d="M20 993q0 25 18 36.5t58 14.5l90 5l9 202q2 51 35 80t96 29q125 0 125 -98v-209h305q75 0 75 -58q0 -57 -75 -57h-305v-674q0 -186 131 -186q51 0 108 26q69 35 92 35q24 0 39 -12t15 -31q0 -33 -56 -65q-43 -25 -111.5 -40.5t-138.5 -15.5q-76 0 -137 18t-110 57 t-76 107t-27 162v619l-84 6q-42 3 -59 13.5t-17 35.5z" />
<glyph unicode="u" horiz-adv-x="1251" d="M131 401v560q0 49 38.5 74.5t98.5 25.5q59 0 97 -25.5t38 -74.5v-611q0 -52 9 -96t29.5 -83t60 -61t94.5 -22q105 0 168 96t63 244v533q0 49 39 74.5t99 25.5q59 0 97 -25.5t38 -74.5v-865q0 -45 -37 -70.5t-94 -25.5q-54 0 -85 24.5t-34 71.5l-6 78h-13 q-36 -90 -120.5 -144.5t-200.5 -54.5q-194 0 -286.5 111.5t-92.5 314.5z" />
<glyph unicode="v" horiz-adv-x="1064" d="M20 950q0 55 41 83t101 28q115 0 145 -84l205 -660q37 -99 61 -206h9q67 159 239 647q75 207 86 233q33 70 88 70q32 0 51 -14t19 -41q0 -36 -39 -134q-77 -189 -195.5 -459t-168.5 -352q-25 -43 -59.5 -64.5t-92.5 -21.5q-122 0 -164 99l-309 805q-17 43 -17 71z" />
<glyph unicode="w" horiz-adv-x="1644" d="M31 950q0 55 37.5 83t101.5 28q55 0 91.5 -22.5t45.5 -61.5l154 -641q23 -100 57 -223h6q94 276 213 774q24 101 58 131.5t92 30.5q97 0 119 -88q25 -108 60 -270.5t66 -296.5t68 -281h6q77 232 191 643q54 194 69 235q26 70 88 70q70 0 70 -57q0 -32 -33 -134 q-67 -202 -161.5 -460t-141.5 -340q-52 -95 -166 -95q-75 0 -112.5 34t-53.5 89q-70 236 -143 609h-6q-36 -155 -92 -341.5t-101 -291.5q-45 -99 -168 -99q-75 0 -111.5 34t-53.5 89l-236 781q-14 44 -14 71z" />
<glyph unicode="x" horiz-adv-x="1038" d="M37 37q0 27 16.5 53t50.5 64q99 110 299 317l-309 393q-47 61 -47 103q0 39 37.5 66.5t93.5 27.5q57 0 91.5 -22t68.5 -66l246 -324l88 107q110 137 149 192q44 63 69.5 88t55.5 25q26 0 43 -13.5t17 -37.5q0 -43 -66 -123q-37 -48 -293 -322l305 -385q47 -61 47 -102 t-37 -67.5t-94 -26.5q-56 0 -90.5 21.5t-68.5 66.5l-240 315l-90 -104q-82 -98 -158 -195q-46 -60 -70 -82t-57 -22q-24 0 -40.5 14.5t-16.5 38.5z" />
<glyph unicode="y" horiz-adv-x="1071" d="M20 950q0 54 42 82.5t102 28.5q112 0 143 -84l213 -582q50 -134 74 -217h8l76 184q36 87 147 392q57 156 88 231q34 76 93 76q69 0 69 -57q0 -34 -39 -132q-94 -226 -344 -745q-165 -342 -237 -481q-36 -71 -61.5 -98t-69.5 -27q-26 0 -48 17t-22 46q0 33 33 78 q91 124 168 258l-45 96l-373 863q-17 43 -17 71z" />
<glyph unicode="z" horiz-adv-x="1032" d="M66 100q0 48 43 105l567 721v8h-504q-76 0 -76 57q0 62 76 62h696q51 0 79 -24t28 -62q0 -46 -45 -105l-574 -727v-8h535q76 0 76 -55q0 -64 -76 -64h-727q-49 0 -73.5 26t-24.5 66z" />
<glyph unicode="{" horiz-adv-x="782" d="M49 625q0 39 35 49q48 15 72 37q38 34 51.5 79t13.5 142v198q0 86 20.5 157t63 129.5t117 91t174.5 32.5h45q92 0 92 -51t-74 -51h-14q-91 0 -134.5 -50t-43.5 -169v-226q0 -288 -229 -360v-17q229 -72 229 -360v-227q0 -119 43.5 -169t134.5 -50h14q74 0 74 -52 q0 -51 -92 -51h-45q-100 0 -174.5 32.5t-117 91t-63 129.5t-20.5 157v200q0 97 -13.5 142.5t-51.5 79.5q-23 20 -72 36q-35 11 -35 50z" />
<glyph unicode="|" horiz-adv-x="532" d="M193 -332v1854q0 26 21 40.5t52 14.5q32 0 53 -14t21 -41v-1854q0 -25 -21 -39t-53 -14q-31 0 -52 14t-21 39z" />
<glyph unicode="}" horiz-adv-x="782" d="M49 -242q0 52 74 52h14q91 0 134.5 50t43.5 169v227q0 288 230 360v17q-230 72 -230 360v230q0 119 -43 167t-135 48h-14q-74 0 -74 49q0 26 25.5 39.5t66.5 13.5h45q100 0 174.5 -32.5t117 -91t63 -129.5t20.5 -157v-198q0 -96 13.5 -141.5t52.5 -79.5q25 -22 71 -37 q35 -10 35 -49t-35 -50q-48 -15 -71 -36q-38 -34 -52 -80t-14 -142v-200q0 -86 -20.5 -157t-63 -129.5t-117 -91t-174.5 -32.5h-45q-92 0 -92 51z" />
<glyph unicode="~" horiz-adv-x="1116" d="M90 625q0 22 10 49q33 101 103.5 161t175.5 60q69 0 120 -18.5t105 -51.5q4 -2 23.5 -14.5t25 -15.5l22 -12t26 -12.5t24 -8.5t28.5 -6.5t29 -1.5q52 0 84 21t56 79q13 37 53 37q51 0 51 -45q0 -22 -10 -49q-33 -101 -103.5 -161.5t-175.5 -60.5q-99 0 -202 60 q-10 6 -37 23t-40 23.5t-35.5 17t-43.5 14.5t-45 4q-52 0 -83.5 -21.5t-55.5 -79.5q-13 -36 -54 -36q-51 0 -51 45z" />
<glyph unicode="&#xa1;" horiz-adv-x="651" d="M172 903q0 55 43 88t111 33t110.5 -33t42.5 -88q0 -54 -42.5 -86.5t-110.5 -32.5t-111 32.5t-43 86.5zM178 -348q0 47 10 135l84 774q1 22 16 34.5t38 12.5t37 -12.5t16 -34.5l82 -776q10 -88 10 -133q0 -55 -38 -87t-109 -32q-64 0 -105 32t-41 87z" />
<glyph unicode="&#xa2;" horiz-adv-x="1150" d="M82 532q0 218 126.5 369.5t340.5 177.5v170q0 31 22.5 46.5t57.5 15.5q36 0 58 -15.5t22 -46.5v-168q192 -21 288 -120q29 -29 29 -62q0 -26 -18 -45.5t-54 -19.5q-21 0 -41.5 10.5t-32 21.5t-32.5 33q-49 52 -96 72t-111 20q-128 0 -203.5 -125t-75.5 -319 q0 -212 75.5 -336.5t221.5 -124.5q145 0 244 104q41 41 74 41q24 0 39.5 -13.5t15.5 -35.5q0 -26 -28 -61q-106 -119 -304 -133v-174q0 -60 -79 -60q-35 0 -57.5 15t-22.5 45v176q-212 24 -335.5 162.5t-123.5 379.5z" />
<glyph unicode="&#xa3;" horiz-adv-x="1234" d="M61 102q0 43 27 69t82 26h119q28 79 28 159q0 55 -12 117.5t-24 100.5t-37 112h-121q-62 0 -62 62q0 30 16.5 47.5t45.5 17.5h84q-23 108 -23 203q0 91 27.5 167t76.5 129.5t116 90.5t144.5 54.5t164.5 17.5q263 0 393 -117q41 -35 41 -80q0 -32 -19 -50t-51 -18 q-28 0 -56 16t-73 60q-93 90 -227 90q-117 0 -190.5 -73t-73.5 -232q0 -36 1.5 -66.5t5 -59.5t6 -45t8 -46.5t7.5 -40.5h344q62 0 62 -61q0 -30 -16.5 -48t-45.5 -18h-329q0 -6 1 -18.5t1 -18.5q0 -119 -20.5 -217.5t-73.5 -234.5h636q59 0 84 -23.5t25 -71.5 q0 -43 -27 -68.5t-82 -25.5h-874q-59 0 -84 23t-25 71z" />
<glyph unicode="&#xa6;" horiz-adv-x="532" d="M193 -332v699q0 26 21 40.5t52 14.5q32 0 53 -14t21 -41v-699q0 -25 -21 -39t-53 -14q-31 0 -52 14t-21 39zM193 823v699q0 26 21 40.5t52 14.5q32 0 53 -14t21 -41v-699q0 -25 -21 -39t-53 -14q-31 0 -52 14t-21 39z" />
<glyph unicode="&#xa7;" horiz-adv-x="1171" d="M82 498q0 123 70.5 208.5t195.5 122.5q-186 92 -186 285q0 165 120 263t322 98q221 0 350 -103q50 -39 50 -80q0 -30 -19 -46.5t-49 -16.5q-33 0 -59 15t-76 59q-42 37 -87.5 55t-117.5 18q-99 0 -163 -50.5t-64 -137.5q0 -43 17.5 -78t41.5 -56.5t65.5 -40t73.5 -28 t80 -20.5q122 -29 200 -58t135.5 -72t82.5 -101t25 -140q0 -117 -79.5 -203t-217.5 -125q114 -47 165.5 -116.5t51.5 -176.5q0 -160 -136 -255t-344 -95q-229 0 -358 103q-49 38 -49 79q0 30 18.5 47t48.5 17q33 0 58 -15t76 -59q39 -34 96.5 -54t118.5 -20q112 0 182 48 t70 135q0 81 -69.5 132t-207.5 83q-105 24 -179 53.5t-134 73t-89.5 106.5t-29.5 146zM287 569q0 -45 18 -82t44.5 -60.5t68 -43.5t76.5 -31t81 -22l103 -25q91 17 139.5 76t48.5 145q0 89 -71.5 143t-208.5 85q-56 11 -133 34q-74 -19 -120 -79.5t-46 -139.5z" />
<glyph unicode="&#xa8;" horiz-adv-x="985" d="M117 1343q0 47 39 77t100 30t99 -30t38 -77q0 -49 -37.5 -78.5t-99.5 -29.5t-100.5 29.5t-38.5 78.5zM582 1343q0 47 39 77t100 30t99 -30t38 -77q0 -49 -37.5 -78.5t-99.5 -29.5t-100.5 29.5t-38.5 78.5z" />
<glyph unicode="&#xa9;" horiz-adv-x="1847" d="M188 725q0 158 59.5 298t160 238.5t235.5 156t281 57.5q151 0 286 -56.5t234 -154.5t157 -238.5t58 -300.5q0 -158 -60 -298t-160 -238.5t-234.5 -156t-280.5 -57.5q-207 0 -375 96t-264.5 268t-96.5 386zM291 725q0 -144 49.5 -268.5t134 -211t201.5 -135.5t248 -49 q129 0 245.5 50t201.5 137t135 211.5t50 265.5q0 145 -49 269.5t-134 210.5t-201 135t-248 49q-130 0 -246.5 -50t-201.5 -136.5t-135 -211t-50 -266.5zM578 729q0 172 102.5 274.5t253.5 102.5q90 0 153.5 -27t94.5 -65q16 -22 16 -45q0 -19 -14 -33t-39 -14q-34 0 -66 41 q-32 40 -63.5 55.5t-77.5 15.5q-86 0 -135 -83t-49 -222q0 -144 50 -228.5t140 -84.5q93 0 158 73q32 35 59 35q16 0 30.5 -9.5t14.5 -27.5q0 -22 -20 -45q-42 -51 -113.5 -74.5t-144.5 -23.5q-162 0 -256 98.5t-94 286.5z" />
<glyph unicode="&#xaa;" horiz-adv-x="968" d="M90 1071q0 178 100 291t263 113q73 0 131 -34t82 -93h8l4 43q6 71 90 71q41 0 65.5 -18.5t24.5 -54.5v-613q0 -35 -27 -54.5t-69 -19.5q-84 0 -90 74l-4 62h-9q-68 -146 -231 -146q-166 0 -252 104.5t-86 274.5zM295 1077q0 -142 46 -214t122 -72q97 0 146.5 80t49.5 206 q0 305 -182 305q-84 0 -133 -83.5t-49 -221.5z" />
<glyph unicode="&#xab;" horiz-adv-x="899" d="M80 537q0 29 12.5 51t46.5 63l228 262q25 29 51 29q22 0 33.5 -11.5t11.5 -29.5q0 -11 -19 -51l-159 -299l159 -328q19 -40 19 -51q0 -18 -13.5 -31.5t-35.5 -13.5q-27 0 -52 29l-223 266q-34 40 -46.5 63t-12.5 52zM457 537q0 29 12.5 51t46.5 63l227 262q25 29 52 29 q22 0 33.5 -11.5t11.5 -29.5q0 -17 -19 -51l-159 -299l159 -328q19 -40 19 -51q0 -18 -13.5 -31.5t-35.5 -13.5q-27 0 -52 29l-223 266q-34 40 -46.5 63t-12.5 52z" />
<glyph unicode="&#xac;" horiz-adv-x="1148" d="M90 844q0 67 78 67h782q42 0 60 -16t18 -51v-350q0 -78 -72 -78q-32 0 -51.5 20t-19.5 58v282h-717q-42 0 -60 16.5t-18 51.5z" />
<glyph unicode="&#xad;" horiz-adv-x="937" d="M90 580q0 32 21 52.5t59 20.5h598q80 0 80 -73q0 -32 -21 -53t-59 -21h-598q-80 0 -80 74z" />
<glyph unicode="&#xae;" horiz-adv-x="1124" d="M111 1014q0 197 131 329t319 132q126 0 228.5 -55.5t163.5 -161.5t61 -244q0 -196 -131 -327.5t-322 -131.5q-196 0 -323 126t-127 333zM188 1014q0 -178 105.5 -285.5t267.5 -107.5q163 0 269 111t106 282q0 180 -106 287.5t-269 107.5q-160 0 -266.5 -111.5 t-106.5 -283.5zM395 829v361q0 44 47 55q14 4 86 4q205 0 205 -131q0 -89 -100 -123q56 -79 100 -149q6 -18 6 -23q0 -32 -45 -32q-44 0 -61 36q-8 13 -42 69.5t-52 84.5h-45v-152q0 -38 -52 -38q-47 0 -47 38zM494 1028h34q107 0 107 92q0 82 -111 82h-30v-174z" />
<glyph unicode="&#xb0;" horiz-adv-x="724" d="M74 1190q0 118 85.5 201.5t207.5 83.5q128 0 210 -82t82 -203q0 -119 -85.5 -202t-206.5 -83q-129 0 -211 82.5t-82 202.5zM178 1190q0 -82 52.5 -137.5t136.5 -55.5q83 0 135.5 56t52.5 137q0 80 -52 136t-136 56q-83 0 -136 -56t-53 -136z" />
<glyph unicode="&#xb2;" horiz-adv-x="757" d="M49 631q0 44 29 78q55 64 227 225q82 76 132 151.5t50 163.5q0 73 -34 107.5t-93 34.5q-85 0 -143 -66q-28 -33 -46 -46t-40 -13q-23 0 -38 12t-15 35q0 29 20 55q36 47 107 77t162 30q147 0 234 -64.5t87 -173.5q0 -86 -46 -151t-136 -134l-139 -106q-125 -94 -158 -131 v-8h393q47 0 65.5 -19t18.5 -59q0 -34 -21 -55t-63 -21h-475q-78 0 -78 78z" />
<glyph unicode="&#xb3;" horiz-adv-x="839" d="M70 678q0 27 16 43t45 16q24 0 39 -11.5t33 -35.5q55 -67 162 -67q73 0 119 52.5t46 135.5q0 176 -194 176h-29q-59 0 -59 47q0 49 59 49h35q43 0 75 12.5t48.5 30.5t27 43.5t13 44.5t2.5 41q0 61 -34.5 98.5t-90.5 37.5q-80 0 -145 -68q-48 -51 -84 -51q-52 0 -52 47 q0 24 23 55q38 46 109 73.5t151 27.5q147 0 232 -59t85 -161q0 -63 -41 -114t-135 -72v-8q94 -27 148.5 -87.5t54.5 -148.5q0 -132 -103.5 -209t-263.5 -77q-173 0 -264 82q-28 28 -28 57z" />
<glyph unicode="&#xb4;" horiz-adv-x="1062" d="M330 1223q0 15 16 34l193 236q51 63 116 63q40 0 75.5 -25t35.5 -67q0 -44 -61 -82l-291 -180q-24 -14 -47 -14q-17 0 -27 10.5t-10 24.5z" />
<glyph unicode="&#xb6;" horiz-adv-x="1431" d="M106 967q0 214 144.5 346.5t413.5 132.5h495q88 0 88 -66v-1777q0 -22 -15 -35.5t-42 -13.5t-42 13.5t-15 35.5v1769h-152v-1769q0 -22 -15 -35.5t-42 -13.5t-42.5 13.5t-15.5 35.5v1769h-151v-776q0 -109 -137 -109q-203 0 -337.5 136.5t-134.5 343.5z" />
<glyph unicode="&#xb7;" horiz-adv-x="555" d="M111 692q0 58 47 93.5t121 35.5t119.5 -35.5t45.5 -93.5q0 -60 -45.5 -95.5t-119.5 -35.5t-121 36t-47 95z" />
<glyph unicode="&#xb8;" horiz-adv-x="1005" d="M410 -432q0 20 6 61q8 40 8 97q0 13 -2 41.5t-2 37.5q0 45 26 73t76 28q96 0 96 -90q0 -52 -43 -136.5t-81 -125.5q-22 -25 -43 -25q-19 0 -30 11t-11 28z" />
<glyph unicode="&#xb9;" horiz-adv-x="591" d="M59 1389q0 38 58 43q71 6 143 22q52 12 76 12q43 0 63.5 -20.5t20.5 -52.5v-772q0 -35 -27.5 -53.5t-68.5 -18.5t-68 18.5t-27 53.5v739q-78 -10 -110 -10q-60 0 -60 39z" />
<glyph unicode="&#xba;" horiz-adv-x="942" d="M90 1077q0 176 103.5 287t275.5 111q181 0 282 -103.5t101 -284.5q0 -175 -105 -285t-278 -110q-179 0 -279 102t-100 283zM295 1077q0 -159 43.5 -233t130.5 -74q84 0 130 83.5t46 233.5q0 310 -176 310q-82 0 -128 -86.5t-46 -233.5z" />
<glyph unicode="&#xbb;" horiz-adv-x="899" d="M59 168q0 17 19 51l160 299l-160 328q-19 40 -19 51q0 18 14 31.5t36 13.5q26 0 51 -29l223 -266q34 -40 46.5 -63t12.5 -52t-12.5 -51t-46.5 -63l-227 -262q-25 -29 -52 -29q-22 0 -33.5 11.5t-11.5 29.5zM436 168q0 11 19 51l159 299l-159 328q-19 40 -19 51 q0 18 13.5 31.5t35.5 13.5q27 0 52 -29l223 -266q34 -40 46.5 -63t12.5 -52t-12.5 -51t-46.5 -63l-228 -262q-25 -29 -51 -29q-22 0 -33.5 11.5t-11.5 29.5z" />
<glyph unicode="&#xbc;" horiz-adv-x="1763" d="M90 1389q0 38 57 43q73 7 144 22q53 12 76 12q43 0 63.5 -20.5t20.5 -52.5v-772q0 -35 -28 -53.5t-69 -18.5t-67.5 18.5t-26.5 53.5v739q-78 -10 -110 -10q-60 0 -60 39zM190 -78q0 21 21 51l1008 1479q26 39 67 39q29 0 53.5 -14t24.5 -37q0 -21 -21 -51l-1007 -1479 q-26 -39 -68 -39q-29 0 -53.5 14t-24.5 37zM913 270q0 36 27 74q26 38 135 188q121 164 223 297q25 32 52 48t77 16q59 0 89 -25.5t30 -66.5v-469h49q42 0 60 -16.5t18 -51.5q0 -31 -19.5 -50t-58.5 -19h-49v-148q0 -34 -27 -53t-67 -19t-67 19t-27 53v148h-367 q-78 0 -78 75zM1049 332h309v145q0 138 6 279h-8q-42 -65 -84 -121l-115 -156q-67 -90 -108 -139v-8z" />
<glyph unicode="&#xbd;" horiz-adv-x="1806" d="M90 1389q0 38 57 43q73 7 144 22q53 12 76 12q43 0 63.5 -20.5t20.5 -52.5v-772q0 -35 -28 -53.5t-69 -18.5t-67.5 18.5t-26.5 53.5v739q-78 -10 -110 -10q-60 0 -60 39zM190 -78q0 21 21 51l1008 1479q26 39 67 39q29 0 53.5 -14t24.5 -37q0 -21 -21 -51l-1007 -1479 q-26 -39 -68 -39q-29 0 -53.5 14t-24.5 37zM1077 70q0 43 29 77q59 69 227 226q83 77 133 152t50 163q0 141 -127 141q-87 0 -144 -65q-28 -33 -46 -46t-40 -13q-23 0 -38 12t-15 35q0 29 20 55q36 47 107 76.5t162 29.5q148 0 234.5 -64t86.5 -173q0 -86 -46 -151 t-136 -134l-139 -106q-125 -94 -158 -131v-9h393q48 0 66 -18.5t18 -58.5q0 -34 -21 -55t-63 -21h-475q-78 0 -78 78z" />
<glyph unicode="&#xbe;" horiz-adv-x="1921" d="M90 678q0 27 16.5 43t45.5 16q24 0 38.5 -11t32.5 -36q55 -67 162 -67q74 0 120 52.5t46 135.5q0 176 -195 176h-28q-60 0 -60 47q0 49 60 49h34q43 0 75 12.5t48.5 30.5t27 43.5t13 44.5t2.5 41q0 61 -34.5 98.5t-90.5 37.5q-80 0 -145 -68q-48 -51 -84 -51 q-51 0 -51 47q0 26 22 55q38 46 109.5 73.5t151.5 27.5q147 0 232 -59t85 -161q0 -63 -41 -114t-135 -72v-8q94 -27 148.5 -87.5t54.5 -148.5q0 -132 -103.5 -209t-263.5 -77q-173 0 -264 82q-29 29 -29 57zM385 -78q0 21 21 51l1007 1479q26 39 68 39q29 0 53.5 -14 t24.5 -37q0 -21 -21 -51l-1008 -1479q-26 -39 -67 -39q-29 0 -53.5 14t-24.5 37zM1071 270q0 36 27 74q26 38 135 188q121 164 223 297q25 32 52 48t77 16q59 0 89 -25.5t30 -66.5v-469h49q42 0 60 -16.5t18 -51.5q0 -31 -19.5 -50t-58.5 -19h-49v-148q0 -34 -27 -53 t-67 -19t-67 19t-27 53v148h-367q-78 0 -78 75zM1206 332h310v145q0 138 6 279h-9q-47 -74 -83 -121l-115 -156q-59 -79 -109 -139v-8z" />
<glyph unicode="&#xbf;" horiz-adv-x="1073" d="M61 -125q0 86 36.5 158t106.5 137t195 149q91 60 137 112t52 116q6 61 49 61q30 0 43 -33q8 -19 8 -100q0 -112 -36 -180t-148 -176q-77 -74 -113.5 -135t-36.5 -138q0 -90 59 -152.5t177 -62.5q147 0 248 115q46 53 73 73.5t56 20.5t49 -16.5t20 -44.5q0 -38 -30 -76 q-60 -76 -171.5 -123t-254.5 -47q-108 0 -201 22t-164.5 63.5t-112.5 107.5t-41 149zM473 903q0 55 43 88t111 33t110.5 -33t42.5 -88q0 -54 -42.5 -86.5t-110.5 -32.5t-111 32.5t-43 86.5z" />
<glyph unicode="&#xc0;" horiz-adv-x="1372" d="M10 61q0 25 17 66l510 1221q45 106 194 106q130 0 166 -106l434 -1215q10 -29 10 -49q0 -41 -36 -66.5t-99 -25.5q-131 0 -168 108l-108 320h-621l-127 -338q-19 -51 -40 -70.5t-58 -19.5q-32 0 -53 18t-21 51zM352 539h539l-250 741h-10l-86 -227zM426 1853 q0 42 34.5 67.5t74.5 25.5q66 0 118 -64l185 -235q16 -19 16 -35q0 -14 -12 -24.5t-31 -10.5q-23 0 -47 14l-277 178q-61 38 -61 84z" />
<glyph unicode="&#xc1;" horiz-adv-x="1372" d="M10 61q0 25 17 66l510 1221q45 106 194 106q130 0 166 -106l434 -1215q10 -29 10 -49q0 -41 -36 -66.5t-99 -25.5q-131 0 -168 108l-108 320h-621l-127 -338q-19 -51 -40 -70.5t-58 -19.5q-32 0 -53 18t-21 51zM352 539h539l-250 741h-10l-86 -227zM549 1612q0 16 16 35 l193 235q52 64 116 64q40 0 75.5 -25.5t35.5 -67.5q0 -43 -61 -81l-291 -181q-24 -14 -47 -14q-17 0 -27 10.5t-10 24.5z" />
<glyph unicode="&#xc2;" horiz-adv-x="1372" d="M10 61q0 25 17 66l510 1221q45 106 194 106q130 0 166 -106l434 -1215q10 -29 10 -49q0 -41 -36 -66.5t-99 -25.5q-131 0 -168 108l-108 320h-621l-127 -338q-19 -51 -40 -70.5t-58 -19.5q-32 0 -53 18t-21 51zM352 539h539l-250 741h-10l-86 -227zM358 1612q0 19 23 39 l217 213q53 49 107 49q24 0 45 -8t32.5 -16.5t28.5 -24.5l215 -211q25 -21 25 -41q0 -16 -12.5 -25.5t-26.5 -9.5q-21 0 -45 12l-275 135l-250 -135q-24 -12 -45 -12q-14 0 -26.5 9.5t-12.5 25.5z" />
<glyph unicode="&#xc3;" horiz-adv-x="1372" d="M10 61q0 25 17 66l510 1221q45 106 194 106q130 0 166 -106l434 -1215q10 -29 10 -49q0 -41 -36 -66.5t-99 -25.5q-131 0 -168 108l-108 320h-621l-127 -338q-19 -51 -40 -70.5t-58 -19.5q-32 0 -53 18t-21 51zM340 1632q0 11 8 39q26 76 87 128t147 52q60 0 101.5 -12.5 t88.5 -38.5q92 -53 143 -53q39 0 62.5 16.5t44.5 55.5q20 32 45 32q41 0 41 -39q0 -10 -8 -38q-26 -76 -87 -128.5t-147 -52.5q-60 0 -101 13t-89 39q-92 53 -144 53q-39 0 -62 -16.5t-44 -55.5q-21 -33 -45 -33q-41 0 -41 39zM352 539h539l-250 741h-10l-86 -227z" />
<glyph unicode="&#xc4;" horiz-adv-x="1372" d="M10 61q0 25 17 66l510 1221q45 106 194 106q130 0 166 -106l434 -1215q10 -29 10 -49q0 -41 -36 -66.5t-99 -25.5q-131 0 -168 108l-108 320h-621l-127 -338q-19 -51 -40 -70.5t-58 -19.5q-32 0 -53 18t-21 51zM336 1718q0 47 39 77t100 30t99 -30t38 -77 q0 -49 -37.5 -78.5t-99.5 -29.5t-100.5 29.5t-38.5 78.5zM352 539h539l-250 741h-10l-86 -227zM801 1718q0 47 39 77t100 30t99 -30t38 -77q0 -49 -37.5 -78.5t-99.5 -29.5t-100.5 29.5t-38.5 78.5z" />
<glyph unicode="&#xc5;" horiz-adv-x="1372" d="M10 61q0 25 17 66l510 1221q45 106 194 106q130 0 166 -106l434 -1215q10 -29 10 -49q0 -41 -36 -66.5t-99 -25.5q-131 0 -168 108l-108 320h-621l-127 -338q-19 -51 -40 -70.5t-58 -19.5q-32 0 -53 18t-21 51zM352 539h539l-250 741h-10l-86 -227zM530 1704 q0 81 56 134.5t137 53.5q85 0 137.5 -52.5t52.5 -135.5q0 -81 -55 -134.5t-135 -53.5q-89 0 -141 52.5t-52 135.5zM604 1704q0 -55 31.5 -90t87.5 -35q48 0 82.5 35.5t34.5 89.5q0 53 -31.5 89t-85.5 36q-50 0 -84.5 -36.5t-34.5 -88.5z" />
<glyph unicode="&#xc6;" horiz-adv-x="2078" d="M0 59q0 27 31 78l800 1217q33 51 74 71.5t99 20.5h909q74 0 74 -60q0 -28 -19.5 -43.5t-54.5 -15.5h-660v-504h564q73 0 73 -59q0 -28 -19 -43.5t-54 -15.5h-564v-578h678q74 0 74 -59q0 -28 -19.5 -44t-54.5 -16h-821q-131 0 -131 119v324h-563l-238 -388 q-45 -71 -98 -71q-34 0 -57 17t-23 50zM487 569h492v758h-25z" />
<glyph unicode="&#xc7;" horiz-adv-x="1384" d="M82 733q0 168 54.5 308.5t149 234.5t222 146.5t272.5 52.5q177 0 301.5 -53t182.5 -128q26 -36 26 -71q0 -29 -21.5 -50.5t-58.5 -21.5q-32 0 -59 19.5t-57 56.5q-66 81 -136 115t-170 34q-190 0 -298.5 -174t-108.5 -467q0 -305 111.5 -483t308.5 -178q105 0 187.5 36.5 t152.5 118.5q27 32 48.5 48t47.5 16q25 0 45 -14t21 -41q0 -37 -33 -78q-152 -185 -504 -185q-314 0 -499 198t-185 560zM641 -432q0 20 6 61q8 40 8 97q0 13 -2 41.5t-2 37.5q0 45 26.5 73t76.5 28q96 0 96 -90q0 -52 -43.5 -136t-81.5 -126q-22 -25 -43 -25q-19 0 -30 11 t-11 28z" />
<glyph unicode="&#xc8;" horiz-adv-x="1284" d="M184 127v1153q0 166 183 166h751q74 0 74 -60q0 -28 -19.5 -43.5t-54.5 -15.5h-659v-504h563q74 0 74 -59q0 -28 -19.5 -43.5t-54.5 -15.5h-563v-578h678q73 0 73 -59q0 -28 -19 -44t-54 -16h-822q-131 0 -131 119zM442 1853q0 42 34.5 67.5t74.5 25.5q67 0 119 -64 l184 -235q16 -19 16 -35q0 -14 -12 -24.5t-31 -10.5q-23 0 -47 14l-276 178q-62 38 -62 84z" />
<glyph unicode="&#xc9;" horiz-adv-x="1284" d="M184 127v1153q0 166 183 166h751q74 0 74 -60q0 -28 -19.5 -43.5t-54.5 -15.5h-659v-504h563q74 0 74 -59q0 -28 -19.5 -43.5t-54.5 -15.5h-563v-578h678q73 0 73 -59q0 -28 -19 -44t-54 -16h-822q-131 0 -131 119zM561 1612q0 15 17 35l192 235q52 64 117 64 q40 0 75 -25.5t35 -67.5q0 -43 -61 -81l-291 -181q-25 -14 -47 -14q-17 0 -27 10.5t-10 24.5z" />
<glyph unicode="&#xca;" horiz-adv-x="1284" d="M184 127v1153q0 166 183 166h751q74 0 74 -60q0 -28 -19.5 -43.5t-54.5 -15.5h-659v-504h563q74 0 74 -59q0 -28 -19.5 -43.5t-54.5 -15.5h-563v-578h678q73 0 73 -59q0 -28 -19 -44t-54 -16h-822q-131 0 -131 119zM348 1612q0 19 23 39l217 213q17 16 28.5 24.5 t32.5 16.5t45 8q54 0 107 -49l215 -211q24 -21 24 -41q0 -16 -12.5 -25.5t-26.5 -9.5q-21 0 -45 12l-274 135l-250 -135q-24 -12 -45 -12q-14 0 -26.5 9.5t-12.5 25.5z" />
<glyph unicode="&#xcb;" horiz-adv-x="1284" d="M184 127v1153q0 166 183 166h751q74 0 74 -60q0 -28 -19.5 -43.5t-54.5 -15.5h-659v-504h563q74 0 74 -59q0 -28 -19.5 -43.5t-54.5 -15.5h-563v-578h678q73 0 73 -59q0 -28 -19 -44t-54 -16h-822q-131 0 -131 119zM332 1718q0 47 39 77t100 30t99 -30t38 -77 q0 -49 -37.5 -78.5t-99.5 -29.5t-100.5 29.5t-38.5 78.5zM797 1718q0 47 39 77t100 30t99 -30t38 -77q0 -49 -37.5 -78.5t-99.5 -29.5t-100.5 29.5t-38.5 78.5z" />
<glyph unicode="&#xcc;" horiz-adv-x="643" d="M8 1853q0 42 34.5 67.5t74.5 25.5q67 0 119 -64l184 -235q16 -19 16 -35q0 -14 -12 -24.5t-31 -10.5q-23 0 -47 14l-276 178q-62 38 -62 84zM184 92v1262q0 49 39.5 74.5t100.5 25.5q59 0 97 -25.5t38 -74.5v-1262q0 -49 -39.5 -74.5t-100.5 -25.5q-59 0 -97 25.5 t-38 74.5z" />
<glyph unicode="&#xcd;" horiz-adv-x="643" d="M184 92v1262q0 49 39.5 74.5t100.5 25.5q59 0 97 -25.5t38 -74.5v-1262q0 -49 -39.5 -74.5t-100.5 -25.5q-59 0 -97 25.5t-38 74.5zM209 1612q0 16 16 35l193 235q52 64 117 64q40 0 75 -25.5t35 -67.5q0 -43 -61 -81l-291 -181q-25 -14 -47 -14q-17 0 -27 10.5t-10 24.5 z" />
<glyph unicode="&#xce;" horiz-adv-x="643" d="M-16 1612q0 20 22 39l217 213q53 49 107 49q24 0 45 -8t32.5 -16.5t28.5 -24.5l215 -211q25 -21 25 -41q0 -16 -12.5 -25.5t-26.5 -9.5q-21 0 -45 12l-275 135l-249 -135q-24 -12 -45 -12q-14 0 -26.5 9.5t-12.5 25.5zM184 92v1262q0 49 39.5 74.5t100.5 25.5 q59 0 97 -25.5t38 -74.5v-1262q0 -49 -39.5 -74.5t-100.5 -25.5q-59 0 -97 25.5t-38 74.5z" />
<glyph unicode="&#xcf;" horiz-adv-x="643" d="M-49 1718q0 47 39 77t100 30t99 -30t38 -77q0 -49 -37.5 -78.5t-99.5 -29.5t-100.5 29.5t-38.5 78.5zM184 92v1262q0 49 39.5 74.5t100.5 25.5q59 0 97 -25.5t38 -74.5v-1262q0 -49 -39.5 -74.5t-100.5 -25.5q-59 0 -97 25.5t-38 74.5zM416 1718q0 47 39 77t100 30 t99 -30t38 -77q0 -49 -37.5 -78.5t-99.5 -29.5t-100.5 29.5t-38.5 78.5z" />
<glyph unicode="&#xd1;" horiz-adv-x="1552" d="M184 59v1270q0 56 43.5 90.5t124.5 34.5q120 0 185 -100q115 -174 302 -475.5t244 -391.5q83 -131 138 -235h10q-6 217 -6 450v684q0 33 19 50.5t52 17.5q32 0 52 -17.5t20 -50.5v-1269q0 -56 -40 -90.5t-120 -34.5q-125 0 -190 100q-88 133 -177.5 274.5t-196 312.5 t-175.5 279q-74 116 -137 236h-10q6 -218 6 -449v-686q0 -33 -19.5 -50t-52.5 -17q-32 0 -52 17t-20 50zM418 1632q0 11 8 39q26 76 86.5 128t146.5 52q60 0 102 -12.5t89 -38.5q92 -53 143 -53q39 0 62.5 16.5t44.5 55.5q20 32 45 32q41 0 41 -39q0 -10 -8 -38 q-26 -76 -87 -128.5t-147 -52.5q-60 0 -101 13t-89 39q-92 53 -144 53q-39 0 -62 -16.5t-44 -55.5q-21 -33 -45 -33q-41 0 -41 39z" />
<glyph unicode="&#xd2;" horiz-adv-x="1581" d="M82 725q0 170 53.5 311t147.5 237t224.5 149t283.5 53q154 0 283.5 -49.5t224 -142.5t147.5 -236t53 -322q0 -170 -53.5 -311.5t-148 -237t-224.5 -148.5t-282 -53q-157 0 -286.5 49.5t-224 142.5t-146.5 236t-52 322zM381 725q0 -323 107.5 -487t302.5 -164t302 167.5 t107 483.5q0 322 -108 486.5t-301 164.5q-196 0 -303 -168t-107 -483zM543 1853q0 42 34 67.5t74 25.5q67 0 119 -64l184 -235q17 -20 17 -35q0 -14 -12 -24.5t-31 -10.5q-23 0 -47 14l-277 178q-61 38 -61 84z" />
<glyph unicode="&#xd3;" horiz-adv-x="1581" d="M82 725q0 170 53.5 311t147.5 237t224.5 149t283.5 53q154 0 283.5 -49.5t224 -142.5t147.5 -236t53 -322q0 -170 -53.5 -311.5t-148 -237t-224.5 -148.5t-282 -53q-157 0 -286.5 49.5t-224 142.5t-146.5 236t-52 322zM381 725q0 -323 107.5 -487t302.5 -164t302 167.5 t107 483.5q0 322 -108 486.5t-301 164.5q-196 0 -303 -168t-107 -483zM666 1612q0 16 16 35l192 235q52 64 117 64q40 0 75.5 -25.5t35.5 -67.5q0 -43 -62 -81l-290 -181q-25 -14 -48 -14q-16 0 -26 10.5t-10 24.5z" />
<glyph unicode="&#xd4;" horiz-adv-x="1581" d="M82 725q0 170 53.5 311t147.5 237t224.5 149t283.5 53q154 0 283.5 -49.5t224 -142.5t147.5 -236t53 -322q0 -170 -53.5 -311.5t-148 -237t-224.5 -148.5t-282 -53q-157 0 -286.5 49.5t-224 142.5t-146.5 236t-52 322zM381 725q0 -323 107.5 -487t302.5 -164t302 167.5 t107 483.5q0 322 -108 486.5t-301 164.5q-196 0 -303 -168t-107 -483zM449 1612q0 20 22 39l217 213q53 49 107 49q24 0 45 -8t32.5 -16.5t28.5 -24.5l215 -211q25 -21 25 -41q0 -16 -12.5 -25.5t-26.5 -9.5q-21 0 -45 12l-275 135l-250 -135q-24 -12 -45 -12q-14 0 -26 9.5 t-12 25.5z" />
<glyph unicode="&#xd5;" horiz-adv-x="1581" d="M82 725q0 170 53.5 311t147.5 237t224.5 149t283.5 53q154 0 283.5 -49.5t224 -142.5t147.5 -236t53 -322q0 -170 -53.5 -311.5t-148 -237t-224.5 -148.5t-282 -53q-157 0 -286.5 49.5t-224 142.5t-146.5 236t-52 322zM381 725q0 -323 107.5 -487t302.5 -164t302 167.5 t107 483.5q0 322 -108 486.5t-301 164.5q-196 0 -303 -168t-107 -483zM426 1632q0 11 8 39q26 76 87 128t147 52q60 0 101.5 -12.5t88.5 -38.5q92 -53 143 -53q39 0 62.5 16.5t44.5 55.5q20 32 45 32q41 0 41 -39q0 -10 -8 -38q-26 -76 -87 -128.5t-147 -52.5q-60 0 -101 13 t-89 39q-92 53 -144 53q-39 0 -62 -16.5t-44 -55.5q-21 -33 -45 -33q-41 0 -41 39z" />
<glyph unicode="&#xd6;" horiz-adv-x="1581" d="M82 725q0 170 53.5 311t147.5 237t224.5 149t283.5 53q154 0 283.5 -49.5t224 -142.5t147.5 -236t53 -322q0 -170 -53.5 -311.5t-148 -237t-224.5 -148.5t-282 -53q-157 0 -286.5 49.5t-224 142.5t-146.5 236t-52 322zM381 725q0 -323 107.5 -487t302.5 -164t302 167.5 t107 483.5q0 322 -108 486.5t-301 164.5q-196 0 -303 -168t-107 -483zM422 1718q0 47 39 77t100 30t99 -30t38 -77q0 -49 -37.5 -78.5t-99.5 -29.5t-100.5 29.5t-38.5 78.5zM887 1718q0 47 39 77t100 30t99 -30t38 -77q0 -49 -37.5 -78.5t-99.5 -29.5t-100.5 29.5 t-38.5 78.5z" />
<glyph unicode="&#xd7;" horiz-adv-x="1007" d="M90 1014q0 27 22 47t48 20q33 0 61 -28l285 -285l280 285q19 19 30.5 25.5t29.5 6.5q28 0 48.5 -18t20.5 -43q0 -31 -28 -59l-287 -291l285 -285q19 -19 26 -30.5t7 -28.5q0 -27 -22 -47.5t-48 -20.5q-33 0 -62 29l-284 282l-281 -282q-29 -33 -59 -33q-28 0 -47 18 t-19 43q0 31 29 60l283 289l-285 286q-33 29 -33 60z" />
<glyph unicode="&#xd8;" horiz-adv-x="1581" d="M82 725q0 170 53.5 311t147.5 237t224.5 149t283.5 53q240 0 415 -119l99 121q30 39 61 39q24 0 40.5 -13.5t16.5 -34.5q0 -23 -22 -49l-109 -131q207 -204 207 -563q0 -170 -53.5 -311.5t-148 -237t-224.5 -148.5t-282 -53q-270 0 -451 140l-115 -142q-30 -39 -61 -39 q-24 0 -41 13.5t-17 34.5q0 22 23 49l129 159q-176 198 -176 535zM381 725q0 -196 41 -336l668 823q-103 164 -299 164t-303 -168t-107 -483zM467 272q107 -198 324 -198q195 0 302 167.5t107 483.5q0 225 -57 379z" />
<glyph unicode="&#xd9;" horiz-adv-x="1513" d="M160 569v785q0 49 39 74.5t100 25.5q59 0 97 -25.5t38 -74.5v-856q0 -201 82.5 -314.5t253.5 -113.5q70 0 128.5 24.5t105.5 74t73.5 132t26.5 191.5v866q0 46 35 71t92 25q56 0 89.5 -25t33.5 -71v-793q0 -131 -35 -237.5t-105 -186t-183 -123t-261 -43.5 q-294 0 -452 154t-158 440zM498 1853q0 42 34 67.5t74 25.5q67 0 119 -64l184 -235q17 -20 17 -35q0 -14 -12 -24.5t-31 -10.5q-23 0 -47 14l-277 178q-61 38 -61 84z" />
<glyph unicode="&#xda;" horiz-adv-x="1513" d="M160 569v785q0 49 39 74.5t100 25.5q59 0 97 -25.5t38 -74.5v-856q0 -201 82.5 -314.5t253.5 -113.5q70 0 128.5 24.5t105.5 74t73.5 132t26.5 191.5v866q0 46 35 71t92 25q56 0 89.5 -25t33.5 -71v-793q0 -131 -35 -237.5t-105 -186t-183 -123t-261 -43.5 q-294 0 -452 154t-158 440zM647 1612q0 15 17 35l192 235q52 64 117 64q40 0 75 -25.5t35 -67.5q0 -43 -61 -81l-291 -181q-24 -14 -47 -14q-17 0 -27 10.5t-10 24.5z" />
<glyph unicode="&#xdb;" horiz-adv-x="1513" d="M160 569v785q0 49 39 74.5t100 25.5q59 0 97 -25.5t38 -74.5v-856q0 -201 82.5 -314.5t253.5 -113.5q70 0 128.5 24.5t105.5 74t73.5 132t26.5 191.5v866q0 46 35 71t92 25q56 0 89.5 -25t33.5 -71v-793q0 -131 -35 -237.5t-105 -186t-183 -123t-261 -43.5 q-294 0 -452 154t-158 440zM426 1612q0 19 23 39l217 213q17 16 28.5 24.5t32.5 16.5t45 8q54 0 107 -49l215 -211q24 -21 24 -41q0 -16 -12.5 -25.5t-26.5 -9.5q-21 0 -45 12l-274 135l-250 -135q-24 -12 -45 -12q-14 0 -26.5 9.5t-12.5 25.5z" />
<glyph unicode="&#xdc;" horiz-adv-x="1513" d="M160 569v785q0 49 39 74.5t100 25.5q59 0 97 -25.5t38 -74.5v-856q0 -201 82.5 -314.5t253.5 -113.5q70 0 128.5 24.5t105.5 74t73.5 132t26.5 191.5v866q0 46 35 71t92 25q56 0 89.5 -25t33.5 -71v-793q0 -131 -35 -237.5t-105 -186t-183 -123t-261 -43.5 q-294 0 -452 154t-158 440zM391 1718q0 47 39 77t100 30t99.5 -30t38.5 -77q0 -49 -38 -78.5t-100 -29.5t-100.5 29.5t-38.5 78.5zM856 1718q0 47 39 77t100 30t99.5 -30t38.5 -77q0 -49 -38 -78.5t-100 -29.5t-100.5 29.5t-38.5 78.5z" />
<glyph unicode="&#xdf;" horiz-adv-x="1366" d="M152 92v932q0 250 144.5 393.5t397.5 143.5q78 0 152 -13.5t142.5 -44t119 -74t81 -108.5t30.5 -143q0 -134 -86.5 -222.5t-241.5 -119.5v-9q182 -18 291.5 -117t109.5 -264q0 -205 -140 -333.5t-388 -128.5q-78 0 -143 18q-80 22 -80 68q0 26 17.5 42.5t47.5 16.5 q20 0 64 -23q50 -24 100 -24q75 0 128 51t76 125t23 160q0 332 -301 332h-14q-76 0 -76 57q0 61 76 61h4q137 0 203 88q59 75 59 230q0 137 -71.5 204.5t-182.5 67.5q-131 0 -201.5 -90t-70.5 -270v-1006q0 -49 -37.5 -74.5t-97.5 -25.5q-59 0 -97 25.5t-38 74.5z" />
<glyph unicode="&#xe0;" d="M61 512q0 250 145 407.5t374 157.5q100 0 181.5 -47.5t119.5 -130.5h12l8 68q6 46 38.5 70t86.5 24t88.5 -25t34.5 -71v-877q0 -45 -37 -70.5t-94 -25.5q-112 0 -121 96l-10 98h-13q-48 -103 -126 -157t-207 -54q-159 0 -269 71.5t-160.5 190.5t-50.5 275zM340 520 q0 -210 68.5 -316t183.5 -106q142 0 217.5 116.5t75.5 301.5q0 101 -15 181t-47 141t-85.5 94t-127.5 33q-125 0 -197.5 -122t-72.5 -323zM367 1464q0 42 34 67t74 25q68 0 119 -63l184 -236q17 -20 17 -34t-12 -24.5t-31 -10.5q-22 0 -47 14l-277 178q-61 38 -61 84z" />
<glyph unicode="&#xe1;" d="M61 512q0 250 145 407.5t374 157.5q100 0 181.5 -47.5t119.5 -130.5h12l8 68q6 46 38.5 70t86.5 24t88.5 -25t34.5 -71v-877q0 -45 -37 -70.5t-94 -25.5q-112 0 -121 96l-10 98h-13q-48 -103 -126 -157t-207 -54q-159 0 -269 71.5t-160.5 190.5t-50.5 275zM340 520 q0 -210 68.5 -316t183.5 -106q142 0 217.5 116.5t75.5 301.5q0 101 -15 181t-47 141t-85.5 94t-127.5 33q-125 0 -197.5 -122t-72.5 -323zM477 1223q0 14 17 34l192 236q51 63 117 63q40 0 75 -25t35 -67q0 -44 -61 -82l-291 -180q-25 -14 -47 -14q-17 0 -27 10.5t-10 24.5z " />
<glyph unicode="&#xe2;" d="M61 512q0 250 145 407.5t374 157.5q100 0 181.5 -47.5t119.5 -130.5h12l8 68q6 46 38.5 70t86.5 24t88.5 -25t34.5 -71v-877q0 -45 -37 -70.5t-94 -25.5q-112 0 -121 96l-10 98h-13q-48 -103 -126 -157t-207 -54q-159 0 -269 71.5t-160.5 190.5t-50.5 275zM281 1223 q0 16 20 39l223 233q45 49 107 49q61 0 106 -49l213 -233q21 -25 21 -39q0 -16 -12.5 -25.5t-26.5 -9.5q-23 0 -45 14l-271 164l-254 -164q-20 -14 -43 -14q-14 0 -26 9.5t-12 25.5zM340 520q0 -210 68.5 -316t183.5 -106q142 0 217.5 116.5t75.5 301.5q0 101 -15 181 t-47 141t-85.5 94t-127.5 33q-125 0 -197.5 -122t-72.5 -323z" />
<glyph unicode="&#xe3;" d="M61 512q0 250 145 407.5t374 157.5q100 0 181.5 -47.5t119.5 -130.5h12l8 68q6 46 38.5 70t86.5 24t88.5 -25t34.5 -71v-877q0 -45 -37 -70.5t-94 -25.5q-112 0 -121 96l-10 98h-13q-48 -103 -126 -157t-207 -54q-159 0 -269 71.5t-160.5 190.5t-50.5 275zM258 1255 q0 11 8 39q26 76 87 128.5t147 52.5q60 0 101 -13t89 -39q92 -53 144 -53q39 0 62 16.5t44 55.5q21 33 45 33q41 0 41 -39q0 -11 -8 -39q-26 -76 -87 -128t-147 -52q-60 0 -101.5 12.5t-88.5 38.5q-92 53 -143 53q-39 0 -62.5 -16.5t-44.5 -55.5q-20 -32 -45 -32 q-41 0 -41 38zM340 520q0 -210 68.5 -316t183.5 -106q142 0 217.5 116.5t75.5 301.5q0 101 -15 181t-47 141t-85.5 94t-127.5 33q-125 0 -197.5 -122t-72.5 -323z" />
<glyph unicode="&#xe4;" d="M61 512q0 250 145 407.5t374 157.5q100 0 181.5 -47.5t119.5 -130.5h12l8 68q6 46 38.5 70t86.5 24t88.5 -25t34.5 -71v-877q0 -45 -37 -70.5t-94 -25.5q-112 0 -121 96l-10 98h-13q-48 -103 -126 -157t-207 -54q-159 0 -269 71.5t-160.5 190.5t-50.5 275zM231 1343 q0 47 39 77t101 30q61 0 99 -30t38 -77q0 -49 -37.5 -78.5t-99.5 -29.5t-101 29.5t-39 78.5zM340 520q0 -210 68.5 -316t183.5 -106q142 0 217.5 116.5t75.5 301.5q0 101 -15 181t-47 141t-85.5 94t-127.5 33q-125 0 -197.5 -122t-72.5 -323zM696 1343q0 47 39 77t101 30 q61 0 99 -30t38 -77q0 -49 -37.5 -78.5t-99.5 -29.5t-101 29.5t-39 78.5z" />
<glyph unicode="&#xe5;" d="M61 512q0 250 145 407.5t374 157.5q100 0 181.5 -47.5t119.5 -130.5h12l8 68q6 46 38.5 70t86.5 24t88.5 -25t34.5 -71v-877q0 -45 -37 -70.5t-94 -25.5q-112 0 -121 96l-10 98h-13q-48 -103 -126 -157t-207 -54q-159 0 -269 71.5t-160.5 190.5t-50.5 275zM340 520 q0 -210 68.5 -316t183.5 -106q142 0 217.5 116.5t75.5 301.5q0 101 -15 181t-47 141t-85.5 94t-127.5 33q-125 0 -197.5 -122t-72.5 -323zM428 1380q0 81 56.5 135t136.5 54q85 0 137.5 -53t52.5 -136q0 -81 -55 -134.5t-135 -53.5q-89 0 -141 52.5t-52 135.5zM502 1380 q0 -55 31.5 -90t87.5 -35q48 0 82 35.5t34 89.5q0 53 -31 89t-85 36q-50 0 -84.5 -36.5t-34.5 -88.5z" />
<glyph unicode="&#xe6;" horiz-adv-x="2048" d="M61 512q0 250 145 407.5t374 157.5q102 0 181 -43t120 -116h12l8 49q6 46 38.5 70t86.5 24q53 0 76 -22t28 -72l7 -45h12q119 155 352 155q95 0 176.5 -28t146 -84.5t101.5 -150t37 -214.5v-10q0 -46 -25 -69t-82 -23h-694v-11q0 -175 93.5 -292t242.5 -117 q175 0 279 104q41 41 73 41q24 0 40 -14t16 -35q0 -25 -29 -61q-65 -74 -171.5 -106t-207.5 -32q-134 0 -231 47.5t-144 137.5h-10l-4 -72q-3 -96 -109 -96q-105 0 -108 96l-4 78h-13q-54 -91 -130.5 -141t-202.5 -50q-159 0 -269 71.5t-160.5 190.5t-50.5 275zM340 520 q0 -210 68.5 -316t183.5 -106q142 0 217.5 116.5t75.5 301.5q0 449 -269 449q-125 0 -200.5 -122.5t-75.5 -322.5zM1165 604h539v43q0 168 -53.5 254t-175.5 86q-119 0 -208 -103t-102 -280z" />
<glyph unicode="&#xe7;" horiz-adv-x="1069" d="M61 524q0 116 38.5 217.5t108 175.5t172.5 117t226 43q249 0 371 -125q29 -29 29 -61q0 -26 -18.5 -46t-53.5 -20q-21 0 -42 11t-32.5 22t-32.5 33q-49 52 -95.5 72t-110.5 20q-128 0 -203.5 -125t-75.5 -319q0 -212 75.5 -336.5t221.5 -124.5q145 0 244 104q41 41 73 41 q24 0 40 -14t16 -35q0 -25 -29 -61q-122 -138 -371 -138q-251 0 -401 141.5t-150 407.5zM473 -432q0 20 6 61q8 40 8 97q0 13 -2 41.5t-2 37.5q0 45 26.5 73t76.5 28q96 0 96 -90q0 -52 -43.5 -136t-81.5 -126q-22 -25 -43 -25q-19 0 -30 11t-11 28z" />
<glyph unicode="&#xe8;" horiz-adv-x="1136" d="M61 522q0 115 37.5 216t106 176.5t171 119t226.5 43.5q95 0 176.5 -28t146 -84.5t101.5 -150t37 -214.5v-10q0 -46 -25 -69t-82 -23h-620v-11q0 -179 80.5 -294t226.5 -115q84 0 142.5 23.5t115.5 80.5q41 41 74 41q24 0 39.5 -13.5t15.5 -35.5q0 -25 -29 -61 q-122 -138 -399 -138q-247 0 -394 143.5t-147 403.5zM334 1464q0 42 34 67t74 25q68 0 119 -63l184 -236q17 -20 17 -34t-12 -24.5t-31 -10.5q-23 0 -47 14l-277 178q-61 38 -61 84zM340 604h465v43q0 78 -10 136.5t-33 106t-66 72.5t-104 25q-116 0 -181 -96.5t-71 -286.5z " />
<glyph unicode="&#xe9;" horiz-adv-x="1136" d="M61 522q0 115 37.5 216t106 176.5t171 119t226.5 43.5q95 0 176.5 -28t146 -84.5t101.5 -150t37 -214.5v-10q0 -46 -25 -69t-82 -23h-620v-11q0 -179 80.5 -294t226.5 -115q84 0 142.5 23.5t115.5 80.5q41 41 74 41q24 0 39.5 -13.5t15.5 -35.5q0 -25 -29 -61 q-122 -138 -399 -138q-247 0 -394 143.5t-147 403.5zM340 604h465v43q0 78 -10 136.5t-33 106t-66 72.5t-104 25q-116 0 -181 -96.5t-71 -286.5zM436 1223q0 14 17 34l192 236q51 63 117 63q40 0 75 -25t35 -67q0 -44 -61 -82l-291 -180q-25 -14 -47 -14q-17 0 -27 10.5 t-10 24.5z" />
<glyph unicode="&#xea;" horiz-adv-x="1136" d="M61 522q0 115 37.5 216t106 176.5t171 119t226.5 43.5q95 0 176.5 -28t146 -84.5t101.5 -150t37 -214.5v-10q0 -46 -25 -69t-82 -23h-620v-11q0 -179 80.5 -294t226.5 -115q84 0 142.5 23.5t115.5 80.5q41 41 74 41q24 0 39.5 -13.5t15.5 -35.5q0 -25 -29 -61 q-122 -138 -399 -138q-247 0 -394 143.5t-147 403.5zM254 1223q0 16 20 39l224 233q45 49 106 49q62 0 107 -49l213 -233q20 -23 20 -39t-12.5 -25.5t-26.5 -9.5q-23 0 -45 14l-270 164l-254 -164q-20 -14 -43 -14q-14 0 -26.5 9.5t-12.5 25.5zM340 604h465v43 q0 78 -10 136.5t-33 106t-66 72.5t-104 25q-116 0 -181 -96.5t-71 -286.5z" />
<glyph unicode="&#xeb;" horiz-adv-x="1136" d="M61 522q0 115 37.5 216t106 176.5t171 119t226.5 43.5q95 0 176.5 -28t146 -84.5t101.5 -150t37 -214.5v-10q0 -46 -25 -69t-82 -23h-620v-11q0 -179 80.5 -294t226.5 -115q84 0 142.5 23.5t115.5 80.5q41 41 74 41q24 0 39.5 -13.5t15.5 -35.5q0 -25 -29 -61 q-122 -138 -399 -138q-247 0 -394 143.5t-147 403.5zM219 1343q0 47 39 77t100 30t99.5 -30t38.5 -77q0 -49 -38 -78.5t-100 -29.5t-100.5 29.5t-38.5 78.5zM340 604h465v43q0 78 -10 136.5t-33 106t-66 72.5t-104 25q-116 0 -181 -96.5t-71 -286.5zM684 1343q0 47 39 77 t100 30t99.5 -30t38.5 -77q0 -49 -38 -78.5t-100 -29.5t-100.5 29.5t-38.5 78.5z" />
<glyph unicode="&#xec;" horiz-adv-x="581" d="M12 1464q0 42 34.5 67t74.5 25q68 0 119 -63l184 -236q16 -19 16 -34q0 -14 -12 -24.5t-31 -10.5q-23 0 -47 14l-276 178q-62 38 -62 84zM156 92v866q0 49 38.5 76t96.5 27q59 0 97 -27t38 -76v-866q0 -49 -37.5 -74.5t-97.5 -25.5q-59 0 -97 25.5t-38 74.5z" />
<glyph unicode="&#xed;" horiz-adv-x="581" d="M156 92v866q0 49 38.5 76t96.5 27q59 0 97 -27t38 -76v-866q0 -49 -37.5 -74.5t-97.5 -25.5q-59 0 -97 25.5t-38 74.5zM162 1223q0 15 16 34l193 236q51 63 116 63q40 0 75.5 -25t35.5 -67q0 -44 -61 -82l-291 -180q-25 -14 -47 -14q-17 0 -27 10.5t-10 24.5z" />
<glyph unicode="&#xee;" horiz-adv-x="581" d="M-51 1223q0 16 20 39l224 233q45 49 106 49q62 0 107 -49l212 -233q21 -25 21 -39q0 -16 -12.5 -25.5t-26.5 -9.5q-23 0 -45 14l-270 164l-254 -164q-20 -14 -43 -14q-14 0 -26.5 9.5t-12.5 25.5zM156 92v866q0 49 38.5 76t96.5 27q59 0 97 -27t38 -76v-866 q0 -49 -37.5 -74.5t-97.5 -25.5q-59 0 -97 25.5t-38 74.5z" />
<glyph unicode="&#xef;" horiz-adv-x="581" d="M-80 1343q0 47 39 77t100 30t99.5 -30t38.5 -77q0 -49 -38 -78.5t-100 -29.5t-100.5 29.5t-38.5 78.5zM156 92v866q0 49 38.5 76t96.5 27q59 0 97 -27t38 -76v-866q0 -49 -37.5 -74.5t-97.5 -25.5q-59 0 -97 25.5t-38 74.5zM385 1343q0 47 39 77t100 30t99.5 -30 t38.5 -77q0 -49 -38 -78.5t-100 -29.5t-100.5 29.5t-38.5 78.5z" />
<glyph unicode="&#xf1;" horiz-adv-x="1257" d="M152 92v873q0 46 36.5 71t92.5 25q109 0 118 -96l7 -74h12q36 86 120 136t201 50q194 0 286.5 -111.5t92.5 -314.5v-559q0 -49 -38.5 -74.5t-98.5 -25.5q-59 0 -96 25.5t-37 74.5v610q0 52 -9 96t-30 83t-61 61.5t-95 22.5q-105 0 -168 -96t-63 -244v-533 q0 -49 -37.5 -74.5t-97.5 -25.5q-59 0 -97 25.5t-38 74.5zM279 1255q0 11 8 39q26 76 86.5 128.5t146.5 52.5q60 0 101.5 -13t89.5 -39q92 -53 143 -53q39 0 62.5 16.5t44.5 55.5q21 33 45 33q41 0 41 -39q0 -8 -9 -39q-26 -76 -86.5 -128t-146.5 -52q-60 0 -102 12.5 t-89 38.5q-92 53 -143 53q-39 0 -62 -16.5t-44 -55.5q-20 -32 -46 -32q-22 0 -31 9t-9 29z" />
<glyph unicode="&#xf2;" horiz-adv-x="1202" d="M61 516q0 249 148.5 405t392.5 156q256 0 397.5 -143t141.5 -399q0 -249 -147.5 -404.5t-393.5 -155.5q-254 0 -396.5 143t-142.5 398zM340 518q0 -236 64.5 -343t195.5 -107q126 0 194 120.5t68 343.5q0 239 -66 346t-196 107q-125 0 -192.5 -124t-67.5 -343zM362 1464 q0 42 34.5 67t74.5 25q68 0 119 -63l184 -236q17 -20 17 -34t-12 -24.5t-31 -10.5q-24 0 -48 14l-276 178q-62 38 -62 84z" />
<glyph unicode="&#xf3;" horiz-adv-x="1202" d="M61 516q0 249 148.5 405t392.5 156q256 0 397.5 -143t141.5 -399q0 -249 -147.5 -404.5t-393.5 -155.5q-254 0 -396.5 143t-142.5 398zM340 518q0 -236 64.5 -343t195.5 -107q126 0 194 120.5t68 343.5q0 239 -66 346t-196 107q-125 0 -192.5 -124t-67.5 -343zM465 1223 q0 15 16 34l193 236q51 63 117 63q40 0 75 -25t35 -67q0 -44 -61 -82l-291 -180q-24 -14 -47 -14q-17 0 -27 10.5t-10 24.5z" />
<glyph unicode="&#xf4;" horiz-adv-x="1202" d="M61 516q0 249 148.5 405t392.5 156q256 0 397.5 -143t141.5 -399q0 -249 -147.5 -404.5t-393.5 -155.5q-254 0 -396.5 143t-142.5 398zM264 1223q0 14 21 39l223 233q45 49 106 49q62 0 107 -49l213 -233q20 -23 20 -39t-12.5 -25.5t-26.5 -9.5q-23 0 -45 14l-270 164 l-254 -164q-20 -14 -43 -14q-14 0 -26.5 9.5t-12.5 25.5zM340 518q0 -236 64.5 -343t195.5 -107q126 0 194 120.5t68 343.5q0 239 -66 346t-196 107q-125 0 -192.5 -124t-67.5 -343z" />
<glyph unicode="&#xf5;" horiz-adv-x="1202" d="M61 516q0 249 148.5 405t392.5 156q256 0 397.5 -143t141.5 -399q0 -249 -147.5 -404.5t-393.5 -155.5q-254 0 -396.5 143t-142.5 398zM231 1255q0 7 9 39q26 76 86.5 128.5t146.5 52.5q60 0 101.5 -13t89.5 -39q92 -53 143 -53q39 0 62 16.5t44 55.5q21 33 45 33 q41 0 41 -39q0 -11 -8 -39q-26 -76 -86.5 -128t-146.5 -52q-60 0 -102 12.5t-89 38.5q-92 53 -143 53q-39 0 -62.5 -16.5t-44.5 -55.5q-20 -32 -45 -32q-41 0 -41 38zM340 518q0 -236 64.5 -343t195.5 -107q126 0 194 120.5t68 343.5q0 239 -66 346t-196 107 q-125 0 -192.5 -124t-67.5 -343z" />
<glyph unicode="&#xf6;" horiz-adv-x="1202" d="M61 516q0 249 148.5 405t392.5 156q256 0 397.5 -143t141.5 -399q0 -249 -147.5 -404.5t-393.5 -155.5q-254 0 -396.5 143t-142.5 398zM236 1343q0 47 39 77t100 30t99 -30t38 -77q0 -49 -37.5 -78.5t-99.5 -29.5t-100.5 29.5t-38.5 78.5zM340 518q0 -236 64.5 -343 t195.5 -107q126 0 194 120.5t68 343.5q0 239 -66 346t-196 107q-125 0 -192.5 -124t-67.5 -343zM700 1343q0 47 39 77t101 30q61 0 99 -30t38 -77q0 -49 -37.5 -78.5t-99.5 -29.5t-101 29.5t-39 78.5z" />
<glyph unicode="&#xf7;" horiz-adv-x="1179" d="M90 672q0 67 78 67h844q42 0 60 -16t18 -51q0 -32 -19.5 -50t-58.5 -18h-844q-42 0 -60 16.5t-18 51.5zM467 303q0 42 34.5 68t88.5 26t88.5 -26t34.5 -68q0 -44 -34 -70t-89 -26t-89 26t-34 70zM467 1042q0 43 34.5 69t88.5 26t88.5 -26t34.5 -69q0 -44 -34 -70t-89 -26 t-89 26t-34 70z" />
<glyph unicode="&#xf8;" horiz-adv-x="1202" d="M61 516q0 249 148.5 405t392.5 156q164 0 287 -63l47 67q28 37 57 37q24 0 40 -12.5t16 -32.5q0 -18 -21 -47l-51 -72q164 -145 164 -419q0 -249 -147.5 -404.5t-393.5 -155.5q-156 0 -278 58l-72 -101q-27 -36 -57 -36q-24 0 -40 12.5t-16 32.5q0 18 21 47l73 104 q-170 141 -170 424zM340 518q0 -155 22 -242l433 607q-64 102 -195 102q-125 0 -192.5 -124t-67.5 -343zM412 160q66 -92 188 -92q126 0 194 120.5t68 343.5q0 134 -22 230z" />
<glyph unicode="&#xf9;" horiz-adv-x="1251" d="M131 401v560q0 49 38.5 74.5t98.5 25.5q59 0 97 -25.5t38 -74.5v-611q0 -52 9 -96t29.5 -83t60 -61t94.5 -22q105 0 168 96t63 244v533q0 49 39 74.5t99 25.5q59 0 97 -25.5t38 -74.5v-865q0 -45 -37 -70.5t-94 -25.5q-54 0 -85 24.5t-34 71.5l-6 78h-13 q-36 -90 -120.5 -144.5t-200.5 -54.5q-194 0 -286.5 111.5t-92.5 314.5zM332 1464q0 42 34 67t74 25q68 0 119 -63l184 -236q17 -20 17 -34t-12 -24.5t-31 -10.5q-23 0 -47 14l-277 178q-61 38 -61 84z" />
<glyph unicode="&#xfa;" horiz-adv-x="1251" d="M131 401v560q0 49 38.5 74.5t98.5 25.5q59 0 97 -25.5t38 -74.5v-611q0 -52 9 -96t29.5 -83t60 -61t94.5 -22q105 0 168 96t63 244v533q0 49 39 74.5t99 25.5q59 0 97 -25.5t38 -74.5v-865q0 -45 -37 -70.5t-94 -25.5q-54 0 -85 24.5t-34 71.5l-6 78h-13 q-36 -90 -120.5 -144.5t-200.5 -54.5q-194 0 -286.5 111.5t-92.5 314.5zM479 1223q0 14 17 34l192 236q51 63 117 63q40 0 75 -25t35 -67q0 -44 -61 -82l-291 -180q-24 -14 -47 -14q-17 0 -27 10.5t-10 24.5z" />
<glyph unicode="&#xfb;" horiz-adv-x="1251" d="M131 401v560q0 49 38.5 74.5t98.5 25.5q59 0 97 -25.5t38 -74.5v-611q0 -52 9 -96t29.5 -83t60 -61t94.5 -22q105 0 168 96t63 244v533q0 49 39 74.5t99 25.5q59 0 97 -25.5t38 -74.5v-865q0 -45 -37 -70.5t-94 -25.5q-54 0 -85 24.5t-34 71.5l-6 78h-13 q-36 -90 -120.5 -144.5t-200.5 -54.5q-194 0 -286.5 111.5t-92.5 314.5zM272 1223q0 14 21 39l223 233q45 49 107 49q61 0 106 -49l213 -233q21 -25 21 -39q0 -16 -12.5 -25.5t-26.5 -9.5q-23 0 -45 14l-271 164l-254 -164q-20 -14 -43 -14q-14 0 -26.5 9.5t-12.5 25.5z" />
<glyph unicode="&#xfc;" horiz-adv-x="1251" d="M131 401v560q0 49 38.5 74.5t98.5 25.5q59 0 97 -25.5t38 -74.5v-611q0 -52 9 -96t29.5 -83t60 -61t94.5 -22q105 0 168 96t63 244v533q0 49 39 74.5t99 25.5q59 0 97 -25.5t38 -74.5v-865q0 -45 -37 -70.5t-94 -25.5q-54 0 -85 24.5t-34 71.5l-6 78h-13 q-36 -90 -120.5 -144.5t-200.5 -54.5q-194 0 -286.5 111.5t-92.5 314.5zM244 1343q0 47 39 77t100 30t99 -30t38 -77q0 -49 -37.5 -78.5t-99.5 -29.5t-100.5 29.5t-38.5 78.5zM709 1343q0 47 39 77t100 30t99 -30t38 -77q0 -49 -37.5 -78.5t-99.5 -29.5t-100.5 29.5 t-38.5 78.5z" />
<glyph unicode="&#xff;" horiz-adv-x="1071" d="M20 950q0 54 42 82.5t102 28.5q112 0 143 -84l213 -582q50 -134 74 -217h8l76 184q36 87 147 392q57 156 88 231q34 76 93 76q69 0 69 -57q0 -34 -39 -132q-94 -226 -344 -745q-165 -342 -237 -481q-36 -71 -61.5 -98t-69.5 -27q-26 0 -48 17t-22 46q0 33 33 78 q91 124 168 258l-45 96l-373 863q-17 43 -17 71zM199 1343q0 47 39 77t100 30t99 -30t38 -77q0 -49 -37.5 -78.5t-99.5 -29.5t-100.5 29.5t-38.5 78.5zM664 1343q0 47 39 77t100 30t99 -30t38 -77q0 -49 -37.5 -78.5t-99.5 -29.5t-100.5 29.5t-38.5 78.5z" />
<glyph unicode="&#x152;" horiz-adv-x="2310" d="M82 723q0 170 54 311.5t148.5 238t226 149.5t284.5 53q137 0 252 -47t170 -121h8v14q0 125 164 125h755q74 0 74 -60q0 -28 -19.5 -43.5t-54.5 -15.5h-659v-504h563q74 0 74 -59q0 -28 -19.5 -43.5t-54.5 -15.5h-563v-578h678q73 0 73 -59q0 -28 -19 -44t-54 -16h-822 q-62 0 -92 28.5t-30 90.5v31h-9q-134 -183 -438 -183q-319 0 -504.5 193t-185.5 555zM381 723q0 -321 109.5 -485t300.5 -164q206 0 323 160.5t117 490.5q0 181 -31 309.5t-90 202t-134.5 106.5t-174.5 33q-191 0 -305.5 -171t-114.5 -482z" />
<glyph unicode="&#x153;" horiz-adv-x="1951" d="M61 516q0 249 148.5 405t392.5 156q279 0 402 -180h8q139 180 393 180q95 0 176.5 -28t146 -84.5t101.5 -150t37 -214.5v-10q0 -46 -25 -69t-82 -23h-629v-11q0 -187 76 -298t232 -111q85 0 147.5 24t118.5 80q41 41 74 41q24 0 39.5 -13.5t15.5 -35.5q0 -32 -29 -61 q-133 -138 -401 -138q-122 0 -231.5 49.5t-172.5 135.5h-8q-130 -185 -391 -185q-254 0 -396.5 143t-142.5 398zM340 518q0 -236 64.5 -343t195.5 -107q126 0 194 120.5t68 343.5q0 239 -66 346t-196 107q-125 0 -192.5 -124t-67.5 -343zM1135 604h473v43q0 78 -10 136.5 t-33 106t-66 72.5t-104 25q-115 0 -184 -100t-76 -283z" />
<glyph unicode="&#x178;" horiz-adv-x="1214" d="M-12 1358q0 41 35.5 68.5t95.5 27.5q68 0 106.5 -23t71.5 -79l381 -647q111 187 190 333q114 210 172 332q21 43 45.5 63.5t65.5 20.5q29 0 52.5 -15t23.5 -48q0 -18 -15 -52q-56 -117 -481 -747v-500q0 -49 -39 -74.5t-100 -25.5q-59 0 -97 25.5t-38 74.5v490l-447 710 q-22 33 -22 66zM289 1718q0 47 39 77t100 30t99 -30t38 -77q0 -49 -37.5 -78.5t-99.5 -29.5t-100.5 29.5t-38.5 78.5zM754 1718q0 47 39 77t100 30t99 -30t38 -77q0 -49 -37.5 -78.5t-99.5 -29.5t-100.5 29.5t-38.5 78.5z" />
<glyph unicode="&#x2c6;" horiz-adv-x="1114" d="M240 1223q0 16 20 39l223 233q45 49 107 49q61 0 106 -49l213 -233q21 -25 21 -39q0 -16 -12.5 -25.5t-26.5 -9.5q-23 0 -45 14l-271 164l-253 -164q-20 -14 -43 -14q-14 0 -26.5 9.5t-12.5 25.5z" />
<glyph unicode="&#x2dc;" horiz-adv-x="1212" d="M221 1255q0 11 8 39q26 76 87 128.5t147 52.5q60 0 101 -13t89 -39q92 -53 144 -53q39 0 62 16.5t44 55.5q21 33 45 33q41 0 41 -39q0 -11 -8 -39q-26 -76 -86.5 -128t-146.5 -52q-60 0 -102 12.5t-89 38.5q-92 53 -143 53q-39 0 -62.5 -16.5t-44.5 -55.5 q-20 -32 -45 -32q-41 0 -41 38z" />
<glyph unicode="&#x2000;" horiz-adv-x="973" />
<glyph unicode="&#x2001;" horiz-adv-x="1946" />
<glyph unicode="&#x2002;" horiz-adv-x="973" />
<glyph unicode="&#x2003;" horiz-adv-x="1946" />
<glyph unicode="&#x2004;" horiz-adv-x="648" />
<glyph unicode="&#x2005;" horiz-adv-x="486" />
<glyph unicode="&#x2006;" horiz-adv-x="324" />
<glyph unicode="&#x2007;" horiz-adv-x="324" />
<glyph unicode="&#x2008;" horiz-adv-x="243" />
<glyph unicode="&#x2009;" horiz-adv-x="389" />
<glyph unicode="&#x200a;" horiz-adv-x="108" />
<glyph unicode="&#x2010;" horiz-adv-x="937" d="M90 580q0 32 21 52.5t59 20.5h598q80 0 80 -73q0 -32 -21 -53t-59 -21h-598q-80 0 -80 74z" />
<glyph unicode="&#x2011;" horiz-adv-x="937" d="M90 580q0 32 21 52.5t59 20.5h598q80 0 80 -73q0 -32 -21 -53t-59 -21h-598q-80 0 -80 74z" />
<glyph unicode="&#x2012;" horiz-adv-x="937" d="M90 580q0 32 21 52.5t59 20.5h598q80 0 80 -73q0 -32 -21 -53t-59 -21h-598q-80 0 -80 74z" />
<glyph unicode="&#x2013;" horiz-adv-x="1175" d="M90 586q0 67 78 67h840q42 0 59.5 -16t17.5 -51q0 -68 -77 -68h-840q-42 0 -60 16.5t-18 51.5z" />
<glyph unicode="&#x2014;" horiz-adv-x="1456" d="M-41 518v135h1538v-135h-1538z" />
<glyph unicode="&#x2018;" horiz-adv-x="372" d="M59 1051q0 123 144 370q18 33 51 33q39 0 39 -41q0 -26 -2 -61q-4 -94 -4 -170q0 -18 2 -60.5t2 -56.5q0 -61 -30 -97t-91 -36q-57 0 -84 33t-27 86z" />
<glyph unicode="&#x2019;" horiz-adv-x="372" d="M80 973q0 26 2 61q4 94 4 170q0 18 -2 60.5t-2 56.5q0 61 30 97t91 36q57 0 83.5 -32.5t26.5 -86.5q0 -125 -143 -370q-18 -33 -51 -33q-39 0 -39 41z" />
<glyph unicode="&#x201a;" horiz-adv-x="430" d="M78 -242q0 27 2 62q4 94 4 170q0 18 -2 60t-2 56q0 61 30 97.5t91 36.5q57 0 83.5 -32.5t26.5 -86.5q0 -126 -143 -371q-18 -33 -51 -33q-39 0 -39 41z" />
<glyph unicode="&#x201c;" horiz-adv-x="737" d="M59 1051q0 123 144 370q18 33 51 33q39 0 39 -41q0 -26 -2 -61q-4 -94 -4 -170q0 -18 2 -60.5t2 -56.5q0 -61 -30 -97t-91 -36q-57 0 -84 33t-27 86zM424 1051q0 125 143 370q18 33 51 33q39 0 39 -41q0 -26 -2 -61q-4 -94 -4 -170q0 -18 2 -60.5t2 -56.5 q0 -61 -29.5 -97t-90.5 -36q-57 0 -84 33t-27 86z" />
<glyph unicode="&#x201d;" horiz-adv-x="737" d="M80 973q0 26 2 61q4 94 4 170q0 18 -2 60.5t-2 56.5q0 61 30 97t91 36q57 0 83.5 -32.5t26.5 -86.5q0 -125 -143 -370q-18 -33 -51 -33q-39 0 -39 41zM444 973q0 26 2 61q5 118 5 170q0 18 -2.5 60.5t-2.5 56.5q0 61 30 97t91 36q57 0 84 -33t27 -86q0 -125 -143 -370 q-18 -33 -52 -33q-39 0 -39 41z" />
<glyph unicode="&#x201e;" horiz-adv-x="794" d="M74 -242q0 27 2 62q4 94 4 170q0 18 -2 60t-2 56q0 61 30 97.5t91 36.5q57 0 83.5 -32.5t26.5 -86.5q0 -126 -143 -371q-18 -33 -51 -33q-39 0 -39 41zM438 -242q0 27 2 62q4 94 4 170q0 18 -2 60t-2 56q0 61 30 97.5t91 36.5q57 0 84 -33t27 -86q0 -124 -144 -371 q-18 -33 -51 -33q-39 0 -39 41z" />
<glyph unicode="&#x2022;" horiz-adv-x="643" d="M143 676q0 75 52 126.5t127 51.5t126.5 -51.5t51.5 -126.5t-51.5 -126.5t-126.5 -51.5t-127 51.5t-52 126.5z" />
<glyph unicode="&#x2026;" horiz-adv-x="1492" d="M82 115q0 58 47 93.5t121 35.5t120 -35.5t46 -93.5q0 -60 -46 -95.5t-120 -35.5t-121 36t-47 95zM580 115q0 58 47 93.5t121 35.5t119.5 -35.5t45.5 -93.5q0 -60 -45.5 -95.5t-119.5 -35.5t-121 36t-47 95zM1077 115q0 58 47 93.5t121 35.5t120 -35.5t46 -93.5 q0 -60 -46 -95.5t-120 -35.5t-121 36t-47 95z" />
<glyph unicode="&#x202f;" horiz-adv-x="389" />
<glyph unicode="&#x2039;" horiz-adv-x="542" d="M80 537q0 30 13 53.5t46 60.5l248 262q25 29 51 29q22 0 33.5 -11.5t11.5 -29.5q0 -15 -20 -51l-178 -299l178 -328q20 -36 20 -51q0 -18 -13.5 -31.5t-35.5 -13.5q-26 0 -51 29l-244 266q-33 36 -46 60.5t-13 54.5z" />
<glyph unicode="&#x203a;" horiz-adv-x="542" d="M59 168q0 14 21 51l178 299l-178 328q-21 37 -21 51q0 18 14 31.5t36 13.5q26 0 51 -29l243 -266q34 -37 47 -61t13 -54t-13 -53.5t-47 -60.5l-247 -262q-25 -29 -52 -29q-22 0 -33.5 11.5t-11.5 29.5z" />
<glyph unicode="&#x205f;" horiz-adv-x="486" />
<glyph unicode="&#x20ac;" horiz-adv-x="1382" d="M61 567q0 30 16.5 48t45.5 18h108q-2 25 -2 78q0 67 4 100h-110q-62 0 -62 61q0 30 16.5 48t45.5 18h129q55 249 224 393t421 144q129 0 238.5 -38t164.5 -102q29 -33 29 -63t-18.5 -52t-55.5 -22q-23 0 -44.5 11.5t-34.5 24t-37 38.5q-97 108 -240 108q-147 0 -248 -121 t-123 -321h408q61 0 61 -61q0 -30 -16 -48t-45 -18h-418q-2 -29 -2 -86q0 -63 2 -92h318q61 0 61 -62q0 -30 -16 -47.5t-45 -17.5h-308q21 -191 119.5 -305.5t251.5 -114.5q167 0 287 117q41 41 78 41q24 0 41.5 -14t17.5 -35q0 -26 -29 -62q-64 -75 -173.5 -112t-235.5 -37 q-261 0 -427 131t-212 391h-123q-62 0 -62 61z" />
<glyph unicode="&#x2122;" horiz-adv-x="1570" d="M29 1405q0 41 49 41h512q26 0 37.5 -9.5t11.5 -31.5q0 -41 -49 -41h-176v-596q0 -31 -23 -47t-59 -16q-33 0 -55.5 16t-22.5 47v596h-176q-49 0 -49 41zM737 752v616q0 35 31.5 57.5t81.5 22.5q77 0 102 -57q77 -166 164 -387q90 220 166 382q12 28 42 45t69 17 q37 0 62.5 -18t25.5 -54v-608q0 -30 -23.5 -46.5t-56.5 -16.5q-34 0 -57 16t-23 47v350q0 48 6 174h-8q-5 -12 -31 -82.5t-39 -99.5l-96 -209q-23 -55 -84 -55q-57 0 -82 57l-80 187q-48 122 -71 202h-11q4 -74 4 -211v-329q0 -47 -45 -47q-47 0 -47 47z" />
<glyph unicode="&#x25fc;" horiz-adv-x="1064" d="M0 0v1065h1065v-1065h-1065z" />
</font>
</defs>
</svg>
