<?xml version="1.0" standalone="no"?>
<!DOCTYPE svg PUBLIC "-//W3C//DTD SVG 1.1//EN" "http://www.w3.org/Graphics/SVG/1.1/DTD/svg11.dtd" >
<svg xmlns="http://www.w3.org/2000/svg">
<metadata></metadata>
<defs>
<font id="natura_humorregular" horiz-adv-x="1024" >
<font-face units-per-em="2048" ascent="1638" descent="-410" />
<missing-glyph horiz-adv-x="542" />
<glyph horiz-adv-x="0" />
<glyph horiz-adv-x="682" />
<glyph unicode=" "  horiz-adv-x="542" />
<glyph unicode="&#x09;" horiz-adv-x="542" />
<glyph unicode="&#xa0;" horiz-adv-x="542" />
<glyph unicode="!" horiz-adv-x="501" d="M197 1485q0 20 14 35q0 14 4.5 21.5t8.5 8.5h5q25 0 33 -3.5t31 -26.5q15 -16 15 -77.5t16 -88.5v-144l20 -258v-114v-193q-23 -13 -36.5 -13t-34 6.5t-44.5 6.5v115v192q-9 18 -9 54t-9 61v225v117q0 9 -7 32.5t-7 43.5zM211 139q0 21 18 21v3v3v3v3v3v3v3v9 q69 0 109.5 -32.5t40.5 -81.5q0 -13 -13.5 -21.5t-27.5 -14.5t-14 -13q-62 0 -62 18q-6 6 -17.5 15t-15.5 13.5t-9.5 13.5t-7 21.5t-1.5 30.5z" />
<glyph unicode="#" horiz-adv-x="1177" d="M86 879q0 26 44.5 42.5t94.5 27t58 22.5q10 0 35 -7t40 -7t15 14q22 19 22 192q5 28 30 232t60 309q43 0 78 -29t35 -88q-5 -5 -9 -11.5t-8 -20t-7 -28t-7 -42.5l-8 -56t-9.5 -75.5t-11.5 -95t-15 -121t-19 -146.5h112h31q0 159 64 484q2 0 5.5 0.5t9 8t5.5 21.5 q9 -9 40 -30.5t48 -49.5v-114q-28 -111 -28 -289q13 -14 26 -14t29 7t26 7h199q22 -23 25.5 -33.5t3.5 -48.5q-26 -15 -92.5 -30.5t-104.5 -30.5h-84h-59v-21q-29 -33 -29 -117h29q168 0 256 21q18 0 58.5 15.5t55.5 15.5q6 -6 32.5 -26.5t38 -38.5t11.5 -44v-35 q-23 -13 -29.5 -15.5t-21.5 -2.5q-31 18 -110 18q-41 -6 -110.5 -13t-120 -14.5t-89.5 -21.5q-9 -64 -9 -129t4 -98l5 -33v-80q0 -114 -20 -145h-31q-13 12 -42.5 28.5t-39.5 34.5q0 19 4 36.5t4 33t-8 41.5v51q18 82 18 229l-18 31q-31 -31 -143 -31v-53q-15 -14 -15 -67 t-14 -78v-226v-1v-1v-1v-1v-1v-1v-1v-1v-1v-1v-1v-1v-1v-1v-1v-1v-1v-1v-1v-1v-10q0 -14 -15.5 -56t-15.5 -59q1 -31 -22 -31q-23 23 -30.5 27t-29.5 4q0 16 -15 33t-15 33q0 114 30 163l29 308h-59q-14 -14 -59.5 10.5t-73.5 52.5q12 12 21.5 25.5t14.5 18.5t13 5 q29 35 143 35v141h-29h-51q-102 -54 -143 33q-24 0 -28.5 3t-4.5 18zM455 711h49h112v168h-49q-35 -21 -82 -21q0 -17 -15 -74.5t-15 -72.5z" />
<glyph unicode="$" horiz-adv-x="1001" d="M91 583.5q-4 36.5 30 61.5q17 0 45 -15.5t39 -15.5h57q24 -15 47.5 -21.5t38 -7.5t47.5 -1v192v31v86q-66 26 -95 71t-7 105q0 22 53.5 51t81.5 29v115v176q0 25 1 38t6.5 33t18.5 35t35 27h17q0 -12 6.5 -23.5t12.5 -18.5t21.5 -21t22.5 -21q22 -26 8.5 -131t-38.5 -148 l370 86q0 -14 24.5 -51.5t24.5 -66.5q-24 -14 -88.5 -14t-107.5 -15q-25 -10 -106.5 -36t-116.5 -44l-33 -84h33q31 -31 112 -31q188 -68 258 -178q23 -15 33.5 -70t-2.5 -92q-6 -13 -18.5 -25.5t-34 -25.5t-36 -21.5t-46 -21.5t-42 -17.5t-46 -17.5t-37.5 -14 q-141 0 -141 -35q-15 -9 -15 -36.5t7.5 -68t7.5 -57.5v-194q65 -138 30 -227h-1h-1h-1h-1h-1h-1h-1h-1h-1h-1h-1h-1h-1h-1h-1h-1h-1h-1h-1h-1h-10q-44 0 -77.5 19.5t-33.5 59.5q0 9 6.5 43t6.5 62t-13 43q-16 56 -16 185.5t-17 170.5q-39 0 -145 36t-129 58q-26 17 -30 53.5 zM506 776q0 -161 33 -192h61h51l40 20t51 26.5t44.5 27t41 33.5t20.5 34q-8 0 -13 7.5t-5 15.5l-1 8q-13 7 -48.5 26t-52.5 27.5t-48 23t-51 21.5t-45 12.5t-45 5.5l-33 -32v-64z" />
<glyph unicode="%" horiz-adv-x="1038" d="M106 334q54 38 80 82q35 57 148 166q75 80 196 229t193 225q14 28 35.5 56t45 53.5t30.5 34.5q39 20 69.5 63.5t57 93.5t45.5 70h53q0 -10 14.5 -28.5t21 -34.5t-7.5 -50q-36 -66 -110 -145q-59 -86 -197.5 -241t-193.5 -232q-6 -6 -29 -28t-38.5 -38t-29.5 -38.5 t-14 -39.5q34 34 73 48.5t73.5 8.5t63 -28t44.5 -55t15.5 -78.5t-21.5 -93.5q-41 -60 -88 -60q-37 -13 -68 -3.5t-46 24t-37 34.5t-40 27q0 10 -16 33t-16 57q32 21 32 56h-32q0 -17 -7.5 -32.5t-16 -24.5t-28.5 -29q-4 -18 -60 -92.5t-83 -100.5q-49 36 -77 64t-31 37z M391 1208q0 58 43.5 115t89.5 84h62q68 0 102.5 -26t34.5 -87q3 -6 7.5 -15.5t5.5 -32.5t-13 -38q-16 -46 -87.5 -73.5t-129.5 -4.5q-77 23 -115 78zM524 1262q0 -21 62 -21l30 53h-30zM557 416q0 -23 3.5 -27t25.5 -4q19 0 27.5 1t15 8t6.5 22v51h-19q-9 -6 -27.5 -14 t-25 -15.5t-6.5 -21.5z" />
<glyph unicode="&#x26;" horiz-adv-x="1275" d="M123 684q0 78 53.5 168t108.5 145q8 8 40 27t53 39t21 43q-34 32 -34 147q0 20 1 29t8.5 23.5t24.5 29.5q10 22 31.5 40.5t40 27.5t52.5 23.5t48 21.5q78 0 109 29q54 0 101.5 -14.5t81 -43t39.5 -70.5t-23 -96q-31 1 -60 -28q-25 -23 -95.5 -69.5t-102.5 -80.5 q-11 -7 -33 -14.5t-34.5 -15t-12.5 -21.5q20 -11 49 -55t53 -81.5t37 -37.5q12 18 57 33.5t62 29.5q35 22 103 78t118 84q14 9 34.5 28.5t40.5 27.5t58 8q9 -17 20 -25t18 -10t13.5 -7.5t9.5 -22.5t3 -50q-13 -27 -29.5 -34t-41 -10t-44.5 -17q-44 -35 -69 -54t-70.5 -45 t-83.5 -35q-7 -7 -24.5 -21.5t-27.5 -23.5t-19 -23t-9 -26q114 -114 129 -162l-17 -30q-12 -11 -23.5 -13t-24.5 5.5t-21.5 15t-22.5 22.5q-20 0 -57 29l-82 82q-69 -45 -232.5 -74t-246.5 -8q-20 8 -33.5 19t-19 18.5t-13 22.5t-12.5 22zM252 715q92 0 319 86 q0 27 -52.5 84.5t-59.5 77.5q-14 -8 -28 -20t-35 -31.5t-31 -28.5q-6 -17 -25.5 -36.5t-38.5 -35t-34 -41.5t-15 -55zM477 1171h31q11 7 30.5 14.5t31.5 16t20 23.5q71 35 141 110h-29h-53q-19 -10 -52.5 -22t-53.5 -24.5t-35 -35.5q-31 0 -31 -82z" />
<glyph unicode="'" horiz-adv-x="411" d="M199 907q-7 64 0 109t28 100q0 4 -3 33t-5 47l-6 57q13 29 8 73.5t10 70.5q-3 24 21.5 55.5t46.5 34.5l35 -23q16 -9 18.5 -35t-1.5 -60t-3 -44q-12 -45 -16.5 -147.5t-12.5 -145.5q-2 -15 -3.5 -43.5t-4 -39.5t-11 -26.5t-28 -23t-51.5 -10.5z" />
<glyph unicode="(" horiz-adv-x="569" d="M108 665q12 111 39 191q40 105 58 150.5t58.5 132t76.5 141.5q13 22 69.5 65.5t71.5 77.5h23q22 0 42.5 -20t20.5 -43q14 -23 -1.5 -50t-47.5 -58t-37 -38q-135 -100 -252 -475v-110q-7 -22 -7.5 -55t3.5 -64.5t12.5 -72t15.5 -68t17 -63t13 -48.5q19 -42 22.5 -66.5 t3.5 -78.5q15 -28 35 -56.5t30.5 -45t19 -40.5t8 -56t-10.5 -79q-9 -14 -21.5 -21.5t-21.5 -8.5l-8 -1q-41 67 -78 162q-24 46 -33.5 65.5t-28 65.5t-32.5 99l-53 288q-19 69 -7 180z" />
<glyph unicode=")" horiz-adv-x="733" d="M84 -250q1 15 10 23q13 17 56.5 45.5t50.5 36.5q79 41 143 176q94 215 143 471q15 33 15 105.5t16 103.5q0 25 -15.5 108.5t-15.5 118.5v82q-31 51 -84 164q0 15 -15 45t-15 47q-15 0 -29 10t-29 10q0 11 -12 47.5t-17 64.5t7 65q-1 32 22 32q31 0 51.5 -11t28.5 -23.5 t16.5 -31.5t14.5 -26q15 -24 45.5 -66.5t46.5 -70.5q4 -14 82 -225q39 -153 38.5 -311.5t-34 -312.5t-85.5 -283.5t-116 -225.5q-10 -14 -31 -47.5t-37 -57.5t-42 -55t-50 -50.5t-57.5 -33.5t-68.5 -14q-2 3 -5.5 9t-11.5 22t-12.5 30t-3.5 29z" />
<glyph unicode="*" horiz-adv-x="909" d="M98 1358q0 3 1 7.5t8.5 12.5t21.5 8q33 31 190 31q0 8 -13.5 32.5t-26.5 50.5t-20 52.5t7 43t53 16.5q66 -58 66 -82q0 45 15 90t38 45l27 33q38 -41 44.5 -60t6.5 -88q-29 -20 -29 -100q12 7 88.5 78t112.5 84h49q0 -16 18.5 -44.5t18.5 -37.5q-3 -3 -41.5 -32 t-56 -47.5t-17.5 -33.5q115 0 168 -31q23 -22 27 -35.5t4 -76.5q-63 -39 -170 33h-141v-33q0 -19 23 -34t26 -19q14 -14 45 -57.5t47 -53.5q54 -93 19 -115q0 -23 -2.5 -26.5t-16.5 -3.5q-16 0 -22.5 0.5t-17 3t-15 9t-4.5 17.5q-25 15 -29 21.5t-4 30.5q-7 15 -27 35 t-46 43t-36 34v-31q-12 -30 -5 -58.5t6 -68t-23 -65.5q-20 -25 -27.5 -29t-31.5 -4l-21 33q-16 28 -23.5 59.5t-8.5 52.5t-1 62q0 -22 -34 -68.5t-48 -46.5h-1h-1h-1h-1h-1h-1h-1h-1h-1h-1h-1h-1h-1h-1h-1h-1h-1h-1h-1h-1h-10q-3 2 -16.5 10t-18 12.5t-12 16.5t-10.5 30.5 t-3 45.5q27 16 83 78.5t56 85.5h-190q-31 33 -31 84z" />
<glyph unicode="+" horiz-adv-x="774" d="M109 705v65v21q57 26 284 26q0 146 25 199q31 0 49 -3t29 -14.5t15 -20.5t11 -33q3 -9 4 -13v-115q0 -20 35 -20t57 20h115q6 -8 21 -23.5t22.5 -28t7.5 -26.5q-14 0 -21.5 -8.5t-8.5 -16.5v-9q-20 -31 -246 -31v-113q0 -25 9 -93t9 -99q-14 -23 -20 -27t-29 -4h-59 q0 23 -3 30t-22 29v277q-12 14 -34.5 14t-47.5 -7t-30 -7q-141 0 -172 31z" />
<glyph unicode="," horiz-adv-x="393" d="M72 -438q13 15 25.5 44.5t25.5 39.5q5 15 18 53t22 65t22.5 73t18.5 75t10.5 71.5t-1.5 63.5q0 20 -1 30.5t-8 32.5t-22 52q-22 20 -26 38.5t-4 71.5q3 0 8 1t13.5 8.5t8.5 21.5q14 0 26 -7.5t18 -15.5l5 -8q68 -94 87 -203.5t-4.5 -213.5t-82.5 -209q-17 -51 -47 -83 t-86 -32z" />
<glyph unicode="-" horiz-adv-x="739" d="M104 647l21 21q63 0 106.5 -12.5t98.5 -39.5h80h57q29 -17 73 -16t68 -16q24 0 53 -28t29 -50l-24 -31q-11 -15 -38 -15t-61 7.5t-43 7.5q-42 16 -142.5 31t-143.5 29q-15 3 -43.5 7t-39.5 7.5t-26 14t-20 30.5t-5 53z" />
<glyph unicode="." horiz-adv-x="337" d="M70 98v92q13 0 19 2.5t32 16.5h29h30q12 -11 33.5 -27.5t29.5 -25t15.5 -28.5t7.5 -50q0 -14 -11 -21.5t-22 -8.5t-32 -1h-51l-29 31q-25 15 -31 17.5t-20 2.5z" />
<glyph unicode="/" horiz-adv-x="856" d="M109 131q0 40 11.5 89.5t20.5 74.5t33.5 84t26.5 63q54 112 176 324.5t178 327.5q29 3 54 44t41 88t44 85.5t64 38.5q20 0 53 -31t33 -53q-36 -49 -101.5 -147t-74.5 -111q-23 -67 -66.5 -140t-84 -127.5t-86 -135.5t-73.5 -163q-22 -23 -33.5 -49.5t-23 -73.5t-20.5 -73 v-33q-31 -51 -31 -109q-23 -18 -29 -21t-20 -3h-33q-16 0 -30.5 25.5t-28.5 25.5z" />
<glyph unicode="0" horiz-adv-x="901" d="M66 596q-4 44 23 101t58 94q6 12 26.5 59.5t39 74.5t45.5 42q26 26 45 38.5t43 12.5h62q88 10 168 -8.5t138.5 -58.5t99.5 -94t60 -116q22 -65 22 -139.5t-22 -120.5q0 -39 -14 -77.5t-35 -55.5q-45 -68 -133 -125.5t-174 -81.5q-35 0 -114 15.5t-93 15.5 q-11 13 -25 20.5t-39 17.5t-48 23q-66 42 -110.5 154.5t-22.5 208.5zM171.5 537.5q-2.5 -37.5 6.5 -74.5q10 -57 65.5 -108.5t128 -71t146.5 3.5q59 0 130 36.5t95 75.5q4 14 15.5 45.5t19.5 56t17 62t8 61.5t-8 54q-41 91 -143.5 158t-225.5 67q-13 -15 -19.5 -17.5 t-29.5 -2.5t-31.5 -4t-34.5 -29q-2 -2 -6 -5.5t-15.5 -16.5t-22 -27t-25.5 -36.5t-25.5 -45t-22.5 -53.5t-16 -61t-6.5 -67.5z" />
<glyph unicode="1" horiz-adv-x="595" d="M121 537q8 8 50.5 63t90.5 102q60 56 80 93q7 12 20.5 42.5t28 50t43.5 42.5h23q0 -10 8.5 -16t17.5 -6l9 -1q14 -27 14 -77.5t-7 -116t-7 -90.5v-363q0 -19 7 -63.5t7 -81t-14 -62.5q0 -50 30 -82q0 -17 -15 -29.5t-15 -21.5h-35q-54 0 -54 21q-25 23 -25 90.5t25 113.5 v166v113v278h-32q-14 -23 -53.5 -64.5t-55.5 -70.5q-13 -13 -38.5 -57t-43.5 -55h-28q-14 9 -21.5 24.5t-8.5 26.5t-1 31z" />
<glyph unicode="2" horiz-adv-x="804" d="M61 754q13 64 74.5 137.5t119 119.5t110.5 79q30 34 114 34q83 0 124 -76t18 -186q-20 -34 -57.5 -98.5t-57.5 -98t-50.5 -79t-60.5 -80.5q-10 -21 -34 -57t-37 -64t-13 -55h117h109h192q18 -24 28 -42.5t14 -30.5t-1 -20.5t-10 -12.5t-21.5 -6t-27 -2.5t-33.5 -0.5h-8 h-80q-15 0 -56.5 6.5t-84 6.5t-84.5 -13h-132l-61 61q0 38 15.5 67.5t37 55t27.5 43.5q34 59 100.5 162.5t106.5 168t66.5 133.5t11.5 104h-29q-50 10 -93.5 -3.5t-67.5 -34.5t-59.5 -58t-54.5 -52l-30 -28q-11 -17 -22.5 -54.5t-24.5 -59.5t-37 -22q-11 9 -20.5 24 t-17 23.5t-20.5 8.5z" />
<glyph unicode="3" horiz-adv-x="886" d="M39 -8.5q-17 32.5 6 78.5l21 20q7 0 41.5 -4.5t69.5 -4.5t63 9q82 33 141 33q38 15 74.5 40t58.5 45t61 58q10 6 31.5 18t32 19t24 19t19.5 26t6 31q-53 39 -135 47.5t-159.5 -5t-153.5 -42.5q-3 0 -39.5 -6.5t-63.5 -1.5t-41 28v62q30 11 105 39t121 47q76 76 139 108 q53 50 53 115q-27 23 -74.5 21t-86.5 -13.5t-82 -25t-60 -13.5q-4 0 -10 1t-15.5 8.5t-9.5 21.5v33q38 34 106 57t121 23q56 0 103 -10.5t85 -33.5t47.5 -61t-9.5 -92q-8 -26 -29.5 -46.5t-44 -33t-49.5 -37t-45 -55.5q241 0 309 -82q17 -18 28 -37.5t14.5 -41.5t-11.5 -36 q0 -3 -2 -7.5t-6.5 -11t-9.5 -12.5t-13 -15t-14.5 -16t-16.5 -18t-16.5 -17.5l-18 -18t-16.5 -17.5l-194 -114l-224 -93q-19 0 -48 -7t-49.5 -13.5t-44.5 -8t-32 10.5q-40 0 -57 32.5z" />
<glyph unicode="4" horiz-adv-x="729" d="M43 614q52 129 90.5 216.5t77.5 168t49 101.5h57q8 -13 13.5 -24.5t10 -20.5t5.5 -20t3 -16.5t-0.5 -16.5t-2.5 -14.5t-5.5 -16t-6.5 -14.5t-8.5 -17.5t-8.5 -17.5q-11 -18 -28.5 -44.5t-29.5 -46t-23 -40.5q-8 -17 -26.5 -50t-26 -53.5t-7.5 -44.5h60h81q53 31 146 31 q0 46 24.5 107t24.5 87q0 21 1 30t8.5 16.5t23.5 7.5h30q35 -24 37.5 -52.5t-20.5 -92t-31 -105.5q-21 -111 -49.5 -316.5t-30.5 -244.5h-18h-31q-14 15 -20.5 28.5t-7.5 22.5t-1 28q-15 13 -15 33.5t7.5 46t7.5 35.5l29 256q-46 0 -115.5 -19t-109.5 -42q-27 0 -79 15 t-65 15q0 13 -10 34t-10 50z" />
<glyph unicode="5" horiz-adv-x="819" d="M67.5 434.5q0.5 20.5 11 48.5t20 44t28 46t25.5 43q0 25 20 72t43 70h29q20 20 49 51q14 0 29.5 -7.5t24.5 -15.5l9 -8q41 15 139 31t140 33q22 0 31.5 0.5t24 7t22.5 20.5q22 0 33 -0.5t30 -7.5t33 -20v-33q-14 -37 -64.5 -58t-124.5 -34.5t-98 -22.5q-168 0 -229 -28 q-23 -14 -50.5 -71t-27.5 -95q16 17 56 30t53 23q158 35 216 40q168 12 203 -93q21 -22 24 -61t-4.5 -71t-19.5 -63q-63 -89 -162.5 -163t-201.5 -95h-23q-32 0 -88 -15.5t-86 -15.5q-19 0 -29 1t-23.5 8t-27.5 22v82v33h222q89 25 140.5 53.5t117.5 89.5q18 11 31.5 21.5 t29 27t21.5 32.5t9.5 38.5t-7.5 46.5q-16 0 -31 14.5t-31 14.5q-23 0 -56 -7t-55 -15l-22 -7q-172 -49 -227 -84q-79 -40 -108 -46q-16 -3 -34 -3q-20 24 -27.5 50t-7 46.5z" />
<glyph unicode="6" horiz-adv-x="911" d="M83.5 462q-1.5 24 10.5 40q9 37 33.5 76.5t68.5 96.5t62 83l49 52.5t57.5 64t36.5 47.5q9 14 21.5 21.5t20.5 8.5h8q21 38 54 80t58 66q17 0 23.5 0.5t17.5 2t15 6.5t4 13q18 0 24 -2.5t29 -19.5v-62q0 -3 -1 -8t-8.5 -13.5t-21.5 -8.5q0 -9 -5.5 -14t-11.5 -6l-5 -1 q-5 -6 -33.5 -36t-43 -48.5t-14.5 -26.5q-29 -33 -122 -122.5t-123 -137.5q-9 -15 -35 -42.5t-41.5 -55.5t-15.5 -65q6 4 23 17t25 18t21 10.5t23 5.5q54 39 109.5 68.5t132 56t153.5 17t139 -59.5q39 -9 55.5 -61t9.5 -114.5t-32 -105.5q-16 -14 -104.5 -53t-104.5 -55 q-231 -57 -387 30q-82 0 -113 19q-30 30 -30 59v33q0 17 -8 41.5t-15 42.5t-8.5 42zM258 336q69 -44 162.5 -53.5t181.5 11t158 62.5q0 16 15.5 33t15.5 33v51q-26 24 -65.5 41.5t-80.5 17.5q-51 0 -101 -11.5t-85.5 -27.5t-63 -32t-41.5 -27l-14 -12q-11 -11 -34 -23.5 t-35.5 -25.5t-12.5 -37z" />
<glyph unicode="7" horiz-adv-x="913" d="M46 783q6 6 22 1q20 23 40 28t72 5h252h53q26 -8 66 -16.5t64.5 -15t52 -17t44.5 -27.5t25 -41q25 -44 25 -95.5t-25 -76.5q0 -11 -14 -39t-14 -43q16 -9 49.5 -10.5t65.5 -1t61.5 -3t44 -20.5t6.5 -49l-33 -49q-15 -15 -28 -15t-29 7.5t-27 7.5h-190 q-33 -48 -74.5 -162.5t-69.5 -158.5q-11 -17 -16 -49t-18 -48t-50 -16q-59 59 -59 113q13 0 20 8t8 16l1 7l30 28q22 85 43.5 145t31 82t9.5 35h-194q-27 0 -44.5 19t-17.5 61l31 21h111q45 0 69 1t62.5 8.5t62.5 22.5q30 27 57.5 94.5t6.5 100.5q-13 13 -43 27.5t-41 31.5 q-84 0 -164.5 -3t-125 -6t-82 -4.5t-54.5 1.5t-23 12q-20 -4 -42 33t-8 50z" />
<glyph unicode="8" horiz-adv-x="899" d="M115.5 321q-0.5 16 4.5 30t12 25.5t19 22.5t23.5 20t27 18t27.5 15.5t27.5 15t24.5 13.5q12 12 29 22t25.5 18t8.5 22q-12 7 -25 18t-22 19.5t-24.5 23t-22.5 21.5q0 19 -1 28.5t-5 17t-13 7.5q-30 37 -32 74q-2 49 32 86t84.5 54.5t101 28t86.5 11.5l36 2 q65 0 111.5 -7.5t86 -28t59 -59.5t19.5 -98q0 -14 -5 -29.5t-10 -24.5l-5 -9l-226 -166q27 -17 67 -62t62 -61q1 0 11 -7.5t12.5 -9.5t11 -8.5t11.5 -10.5t8 -10t6.5 -12t1.5 -12q16 -19 14.5 -45t-16 -49.5t-29.5 -23.5q-15 -14 -28.5 -20.5t-23 -7.5t-28.5 -1 q-220 -76 -399 0h-19q-45 21 -77.5 55.5t-32.5 59.5q-5 18 -5.5 34zM231 319q10 -18 38 -34.5t42 -30.5q40 -15 102.5 -15t125.5 15q110 0 110 33l-194 176h-31zM344 711q3 -4 13.5 -23.5t18.5 -32t20.5 -28t27.5 -23.5t31 -8q18 10 44 27t41 24.5t29 7.5q23 10 35.5 24 t23.5 32.5t21 29.5q19 0 27.5 1t15 8t6.5 22l-219 29q-22 0 -72 -19.5t-63 -40.5v-1v-1v-1v-1v-1v-1v-1v-1v-1v-1v-1v-1v-1v-1v-1v-1v-1v-1v-1v-1v-10z" />
<glyph unicode="9" horiz-adv-x="886" d="M117.5 559.5q9.5 34.5 29.5 50.5l179 176l82 29q51 0 76 -1t57.5 -7.5t56.5 -20.5q42 -23 62 -73.5t20 -102.5q0 -47 22.5 -103t49 -100t49 -103.5t22.5 -113.5q20 -55 -2 -123.5t-49 -105.5q-29 -18 -92 -18q-58 -33 -125.5 -50.5t-151 -14t-163.5 33.5h-31 q-43 0 -63.5 30t-20.5 78v33h1h1h1h1h1h1h1h1h1h1h1h1h10q41 0 69.5 -8t65.5 -25.5t72 -27.5q85 -23 186.5 -4t139.5 65q37 34 38 91t-18 106.5t-43 109t-28 84.5q-13 13 -22 43t-17.5 52t-20.5 22q-50 -61 -114.5 -119.5t-100.5 -58.5q-87 -15 -158 19.5t-71 95.5 q-17 27 -7.5 61.5zM209 530l31 -32q8 -10 29 -10t48.5 5t36.5 5q8 11 51.5 43.5t78 67.5t34.5 61q-15 16 -29.5 23t-23.5 8t-29 1l-82 -32q-18 -18 -67.5 -61.5t-77.5 -78.5z" />
<glyph unicode=":" horiz-adv-x="415" d="M142.5 530.5q-0.5 10.5 8 22t27.5 29.5h49q9 -17 21.5 -35t17 -26t3.5 -21t-11 -31q-23 -23 -33 -23t-47 23q-7 11 -18 25t-14 20t-3.5 16.5zM147 209q23 23 27 31t4 32h31q34 0 58.5 -20t54.5 -62q0 -19 -1 -29t-9.5 -20t-24.5 -10q-13 -15 -32.5 -15t-32.5 8l-13 7 q-53 53 -60 69q-2 5 -2 9z" />
<glyph unicode=";" horiz-adv-x="483" d="M66 -408q13 13 30 23t25 16t8 15q61 107 109 286q15 15 22.5 41t8.5 44.5t1 60.5v53q-15 14 -23 28.5t-9 22.5v8q0 11 0.5 16t3 15t9.5 14.5t19 4.5h52q0 -14 7.5 -26.5t14.5 -17.5l8 -6q14 -14 20.5 -30.5t7.5 -28t1 -33.5q7 -39 4 -81t-7 -74.5t-16.5 -68.5t-24 -63.5 t-30 -59t-34 -54.5t-35.5 -51q-2 -3 -9.5 -16t-9.5 -16.5t-10 -15.5t-12 -16l-13 -13t-16.5 -13t-19 -10t-23.5 -8.5t-27 -4.5t-32 -2v31v3v3v3v3v3v3v3v9zM158 418l22 20q3 0 7.5 1t12 8.5t7.5 21.5h63q0 -15 10.5 -41t10.5 -41q14 -13 14 -34t-7 -35l-7 -15v-31 q-29 0 -50 15.5t-34 15.5q-49 36 -49 115z" />
<glyph unicode="&#x3c;" horiz-adv-x="888" d="M96 561v60q13 14 82.5 56.5t79.5 61.5q0 14 8 21.5t16 8.5l7 1q142 106 176 162q55 35 108 143q43 0 78 -23t35 -61q-59 -59 -88 -90q0 -2 -3.5 -8.5t-37 -40t-92.5 -82.5q-27 -36 -102.5 -101.5t-104.5 -107.5q6 -4 28.5 -20.5t37 -23.5t28.5 -7q37 -25 77.5 -44.5 t55.5 -19.5q130 -72 222 -108q13 -3 40 -8.5t38.5 -8.5t32 -10t29 -15.5t19.5 -21.5t15 -31.5t4 -43.5h-31q0 -29 -49 -29l-453 199q-30 28 -63 59q-36 13 -94 53.5t-99 79.5z" />
<glyph unicode="=" horiz-adv-x="815" d="M72 468q0 8 5 19t5 23q65 22 167.5 26.5t477.5 4.5q21 -22 40 -60t19 -53q-16 0 -30.5 -15.5t-28.5 -15.5q-7 10 -16.5 13.5t-16.5 2t-12.5 2t-5.5 13.5q-211 34 -395 -31q-170 0 -199 49q-10 14 -10 22zM77 797q10 20 34 20h196q61 -26 144 -26q9 0 40 6t51.5 6 t20.5 -12q27 0 64.5 -31t15.5 -55q0 -23 -6.5 -27t-44.5 -4l-420 31q-19 0 -29 0.5t-27 3t-25.5 10.5t-8.5 20q-15 38 -5 58z" />
<glyph unicode="&#x3e;" horiz-adv-x="786" d="M29 991v25q33 28 51 28q27 -13 50 -26t49.5 -29t43.5 -26q29 -31 80 -31q3 -2 40.5 -18t50 -22t49.5 -23t54.5 -27.5t49.5 -28t50.5 -32t41 -33t37 -37t24.5 -37.5q13 -35 -9 -74t-50 -59l-29 -31l-116 -113l-193 -114q-51 -33 -51 -64q-10 -7 -14.5 -13.5t-9.5 -6.5h-33 q-13 -12 -32 -7.5t-35 16.5l-17 11q-14 14 -21.5 32t-8.5 30t-1 34q16 0 31 11.5t30 11.5q13 13 22 14.5t15.5 2.5t16.5 14l167 108l197 197q-5 2 -90 53.5t-135 63.5q-16 14 -30 13t-21 13q-75 0 -172 84q-27 0 -54.5 25t-27.5 65z" />
<glyph unicode="?" horiz-adv-x="905" d="M180 1311v30q15 22 18 28.5t3 21.5l108 118l33 31q8 5 38 23.5t50 30.5t48 27t50 22.5t37 7.5h82h90q1 -1 32.5 -38.5t47.5 -72.5q29 -82 -80 -229q-28 -63 -77 -129.5t-93 -115t-92 -118.5t-76 -141q-12 -26 -12 -55t6 -65.5t6 -57.5q0 -14 -14 -17.5t-43 -3.5t-41 3.5 t-12 17.5q-29 33 -25.5 97t18.5 120.5t27 75.5q78 137 226 340q17 21 52.5 55t58.5 58.5t42 68.5t19 96h-31q-17 17 -75.5 -7t-65.5 -24q-12 -8 -38.5 -25.5t-37 -24t-30.5 -20t-31.5 -22.5t-26.5 -21.5t-29 -25.5q-7 -12 -20 -40t-20 -38t-26 -20t-47 -10q0 9 -19.5 21 t-29.5 28zM373 125v51h26q24 0 35 -0.5t24 -2t18 -5t5 -10.5q15 -15 23 -32.5t9 -28.5t1 -31q-24 0 -28.5 -3t-4.5 -18q-18 0 -30.5 0.5t-22.5 5.5t-15 6t-12 12t-8.5 13.5t-9.5 20t-10 22.5z" />
<glyph unicode="@" horiz-adv-x="1374" d="M7 677.5q0 87.5 26 125.5q73 338 332 536q33 48 106 82q25 26 64.5 45t76.5 19q28 0 85.5 5.5t107.5 5.5t94 -11q115 -45 234 -168.5t186 -253.5q33 -84 38.5 -207t-11.5 -217v-66q-9 -18 -27.5 -40.5t-33.5 -38t-42.5 -43t-38.5 -39.5q-13 -11 -31 -37.5t-38 -47.5 t-43 -30q-64 0 -147 35.5t-107 79.5q-16 0 -30 9t-24 9q-89 -133 -141 -162q-88 -56 -166 -33.5t-133.5 88t-69.5 142.5q0 58 27 78q23 87 64 136t106 73q88 57 109 20q94 0 114 -20q8 0 16.5 -3t19 -10.5t16.5 -12.5t19.5 -17t18.5 -17q15 53 -22 137t-68 115 q-51 0 -192 -29q-22 0 -35.5 18t-13.5 44v20q0 25 2.5 29t15.5 4q13 14 38.5 15t77.5 2.5t107 15.5q14 0 29 -16.5t29 -16.5q82 -59 116.5 -137t51.5 -201l-21 -33v-53v-141q7 0 30 -13t51 -21.5t50 -0.5q69 17 127 90.5t79.5 168.5t-1.5 196v59q-25 95 -56 158.5t-87 122.5 l-193 143h-29q-98 21 -179 -4.5t-161 -77.5q-114 -78 -190 -158t-150 -184q-49 -93 -49 -172q-23 -60 -23 -139t23 -141q0 -78 19 -111q48 -136 148 -246t222 -155q51 -21 193 -21q22 -12 41 -12.5t26.5 2t26.5 16.5t21 15q50 14 92 41t91 71t71 60q6 7 19 26.5t25 34.5 t28 28.5t34 13.5t37 -17q16 0 34.5 -37t18.5 -80q-24 0 -43.5 -12t-44 -37t-31.5 -31q-22 -17 -75 -60t-81 -63t-76.5 -42.5t-98.5 -29.5h-54q-70 0 -108 2t-87.5 13.5t-86.5 34.5h-49q-117 65 -200 154t-142 218l-78 224v51q-26 47 -26 134.5zM422 522q-40 -64 1.5 -118 t106.5 -54q16 16 41 31.5t41 30.5q17 10 33 60t29 71l20 96q-14 14 -36.5 17t-77.5 3h-50q-34 -24 -71 -64t-37 -73z" />
<glyph unicode="A" horiz-adv-x="714" d="M98 -10q0 180 47 313q0 23 -7 55.5t-7 57.5q28 14 40 40t20 71t20 73q8 48 36 155.5t36 155.5l16 113q0 24 15.5 37.5t15.5 17.5q16 33 16 97q7 0 11 4t5 8v4h33q37 -37 37 -70q0 -13 -6 -26q16 -17 0 -17q0 -19 -15.5 -56t-15.5 -62q39 -194 80 -314q8 -8 28 -73.5 t27 -77.5h50q0 -12 2 -16.5t14 -16.5q2 -8 2 -16q0 -21 -14 -48q-20 -37 -21 -49q7 -32 31 -121.5t33 -142.5q12 -23 12 -55.5t-12 -55.5q0 -12 -5.5 -17.5t-10.5 -6t-15 -0.5q-40 47 -84.5 182t-52.5 217q-15 -3 -50 0t-70.5 8t-62.5 -8t-26 -47q-7 -5 -9.5 -13t-4.5 -31.5 t-4.5 -56t-12 -101t-24.5 -150.5q-7 -7 -19.5 -7t-31 3.5t-29.5 3.5q0 14 -8.5 23.5t-8.5 15.5zM283 463l129 16v17l-17 104l-33 64q0 28 -2.5 40t-13.5 23q-6 -29 -30 -117t-33 -147z" />
<glyph unicode="B" horiz-adv-x="876" d="M90 111q0 31 4.5 40t30.5 35l20 25v354q-4 4 -16 14t-15.5 16.5t-2 24.5t13.5 46l20 88q37 196 37 225q-28 0 -32.5 8t-4.5 57q-9 0 0.5 24t22.5 48l14 25h31h61q27 0 94 3q69 4 124 4q98 0 146 -12q100 -23 100 -97q0 -27 -13 -60q-16 -46 -54 -84.5t-77 -61 t-86.5 -53.5t-73.5 -59h33h96q113 -25 154 -41q139 -55 139 -160q0 -12 -2 -24q-17 -39 -45.5 -73.5t-57.5 -59t-73.5 -51.5t-76.5 -43t-85 -42t-82 -41h-2q-29 0 -53 -34q-16 -9 -51 -31.5t-56 -34t-56 -22.5t-71 -11q-6 7 -30.5 23t-24.5 35zM262 272q42 0 88 19.5 t53 19.5q64 17 135.5 62t114.5 92q9 8 24.5 18.5t24.5 17t16 23t7 41.5q-168 53 -264 53q-33 0 -58 -6q-6 0 -38 5t-60 5t-43 -10v-172v-71v-58v-39zM262 743h33q6 6 33 31t45 41t45 36.5t49 31.5q24 28 58.5 54.5t53.5 42.5t19 28q0 28 -4 32t-31 4h-96h-33 q-25 -17 -53 -25.5t-43 -9.5t-43 -1l-33 -29q15 -27 15 -70.5t-7.5 -95.5t-7.5 -70z" />
<glyph unicode="C" horiz-adv-x="800" d="M104 510q-10 45 -11 89q0 67 24 132q20 75 102 174.5t172.5 177t167.5 125.5q2 2 7 4t20.5 5.5t31.5 1.5q16 16 33 23.5t26 7.5l9 -1l29 -2q-3 -17 3 -28t14 -13l7 -2q0 -2 -1 -12t-2 -18.5t-2.5 -21t-4.5 -22t-6.5 -18t-9 -13t-11.5 -3.5q-9 -2 -33.5 5t-51.5 6t-52 -22 q-175 -144 -278 -282q-27 -32 -49 -115q-14 -51 -15 -89q0 -24 6 -42q9 -65 63 -117q54 -50 122 -66q31 -7 61 -8q38 0 76 11q54 25 86 33q17 4 37 3q19 0 43 -3l20 -39q-31 -35 -35 -74q-18 2 -36 -9t-35 -9q-23 -21 -69 -23h-13q-40 0 -82 8q-74 8 -147 32.5t-121 61.5 q-69 39 -95 152z" />
<glyph unicode="D" horiz-adv-x="919" d="M104 1022v57h74h129v-39q17 -9 17 -23t16 -34q10 -16 47 -25.5t88.5 -19t79.5 -20.5q162 -50 256 -97q49 -28 81 -92q19 -37 19 -73q0 -26 -10 -52q-22 -89 -139 -212t-207 -181q-3 -2 -60.5 -41t-95 -71t-37.5 -50v-33q-25 -8 -52 -8h-12q-34 2 -60.5 24.5t-26.5 57.5 q-15 16 -15 30.5t7.5 33t7.5 30.5q22 26 22 88q0 102 -10 335.5t-12 310.5q-25 22 -107 104zM307 659q15 -41 23 -106t15.5 -155.5t16.5 -147.5q15 0 53 28.5t68 28.5q32 31 93 83.5t100.5 93t64.5 83.5q11 11 32.5 26t29.5 28t8 38v33q-23 12 -62 32.5t-70 36t-61 27.5 q-43 23 -74 28t-87 5q-59 35 -117 35q-33 -164 -33 -197z" />
<glyph unicode="E" horiz-adv-x="888" d="M82 557q8 101 25.5 187.5t44.5 173.5q0 17 -18.5 46.5t-18.5 43.5q70 27 268 51t274 24q37 19 95 19q100 0 100 -19q8 -16 8 -32q0 -36 -41 -72h-127q-8 -4 -32.5 -14.5t-34.5 -14.5t-32 -12t-38 -11t-38.5 -6t-45.5 -3q-24 0 -81 7.5t-96.5 7.5t-55.5 -15 q0 -15 -11.5 -118.5t-11.5 -133.5h57h95q201 0 233 34q12 0 26 10.5t31 10.5q26 0 30.5 -3t4.5 -18q0 -30 -22 -71t-45 -41q-32 -32 -86 -43q-40 -8 -81 -8q-16 0 -30 1q-56 4 -122.5 4t-123.5 -10v-92q5 -6 30.5 -45.5t59.5 -60.5q258 0 295 35q15 0 23 8.5t9 16.5l1 9 q43 0 54.5 -4t37.5 -30q0 -68 -67 -123q-33 0 -90 -17.5t-64 -17.5q-46 -10 -96 -10q-36 0 -75 5q-92 13 -118 40q-58 42 -82 126q-19 64 -19 139q-1 22 1 46z" />
<glyph unicode="F" horiz-adv-x="919" d="M40 419q0 11 9 30l21 35h67q16 16 24.5 79.5t9.5 118.5l1 55q-3 2 -11.5 10.5t-11.5 11t-10 9.5t-10 10.5t-8 9.5t-7 10t-5 9.5t-4 10t-1 9.5q0 4 1 10t9 16.5t23 10.5l568 58h221q26 0 30.5 -2.5t4.5 -16.5q0 -19 -0.5 -29t-3.5 -23t-10.5 -18.5t-20.5 -5.5 q-30 -14 -88 -14h-8h-8q-58 0 -85 -14h-217q-33 -14 -69.5 -20.5t-60 -7.5t-66.5 -1q-27 -32 -41.5 -78.5t-16.5 -80t-2 -91.5q10 -16 47 -16t83.5 8t56.5 8l317 21q14 -9 20.5 -25.5t7.5 -29.5t1 -37v-4.5t-1.5 -9.5t-4.5 -12.5t-9 -10t-14 -4.5h-100q-42 -11 -183.5 -25 t-220.5 -31q17 -51 17 -132.5t-17 -127.5h-67l-25 39v92h-35q0 12 8 39.5t8 50.5t-16 39q-8 8 -25 16.5t-30.5 14t-27.5 15.5t-14 21z" />
<glyph unicode="G" d="M86 616q11 77 81 179t146.5 179t151.5 138q20 18 57 18q15 17 31 27t25 11l8 1h3h3h3h3h3h3h3h7q0 -14 10.5 -29t18.5 -24t2.5 -20.5t-31.5 -22.5q0 -25 -47.5 -45t-81.5 -20q-125 -130 -252 -351q-5 -8 -15.5 -21.5t-19 -24t-17 -25.5t-13 -28.5t-4 -30.5t7.5 -33 q13 -47 57.5 -84t100.5 -54q53 -17 111 -17h7q61 1 107 23q21 13 49 41.5t54 47t57 18.5l24 -37q-24 -92 -24 -131q-18 0 -35.5 -13.5t-34.5 -13.5q-15 -16 -42.5 -24t-49 -9t-68.5 -1q-35 6 -73 11.5t-59 9t-44 7t-34.5 6t-24 5.5t-19.5 6t-13 7t-11 9q-76 30 -112 119 q-21 51 -21 108q0 42 12 88zM305 694v35q23 9 125 22t156 31q28 -8 56 -8l30 2q29 5 64 5q17 0 36 -1q57 -4 92 -30q32 -16 53 -41t21 -52q0 -56 -8 -123.5t-17 -115t-25.5 -125.5t-23.5 -113q-8 -29 0 -61.5t14 -54.5q1 -6 1 -12q0 -22 -15 -62q-37 0 -51.5 0.5t-35 6 t-38.5 17.5q32 227 47.5 360.5t18 177.5t2.5 105h-162q-22 -24 -54 -30.5t-61 -0.5q-26 5 -61 5q-3 0 -6 -1q-39 0 -70 -14h-57q-1 0 -3 0.5t-7.5 4.5t-9.5 11.5t-7.5 23.5t-3.5 38z" />
<glyph unicode="H" horiz-adv-x="833" d="M90 473q0 36 17.5 81.5t17.5 78.5l-35 442v35q16 0 24.5 9t9.5 19l1 9q13 -7 37 -18t30.5 -15t17 -13.5t13 -20.5t2.5 -29q0 -10 -6.5 -30.5t-6.5 -39t13 -35.5v-219v-162h156h197v162v125q-25 25 -31 52.5t-6 80.5v90q0 4 1 10t10.5 15.5t25.5 9.5h1h1h1h1h1h1h1h1h1h1 h1h1h10q0 -16 10 -24.5t20 -9.5l9 -1q13 -10 14 -25t2.5 -32.5t14.5 -32.5v-258q0 -16 16 -46t16 -48q0 -19 12.5 -49.5t12.5 -38.5q0 -14 -12.5 -57t-12.5 -78q6 -23 19.5 -65.5t23 -73.5t19.5 -77q9 -41 9 -68v-6q-1 -28 -9 -65q-27 -18 -35 -21t-27 -3q-25 19 -32.5 26 t-30.5 33v88q0 17 -19.5 98.5t-19.5 100.5v55h-59h-285v-22v-101q8 -32 11 -63.5t3 -55t-6 -58.5t-10 -53t-14 -61t-15 -63h-1h-1h-1h-1h-1h-1h-1h-1h-1h-1h-1h-1h-1h-1h-1h-1h-1h-1h-1h-9q-17 0 -26 1t-21.5 4t-18.5 12t-6 24v121v192v68v55z" />
<glyph unicode="I" horiz-adv-x="403" d="M156 367v21q0 81 26 179q9 120 10.5 217.5t2 135.5t10.5 63q0 16 8.5 25.5t16.5 10.5l8 1h32q52 -84 52 -193q0 -62 -17 -131q-17 -30 -17 -95t-18 -95q-1 -9 0 -20q0 -57 22 -169q18 -89 17 -145q0 -27 -4 -47q10 -10 25 -41t35 -45q0 -35 -35 -76v-33q-27 0 -47.5 6.5 t-34 15.5t-22.5 26.5t-13.5 30.5t-6.5 37.5t-2 38.5t0.5 41t0.5 38q-45 113 -49 203z" />
<glyph unicode="J" horiz-adv-x="983" d="M39 496q10 0 13.5 5.5t2 12.5t2 12.5t13.5 5.5q18 15 41.5 15t52.5 -7.5t43 -7.5q10 -42 55 -87t98 -62q17 -5 33 -5q34 0 66 25q24 0 38 139q6 58 6 99q0 56 -11 80v102q0 156 -33 185h-35q-11 0 -58.5 -14.5t-66.5 -14.5q-5 6 -24.5 20.5t-27 32t-7.5 51.5 q6 3 37.5 21.5t53 27.5t36.5 9q35 0 88 11t93 20q25 5 54 5q19 0 41 -2q54 -6 102 -34q31 -13 60 -11.5t46.5 10t40 11t40.5 -9.5v-133q-16 -13 -56 -13t-92.5 6.5t-70.5 6.5q-11 0 -39 8t-51 8t-39 -16v-29q34 -109 34 -391v-92q5 -22 5 -44q0 -43 -21 -86q-31 -63 -86 -94 q-36 -15 -74 -17q-14 -1 -27 -1q-22 0 -39 2q-28 4 -68.5 21.5t-57 26.5t-58.5 35t-49 30q-8 9 -39 33.5t-48 46.5t-17 47z" />
<glyph unicode="K" horiz-adv-x="856" d="M53 424q50 58 58 83.5t8 117.5q-14 0 -14 15.5t7 41.5t7 37v35q0 166 37 223q0 24 12.5 29.5t42.5 5.5q0 -16 9.5 -24.5t18.5 -9.5l9 -1v-133q-37 -57 -37 -219h37q108 88 170 126t125 64q41 66 86 66h39q17 -50 17 -65.5t-17 -61.5q-127 -60 -234 -164q-12 -13 -28 -23 t-24.5 -15.5t-8.5 -14.5q46 -52 84.5 -106.5t61 -89t82.5 -95t157 -137.5l92 -27q21 -20 38 -60q13 -29 13 -59q0 -11 -2 -21q-6 -42 -49 -53q-14 11 -28.5 17.5t-22.5 7.5h-8l-68 74q-59 63 -94 94q-79 60 -128.5 107t-94.5 112q-5 5 -64.5 72.5t-93.5 91.5v-41 q-28 -17 -28 -58.5t28 -64.5v-96q0 -17 8 -64.5t8 -87t-16 -65.5q-15 -16 -25.5 -25.5t-20.5 -12.5t-15.5 -3.5t-14.5 8t-14 15t-17.5 24t-21.5 29.5v217v92q-10 12 -29.5 26t-28 27.5t-8.5 38.5z" />
<glyph unicode="L" horiz-adv-x="940" d="M142 530q0 150 26 191v129q11 33 11 65q-1 35 -7 61q-6 24 0.5 52.5t30.5 54.5q0 1 20 19q24 -13 32.5 -20.5t35.5 -37.5v-126q-35 -252 -35 -646h35l438 62q72 35 92 39q7 1 14 1q36 0 56 -40l5 -10q4 -6 8 -20q3 -8 2 -15q0 -4 -1 -8q-3 -9 -14 -9q0 -19 -1 -29 t-9.5 -21t-24.5 -11q-15 16 -46 16t-68 -8t-46 -8h-55q-222 -59 -315 -59q-16 -18 -33.5 -18t-26.5 9l-10 9q-16 0 -43 17t-45 17v125q-26 69 -26 219z" />
<glyph unicode="M" d="M55 850v158v94q9 17 32.5 36t23.5 38q39 0 59 -17.5t38 -58.5t28 -56q33 -65 92.5 -149t103.5 -107q43 47 92.5 139t180.5 376h3h3h3h3h3h3h3h3h3h9h35q16 -32 46 -79.5t44 -82.5q21 -51 39.5 -148t34.5 -143q8 -50 40 -131t58.5 -163.5t26.5 -152.5q-14 0 -30.5 -8.5 t-26.5 -16.5l-9 -9q-33 25 -49.5 51.5t-19.5 46.5t-8.5 48.5t-16.5 49.5q-23 79 -71.5 186.5t-57.5 131.5q0 48 -1 76t-9.5 67t-24.5 57q-4 0 -10 -1t-16 -11t-10 -27q-10 -72 -50 -146t-105.5 -167t-94.5 -143h-23q-21 25 -60.5 67.5t-63.5 72.5t-40 60q-51 54 -90 130 q-16 -30 -16 -62t8 -62.5t8 -39.5v-88q8 -16 8 -36.5t-4 -49.5t-4 -48q2 -12 12 -57t14 -69q4 -26 8 -64q2 -19 2 -36.5t-2 -33.5q-4 -32 -15 -61h-56q-23 0 -30.5 4t-34.5 31v65v185v69q-21 66 -21 285z" />
<glyph unicode="N" horiz-adv-x="929" d="M119 836q14 9 32 23.5t25.5 19t24 3.5t41.5 -12q44 -58 100.5 -149t95.5 -154t103 -132t139 -111q0 17 7 130q3 53 3 97q0 51 -4 91q-8 76 -39 136q0 59 -22 92q0 10 -16.5 48t-16.5 79l33 35h55q20 -30 36.5 -63.5t30.5 -75t22 -68.5t22 -79t20 -72v-62q0 -23 6.5 -62.5 t6.5 -71.5t-13 -62v-133q0 -20 -21 -75.5t-40 -72.5q-10 -9 -22 -9h-4q-15 2 -32.5 12.5t-32 21.5t-24.5 20l-10 10q-216 157 -359 388v-33v-129q0 -58 1.5 -87.5t9.5 -75.5t26 -93h-37q0 -19 -3 -22t-21 -3h-33l-35 25q-24 43 -26 133v44q0 65 4 123q2 20 2 39 q0 56 -13 113q-22 58 -22 224z" />
<glyph unicode="O" horiz-adv-x="940" d="M44 858q3 33 14 62t24 51q0 12 -3 22.5t-5.5 14.5t-1 9t9.5 11q0 4 1 10.5t9.5 17.5t24.5 11q48 93 68 119q59 78 149 78h108q85 -24 182.5 -132.5t168.5 -226.5q11 -60 11 -142q0 -43 -3 -93q-9 -144 -49 -211q0 -17 -11.5 -36.5t-18.5 -27t-28 -28.5q-12 -13 -23 -33.5 t-19.5 -29.5t-24.5 -9q-35 -13 -65 -15q-7 -1 -13 0q-23 0 -45 6q-28 8 -46.5 18t-45.5 26q-28 0 -37.5 4.5t-40.5 32.5q-44 20 -79.5 52t-67.5 85.5t-51.5 93.5t-53.5 117v61q-3 0 -6.5 1t-10 9t-6.5 23q-15 14 -15 40v9zM188 1010l23 -234q28 -122 66 -185.5t135 -131.5 q15 0 76.5 -34t80.5 -34l93 123q0 17 16 107t16 129q-13 62 -43 126t-74 123t-108 96.5t-135 37.5q-58 0 -146 -123z" />
<glyph unicode="P" horiz-adv-x="909" d="M26 392q-2 7 -2 19q0 26 9 72q20 49 20 110t-20 87v162q41 27 100.5 48t159 47.5t121.5 33.5q149 0 149 18q224 0 385 -125v-57q-10 -32 -31.5 -55t-53.5 -44t-40 -28q-21 -29 -127 -79t-438 -179q0 -16 -18.5 -24.5t-37.5 -9.5l-18 -1v-59v-70q0 -18 16.5 -98t16.5 -90 q0 -15 -8.5 -23t-16.5 -9l-8 -1q-11 -16 -17.5 -16t-17.5 8t-24 8q-35 32 -35 55v78q0 123 -31 158q0 7 -13.5 23.5t-19.5 40.5zM160 512h1h1h1h1h1h1h1h1h1h1h1h1h1h1h10q17 19 76.5 38.5t85.5 37.5q51 31 165 77t159 70q30 0 79.5 30t49.5 77q-12 0 -72.5 11t-97.5 11 l-246 -22q-25 0 -59.5 -13.5t-55.5 -25.5t-61.5 -38t-46.5 -30v-223z" />
<glyph unicode="Q" horiz-adv-x="1126" d="M162 664v34q0 167 35 185q13 35 35 68.5t64 70.5t95.5 63.5t136.5 42.5q69 13 149 13h30q159 -41 221 -122.5t86 -258.5q0 -34 -44 -139.5t-44 -118.5q-25 -15 -29 -22t-4 -34q45 -106 121 -200l39 -62q34 0 34 -92h-73q-32 17 -64 52t-56 71.5t-59.5 80.5t-70.5 73 q-16 0 -25.5 -5.5t-10.5 -11.5l-1 -6q-113 -40 -156 -46q-19 -3 -37 -3q-43 0 -81 16q-89 23 -156.5 86t-99.5 136q-35 35 -35 129zM280 732q-2 -16 -2 -33q0 -44 13 -95q18 -18 34.5 -52t32.5 -50q49 -44 126 -62q33 -8 65 -8q43 0 84 14q15 14 34.5 24.5t29.5 16.5t10 15 q-19 17 -37.5 51t-36.5 51q-1 2 -8.5 12t-9.5 14.5t-7.5 15.5t-6.5 21t-1.5 24.5t3.5 31.5t11 37h56q25 -13 39.5 -28.5t16.5 -24.5l1 -9q0 -37 70 -94q29 22 43 50t14 77q17 49 17 89q0 18 -3 35q-12 53 -55 88t-102.5 52t-130.5 17q-24 0 -36.5 -1t-29.5 -6.5t-31 -17.5 q-50 -26 -90.5 -61.5t-73 -85.5t-39.5 -108z" />
<glyph unicode="R" horiz-adv-x="1116" d="M47 985v35q11 13 59.5 60t63.5 67q106 76 204 113.5t216 37.5q112 0 216 -23t128 -71q9 -26 9 -51q-1 -19 -5 -37q-12 -44 -39 -65q-21 -25 -51 -49t-56 -40.5t-66 -36t-61 -28.5t-61.5 -25.5t-48.5 -19.5q-22 -9 -58 -26t-57.5 -24t-46.5 -7v-33q25 0 63 -16t91.5 -44.5 t64.5 -33.5q125 -55 199 -99t123 -96q20 -15 48 -29.5t46.5 -28.5t34.5 -38v-68q0 -9 -5 -14.5t-18.5 -7t-21.5 -2t-29 -0.5h-33q-10 11 -24 41.5t-33 50.5l-450 256q-34 -5 -52.5 -4t-40.5 13.5t-36.5 25.5t-39.5 30.5t-51 28.5q0 -20 -7 -58t-7 -63.5t14 -40.5 q0 -16 8 -63t8 -89t-16 -73l-30 -31q-7 7 -20.5 18.5t-19 18t-11 23t-5.5 41.5v63q-25 55 -30 121q-2 26 -2 50q1 36 5 66q8 50 17.5 114.5t9.5 103.5q-11 5 -39.5 13t-42.5 17t-14 27zM249 950v-5q0 -40 15 -56q55 39 185 39q12 7 68.5 36.5t86 46t76 43.5t78.5 50t53 43 q-27 24 -78 29.5t-178 5.5q-24 -12 -94.5 -34.5t-125.5 -46.5t-71 -50q-4 -14 -9 -35.5t-6 -65.5z" />
<glyph unicode="S" d="M41 592v90q8 0 14.5 9t17.5 17.5t29 8.5h37q79 53 180 94q21 11 53.5 32.5t53.5 29.5t51 8q18 0 26.5 0.5t19 4t14.5 11.5t4 21q51 0 76.5 -1.5t61 -7.5t57.5 -21t36 -40q0 -23 -1.5 -33t-10 -18.5t-27.5 -8.5q0 -13 -4.5 -20t-16.5 -10t-19.5 -3.5t-24.5 -0.5 q-10 0 -24.5 17t-33.5 17q-53 0 -111.5 -24t-125 -58.5t-111.5 -48.5q-13 -11 -32.5 -21.5t-27 -19t-7.5 -24.5q15 -18 41.5 -27t49 -10.5t68.5 -1.5q48 -12 123 -18t139 -7.5t132 -12.5t114 -31.5t72 -66.5q19 -34 18 -81q0 -17 -2 -35q0 -12 -7 -19t-22 -17.5t-26 -24.5 q-2 -1 -23.5 -12t-29 -14.5t-31 -14.5t-39 -17t-43.5 -17t-55.5 -19.5t-63.5 -20t-77.5 -22.5t-88.5 -23h-32q-43 -19 -95.5 -28.5t-86 -11t-91.5 -1.5q0 18 -9.5 28.5t-18.5 11.5l-9 1q-25 31 -25 53q0 42 99 43q26 0 74 -3q25 -1 33 -1q103 21 165.5 35.5t144.5 39.5 t140 54q20 0 31.5 1.5t28 7t24.5 20.5t8 39h37h-37q-15 15 -43 22.5t-48.5 8.5t-65.5 1h-58q-45 10 -146 21.5t-186 28t-139 45.5q-25 0 -52.5 30t-45.5 66z" />
<glyph unicode="T" horiz-adv-x="927" d="M-94 1337v23q29 16 82.5 16t117 -8t82.5 -8h387q128 0 185 37h160q41 0 52.5 -4.5t39.5 -32.5q5 -14 5 -26q0 -24 -19 -42q-28 -26 -78 -26q-182 -14 -293 -20t-211 -15q-22 -111 -28.5 -205t-6.5 -238v-122q16 -36 24.5 -85.5t9.5 -83t1 -94.5v-131q0 -20 -4 -23t-31 -3 h-23q-29 20 -37.5 28t-31.5 37q0 117 -1.5 176.5t-9.5 151.5t-26 184q0 64 18.5 193t18.5 190q-28 19 -36 22t-30 3q0 -11 -16.5 -11t-44.5 5.5t-39 5.5q-39 -10 -74 -12h-14q-28 0 -55 6q-34 8 -54 36.5t-20 75.5z" />
<glyph unicode="U" horiz-adv-x="980" d="M109 844v94q0 4 0.5 10t8.5 16.5t23 10.5h35l25 -37q0 -29 16 -93t16 -91v-92q42 -168 65 -227q76 -202 219 -225q19 -3 40 -3q17 0 23.5 4.5t33.5 32.5q60 29 99 85.5t57.5 132.5t27.5 147.5t18.5 162t21.5 143.5q0 35 -10.5 89.5t-10.5 58.5q8 0 22 18.5t33 18.5h68 q12 -18 18 -44q6 -22 6 -54v-10q-1 -38 -4.5 -72t-14 -92t-19.5 -103t-25.5 -125t-28.5 -139q-27 -125 -95.5 -230.5t-162.5 -156.5q-22 0 -33 -1t-27 -8t-34 -22q-22 0 -72 34t-86 66q-94 73 -144 169.5t-77 244.5z" />
<glyph unicode="V" d="M113 1065q17 0 32.5 9t30.5 9h25q31 -40 47 -75.5t31.5 -91t27.5 -87.5q6 -22 15.5 -47t18.5 -43.5t26 -49t25.5 -45t30.5 -49.5t28 -46q12 -11 25 -45.5t31.5 -58t51.5 -23.5q21 24 92 156q21 44 86.5 175.5t96.5 204.5q0 25 7.5 49.5t12.5 35t24 41t23 36.5q0 72 23 97 q0 15 8 23t16 8l8 1h78q0 -16 12.5 -45t12.5 -47l-225 -475l-125 -260l-58 -103q-14 -8 -36.5 -59t-55.5 -74q-23 9 -41.5 20t-33 28t-24.5 29t-21 37.5t-15.5 36.5t-15.5 43t-15 42l-217 407q-3 8 -13 29.5t-13.5 31t-11 29t-10.5 32.5l-7.5 32.5t-6 39.5t-1.5 42z" />
<glyph unicode="W" horiz-adv-x="1363" d="M33 817q0 4 1 10t9.5 15.5t24.5 9.5h71q6 -23 14.5 -63.5t17.5 -71.5t26 -62v-37q62 -274 192 -442q13 17 28.5 56.5t31.5 70.5q39 75 73.5 177t56.5 180t63 167.5t95 153.5q0 -16 7.5 -25.5t15.5 -10.5l8 -1v-67q15 -30 29.5 -108.5t29.5 -113.5q59 -140 108 -235.5 t112 -181.5q60 55 99 181t66 361q0 96 35 129q-1 2 -2.5 5.5t-5 13t-5.5 18t-2.5 17t3.5 13.5t12 5l90 23q35 0 35 -23q0 -19 -17.5 -53.5t-17.5 -50.5v-134q-20 -65 -40 -161.5t-33.5 -163t-44.5 -144t-76 -133.5q0 -26 -16 -65t-40 -64h-40l-150 197q-12 20 -26.5 50.5 t-24.5 54.5t-26 63t-23 57q-13 14 -43.5 93t-48.5 91v-22q-12 -32 -44.5 -121.5t-51.5 -136t-51 -119t-67.5 -130.5t-76.5 -109q0 -9 -6 -14t-12 -6l-7 -1q-25 15 -33 21t-34 32l-31 70q0 23 -18 63.5t-42 63.5q-18 46 -55 136t-59 146.5t-47 146t-37 179.5z" />
<glyph unicode="X" horiz-adv-x="1075" d="M147 266l103 129l252 289q-39 32 -103 114.5t-92 110.5l-37 35l-88 123h-35q-10 12 -10 18.5t10 6.5v104q0 13 8.5 20t17.5 8l9 1h68q19 -27 38 -68t19 -65q36 -32 82 -94t76 -89q11 -11 32.5 -40t45.5 -53t57 -40q25 49 49 83t74 85q114 171 215 252h37q18 0 33 -17.5 t28 -17.5q-42 -76 -169 -232.5t-181 -244.5q100 -76 223 -231q6 -4 36.5 -24t47.5 -36.5t17 -32.5q12 -15 12 -30.5t-6 -34.5t-6 -29q0 -29 -9 -34t-63 -5l-55 70l-283 285q-65 -44 -98 -93q-35 -57 -158 -192q-32 -60 -61.5 -91.5t-67.5 -31.5q0 2 -1 5t-9 8.5t-23 5.5 q-35 34 -35 73z" />
<glyph unicode="Y" horiz-adv-x="733" d="M34 -77q7 40 21.5 76.5t28.5 73t14 46.5q31 69 135.5 252t188.5 350q-29 18 -54.5 40.5t-52 54.5t-45.5 57t-52 71t-54 74l-35 55q-23 51 -23 71t23 91h64q27 -27 48 -65.5t21 -65.5q42 -49 83 -110t75.5 -100.5t93.5 -78.5q16 62 42.5 123t49 101t60.5 102 q10 7 21.5 24.5t20.5 32t31 26t54 11.5l34 -131q-10 -9 -20.5 -22.5t-34.5 -52t-53 -86.5t-94.5 -154t-141.5 -226l-61 -94q-19 -75 -99 -203t-96 -182q-14 -29 -24 -81t-18.5 -91t-20.5 -47q-16 0 -24.5 -9.5t-9.5 -18.5l-1 -9h-31q-16 0 -30.5 9t-20.5 19l-6 9 q-9 12 -9 34q0 11 2 24z" />
<glyph unicode="Z" horiz-adv-x="1353" d="M117 201q0 19 6 39t13.5 36t24 37t26.5 32.5t33 33t31.5 28.5t33 28t28.5 24q26 33 90.5 96.5t94.5 101.5l321 347v36q-70 19 -228.5 25.5t-187.5 9.5q-26 0 -38.5 31.5t4.5 55.5q0 16 8.5 25t16.5 10l9 1l347 -36q26 0 49.5 -2.5t48.5 -8t45 -14.5t37 -24.5t25 -35 t7.5 -47t-12.5 -61.5q0 -27 -22.5 -59.5t-58.5 -72t-50 -59.5l-506 -508q71 -14 144 -14q4 0 9 -1q68 0 117 8q53 8 142 21.5t156 20.5h161q70 19 125 19q7 0 37.5 7t52.5 2.5t39 -28.5q33 -35 33 -72q-11 -11 -23 -28t-20.5 -23t-25.5 -6h-310q-60 0 -180 -21 q-118 -21 -220 -39q-89 -16 -189 -17q-13 1 -27 1q-114 2 -182 41q0 19 -17.5 34t-17.5 26z" />
<glyph unicode="[" horiz-adv-x="868" d="M86 1372v51q71 -17 149 -17t138 17h162h118h90q0 -10 10.5 -38t10.5 -46q-1 -30 -21 -30h-110h-148q-139 0 -223 -19v-90v-22v-117v-90q0 -48 -3.5 -152t-4.5 -169t8 -143t31 -124v-115q31 0 46 1.5t38.5 9.5t48.5 26q9 0 35 -8t45.5 -8t28.5 16q10 0 38.5 4t49.5 4 t30 -8q7 0 15 -3t14 -7t15.5 -12t14.5 -13.5t16 -16.5l15 -15v-33l-30 -19h-80q-49 -15 -150.5 -14t-140.5 -14q-14 0 -55 -15.5t-58 -15.5q-14 0 -25 6.5t-29.5 26.5t-24.5 26v248v148q-15 35 -15 74.5t7.5 76t7.5 43.5q-15 27 -15 62.5t7.5 76.5t7.5 56v260v59q0 6 -16 14 t-32 24t-16 44z" />
<glyph unicode="\" horiz-adv-x="858" d="M68 1374q1 14 12 35q26 1 26 21h31q84 -32 84 -113q16 -9 29 -29.5t29 -53.5t26 -50q0 -20 1 -31t7.5 -27.5t20.5 -31.5q28 -69 88.5 -199.5t75.5 -163.5q11 -27 31.5 -82t31.5 -83.5t29.5 -71.5t39.5 -82t46 -80q5 -14 38.5 -81t55.5 -130.5t14 -100.5h-90 q-27 33 -49.5 91.5t-36.5 81.5q0 4 -1 9t-4 12t-5.5 12.5t-8 16.5t-9.5 18t-12 22t-13 24q-34 91 -141 277q-31 32 -31 63q0 5 -9 43t-9 72q-66 114 -175 362q0 14 -15 29t-15 31q-8 17 -22 60.5t-32 72.5q-6 8 -19 19.5t-16.5 17.5t-2.5 20z" />
<glyph unicode="]" horiz-adv-x="804" d="M125 186q39 18 49 19h88q88 33 283 33q0 14 7.5 21.5t15.5 8.5h7q0 19 -15 75t-15 71v84q14 8 14 29t-7 54t-7 50v227q30 59 30 227q23 61 23 224q14 30 20.5 62.5t7.5 53.5t1 62v31h-111q-12 0 -53 -1.5t-73.5 -2.5t-76.5 3t-74.5 12t-54.5 27t-28 46v49h18h199 q30 -10 85.5 -10.5t86.5 -10.5h53h145q8 -10 33 -25.5t25 -33.5q0 -25 -16.5 -70t-16.5 -78q-25 -23 -25 -163v-29q0 -29 -16 -81t-16 -65v-55q-21 -117 -21 -481q0 -188 21 -311v-80q0 -15 -7.5 -22t-16 -8t-28.5 -1h-114q-29 -31 -80 -31h-143q-33 0 -66 -11t-45 -11 q-26 16 -40.5 26.5t-30 34.5t-15.5 51z" />
<glyph unicode="a" horiz-adv-x="714" d="M98 125q0 180 47 313q0 23 -7 55.5t-7 57.5q28 14 40 40t20 71t20 73q8 48 36 156t36 156q8 17 8 53t8 59q0 24 15.5 37.5t15.5 17.5q16 33 16 97q7 0 11 4t5 8v4h33q37 -37 37 -70q0 -13 -6 -26q16 -17 0 -17q0 -18 -15.5 -56t-15.5 -62q39 -194 80 -314q8 -8 28 -73.5 t27 -77.5h50q0 -12 2 -16.5t14 -16.5q2 -8 2 -16q0 -21 -14 -48q-20 -37 -21 -49q7 -32 31 -121.5t33 -142.5q12 -23 12 -55t-12 -55q0 -17 -8 -21t-23 -4q-40 47 -84.5 182t-52.5 217h-33q0 7 -8 7t-21 -3.5t-18 -3.5q-27 9 -55.5 9.5t-51 -13.5t-22.5 -43q-7 -5 -9.5 -13 t-4.5 -31.5t-4.5 -56t-12 -101t-24.5 -150.5q-7 -7 -19.5 -7t-31 3.5t-29.5 3.5q0 14 -8.5 23.5t-8.5 15.5zM283 598h63q8 8 33 8t33 8v17l-17 104l-33 64q0 28 -2.5 40t-13.5 23q-6 -29 -30 -117t-33 -147z" />
<glyph unicode="b" horiz-adv-x="876" d="M90 227q0 31 4.5 40.5t30.5 35.5l20 25v354q-4 4 -16 13.5t-15.5 16t-2 24.5t13.5 46l20 88q37 197 37 226q-28 0 -32.5 8t-4.5 57q-9 0 0.5 24t22.5 48l14 24h31h61q27 0 95 3q71 4 127 4q94 0 142 -11q100 -23 100 -97q0 -27 -13 -60q-16 -46 -54 -84.5t-77 -61 t-86.5 -53.5t-73.5 -59h33h96q115 -26 160 -44q133 -55 133 -159q0 -11 -2 -23q-17 -39 -45.5 -73.5t-57.5 -59t-73.5 -51t-77 -42.5t-84.5 -42l-82 -41q-30 0 -55 -35q-15 -9 -51 -31.5t-56.5 -34t-55.5 -22t-71 -10.5q-6 7 -30.5 22.5t-24.5 34.5zM262 389q42 0 88 19.5 t53 19.5q64 17 135.5 62t114.5 92q9 8 24.5 18.5t24.5 17t16 23t7 41.5q-168 53 -264 53q-33 0 -58 -6q-6 0 -38 5t-60 5t-43 -10v-172v-72v-57v-39zM262 860h33q5 4 33 30.5t45 41t44.5 35t49.5 32.5q24 28 58.5 54.5t53.5 42.5t19 28q0 28 -4.5 32.5t-30.5 4.5h-96h-33 q-26 -17 -53.5 -26t-43 -10t-42.5 -1l-33 -28q15 -27 15 -70.5t-7.5 -95.5t-7.5 -70z" />
<glyph unicode="c" horiz-adv-x="735" d="M78 316q-10 45 -10 89q0 67 24 132q20 75 102.5 174.5t173 177t167.5 125.5q2 2 7 4t20.5 5t31.5 1q16 16 33 23.5t26 7.5h9l28 -2q-3 -17 3.5 -28t14.5 -13l7 -2q0 -2 -1 -12t-2 -18.5t-2.5 -21t-4.5 -22t-6.5 -18.5t-9 -13.5t-11.5 -3.5q-9 -2 -33.5 5.5t-51.5 6.5 t-52 -22q-175 -144 -279 -283q-26 -32 -48 -114q-14 -51 -15 -89q0 -24 6 -43q9 -65 62 -116.5t121 -67.5q31 -7 62 -6q38 0 76 10q54 24 86 32q17 4 37 4q19 0 43 -3q1 0 21 -39q-31 -35 -35 -74q-18 2 -36 -9t-36 -9q-22 -21 -68 -22h-10q-41 0 -86 8q-74 8 -147 32.5 t-121 61.5q-70 39 -96 152z" />
<glyph unicode="d" horiz-adv-x="919" d="M104 1163v58h74h129v-39q17 -9 17 -23.5t16 -34.5q10 -16 47 -25.5t88.5 -19t79.5 -20.5q167 -52 256 -96q49 -29 81 -93q19 -38 19 -73q0 -26 -10 -52q-22 -89 -139 -212t-207 -181q-3 -2 -60.5 -41t-95 -71t-37.5 -50v-32q-26 -9 -55 -9q-5 1 -9 1q-34 2 -60.5 24 t-26.5 57q-15 16 -15 31t7.5 33.5t7.5 30.5q22 26 22 88q0 102 -10 335t-12 310q-25 22 -107 104zM307 801q15 -40 23 -106t15.5 -156.5t16.5 -147.5q15 0 53 29t68 29q32 31 93 83.5t100.5 93t64.5 83.5q11 11 32.5 26t29.5 28t8 38v33q-23 12 -62 32.5t-70 36t-61 27.5 q-43 23 -74 28t-87 5q-57 34 -117 34q-33 -163 -33 -196z" />
<glyph unicode="e" horiz-adv-x="888" d="M82 495q8 101 25.5 187.5t44.5 173.5q0 17 -18.5 46.5t-18.5 43.5q71 27 269 51.5t273 24.5q35 18 95 18q100 0 100 -18q8 -16 8 -32q0 -36 -41 -72h-127q-7 -3 -38 -17t-43 -18t-38.5 -12.5t-50 -11.5t-51.5 -3q-24 0 -81 7.5t-96.5 7.5t-55.5 -15q0 -15 -11.5 -118.5 t-11.5 -133.5h57h95q200 0 233 35q12 0 26 10t31 10q26 0 30.5 -2.5t4.5 -17.5q0 -30 -22 -71.5t-45 -41.5q-32 -32 -86 -43q-38 -8 -78 -8q-17 -1 -33 1q-51 4 -109 5q-7 -1 -13 -1q-66 0 -124 -9v-92q6 -6 31 -46t59 -61q258 0 295 35q15 0 23 8.5t9 17.5l1 9 q43 0 54.5 -4.5t37.5 -30.5q0 -68 -67 -123q-33 0 -90 -17t-64 -17q-47 -11 -98 -11q-36 -1 -73 5q-92 12 -118 40q-58 42 -82 126q-19 64 -19 139q-1 22 1 46z" />
<glyph unicode="f" horiz-adv-x="919" d="M50 656q0 11 9 30l21 37h67q16 16 24.5 79t9.5 118l1 55q-52 49 -61 68q-6 11 -6 22q0 4 0.5 10t8.5 16.5t23 10.5l568 57h221q26 0 30.5 -2.5t4.5 -15.5q0 -19 -0.5 -29t-3.5 -23t-10.5 -18.5t-20.5 -5.5q-31 -15 -94.5 -15t-93.5 -14h-218q-33 -14 -70 -20.5t-58.5 -7 t-67.5 -0.5q-27 -32 -41.5 -78.5t-16.5 -80t-2 -91.5q10 -16 47 -16t83.5 8t56.5 8l317 20q19 -13 24 -34.5t5 -57.5v-4.5t-1.5 -9.5t-4.5 -12.5t-9 -10t-14 -4.5h-100q-42 -11 -183.5 -24.5t-220.5 -30.5q17 -51 17 -132.5t-17 -127.5h-67l-25 39v92h-35q0 12 8 39.5 t8 50.5t-16 39q-8 8 -25 16.5t-30.5 13.5t-27.5 14q-14 10 -14 22z" />
<glyph unicode="g" d="M86 532q11 77 81 179t146.5 179t151.5 138q20 19 57 19q15 17 31 26.5t25 10.5l8 1h3h3h3h3h3h3h3h7q0 -17 8 -26.5t16 -10.5l7 -1q0 -58 -31 -58q0 -25 -47.5 -45t-81.5 -20q-125 -130 -252 -351q-5 -8 -15.5 -21.5t-19 -24t-17 -25.5t-13 -28.5t-4 -30.5t7.5 -33 q13 -47 57.5 -84t100.5 -54q53 -16 111 -16h7q61 1 107 23q18 11 39.5 31t36.5 35.5t37.5 27.5t46.5 12l24 -37q-24 -92 -24 -131q-18 0 -35.5 -13.5t-34.5 -13.5q-15 -16 -42.5 -24t-49 -9t-68.5 -1q-35 6 -73 11.5t-59 9t-44 7t-34.5 6t-24 5.5t-19.5 6t-13 7t-11 9 q-76 30 -112 119q-21 51 -21 108q0 42 12 88zM305 610v35q23 9 125 22t156 31q28 -8 56 -8l30 2q29 5 64 5q17 0 36 -1q57 -4 92 -30q32 -16 53 -41t21 -52q0 -43 -1 -67t-9 -59.5t-23 -61.5q0 -69 -1.5 -104.5t-11 -88t-28.5 -96.5q-8 -29 0 -61.5t14 -54.5q1 -6 1 -12 q0 -22 -15 -62q-37 0 -51.5 0.5t-35 6t-38.5 17.5q-5 13 -5 29q0 23 10 51q7 22 7 41q0 25 -12 45q0 94 37 121v131q15 29 22 67t8 67.5t1 90.5h-162h-6t-14.5 -2.5t-18 -6.5t-14 -12.5t-6.5 -19.5q-21 0 -58.5 9t-70 9t-64.5 -18h-57q-1 0 -3 0.5t-7.5 4.5t-9.5 11.5 t-7.5 23.5t-3.5 38z" />
<glyph unicode="h" horiz-adv-x="833" d="M90 539q0 37 17.5 81t17.5 78l-35 443v35q16 0 24.5 9t9.5 18l1 9q13 -7 37 -18t30.5 -15t17 -13.5t13 -20.5t2.5 -29q0 -10 -6.5 -30t-6.5 -38.5t13 -35.5v-219v-162h156h197v162v125q-25 25 -31 53t-6 80v90q0 4 1 10t10.5 15.5t25.5 9.5h1h1h1h1h1h1h1h1h1h1h1h1h10 q0 -16 10 -24.5t20 -9.5l9 -1q13 -10 14 -25t2.5 -32.5t14.5 -32.5v-258q0 -16 16 -46.5t16 -48.5q0 -19 12.5 -49.5t12.5 -38.5q0 -14 -12.5 -57t-12.5 -78q6 -23 19.5 -65.5t23 -73.5t19.5 -76q9 -41 9 -68v-6q-1 -28 -9 -65q-28 -19 -35.5 -22t-26.5 -3q-24 18 -31 25 t-32 35v88q0 17 -19.5 98t-19.5 100v56h-59h-285v-23v-100q10 -39 14 -71q1 -13 1 -26q1 -22 -3 -50q-6 -44 -8.5 -59.5t-17 -76t-17.5 -72.5h-1h-1h-1h-1h-1h-1h-1h-1h-1h-1h-1h-1h-1h-1h-1h-1h-1h-1h-1h-9q-17 0 -26 1t-21.5 4t-18.5 12t-6 24v121v193v67v56z" />
<glyph unicode="i" horiz-adv-x="403" d="M156 621v21q0 81 26 179q9 120 10.5 217.5t2 135.5t10.5 63q0 16 8.5 25.5t16.5 10.5l8 1h32q52 -84 52 -193q0 -62 -17 -131q-17 -30 -17 -95t-18 -95q-1 -9 0 -20q0 -57 22 -169q18 -89 17 -145q0 -27 -4 -47q10 -10 25 -41t35 -45q0 -35 -35 -76v-33q-27 0 -47.5 6.5 t-34 15.5t-22.5 26.5t-13.5 30.5t-6.5 37.5t-2 38.5t0.5 41t0.5 38q-45 113 -49 203z" />
<glyph unicode="j" horiz-adv-x="983" d="M18 420q10 0 13.5 6t2 12.5t2 12.5t13.5 6q18 15 41.5 15t52.5 -7.5t43 -7.5q10 -42 55 -87t98 -62q17 -5 33 -5q34 0 66 25q24 0 38 138q6 59 6 100q0 55 -11 79v103q0 155 -33 184h-35q-11 0 -58 -14.5t-66 -14.5q-5 6 -24.5 20.5t-27.5 32.5t-8 52q4 2 37 21t54 27.5 t36 8.5q38 0 112.5 18t139.5 18t127 -36q31 -13 60 -11.5t46 10t39.5 11t40.5 -9.5v-133q-16 -13 -56 -13t-92.5 6.5t-70.5 6.5q-11 0 -39 8t-51 8t-39 -16v-29q35 -112 35 -391v-92q5 -22 5 -44q0 -43 -21 -85q-31 -63 -86 -94q-36 -15 -74 -17q-16 -1 -29 -1q-21 0 -37 2 q-27 3 -68.5 21t-57 26t-58.5 35t-49 30q-8 9 -39 33.5t-48.5 46.5t-17.5 47z" />
<glyph unicode="k" horiz-adv-x="856" d="M53 532q50 58 58 83.5t8 117.5q-14 0 -14 15.5t7 41.5t7 37v35q0 166 37 223q0 24 12.5 29.5t42.5 5.5q0 -16 9.5 -24.5t18.5 -9.5l9 -1v-133q-37 -57 -37 -219h37q109 89 171 127.5t124 63.5q40 65 86 65h39q17 -50 17 -65.5t-17 -61.5q-127 -60 -234 -164 q-12 -13 -28 -23t-24.5 -15.5t-8.5 -14.5q46 -52 84.5 -106.5t61 -89t82.5 -95t157 -137.5l92 -27q21 -20 38 -59q13 -29 13 -59q0 -12 -2 -22q-6 -42 -49 -52q-14 11 -28.5 17.5t-22.5 6.5l-8 1l-68 73q-59 63 -94 94q-77 59 -127.5 107t-95.5 113q-5 5 -64.5 72t-93.5 91 v-41q-28 -17 -28 -58t28 -64v-97q0 -17 8 -64.5t8 -87t-16 -65.5q-15 -16 -25.5 -25.5t-20.5 -12.5t-15.5 -3.5t-14.5 8t-14 15t-17.5 24t-21.5 29.5v217v92q-10 12 -29.5 26t-28 27.5t-8.5 38.5z" />
<glyph unicode="l" horiz-adv-x="940" d="M142 565q0 150 26 191v129q11 33 11 65q-1 34 -7 60q-6 24 0.5 53t30.5 55q0 1 20 19q24 -13 32.5 -20.5t35.5 -37.5v-127q-35 -252 -35 -645h35l438 62q72 35 92 39q7 1 14 1q36 0 56 -40q2 -4 5 -11q4 -6 8 -20q3 -8 2 -14q0 -4 -1 -8q-3 -9 -14 -9q0 -19 -1 -29 t-9.5 -21t-24.5 -11q-15 16 -46 16t-68 -8t-46 -8h-55q-226 -60 -315 -60q-16 -18 -33.5 -18t-26.5 9l-10 9q-16 0 -43 17.5t-45 17.5v125q-26 69 -26 219z" />
<glyph unicode="m" d="M55 936v158v94q9 17 32.5 36t23.5 38q39 0 59 -17.5t38 -58.5t28 -56q33 -65 92.5 -149t103.5 -107q43 47 92.5 139t180.5 376h3h3h3h3h3h3h3h3h3h9h35q16 -32 46 -79.5t44 -82.5q21 -51 39.5 -148t34.5 -143q8 -50 40 -131t58.5 -163.5t26.5 -152.5q-14 0 -30.5 -8.5 t-26.5 -16.5l-9 -9q-33 25 -49.5 51.5t-19.5 46.5t-8.5 48.5t-16.5 49.5q-23 79 -71.5 186.5t-57.5 131.5q0 48 -1 76t-9.5 67t-24.5 57q-4 0 -10 -1t-16 -11t-10 -27q-10 -72 -50 -146t-105.5 -167t-94.5 -143h-23q-21 25 -60.5 67.5t-63.5 72.5t-40 60q-51 54 -90 130 q-16 -30 -16 -62t8 -62.5t8 -39.5v-88q8 -16 8 -36.5t-4 -49.5t-4 -48q2 -12 12 -57t14 -69q4 -26 8 -64q2 -19 2 -36.5t-2 -33.5q-4 -32 -15 -61h-56q-23 0 -30.5 4t-34.5 31v65v185v69q-21 66 -21 285z" />
<glyph unicode="n" horiz-adv-x="929" d="M119 985q14 9 32 24t25.5 19t24.5 3.5t41 -11.5q44 -58 100.5 -149t95.5 -154.5t103 -132.5t139 -111q0 16 7 130q3 53 3 98q0 51 -4 91q-8 76 -39 136q0 59 -22 92q0 10 -16.5 48t-16.5 79l33 35h55q25 -37 46.5 -89t30.5 -78.5t30 -104t24 -87.5v-61q0 -23 6.5 -62.5 t6.5 -72t-13 -62.5v-133q0 -20 -21 -75t-40 -72q-10 -9 -22 -9h-4q-15 2 -32.5 12.5t-32 21.5t-24.5 20l-10 10q-217 157 -359 387v-33v-129q0 -58 1.5 -87.5t9.5 -75.5t26 -93h-37q0 -19 -2.5 -21.5t-21.5 -2.5h-33l-35 24q-19 33 -24 95q-3 34 -3 68q0 26 2 52q4 52 4 112 q-1 8 -1 16q0 68 -11 110q-22 58 -22 223z" />
<glyph unicode="o" horiz-adv-x="940" d="M44 803q4 33 14.5 61.5t23.5 50.5q0 15 -5 27t-5 17.5t10 13.5q0 4 1 10.5t9.5 17.5t24.5 11q1 2 14 27.5t15.5 29.5t15 26t17.5 27t18 22.5t21 22.5t22.5 16t27.5 14.5t30.5 7t35.5 3.5h108q85 -24 182.5 -132.5t168.5 -225.5q11 -60 11 -142q0 -44 -3 -94 q-9 -145 -49 -211q0 -17 -11.5 -36.5t-18.5 -27t-28 -28.5q-12 -13 -23 -33t-19.5 -29t-24.5 -9q-35 -13 -65 -15h-12q-24 0 -46 6q-28 8 -47 17.5t-45 25.5q-28 0 -37.5 4.5t-40.5 32.5q-44 20 -79.5 52t-67.5 85.5t-51.5 93.5t-53.5 117v62q-3 0 -6.5 1t-10 9t-6.5 23 q-15 13 -15 39q-1 5 0 10zM188 954l23 -233q28 -122 66 -186t135 -132q15 0 76.5 -33.5t80.5 -33.5l93 123q0 17 16 106.5t16 128.5q-13 62 -43 126t-74 123t-108 96.5t-135 37.5q-58 0 -146 -123z" />
<glyph unicode="p" horiz-adv-x="909" d="M26 547q-2 8 -2 20q0 25 9 72q20 49 20 110t-20 87v161q41 27 100.5 48t159 47.5t121.5 33.5q149 0 149 19q224 0 385 -125v-57q-10 -32 -31.5 -55t-53.5 -44t-40 -28q-21 -29 -127 -79t-438 -179q0 -16 -18.5 -24.5t-37.5 -9.5l-18 -1v-60v-69q0 -18 16.5 -98.5 t16.5 -90.5q0 -15 -8.5 -23t-16.5 -8l-8 -1q-11 -16 -17.5 -16t-17.5 8t-24 8q-35 32 -35 55v78q0 122 -31 157q0 7 -13.5 23.5t-19.5 40.5zM160 668h1h1h1h1h1h1h1h1h1h1h1h1h1h1h10q17 19 76.5 38t85.5 37q51 31 165 78t159 70q16 0 44.5 10.5t56.5 36.5t28 59 q-12 0 -72.5 11.5t-97.5 11.5l-246 -23q-25 0 -59.5 -13.5t-55 -24.5t-62.5 -38.5t-46 -29.5v-223z" />
<glyph unicode="q" horiz-adv-x="1126" d="M162 618v35q0 167 35 185q13 35 35 68.5t64 70.5t95.5 63.5t136.5 42.5q69 13 149 13h30q159 -41 221 -122.5t86 -258.5q0 -34 -44 -139.5t-44 -118.5q-25 -15 -29 -22t-4 -34q45 -106 121 -200l39 -62q34 0 34 -92h-73q-32 17 -64 52t-56 71.5t-59.5 80.5t-70.5 73 q-16 0 -25.5 -6t-10.5 -12l-1 -5q-113 -40 -156 -46q-19 -3 -37 -3q-43 0 -81 16q-89 23 -156.5 85.5t-99.5 135.5q-35 35 -35 129zM280 688q-2 -17 -2 -34q0 -44 13 -95q18 -18 34.5 -52t32.5 -50q49 -44 126 -63q33 -7 65 -7q43 0 84 14q15 14 34.5 24.5t29.5 16.5t10 15 q-19 17 -37.5 51t-36.5 51q-1 2 -8.5 12t-9.5 14.5t-7.5 15.5t-6.5 21t-1.5 24.5t3.5 31.5t11 37h56q25 -13 39.5 -28.5t16.5 -24.5l1 -9q0 -37 70 -94q29 22 43 50t14 77q17 49 17 89q0 18 -3 35q-12 53 -55 88t-102.5 52t-130.5 17q-24 0 -36.5 -1t-29.5 -6.5t-31 -17.5 q-50 -26 -90.5 -61.5t-73 -85.5t-39.5 -107z" />
<glyph unicode="r" horiz-adv-x="1116" d="M25 801v35q11 13 59 60t63 67q106 76 204 113.5t216 37.5q112 0 216 -23t128 -71q9 -26 9 -52q0 -18 -4 -37q-11 -45 -39 -65q-21 -25 -51 -48.5t-57 -40.5t-65.5 -35.5t-61.5 -28.5t-61.5 -25.5t-48.5 -19.5q-23 -9 -58 -26.5t-56.5 -24.5t-46.5 -7v-32q25 0 63.5 -16 t91 -44.5t64.5 -34.5q125 -55 198.5 -98.5t122.5 -95.5q20 -15 48 -29.5t46.5 -28.5t34.5 -38v-68q0 -9 -5 -14.5t-17.5 -7.5t-22 -2.5t-28.5 -0.5h-33q-10 11 -24 42t-33 51l-451 256q-21 -5 -38 -5q-21 0 -38 7q-31 13 -69.5 45t-73.5 47q0 -20 -7 -58t-7 -63.5t14 -40.5 q0 -16 8 -63t8 -89t-16 -73l-31 -31q-7 7 -20 18t-19 17.5t-11 23t-5 41.5v64q-25 55 -30 121q-2 26 -2 49q1 36 5 66q8 50 17.5 114.5t9.5 103.5q-11 5 -40 13t-42.5 17.5t-13.5 27.5zM227 766v-5q0 -40 15 -56q25 18 62.5 27t59 10t62.5 1q6 3 67.5 35.5t87.5 47.5 t74.5 43t80 51t52.5 43q-19 17 -56.5 24.5t-72.5 8.5t-127 1q-24 -11 -94.5 -34t-125 -47t-70.5 -50q-4 -14 -9 -35t-6 -65z" />
<glyph unicode="s" d="M20 881v90q7 0 23 17.5t39 17.5h37q79 53 180 94q20 11 44 26t37 23t33.5 14t43.5 6t33.5 1.5t20 9.5t9.5 26q43 0 62 -0.5t52 -4t50.5 -10t37 -20.5t30.5 -34q0 -23 -1.5 -33t-10 -18.5t-27.5 -8.5q-5 -30 -20.5 -36t-32.5 3.5t-38.5 21t-31.5 11.5q-53 0 -111.5 -24 t-125 -58.5t-111.5 -48.5q-13 -11 -32.5 -21.5t-27.5 -19t-8 -24.5q15 -18 42 -27t49.5 -10.5t68.5 -1.5q48 -12 123 -18t139 -8t132 -12.5t114 -31t72 -66.5q19 -34 18 -81q0 -17 -2 -35q0 -12 -7 -19.5t-22.5 -18t-26.5 -24.5q-3 -2 -21.5 -11t-25 -12t-26.5 -13 t-32.5 -15t-37 -14.5t-45 -16.5t-51 -17.5t-61 -19t-69.5 -19t-81 -21.5h-33q-43 -19 -95.5 -28.5t-85.5 -11t-91 -1.5q0 18 -9.5 28.5t-18.5 11.5l-9 1q-25 31 -25 52q0 42 98 44q26 0 74 -3q25 -1 33 -1q104 21 166 35.5t145 39.5t140 54q21 0 32 1t27.5 6.5t24.5 20.5 t8 39h37h-37q-15 15 -43 23t-50 9t-65 1h-57q-45 10 -146 21t-186 27.5t-139 45.5q-25 0 -53 30.5t-46 66.5z" />
<glyph unicode="t" horiz-adv-x="927" d="M-94 1241v23q29 16 82.5 16t117 -8t82.5 -8h387q41 0 62.5 1t59 9.5t63.5 25.5h160q42 0 53.5 -4.5t38.5 -31.5q5 -14 5 -25q1 -24 -19 -43q-28 -27 -78 -27q-184 -14 -294.5 -20t-209.5 -14q-22 -111 -28.5 -205t-6.5 -238v-123q16 -36 24.5 -85t9.5 -82.5t1 -94.5v-131 q0 -20 -4 -23t-31 -3h-23q-29 20 -37.5 28t-31.5 37q0 117 -1.5 176.5t-9.5 151.5t-26 184q0 64 18.5 193t18.5 190q-28 19 -36 22t-30 3q0 -11 -16.5 -11t-44.5 5.5t-39 5.5q-39 -10 -74 -12h-14q-28 0 -55 6q-34 8 -54 36.5t-20 75.5z" />
<glyph unicode="u" horiz-adv-x="980" d="M109 930v94q0 4 0.5 10t8.5 16.5t23 10.5h35l25 -37q0 -29 16 -93t16 -91v-92q42 -168 65 -227q76 -202 219 -225q19 -3 40 -3q17 0 23.5 4.5t33.5 32.5q60 29 99 85.5t57.5 132.5t27.5 147.5t18.5 162t21.5 143.5q0 35 -10.5 89.5t-10.5 58.5q8 0 22 18.5t33 18.5h68 q12 -18 18 -44q6 -22 6 -54v-10q-1 -38 -4.5 -72t-14 -92t-19.5 -103t-25.5 -125t-28.5 -139q-27 -125 -95.5 -230.5t-162.5 -156.5q-22 0 -33 -1t-27 -8t-34 -22q-22 0 -72 34t-86 66q-94 73 -144 169.5t-77 244.5z" />
<glyph unicode="v" d="M113 993q17 0 32.5 9.5t30.5 9.5h25q31 -40 47 -75.5t31.5 -91t27.5 -87.5q6 -22 16 -47t18 -43t26 -50.5t25.5 -44.5t31 -50.5t27.5 -45.5q12 -11 25 -45.5t31.5 -58t51.5 -23.5q21 24 92 156q20 43 86 175.5t97 205.5q0 25 7.5 49.5t12.5 35t24 41t23 36.5q0 71 23 96 q0 15 8 23t16 9l8 1h78q0 -16 12.5 -45.5t12.5 -47.5l-225 -475l-125 -260l-58 -102q-14 -8 -36.5 -59t-55.5 -74q-20 8 -37 18.5t-29.5 20.5t-24.5 27t-19 28t-16 33t-13.5 33.5t-13.5 37.5t-13 37l-217 408q-3 6 -15 34t-15.5 36.5t-12 33t-11.5 40.5t-6 40.5t-3 50.5z " />
<glyph unicode="w" horiz-adv-x="1363" d="M33 881q0 4 1 9.5t9.5 15t24.5 9.5h71q6 -23 14.5 -63.5t17.5 -71t26 -61.5v-37q62 -274 192 -442q13 17 28.5 56.5t31.5 70.5q39 75 73.5 176.5t56.5 179.5t63 167.5t95 153.5q0 -16 7.5 -25t15.5 -10l8 -1v-68q15 -30 29.5 -108t29.5 -113q60 -141 109 -237t111 -181 q60 55 99 181.5t66 361.5q0 96 35 200l90 23q35 0 35 -23q0 -19 -17.5 -53.5t-17.5 -50.5v-133q-20 -65 -40 -161.5t-33.5 -163t-44.5 -144t-76 -133.5q0 -26 -16 -65t-40 -64h-40l-150 196q-16 26 -31.5 60.5t-39.5 93.5t-29 72q-13 14 -43.5 93t-48.5 91v-23 q-12 -32 -44.5 -121.5t-51.5 -136t-51 -119t-67.5 -130.5t-76.5 -109q0 -9 -6 -14t-12 -5l-7 -1q-25 15 -33 21t-34 32l-31 69q0 23 -18 63.5t-42 63.5q-17 46 -54.5 136t-59.5 146.5t-47 146.5t-37 180z" />
<glyph unicode="x" horiz-adv-x="1075" d="M147 266l103 129l252 289q-39 32 -103 114.5t-92 110.5l-37 35l-88 123l-35 129q0 13 8.5 20t17.5 8l9 1h68q19 -27 38 -68t19 -65q36 -32 82 -94t76 -89q11 -11 32.5 -40t45.5 -53t57 -40q25 49 49 83t74 85q114 171 215 252h37q18 0 33 -17.5t28 -17.5 q-42 -76 -169 -232.5t-181 -244.5q100 -76 223 -231q6 -4 36.5 -24t47.5 -36.5t17 -32.5q12 -15 12 -30.5t-6 -34.5t-6 -29q0 -29 -9 -34t-63 -5l-55 70l-283 285q-65 -44 -98 -93q-35 -57 -158 -192q-32 -60 -61.5 -91.5t-67.5 -31.5q0 2 -1 5t-9 8.5t-23 5.5 q-35 34 -35 73z" />
<glyph unicode="y" horiz-adv-x="733" d="M34 -77q7 40 21.5 76.5t28.5 73t14 46.5q31 69 135.5 252t188.5 350q-29 18 -54.5 40.5t-52 54.5t-45.5 57t-52 71t-54 74l-35 55q-23 51 -23 71t23 91h64q27 -27 48 -65.5t21 -65.5q42 -49 83 -110t75.5 -100.5t93.5 -78.5q16 62 42.5 123t49 101t60.5 102 q10 7 21.5 24.5t20.5 32t31 26t54 11.5l34 -131q-10 -9 -20.5 -22.5t-34.5 -52t-53 -86.5t-94.5 -154t-141.5 -226l-61 -94q-19 -75 -99 -203t-96 -182q-14 -29 -24 -81t-18.5 -91t-20.5 -47q-16 0 -24.5 -9.5t-9.5 -18.5l-1 -9h-31q-16 0 -30.5 9t-20.5 19l-6 9 q-9 12 -9 34q0 11 2 24z" />
<glyph unicode="z" horiz-adv-x="1353" d="M117 332q0 19 6 39t13.5 36t24 37t26.5 32.5t33 33t31.5 28.5t33 28t28.5 24q26 33 90.5 96.5t94.5 101.5l321 347v36q-70 19 -228.5 25.5t-187.5 9.5q-26 0 -38.5 31.5t4.5 54.5q0 16 8.5 25.5t16.5 10.5l9 1l347 -37q26 0 49.5 -2t48.5 -7.5t45 -14.5t37 -24.5t25 -35 t7.5 -47t-12.5 -61.5q0 -27 -22.5 -59.5t-58.5 -72t-50 -59.5l-506 -508q70 -15 146 -15h5q79 0 152 10t232 28t319 31q7 0 37.5 7t52.5 2.5t39 -28.5q33 -34 33 -71q-11 -11 -23 -28t-20.5 -23.5t-25.5 -6.5h-310q-60 0 -180 -21q-118 -22 -220 -40q-89 -16 -189 -16h-27 q-114 2 -182 42q0 19 -17.5 34t-17.5 26z" />
<glyph unicode="{" horiz-adv-x="733" d="M78 776q7 15 15 31.5t11 24t8 15t10.5 9.5t14.5 2h56q13 14 28 63.5t30 115t19 79.5q8 27 13.5 71.5t10.5 78t16.5 66.5t37.5 51t68 18h80q52 -23 81.5 -79.5t16.5 -121.5q-25 -17 -64.5 -17t-54.5 17q0 20 -1 31t-8 27.5t-22 31.5q0 -8 -3.5 -17t-12 -31.5t-20 -58.5 t-31.5 -113.5t-43 -180.5q0 -25 -32 -69.5t-32 -74.5q28 -24 43.5 -57t29 -90t22.5 -82l79 -192l82 59h35q24 0 37.5 -17t13.5 -42q22 -14 10.5 -35t-28.5 -21q-25 -48 -82.5 -57.5t-124.5 27.5q-30 24 -55.5 64t-39.5 71t-37.5 91.5t-33.5 84.5q0 40 -0.5 57.5t-7 44 t-20.5 41.5q-33 33 -33 53q-51 0 -82 31z" />
<glyph unicode="|" horiz-adv-x="413" d="M140 963.5q0 70.5 14 121.5v287q0 17 -7 51t-7 57.5t14 37.5v20q34 0 54.5 -10t27.5 -10q30 -31 30 -66v-80v-713v-77v-84v-84q0 -59 29 -90v-56v-141q0 -23 -3.5 -27t-25.5 -4h-30q-12 16 -40 31.5t-42 30.5v47v33v67v162v192q0 49 -7 141.5t-7 163z" />
<glyph unicode="}" horiz-adv-x="651" d="M109 1260q12 15 24.5 39t26.5 40q0 15 15.5 23.5t48 18t52.5 20.5q35 0 82 -62v-79v-289q6 -16 14.5 -44t13 -39t13 -25.5t20.5 -19.5t30 -5q0 14 10.5 17t38.5 3q14 -9 29.5 -31t31.5 -22q0 -30 -14.5 -58.5t-14.5 -54.5q-61 -6 -72.5 -35t9.5 -108v-244 q-15 -55 -53 -101t-80 -46q-56 0 -107 31.5t-76 70.5t-18 64q4 13 10.5 20.5t21 18t25.5 20.5h52v-29q0 -14 8.5 -26t17.5 -18l8 -5q8 5 21.5 11t20 9t11.5 10.5t5 18.5v80v197q-12 27 -12 50t6 41t6 23q-48 50 -77 129t-15 156v31v229q-7 -11 -14.5 -35.5t-15.5 -39.5 t-22 -15q-23 -19 -52 -0.5t-29 60.5z" />
<glyph unicode="~" horiz-adv-x="1095" d="M109 621q-14 25 9 73t63.5 85.5t70.5 37.5q50 -12 109 -37t106 -50.5t104.5 -53t105 -44t108 -22.5t112.5 11q12 22 13.5 53.5t2.5 57t13 38.5l82 47q66 -61 0 -225q0 -19 -1 -27.5t-8 -16t-22 -7.5q-22 -22 -41.5 -26.5t-67.5 -4.5q-30 -22 -72 -26t-85 9t-80 29.5 t-72 38.5q-63 11 -150.5 55.5t-138.5 57.5q-18 -20 -49 -53v-29q-10 0 -24 -9t-23 -16.5t-19 -3t-16 28.5q-23 0 -26.5 3.5t-3.5 25.5z" />
<glyph unicode="&#xa1;" horiz-adv-x="546" d="M155 933.5q0 33.5 25 33.5q3 20 11.5 25.5t21 -1.5t26 -17t29.5 -21.5t27 -14.5v-33q-15 -9 -31.5 -30t-32.5 -21h-3h-3h-3h-3h-3h-7q0 14 -7.5 21.5t-14.5 8.5l-7 1q-25 15 -25 48.5zM171.5 579.5q12.5 110.5 37.5 161.5h51q35 -29 35 -227v-342v-78v-84q9 -31 9 -109 t9 -120q0 -62 31 -113q37 6 0 -137l-2 -11q0 1 2 5h-49q-35 33 -64 53v90q0 138 -22 252q-2 21 -11 105.5t-13.5 146t-4.5 119.5v110q-21 68 -8.5 178.5z" />
<glyph unicode="&#xa6;" horiz-adv-x="438" d="M92 952q16 48 16 117t-8 152.5t-8 117.5h35h78q14 -23 21.5 -71t8.5 -83.5t1 -99.5v-196q0 -23 -18 -34.5t-32 3.5q-26 14 -41 29.5t-28 34t-25 30.5zM156 127v141q0 44 15 146.5t15 134.5q0 21 -7 45t-7 38t14 27h50q24 0 43.5 -17t19.5 -36v-90v-211v-178 q0 -15 -10 -22t-20.5 -8t-32.5 -1q0 31 -80 31z" />
<glyph unicode="&#xa9;" horiz-adv-x="1343" d="M86 641v84q18 17 34.5 69.5t31.5 75.5q8 11 21 52.5t30 60.5q40 93 141 143l82 31l254 84q151 0 282.5 -61t188.5 -166q54 -54 90 -115q0 -10 11.5 -58.5t11.5 -84.5l28 -146q-16 -27 -28.5 -98t-22.5 -96q-20 -35 -69.5 -91.5t-98.5 -103.5q-16 -15 -58 -30.5t-59 -32.5 q-38 -38 -127.5 -63.5t-257.5 -47.5q-50 0 -101.5 17.5t-76.5 41.5q-158 71 -241 259q0 22 -33 134.5t-33 141.5zM203 676q0 -68 17.5 -153.5t39.5 -106.5q36 -79 80 -126.5t115 -99.5q78 -35 208 -2t242 88q72 49 137 126.5t88 158.5q21 33 21 80v84v94q-19 40 -42.5 72 t-56 61t-56.5 47t-68 48q-11 0 -24.5 10t-29.5 10h-61q-24 0 -69.5 12t-83 12t-68.5 -24q-20 0 -57.5 -15.5t-49.5 -37.5q-45 -14 -79.5 -39.5t-52.5 -50t-43.5 -55.5t-49.5 -50q-17 -18 -31.5 -70t-25.5 -73zM375 707q14 64 84 146t133 95q16 18 57.5 34.5t52.5 31.5 q35 0 93 -66v-49q0 -3 -1 -8t-8.5 -13t-21.5 -8q-3 3 -9 7t-22.5 5t-30.5 -12q-57 -35 -131 -104.5t-86 -124.5q0 -32 9 -58.5t21.5 -41.5t25 -25.5t21.5 -13.5l9 -4h52q80 0 110 30q16 9 35.5 23t28.5 18.5t28.5 3.5t48.5 -12q0 -10 7 -31t7 -41.5t-14 -44.5 q-21 0 -31 -0.5t-25 -7.5t-23 -20q-14 0 -29.5 -8t-23.5 -16l-9 -7q-63 -14 -131.5 -3.5t-97.5 34.5q-36 21 -60.5 46.5t-50.5 65.5q0 9 -9 66t-9 113z" />
<glyph unicode="&#xab;" horiz-adv-x="1146" d="M27 584v32q0 32 29 71.5t71.5 76.5t86 73t78.5 73t42 65q14 28 39.5 87t42.5 91h67q14 -46 16.5 -60.5t2.5 -54.5q-4 -7 -20.5 -41t-33 -61t-32.5 -41l-256 -279q22 -22 33.5 -32.5t28.5 -20.5t32 -10q117 -108 229 -131q14 -5 46 -15t46 -17t33.5 -21.5t27 -37 t7.5 -55.5l-31 -30q-35 0 -62.5 15.5t-54.5 38.5t-44 32q-15 7 -63.5 27t-79.5 34.5t-54 28.5q-67 53 -110 79t-58 30t-37 4q-17 13 -19.5 19t-2.5 30zM493.5 698q-0.5 28 10 65.5t33 76t65 83t100.5 85.5q9 11 36.5 54.5t45.5 61.5h31q8 0 14 -8t16.5 -22.5t24.5 -24.5v-31 q0 -29 -55 -84q-62 -60 -203 -223l31 -29q29 -12 94 -30t122 -39t93 -49l172 -78l-32 -84l-140 53q-223 59 -340 109q-10 18 -52.5 33.5t-57.5 29.5q-8 23 -8.5 51z" />
<glyph unicode="&#xad;" horiz-adv-x="739" d="M104 647l21 21q63 0 106.5 -12.5t98.5 -39.5h80h57q29 -17 73 -16t68 -16q24 0 53 -28t29 -50l-24 -31q-11 -15 -38 -15t-61 7.5t-43 7.5q-42 16 -142.5 31t-143.5 29q-15 3 -43.5 7t-39.5 7.5t-26 14t-20 30.5t-5 53z" />
<glyph unicode="&#xae;" horiz-adv-x="1312" d="M112 486q-10 119 16 229t81 205.5t127 146.5q2 2 6.5 6t17.5 12.5t25.5 13.5t29.5 5.5t31 -8.5l29 -29q38 20 63.5 24.5t69.5 4.5q17 16 48 15t46 15q132 0 162 -30q55 -13 128 -74t127 -124.5t83 -111.5q32 -103 23 -195.5t-41 -169t-86.5 -139.5t-113 -106.5 t-120.5 -69.5q-11 -11 -26 -21.5t-20 -17.5t-5 -20q-16 0 -81 -5.5t-120 -5.5t-82 11q-105 23 -201.5 83t-154.5 146q-52 91 -62 210zM226.5 623q-16.5 -129 27.5 -238q11 -60 59.5 -107t118.5 -71.5t154.5 -31.5t167.5 15q16 18 57.5 47t52.5 39q53 26 80 41t58.5 40.5 t51.5 58.5t38 82q0 11 14 40t21 51t-5 52q-59 160 -139 229q-9 8 -21 17t-17 13t-9 11.5t-4 18.5l-150 53q-18 12 -46.5 8t-51.5 -13.5t-50 -19.5t-42 -10h-33q25 -14 31 -16t18 -2q25 14 74.5 14t71.5 -14q23 -9 50.5 -14.5t40 -8.5t27.5 -19t27 -48v-54 q-25 -58 -109 -129.5t-149 -95.5h31q43 -28 126.5 -50t133.5 -13q6 -7 19 -36.5t32 -45.5v-51q-15 -22 -90 0t-167.5 53t-133.5 26q0 -25 7 -57t13.5 -55t6.5 -53t-11 -58q0 -31 -16 -31h-33q-8 9 -27 22t-26.5 26t-7.5 38v58q-24 76 -36 188t-14 192.5t-2 215.5 q-14 0 -21.5 -7.5t-15.5 -25.5t-14 -27q-88 0 -88 -30q-64 -88 -80.5 -217zM559 641q6 5 49 33t69 47t51.5 47.5t25.5 50.5q-21 16 -85.5 3.5t-76.5 -36.5q-4 0 -9.5 -0.5t-14.5 -8t-9 -21.5v-115z" />
<glyph unicode="&#xb1;" horiz-adv-x="919" d="M119 705v34v31q47 0 118 10.5t111 10.5q13 12 13 34.5t-6.5 56t-6.5 50.5q12 0 13 15.5t2.5 37t13.5 31.5v1v1v1v1v1v1v1v1v1v1v1v1v1v1v1v1v1v1v1v9h29h53q22 -57 26 -94t4 -133h31h80h53q21 0 32.5 -0.5t32 -1.5t32 -4t24.5 -8t19 -13.5t6 -19.5q24 -30 24 -65 q-11 0 -25 -15.5t-32 -15.5h-51q-27 14 -62.5 14t-76.5 -7t-56 -7h-31q55 -145 31 -228l-31 -18q-46 0 -79 33t-33 80v51v6.5t-1.5 15t-4.5 18.5t-9 14.5t-14 6.5h-119q-110 0 -110 52zM167 226.5q0 7.5 7 15.5l6 8q0 30 13 38t46 11.5t58 15.5l465 23q0 -6 16.5 -44 t16.5 -75q-25 -9 -47.5 -9t-40.5 4.5t-23 4.5h-92h-23q-48 -7 -111.5 -20.5t-118 -21t-128.5 -7.5q0 16 -15.5 28t-15.5 21q-13 0 -13 7.5z" />
<glyph unicode="&#xb5;" horiz-adv-x="909" d="M113 -393q23 21 26.5 32t3.5 58q0 17 -7 53.5t-7 72.5t14 73v81v230v192v179q20 38 26.5 100.5t10.5 112t17 63.5q30 29 57 29q15 -22 21.5 -28.5t29.5 -25.5v-59q0 -17 -15.5 -29.5t-15.5 -21.5v-90v-86q0 -15 -10 -72t-10 -72q12 -29 69.5 -91t63.5 -72q11 0 43.5 -20 t69 -35t63.5 -5q33 31 33 60q3 4 20.5 25.5t24 39.5t6.5 47v82v309v144h29h49q0 -13 8 -20.5t26 -16t29 -17.5v-59l-30 -455l-33 -139q-9 -25 -18 -42.5t-23.5 -37t-37 -29.5t-50.5 -10q-20 -6 -41 -6t-39 4.5t-39 13t-36.5 16.5t-37 19t-34.5 17q-7 7 -24 26.5t-27.5 30 t-28 20t-35.5 9.5l20 -281v-61v-230q0 -5 1 -19.5t1 -25.5t-1 -26t-6 -25t-13 -17t-23 -6.5t-36 9.5q-12 12 -35 23.5t-36 24t-13 34.5z" />
<glyph unicode="&#xbb;" d="M73 337.5q0 30.5 23 53.5q36 23 65 52t63.5 71t62.5 70q65 69 149 147q1 3 7 17t7.5 19t6 18t6 19.5t4 18.5t2.5 19.5t-0.5 17.5t-3.5 18.5t-8 16.5l-230 199q-10 6 -27 15t-24 14t-16 15.5t-12 25.5t-3 38v33q4 0 9.5 1t14.5 8.5t9 21.5q19 0 27.5 -1t15 -8t6.5 -22 q17 0 33 -22t27 -29q37 -43 124 -99t138 -110q31 -58 35 -115t-10.5 -100t-48.5 -91t-65.5 -80t-75.5 -76t-67 -71q-20 -8 -48 -50t-52 -79t-39 -37q-10 0 -26.5 -5.5t-26 -8t-18 7.5t-11.5 37q-23 0 -23 30.5zM383 1223q-11 25 16 43h37q19 0 37 -3t29 -5.5t27.5 -11.5 l22 -12t24 -16t22.5 -16q33 -24 153 -98.5t183 -128.5q27 -18 63 -49q11 -19 15.5 -28.5t12 -32t5 -48t-13.5 -55.5q-21 -57 -71.5 -116t-114 -110t-127.5 -101t-125 -108.5t-93 -113.5h-1h-1h-1h-1h-1h-1h-1h-1h-1h-1h-1h-1h-1h-1h-1h-1h-1h-1h-1h-9q-14 23 -17.5 47.5 t-3.5 71.5q85 156 242 221q13 14 28.5 46t32.5 48q48 19 106 80.5t58 118.5q-15 13 -17.5 19.5t-2.5 29.5q-26 11 -64 42.5t-73 53t-68 17.5l-221 145q-12 0 -37.5 22.5t-36.5 47.5z" />
<glyph unicode="&#xbf;" horiz-adv-x="765" d="M70.5 -137.5q7.5 67.5 29 118t57.5 106t69.5 98.5t65.5 95t46 95q18 35 18 227q-18 31 -18 113l18 30h31q11 -12 28.5 -22t26.5 -18t9 -23q11 -10 11 -51.5t11 -59.5q17 -74 17.5 -130.5t-18 -112t-44 -97.5t-60 -87.5t-65.5 -81.5t-60.5 -79.5t-45.5 -82.5 q-18 -50 -17 -104t19 -97.5t49.5 -77t74.5 -43.5t93 4q51 0 100 25.5t49 68.5l131 -32q0 -27 -14 -54.5t-35 -27.5q-48 -43 -106.5 -66t-116 -26t-113.5 12.5t-101.5 48t-78.5 83.5t-45 114q-23 67 -15.5 134.5zM307 973v51q3 0 8.5 1t14 9t8.5 23q8 0 20 -8.5t20 -16.5 l9 -8q22 -15 25.5 -25.5t3.5 -56.5q0 -12 -4.5 -19t-14.5 -10t-18 -3.5t-23 -0.5q-7 14 -28 30.5t-21 33.5z" />
<glyph unicode="&#xc0;" horiz-adv-x="1136" d="M82 268v51q97 174 182.5 318.5t125 210.5t71 114.5t39.5 77t10.5 49t1.5 76.5l47 62h33h31q9 -12 24 -22t24 -18t9 -22q0 -11 -17.5 -39t-17.5 -43l66 -149l110 -272q7 -16 32.5 -77t35.5 -83.5t31 -67t43 -84.5q6 -16 26 -48.5t34.5 -58.5t24.5 -69.5t-4 -81.5h-3h-3h-3 h-3h-3h-3h-3h-3h-8h-29q-8 12 -36 33.5t-46 52.5q-29 67 -54 127t-35 86t-20 48.5t-15.5 30.5t-14.5 15h-117q-51 13 -93 13t-101.5 -6.5t-110.5 -6.5q-111 -183 -145 -307q0 -12 -8 -17.5t-15.5 -6t-28.5 -0.5q-5 4 -21 15t-21.5 18t-12 28t-6.5 53zM443 688q-8 -22 8 -26 q22 0 45.5 -1t39 -2.5t44.5 -6t39.5 -6.5t46.5 -8.5t45 -8.5v33q-14 0 -21.5 9t-8.5 17.5t-1 24.5q0 13 -22 63.5t-44 94.5l-22 44q-27 -26 -46.5 -61t-37.5 -79.5t-27 -61.5q-23 0 -38 -25zM680 1423q0 15 0.5 23t3 19t9.5 15.5t18 4.5q28 11 72.5 61.5t68.5 69.5 q27 21 92 68t100 77h33q3 -4 33 -41t47 -73q-157 -96 -223 -162q-24 -12 -56.5 -42t-61 -51.5t-54.5 -21.5q-12 0 -24.5 10.5t-26.5 10.5q0 4 -1 9t-8.5 14t-21.5 9z" />
<glyph unicode="&#xc1;" d="M92 268q19 56 110 348t146 437q34 189 111 256h51q18 -20 49 -65.5t33 -47.5q29 -58 57 -172t53 -168l31 -115q18 -24 31 -42.5t23.5 -38.5t16 -30.5t12.5 -33t9.5 -30t10 -38.5t10.5 -43l112 -362q0 -14 -8 -21.5t-16 -8.5l-8 -1q-22 0 -41.5 15t-39.5 39.5t-28 31.5v90 q-29 56 -71.5 169.5t-63.5 160.5q-186 64 -334 64q-34 -63 -63.5 -178t-51.5 -165q0 -110 -59 -141q-23 23 -29.5 27t-21.5 4q-31 30 -31 59zM201 1825q0 2 0.5 5.5t8.5 9t23 5.5v31q44 -27 80.5 -62t114.5 -135q14 -15 21.5 -30t15 -41.5t12.5 -40.5q0 -17 16.5 -32.5 t16.5 -29.5q-15 0 -23 -5t-9 -10l-1 -5h-18q0 9 -7.5 14t-15.5 5l-8 1l-29 62l-145 164q-6 10 -21.5 22.5t-23.5 28t-8 43.5zM399 805q31 0 99.5 -16.5t93.5 -16.5q0 79 -51 162q-15 31 -22 58t-8 43t-1 48h-33z" />
<glyph unicode="&#xc2;" horiz-adv-x="950" d="M123 209v59q18 47 31.5 133.5t19.5 112.5q17 43 33.5 144.5t32.5 146.5q23 65 46.5 181t35.5 157v166q14 0 21.5 7t8.5 14v7q23 0 66.5 -14t75.5 -14q7 -20 19.5 -85t29.5 -112q20 -28 38.5 -82t31.5 -99.5t40 -91.5t64 -67q10 15 23.5 15t31.5 -7.5t29 -7.5 q0 -16 15 -44t15 -38l-30 -28h-62v-33q31 0 31 -49q41 -55 80 -179q0 -12 16.5 -44.5t16.5 -65.5q13 -11 20 -36t7.5 -43.5t0.5 -57.5q-23 0 -33 3t-47 21q-17 17 -32 36.5t-29 45t-19.5 37t-19.5 43.5l-14 31v63q0 14 -15.5 39.5t-15.5 40.5q-5 11 -12 31t-10.5 29 t-11.5 22t-17.5 18.5t-25 10t-36.5 4.5q-31 -31 -221 -31q-23 0 -26.5 -2t-3.5 -16v-95q-17 -29 -45 -125t-37 -120q0 -7 2.5 -21t3.5 -25t-1 -24.5t-11.5 -25.5t-26.5 -21h-53q0 15 -15.5 43t-15.5 43zM174 1505q13 25 30.5 50.5t26.5 39t9 21.5q11 11 31.5 48.5t50.5 66.5 q13 13 29.5 42t29 50.5t20.5 21.5h64q35 -15 102 -83.5t92 -114.5l80 -80q0 -15 15.5 -35t15.5 -47h-31q-17 -24 -23.5 -27.5t-29.5 -3.5q0 17 -13.5 29.5t-13.5 21.5q-25 22 -31.5 29.5t-21.5 32.5q-15 14 -46.5 39t-47.5 41q0 15 -12 30t-24 23l-11 8q-17 -15 -33 -46 t-31 -46q0 -30 -49 -82q-8 -8 -22 -31.5t-33.5 -36t-56.5 -12.5q0 22 -20 36.5t-46 14.5zM352 741h49h172v31q-3 5 -108 197q0 114 -33 114z" />
<glyph unicode="&#xc3;" horiz-adv-x="1003" d="M92 1534q-11 40 0 78t37.5 67t52 48.5t51.5 33.5q51 0 80 33q103 -42 166 -197q0 -14 7.5 -29.5t15.5 -24.5l8 -9q15 17 27.5 101.5t23.5 95.5h60q5 -4 16.5 -11.5t15.5 -11t9.5 -12t7.5 -20t2 -29.5q-21 -20 -29 -78.5t-17.5 -117.5t-35.5 -81q-34 -22 -57 0t-23 53h-64 v62q-19 0 -35 20.5t-16 61.5q-12 12 -21.5 33.5t-17 34t-20.5 12.5q-10 15 -23 15t-21 -8l-7 -7q-32 -19 -45.5 -31t-25 -39.5t-11.5 -71.5l-29 -20h-29q0 9 -6.5 14.5t-21 14.5t-25.5 20zM139.5 366q10.5 81 34.5 148l139 569q10 25 23 83t29 91q0 52 30 80 q24 -23 30.5 -30t20.5 -31q64 0 64 -19v-30q18 -45 32 -78.5t28.5 -66t22.5 -50t24.5 -49t23 -44t29 -54t32.5 -60.5q0 -9 8 -14t16 -5l9 -1q13 0 20 -8t14.5 -27.5t12.5 -28.5q0 -13 -4.5 -25.5t-9.5 -19.5l-4 -6q26 -87 82 -143l51 -176q0 -19 7 -36t7 -30.5t-14 -36.5 q0 -21 -2 -24.5t-16 -3.5h-33l-64 161q-3 41 -53.5 141.5t-56.5 147.5h-133l-254 -61q-17 -46 -31 -163t-21 -147q-12 -19 -15 -49t-10.5 -45.5t-33.5 -15.5q-7 7 -10 13t-4 9t-0.5 5t-0.5 3t-3.5 1h-10.5q-16 45 -5.5 126zM336 772l254 33q-15 42 -55.5 124.5t-55.5 123.5 q0 25 -19.5 68.5t-33.5 43.5q0 -53 -31 -112q-23 -39 -41 -127.5t-18 -153.5z" />
<glyph unicode="&#xc4;" horiz-adv-x="897" d="M45 154q0 55 33 86q63 333 254 729v63l53 164q15 -16 54 -16t55 -15q31 -33 190.5 -501t149.5 -510q47 -47 0 -91q0 -18 -6.5 -21t-45.5 -3v3v3v3v3v3v9q-62 62 -92 115q0 104 -35 196.5t-80 139.5h-20q-41 15 -90.5 15t-99.5 -7.5t-64 -7.5q-29 -54 -51 -108t-33.5 -91 t-30.5 -106q0 -87 -28 -117q0 -13 -8 -20t-16 -8l-7 -1q-21 34 -82 91zM217 1454v31h23h92q17 -23 19.5 -30.5t2.5 -31.5q0 -16 -1 -23t-5.5 -15.5t-16 -11.5t-30.5 -3q-6 3 -23 12t-24 14.5t-18 20.5t-19 37zM354 662h172l29 28q-27 22 -50.5 71.5t-40 97t-22.5 56.5 q-6 -18 -47 -112t-41 -141zM526 1423q0 21 1 31t7.5 20.5t20.5 10.5l20 20l29 -20q2 -2 9.5 -9t9.5 -9.5t8.5 -9t8.5 -9.5t7.5 -9t7.5 -9.5t5 -9t4.5 -10t2.5 -9.5t1 -10q-25 -15 -29 -22t-4 -32h-60q-7 11 -21 28t-21 30t-7 28z" />
<glyph unicode="&#xc5;" horiz-adv-x="919" d="M51 92q0 16 15.5 45t15.5 41l131 484l61 307q10 39 14.5 115t18 132.5t49.5 92.5q22 0 29.5 -4t32.5 -29q16 0 22 -2t31 -17q12 -12 23.5 -47t41 -117t76.5 -178q7 -21 12.5 -48.5t8.5 -41.5t12.5 -28t29 -19.5t52.5 -5.5q0 -13 14.5 -47.5t14.5 -62.5q-20 0 -30 -1 t-20 -9t-10 -23q8 -43 33.5 -101t50.5 -105t48 -105t26.5 -101.5t-14.5 -93.5q0 -11 -5 -13t-11.5 1.5t-11.5 7.5l-5 4q-17 17 -42 30.5t-38 24.5v90q-19 49 -54.5 111.5t-59 114.5t-29.5 104h-49q-17 4 -113 -1.5t-119 1.5v-84l-59 -274l-51 -148v-53q-15 0 -23 -7.5 t-9 -14.5l-1 -7q-19 0 -29 1t-19.5 7.5t-9.5 20.5q-16 0 -33.5 16.5t-17.5 36.5zM230 1600.5q0 19.5 7 43.5t7 35q5 5 43 50t69 65q61 31 84 31q108 0 172 -117q14 -14 21.5 -31t8.5 -28.5t1 -32.5q0 -7 -15.5 -35.5t-15.5 -46.5q-10 -10 -20.5 -32t-22.5 -35t-34 -13 q0 -11 -5 -18t-16 -9.5t-19 -3t-24 -0.5q-101 -23 -164 26t-63 118q-14 14 -14 33.5zM326 741h59q15 -13 43.5 -13t63 6.5t43.5 6.5q0 82 -64 146q-16 24 -29 90t-24 76h-33q0 -93 -59 -312zM356 1567q0 -4 1 -9.5t8 -14.5t20 -9q43 0 96.5 38.5t53.5 74.5q0 15 -8.5 23 t-26.5 17.5t-29 20.5q-21 -24 -51.5 -43t-47 -33t-16.5 -35v-30z" />
<glyph unicode="&#xc7;" horiz-adv-x="817" d="M82.5 558q-6.5 74 19.5 151q27 53 68.5 111t94 115.5t114.5 94.5t117 37q34 0 49 -0.5t33.5 -5t33.5 -14.5h19q5 -9 30 -52.5t39.5 -70.5t28.5 -67t14 -69q-15 -21 -21 -24.5t-28 -3.5q-16 0 -24 1t-18.5 6t-15.5 18t-5 34v53q-46 80 -113 80h-22q-58 0 -78 -18l-33 -31 q-91 -70 -140.5 -163t-49.5 -238q0 -61 118 -185q40 -42 114.5 -80.5t129.5 -56.5l55 -18q10 15 54 47t57 47h20q8 -9 26.5 -23.5t26 -28.5t7.5 -42v-23q-26 -24 -57.5 -42.5t-51.5 -18.5q-82 0 -82 -31q-14 -23 -14 -43t7 -45t7 -43q0 -31 12.5 -80.5t16.5 -81t-10 -98.5 h-49q0 16 -32 30.5t-32 28.5q-11 12 -11 39.5t-11 44.5v279q-26 0 -45.5 8t-47 25.5t-49.5 27.5q-45 27 -88.5 66.5t-85.5 95.5t-66.5 119.5t-31 137.5z" />
<glyph unicode="&#xc8;" horiz-adv-x="919" d="M103 292q0 62 11 144t11 119v90q26 8 41 57.5t26.5 122t22.5 101.5q0 11 -7 29t-7 30.5t14 20.5q10 15 23.5 15t30.5 -7.5t26 -7.5h117q163 0 254 32q24 14 56.5 20.5t58.5 7.5t81 1q29 -29 29 -80v-31q-30 -16 -115.5 -15t-109.5 -15q-28 0 -91.5 -15.5t-113.5 -15.5 q-12 -16 -35 -19.5t-80 -3.5h-20q-20 -38 -30 -59t-19 -53t-9 -62l27 -34q22 24 41.5 29t75.5 5q24 0 78.5 15.5t80.5 15.5q13 0 65.5 16.5t80.5 16.5q10 7 16.5 7t10 -3t13 -15.5t17.5 -21.5q0 -16 -0.5 -24t-3 -19.5t-9.5 -16.5t-18 -5q-94 -46 -228.5 -76t-246.5 -33 q-39 -39 -58 -140t5 -139q75 -47 197 0q23 16 55 23.5t57.5 8.5t77.5 1q18 5 56.5 19.5t70 22t66.5 7.5q2 -2 10.5 -9t10.5 -8.5t8.5 -8t8 -9t6 -9t4.5 -11t1 -11.5t-1 -14t-4.5 -15.5t-7.5 -18.5q-88 0 -145 -29q-8 -2 -94 -29t-149.5 -41t-116.5 -14h-111q-14 0 -21.5 8.5 t-8.5 16.5l-1 8q-14 0 -28.5 7t-22.5 15l-8 7q-22 37 -22 99zM215 1438q0 10 5.5 15.5t11.5 6.5h6q73 0 108 -51q28 -19 91 -49t94.5 -57t39.5 -68q14 -9 14 -22t-7 -31t-7 -29h-18q-46 0 -84.5 27t-76 64.5t-66.5 51.5q-3 2 -20.5 11t-21.5 11.5t-17.5 11.5t-17.5 14.5 t-13 16t-12 21t-6 25t-3 31.5z" />
<glyph unicode="&#xc9;" horiz-adv-x="784" d="M79.5 417.5q-2.5 27.5 1 67.5t6 68.5t10.5 73t12.5 67t14 65t11.5 54.5q10 41 10.5 120t10.5 105q33 33 90 -32q97 24 197.5 36t146.5 21.5t72 36.5h34q11 0 31.5 -25.5t29 -50.5t-4.5 -37q-33 -31 -150 -31q-42 -16 -172 -31t-184 -30v-133h1h1h1h1h1h1h1h1h1h1h1h1h10 q63 0 114 5t78.5 10t33.5 5q90 0 90 31q4 6 6.5 12t4 8.5t2.5 5t6 3t10.5 0.5h19.5q41 0 86 -60v-53q-10 0 -24.5 -7.5t-23.5 -15.5l-9 -8q-22 0 -29.5 -4t-30.5 -30q-125 0 -242 -19l-143 -29q-25 -24 -39.5 -128.5t6.5 -129.5q29 -23 105 -33t155.5 -8.5t139.5 11.5 q39 68 112 30q0 -10 5 -27t5 -37.5t-10 -49.5q-51 -23 -131.5 -34t-122.5 5h-110q-44 0 -70.5 2t-65 16.5t-61.5 42.5q-18 13 -30 34t-17.5 50.5t-8 57zM453 1284q0 18 0.5 25t6.5 15.5t19 8.5q25 9 63.5 49.5t59.5 55.5q28 19 62.5 41t59.5 39t48 36h29q0 -1 27 -32t42 -60 q-134 -75 -194 -129q-22 -10 -72.5 -51t-79.5 -41q-12 0 -22.5 8t-22.5 8q0 3 -0.5 7.5t-7 12t-18.5 7.5z" />
<glyph unicode="&#xca;" horiz-adv-x="858" d="M81.5 308q-12.5 69 6.5 134q50 217 82 453q14 27 14 63t-7 79t-7 63q15 0 30.5 10t32.5 10q12 -15 50 -15t61 15q42 0 138 16.5t136 16.5q31 31 89 31h57q15 0 23 -8t9 -16l1 -7v-53q-50 -34 -197.5 -63.5t-202.5 -49.5q-83 0 -112 -31q0 -17 -17.5 -101t-17.5 -93h63 h115q21 5 50 11.5t42 10t32 11t36 18.5q31 0 61 29.5t58 29.5q9 -11 18.5 -28t17 -24t21.5 -7q0 -24 -6 -41t-19 -27.5t-24.5 -16.5t-32 -14.5t-33.5 -15.5q-14 -16 -32.5 -24t-57 -16.5t-53.5 -12.5q-109 0 -162 -29h-94h-1q-1 0 -2.5 -0.5t-3 -1.5t-3.5 -3t-3.5 -5.5 t-2.5 -8.5t-1 -11v-84q-18 -33 -29.5 -65.5t-15 -69t12.5 -58.5v-33q144 0 164 33q60 0 91.5 1.5t77.5 13t84 34.5h89q-5 46 25 51q28 4 50 -26q18 -24 15 -55q-18 -10 -35 -40.5t-29 -43.5q-26 -16 -99 -28.5t-95 -22.5q-65 -17 -147 -26.5t-165 0t-106 48.5 q-27 24 -39.5 93zM201 1296v50q27 35 85.5 79.5t78.5 65.5q18 18 48.5 59.5t43.5 55.5h20q13 0 27.5 -7.5t35.5 -23.5t29 -21q98 -62 137 -101q58 -57 58 -107q0 -14 -4 -16.5t-27 -2.5q-12 -14 -18.5 -14t-14.5 7t-16 7q-10 5 -45.5 40.5t-78 64t-83.5 28.5 q0 -28 -62.5 -86t-70.5 -78q-12 0 -35 -16t-59 -16q-49 0 -49 32z" />
<glyph unicode="&#xcb;" horiz-adv-x="827" d="M102.5 417.5q-2.5 27.5 1 67.5t6 68.5t10.5 73t12.5 67t14 65t11.5 54.5q10 41 10 120t10 105q33 33 90 -32l166 32q31 11 84.5 14.5t96.5 12t69 35.5h35q11 0 31 -25.5t28.5 -50.5t-4.5 -37q-33 -31 -149 -31q-42 -16 -172.5 -31t-184.5 -30v-133h23h112q17 0 60 10 t53 10q90 0 90 31q4 6 6.5 12t4 8.5t2.5 5t6 3t10.5 0.5h19.5q41 0 86 -60v-53q-10 0 -24.5 -7.5t-23.5 -15.5l-9 -8q-22 0 -29 -4t-30 -30q-129 0 -191 -19h-51q-15 0 -71.5 -14.5t-71.5 -14.5q-25 -24 -39.5 -128.5t6.5 -129.5q29 -23 105 -33t155 -8.5t139 11.5 q40 68 113 30q0 -10 5 -27t5 -37.5t-10 -49.5q-51 -23 -131.5 -34t-122.5 5h-111q-33 0 -52 1t-49.5 6t-54 18.5t-40.5 35.5q-18 13 -30 34t-17.5 50.5t-8 57zM291 1346h11.5t2.5 1.5t0 4t2.5 9.5t11.5 15h35h29q7 -11 14.5 -26t15 -27.5t21.5 -26.5q-38 -46 -63.5 -46 t-51.5 46q0 17 -14 30t-14 20zM606 1296v50q14 0 20 3.5t29 26.5q99 -49 64 -141q0 -15 -17.5 -15t-17.5 15q-24 0 -51 19t-27 42z" />
<glyph unicode="&#xcc;" horiz-adv-x="546" d="M172 1464l31 29q3 0 7.5 1t12.5 8.5t8 21.5q19 -23 25.5 -27t28.5 -4l25.5 -51t35 -68t37 -58t45.5 -50q20 -21 78 -113q25 -23 25 -57t-25 -56v-3v-3v-3v-3v-3v-3v-3v-9q-20 0 -28.5 1t-22 7.5t-27.5 21.5v29q-61 84 -106.5 148.5t-63 90.5t-27.5 38q-11 26 -27 46 t-24 34.5t-8 37.5zM203 98q14 31 20.5 65t7 53t0.5 60v168q11 41 25 141.5t29 145.5v31q0 37 1 53.5t8 40t21 37.5v61q0 32 30 44.5t52 -21.5q24 -17 27.5 -23.5t3.5 -29.5v-60q0 -103 -31 -166q-20 -86 -33.5 -274.5t-15.5 -206.5v-168q-25 -22 -32.5 -25.5t-30.5 -3.5 q-8 8 -26 27.5t-30.5 31t-25.5 19.5z" />
<glyph unicode="&#xcd;" horiz-adv-x="464" d="M174 1202v33q13 8 79 47.5t95.5 58.5t82 53.5t92 66t73.5 63.5h27h24q0 -14 7.5 -22t24.5 -18t28 -20q0 -23 -3.5 -29.5t-27.5 -23.5q-28 0 -53 -33l-27 -32q-101 -51 -183 -103.5t-115.5 -71t-72.5 -18.5q-15 0 -21.5 1t-15 5t-11.5 14.5t-3 28.5zM225 391v113 q29 31 29 114v29v84v279q0 14 8 21.5t16 8.5h9h49q31 -31 31 -86q14 -27 14 -61t-7 -68.5t-7 -42.5v-51v-196v-175q0 -5 -7 -54t-7 -97t14 -76q0 -11 7 -29.5t7 -38t-14 -45.5q0 -15 -9 -20.5t-23.5 0t-29.5 20.5q-15 0 -33 19t-18 41q0 42 -14.5 155.5t-14.5 155.5z" />
<glyph unicode="&#xce;" horiz-adv-x="530" d="M68 1237q12 0 21.5 -4.5t14.5 -4.5t13 9q23 0 30 3.5t31 25.5l146 114h20q0 -16 31 -57t31 -57q13 0 20 -7.5t14.5 -21t16.5 -20.5h28q31 0 31 20h31q0 65 -62 164.5t-110 126.5q-39 0 -75 -20t-60.5 -45.5t-59 -59.5t-63.5 -53q-5 -5 -19.5 -10.5t-22 -20.5t-7.5 -53 v-29zM199 360q0 46 14 167t14 141v63q17 42 17 123t16 123h53h31q22 -40 22 -111.5t-22 -134.5q0 -21 6.5 -56t6.5 -64t-13 -58q-14 -36 -14 -91t7 -122.5t7 -93.5v-29v-119v-18h-53l-22 11t-23 13.5t-12 20.5t-7 39q-22 14 -23.5 53.5t4.5 75.5t-9 67z" />
<glyph unicode="&#xcf;" horiz-adv-x="423" d="M154 1341q0 23 1 33.5t8 28t21 31.5q43 0 77 -24.5t34 -68.5q-29 0 -29 -18q-52 0 -71 2.5t-41 15.5zM184 391v113q29 31 29 114v29v84v279q0 14 8.5 21.5t16.5 8.5h8h49q31 -31 31 -86q14 -27 14 -61t-7 -68.5t-7 -42.5v-51v-196v-175q0 -5 -7 -54t-7 -97t14 -76 q0 -11 7 -29.5t7 -38t-14 -45.5q0 -15 -9 -20.5t-23.5 0t-29.5 20.5q-15 0 -33 19t-18 41q0 42 -14.5 155.5t-14.5 155.5zM375 1341v33q0 3 1 8.5t9 14t23 8.5q15 21 46 7t31 -38v-82h-57q-15 0 -34 17.5t-19 31.5z" />
<glyph unicode="&#xd1;" d="M128 315.5q0 60.5 4.5 128t4.5 82.5v49l33 209q0 24 8 72t16 84l7 37q0 10 7.5 15.5t15.5 5.5l7 1q21 -22 50 -22q33 -69 81 -139q32 -43 66 -93.5t82 -127.5t57 -91q30 -40 84 -84q97 -173 111 -202h31v90q10 27 10 83t10 83q-5 73 14 195.5t19 174.5v80v31 q-12 8 -14 18t6.5 23t15.5 21t23 24q13 0 32.5 -7.5t32.5 -15.5l14 -8q29 -26 34.5 -70t-5 -83t-29.5 -74v-21q0 -178 -30 -370v-31l-21 -164q0 -13 -14 -78t-14 -98h-64q-10 15 -38 29.5t-42 29.5q-13 8 -25.5 29.5t-28.5 55.5t-28 53q-5 8 -85.5 113.5t-112.5 172.5 l-172 195q0 -39 -14.5 -138t-14.5 -141v-143q17 -8 18 -35.5t-8 -60.5t-13.5 -69.5t3.5 -61.5h-21q-22 0 -32.5 1t-28.5 8t-33 21v117q-9 36 -9 96.5zM261.5 1322q4.5 51 26.5 94t54 71q20 35 56.5 51.5t76.5 7.5q12 -12 28.5 -21.5t24 -17t7.5 -20.5q12 -11 29.5 -50.5 t38.5 -69.5t48 -30q13 12 15.5 51.5t9 77.5t29.5 50h88v-115q0 -89 -60 -195q-18 -19 -22 -21q-24 -12 -99 45q-41 31 -106 87q0 51 -31 51l-22 33q-16 0 -47.5 -38t-43.5 -46q0 -9 7 -35.5t7 -47t-14 -28.5q-9 0 -37 9.5t-44 9.5q-24 46 -19.5 97z" />
<glyph unicode="&#xd2;" horiz-adv-x="847" d="M82 560.5q0 27.5 16 51.5v62q0 56 1 85t8.5 71t21.5 71q8 23 24.5 50t43 59t42 49.5t48.5 52.5t35 37q18 0 27.5 1t23.5 8t28 22h115q34 -15 62.5 -40.5t46.5 -50t37 -66t27.5 -67l25.5 -76.5t24 -73v-164v-84q-3 -10 -11 -40.5t-11 -41t-10.5 -36t-12 -37.5t-13 -33.5 t-16 -35t-17.5 -31t-21 -32.5q-27 -77 -103 -147t-151 -49q-98 39 -164 107t-111 173v113q0 8 -8 36t-8 55.5zM205.5 490q7.5 -68 25.5 -128t56.5 -101.5t85.5 -41.5h59q23 23 36 44.5t24.5 47.5t23.5 45q37 78 56.5 128.5t36.5 117.5t13.5 132t-24.5 136q-4 10 -18 46 t-24.5 59.5t-30.5 50t-42 37.5h-20q-40 -10 -71.5 -29t-52 -39.5t-39.5 -52t-30.5 -56t-29 -64t-29.5 -64.5v-146q-13 -54 -5.5 -122zM211 1550q0 17 3.5 24t25.5 30l30 28q112 -41 162 -147q12 -12 26 -21.5t19.5 -15t5.5 -14.5q15 -14 23 -31t9 -28.5t1 -33.5 q-25 -13 -31.5 -15.5t-21.5 -2.5q-27 0 -48.5 19t-41.5 53.5t-23 38.5q-28 20 -59 20q-12 19 -80 96z" />
<glyph unicode="&#xd3;" horiz-adv-x="878" d="M106 807l19 31v145q14 35 29.5 48t30.5 17t22 15q33 30 33 53l10.5 10.5l11 11t10 9.5t10 9t9 8t9.5 7l9 4.5t9 3.5t8 1q20 20 56 36.5t52 16.5h64q72 0 133.5 -41t98 -102.5t56 -128.5t17.5 -123q0 -26 15.5 -83t15.5 -81q0 -115 -31 -174q-23 -84 -96 -162t-162 -119 q-56 0 -125 29t-94 55q-126 78 -170 197v30q-22 37 -36 122.5t-14 154.5zM207 786q0 -203 65 -286q15 -16 41.5 -42t40.5 -42q23 -11 48 -33t46.5 -34.5t49.5 -12.5l28 20q37 22 77.5 75t55.5 99q33 71 40.5 161t-8 173t-54 152t-92.5 100h-47q-32 -22 -82 -22 q-27 -14 -55.5 -36.5t-64.5 -55t-56 -48.5q-16 -16 -16 -79t-17 -89zM488 1503q7 15 16 26.5t23.5 25.5t17.5 18q12 12 45 43.5t47 45t43.5 40.5t49.5 44t48 39t56 42q72 -45 81 -51v-31q-27 -33 -83.5 -73t-81.5 -68q0 -23 -4 -30t-27 -24q-78 -95 -144 -116 q-19 0 -27.5 0.5t-15 5t-6.5 14.5q-26 9 -35.5 21.5t-2.5 27.5z" />
<glyph unicode="&#xd4;" horiz-adv-x="909" d="M167 586q3 -30 21 -56l50 -227q29 -39 44 -68.5t17 -42.5t2 -32q18 -41 68.5 -78t95.5 -37q52 -21 122 22.5t101 92.5q16 32 82 176q42 78 48.5 234t-17.5 237v147q-23 36 -90 103t-105 92l-112 31q-40 0 -72.5 -16.5t-50 -36t-50 -60t-53.5 -63.5q-42 -27 -80 -134v-112 q3 -27 -3.5 -60.5t-13.5 -57.5t-4 -54zM238 1321q12 0 21.5 -4.5t14.5 -4.5t13 9q23 0 30 3.5t31 25.5l146 114h20q0 -14 16.5 -36t46.5 -59.5t50 -68.5h28q31 1 31 21h31q0 65 -62 164.5t-110 126.5q-39 0 -75 -20t-60.5 -45.5t-59 -59.5t-63.5 -53q-5 -5 -19.5 -10.5 t-22 -20.5t-7.5 -53v-29zM287 654q3 70 13.5 125t23.5 91q10 11 20 26t17 20.5t20 5.5q0 21 7 41.5t24.5 42t24.5 29t28 28.5q24 10 52.5 -13.5t55.5 -17.5q8 -7 34.5 -25.5t46 -38t34.5 -46.5v-52q29 -32 29 -63v-84q0 -164 -29 -193v-145q-10 -15 -31 -57.5t-41 -71.5 t-43 -37q0 -15 -16 -36t-33.5 -28.5t-29.5 5.5q-68 33 -113 112q-21 62 -80 197v61q-17 54 -14 124z" />
<glyph unicode="&#xd5;" horiz-adv-x="950" d="M119 446v197q18 38 35 96.5t28.5 100.5t39 88t69.5 76q11 15 62 30t73 29h111q248 -101 290 -340q23 -62 34 -224t-5 -227q-26 -39 -48.5 -69.5t-34.5 -44.5t-20.5 -24t-11 -14.5t-2.5 -10.5q-25 -15 -68.5 -59t-72.5 -54q-23 -19 -50 -24t-57 4t-52 19t-54 27.5 t-43 22.5q-79 61 -123.5 130t-68.5 161q-13 20 -14.5 41.5t-2.5 38.5t-14 30zM150 1292q30 31 30 49q24 15 64 58.5t67 54.5q13 0 50.5 15.5t64.5 15.5q25 -13 97.5 -82.5t107.5 -79.5q0 1 10 42t10 89q0 14 8 22t24 18.5t26 23.5q3 0 8 -1t13.5 -9t8.5 -23 q41 -40 10.5 -141t-98.5 -164q-18 0 -84 53q-22 26 -73 70t-68 71q-15 -10 -54.5 -34.5t-68.5 -44t-43 -33.5l-57 -54q-5 6 -22 18t-24 25.5t-7 40.5zM233 530q-21 -100 24.5 -201.5t119.5 -168.5q0 -16 23 -34.5t54.5 -25t63.5 8.5q60 15 125.5 99.5t65.5 147.5 q23 44 23 116t-23 112q-22 183 -72 276.5t-152 93.5h-59q-8 -15 -20 -23t-32.5 -16t-31.5 -14q-37 -28 -56.5 -70.5t-33 -105.5t-19.5 -82v-113z" />
<glyph unicode="&#xd6;" horiz-adv-x="794" d="M92.5 660q3.5 88 18.5 147v147q23 36 89.5 103t104.5 92q93 0 113 31q40 0 72.5 -16.5t50 -36t49 -60t53.5 -63.5q42 -27 80 -134v-112q7 -8 10 -15.5t3 -22.5t-3 -32.5t-9 -53.5t-13 -76.5t-17 -109.5t-20 -145q-3 -8 -23 -37.5t-33 -58.5t-8 -47q-18 -41 -68.5 -78 t-95.5 -37q-52 -21 -122 22.5t-101 92.5q-15 32 -82 176q-28 52 -40 144t-8.5 180zM195 723q0 -173 28.5 -296.5t114.5 -207.5q0 -15 16.5 -36t34 -28.5t29.5 5.5q67 33 112 112q21 62 80 197v61q17 55 14 124.5t-13 124.5t-23 91q-9 9 -17 20.5t-12 17.5t-11.5 10t-17.5 4 q0 21 -7 41.5t-24.5 42t-24.5 29t-28 28.5h-49l-59 -31q-8 -7 -34.5 -25.5t-46 -38t-34.5 -46.5v-52q-28 -32 -28 -63v-84zM256 1341q0 22 1 33.5t8 28.5t22 31q43 0 76.5 -24.5t33.5 -68.5q-28 0 -28 -18q-52 0 -71.5 2.5t-41.5 15.5zM477 1341v33q0 3 1 8.5t9 14t23 8.5 q15 21 46.5 7t31.5 -38v-82h-58q-15 0 -34 17.5t-19 31.5z" />
<glyph unicode="&#xd7;" horiz-adv-x="815" d="M117 418q15 17 18 24.5t6 34.5q138 138 195 197q2 17 -14.5 33.5t-39.5 30t-26 16.5q-100 100 -100 143l47 45l14 14q63 -24 221 -182q170 170 221 187q41 -41 43 -67t-20 -58q-4 -7 -6 -11q-7 -8 -144 -145q-8 -10 -1 -24.5t26.5 -27.5t38.5 -14q21 -18 82 -79l-66 -95 q-34 -8 -194 152q-3 -3 -21 -20t-34 -33.5t-25 -26.5q-19 -18 -61.5 -74t-61.5 -76q-26 -6 -33 -4t-24 19z" />
<glyph unicode="&#xd8;" d="M119 446v197q18 38 35 96.5t28.5 100.5t39 88t69.5 76q11 15 62 30t73 29h111q248 -101 290 -340q10 -78 14.5 -135t3.5 -142.5t-22.5 -158.5t-62.5 -127q0 -17 -10.5 -29.5t-10.5 -21.5q-25 -15 -68.5 -59t-72.5 -54q-23 -19 -50 -24t-57 4t-52 19t-54 27.5t-43 22.5 q-79 61 -123.5 130t-68.5 161q-13 20 -14.5 41.5t-2.5 38.5t-14 30zM133 -88q0 40 11.5 89.5t20.5 74.5t33.5 84t26.5 63q54 112 176.5 324t178.5 327q86 84 112 173q0 23 4 29.5t27 21.5q0 12 4 19t14.5 9.5t17.5 3t23 0.5q20 0 53 -30.5t33 -52.5q-36 -48 -100 -144.5 t-76 -114.5q-18 -33 -18 -81q-93 -116 -161.5 -227t-129.5 -257q-22 -23 -33.5 -49.5t-24 -74t-20.5 -72.5v-33q-31 -51 -31 -109q-23 -18 -29 -21t-20 -3h-32q-16 0 -31 25.5t-29 25.5zM233 530q-21 -100 24.5 -201.5t119.5 -168.5q0 -16 23 -34.5t54.5 -25t63.5 8.5 q60 15 125.5 99.5t65.5 147.5q23 44 23 116t-23 112q0 10 7 28t7 33t-14 29q-12 57 -27 101t-40 87.5t-65 67.5t-92 24h-59q-8 -15 -20 -23t-32.5 -16t-31.5 -14q-37 -28 -56.5 -70.5t-33 -105.5t-19.5 -82v-113z" />
<glyph unicode="&#xd9;" horiz-adv-x="888" d="M90.5 954q3.5 61 22.5 101h1h1h1h1h1h1h1h1h1h1h1h1h1h1h1h1h1h1h1h1h10q2 0 5 -1t8.5 -8.5t5.5 -21.5q14 0 21.5 -4.5t8.5 -9.5l1 -4v-261q10 -37 29.5 -185t47.5 -214q16 -24 59.5 -81.5t59.5 -82.5h29q22 14 42 55.5t39.5 95.5t30.5 75q46 136 104 475q3 21 5 32 q19 29 28 59.5t3 62t-31 50.5l31 29l22 23h29q11 -8 29.5 -16.5t26 -15.5t7.5 -20q15 -67 5 -154t-35 -157q-16 -28 -23.5 -59t-8.5 -51.5t-1 -61.5q-13 -23 -26 -59t-29 -88t-27 -82q0 -28 -29 -53v-91q-16 -9 -40.5 -50.5t-39.5 -51.5q-12 -12 -23 -28t-18.5 -23.5 t-21.5 -7.5h-78q-25 13 -44.5 31.5t-52 57.5t-46.5 54q-37 48 -63 113t-35 104t-29 145q-4 19 -6 29q1 42 -6.5 111.5t-13.5 123.5t-2.5 115zM193 1479v92h1h1h1h1h1h1h1h1h1h1h1h1h1h1h1h1h1h1h1h9h49q21 -20 32 -31.5t21.5 -28.5t10.5 -32q7 -7 37 -33.5t46 -43.5 t38 -43.5t32.5 -53t10.5 -52.5q-16 -10 -16 -17q0 -3 -15 -3q-8 -14 -20.5 -14t-30 7t-27.5 7q-40 62 -97.5 133.5t-98.5 112.5z" />
<glyph unicode="&#xda;" horiz-adv-x="858" d="M79 861.5q-8 49.5 7 84.5q0 20 1 30t8.5 20t21.5 10h49q0 -16 14.5 -31t14.5 -29v-170v-90q0 -83 34 -133q0 -69 18.5 -115.5t65.5 -91.5q0 -19 59 -67t83 -48q16 26 33.5 74.5t17.5 69.5q37 68 71 178.5t44 132.5v115v223q0 10 -8 29.5t-8 34.5t16 28q0 10 7.5 16 t23.5 15t28 20q14 0 32.5 -17.5t18.5 -33.5q31 -29 31 -201v-53q0 -176 -31 -227q-16 -15 -23.5 -33.5t-8.5 -33.5t-1 -48q-44 -194 -112 -256l-49 -135q-158 0 -267.5 99.5t-134.5 232.5q-49 161 -49 207q13 20 7 82t-14 111.5zM281 1253q32 32 88.5 87.5t85.5 84.5 q0 22 11.5 39t39.5 45q10 10 30.5 30t41 40.5t43.5 44.5q19 0 29.5 -1t25 -9t22.5 -23v-51q-23 -24 -74.5 -79t-91.5 -97t-77 -78q-6 -9 -16.5 -28t-15 -25t-15.5 -15.5t-26 -12.5t-38 -3h-31q-24 23 -28 29.5t-4 21.5z" />
<glyph unicode="&#xdb;" horiz-adv-x="950" d="M105 906q-9 92 4 181h63h31q18 -63 18 -256l62 -196q5 -13 16.5 -48.5t18.5 -53t18.5 -44.5t25.5 -46.5t31 -34.5q0 -23 18.5 -52.5t44.5 -50.5t54 -27t47 19q71 0 113 195q31 83 61.5 207t30.5 216q-5 24 -14 69t-12.5 65t-9.5 54t-7 51t-1.5 38.5t2.5 35.5t9 25 q0 4 1 9.5t9 14.5t23 9h49q0 -17 15.5 -43t15.5 -41q9 -16 9 -37t-4.5 -45t-4.5 -33q26 -114 20.5 -245t-32.5 -253t-68 -214q-6 -14 -16.5 -41t-15 -36.5t-15.5 -27t-26 -30t-38 -27.5q0 -24 -3.5 -27.5t-26.5 -3.5q-14 -15 -30 -15t-25 7l-9 8h-80q-15 14 -36 26t-54 28.5 t-53 27.5q-104 104 -162 371q-14 14 -15 28.5t-2.5 36t-15.5 45.5q-25 69 -34 161zM221 1366q0 65 62 164.5t110 126.5q39 0 75 -20t60.5 -45.5t59 -59.5t63.5 -53q5 -5 19.5 -10.5t22 -20.5t7.5 -53v-29q-12 0 -21.5 -4.5t-14.5 -4.5t-13 9q-169 107 -207 143h-20 q0 -14 -16.5 -36t-46.5 -59t-50 -68h-28q-31 0 -31 20h-31z" />
<glyph unicode="&#xdc;" horiz-adv-x="847" d="M109 801v145v78h30q13 14 24.5 14t16.5 -7l6 -7q29 -21 37.5 -55.5t12 -74t16.5 -63.5v-86q0 -141 31 -192q0 -9 0.5 -17.5t1.5 -15.5t3.5 -15.5t3.5 -13.5t5 -14t5.5 -12.5t6.5 -13.5l6.5 -13t8 -15t8.5 -15q4 -5 43 -64.5t69 -79.5q40 39 76.5 104t53.5 107t52 144 t44 126l51 279q0 33 14.5 76t14.5 67q0 87 28 119q0 3 1 8.5t9 14t23 8.5h51q0 -33 15.5 -62t15.5 -53q-15 -18 -15 -59t-16 -56q-17 -45 -29.5 -123.5t-21.5 -101.5l-61 -227q-104 -304 -193 -422q0 -14 -8 -21.5t-25.5 -18.5t-29.5 -23q-44 0 -82 14t-66 34t-53.5 55.5 t-42 65.5t-33.5 77t-26.5 77.5t-22.5 79.5q-29 51 -29 192q0 21 -1 29.5t-7.5 17.5t-21.5 9zM332 1509q13 0 20 7.5t8 15.5v8q25 0 36.5 -0.5t24.5 -3.5t18 -9.5t5 -17.5q22 -23 25.5 -29.5t3.5 -21.5h-29q0 -15 -7.5 -23t-14.5 -9l-8 -1q-8 14 -37 35t-45 49zM543 1494.5 q0 15.5 7 30.5l7 15q37 21 75 7.5t38 -38.5q20 -23 8 -37t-39 -14q-25 -21 -53.5 -9t-28.5 30q-14 0 -14 15.5z" />
<glyph unicode="&#xdd;" horiz-adv-x="968" d="M33 1081v52q14 0 21.5 8t7.5 16l1 8q29 0 54 -10.5t35 -18.5t30.5 -30.5t22.5 -24.5q108 -85 192 -178q21 -7 38 -27t34 -35.5t43 -15.5q7 0 13.5 2.5t12 5.5t13.5 10.5t11.5 11.5t13.5 15t14 15l203 162q6 15 11.5 26t12.5 25.5t13 25t13.5 21t14.5 17t14.5 10t14.5 2 t14 -8.5q28 -28 60 -84q-13 -28 -28 -43.5t-30.5 -25.5t-21.5 -17l-88 -92l-54 -49q-10 -9 -51 -34t-77.5 -53.5t-49.5 -55.5q0 -27 14.5 -111t14.5 -117v-51v-113v-32l33 -144v-32q14 -8 14 -28.5t-7 -36.5l-7 -17q-26 -16 -33.5 -18.5t-28.5 -2.5q-17 7 -28 21t-15 36 t-5 37t-1 41q-20 58 -27 142.5t-6 154t-11 146t-40 125.5q-150 151 -266.5 254.5t-128.5 115.5zM451 1274q14 14 44 30t44 33q171 168 229 230h25q31 0 55 -40t33 -77q-24 -13 -81.5 -57.5t-90.5 -55.5q-24 -9 -52.5 -36.5t-57.5 -50t-60 -25.5q0 -20 -28 -9q-26 13 -30 29 q-23 0 -26.5 3.5t-3.5 25.5z" />
<glyph unicode="&#xe0;" horiz-adv-x="972" d="M123 209v59q18 47 31.5 133.5t19.5 112.5q17 43 33.5 144.5t32.5 146.5l82 338v166q14 0 21.5 7t8.5 14v7q23 0 66.5 -14t75.5 -14q7 -20 19.5 -85t29.5 -112q20 -28 38.5 -82t31.5 -99.5t40 -91.5t64 -67q10 15 23.5 15t31.5 -7.5t29 -7.5q-23 -82 -30.5 -96t-30.5 -14 h-1v-33l144 -338q13 -11 20 -36t7.5 -43.5t0.5 -57.5q-23 0 -33 3t-47 21q-17 17 -32 36.5t-29 45t-19.5 37t-19.5 43.5l-14 31v63q0 14 -15.5 39.5t-15.5 40.5q-5 11 -12 31t-10.5 29t-11.5 22t-17.5 18.5t-25 10t-36.5 4.5q-31 -31 -221 -31q-23 0 -26.5 -2t-3.5 -16v-95 q-17 -29 -45 -125t-37 -120q0 -7 2.5 -21t3.5 -25t-1 -24.5t-11.5 -25.5t-26.5 -21h-53q0 15 -15.5 43t-15.5 43zM201 1825q0 2 0.5 5.5t8.5 9t23 5.5v31q79 -48 115 -82q0 -15 4 -23t8 -9l5 -1q0 -3 0.5 -8t9 -13.5t24.5 -8.5q0 -11 14.5 -24t14.5 -28q14 -15 21.5 -30 t15 -41.5t12.5 -40.5q0 -17 16.5 -32.5t16.5 -29.5q-15 0 -23 -5t-9 -10l-1 -5h-18q0 9 -7.5 14t-15.5 5l-8 1q-14 15 -14 30t-15 32h-1h-1h-1h-1h-1h-1h-1h-1h-1h-1h-1h-1h-1h-1h-1h-1h-1h-1h-1h-1h-1h-1h-1h-1h-1h-9q0 27 -3 38t-14 11q0 23 -4 27t-29 4q0 39 -61 84 q-6 10 -21.5 22.5t-23.5 28t-8 43.5zM352 741h49h172v31q-19 26 -36.5 56t-34 70t-25 60.5t-26 69t-19.5 55.5z" />
<glyph unicode="&#xe1;" horiz-adv-x="1021" d="M102 92q0 16 15.5 45t15.5 41q21 33 21 141q58 230 110 343v51q15 45 30.5 129.5t31.5 126.5q10 39 14.5 115t18 132.5t49.5 92.5q22 0 29 -4t32 -29q16 0 22 -2t31 -17q16 -31 33 -91.5t33 -118t39 -116t61.5 -101.5t89.5 -58q0 -13 14.5 -47.5t14.5 -62.5q-19 0 -29 -1 t-20 -9t-10 -23q59 -93 59 -166q7 -22 45.5 -94t38.5 -101q26 -24 30 -83.5t-30 -61.5q0 -11 -5 -13t-11.5 1.5t-11.5 7.5l-5 4l-80 145q-29 78 -114 217q0 13 -7 41t-15 50l-7 22h-49h-150q-13 -8 -27.5 -8t-31 4t-23.5 4v-84l-90 -360l-20 -62v-53q-15 0 -23 -7.5 t-9 -14.5l-1 -7q-19 0 -28.5 1t-19 7.5t-9.5 20.5q-16 0 -34 16.5t-18 36.5zM377 741h59q15 -13 43.5 -13t63 6.5t43.5 6.5q0 82 -64 146q-16 24 -29 90t-24 76h-33q0 -93 -59 -312zM680 1423q0 15 0.5 23t3 19t9.5 15.5t18 4.5q28 11 72.5 61.5t68.5 69.5q27 21 92 68 t100 77h33q3 -4 33 -41t47 -73q-157 -96 -223 -162q-24 -12 -56.5 -42t-61 -51.5t-54.5 -21.5q-12 0 -24.5 10.5t-26.5 10.5q0 4 -1 9t-8.5 14t-21.5 9z" />
<glyph unicode="&#xe2;" d="M78 268q18 56 109.5 348t146.5 437q34 190 110 256h52q18 -20 49 -65.5t33 -47.5q29 -58 57 -172t53 -168q0 -7 2 -15.5t9.5 -30.5t18 -50.5t31.5 -86t45.5 -126t64.5 -182t85 -242.5q0 -14 -8 -21.5t-16 -8.5l-9 -1q-22 0 -41 15t-39 39.5t-28 31.5v90 q-29 56 -71.5 169.5t-63.5 160.5q-186 64 -334 64q-34 -63 -63.5 -178t-51.5 -165q0 -110 -59 -141q-23 23 -29.5 27t-21.5 4q-31 30 -31 59zM174 1505q13 25 30.5 50.5t26.5 39t9 21.5q15 16 28 47t25 45q13 0 20 6t8 12l1 5q13 13 29.5 42t29 50.5t20.5 21.5h64 q35 -15 102 -83.5t92 -114.5q14 0 41.5 -15.5t38.5 -15.5v-49q0 -15 15.5 -35t15.5 -47h-31q-17 -24 -23.5 -27.5t-29.5 -3.5q0 17 -13.5 29.5t-13.5 21.5q-25 22 -31.5 29.5t-21.5 32.5q-15 14 -46.5 39t-47.5 41q0 15 -12 30t-24 23l-11 8q-17 -15 -33 -46t-31 -46 q0 -30 -49 -82q-8 -8 -22 -31.5t-33.5 -36t-56.5 -12.5q0 22 -20 36.5t-46 14.5zM385 805q31 0 100 -16.5t93 -16.5q0 78 -52 162q-15 31 -21.5 58.5t-7.5 42t-1 48.5h-33q0 -84 -49 -168v-59q-22 -23 -25.5 -29.5t-3.5 -21.5z" />
<glyph unicode="&#xe3;" horiz-adv-x="1003" d="M49 154q0 55 33 86q0 26 15.5 81t15.5 80q27 68 68 188t77.5 213.5t77.5 166.5v63q22 20 22 51q16 29 16 58t15 55q15 -16 54 -16t55 -15q7 -5 14 -16t13.5 -29.5t12 -35.5t12.5 -43.5t11 -43t10.5 -44.5t8.5 -38q34 -53 108.5 -256t97.5 -309q10 -25 23 -95.5t29 -100.5 q47 -47 0 -91h-52q-20 20 -31 33.5t-29 51.5t-32 92q0 76 -55 161q0 113 -59 113h-21q-41 15 -90.5 15t-99.5 -7.5t-64 -7.5q-29 -54 -51 -108t-33.5 -91t-30.5 -106q0 -87 -28 -117q0 -13 -8 -20t-16 -8l-7 -1q-21 34 -82 91zM92 1534q-11 40 0 78t37.5 67t52 48.5 t51.5 33.5q51 0 80 33q103 -42 166 -197q0 -14 7.5 -29.5t15.5 -24.5l8 -9q15 17 27.5 101.5t23.5 95.5h60q5 -4 16.5 -11.5t15.5 -11t9.5 -12t7.5 -20t2 -29.5q-21 -20 -29 -78.5t-17.5 -117.5t-35.5 -81q-34 -22 -57 0t-23 53h-64v62q-19 0 -35 20.5t-16 61.5 q-12 12 -21.5 33.5t-17 34t-20.5 12.5q-10 15 -23 15t-21 -8l-7 -7q-32 -19 -45.5 -31t-25 -39.5t-11.5 -71.5l-29 -20h-29q0 9 -6.5 14.5t-21 14.5t-25.5 20zM358 662q30 15 96 -1.5t76 1.5l29 28q-27 22 -50.5 71.5t-40 97t-22.5 56.5q-6 -18 -47 -112t-41 -141z" />
<glyph unicode="&#xe4;" d="M139.5 366q10.5 81 34.5 148q0 37 14.5 86.5t14.5 61.5q0 11 -6.5 20t-6.5 15t13 16q0 13 7.5 20t15.5 7l7 1l80 342q10 25 23 83t29 91q0 52 30 80q24 -23 30.5 -30t20.5 -31q64 0 64 -19v-30q37 -47 58.5 -106.5t44 -121.5t59.5 -112q0 -17 0.5 -24t3 -18t9 -15.5 t17.5 -4.5q0 -9 8 -14t16 -5l9 -1q13 0 20 -8t14.5 -27.5t12.5 -28.5q0 -13 -4.5 -25.5t-9.5 -19.5l-4 -6q33 -58 56 -104t36 -80t19 -53t12.5 -46t9.5 -36q0 -19 7 -36t7 -30.5t-14 -36.5q0 -21 -2 -24.5t-16 -3.5l-66 79l-111 261q0 8 -7.5 35.5t-14.5 50.5l-8 24 l-387 -61q-17 -46 -31 -163t-21 -147q-12 -19 -15 -49t-10.5 -45.5t-33.5 -15.5q-7 7 -10 13t-4 9t-0.5 5t-0.5 3t-3.5 1h-10.5q-16 45 -5.5 126zM279 1454v31h3h3h3h3h3h7h92q17 -23 20 -31t3 -31q0 -15 -1 -22.5t-6 -16t-16.5 -11.5t-30.5 -3q-5 3 -22.5 12t-24 14.5 t-17.5 20.5t-19 37zM336 772l254 33q-15 42 -55.5 124.5t-55.5 123.5q0 25 -19.5 68.5t-33.5 43.5q-9 -62 -46.5 -213t-43.5 -180zM588 1423q0 22 0.5 31.5t7 20t20.5 10.5l21 20l29 -20q23 -23 32 -32.5t20 -28t11 -33.5q-25 -15 -29 -22t-4 -32h-59q-7 11 -21 28t-21 30 t-7 28z" />
<glyph unicode="&#xe5;" horiz-adv-x="960" d="M14 268v51q17 16 33 58t29 57q27 27 71.5 108.5t73.5 119.5q90 142 162 307q24 24 42.5 57.5t18.5 56.5q8 13 8 27.5t-4 31t-4 23.5l48 62h32h31q9 -12 24 -22t24 -18t9 -22q0 -11 -17 -39t-17 -43q20 -29 37 -77.5t28 -71.5l27 -47q11 -27 17 -47.5t7 -27.5v-7l60 -143 q10 -24 33 -78.5t34.5 -81t31.5 -69.5t42 -83q5 -16 35.5 -62t46 -95t0.5 -101h-33h-29q-8 12 -35.5 33.5t-45.5 52.5q0 31 -31 62q0 18 -9 40.5t-18.5 38.5t-27.5 43.5t-25 38.5q0 21 -1 32t-7.5 26t-20.5 26h-116q-51 13 -93.5 13t-102 -6.5t-110.5 -6.5 q-111 -183 -145 -307q0 -12 -7.5 -17.5t-15 -6t-28.5 -0.5q-5 4 -21 15t-22 18t-12.5 28t-6.5 53zM281 1600.5q0 19.5 7 43.5t7 35q4 4 43 49.5t70 65.5q61 31 84 31q108 0 172 -117q14 -13 21 -31t8 -28.5t1 -32.5q0 -7 -15 -35.5t-15 -46.5q-10 -10 -21 -32t-23 -35 t-34 -13q0 -11 -5 -18t-16 -9.5t-19 -3t-24 -0.5q-101 -23 -164 26t-63 118q-14 14 -14 33.5zM372 674q-5 -12 11 -12l260 -33v33l-119 253q-25 -24 -41 -68t-30.5 -81.5t-38.5 -52.5q-34 -20 -42 -39zM408 1567q0 -4 0.5 -9.5t7.5 -14.5t20 -9q43 0 96.5 38.5t53.5 74.5 q0 15 -8.5 23t-26.5 17.5t-29 20.5q-21 -24 -51.5 -43t-46.5 -33t-16 -35v-30z" />
<glyph unicode="&#xe7;" horiz-adv-x="800" d="M103.5 404q-25.5 113 13.5 221q20 75 102 174.5t172.5 177t167.5 125.5q2 2 7 4t20.5 5t31.5 1q16 16 33 23.5t26 7.5h9l29 -2q-3 -17 3 -28t14 -13l7 -2q0 -2 -1 -12t-2 -18.5t-2.5 -21t-4.5 -22t-6.5 -18.5t-9 -13.5t-11.5 -3.5q-9 -2 -33.5 5.5t-51.5 6.5t-52 -22 q-173 -142 -278 -283q-27 -32 -49.5 -114.5t-8.5 -130.5q9 -65 62.5 -116.5t122 -67.5t137.5 3q54 25 86 32.5t80 0.5l20 -39q-31 -35 -35 -74q-18 2 -36 -9t-35 -9q-23 -21 -68.5 -22t-95.5 8q-74 8 -147 32.5t-121 61.5q-70 39 -95.5 152zM406 -211q7 20 7 48t-3 54t0 62 q4 33 10 74.5t9.5 71.5t4.5 61l21 20q8 -1 27.5 0t38 -1t40.5 -9q-33 -161 -33 -231q-7 -23 -10 -89.5t-20 -87.5q-7 -9 -20 -11.5t-19 -10.5q-21 16 -35 -2q-35 31 -18 51z" />
<glyph unicode="&#xe8;" horiz-adv-x="845" d="M122.5 417.5q-2.5 27.5 1 67.5t6 68.5t10.5 73t12.5 67t14 65t11.5 54.5q10 41 10.5 120t10.5 105q33 33 90 -32q2 22 19.5 34t44 12.5t52 -3t50.5 -11.5q31 11 84.5 14.5t96.5 12t69 35.5h34q11 0 31.5 -25.5t29 -50.5t-4.5 -37q-33 -31 -150 -31q-42 -16 -172 -31 t-184 -30v-133h1h1h1h1h1h1h1h1h1h1h1h1h10q42 0 116.5 10t109.5 10q90 0 90 31q4 6 6.5 12t4 8.5t2.5 5t6 3t10.5 0.5h19.5q41 0 86 -60v-53q-75 -29 -144.5 -44.5t-214.5 -39.5q-15 0 -72 -14.5t-71 -14.5q-25 -24 -39.5 -128.5t6.5 -129.5q29 -23 105 -33t155.5 -8.5 t139.5 11.5q39 68 112 30q0 -10 5 -27t5 -37.5t-10 -49.5q-51 -23 -131.5 -34t-122.5 5h-110q-44 0 -70.5 2t-65 16.5t-61.5 42.5q-18 13 -30 34t-17.5 50.5t-8 57zM205 1438q0 10 5.5 15.5t11.5 6.5h5q74 0 109 -51q28 -19 91 -49t94.5 -57t39.5 -68q14 -9 14 -22t-7 -31 t-7 -29h-18q-76 0 -111 61l-117 82q-4 2 -18.5 9.5t-19 10.5t-16 10t-16 12t-13 13t-12 16t-8 19t-6 24t-1.5 28z" />
<glyph unicode="&#xe9;" horiz-adv-x="909" d="M113 292q0 62 11 144t11 119v90q26 8 41 57.5t26.5 122t22.5 101.5q0 11 -7 29t-7 30.5t14 20.5q10 15 23.5 15t30.5 -7.5t26 -7.5h117q163 0 254 32q24 14 56.5 20.5t58.5 7.5t81 1q29 -29 29 -80v-31l-565 -61v-23q-29 -55 -43 -93t-14 -81l26 -34q22 24 41.5 29 t75.5 5q24 0 79 15.5t81 15.5q13 0 65 16.5t80 16.5q10 7 16.5 7t10 -3t13 -15.5t17.5 -21.5q0 -17 -0.5 -24t-3 -19t-9 -17t-17.5 -5q0 -7 -20 -13t-48.5 -14.5t-42.5 -20.5q-222 -61 -364 -61q-39 -39 -58.5 -140t4.5 -139q75 -47 197 0q55 19 189.5 41.5t193.5 40.5 q2 -2 11.5 -10t11.5 -9.5t9.5 -9t8.5 -10.5t5 -10t3.5 -13t-0.5 -14.5t-3.5 -17.5t-8.5 -20q-89 0 -146 -29q-8 -2 -94 -29t-149.5 -41t-116.5 -14h-111q-14 0 -21.5 8.5t-7.5 16.5l-1 8q-14 0 -29 7t-23 15l-8 7q-22 37 -22 99zM453 1284q0 18 0.5 25t6.5 15.5t19 8.5 q25 9 63.5 49.5t59.5 55.5q28 19 62.5 41t59.5 39t48 36h29q0 -1 27 -32t42 -60q-134 -75 -194 -129q-22 -10 -72.5 -51t-79.5 -41q-12 0 -22.5 8t-22.5 8q0 3 -0.5 7.5t-7 12t-18.5 7.5z" />
<glyph unicode="&#xea;" horiz-adv-x="888" d="M118.5 251q-12.5 69 6.5 134q50 217 82 453q14 27 14 62.5t-7 78.5t-7 63q15 0 30.5 10.5t32.5 10.5q12 -15 50 -15t61 15q43 0 139 16.5t135 16.5q30 30 88 30h58q15 0 23 -7.5t9 -14.5l1 -8v-54q-50 -34 -197.5 -63t-202.5 -49q-83 0 -112 -31q0 -17 -17.5 -101 t-17.5 -93h63h115q21 5 50 11.5t42 10t32 11t36 18.5q31 0 60.5 29.5t57.5 29.5q9 -11 19 -28t17.5 -24t21.5 -7q0 -52 -53 -74.5t-290 -80.5q-106 -26 -171 -42h-1q-1 0 -2.5 -0.5t-3 -1.5t-3.5 -3.5t-3.5 -5.5t-2.5 -8.5t-1 -11.5v-84q-18 -33 -29.5 -65t-15 -68.5 t12.5 -58.5v-33q24 0 47.5 1t50 5t45 6.5t49 9.5t43.5 9.5t47.5 12t43 12t47.5 14t44 12.5h88q0 25 3.5 32t23.5 29q6 -6 27.5 -20.5t29 -28.5t7.5 -43q-18 -10 -35 -40.5t-29 -43.5q-26 -16 -99.5 -28.5t-95.5 -22.5q-65 -17 -147 -26.5t-164.5 0.5t-105.5 49 q-27 24 -39.5 93zM221 1296v50q27 35 85.5 79.5t78.5 65.5q18 18 48.5 59.5t43.5 55.5h21q13 0 27.5 -7.5t35.5 -23.5t29 -21q101 -64 141 -105q53 -55 53 -103q0 -14 -3.5 -16.5t-26.5 -2.5q-12 -14 -18.5 -14t-14.5 7t-16 7q-10 5 -45.5 40.5t-78 64t-83.5 28.5 q0 -28 -62.5 -86t-70.5 -78q-11 0 -35 -16t-60 -16q-49 0 -49 32z" />
<glyph unicode="&#xeb;" horiz-adv-x="786" d="M106.5 417.5q-2.5 27.5 1 67.5t6 68.5t10.5 73t12.5 67t14 65t11.5 54.5q10 41 10 120t10 105q33 33 90 -32l86 61l80 -29q31 11 84.5 14.5t96.5 12t69 35.5h35q11 0 31 -25.5t28.5 -50.5t-4.5 -37q-33 -31 -149 -31q-42 -16 -172.5 -31t-184.5 -30v-133h23h113 q16 0 59 10t53 10q90 0 90 31q4 6 6.5 12t4 8.5t2.5 5t6 3t10.5 0.5h19.5q41 0 86 -60v-53l-116 -65l-191 -19q-46 0 -116 -14.5t-78 -14.5q-25 -24 -39.5 -128.5t6.5 -129.5q29 -23 105 -33t155 -8.5t139 11.5q40 68 113 30q0 -10 5 -27t5 -37.5t-10 -49.5 q-51 -23 -131.5 -34t-122.5 5h-111q-33 0 -52 1t-49.5 6t-54 18.5t-40.5 35.5q-18 13 -30 34t-17.5 50.5t-8 57zM309 1296v80h35h29q7 -11 14.5 -26t15 -27.5t21.5 -26.5q-38 -46 -63.5 -46t-51.5 46zM596 1296v50q14 0 20 3.5t29 26.5q99 -49 64 -141h-35q-24 0 -51 19 t-27 42z" />
<glyph unicode="&#xec;" horiz-adv-x="546" d="M172 1464l31 29q3 0 7.5 1t12.5 8.5t8 21.5q19 -23 25.5 -27t28.5 -4l25.5 -51t35 -68t37 -58t45.5 -50q20 -21 78 -113q25 -23 25 -57t-25 -56v-3v-3v-3v-3v-3v-3v-3v-9q-19 0 -28.5 2t-22.5 15.5t-27 41.5q-34 25 -70 76.5t-73.5 115t-53.5 85.5q-11 26 -27 46 t-24 34.5t-8 37.5zM203 98q14 31 20.5 65t7 53t0.5 60v168q11 41 25 141.5t29 145.5v31q0 37 1 53.5t8 40t21 37.5v61l82 23q24 -17 27.5 -23.5t3.5 -29.5v-60q0 -103 -31 -166q-20 -86 -33.5 -274.5t-15.5 -206.5v-168q-25 -22 -32.5 -25.5t-30.5 -3.5q-8 8 -26 27.5 t-30.5 31t-25.5 19.5z" />
<glyph unicode="&#xed;" horiz-adv-x="464" d="M174 1202v33q13 8 79 47.5t95.5 58.5t82 53.5t92 66t73.5 63.5h27h24q0 -14 7.5 -22t24.5 -18t28 -20q0 -23 -3.5 -29.5t-27.5 -23.5q-28 0 -53 -33l-27 -32l-199 -111q-19 -10 -50.5 -34t-58.5 -36t-63 -12q-15 0 -21.5 1t-15 5t-11.5 14.5t-3 28.5zM199 360 q0 46 14 167t14 141v63q17 42 17 123t16 123h53h31q22 -40 22 -111.5t-22 -134.5q0 -21 6.5 -56t6.5 -64t-13 -58q-14 -36 -14 -91t7 -122.5t7 -93.5v-29v-119v-18h-53q-29 10 -47.5 32t-26 54.5t-10 61.5t-4 70t-4.5 62z" />
<glyph unicode="&#xee;" horiz-adv-x="530" d="M68 1237q12 0 21.5 -4.5t14.5 -4.5t13 9q6 -10 44.5 21t88.5 72.5t74 49.5h20l141 -163q31 0 31 20h31q0 65 -62 164.5t-110 126.5q-39 0 -75 -20t-60.5 -45.5t-59 -59.5t-63.5 -53q-5 -5 -19.5 -10.5t-22 -20.5t-7.5 -53v-29zM215 391l29 227v29v84v279q0 14 8 21.5 t16 8.5h8h50q30 -30 30 -86q14 -27 14 -61t-7 -68.5t-7 -42.5v-51v-196v-175q0 -5 -7 -54t-7 -97t14 -76q0 -11 7 -29.5t7 -38t-14 -45.5q0 -15 -8.5 -20.5t-23 0t-29.5 20.5q-15 0 -33 19t-18 41q0 42 -14.5 155.5t-14.5 155.5z" />
<glyph unicode="&#xef;" horiz-adv-x="423" d="M154 1341q0 23 1 33.5t8 28t21 31.5q43 0 77 -24.5t34 -68.5q-29 0 -29 -18q-52 0 -71 2.5t-41 15.5zM184 391v113q29 31 29 114v29v84v279q0 14 8.5 21.5t16.5 8.5h8h49q31 -31 31 -86q14 -27 14 -61t-7 -68.5t-7 -42.5v-51v-196v-175q0 -5 -7 -54t-7 -97t14 -76 q0 -11 7 -29.5t7 -38t-14 -45.5q0 -15 -9 -20.5t-23.5 0t-29.5 20.5q-15 0 -33 19t-18 41q0 42 -14.5 155.5t-14.5 155.5zM375 1341v33q0 3 1 8.5t9 14t23 8.5q15 21 46 7t31 -38v-82h-57q-15 0 -34 17.5t-19 31.5z" />
<glyph unicode="&#xf1;" d="M128 315.5q0 60.5 4.5 128t4.5 82.5v49q0 10 7.5 30t7.5 36t-15 29q0 9 16.5 53t16.5 61q0 24 8 72t16 84l7 37q0 10 7.5 15.5t15.5 5.5l7 1q21 -22 50 -22q33 -69 81 -139q58 -80 173 -263l32 -49l84 -84q97 -173 111 -202h31v90q10 27 10 83t10 83q-5 73 14 195.5 t19 174.5v80v31q-12 8 -14 18t6.5 23t15.5 21t23 24q13 0 32.5 -7.5t32.5 -15.5l14 -8q29 -26 34.5 -70t-5 -83t-29.5 -74v-21l-30 -370v-31v-84l-49 -256h-64q-10 15 -38 29.5t-42 29.5q-13 8 -25.5 29.5t-28.5 55.5t-28 53q-44 44 -92 115.5t-83 132t-87 127t-108 106.5 q0 -39 -14.5 -138t-14.5 -141q0 -56 5.5 -119t5.5 -117.5t-11 -133.5h-21q-22 0 -32.5 1t-28.5 8t-33 21v117q-9 36 -9 96.5zM261.5 1322q4.5 51 26.5 94t54 71q0 14 25.5 28.5t25.5 30.5h82q12 -12 28.5 -21.5t24 -17t7.5 -20.5q12 -11 29.5 -50.5t38.5 -69.5t48 -30 q13 12 15.5 51.5t9 77.5t29.5 50h88v-115q0 -89 -60 -195q-16 -17 -29 -48t-20 -42q-17 0 -48 30t-46 30q-10 21 -46.5 76.5t-68.5 115.5l-22 33q-16 0 -47.5 -38t-43.5 -46q0 -9 7 -35.5t7 -47t-14 -28.5q-9 0 -37 9.5t-44 9.5q-24 46 -19.5 97z" />
<glyph unicode="&#xf2;" horiz-adv-x="847" d="M82 663.5q0 -27.5 16 -51.5v-61q0 -56 1 -85t8.5 -71t21.5 -71q8 -23 24.5 -50t43 -59t42 -49.5t48.5 -52.5t35 -37q18 0 27.5 -1t23.5 -8t28 -22h115q34 15 62.5 40.5t46.5 50t37 66t27.5 67l25.5 76.5t24 73v164v84q-2 8 -11 40.5t-11.5 41t-10.5 35.5t-12 38 t-12.5 32.5t-16 35t-17.5 31t-21 32.5q-27 77 -103 147.5t-151 49.5q-98 -39 -164 -107.5t-111 -173.5v-112q0 -8 -8 -36.5t-8 -56zM205.5 734q7.5 68 25.5 128.5t56.5 102t85.5 41.5h59q23 -23 36 -45t24.5 -48t23.5 -45q37 -78 56.5 -128.5t36.5 -117.5t13.5 -132 t-24.5 -136q-4 -9 -18.5 -45.5t-24.5 -59.5t-30 -49.5t-42 -37.5h-20q-56 25 -96 55t-58 52t-28 50.5t-10.5 39t-0.5 28.5q-16 16 -30.5 41t-28.5 39v145q-13 54 -5.5 122zM211 1550q0 17 3.5 24t25.5 30l30 28q112 -41 162 -147q12 -12 26 -21.5t19.5 -15t5.5 -14.5 q15 -14 23 -31t9 -28.5t1 -33.5q-25 -13 -31.5 -15.5t-21.5 -2.5q-27 0 -48.5 19t-41.5 53.5t-23 38.5q-28 20 -59 20q-12 19 -80 96z" />
<glyph unicode="&#xf3;" horiz-adv-x="878" d="M106 647l19 -31v-16q0 -41 1 -66t8 -63t25.5 -58.5t47.5 -21.5q33 -30 33 -53l10.5 -10.5l11 -11l10 -10t10 -9t9 -7.5t9.5 -7l9 -4.5t9 -3.5t8 -1q20 -20 56 -36.5t52 -16.5h64q99 0 177 79t97 171l62 309q0 115 -31 174q-23 84 -96 162t-162 119q-56 0 -125 -29 t-94 -55q-126 -78 -170 -197v-30q-22 -37 -36 -122.5t-14 -154.5zM207 668q0 203 65 286q15 16 41.5 42t40.5 42q23 11 48 33t46.5 34.5t49.5 12.5l28 -20q37 -22 77.5 -75t55.5 -99q33 -71 40.5 -161t-8 -173t-54 -152t-92.5 -100h-47q-32 22 -82 22q-27 14 -55.5 36.5 t-64.5 55t-56 48.5q-14 14 -15 45t-2.5 66.5t-15.5 56.5zM488 1503q7 15 16 26.5t23.5 25.5t17.5 18q12 12 45 43.5t47 45t43.5 40.5t49.5 44t48 39t56 42q72 -45 81 -51v-31q-27 -33 -83.5 -73t-81.5 -68q0 -23 -4 -30t-27 -24q-78 -95 -144 -116q-19 0 -27.5 0.5t-15 5 t-6.5 14.5q-26 9 -35.5 21.5t-2.5 27.5z" />
<glyph unicode="&#xf4;" horiz-adv-x="763" d="M82 560.5q0 27.5 16 51.5v62q0 56 1 85t8.5 71t21.5 71q52 99 124 179t148 100h115q34 -15 62.5 -40.5t46.5 -50t37 -66t27.5 -67l25.5 -76.5t24 -73v-164v-84q-3 -10 -11 -40.5t-11 -41t-10.5 -36t-12 -37.5t-13 -33.5t-16 -35t-17.5 -31t-21 -32.5q-27 -77 -103 -147 t-151 -49q-98 39 -164 107t-111 173v113q0 8 -8 36t-8 55.5zM205.5 490q7.5 -68 25.5 -128t56.5 -101.5t85.5 -41.5h59q23 23 36 44.5t24.5 47.5t23.5 45q37 78 56.5 128.5t36.5 117.5t13.5 132t-24.5 136q-4 10 -18 46t-24.5 59.5t-30.5 50t-42 37.5h-20q-37 0 -70 -14.5 t-54.5 -35.5t-38 -41.5t-23.5 -35.5l-7 -14v-84q-16 -16 -30.5 -41t-28.5 -39v-146q-13 -54 -5.5 -122zM238 1321q12 0 21.5 -4.5t14.5 -4.5t13 9q23 0 30 3.5t31 25.5q15 0 22.5 7t16.5 27t14 29q39 0 93 51h20q0 -16 30.5 -57.5t30.5 -56.5q13 0 20.5 -7.5t15 -21.5 t16.5 -21h28q31 1 31 21h31q0 65 -62 164.5t-110 126.5q-39 0 -75 -20t-60.5 -45.5t-59 -59.5t-63.5 -53q-5 -5 -19.5 -10.5t-22 -20.5t-7.5 -53v-29z" />
<glyph unicode="&#xf5;" horiz-adv-x="950" d="M119 446v197q3 8 14.5 37.5t15.5 39.5t12 34t10.5 38.5t5.5 36t3 41.5q22 13 38 42.5t32.5 56.5t40.5 35q11 15 62 30t73 29h111q248 -101 290 -340q17 -47 23 -136t-14.5 -213t-75.5 -214q0 -17 -10.5 -29.5t-10.5 -21.5q-25 -15 -68.5 -59t-72.5 -54q-23 -19 -50 -24 t-57 4t-52 19t-54 27.5t-43 22.5q-79 61 -123.5 130t-68.5 161q-13 20 -14.5 41.5t-2.5 38.5t-14 30zM150 1292q30 31 30 49q24 15 64 58.5t67 54.5q13 0 50.5 15.5t64.5 15.5q25 -13 97.5 -82.5t107.5 -79.5q0 7 10 36t10 46v49q0 14 8 22t24 18.5t26 23.5q3 0 8 -1 t13.5 -9t8.5 -23q64 -57 -30 -305h-58q-18 0 -84 53q-22 26 -73 70t-68 71q-15 -10 -54.5 -34.5t-68.5 -44t-43 -33.5q0 -19 -1 -28t-7 -17.5t-19 -8.5h-30q-5 6 -22 18t-24 25.5t-7 40.5zM233 530q-21 -100 24.5 -201.5t119.5 -168.5q0 -16 23 -34.5t54.5 -25t63.5 8.5 q60 15 125.5 99.5t65.5 147.5q23 44 23 116t-23 112q0 10 7 28t7 33t-14 29q-12 57 -27 101t-40 87.5t-65 67.5t-92 24h-59q-8 -15 -20 -23t-32.5 -16t-31.5 -14q-37 -28 -56.5 -70.5t-33 -105.5t-19.5 -82v-113z" />
<glyph unicode="&#xf6;" horiz-adv-x="827" d="M164.5 570q-6.5 156 17.5 237v147q23 36 90 103t105 92q92 0 112 31q40 0 72.5 -16.5t50 -36t50 -60t53.5 -63.5q42 -27 80 -134v-112q15 -16 15 -32t-7.5 -31.5t-7.5 -20.5q0 -104 -11.5 -195t-28.5 -147t-33.5 -97t-27.5 -58l-12 -17q-18 -41 -68.5 -78t-95.5 -37 q-52 -21 -122 22.5t-101 92.5q-16 32 -82 176q-42 78 -48.5 234zM266 723q0 -52 17.5 -168.5t11.5 -169.5q10 -15 31 -57.5t41 -71.5t43 -37q0 -15 16 -36t33.5 -28.5t29.5 5.5q68 33 113 112q21 62 80 197v61q17 54 14 124t-13.5 125t-23.5 91q-10 11 -20 26t-17 20.5 t-20 5.5q0 21 -7 41.5t-24.5 42t-24.5 29t-28 28.5h-49q0 -15 -9.5 -22t-19.5 -8t-30 -1q-8 -7 -34.5 -25.5t-46 -38t-34.5 -46.5v-52q-29 -32 -29 -63v-84zM328 1341q0 23 1 33.5t8 28t21 31.5q43 0 77 -24.5t34 -68.5q-29 0 -29 -18q-52 0 -71 2.5t-41 15.5zM549 1341v33 q0 3 1 8.5t9 14t23 8.5q15 21 46 7t31 -38v-82h-57q-15 0 -34 17.5t-19 31.5z" />
<glyph unicode="&#xf7;" d="M100 725v31l21 30h31q30 0 71 -15t72 -15q23 -14 58 -14t78 7t58 7h195h252q17 0 29.5 -15.5t21.5 -15.5q31 0 31 -53v-33q-9 0 -35 -6.5t-52.5 -6.5t-51.5 13h-23h-61h-50h-307h-110q-30 0 -87.5 16.5t-88.5 16.5q-24 15 -30.5 22t-21.5 31zM489 918q0 16 14.5 47 t14.5 45q36 10 56.5 10t33 -5t21.5 -5q11 0 30.5 -25t28 -49.5t-3.5 -36.5q0 -50 -35.5 -73.5t-79.5 10.5q-11 0 -39 37t-41 45zM511 270q12 36 38 64q0 9 5 14t10 6h5h60q11 -11 27 -22.5t26.5 -19t21 -19t15 -24t3.5 -33.5t-9 -48q-14 0 -29.5 -15t-32.5 -15 q-12 -7 -26 -7.5t-24 2t-24.5 13t-21 16t-21 19.5t-16.5 16q-19 17 -7 53z" />
<glyph unicode="&#xf9;" horiz-adv-x="784" d="M77 861.5q-8 49.5 7 84.5q0 20 1 30t8.5 20t21.5 10h49q0 -16 14.5 -31t14.5 -29v-170v-90q0 -83 34 -133q0 -69 18.5 -115.5t65.5 -91.5q0 -19 59 -67t83 -48q16 26 33.5 74.5t17.5 69.5q37 68 70.5 178t43.5 133v115v223q0 10 -8 29.5t-8 34.5t16 28q0 10 7.5 16t24 15 t28.5 20q14 0 32.5 -17.5t18.5 -33.5q31 -29 31 -201v-53q0 -176 -31 -227q-16 -15 -23.5 -33.5t-8.5 -33.5t-1 -48q-44 -194 -112 -256q-10 -59 -36.5 -97t-64.5 -38q-117 0 -221.5 102.5t-128.5 229.5q-49 161 -49 207q13 20 7 82t-14 111.5zM193 1479v92h1h1h1h1h1h1h1h1 h1h1h1h1h1h1h1h1h1h1h1h9h49q21 -20 32 -31.5t21.5 -28.5t10.5 -32q7 -7 37 -33.5t46 -43.5t38 -43.5t32.5 -53t10.5 -52.5q-16 -10 -16 -17q0 -3 -15 -3q-8 -14 -20.5 -14t-30 7t-27.5 7q-40 62 -97.5 133.5t-98.5 112.5z" />
<glyph unicode="&#xfa;" horiz-adv-x="858" d="M79 861.5q-8 49.5 7 84.5q0 20 1 30t8.5 20t21.5 10h49q0 -16 14.5 -31t14.5 -29v-170v-90q0 -83 34 -133q0 -69 18.5 -115.5t65.5 -91.5q0 -19 59 -67t83 -48q16 26 33.5 74.5t17.5 69.5q30 56 51.5 128t30.5 117t33 181v223q0 10 -8 29.5t-8 34.5t16 28q0 10 7.5 16 t23.5 15t28 20q14 0 32.5 -17.5t18.5 -33.5q31 -29 31 -201v-53q0 -176 -31 -227q-16 -15 -23.5 -33.5t-8.5 -33.5t-1 -48q-3 -45 -25.5 -100t-47 -98t-42.5 -96t-14 -97h-3h-3h-3h-3h-3h-3h-3h-3h-8q-158 0 -267.5 99.5t-134.5 232.5q-49 161 -49 207q13 20 7 82t-14 111.5 zM281 1253q32 32 88.5 87.5t85.5 84.5q0 22 11.5 39t39.5 45q10 10 30.5 30t41 40.5t43.5 44.5q19 0 29.5 -1t25 -9t22.5 -23v-51q-23 -24 -74.5 -79t-91.5 -97t-77 -78q-6 -9 -16.5 -28t-15 -25t-15.5 -15.5t-26 -12.5t-38 -3h-31q-24 23 -28 29.5t-4 21.5z" />
<glyph unicode="&#xfb;" horiz-adv-x="950" d="M102 946v78h31q13 14 24.5 14t16.5 -7l6 -7q29 -21 37.5 -55.5t12 -74t16.5 -63.5v-86q0 -143 30 -192q0 -11 1 -22t2.5 -18.5t5 -18.5t5.5 -16.5t8 -17t8 -15.5t10 -18.5t10 -18.5q4 -5 43 -64.5t69 -79.5q40 39 76.5 104t53.5 107t52 144t44 126l51 279q0 33 14 76 t14 67q0 86 29 119q0 3 1 8.5t9 14t23 8.5q37 0 56 -25t19.5 -63.5t-6 -74.5t-18.5 -67l-113 -452q-31 -91 -54.5 -152.5t-61.5 -140t-76 -129.5q0 -14 -8 -21.5t-26 -18.5t-30 -23q-44 0 -82 14t-66 34t-53.5 55.5t-41.5 65t-33.5 77.5t-26 77.5t-22.5 79.5q-29 51 -29 192 q0 30 -15.5 95.5t-15.5 105.5zM221 1366q0 65 62 164.5t110 126.5q39 0 75 -20t60.5 -45.5t59 -59.5t63.5 -53q5 -5 19.5 -10.5t22 -20.5t7.5 -53v-29q-12 0 -21.5 -4.5t-14.5 -4.5t-13 9q-23 0 -30 3.5t-31 25.5q-15 0 -22.5 7t-16.5 27t-14 29q-39 0 -93 51h-20 q0 -15 -31 -57t-31 -57q-13 0 -20 -7.5t-14.5 -21t-16.5 -20.5h-28q-31 0 -31 20h-31z" />
<glyph unicode="&#xfc;" horiz-adv-x="942" d="M105 906q-9 92 4 181h63h31q18 -63 18 -256q31 -31 31 -114q10 -29 30.5 -87.5t28.5 -79.5t23 -55t28.5 -53t30.5 -34q0 -23 18.5 -52.5t44.5 -50.5t54 -27t47 19q71 0 113 195q31 83 61.5 207t30.5 216q-15 14 -15 29t7.5 33.5t7.5 28.5q-18 45 -29.5 89t-15 89.5 t11.5 68.5q0 4 1 9.5t9 14.5t23 9h49q0 -17 15.5 -43t15.5 -41q9 -16 9 -37t-4.5 -45t-4.5 -33q26 -114 20.5 -245t-32.5 -253t-68 -214q1 -27 -37.5 -77t-89 -87t-78.5 -29q-9 3 -22 3t-30.5 -1.5t-27.5 -1.5q-15 14 -36 26t-54 28.5t-53 27.5q-104 104 -162 371 q-14 14 -15 28.5t-2.5 36t-15.5 45.5q-25 69 -34 161zM332 1509q13 0 20 7.5t8 15.5v8q25 0 36.5 -0.5t24.5 -3.5t18 -9.5t5 -17.5q22 -23 25.5 -29.5t3.5 -21.5h-29q0 -15 -7.5 -23t-14.5 -9l-8 -1q-8 14 -37 35t-45 49zM543 1494.5q0 15.5 7 30.5l7 15q37 21 75 7.5 t38 -38.5q20 -23 8 -37t-39 -14q-25 -21 -53.5 -9t-28.5 30q-14 0 -14 15.5z" />
<glyph unicode="&#x178;" horiz-adv-x="952" d="M113 1047l32 65h82l60 -65q72 -43 112 -80q36 -59 109 -82q40 29 90 82q15 9 57.5 48t85.5 68t78 29h29q18 -23 21 -34.5t3 -59.5q-38 -10 -69 -29.5t-72.5 -56.5t-54.5 -47q-9 -10 -24.5 -22.5t-27.5 -27t-26 -40.5q0 -5 7 -31.5t7 -55.5t-14 -53q0 -141 31 -315 q0 -23 9 -87.5t9 -109.5h-18h-62q-11 10 -23.5 19t-19.5 13t-11.5 10.5t-4.5 15.5v118q-14 25 -14 123t-15 123q0 20 6.5 62t6.5 71t-13 43q-39 45 -107 96t-140.5 105t-118.5 105zM323 1333q0 13 6.5 29t6.5 27h63h52q21 0 24.5 -3.5t3.5 -27.5q-20 0 -24 -11.5t-4 -41.5 q-32 -31 -52 -31q-14 0 -29.5 8t-24.5 16l-9 7q-13 15 -13 28zM567 1305q0 21 1 29.5t8 16t22 7.5h31q47 0 47 -21v-63l-29 -29q-20 0 -80 60z" />
<glyph unicode="&#x2c6;" d="M154 1190q2 4 22.5 63t74 181t152.5 325q6 0 8 5.5t1.5 13t1.5 19.5t8 22h31q32 0 51.5 -9t27.5 -29t9.5 -34t1.5 -41q57 -39 106 -85t145 -143q19 -20 29 -30q21 -33 32 -48.5t32.5 -41t50.5 -53.5q33 -20 67 -75.5t13 -88.5q0 -14 -13.5 -29t-13.5 -31 q-11 16 -55.5 31.5t-58.5 28.5q-21 49 -21 80q-17 17 -47 58t-45 56q-25 31 -94 88.5t-97 89.5q-11 7 -22.5 17t-19 17.5t-21 21.5t-21.5 22q-18 -38 -72 -133.5t-84.5 -169t-37.5 -147.5q-17 0 -33 -14.5t-31 -14.5q0 13 -7 20t-14 8l-7 1q-9 13 -22 22t-20 14t-7 13z" />
<glyph unicode="&#x2000;" horiz-adv-x="938" />
<glyph unicode="&#x2001;" horiz-adv-x="1876" />
<glyph unicode="&#x2002;" horiz-adv-x="938" />
<glyph unicode="&#x2003;" horiz-adv-x="1876" />
<glyph unicode="&#x2004;" horiz-adv-x="625" />
<glyph unicode="&#x2005;" horiz-adv-x="469" />
<glyph unicode="&#x2006;" horiz-adv-x="312" />
<glyph unicode="&#x2007;" horiz-adv-x="312" />
<glyph unicode="&#x2008;" horiz-adv-x="234" />
<glyph unicode="&#x2009;" horiz-adv-x="375" />
<glyph unicode="&#x200a;" horiz-adv-x="104" />
<glyph unicode="&#x2010;" horiz-adv-x="739" d="M104 647l21 21q63 0 106.5 -12.5t98.5 -39.5h80h57q29 -17 73 -16t68 -16q24 0 53 -28t29 -50l-24 -31q-11 -15 -38 -15t-61 7.5t-43 7.5q-42 16 -142.5 31t-143.5 29q-15 3 -43.5 7t-39.5 7.5t-26 14t-20 30.5t-5 53z" />
<glyph unicode="&#x2011;" horiz-adv-x="739" d="M104 647l21 21q63 0 106.5 -12.5t98.5 -39.5h80h57q29 -17 73 -16t68 -16q24 0 53 -28t29 -50l-24 -31q-11 -15 -38 -15t-61 7.5t-43 7.5q-42 16 -142.5 31t-143.5 29q-15 3 -43.5 7t-39.5 7.5t-26 14t-20 30.5t-5 53z" />
<glyph unicode="&#x2012;" horiz-adv-x="739" d="M104 647l21 21q63 0 106.5 -12.5t98.5 -39.5h80h57q29 -17 73 -16t68 -16q24 0 53 -28t29 -50l-24 -31q-11 -15 -38 -15t-61 7.5t-43 7.5q-42 16 -142.5 31t-143.5 29q-15 3 -43.5 7t-39.5 7.5t-26 14t-20 30.5t-5 53z" />
<glyph unicode="&#x2013;" horiz-adv-x="1306" d="M63 651q-8 14 7 21.5t8 19.5q34 20 81 34.5t77 20t86.5 13.5t68.5 10q121 9 274.5 11t284.5 12q29 -21 68.5 -23.5t75.5 5t71 13.5t64 -2.5t45 -37.5q9 -17 0 -43.5t-29 -36.5q-57 6 -163.5 11.5t-147.5 8.5q-69 -15 -127.5 -14.5t-94 8.5t-99 7t-142.5 -19 q-19 5 -38.5 5t-39.5 -4t-37.5 -9t-44.5 -12.5t-49 -12.5l-26 -16q-56 2 -111 -27q-27 9 -33 13t-12 16z" />
<glyph unicode="&#x2014;" horiz-adv-x="1871" d="M78 651q-8 14 6.5 21.5t7.5 19.5q34 20 81 34.5t77.5 20t87 13.5t68.5 10q121 9 530 11t539 12q118 -32 206 -11q20 12 27.5 12t32.5 -12q20 11 32 1t25 -35q9 -17 0 -43.5t-29 -36.5q-57 6 -163.5 11.5t-147.5 8.5q-37 0 -80 -24q-142 21 -432 24t-461 -18 q-38 9 -99 -3.5t-145.5 -40t-101.5 -32.5q-27 9 -33 13t-12 16z" />
<glyph unicode="&#x2018;" horiz-adv-x="495" d="M143.5 1117.5q5.5 38.5 10.5 63t17.5 62l14.5 43.5q0 19 1 29t8 24.5t22 30.5h33h29q4 -7 26.5 -36.5t22.5 -47.5q-26 -34 -48 -98t-26.5 -131.5t25.5 -110.5q0 -34 79 -80q21 0 29.5 -1t16.5 -8t8 -23v-31h-21h-63q-12 12 -41 29.5t-49.5 31t-20.5 21.5q-49 49 -49 90 q-17 33 -23.5 68.5t-1 74z" />
<glyph unicode="&#x2019;" horiz-adv-x="475" d="M133 1430l31 20h84q0 -18 49 -80q33 -45 54 -100t26.5 -120t-19.5 -122q-17 -17 -32 -42.5t-29 -39.5q-6 -8 -16.5 -32.5t-24 -36t-39.5 -11.5q0 -9 -3 -12.5t-9 -2t-12.5 5t-14.5 6.5t-14 3q30 10 51 61t37.5 127t21.5 91q-5 15 -13 40.5t-12.5 37t-13 29t-20 32.5 t-29.5 33q-9 20 -23.5 38t-22 33.5t-7.5 41.5z" />
<glyph unicode="&#x201c;" horiz-adv-x="702" d="M123.5 1009q-16.5 77 3.5 165q41 149 221 342l35 -35q23 0 34.5 -29.5t-3.5 -52.5q0 -13 -8 -20t-16 -8l-7 -1q0 -25 -4.5 -29t-30.5 -4q0 -9 -8 -22t-21.5 -31t-19.5 -29q-81 -143 -113 -227q0 -26 11.5 -69t11.5 -74h-23q-46 47 -62.5 124zM313.5 961q4.5 84 40 166 t81 146t89.5 97q0 20 11.5 24.5t39.5 4.5h29q16 -22 18.5 -30t2.5 -32q-95 -82 -148 -185.5t-94 -266.5q0 -8 7.5 -20.5t15.5 -21.5l8 -9l-31 -31h-35q-39 74 -34.5 158z" />
<glyph unicode="&#x201d;" horiz-adv-x="651" d="M98 1370q0 22 4 29.5t29 30.5q19 0 33 -3t22.5 -7t16.5 -14.5t12 -17t12 -24t13 -27.5q59 -91 77 -136q41 -103 7 -206q-8 -12 -30.5 -77t-53.5 -84q-25 0 -38 19t7 32v3v3v3v3v3v3v3v9q31 31 31 199q0 26 -14 60.5t-40.5 80.5t-33.5 62q-7 7 -22 14.5t-23.5 15.5 t-8.5 23zM373 1481q0 4 0.5 10t8 15.5t21.5 9.5h33q35 -25 57.5 -59t22.5 -58q12 -24 40.5 -67t41.5 -77q6 -23 8 -47t-1 -49.5t-5.5 -44.5t-11.5 -47.5t-13 -41.5t-15 -43t-13 -36q-4 -9 -18 -39.5t-23 -46t-25 -37t-35.5 -31.5t-42.5 -10v21q-13 19 -5.5 31t23 28.5 t15.5 22.5q14 27 21.5 55t14.5 62.5t13 56.5q0 12 15.5 62t15.5 83q-10 17 -27 56.5t-37.5 75.5t-48.5 63q0 13 -15 33.5t-15 48.5z" />
<glyph unicode="&#x2022;" horiz-adv-x="454" d="M47 731q0 14 13.5 32.5t42 48.5t32.5 34h84h148q0 -18 10 -47t10 -37q19 -43 16 -79.5t-15.5 -64.5t-37.5 -51t-50 -37.5t-52 -23.5q-44 0 -93 27.5t-49 50.5q-14 15 -21.5 30.5t-8.5 23.5v9q-13 9 -20 30t-8 37z" />
<glyph unicode="&#x202f;" horiz-adv-x="375" />
<glyph unicode="&#x2039;" horiz-adv-x="661" d="M90 489q14 14 21.5 27t8.5 19l1 6q19 47 62.5 96t91 98.5t69.5 91.5q2 3 16 23.5t24.5 35t30.5 36.5t40 39q4 -1 18 -6t17 -6.5t13.5 -6.5t13 -9t9 -11.5t8 -17t3.5 -22.5t2 -30q-46 -35 -84 -86q-6 -33 -32 -60.5t-60.5 -54t-49.5 -47.5q-16 -32 -44.5 -61t-39.5 -54 q34 -21 94 -58t93.5 -58t77 -51.5t75.5 -57.5q0 -21 -2 -32.5t-17 -27t-44 -24.5h-29q-8 7 -23.5 29.5t-30.5 38.5t-28 16q-30 17 -72 40.5t-70.5 39.5t-51.5 31q-4 2 -21 11t-21.5 11.5t-18 10.5t-17.5 12.5t-13 13t-11.5 16t-5.5 17.5t-3 22z" />
<glyph unicode="&#x203a;" horiz-adv-x="692" d="M117 233q10 12 24.5 22t21.5 17.5t7 20.5q25 33 97.5 104t105.5 123q21 19 51.5 55t30.5 48q-24 25 -62 43t-80 18q-14 13 -54.5 39t-57.5 43l-84 117q13 0 26 14t27 14h31q47 -48 123 -89t149.5 -81.5t116.5 -87.5q0 -36 -13 -57t-36.5 -39.5t-34.5 -36.5 q-6 -27 -15.5 -50.5t-25.5 -46.5t-27 -37t-33.5 -39t-31.5 -36q-23 -14 -30.5 -19.5t-29.5 -27.5q0 -17 -20.5 -33t-28.5 -30q20 -39 -9.5 -59t-69 -15.5t-42.5 23.5q-13 15 -19 29.5t-6.5 23t-0.5 30.5z" />
<glyph unicode="&#x205f;" horiz-adv-x="469" />
<glyph unicode="&#x2122;" horiz-adv-x="1744" d="M43 1214q33 1 33 19h80h82q17 0 59 17.5t51 17.5h33l80 30h84q108 0 141 33q48 0 81.5 -25.5t33.5 -72.5q21 -13 -14 -30q-39 -19 -101 -19q-26 -14 -82 -14t-80 -15q-4 0 -9 -1t-14 -8.5t-9 -21.5v-311q15 -24 22.5 -67t8.5 -71.5t1 -88.5h-3h-3h-3h-3h-3h-3h-3h-3h-8 h-31q-11 12 -32.5 30.5t-34.5 31.5t-13 22q0 16 15.5 30.5t15.5 28.5q-31 117 -31 395q-84 0 -143 -20q-30 -12 -52.5 -18.5t-51 -7t-47 11.5t-31.5 43t-13 81zM895 1060.5q0 57.5 14 94.5q0 15 -3.5 42t-4 41.5t9 31.5t31.5 28q32 0 56 -32t24 -52q37 -45 68.5 -87 t45 -60.5t26 -34t20 -19t18.5 -3.5l221 321h49q15 -44 35.5 -80t47 -73t36.5 -54q132 -337 172 -475q8 -14 8 -29.5t-4 -33t-4 -25.5h-32h-31q-16 -14 -38 29t-47 120.5t-51.5 161.5t-59 165t-60.5 118v-31l-49 -53q-14 -27 -31.5 -49.5t-57.5 -70.5t-83 -105 q-40 6 -67.5 26.5t-41.5 45t-38.5 60.5t-51.5 62v-30v-84v-144q0 -14 3.5 -34.5t3.5 -30.5t-8.5 -23t-29.5 -24h-18l-31 30q-68 60 -33 82v31q0 38 -7 114t-7 133.5z" />
<glyph unicode="&#x25fc;" horiz-adv-x="1228" d="M0 0v1229h1229v-1229h-1229z" />
</font>
</defs>
</svg>
