<svg id="Layer_1" data-name="Layer 1" xmlns="http://www.w3.org/2000/svg" viewBox="0 0 23.43 23.43"><defs><style>svg{cursor:pointer!important}.cls-1{fill:#fff}</style></defs><title>close-header-button</title><path class="cls-1" d="M-171 402.29A11.71 11.71 0 0 0-182.71 414 11.71 11.71 0 0 0-171 425.72 11.71 11.71 0 0 0-159.29 414 11.71 11.71 0 0 0-171 402.29zm0 22.23A10.53 10.53 0 0 1-181.51 414 10.53 10.53 0 0 1-171 403.49 10.53 10.53 0 0 1-160.49 414 10.53 10.53 0 0 1-171 424.52z" transform="translate(182.71 -402.29)"/><path class="cls-1" d="M-165.34 408.53a.6.6 0 0 0-.85 0l-4.81 4.81-4.81-4.81a.6.6 0 0 0-.85 0 .6.6 0 0 0 0 .85l4.81 4.81-4.81 4.81a.6.6 0 0 0 0 .85.6.6 0 0 0 .42.18.6.6 0 0 0 .42-.18L-171 415l4.81 4.81a.6.6 0 0 0 .42.18.6.6 0 0 0 .42-.18.6.6 0 0 0 0-.85l-4.81-4.81 4.81-4.81a.6.6 0 0 0 .01-.81z" transform="translate(182.71 -402.29)"/></svg>