<svg id="Layer_1" data-name="Layer 1" xmlns="http://www.w3.org/2000/svg" viewBox="0 0 23.25 23.43"><defs><style>.cls-1{fill:#fff}</style></defs><title>help-icon</title><path class="cls-1" d="M314.78 388.6a11.57 11.57 0 0 0-16.36-.08l-.08.08a11.79 11.79 0 0 0 0 16.57 11.57 11.57 0 0 0 16.36.09l.09-.09a11.78 11.78 0 0 0-.01-16.57zm-.39 15.4l-2.15-2.16a7.6 7.6 0 0 0 0-9.89l2.17-2.18a10.68 10.68 0 0 1 0 14.24zm-3.28-2.54a6.37 6.37 0 0 1-9 0 6.49 6.49 0 0 1 0-9.09 6.37 6.37 0 0 1 9 0 6.49 6.49 0 0 1 0 9.13zm2.51-12.46l-2.17 2.18a7.45 7.45 0 0 0-9.78 0l-2.19-2.2a10.49 10.49 0 0 1 14.13 0zm-14.9.77l2.19 2.2a7.6 7.6 0 0 0 0 9.85l-2.19 2.18a10.7 10.7 0 0 1 0-14.24zm.76 15l2.17-2.18a7.45 7.45 0 0 0 9.82 0l2.15 2.16a10.49 10.49 0 0 1-14.13 0z" transform="translate(-294.93 -385.17)"/></svg>