<svg xmlns="http://www.w3.org/2000/svg" viewBox="0 0 139.97 239.88"><defs><style>.a{fill:#df6428}.b{fill:none;stroke:#df6428;stroke-linecap:round;stroke-linejoin:round;stroke-width:4.62px;stroke-dasharray:1.18 11.76}.c{clip-path:url(#a)}</style><clipPath id="a" transform="translate(-236.01 -219.99)"><path class="a" d="M303.33 248.64c1-2.74 1.3-4.14 2.91-9.42 2-6.57 6.32-11.72 13.31-9.59 8.17 2.5 6.27 10.77 4.95 14.13-1.06 2.69-1.9 5.46-3.65 9.95-1.4 3.63 1.6 3.74 3.21 3.39 1.83-.41 7.16-3.16 10.49-4.72 2.47-1.13 7.06-3.9 9.62-1.22s-.32 7.34-3.44 10.13-11.38 6.26-14 7.28-3.51 2.47-2.26 3.27 4.91 1.43 6 1.57c.91.11 1.79.34 1.8 1 0 .8-2.09 2.42-7.19 4.12-2.72.91-7.69 1.56-10.49 1-4.4-.81-5.1-1.51-7.15-.73-1.53.6-1.65 1.83-3.87 2.71s-5.5.7-8 .27-6.89-.84-7.33-2.85c-.19-.81.68-1.3 1.41-2.1s1.37-2.35-1.8-3c-.84-.18-9.59-1.58-15-4.35s-7.55-7.06-7-8.55c.47-1.23 1.7-1.35 3.37-1 1.92.36 10.3 2.65 12.83 2.67 1 0 1.85-.2 2.22-.84 1-1.74-2.06-3.84-4.57-6.88-3.62-4.31-10.52-11.51-5.32-17.93 3.44-4.25 10.22-1.49 13 1.79 2.16 2.51 5.92 7.64 8.82 11.12a4.84 4.84 0 0 0 3.54 2c1.45 0 2.76-1 3.51-3.18m-.48-19.53c-2 3.93-4.42 12.39-4.42 12.39s-.22.63-.65-.1c-.29-.48-3.68-5.1-5.39-7.18-2-2.39-10.67-11.58-20.68-6.37-9 4.73-5.56 16.21-2.79 20.53 1.68 2.62 4.93 6.72 5.84 7.87.16.2.13.27-.13.21l-6.47-1.69c-3.31-.85-6.5-.71-7.46.71-.67 1-1.1 2.64.25 5.07 2.65 4.78 9.95 12.35 21.92 14.84.24 0 .21.24 0 .59a2.72 2.72 0 0 0 .18 3.08c1.78 2.13 3.75 2.93 11.71 4.3 11 1.9 14.93-1.84 15.39-2.33a.13.13 0 0 1 .13 0 27.1 27.1 0 0 0 17.09-1.57c7.69-3.26 10.63-6.24 10.68-8.05s-4-1.45-5.16-1.76c-.37-.1-.26-.27-.05-.4.54-.34 1.89-.9 3-1.47s12.35-6.24 14.57-15.81-6.44-9.62-11.11-7.66-9.07 4.19-10.05 4.64c-.16.07-.21 0-.14-.15a62 62 0 0 0 3-9.28c1-4.54.52-17-11.76-19.26a14.93 14.93 0 0 0-2.7-.24 16.92 16.92 0 0 0-14.82 9.12"/></clipPath></defs><title>mobile-button</title><circle class="b" cx="70.32" cy="196.39" r="41.18"/><path class="a" d="M53.61 191.8a.36.36 0 0 1 .37.35.55.55 0 0 1-.17.35 4.25 4.25 0 0 1-3.42 1.39c-2.84 0-4.56-1.87-4.56-4.79a4.57 4.57 0 0 1 4.65-4.87 4.14 4.14 0 0 1 3.33 1.28.61.61 0 0 1 .18.4.46.46 0 0 1-.49.46c-.27 0-.46-.17-.66-.44a2.52 2.52 0 0 0-2.32-1.1c-1.94 0-3.15 1.81-3.15 4.21s1.08 4.19 3.15 4.19a3.3 3.3 0 0 0 2.56-1.1c.22-.24.33-.33.53-.33zM55.99 180.49c0-.38.33-.59.73-.59s.73.2.73.59v12.62c0 .38-.33.59-.73.59s-.73-.2-.73-.59zM60.12 181.17c0-.4.35-.73.93-.73s.93.33.93.73-.37.75-.93.75-.93-.33-.93-.75zm.2 3.82c0-.38.33-.59.75-.59s.71.2.71.59v8.12c0 .38-.31.59-.71.59s-.75-.2-.75-.59zM71.72 191.65h-.09a3.54 3.54 0 0 1-3.46 2.23c-2.78 0-4.34-2.09-4.34-4.79a4.51 4.51 0 0 1 4.61-4.87 3.31 3.31 0 0 1 3.22 2.1h.09v-1.35c0-.37.29-.57.7-.57s.71.18.71.55v12.11c0 .38-.33.58-.73.58s-.73-.2-.73-.58zm-6.35-2.6c0 2.54 1.21 4.15 3.06 4.15 2.18 0 3.35-1.88 3.35-4.15s-1.12-4.15-3.2-4.15-3.2 1.68-3.2 4.11zM83.99 193.14c0 .37-.31.57-.71.57s-.68-.2-.68-.57v-1.26h-.09a3.2 3.2 0 0 1-3.09 2c-2.43 0-3.49-1.37-3.49-3.71v-5.16c0-.38.33-.59.73-.59s.73.2.73.59v5.34c0 1.45.49 2.86 2.36 2.86 1.65 0 2.8-1.43 2.8-3.46v-4.74c0-.38.33-.59.73-.59s.73.2.73.59zM93.41 192.13c.24-.26.35-.31.51-.31a.34.34 0 0 1 .37.35.57.57 0 0 1-.15.35 4.72 4.72 0 0 1-3.64 1.37c-2.67 0-4.48-1.76-4.48-4.74 0-2.8 1.72-4.92 4.57-4.92a3.8 3.8 0 0 1 4 4.1v.16c0 .37-.18.64-.7.64h-6.4v.15c0 2.23 1.1 4 3.13 4a3.45 3.45 0 0 0 2.79-1.15zm-.18-3.68v-.28c0-2.23-1.06-3.35-2.69-3.35s-2.82 1.24-3 3.62zM60.53 206.36c.38 0 .7.2.7.57v8.16c0 .37-.33.57-.71.57s-.68-.2-.7-.57v-1.5h-.07a3.49 3.49 0 0 1-3.4 2.27c-2.73 0-4.17-2-4.17-4.74 0-2.93 1.87-4.94 4.52-4.94a3.18 3.18 0 0 1 3.07 2h.07v-1.3a.62.62 0 0 1 .69-.52zm-6.86 4.74c0 2.58 1.13 4 2.91 4 2 0 3.24-1.83 3.24-4.08s-1-4.19-3.06-4.19c-1.87.03-3.09 1.77-3.09 4.27zM71.16 213.61h-.09a3.54 3.54 0 0 1-3.46 2.23c-2.78 0-4.34-2.09-4.34-4.79a4.51 4.51 0 0 1 4.61-4.87 3.31 3.31 0 0 1 3.22 2.11h.09v-1.36c0-.37.29-.57.7-.57s.71.18.71.55v12.1c0 .38-.33.59-.73.59s-.73-.2-.73-.59zm-6.35-2.6c0 2.54 1.21 4.15 3.06 4.15 2.18 0 3.35-1.88 3.35-4.15s-1.12-4.15-3.2-4.15-3.21 1.68-3.21 4.15zM83.4 215.09c0 .37-.31.57-.71.57s-.68-.2-.68-.57v-1.26h-.09a3.19 3.19 0 0 1-3.09 2c-2.43 0-3.49-1.37-3.49-3.71v-5.18c0-.38.33-.59.73-.59s.73.2.73.59v5.34c0 1.45.49 2.85 2.36 2.85 1.65 0 2.8-1.43 2.8-3.46v-4.74c0-.38.33-.59.73-.59s.73.2.73.59zM86.05 203.13c0-.4.35-.73.93-.73s.93.33.93.73-.37.75-.93.75-.93-.33-.93-.75zm.2 3.82c0-.38.33-.59.75-.59s.71.2.71.59v8.12c0 .38-.31.58-.71.58s-.75-.2-.75-.58zM12.32 79.77c8.41 0 12.32 5.32 12.32 10.46v11.31h-5.31V90.23c0-3.22-1.87-8.42-7-8.42s-7 5.2-7 8.42v11.31H-.01V90.23c0-5.14 3.9-10.46 12.32-10.46M85.51 101.88c-8.42 0-12.32-5.32-12.32-10.46v-11.3h5.31v11.3c0 3.22 1.86 8.42 7 8.42s7-5.19 7-8.42v-11.3h5.31v11.3c0 5.14-3.9 10.46-12.32 10.46M46.11 100.01a9.14 9.14 0 0 1-4.32 1.84c-5.39.85-12.88-2.68-13.15-10.51-.28-8 7.6-11.38 12.74-11.25 8.69.23 11.75 6.79 11.75 10.52v11h-5.34V90.63c0-2.37-1.1-8.47-6.58-8.62s-7.11 4.86-7.12 8.56c0 2.36.51 8.23 6.7 8.58 1.9.11 4.6-.42 5.31-1.06zM69.91 104.69a8.77 8.77 0 0 1-4.89.13c-2.5-.65-6.64-1.78-6.64-10.37V70.69h5.39v9.44h4.94v3.33h-4.94s.12 6.68 0 12.09c-.11 4.81 1.36 6.46 2.42 7a5.85 5.85 0 0 0 3.72.24zM102.86 89.53c0-5.28 2.73-9 7.55-9.5 3.39-.34 4.61.3 4.61.3v2.15a7.32 7.32 0 0 0-3.74.09c-2.19.67-3.05 4-3.05 5.1v14h-5.37zM132.99 100.01a9.13 9.13 0 0 1-4.31 1.84c-5.39.85-12.87-2.68-13.15-10.51-.28-8 7.6-11.38 12.74-11.25 8.69.23 11.76 6.79 11.76 10.52v11h-5.34V90.63c0-2.37-1.1-8.47-6.58-8.62s-7.11 4.86-7.12 8.56c0 2.36.51 8.23 6.7 8.58 1.9.11 4.6-.42 5.31-1.06zM67.32 28.65c1-2.74 1.3-4.14 2.91-9.42 2-6.57 6.32-11.72 13.31-9.59 8.17 2.5 6.27 10.77 4.95 14.13-1.06 2.69-1.9 5.46-3.65 9.95-1.4 3.63 1.6 3.74 3.21 3.39 1.83-.41 7.16-3.16 10.49-4.72 2.47-1.13 7.06-3.9 9.62-1.22s-.32 7.34-3.44 10.13-11.38 6.26-14 7.28-3.51 2.47-2.26 3.27 4.91 1.43 6 1.57c.91.11 1.79.34 1.8 1 0 .8-2.09 2.42-7.19 4.12-2.72.91-7.69 1.56-10.49 1-4.4-.81-5.1-1.51-7.15-.73-1.53.6-1.65 1.83-3.87 2.71s-5.5.7-8 .27-6.89-.84-7.33-2.85c-.19-.81.68-1.3 1.41-2.1s1.37-2.35-1.8-3c-.84-.18-9.59-1.58-15-4.35s-7.55-7.06-7-8.55c.47-1.23 1.7-1.35 3.37-1 1.92.36 10.3 2.65 12.83 2.67 1 0 1.85-.2 2.22-.84 1-1.74-2.06-3.84-4.57-6.88-3.62-4.31-10.52-11.51-5.32-17.93 3.44-4.25 10.22-1.49 13 1.79 2.16 2.51 5.92 7.64 8.82 11.12a4.84 4.84 0 0 0 3.54 2c1.45 0 2.76-1 3.51-3.18m-.48-19.53c-2 3.93-4.42 12.39-4.42 12.39s-.22.63-.65-.1c-.29-.48-3.68-5.1-5.39-7.18-2-2.39-10.67-11.58-20.68-6.37-9 4.73-5.56 16.21-2.79 20.53 1.68 2.62 4.93 6.72 5.84 7.87.16.2.13.27-.13.21l-6.47-1.69c-3.31-.85-6.5-.71-7.46.71-.67 1-1.1 2.64.25 5.07 2.65 4.78 9.95 12.35 21.92 14.84.24 0 .21.24 0 .59a2.72 2.72 0 0 0 .18 3.08c1.78 2.13 3.75 2.93 11.71 4.3 11 1.9 14.93-1.84 15.39-2.33a.13.13 0 0 1 .13 0 27.1 27.1 0 0 0 17.09-1.57c7.69-3.26 10.63-6.24 10.68-8.05s-4-1.45-5.16-1.76c-.37-.1-.26-.27-.05-.4.54-.34 1.89-.9 3-1.47s12.35-6.24 14.57-15.81-6.44-9.62-11.11-7.66-9.07 4.19-10.05 4.64c-.16.07-.21 0-.14-.15a62 62 0 0 0 3-9.28c1-4.54.52-17-11.76-19.26a14.93 14.93 0 0 0-2.7-.24 16.92 16.92 0 0 0-14.82 9.12"/><g class="c"><path class="a" d="M23.59 0h93.05v65.27H23.59z"/></g></svg>