<svg xmlns="http://www.w3.org/2000/svg" viewBox="0 0 151.52 151.52"><title>pause-button</title><path d="M78.96 151.52h-6.25c-.23 0-.46-.09-.7-.11l-2.27-.15a70.88 70.88 0 0 1-13.22-2.24A76 76 0 0 1 .25 80.52c0-.61-.17-1.21-.25-1.82v-5.82c.06-.3.13-.6.16-.9.09-.94.16-1.89.24-2.83A72.15 72.15 0 0 1 2.46 57a76.07 76.07 0 0 1 40.6-49.48 74.81 74.81 0 0 1 27-7.24c.92-.07 1.83-.17 2.75-.25h6c.28 0 .56.11.84.12a73.14 73.14 0 0 1 12.29 1.63 76.08 76.08 0 0 1 55.84 50.31 69.39 69.39 0 0 1 3.63 19.46 6.45 6.45 0 0 0 .12.76v7c0 .35-.1.7-.12 1-.1 1.27-.15 2.55-.28 3.82a69.16 69.16 0 0 1-3.4 15.55q-10.28 29.71-38.31 44a72.72 72.72 0 0 1-29.62 7.76c-.28-.02-.57.08-.84.08zM75.85 6.65a69.13 69.13 0 1 0 69.12 69.26A69.15 69.15 0 0 0 75.84 6.65z" fill="#fff"/><path d="M71.85 75.8v23.65a6.73 6.73 0 0 1-2.69 5.55 6.59 6.59 0 0 1-4.13 1.42h-8a6.86 6.86 0 0 1-6.74-5.76 8.38 8.38 0 0 1-.1-1.34V52.23a6.87 6.87 0 0 1 6.89-7.11h7.9a6.8 6.8 0 0 1 6.72 5.41 8 8 0 0 1 .16 1.69q0 11.78-.01 23.58zm-4.67 0V52.45v-.5A2.18 2.18 0 0 0 65 49.8h-7.95a2.18 2.18 0 0 0-2.16 1.8 4 4 0 0 0 0 .75v47.39a2.18 2.18 0 0 0 2.14 2h8a2.14 2.14 0 0 0 2.06-1.6 3.77 3.77 0 0 0 .08-.94q.02-11.68.02-23.44zM101.34 75.8v23.65a6.73 6.73 0 0 1-2.69 5.55 6.59 6.59 0 0 1-4.13 1.42h-8a6.86 6.86 0 0 1-6.74-5.76 8.38 8.38 0 0 1-.1-1.34V52.23a6.87 6.87 0 0 1 6.89-7.11h7.9a6.8 6.8 0 0 1 6.72 5.41 8 8 0 0 1 .16 1.69q0 11.78-.01 23.58zm-4.67 0V52.45v-.5a2.18 2.18 0 0 0-2.18-2.15h-7.95a2.18 2.18 0 0 0-2.16 1.8 4 4 0 0 0 0 .75v47.39a2.18 2.18 0 0 0 2.14 2h8a2.14 2.14 0 0 0 2.06-1.6 3.77 3.77 0 0 0 .08-.94q.02-11.68.01-23.44z" fill="#fff"/></svg>