<svg xmlns="http://www.w3.org/2000/svg" viewBox="0 0 151.52 151.52"><title>play-button</title><path d="M78.96 151.52h-6.25c-.23 0-.46-.09-.7-.11l-2.27-.15a70.88 70.88 0 0 1-13.22-2.24A76 76 0 0 1 .25 80.52c0-.61-.17-1.21-.25-1.82v-5.82c.06-.3.13-.6.16-.9.09-.94.16-1.89.24-2.83A72.15 72.15 0 0 1 2.46 57a76.07 76.07 0 0 1 40.6-49.48 74.81 74.81 0 0 1 27-7.24c.92-.07 1.83-.17 2.75-.25h6c.28 0 .56.11.84.12a73.14 73.14 0 0 1 12.29 1.63 76.08 76.08 0 0 1 55.84 50.31 69.39 69.39 0 0 1 3.63 19.46 6.45 6.45 0 0 0 .12.76v7c0 .35-.1.7-.12 1-.1 1.27-.15 2.55-.28 3.82a69.16 69.16 0 0 1-3.4 15.55q-10.28 29.71-38.31 44a72.72 72.72 0 0 1-29.62 7.76c-.28-.02-.57.08-.84.08zM75.85 6.65a69.13 69.13 0 1 0 69.12 69.26A69.15 69.15 0 0 0 75.84 6.65z" fill="#fff"/><path d="M62.72 41.68a13.08 13.08 0 0 1 6.49 2.05l13.57 8.14 24.09 14.46a14.54 14.54 0 0 1 4.08 3.48 9.67 9.67 0 0 1 2.16 5.46 9 9 0 0 1-1.16 5 13 13 0 0 1-4.81 4.82c-2.06 1.25-4.14 2.48-6.21 3.73L69.6 107.63a15.83 15.83 0 0 1-5 2.07 8.93 8.93 0 0 1-10.35-5.73 13.52 13.52 0 0 1-.86-4.93V60.92 52.4a12.54 12.54 0 0 1 .88-4.78 8.89 8.89 0 0 1 6.77-5.75 5.33 5.33 0 0 1 .63-.08zm-2.84 34.06v22.72a8.11 8.11 0 0 0 .57 3.46 2.26 2.26 0 0 0 2.6 1.38 8 8 0 0 0 3-1.2l22.82-13.69 14.54-8.72a8.9 8.9 0 0 0 2.22-1.75 2.91 2.91 0 0 0 0-4.26 7.91 7.91 0 0 0-2-1.66q-18.92-11.36-37.85-22.7a9.26 9.26 0 0 0-2-.89c-1.95-.6-3.23.16-3.71 2.14a1.36 1.36 0 0 0 0 .21c-.06.73-.17 1.46-.17 2.19q-.03 11.38-.02 22.77z" fill="#fff"/></svg>