<svg xmlns="http://www.w3.org/2000/svg" viewBox="0 0 151.52 151.52"><title>sound-button</title><path d="M78.96 151.52h-6.25c-.23 0-.46-.09-.7-.11l-2.27-.15a70.88 70.88 0 0 1-13.22-2.24 74.76 74.76 0 0 1-39-25A74.34 74.34 0 0 1 .25 80.52c0-.61-.17-1.21-.25-1.82v-5.82c.06-.3.13-.6.16-.9.09-.94.16-1.89.24-2.83A72.15 72.15 0 0 1 2.46 57a76.07 76.07 0 0 1 40.6-49.48 74.81 74.81 0 0 1 27-7.24c.92-.07 1.83-.17 2.75-.25h6c.28 0 .56.11.84.12a73.14 73.14 0 0 1 12.29 1.63 75.1 75.1 0 0 1 38 21.07 74.63 74.63 0 0 1 17.84 29.24 69.39 69.39 0 0 1 3.62 19.43 6.45 6.45 0 0 0 .12.76v7c0 .35-.1.7-.12 1-.1 1.27-.15 2.55-.28 3.82a69.16 69.16 0 0 1-3.4 15.55q-10.28 29.71-38.31 44a72.72 72.72 0 0 1-29.62 7.76c-.27.01-.56.11-.83.11zM75.85 6.65A69.15 69.15 0 0 0 6.73 75.77a69.18 69.18 0 0 0 69 69.13 69.2 69.2 0 0 0 69.26-69A69.17 69.17 0 0 0 75.84 6.65z" fill="#fff"/><path d="M87.91 40.52a20.26 20.26 0 0 0-.12-2.26 8.81 8.81 0 0 0-1.4-4 5.8 5.8 0 0 0-5.34-2.69 7.75 7.75 0 0 0-3 .8 14 14 0 0 0-3.1 2.08Q64.12 43.73 53.3 53.03a18.66 18.66 0 0 1-5.68 3.37 17.72 17.72 0 0 1-6.74 1.26c-2.34-.06-4.68 0-7 0a14.54 14.54 0 0 0-2.2.16 13.87 13.87 0 0 0-10.87 8.22 13.71 13.71 0 0 0-1.23 5.83v6.8c0 .72 0 1.44.06 2.16a13.77 13.77 0 0 0 5.39 10.16 13.66 13.66 0 0 0 8.65 3h7.91a13.45 13.45 0 0 1 1.47.08 19.1 19.1 0 0 1 5 1.33 16.17 16.17 0 0 1 4.59 2.64l17.17 14.72c1.84 1.58 3.67 3.17 5.53 4.73a10.81 10.81 0 0 0 4.63 2.42 5.94 5.94 0 0 0 6.62-2.87 9 9 0 0 0 .68-1.48 12.2 12.2 0 0 0 .64-4.2V75.87q0-17.75-.01-35.35zm-4.88 70.31a9.42 9.42 0 0 1-.29 2.72 5.22 5.22 0 0 1-.41 1 1 1 0 0 1-1.15.54 4.41 4.41 0 0 1-1.18-.41 12.8 12.8 0 0 1-1.82-1.25q-10.24-8.75-20.47-17.53c-.4-.34-.81-.68-1.2-1a23.22 23.22 0 0 0-9.76-5.1 20.44 20.44 0 0 0-5.63-.73h-7.44a9.16 9.16 0 0 1-9.18-9.09V71.7a9.18 9.18 0 0 1 7.57-9 9.28 9.28 0 0 1 1.57-.13c2.34 0 4.68-.05 7 0a23.47 23.47 0 0 0 10.07-2.14 21.7 21.7 0 0 0 5.51-3.46q10.93-9.41 21.9-18.77a14.23 14.23 0 0 1 1.9-1.31 3.7 3.7 0 0 1 1.09-.38 1 1 0 0 1 1.23.59 4.94 4.94 0 0 1 .57 2c.06.56.08 1.12.08 1.68v35.07q0 17.54.04 34.99zM131.06 66.87a41.4 41.4 0 0 0-16.33-25.35 41.73 41.73 0 0 0-13.21-6.43 2.62 2.62 0 0 0-1.55 0 2.42 2.42 0 0 0-1.7 2.13 2.52 2.52 0 0 0 1.38 2.42 4.35 4.35 0 0 0 .69.25 36.85 36.85 0 0 1 15.79 9.36 36.82 36.82 0 0 1 10.86 24.59 37.41 37.41 0 0 1-.8 10 37 37 0 0 1-21.31 26.17 47.16 47.16 0 0 1-4.85 1.77 2.48 2.48 0 0 0-1.66 3.14 2.42 2.42 0 0 0 3.08 1.55 41.59 41.59 0 0 0 23.81-17.67c4.51-7 6.69-14.68 6.64-23.93a35.57 35.57 0 0 0-.84-8z" fill="#fff"/><path d="M99.52 92.01a3.69 3.69 0 0 0-.55.41 2.55 2.55 0 0 0-.34 3.4 2.37 2.37 0 0 0 3.25.51 24 24 0 0 0 5.11-4.13 23.57 23.57 0 0 0 6.29-19.85 23.35 23.35 0 0 0-6.29-13 22.76 22.76 0 0 0-5.3-4.22 2.33 2.33 0 0 0-3.45 1.42 2.59 2.59 0 0 0 .95 2.77c.18.14.38.25.57.38 5.75 3.83 8.64 9.24 8.93 16.31-.11.94-.16 2.09-.38 3.21a19 19 0 0 1-8.79 12.79z" fill="#fff"/></svg>